<svg width="417" height="733" viewBox="0 0 417 733" fill="none" xmlns="http://www.w3.org/2000/svg">
<path d="M602.372 314.253C609.742 233.566 613.427 193.222 589.77 167.184C566.113 141.146 525.462 140.955 444.159 140.574L230.7 139.571C155.276 139.217 117.564 139.04 94.0225 162.362C70.4813 185.683 70.3043 223.395 69.9502 298.819L68.6781 569.802C68.324 645.226 68.147 682.938 91.4682 706.479C114.789 730.02 152.501 730.197 227.925 730.551L426.832 731.485C512.521 731.888 555.366 732.089 579.259 706.34C603.151 680.591 599.57 635.613 592.409 545.657C589.101 504.117 587.634 464.615 590.453 438.172C593.626 408.419 598.029 361.801 602.372 314.253Z" fill="#D0E6E0"/>
<g clipPath="url(#clip0_848_3990)">
<path d="M343.35 731.228C343.35 731.228 332.514 706.081 343.35 706.081C354.187 706.081 367.343 723.659 367.343 723.659C367.343 723.659 338.697 684.75 352.641 682.325C366.57 679.9 383.605 703.486 383.605 703.486C383.605 703.486 373.542 664.577 383.605 660.823C393.669 657.07 411.478 693.971 411.478 693.971C411.478 693.971 398.322 646.999 416.115 646.999C433.924 646.999 436.243 676.687 436.243 676.687C436.243 676.687 439.335 630.58 450.171 634.611C461.008 638.643 455.597 701.185 455.597 701.185C455.597 701.185 473.406 652.76 495.079 655.355C516.753 657.95 469.541 710.7 469.541 710.7C469.541 710.7 502.051 681.877 512.115 685.63C522.179 689.384 483.47 731.861 483.47 731.861L343.366 731.243L343.35 731.228Z" fill="#ADC17D"/>
<path d="M551.242 732H234.181C229.821 730.1 176.905 706.838 198.641 704.799C201.995 704.49 205.087 704.845 207.931 705.664C210.343 705.788 212.584 706.251 214.702 706.961C211.858 701.416 211.44 696.921 216.758 696.087C232.248 693.662 241.245 717.357 241.245 715.611C241.245 713.866 220.175 684.719 235.355 684.719C239.035 684.719 242.42 686.82 245.45 690.001C240.318 678.123 237.102 667.156 242.327 666.508C253.937 665.056 263.63 705 263.63 705C265.949 704.135 252.778 675.312 264.001 679.513C275.224 683.699 281.052 710.143 281.052 710.143C281.052 710.143 289.152 684.734 298.242 684.734C307.332 684.734 298.242 708.691 298.242 708.691C298.242 708.691 315.556 693.261 320.503 695.114C325.45 696.968 313.531 718.809 313.531 718.809C313.531 718.809 323.595 705.232 332.113 708.413C339.069 711.008 334.648 721.914 332.808 725.806C334.493 722.732 339.177 715.797 346.041 718.361C350.153 719.89 350.4 723.335 349.504 726.563C354.574 724.138 361.222 721.589 366.648 721.589C374.717 721.589 362.335 699.254 373.465 697.524C388.955 695.099 393.809 716.801 395.664 715.349C397.024 714.283 376.882 686.171 392.062 686.171C395.741 686.171 399.127 688.271 402.157 691.438C397.024 679.56 393.809 668.593 399.034 667.944C410.644 666.492 422.655 711.333 422.655 711.333C424.974 710.468 409.484 676.764 420.707 680.95C431.931 685.136 437.759 711.58 437.759 711.58C437.759 711.58 445.859 686.171 454.949 686.171C464.039 686.171 454.949 710.128 454.949 710.128C454.949 710.128 472.263 694.697 477.21 696.551C482.157 698.404 470.238 720.245 470.238 720.245C470.238 720.245 480.302 706.668 488.819 709.85C495.776 712.445 491.355 723.35 489.515 727.242C491.2 724.169 495.884 717.233 502.748 719.797C506.844 721.327 507.092 724.771 506.211 727.999C511.281 725.574 517.928 723.026 523.355 723.026C531.424 723.026 525.751 728.864 522.875 731.428C524.916 730.115 529.584 728.185 539.293 728.37C546.991 728.509 550.067 730.347 551.258 732.046L551.242 732Z" fill="#7E923E"/>
<path d="M320.206 287.286C320.206 287.286 330.966 437.903 359.256 458.122L361.961 477.677L351.186 490.466C351.186 490.466 334.351 435.972 327.627 415.119L240.779 345.163L245.494 341.132C245.494 341.132 316.852 401.001 326.282 401.001C326.282 401.001 309.447 302.114 312.817 292.012C316.187 281.926 320.222 287.301 320.222 287.301L320.206 287.286Z" fill="#702C37"/>
<path d="M367.343 515.335C363.834 529.344 371.904 689.801 374.099 732H345.407C346.319 687.376 341.759 520.046 341.759 520.046L343.784 505.248L342.779 475.653C342.779 475.653 369.368 446.058 377.453 428.557C385.538 411.072 407.753 265.753 407.753 265.753L422.562 255.667C422.562 255.667 396.452 401.634 390.918 427.214C384.688 455.975 372.398 479.685 372.398 488.427C372.398 497.17 371.394 499.193 367.343 515.335Z" fill="#702C37"/>
<path d="M209.414 349.117C216.355 364.224 195.254 408.74 152.309 405.882C109.38 403.025 137.067 356.315 137.067 356.315C137.067 356.315 107.54 384.937 74.9684 366.849C42.3965 348.762 54.7017 302.438 54.7017 302.438C54.7017 302.438 10.4584 278.852 28.1743 247.604C45.8902 216.356 144.657 223.801 144.657 223.801C144.657 223.801 202.473 334.011 209.414 349.117Z" fill="#ADC17D"/>
<path d="M631.89 130.83C659.886 190.376 622.583 256.069 606.676 251.203C590.784 246.322 595.082 260.44 586.348 291.317C577.613 322.194 518.839 323.523 500.659 302.779C482.479 282.019 464.532 272.411 446.553 294.963C428.574 317.514 408.818 341.95 390.252 316.155C381.285 303.69 370.387 316.526 361.529 333.1C351.11 352.593 329.282 362.679 307.531 358.71C297.498 356.887 287.218 357.026 279.18 361.706C271.62 366.108 239.62 396.476 230.592 395.873C221.564 395.271 215.906 408.725 198.36 399.92C180.815 391.131 204.559 378.404 190.816 369.862C177.074 361.32 141.796 368.024 139.199 349.735C136.602 331.447 148.706 328.914 148.706 328.914C148.706 328.914 106.72 328.975 99.0525 286.514C98.5114 283.471 98.1868 280.52 98.0322 277.647C91.4158 276.829 84.5057 276.087 83.7327 270.65C82.5115 262.047 88.2004 260.857 88.2004 260.857C88.2004 260.857 68.4594 260.888 64.8574 240.916C61.2556 220.944 76.9153 208.077 76.9153 208.077C76.9153 208.077 62.8942 196.4 67.1608 179.641C71.4275 162.881 97.6612 148.64 97.6612 148.64C97.6612 148.64 90.1327 138.121 98.6506 128.158C103.273 122.752 116.985 118.813 129.723 118.52C147.995 101.606 168.803 90.2992 168.803 90.2992C168.803 90.2992 152.788 67.933 170.905 46.7252C189.023 25.5175 257.599 -10.4106 273.321 18.7674C273.321 18.7674 287.264 19.1999 336.037 3.38291C384.81 -12.4341 390.932 32.3602 398.522 32.8544C406.128 33.3642 408.555 -3.70694 453.834 11.2296C499.113 26.1662 496.021 79.8266 496.021 79.8266C496.021 79.8266 519.581 55.6532 552.462 70.7133C585.327 85.7735 577.675 114.828 577.675 114.828C577.675 114.828 603.955 71.2848 631.951 130.846L631.89 130.83Z" fill="#7E923E"/>
<path d="M225.583 177.663C237.054 156.023 301.409 142.647 301.409 142.647C301.409 142.647 285.811 154.494 251.554 148.068C217.297 141.643 203.663 98.4856 241.537 81.4638C279.411 64.442 335.342 98.671 329.575 84.9392C323.809 71.2074 356.814 48.6095 386.835 63.4843C416.856 78.3591 411.276 97.5279 411.276 97.5279C411.276 97.5279 418.68 50.8183 463.341 53.7995C507.986 56.7806 482.495 109.9 482.155 115.121C480.547 139.279 533.648 94.2379 555.368 119.045C577.088 143.851 491.214 179.61 491.214 179.61C491.214 179.61 523.322 156.008 558.985 179.362C594.649 202.717 576.655 243.465 550.313 259.359C523.971 275.238 462.089 244.422 462.089 244.422C462.089 244.422 459.863 277.709 422.746 275.238C385.629 272.766 398.244 257.335 375.751 222.458C353.274 187.595 337.753 234.228 301.641 231.818C265.545 229.408 288.656 190.437 288.656 190.437C288.656 190.437 214.113 199.304 225.568 177.648L225.583 177.663Z" fill="#ADC17D"/>
<path d="M287.513 290.329C302.57 292.815 308.939 311.567 292.537 319.368C276.12 327.183 251.324 312.726 253.983 318.688C256.642 324.635 242.42 334.845 229.14 328.62C215.861 322.395 215.32 334.459 195.749 333.594C176.178 332.713 186.829 309.235 186.938 306.949C187.417 296.353 164.6 316.572 154.86 305.929C145.121 295.287 168.526 289.448 152.696 279.578C136.866 269.708 144.348 251.697 155.726 244.499C167.104 237.301 194.466 250.184 194.466 250.184C194.466 250.184 195.115 235.602 211.378 236.328C227.641 237.054 222.277 243.928 232.449 258.973C242.621 274.017 248.959 253.458 264.789 254.169C280.603 254.879 270.864 272.148 270.864 272.148C270.864 272.148 272.456 287.857 287.513 290.329Z" fill="#ADC17D"/>
<path d="M381.473 171.315C386.482 177.03 386.837 184.892 382.277 188.877C381.318 189.727 377.732 192.847 376.774 193.696C372.213 197.682 364.453 196.291 359.46 190.576C354.451 184.861 354.095 176.999 358.656 173.014C359.614 172.164 360.727 171.577 361.933 171.191C362.459 170.064 363.201 169.044 364.175 168.195C368.735 164.209 376.495 165.6 381.489 171.315H381.473Z" fill="#E47B76"/>
<path d="M366.429 153.691C366.429 153.691 370.062 159.699 368.207 164.318C366.352 168.952 362.085 171.176 362.085 171.176C354.062 163.036 366.429 153.691 366.429 153.691Z" fill="#7FA457"/>
<path d="M344.092 172.288C344.092 172.288 348.745 167.021 353.723 167.407C358.701 167.793 362.102 171.191 362.102 171.191C356.722 181.278 344.092 172.288 344.092 172.288Z" fill="#7FA457"/>
<path d="M282.721 255.729C286.277 259.791 285.473 266.31 280.897 270.31C279.938 271.16 278.872 271.808 277.774 272.303C277.156 273.322 276.352 274.28 275.393 275.129C270.833 279.115 264.248 279.053 260.692 274.99C257.137 270.928 257.956 264.41 262.516 260.409C263.475 259.56 264.541 258.911 265.639 258.417C266.257 257.397 267.061 256.439 268.02 255.59C272.58 251.605 279.165 251.667 282.721 255.729Z" fill="#E47B76"/>
<path d="M331.093 124.404C335.993 129.996 336.256 137.75 331.695 141.751C330.737 142.6 329.624 143.203 328.434 143.573C327.893 144.701 327.151 145.72 326.192 146.554C321.632 150.54 313.964 149.242 309.064 143.651C304.163 138.059 303.9 130.289 308.461 126.304C309.419 125.455 310.532 124.852 311.723 124.482C312.264 123.354 313.006 122.335 313.964 121.501C318.524 117.515 326.192 118.813 331.093 124.404Z" fill="#E47B76"/>
<path d="M353.491 48.007C357.047 52.0694 356.228 58.5877 351.667 62.5883C350.709 63.4378 349.642 64.0866 348.545 64.5809C347.926 65.6003 347.122 66.558 346.164 67.4075C341.603 71.3927 335.018 71.3309 331.462 67.2685C327.907 63.2061 328.711 56.6878 333.287 52.6872C334.245 51.8377 335.312 51.1889 336.409 50.6946C337.028 49.6752 337.831 48.7175 338.79 47.868C343.35 43.8828 349.936 43.9446 353.491 48.007Z" fill="#E47B76"/>
<path d="M270.292 241.086C270.292 241.086 273.925 247.094 272.07 251.713C270.215 256.347 265.948 258.571 265.948 258.571C257.925 250.431 270.292 241.086 270.292 241.086Z" fill="#7FA457"/>
<path d="M253.674 245.395C253.674 245.395 253.411 252.408 257.276 255.559C261.14 258.71 265.964 258.586 265.964 258.586C269.024 247.573 253.674 245.395 253.674 245.395Z" fill="#7FA457"/>
<path d="M247.951 259.668C247.951 259.668 252.604 254.4 257.567 254.787C262.544 255.173 265.945 258.571 265.945 258.571C260.566 268.657 247.951 259.668 247.951 259.668Z" fill="#7FA457"/>
<path d="M235.601 359.065C239.156 363.127 238.337 369.645 233.777 373.646C232.818 374.495 229.232 377.616 228.273 378.465C223.713 382.45 217.127 382.389 213.572 378.326C210.016 374.264 210.836 367.745 215.396 363.745C216.354 362.895 217.421 362.247 218.519 361.752C219.137 360.733 219.941 359.775 220.899 358.926C225.46 354.94 232.045 355.002 235.601 359.065Z" fill="#E47B76"/>
<path d="M223.171 344.437C223.171 344.437 226.804 350.446 224.949 355.064C223.094 359.698 218.827 361.922 218.827 361.922C210.804 353.782 223.171 344.437 223.171 344.437Z" fill="#7FA457"/>
<path d="M206.553 348.747C206.553 348.747 206.29 355.759 210.155 358.91C214.019 362.061 218.842 361.938 218.842 361.938C221.903 350.925 206.553 348.747 206.553 348.747Z" fill="#7FA457"/>
<path d="M200.834 363.019C200.834 363.019 205.487 357.752 210.449 358.138C215.427 358.524 218.828 361.922 218.828 361.922C213.448 372.009 200.834 363.019 200.834 363.019Z" fill="#7FA457"/>
<path d="M163.301 270.017C167.908 275.269 167.939 282.76 163.378 286.745C162.42 287.595 158.833 290.715 157.875 291.564C153.314 295.549 145.894 294.53 141.287 289.278C136.681 284.027 136.65 276.535 141.21 272.55C142.169 271.7 143.266 271.083 144.441 270.681C144.998 269.584 145.755 268.58 146.713 267.731C151.274 263.746 158.71 264.765 163.301 270.017Z" fill="#E47B76"/>
<path d="M148.984 253.227C148.984 253.227 152.617 259.235 150.761 263.854C148.906 268.488 144.64 270.712 144.64 270.712C136.617 262.572 148.984 253.227 148.984 253.227Z" fill="#7FA457"/>
<path d="M132.365 257.536C132.365 257.536 132.102 264.549 135.967 267.7C139.832 270.851 144.655 270.727 144.655 270.727C147.716 259.714 132.365 257.536 132.365 257.536Z" fill="#7FA457"/>
<path d="M126.647 271.824C126.647 271.824 131.3 266.557 136.262 266.943C141.24 267.329 144.641 270.727 144.641 270.727C139.261 280.814 126.647 271.824 126.647 271.824Z" fill="#7FA457"/>
<path d="M215.026 156.085C218.581 160.147 217.777 166.666 213.202 170.666C212.243 171.516 211.176 172.164 210.079 172.659C209.461 173.678 208.657 174.636 207.698 175.485C203.138 179.471 196.552 179.409 192.997 175.346C189.441 171.284 190.261 164.766 194.821 160.765C195.779 159.916 196.846 159.267 197.944 158.773C198.562 157.753 199.366 156.795 200.324 155.946C204.885 151.961 211.47 152.022 215.026 156.085Z" fill="#E47B76"/>
<path d="M244.473 237.487C249.806 243.573 250.44 251.744 245.88 255.744C244.921 256.594 241.335 259.714 240.376 260.564C235.816 264.549 227.793 262.85 222.459 256.748C217.126 250.662 216.492 242.476 221.053 238.491C222.011 237.641 223.14 237.054 224.361 236.714C224.871 235.556 225.598 234.521 226.556 233.672C231.116 229.686 239.14 231.386 244.473 237.487Z" fill="#E47B76"/>
<path d="M292.473 203.675C296.493 208.263 296.044 215.213 291.484 219.199C290.526 220.048 286.939 223.168 285.981 224.018C281.42 228.003 274.464 227.524 270.46 222.937C266.441 218.349 266.889 211.414 271.449 207.413C272.408 206.563 273.49 205.93 274.618 205.482C275.206 204.432 275.994 203.443 276.953 202.609C281.513 198.624 288.47 199.103 292.473 203.69V203.675Z" fill="#E47B76"/>
<path d="M275.239 276.396C279.769 281.555 279.738 288.985 275.178 292.97C274.219 293.819 273.121 294.437 271.962 294.839C271.406 295.936 270.648 296.94 269.674 297.774C265.114 301.759 257.755 300.801 253.226 295.642C248.696 290.483 248.727 283.053 253.288 279.068C254.246 278.219 255.344 277.601 256.503 277.199C257.06 276.103 257.817 275.098 258.791 274.264C263.351 270.279 270.71 271.237 275.239 276.396Z" fill="#E47B76"/>
<path d="M142.571 183.703C147.101 188.862 147.07 196.292 142.51 200.277C141.551 201.126 140.453 201.744 139.294 202.146C138.738 203.242 137.98 204.246 137.006 205.081C132.446 209.066 125.087 208.108 120.558 202.949C116.028 197.79 116.059 190.36 120.62 186.375C121.578 185.526 122.676 184.908 123.835 184.506C124.392 183.409 125.149 182.405 126.123 181.571C130.683 177.586 138.042 178.544 142.571 183.703Z" fill="#E47B76"/>
<path d="M190.63 203.381C195.159 208.54 195.129 215.97 190.568 219.955C189.61 220.805 188.512 221.423 187.353 221.824C186.796 222.921 186.039 223.925 185.065 224.759C180.504 228.744 173.146 227.787 168.616 222.627C164.087 217.468 164.118 210.039 168.678 206.054C169.637 205.204 170.734 204.586 171.894 204.185C172.45 203.088 173.208 202.084 174.182 201.25C178.742 197.265 186.1 198.222 190.63 203.381Z" fill="#E47B76"/>
<path d="M212.303 310.27C217.126 315.784 217.343 323.476 212.782 327.462C211.824 328.311 208.237 331.431 207.279 332.281C202.719 336.266 195.113 335.03 190.29 329.516C185.466 324.002 185.25 316.309 189.81 312.324C190.769 311.475 191.882 310.872 193.057 310.486C193.598 309.358 194.34 308.354 195.314 307.505C199.874 303.52 207.48 304.755 212.303 310.27Z" fill="#E47B76"/>
<path d="M197.17 348.175C200.726 352.237 199.922 358.756 195.346 362.756C194.388 363.606 190.801 366.726 189.843 367.575C185.282 371.561 178.697 371.499 175.141 367.436C171.586 363.374 172.405 356.856 176.965 352.855C177.924 352.006 178.991 351.357 180.088 350.863C180.707 349.843 181.51 348.885 182.469 348.036C187.029 344.051 193.615 344.113 197.17 348.175Z" fill="#E47B76"/>
<path d="M155.385 343.572C159.79 348.608 159.667 355.914 155.106 359.899C154.148 360.748 150.561 363.869 149.603 364.718C145.043 368.703 137.777 367.869 133.371 362.834C128.965 357.798 129.089 350.492 133.649 346.507C134.608 345.657 135.705 345.039 136.865 344.622C137.437 343.541 138.194 342.537 139.168 341.703C143.729 337.718 150.994 338.552 155.4 343.588L155.385 343.572Z" fill="#E47B76"/>
<path d="M202.597 141.442C202.597 141.442 206.23 147.45 204.375 152.069C202.52 156.703 198.253 158.927 198.253 158.927C190.23 150.787 202.597 141.442 202.597 141.442Z" fill="#7FA457"/>
<path d="M185.963 145.751C185.963 145.751 185.7 152.764 189.565 155.915C193.429 159.066 198.253 158.942 198.253 158.942C201.313 147.929 185.963 145.751 185.963 145.751Z" fill="#7FA457"/>
<path d="M180.26 160.039C180.26 160.039 184.913 154.772 189.875 155.158C194.853 155.544 198.254 158.942 198.254 158.942C192.874 169.029 180.26 160.039 180.26 160.039Z" fill="#7FA457"/>
<path d="M332.419 246.724C337.489 252.516 337.907 260.44 333.346 264.425C332.388 265.275 328.801 268.395 327.843 269.244C323.283 273.229 315.476 271.762 310.405 265.97C305.335 260.177 304.917 252.253 309.478 248.253C310.436 247.403 311.549 246.816 312.755 246.446C313.281 245.303 314.023 244.283 314.981 243.434C319.542 239.448 327.348 240.916 332.419 246.708V246.724Z" fill="#E47B76"/>
<path d="M317.253 228.96C317.253 228.96 320.886 234.969 319.031 239.588C317.176 244.221 312.909 246.446 312.909 246.446C304.886 238.305 317.253 228.96 317.253 228.96Z" fill="#7FA457"/>
<path d="M436.259 252.392C440.432 257.15 440.123 264.255 435.547 268.24C434.589 269.09 433.507 269.723 432.363 270.156C431.775 271.221 431.003 272.21 430.044 273.06C425.484 277.045 418.404 276.411 414.23 271.654C410.056 266.897 410.365 259.791 414.941 255.806C415.899 254.957 416.981 254.323 418.125 253.891C418.713 252.825 419.486 251.836 420.444 250.987C425.004 247.002 432.085 247.635 436.259 252.392Z" fill="#E47B76"/>
<path d="M422.714 236.498C422.714 236.498 426.347 242.507 424.492 247.125C422.637 251.759 418.37 253.983 418.37 253.983C410.347 245.843 422.714 236.498 422.714 236.498Z" fill="#7FA457"/>
<path d="M381.578 252.789C381.578 252.789 385.087 258.875 390.034 259.493C394.981 260.11 399 257.454 399 257.454C395.738 246.502 381.578 252.804 381.578 252.804V252.789Z" fill="#7FA457"/>
<path d="M110.772 231.494C116.151 237.626 117.512 245.086 109.427 252.161C101.342 257.212 94.1224 256.887 88.7427 250.755C83.363 244.623 85.2336 235.386 92.4065 232.729C95.993 225.979 105.407 225.361 110.772 231.494Z" fill="#E47B76"/>
<path d="M131.994 277.91C137.374 284.042 138.734 291.503 130.649 298.577C122.564 303.628 115.345 303.304 109.965 297.171C104.586 291.039 106.456 281.802 113.629 279.146C117.216 272.396 126.615 271.778 131.994 277.91Z" fill="#E47B76"/>
</g>
<defs>
<clipPath id="clip0_848_3990">
<rect width="618" height="732" fill="white" transform="matrix(-1 0 0 1 642 0)"/>
</clipPath>
</defs>
</svg>
