<svg width="420" height="1618" viewBox="0 0 420 1618" fill="none" xmlns="http://www.w3.org/2000/svg">
<path d="M-195.37 1412.79C-235.77 1404.37 -277.036 1408.95 -317.866 1405.16C-347.641 1402.4 -378.103 1398.14 -408.827 1402.78C-425.274 1405.26 -442.779 1399.93 -459.707 1397.99C-471.551 1396.63 -479.76 1385.25 -484.527 1373.95C-490.891 1357.28 -495.195 1339.89 -497.344 1322.18C-502.317 1290.45 -498.211 1258.12 -505.216 1226.65C-505.808 1222.95 -506.002 1219.21 -505.792 1215.47C-505.836 1129.49 -505.843 1043.51 -505.815 957.525C-505.815 953.062 -505.132 948.594 -504.772 944.136C-493.682 952.792 -483.104 962.084 -473.091 971.967C-448.408 996.449 -423.237 1020.44 -398.263 1044.64C-399.841 1056.04 -391.304 1066.49 -394.123 1077.6C-399.063 1097.08 -399.373 1117.24 -405.264 1136.67C-413.487 1163.02 -417.21 1190.57 -416.278 1218.15C-414.807 1255.15 -394.858 1284.37 -359.746 1295.83C-322.835 1307.88 -288.752 1298.33 -257.461 1278.38C-207.232 1246.36 -194.368 1200.14 -217.562 1145.04C-221.527 1135.33 -227.405 1126.51 -234.845 1119.11C-242.285 1111.7 -251.137 1105.87 -260.875 1101.96C-273.922 1096.49 -287.029 1090.96 -300.516 1086.77C-325.077 1079.69 -346.881 1065.26 -362.991 1045.41C-366.7 1040.79 -369.505 1035.2 -376.403 1034.61C-374.872 1029.19 -377.569 1024.5 -378.623 1019.44C-383.025 998.285 -394.188 978.963 -394.544 956.649C-395.256 909.576 -397.256 862.522 -397.598 815.449C-398.113 744.442 -397.813 673.439 -411.3 603.28C-413.201 593.38 -414.92 583.513 -422.071 575.056C-445.71 678.853 -438.807 783.638 -435.567 890.119C-439.713 883.348 -442.414 875.792 -443.5 867.926C-445.294 855.367 -447.377 842.844 -449.56 830.346C-459.829 771.547 -470.717 712.846 -480.28 653.93C-486.138 617.802 -491.425 581.588 -501.821 546.443C-508.56 523.647 -514.868 500.368 -532.977 483.036C-532.321 450.335 -530.668 417.831 -519.513 386.531C-513.112 368.558 -500.903 357.346 -484.105 348.566C-468.099 340.197 -451.915 338.961 -434.72 339.285C-411.605 339.725 -388.48 339.383 -365.361 339.369C-345.275 374.491 -325.176 409.566 -304.482 445.727C-313.787 446.079 -317.126 440.412 -321.482 436.83C-333.03 427.398 -344.077 417.344 -355.719 408.039C-358.903 405.491 -363.44 402.42 -367.763 406.611C-371.977 410.736 -369.168 415.11 -366.929 418.786C-360.738 428.948 -351.916 437.401 -347.556 448.757C-337.027 475.238 -320.226 498.766 -298.596 517.32C-290.866 524.37 -283.543 531.853 -276.661 539.732C-264.72 553.116 -253.499 567.048 -249.467 585.213C-249.143 594.199 -251.15 603.116 -255.293 611.096C-263.685 626.947 -271.571 643.066 -279.504 659.156C-293.553 687.689 -302.173 717.375 -299.303 749.701C-294.774 800.661 -261.441 838.433 -208.346 838.105C-194.974 837.368 -181.685 835.536 -168.612 832.627C-123.258 824.928 -90.2196 801.597 -77.557 754.599C-74.317 743.902 -74.5135 732.459 -78.1189 721.88C-88.9934 689.044 -109.859 660.428 -137.798 640.036C-157.57 625.402 -177.762 611.255 -190.982 589.587C-193.901 586.212 -197.331 583.317 -201.149 581.008C-214.092 547.632 -213.053 513.536 -202.956 480.217C-189.677 434.39 -182.689 386.971 -182.183 339.261C-161.344 339.261 -140.341 340.937 -119.703 338.9C-82.8581 335.266 -45.685 337.088 -8.99426 331.037C2.84998 329.87 14.7625 329.548 26.6525 330.073C34.3606 353.221 42.1623 376.359 34.3372 401.183C25.3834 402.232 20.1476 408.83 14.2003 414.473C4.47858 423.689 -5.7583 432.395 -15.7048 441.293C-41.7653 464.604 -68.7669 487.691 -82.6143 521.413C-90.6549 540.997 -94.8604 560.609 -90.4351 582.291C-83.3779 616.86 -61.593 638.43 -32.3106 654.539C-10.4243 665.94 13.4385 673.057 37.9945 675.505C50.6028 677.435 63.4758 676.695 75.7798 673.333C88.0839 669.97 99.5442 664.06 109.418 655.986C143.187 628.062 151.818 588.823 148.755 549.014C145.009 500.606 120.241 458.661 94.5687 418.131C97.7391 380.096 118.227 350.266 140.499 321.278C186.86 321.311 233.502 324.557 279.503 320.511C330.481 316.02 362.938 360.915 369.968 396.44C379.451 444.012 382.248 492.675 378.279 541.02C375.797 570.837 376.612 600.61 374.13 630.23C372.257 652.511 368.609 674.564 371.4 696.971C368.159 704.9 361.238 709.789 355.581 715.652C332.245 738.878 311.257 764.349 292.924 791.697C277.227 816.166 257.727 837.628 242.128 862.925C237.913 856.43 240.423 851.541 241.613 846.685C246.048 828.557 250.703 810.481 255.048 792.329C268.02 738.134 263.946 684.056 253.704 630.043C252.768 625.102 252.96 618.335 245.584 619.127C239.908 619.75 240.077 625.538 240.433 629.94C243.772 672.849 228.725 712.313 217.135 752.319C211.081 773.078 206.375 794.205 203.044 815.571C200.361 832.898 203.381 851.307 195.589 867.585C193.917 867.639 192.265 867.209 190.832 866.347C189.399 865.484 188.246 864.226 187.511 862.724C171.051 834.102 149.785 808.87 130.379 782.365C128.812 779.827 126.908 777.514 124.717 775.49C119.725 771.622 116.405 773.996 115.057 779.344C113.708 784.692 116.125 789.567 117.529 794.606C125.29 819.626 136.167 843.571 149.907 865.875C163.338 889.182 178.679 911.379 190.353 935.712C199.644 955.071 200.632 974.187 190.18 993.565C186.354 1000.66 181.006 1007.48 182.369 1016.45C163.11 1034.03 141.656 1049.05 118.541 1061.12C105.319 1068.19 93.814 1078.08 84.8422 1090.09C75.8703 1102.11 69.6514 1115.94 66.626 1130.63C61.6762 1151.7 55.0917 1173.28 71.8098 1192.11C84.6223 1206.54 97.4487 1220.86 115.74 1229.6C142.937 1242 172.685 1247.76 202.543 1246.43C242.119 1245.71 273.396 1228.96 292.769 1194.23C313.706 1156.71 313.997 1118.71 288.035 1082.87C273.653 1063.02 257.994 1044.09 242.91 1024.75C240.236 999.746 250.314 978.626 267.069 962.128C303.315 926.439 333.843 886.11 365.626 846.745C365.664 868.399 366.516 890.091 365.574 911.703C363.294 963.955 369.494 1015.92 371.498 1067.97C372.786 1101.38 373.878 1134.86 374.58 1168.31C375.264 1201.09 370.028 1233.41 366.652 1265.9C363.894 1292.47 362.039 1319.08 356.817 1345.35C354.345 1357.75 347.574 1369 347.485 1382.03C347.443 1388.32 342.277 1390.58 337.651 1393.07C298.754 1414.09 259.324 1432.69 213.253 1431.1C198.591 1430.59 184.036 1436.68 168.953 1435.06C145.36 1432.52 121.753 1430.09 98.1558 1427.57C95.9923 1427.02 93.7892 1426.65 91.567 1426.45C57.2083 1428.53 23.2382 1422.16 -10.9893 1421.83C-13.4807 1399.59 -15.7468 1377.31 -18.519 1355.1C-23.3188 1322.56 -31.8839 1290.69 -44.0414 1260.12C-55.641 1228.87 -62.8897 1197.04 -52.1799 1163.77C-51.9752 1161.53 -52.1999 1159.28 -52.8407 1157.13C-48.7999 1155.17 -45.4453 1152.04 -43.217 1148.14C-31.5518 1129.76 -18.4538 1111.66 -0.724243 1099.57C25.5002 1081.68 39.1323 1055.93 52.1508 1028.94C57.6578 1018.28 60.4847 1006.44 60.3876 994.437C60.2906 982.436 57.2722 970.64 51.5934 960.068C40.0547 937.313 23.9126 920.033 -1.62347 912.147C-25.0167 904.601 -49.4274 900.683 -74.0071 900.529C-139.268 900.698 -169.248 957.028 -162.791 1009.94C-158.468 1041.83 -146.379 1072.17 -127.585 1098.3C-115.24 1116.2 -99.6274 1134.06 -100.859 1158.57C-101.721 1176.01 -111.353 1189.43 -121.52 1202.37C-148.213 1236.31 -179.378 1267.32 -190.359 1311.24C-192.061 1315.38 -194.273 1319.3 -196.944 1322.9C-201.116 1330.39 -210.655 1339.69 -201.533 1346.25C-194.246 1351.49 -188.126 1339.7 -182.45 1334.35C-169.806 1322.4 -157.602 1309.97 -145.221 1297.73L-141.221 1300.69C-162.201 1336.73 -175.603 1376.21 -195.37 1412.79Z" fill="#FAD9C9"/>
<path d="M140.52 321.292C118.248 350.279 97.7604 380.109 94.5901 418.158C72.9737 417.999 53.4924 410.258 34.3814 401.197C42.2066 376.377 34.3814 353.234 26.6967 330.086C14.7212 295.478 0.153925 261.821 -16.8822 229.403C-18.6149 226.125 -20.8957 223.105 -22.7033 219.846C-23.2545 218.871 -23.4773 217.745 -23.3389 216.635C-23.2006 215.524 -22.7088 214.487 -21.9355 213.678C-21.5036 213.063 -20.9295 212.56 -20.2623 212.214C-19.5952 211.867 -18.854 211.685 -18.1021 211.685C-17.3502 211.685 -16.6096 211.867 -15.9424 212.214C-15.2752 212.56 -14.7012 213.063 -14.2692 213.678C-1.93435 226.678 11.9548 238.184 22.6741 252.753C26.4485 257.904 28.4622 265.242 39.0129 265.864C30.9489 227.432 21.8128 189.702 24.9269 150.604C27.9895 112.129 38.8072 74.7399 40.5071 35.6234C53.1511 50.6368 50.6411 69.7062 55.0664 86.6303C59.5854 103.896 60.8494 121.991 64.7175 139.458C68.6746 157.319 66.6986 176.374 76.2236 193.864C86.8586 129.544 115.752 73.2322 148.982 18.8587C153.099 12.1199 151.736 -3.0528 163.279 0.543689C171.615 3.13803 164.755 15.2906 163.898 22.9191C158.956 73.4894 148.564 123.377 132.901 171.714C131.684 176.025 130.723 180.403 130.021 184.827C128.064 187.103 125.769 190.652 128.405 192.319C132.081 194.628 132.152 189.884 133.332 187.711C141.11 178.673 149.451 170.052 156.569 160.522C184.095 123.663 220.458 95.6824 252.934 63.801C255.992 60.7945 259.153 55.882 263.897 60.1247C268.393 64.138 264.398 68.3201 262.047 71.9447C219.02 138.358 183.308 209.365 135.875 273.02C135.537 273.691 135.311 274.412 135.205 275.155C131.637 278.649 127.043 281.782 129.834 288.6C133.806 286.195 136.935 282.619 138.792 278.363C152.448 270.037 161.182 254.288 179.066 251.563C184.306 260.367 177.122 265.565 173.254 271.124C161.837 287.542 149.301 303.178 140.52 321.292Z" fill="#88A08A"/>
<path d="M182.388 1016.46C181.026 1007.49 186.373 1000.67 190.199 993.577C200.652 974.199 199.664 955.084 190.373 935.724C178.698 911.373 163.357 889.194 149.926 865.887C136.187 843.583 125.308 819.639 117.548 794.618C116.143 789.579 113.737 784.677 115.076 779.357C116.415 774.037 119.759 771.635 124.737 775.503C126.927 777.527 128.832 779.839 130.398 782.377C149.8 808.906 171.065 834.114 187.53 862.736C188.265 864.239 189.419 865.497 190.852 866.359C192.285 867.221 193.937 867.651 195.608 867.597C203.401 851.319 200.38 832.901 203.063 815.584C206.393 794.218 211.1 773.09 217.154 752.332C228.754 712.325 243.791 672.862 240.452 629.952C240.105 625.55 239.937 619.762 245.603 619.14C252.978 618.329 252.787 625.115 253.723 630.055C263.974 684.068 268.039 738.147 255.067 792.342C250.721 810.493 246.067 828.569 241.632 846.697C240.443 851.553 237.947 856.442 242.147 862.937C257.746 837.649 277.245 816.178 292.943 791.71C311.276 764.362 332.264 738.89 355.6 715.664C361.257 709.801 368.179 704.893 371.419 696.984C383.867 685.573 396.314 674.159 408.761 662.742C410.981 660.714 413.997 658.672 416.68 660.354C420.342 662.648 420.033 666.568 417.944 670.071C415.76 673.933 413.353 677.664 410.733 681.244C394.64 703.386 380.942 727.172 369.869 752.205C328.514 802.78 266.653 893.161 263.375 907.964C272.272 903.927 276.075 895.423 281.123 888.338C299.303 863.812 320.372 841.567 343.875 822.083C352.842 814.342 363.009 807.992 370.609 798.669C380.607 791.139 390.521 783.487 400.669 776.158C403.455 774.144 407.178 771.334 410.278 775.404C411.323 776.961 411.753 778.85 411.484 780.706C411.216 782.561 410.269 784.251 408.827 785.449C391.88 803.959 377.366 824.557 365.636 846.744C333.853 886.108 303.325 926.438 267.079 962.126C250.324 978.624 240.246 999.745 242.92 1024.76C222.749 1022 202.572 1019.24 182.388 1016.46Z" fill="#88A08A"/>
<path d="M370.621 798.683C363.021 807.993 352.854 814.343 343.887 822.098C320.384 841.582 299.315 863.827 281.135 888.352C276.087 895.437 272.275 903.942 263.387 907.978C266.665 893.166 328.527 802.804 369.882 752.219L370.621 798.683Z" fill="#FAD9C9"/>
<path d="M34.3768 401.197C53.4879 410.258 72.9691 417.999 94.5855 418.158C120.257 458.675 145.026 500.62 148.772 549.027C151.853 588.832 143.223 628.075 109.435 655.999C99.561 664.074 88.1007 669.984 75.7966 673.346C63.4926 676.708 50.619 677.448 38.0108 675.518C13.4547 673.069 -10.4075 665.954 -32.2938 654.553C-61.5761 638.443 -83.361 616.873 -90.4182 582.304C-94.8436 560.622 -90.6381 541.01 -82.5975 521.426C-68.7501 487.709 -41.7485 464.617 -15.688 441.306C-5.74144 432.408 4.49538 423.703 14.2171 414.487C20.1879 408.844 25.4231 402.246 34.3768 401.197ZM-17.5756 614.129C-47.1202 601.822 -57.8716 581.049 -50.866 555.251C-48.2228 546.678 -44.8565 538.345 -40.8027 530.342C-30.6127 508.487 -15.8659 489.601 -1.63919 470.317C1.7372 465.746 8.50407 461.377 3.43246 451.5C-22.3237 480.975 -45.6119 510.149 -59.2017 545.445C-71.9721 578.614 -59.7824 608.899 -27.325 623.95C-3.83074 634.842 20.0989 645.102 46.7776 647.233C76.6828 649.621 97.5636 638.471 109.767 611.221C126.766 573.29 123.784 535.597 108.527 498.03C108.253 497.339 107.94 496.663 107.59 496.007C107.316 495.316 106.896 494.693 106.359 494.179C105.821 493.666 105.179 493.275 104.476 493.034C103.773 492.792 103.026 492.706 102.286 492.78C101.547 492.854 100.832 493.088 100.191 493.464C99.3564 494.13 98.6986 494.99 98.2755 495.97C97.8524 496.951 97.6768 498.02 97.765 499.084C99.0201 504.132 101.193 508.951 102.917 513.886C109.518 533.063 111.793 553.462 109.58 573.622C108.439 593.237 100.35 611.806 86.7648 626.001C83.2901 629.48 79.2491 634.013 72.2107 627.841C93.3401 603.162 92.4456 573.05 91.7244 542.986C90.7176 500.84 82.588 467.839 70.8245 458.169C67.4996 465.713 70.412 472.723 72.1307 479.987C79.2672 508.282 82.7301 537.38 82.4335 566.56C81.9652 586.383 77.2822 605.161 64.3151 620.835C58.8361 627.448 52.6921 633.994 40.7038 630.609C47.8224 608.278 53.6838 585.566 58.2602 562.58C65.6546 518.064 65.912 509.686 55.0241 494.312C49.222 501.154 52.0316 508.829 52.0784 515.853C51.9231 547.296 46.8462 578.521 37.0321 608.393C34.8218 615.445 33.5017 624.451 23.8174 626.998C14.3064 603.406 13.215 597.692 17.6825 578.647C23.302 554.656 29.7129 530.848 35.7071 506.942C37.2428 503.248 37.809 499.223 37.3517 495.248C36.8943 491.274 35.4287 487.483 33.0941 484.235C18.858 529.017 4.85146 568.995 5.03878 613.951C2.04593 612.732 -0.831818 611.246 -3.55936 609.512C-25.9765 589.722 -23.0496 565.694 -13.6135 541.535C-6.22941 523.519 3.12432 506.375 14.2777 490.416C18.2348 484.553 24.6974 478.675 20.7122 465.793C2.7953 490.223 -12.7938 511.779 -22.3282 537.072C-31.5396 561.573 -35.2583 586.177 -17.5756 614.129Z" fill="#FAECE5"/>
<path d="M-52.8387 1157.15C-68.8356 1158.02 -84.9772 1153.96 -100.857 1158.58C-99.6254 1134.07 -115.238 1116.21 -127.583 1098.31C-146.377 1072.18 -158.467 1041.84 -162.789 1009.95C-169.247 957.032 -139.267 900.71 -74.0057 900.542C-49.4259 900.696 -25.0147 904.614 -1.62146 912.16C23.9146 920.046 40.0567 937.326 51.5954 960.08C57.2742 970.653 60.2925 982.449 60.3896 994.45C60.4867 1006.45 57.6597 1018.29 52.1528 1028.96C39.1342 1055.94 25.5068 1081.69 -0.72226 1099.58C-18.4518 1111.67 -31.5499 1129.77 -43.215 1148.15C-45.4433 1152.05 -48.7979 1155.19 -52.8387 1157.15ZM-64.9582 941.166C-53.766 959.078 -56.6413 975.389 -58.2991 991.39C-59.9147 1006.98 -62.3587 1022.48 -64.2694 1038.04C-64.4184 1038.78 -64.3943 1039.54 -64.1985 1040.27C-64.0026 1040.99 -63.6404 1041.66 -63.1409 1042.23C-62.6414 1042.79 -62.0183 1043.23 -61.3202 1043.51C-60.6221 1043.79 -59.8682 1043.9 -59.1183 1043.84C-58.0887 1043.61 -57.1306 1043.14 -56.3263 1042.45C-55.522 1041.77 -54.8958 1040.9 -54.5011 1039.92C-53.2507 1035.68 -53.035 1031.14 -52.1968 1026.76C-47.8173 1000.53 -46.4147 973.891 -48.0152 947.347C-36.0269 952.068 -32.9315 960.385 -29.8642 968.613C-21.435 991.283 -27.7707 1012.83 -35.24 1034.17C-37.2021 1039.79 -40.2556 1045.05 -42.2318 1050.68C-42.5018 1051.7 -42.5179 1052.77 -42.2787 1053.8C-42.0395 1054.83 -41.5526 1055.78 -40.8599 1056.58C-40.2397 1056.97 -39.5407 1057.23 -38.8117 1057.33C-38.0826 1057.43 -37.3403 1057.38 -36.6354 1057.16C-35.9305 1056.95 -35.2798 1056.59 -34.7278 1056.1C-34.1758 1055.62 -33.7354 1055.02 -33.437 1054.34C-32.1613 1052.5 -31.0876 1050.53 -30.2341 1048.46C-20.3016 1021.62 -11.2354 994.701 -20.6527 965.569C-21.6736 962.422 -23.5096 958.408 -18.9812 955.908C-8.37428 961.235 0.121628 969.991 5.12683 980.753C10.132 991.516 11.353 1003.65 8.59215 1015.2C5.2345 1030.97 -4.02356 1043.81 -11.4366 1057.59C-13.5721 1061.56 -17.801 1065.73 -11.9614 1072.11C4.69577 1052.95 16.211 1032.45 18.8241 1008.08C21.4933 983.19 13.3263 961.617 -8.1028 947.872C-22.9381 939.229 -38.3839 931.681 -54.3181 925.286C-57.8188 923.874 -61.5988 923.29 -65.3624 923.58C-69.1259 923.87 -72.7714 925.026 -76.0144 926.958C-106.767 942.824 -126.726 966.356 -127.349 1002.44C-127.724 1024.21 -122.703 1045.46 -118.512 1066.72C-117.805 1070.29 -116.283 1074.92 -111.956 1074.36C-105.461 1073.52 -106.964 1068.2 -108.21 1063.92C-113.172 1045.11 -116.076 1025.82 -116.873 1006.39C-118.503 980.273 -107.54 960.783 -81.9944 945.596C-93.4255 990.112 -98.4548 1031.87 -82.8044 1073.5C-83.3289 1051.87 -85.2397 1030.24 -83.8723 1008.63C-82.8126 984.993 -76.342 961.912 -64.9582 941.166Z" fill="#FAECE5"/>
<path d="M182.391 1016.46C202.574 1019.23 222.754 1022 242.932 1024.77C258.015 1044.11 273.675 1063.04 288.056 1082.89C314.018 1118.72 313.728 1156.72 292.791 1194.25C273.417 1228.97 242.14 1245.72 202.565 1246.44C172.707 1247.78 142.959 1242.01 115.762 1229.62C97.4704 1220.87 84.6439 1206.56 71.8314 1192.13C55.1134 1173.3 61.6973 1151.73 66.6472 1130.64C69.6725 1115.96 75.892 1102.12 84.8638 1090.11C93.8357 1078.09 105.34 1068.2 118.562 1061.13C141.678 1049.06 163.132 1034.04 182.391 1016.46ZM126.284 1193.98C99.0483 1175.36 93.9725 1155.5 109.29 1127.28C118.534 1110.07 131.982 1095.47 148.383 1084.85C156.672 1079.45 165.204 1074.03 166.984 1062.8C137.013 1081.81 106.541 1100.24 93.8084 1136.25C89.7779 1147.64 89.3137 1159.99 92.4782 1171.66C99.5494 1197.98 158.456 1234.25 185.247 1227.47C198.319 1224.51 211.537 1222.24 224.846 1220.66C232.646 1219.64 240.087 1216.76 246.536 1212.26C252.986 1207.76 258.255 1201.77 261.897 1194.79C281.453 1161.3 276.213 1109.79 249.918 1078.82C247.778 1076.3 245.395 1075.03 242.351 1077C241.437 1077.69 240.822 1078.69 240.632 1079.82C240.442 1080.94 240.692 1082.1 241.33 1083.04C244.837 1090.45 248.448 1097.83 252.462 1104.98C263.259 1124.91 266.652 1148.02 262.042 1170.22C260.738 1180.57 255.79 1190.12 248.086 1197.16C240.381 1204.19 230.422 1208.26 219.994 1208.62C234.177 1191.52 241.48 1169.76 240.478 1147.57C239.518 1126.79 243.461 1105.16 229.889 1084.78C223.558 1093.78 226.93 1101.03 228.283 1107.89C232.21 1130.04 231.572 1152.75 226.41 1174.64C225.184 1182.57 221.649 1189.97 216.246 1195.91C210.843 1201.84 203.811 1206.06 196.027 1208.02C202.584 1169.03 214.923 1130.89 208.376 1090.61C198.42 1127.14 198.621 1165.89 183.795 1201.68C172.491 1192.57 170.641 1190.91 169.157 1184.98C162.207 1157.13 176.822 1133.38 186.554 1106.83C163.064 1119.84 151.9 1161.73 160.797 1195.48L156.297 1200.35C128.827 1178.2 124.776 1153.26 143.962 1124.73C152.392 1112.23 163.982 1102.9 174.982 1092.89C179.276 1088.99 186.174 1085.72 183.992 1075.62C167.809 1084.14 153.655 1096.06 142.497 1110.55C122.571 1134.55 113.58 1160.66 130.176 1190.45L126.284 1193.98Z" fill="#FAECE5"/>
<path d="M138.79 278.388C136.933 282.643 133.804 286.219 129.832 288.624C127.022 281.806 131.635 278.673 135.203 275.18L138.79 278.388Z" fill="#FBF4F0"/>
<path d="M133.338 187.735C132.153 189.908 132.088 194.652 128.411 192.343C125.775 190.685 128.07 187.136 130.028 184.85C131.137 185.782 132.256 186.747 133.338 187.735Z" fill="#FBF4F0"/>
<path d="M-17.5808 614.129C-35.2636 586.177 -31.545 561.572 -22.3009 537.062C-12.7665 511.774 2.82319 490.233 20.7401 465.783C24.7253 478.666 18.2627 484.543 14.3056 490.406C3.15221 506.366 -6.2021 523.509 -13.5862 541.525C-23.0223 565.684 -25.9492 589.713 -3.53205 609.503C-0.804508 611.236 2.07324 612.722 5.06609 613.942C4.87878 568.986 18.8853 528.998 33.1214 484.225C35.456 487.473 36.9217 491.265 37.379 495.239C37.8363 499.213 37.2701 503.238 35.7344 506.932C29.7402 530.815 23.334 554.647 17.7098 578.637C13.2423 597.683 14.3337 603.396 23.8447 626.988C33.529 624.441 34.8497 615.436 37.06 608.383C46.8741 578.511 51.951 547.287 52.1063 515.844C52.0595 508.82 49.2493 501.153 55.0515 494.302C65.9393 509.676 65.6819 518.054 58.2876 562.57C53.7111 585.556 47.8497 608.268 40.7311 630.599C52.7194 633.985 58.8634 627.438 64.3424 620.826C77.3141 605.152 81.9925 586.373 82.4608 566.55C82.7575 537.37 79.2951 508.273 72.1586 479.977C70.4399 472.714 67.5269 465.703 70.8518 458.159C82.6153 467.829 90.7449 500.83 91.7517 542.977C92.4729 573.041 93.3674 603.152 72.238 627.831C79.2624 634.004 83.318 629.471 86.7927 625.991C100.378 611.796 108.466 593.228 109.608 573.612C111.82 553.453 109.545 533.053 102.944 513.877C101.207 508.941 99.0339 504.122 97.7929 499.074C97.7047 498.01 97.8797 496.941 98.3028 495.961C98.7259 494.981 99.3837 494.12 100.218 493.455C100.859 493.078 101.574 492.844 102.313 492.77C103.053 492.696 103.8 492.782 104.503 493.024C105.206 493.266 105.848 493.656 106.386 494.17C106.924 494.683 107.344 495.307 107.618 495.998C107.968 496.654 108.28 497.329 108.554 498.021C123.811 535.587 126.818 573.276 109.795 611.212C97.5915 638.462 76.7101 649.612 46.8049 647.223C20.1122 645.093 -3.80343 634.832 -27.2977 623.94C-59.7551 608.889 -71.9448 578.605 -59.1744 545.435C-45.5939 510.14 -22.287 480.965 3.45976 451.491C8.53138 461.367 1.76451 465.736 -1.61189 470.307C-15.8386 489.577 -30.5854 508.478 -40.7754 530.333C-44.8292 538.336 -48.1955 546.669 -50.8387 555.241C-57.8771 581.049 -47.1254 601.822 -17.5808 614.129Z" fill="#E26267"/>
<path d="M-64.9625 941.166C-76.3451 961.917 -82.8128 985.003 -83.8675 1008.65C-85.2349 1030.25 -83.3241 1051.89 -82.7996 1073.51C-98.45 1031.89 -93.4207 990.126 -81.9896 945.61C-107.535 960.797 -118.516 980.263 -116.868 1006.4C-116.072 1025.84 -113.167 1045.13 -108.205 1063.94C-106.978 1068.22 -105.474 1073.54 -111.951 1074.38C-116.282 1074.93 -117.805 1070.3 -118.507 1066.73C-122.698 1045.48 -127.718 1024.23 -127.343 1002.45C-126.721 966.393 -106.762 942.838 -76.0096 926.972C-72.7666 925.04 -69.1205 923.884 -65.357 923.594C-61.5934 923.304 -57.814 923.888 -54.3133 925.3C-38.3791 931.694 -22.9327 939.243 -8.0974 947.886C13.3317 961.63 21.4987 983.205 18.8294 1008.09C16.2164 1032.45 4.70116 1052.97 -11.956 1072.12C-17.7956 1065.76 -13.5672 1061.59 -11.4318 1057.61C-4.01875 1043.82 5.2393 1030.98 8.59697 1015.21C11.3579 1003.67 10.1368 991.53 5.13164 980.767C0.126442 970.005 -8.3689 961.249 -18.9758 955.922C-23.5042 958.423 -21.6688 962.436 -20.6479 965.583C-11.2305 994.706 -20.2968 1021.63 -30.2293 1048.47C-31.0828 1050.54 -32.1565 1052.52 -33.4322 1054.36C-33.7306 1055.03 -34.171 1055.63 -34.723 1056.12C-35.275 1056.6 -35.9257 1056.97 -36.6306 1057.18C-37.3355 1057.39 -38.0778 1057.45 -38.8068 1057.35C-39.5359 1057.24 -40.2343 1056.99 -40.8545 1056.59C-41.5472 1055.79 -42.0347 1054.84 -42.2739 1053.81C-42.513 1052.78 -42.4964 1051.71 -42.2264 1050.69C-40.2502 1045.07 -37.1973 1039.82 -35.2352 1034.19C-27.7425 1012.82 -21.4062 991.278 -29.8589 968.627C-32.9262 960.399 -36.0221 952.082 -48.0104 947.361C-46.4099 973.906 -47.8125 1000.55 -52.192 1026.77C-53.0302 1031.16 -53.2454 1035.67 -54.4957 1039.94C-54.8904 1040.92 -55.5172 1041.78 -56.3215 1042.47C-57.1258 1043.15 -58.0839 1043.63 -59.1135 1043.86C-59.8634 1043.92 -60.6168 1043.8 -61.3149 1043.52C-62.013 1043.24 -62.6366 1042.8 -63.1361 1042.24C-63.6356 1041.68 -63.9973 1041.01 -64.1931 1040.28C-64.389 1039.56 -64.4136 1038.79 -64.2646 1038.06C-62.3539 1022.49 -59.9093 1006.99 -58.2937 991.404C-56.6547 975.388 -53.7703 959.078 -64.9625 941.166Z" fill="#E26267"/>
<path d="M160.765 1195.5C151.868 1161.75 163.046 1119.86 186.522 1106.84C176.79 1133.4 162.171 1157.15 169.125 1185C170.609 1190.94 172.459 1192.59 183.763 1201.7C198.59 1165.91 198.388 1127.18 208.344 1090.63C214.9 1130.9 202.574 1169.05 195.995 1208.04C203.778 1206.08 210.811 1201.86 216.214 1195.92C221.617 1189.99 225.152 1182.59 226.378 1174.66C231.54 1152.77 232.178 1130.05 228.251 1107.91C226.898 1101.05 223.526 1093.8 229.858 1084.8C243.438 1105.18 239.486 1126.81 240.446 1147.58C241.448 1169.77 234.145 1191.54 219.962 1208.64C230.39 1208.27 240.349 1204.21 248.054 1197.17C255.758 1190.14 260.706 1180.59 262.01 1170.24C266.62 1148.04 263.226 1124.93 252.429 1104.99C248.416 1097.85 244.805 1090.48 241.298 1083.06C240.66 1082.11 240.409 1080.96 240.599 1079.84C240.789 1078.71 241.406 1077.7 242.319 1077.02C245.363 1075.05 247.746 1076.32 249.886 1078.84C276.181 1109.81 281.421 1161.32 261.865 1194.81C258.223 1201.78 252.954 1207.77 246.504 1212.28C240.054 1216.78 232.614 1219.66 224.814 1220.68C211.505 1222.25 198.287 1224.53 185.215 1227.48C158.424 1234.27 99.5175 1197.98 92.4463 1171.67C89.2818 1160.01 89.7454 1147.66 93.7759 1136.27C106.509 1100.25 137.005 1081.83 166.952 1062.81C165.172 1074.05 156.649 1079.47 148.351 1084.87C131.95 1095.49 118.501 1110.08 109.258 1127.3C93.9212 1155.51 99.0163 1175.37 126.257 1194C127.507 1195.69 129.231 1197.22 131.085 1195.57C132.939 1193.93 131.366 1192.04 130.111 1190.51C113.515 1160.69 122.506 1134.6 142.432 1110.6C153.59 1096.11 167.744 1084.2 183.927 1075.67C186.11 1085.77 179.211 1089.04 174.917 1092.94C163.917 1102.94 152.313 1112.27 143.897 1124.79C124.697 1153.31 128.762 1178.25 156.237 1200.39C158.11 1203.42 161.388 1207.41 164.086 1205.12C168.745 1201.12 162.62 1198.56 160.765 1195.5Z" fill="#E26267"/>
<path d="M160.761 1195.5C162.634 1198.56 168.722 1201.12 164.114 1205.08C161.416 1207.4 158.12 1203.39 156.266 1200.35C157.759 1198.75 159.263 1197.12 160.761 1195.5Z" fill="#FAECE5"/>
<path d="M130.143 1190.49C131.398 1192.03 133 1193.89 131.117 1195.56C129.235 1197.23 127.539 1195.67 126.289 1193.98L130.143 1190.49Z" fill="#FAECE5"/>
</svg>
