<svg width="312" height="288" viewBox="0 0 312 288" fill="none" xmlns="http://www.w3.org/2000/svg">
<path d="M124.408 65.1439C129.7 60.1819 135.03 55.3257 141.945 52.6065C144.494 51.5194 147.185 50.8031 149.937 50.4794C152.887 50.2127 153.84 51.2964 153.409 54.2395C152.879 57.8914 151.084 61.077 149.394 64.2821C148.133 66.68 146.781 69.024 145.397 71.5234C147.624 72.4364 148.517 70.9566 149.54 70.1594C151.721 68.4626 153.703 66.5094 155.882 64.8102C157.541 63.4738 159.321 62.2944 161.199 61.2872C164.749 59.4636 171.155 59.3666 172.107 61.3441C174.01 65.2936 171.363 68.3542 168.953 70.9291C161.935 78.4316 156.764 87.2558 150.771 95.7627C154.132 95.0488 157.294 93.5997 160.029 91.5192C166.199 87.3002 172.469 83.2872 179.774 81.256C182.387 80.529 185.099 79.0427 187.367 81.9101C189.25 84.287 189.129 87.4303 186.484 90.7301C180.483 97.9328 173.767 104.508 166.438 110.354C158.747 116.748 150.789 122.819 142.965 129.051C141.343 130.341 139.46 131.415 138.574 133.991C141.447 134.876 143.986 133.69 146.507 133.112C150.934 132.097 155.338 131.6 159.755 132.999C162.457 133.857 165.141 135.041 165.722 138.137C166.267 141.036 164.087 142.752 162.108 144.447C160.077 146.005 157.841 147.277 155.464 148.227C141.418 154.934 128.143 163.151 115.876 172.732C103.117 182.448 92.6718 194.873 85.2915 209.111C82.9874 213.544 82.4662 214.017 77.9299 211.764C67.4453 206.554 57.1179 201.029 46.7438 195.597C45.826 195.055 44.9597 194.43 44.1557 193.731C39.5592 190.113 39.2093 189.294 41.4091 184.052C50.7297 161.833 60.536 139.845 73.518 119.444C76.3591 114.933 78.7913 110.177 80.7855 105.234C86.242 91.356 93.2091 78.1208 101.561 65.7671C103.864 62.4354 106.576 59.4056 109.633 56.7486C113.504 53.3941 116.906 52.4505 119.966 54.1706C123.665 56.2487 123.445 59.6499 122.873 63.1517C122.851 63.5764 122.878 64.0021 122.952 64.4208C122.613 64.9855 122.389 65.6669 123.067 66.0134C123.787 66.374 124.118 65.6834 124.408 65.1439ZM101.309 151.408C103.143 152.979 104.742 154.358 106.35 155.727C106.956 156.338 107.756 156.719 108.612 156.805C109.468 156.89 110.328 156.675 111.043 156.196C115.68 153.511 119.233 149.29 121.088 144.262C122.232 141.084 120.908 139.156 117.616 137.922C115.872 137.271 113.733 137.913 112.069 136.076C113.053 135.298 114.062 134.637 114.92 133.814C116.019 132.815 117.018 131.709 117.9 130.514C119.864 127.677 119.691 126.033 117.104 123.967C114.136 121.535 110.744 119.672 107.099 118.47C100.014 116.218 97.4351 117.867 96.0909 125.274C95.9461 126.071 96.1022 127.03 95.0014 127.365C93.6915 126.875 93.4975 125.483 92.7702 124.52C89.2468 119.861 86.2764 119.805 82.6822 124.469C80.4954 127.354 78.7495 130.549 77.5021 133.948C75.803 138.465 77.1777 141.265 81.5598 143.036C82.8218 143.547 84.6613 142.956 85.2565 144.829C81.5983 149.586 81.1798 150.257 82.8223 152.505C85.744 156.501 89.2741 160.13 94.6327 160.183C100.117 160.235 99.8647 155.072 101.309 151.408ZM44.0911 189.379C45.1072 190.862 46.5449 192.005 48.2182 192.66C56.5981 197.235 64.9727 201.819 73.3835 206.339C74.906 207.084 76.4742 207.733 78.0787 208.28C78.6786 208.507 79.3314 208.553 79.9573 208.415C80.5833 208.276 81.1555 207.959 81.604 207.501C84.3878 205.05 85.8689 201.705 87.4229 198.484C88.2144 196.843 86.6871 195.911 85.319 195.12C74.4925 188.859 62.9527 183.886 52.5912 176.768C49.3516 174.54 48.3715 175.061 46.9378 178.634C45.9974 181.001 45.178 183.414 44.4831 185.865C44.2461 187.024 44.1159 188.202 44.0941 189.385L44.0911 189.379Z" fill="#6B9156"/>
<path d="M213.985 140.7C225.586 132.053 237.878 124.376 250.738 117.747C254.073 115.822 257.867 114.839 261.716 114.902C266.116 115.183 267.308 117.095 265.733 121.263C264.755 123.393 263.442 125.352 261.843 127.067C260.381 128.884 259.067 130.823 257.673 132.696C257.361 133.113 257.327 133.477 258.048 134.285C262.668 132.544 267.167 129.9 272.134 128.452C275.547 127.237 279.159 126.68 282.779 126.81C287.324 127.225 288.835 129.785 286.831 133.829C284.536 138.433 280.963 142.279 276.54 144.907C272.957 147.091 269.539 149.549 265.762 152.075C267.927 153.917 269.354 152.44 270.739 151.948C276.926 149.571 283.603 148.747 290.183 149.55C296.098 150.387 296.99 152.43 294.263 157.777C292.479 160.944 289.849 163.553 286.668 165.313C280.305 169.401 273.422 172.617 266.204 174.874C268.485 177.072 270.724 176.415 272.696 176.408C277.611 176.485 282.457 177.583 286.925 179.634C291.898 181.776 292.278 186.347 287.675 189.324C284.062 191.597 280.068 193.198 275.886 194.049C260.513 197.41 245.03 200.245 229.789 204.191C209.782 209.373 190.022 215.196 171.457 224.522C165.34 227.595 158.359 228.152 151.978 230.484C148.218 231.86 146.435 229.848 144.789 227.123C140.534 219.983 137.002 212.435 134.246 204.593C132.526 199.795 131.349 194.768 129.348 190.093C127.918 186.752 128.892 185.04 131.593 183.26C138.47 178.613 145.686 174.487 153.18 170.919C161.456 167 169.339 162.3 176.723 156.885C183.453 152.262 188.395 145.472 190.723 137.646C192.051 133.156 193.55 128.715 194.875 124.224C196.25 119.715 198.846 115.675 202.377 112.551C205.409 109.761 208.539 109.874 211.265 112.881C213.125 114.953 214.467 117.437 215.182 120.129C215.896 122.82 215.962 125.643 215.375 128.365C214.705 132.334 213.557 136.222 212.625 140.146C212.394 140.602 211.892 141.198 212.634 141.458C212.953 141.577 213.527 140.976 213.985 140.7ZM221.92 183.737C222.212 183.497 222.538 183.303 222.887 183.158C223.284 183.061 223.745 183.205 224.157 183.131C228.564 182.354 229.667 180.67 228.136 176.635C227.309 174.455 226.08 172.429 225.079 170.311C224.067 167.701 222.104 165.571 219.584 164.351C216.475 163.016 214.737 166.077 212.284 167.049C211.143 158.61 209.314 157.554 201.319 160.47C199.9 160.926 198.524 161.505 197.204 162.199C194.429 163.807 193.978 165.941 195.913 168.542C197.333 170.452 199.547 171.756 200.704 174.213C197.502 174.193 194.723 173.969 191.984 174.212C188.665 174.499 187.481 176.258 188.396 179.458C189.064 181.48 189.916 183.437 190.942 185.303C195.452 194.336 198.83 195.137 206.123 188.962C208.677 194.452 211.423 195.749 217.669 194.412C225.152 192.808 226.099 190.553 221.898 184.363C221.805 184.228 221.91 183.952 221.92 183.737ZM133.605 192.622C136.071 202.138 139.574 211.354 144.051 220.105C147.81 227.366 149.962 228.247 157.797 225.756C158.606 225.498 159.394 225.157 160.215 224.958C163.313 224.209 163.76 222.466 162.403 219.768C160.308 215.598 157.715 211.534 156.46 207.106C153.878 198.004 148.268 190.318 145.258 181.464C144.786 180.074 143.912 179.23 142.4 180.116C139.657 181.726 136.899 183.328 134.274 185.118C133.22 185.837 132.502 187.218 133.473 188.424C134.286 189.433 135.367 188.485 136.31 188.155C138.74 187.305 140.706 184.701 144.194 186.127C141.335 189.232 137.669 191.48 133.605 192.622Z" fill="#6B9156"/>
<path d="M101.31 151.407C99.8661 155.071 100.118 160.234 94.6341 160.182C89.2761 160.13 85.7454 156.5 82.8237 152.504C81.1812 150.256 81.5997 149.585 85.2579 144.828C84.6603 142.956 82.8209 143.547 81.5612 143.035C77.1792 141.264 75.8045 138.464 77.5035 133.947C78.751 130.548 80.4968 127.354 82.6837 124.468C86.2778 119.805 89.247 119.858 92.7716 124.519C93.4989 125.482 93.6929 126.874 95.0028 127.365C96.1036 127.03 95.9475 126.07 96.0923 125.273C97.4365 117.866 100.016 116.218 107.101 118.469C110.745 119.671 114.137 121.534 117.106 123.966C119.692 126.032 119.865 127.676 117.901 130.513C117.019 131.708 116.021 132.814 114.921 133.813C114.064 134.636 113.056 135.302 112.07 136.075C113.735 137.913 115.874 137.27 117.617 137.921C120.907 139.149 122.234 141.083 121.09 144.262C119.235 149.289 115.681 153.51 111.044 156.195C110.329 156.674 109.47 156.889 108.614 156.804C107.757 156.718 106.958 156.337 106.352 155.726C104.743 154.358 103.144 152.978 101.31 151.407ZM102.609 136.913C102.226 136.748 101.804 136.701 101.395 136.777C100.986 136.854 100.608 137.05 100.311 137.341C99.0442 138.492 97.8481 139.755 98.6679 141.645C98.8312 141.89 99.0529 142.092 99.3131 142.231C99.5733 142.37 99.8639 142.442 100.159 142.441C101.867 142.173 102.362 140.682 102.836 139.289C103.011 138.908 103.082 138.488 103.043 138.07C103.003 137.653 102.853 137.254 102.609 136.913Z" fill="#F8B06C"/>
<path d="M44.0987 189.386C44.1236 188.203 44.2568 187.026 44.4966 185.868C45.1916 183.418 46.0109 181.004 46.9514 178.638C48.385 175.065 49.3651 174.544 52.6048 176.771C62.9663 183.89 74.506 188.862 85.3325 195.123C86.7006 195.915 88.2279 196.846 87.4363 198.488C85.883 201.709 84.4012 205.054 81.6174 207.504C81.1688 207.962 80.5968 208.28 79.9709 208.418C79.3449 208.557 78.6921 208.51 78.0923 208.284C76.4877 207.736 74.9196 207.088 73.397 206.342C64.9862 201.823 56.6117 197.238 48.2318 192.663C46.5567 192.01 45.1167 190.868 44.0987 189.386ZM71.5025 200.695C72.3726 199.136 73.3467 197.352 74.3576 195.589C74.9771 194.509 75.9649 193.261 74.6108 192.309C73.2116 191.327 72.4024 192.819 71.6312 193.716C70.2436 195.304 69.4478 197.322 69.3789 199.43C69.332 200.476 70.1347 200.751 71.4996 200.689L71.5025 200.695ZM55.2124 190.694C56.6327 188.618 58.6818 186.723 59.047 183.867C59.1207 183.289 58.3349 182.535 57.799 182.783C55.1363 184.015 53.9451 186.469 53.0241 189.066C52.9228 189.365 52.936 189.69 53.0611 189.98C53.1862 190.269 53.4143 190.502 53.7013 190.633C54.0248 190.794 54.4982 190.672 55.2095 190.688L55.2124 190.694ZM52.7963 179.312C49.2127 180.433 48.2817 182.742 47.3977 184.987C47.273 185.217 47.2017 185.473 47.1889 185.734C47.176 185.996 47.2221 186.257 47.3236 186.499C47.4252 186.74 47.5796 186.956 47.7756 187.129C47.9715 187.303 48.2041 187.431 48.4559 187.503C48.6501 187.575 48.8573 187.606 49.064 187.593C49.2708 187.579 49.4724 187.523 49.6561 187.428C49.8397 187.332 50.0013 187.198 50.1302 187.036C50.2592 186.874 50.3527 186.687 50.4047 186.486C51.0538 184.369 52.6125 182.551 52.7934 179.306L52.7963 179.312ZM79.2265 204.038C80.4222 203.418 82.7559 197.551 82.2613 196.236C82.1419 195.916 81.6325 195.463 81.3882 195.51C78.5729 196.063 78.8177 198.913 77.6515 200.704C77.2401 201.421 77.1111 202.266 77.29 203.073C77.3349 203.275 77.4244 203.465 77.552 203.628C77.6797 203.791 77.8423 203.923 78.0277 204.015C78.2132 204.107 78.4167 204.156 78.6237 204.159C78.8306 204.162 79.0356 204.119 79.2236 204.032L79.2265 204.038ZM69.8434 190.897C68.8381 189.215 68.1719 188.951 67.6506 189.308C66.6194 189.991 65.7649 190.908 65.1575 191.985C64.5501 193.062 64.2071 194.268 64.1567 195.503C64.1559 195.658 64.1869 195.812 64.2478 195.954C64.3088 196.096 64.3984 196.225 64.5111 196.331C64.6237 196.437 64.7569 196.519 64.9026 196.572C65.0482 196.624 65.2031 196.646 65.3576 196.636C67.1914 196.559 67.4605 194.866 68.1703 193.698C68.8801 192.53 70.1439 191.442 69.8434 190.897ZM60.1056 194.209C61.3358 192.26 63.3185 190.305 63.7886 187.529C63.9309 186.685 62.91 185.733 62.1421 186.323C59.9566 188.014 58.4792 190.458 57.9977 193.179C57.8167 194.096 58.5851 194.672 60.1067 194.211L60.1056 194.209Z" fill="#FAECE5"/>
<path d="M221.92 183.739C221.91 183.954 221.805 184.229 221.901 184.369C226.101 190.559 225.154 192.814 217.671 194.418C211.425 195.755 208.679 194.458 206.125 188.968C198.832 195.143 195.454 194.342 190.944 185.309C189.919 183.443 189.066 181.486 188.398 179.464C187.483 176.264 188.669 174.51 191.986 174.218C194.725 173.975 197.504 174.199 200.707 174.219C199.548 171.758 197.334 170.454 195.915 168.548C193.98 165.947 194.425 163.816 197.207 162.205C198.526 161.511 199.903 160.932 201.322 160.476C209.316 157.56 211.146 158.616 212.286 167.055C214.739 166.083 216.477 163.022 219.587 164.357C222.106 165.577 224.069 167.707 225.081 170.317C226.08 172.437 227.312 174.461 228.138 176.641C229.667 180.677 228.561 182.362 224.16 183.137C223.749 183.209 223.29 183.064 222.889 183.165C222.539 183.307 222.213 183.5 221.92 183.739ZM209.407 180.478C210.61 179.762 211.555 178.709 210.669 177.86C209.273 176.524 207.455 177.147 205.914 177.994C205.198 178.387 204.33 179.086 205.053 180.009C206.382 181.707 208.026 181.141 209.407 180.478Z" fill="#F8B06C"/>
<path d="M133.614 192.628C137.679 191.486 141.346 189.236 144.206 186.131C140.721 184.703 138.754 187.312 136.322 188.158C135.379 188.489 134.298 189.436 133.485 188.428C132.514 187.221 133.232 185.84 134.286 185.121C136.911 183.332 139.669 181.729 142.413 180.119C143.923 179.232 144.798 180.078 145.27 181.468C148.275 190.324 153.885 198.01 156.472 207.109C157.729 211.541 160.319 215.599 162.415 219.771C163.772 222.47 163.325 224.212 160.227 224.961C159.406 225.161 158.618 225.501 157.809 225.759C149.975 228.254 147.826 227.375 144.063 220.108C139.585 211.358 136.081 202.142 133.614 192.628ZM151.408 215.892C152.15 215.091 155.063 215.2 153.999 212.931C153.139 211.096 151.035 212.303 149.518 212.966C148.748 213.306 147.999 213.693 147.276 214.125C146.529 214.564 145.832 215.193 146.086 216.122C146.48 217.536 147.663 217.193 148.638 216.952C149.582 216.656 150.508 216.302 151.408 215.892ZM149.262 199.334C148.85 198.931 148.315 198.675 147.742 198.608C147.169 198.54 146.59 198.664 146.095 198.961C144.362 199.706 142.402 200.237 141.87 202.425C141.839 202.618 141.856 202.815 141.919 203C141.981 203.185 142.088 203.352 142.229 203.487C144.338 204.636 145.768 202.944 147.369 202.112C147.912 201.871 148.377 201.484 148.711 200.993C149.046 200.502 149.237 199.928 149.262 199.334ZM144.804 210.112C147.733 209.391 150.401 208.842 151.512 205.823C151.509 205.63 151.458 205.441 151.362 205.273C151.267 205.105 151.131 204.964 150.967 204.863C147.821 204.499 145.95 206.343 144.457 208.768C144.386 208.882 144.545 209.139 144.804 210.112ZM139.293 196.866C143.549 196.016 143.549 196.016 145.622 193.114C141.265 193.584 141.265 193.584 139.287 196.868L139.293 196.866ZM150.116 222.674C154.335 222.651 154.331 222.64 156.766 219.463C152.726 219.463 152.725 219.463 150.116 222.674Z" fill="#FAECE5"/>
<path d="M102.606 136.912C102.851 137.253 103.002 137.652 103.042 138.07C103.082 138.488 103.011 138.909 102.836 139.29C102.362 140.683 101.87 142.173 100.159 142.443C99.8638 142.443 99.5732 142.371 99.313 142.232C99.0528 142.093 98.8311 141.892 98.6678 141.646C97.848 139.757 99.0441 138.494 100.311 137.343C100.608 137.051 100.985 136.855 101.393 136.778C101.802 136.702 102.224 136.748 102.606 136.912Z" fill="#FAECE5"/>
<path d="M71.4946 200.688C70.1297 200.749 69.3271 200.474 69.3662 199.425C69.4351 197.317 70.2309 195.298 71.6185 193.711C72.3897 192.814 73.199 191.322 74.5982 192.304C75.9535 193.255 74.9627 194.501 74.3449 195.584C73.34 197.347 72.3636 199.129 71.4946 200.688Z" fill="#6B9156"/>
<path d="M55.212 190.689C54.5008 190.673 54.0274 190.795 53.6985 190.629C53.4116 190.498 53.1835 190.265 53.0584 189.976C52.9333 189.686 52.9199 189.361 53.0212 189.062C53.9423 186.466 55.1359 184.01 57.7963 182.779C58.3322 182.531 59.1178 183.285 59.0441 183.863C58.6813 186.717 56.6324 188.613 55.212 190.689Z" fill="#88A08A"/>
<path d="M52.7918 179.306C52.6103 182.55 51.0522 184.369 50.4002 186.48C50.3481 186.681 50.2547 186.868 50.1257 187.03C49.9968 187.192 49.8352 187.326 49.6515 187.422C49.4679 187.517 49.2662 187.574 49.0595 187.587C48.8528 187.6 48.6456 187.569 48.4514 187.497C48.1995 187.425 47.9671 187.297 47.7711 187.124C47.5751 186.95 47.4206 186.734 47.3191 186.493C47.2175 186.251 47.1715 185.99 47.1843 185.728C47.1971 185.467 47.2685 185.211 47.3932 184.981C48.2789 182.74 49.2081 180.427 52.7918 179.306Z" fill="#6B9156"/>
<path d="M79.231 204.036C79.0423 204.122 78.8367 204.166 78.6291 204.162C78.4215 204.159 78.2172 204.109 78.0314 204.016C77.8457 203.924 77.683 203.79 77.5556 203.626C77.4281 203.462 77.3391 203.272 77.2951 203.069C77.1162 202.262 77.2452 201.417 77.6566 200.7C78.8228 198.909 78.578 196.058 81.3933 195.506C81.6376 195.459 82.147 195.912 82.2664 196.232C82.761 197.547 80.4274 203.414 79.231 204.036Z" fill="#6B9156"/>
<path d="M69.8353 190.899C70.1298 191.443 68.8696 192.536 68.1621 193.7C67.4547 194.863 67.1856 196.559 65.3495 196.638C65.1949 196.648 65.0401 196.626 64.8944 196.573C64.7488 196.52 64.6156 196.438 64.5029 196.332C64.3903 196.226 64.3006 196.098 64.2397 195.955C64.1787 195.813 64.1477 195.66 64.1485 195.505C64.199 194.269 64.5419 193.064 65.1493 191.987C65.7567 190.91 66.6113 189.992 67.6424 189.31C68.165 188.955 68.8311 189.218 69.8353 190.899Z" fill="#88A08A"/>
<path d="M60.1096 194.211C58.5879 194.672 57.8255 194.093 58.0017 193.182C58.4832 190.461 59.9606 188.017 62.1461 186.326C62.9193 185.74 63.9348 186.687 63.7926 187.532C63.3225 190.307 61.3445 192.26 60.1096 194.211Z" fill="#88A08A"/>
<path d="M209.403 180.479C208.027 181.14 206.378 181.709 205.049 180.011C204.327 179.088 205.194 178.389 205.91 177.996C207.451 177.149 209.272 176.524 210.665 177.861C211.551 178.711 210.612 179.761 209.403 180.479Z" fill="#FAECE5"/>
<path d="M151.4 215.885C150.501 216.297 149.576 216.653 148.633 216.952C147.655 217.187 146.466 217.532 146.081 216.122C145.827 215.192 146.527 214.568 147.271 214.124C147.994 213.693 148.743 213.306 149.513 212.966C151.031 212.305 153.134 211.096 153.994 212.931C155.055 215.194 152.142 215.085 151.4 215.885Z" fill="#90A58F"/>
<path d="M149.256 199.331C149.23 199.924 149.039 200.498 148.705 200.989C148.37 201.48 147.905 201.868 147.363 202.109C145.762 202.942 144.33 204.63 142.223 203.483C142.081 203.349 141.975 203.182 141.912 202.997C141.85 202.812 141.833 202.614 141.864 202.421C142.395 200.232 144.356 199.702 146.089 198.957C146.584 198.661 147.163 198.537 147.736 198.604C148.309 198.672 148.843 198.927 149.256 199.331Z" fill="#90A58F"/>
<path d="M144.809 210.112C144.548 209.137 144.392 208.882 144.462 208.767C145.955 206.342 147.828 204.497 150.973 204.863C151.137 204.964 151.273 205.105 151.368 205.273C151.463 205.44 151.515 205.629 151.517 205.822C150.407 208.841 147.738 209.39 144.809 210.112Z" fill="#88A08A"/>
<path d="M139.283 196.868C141.255 193.586 141.255 193.586 145.612 193.116C143.546 196.016 143.546 196.016 139.283 196.868Z" fill="#6B9156"/>
<path d="M150.103 222.67C152.715 219.464 152.715 219.464 156.753 219.459C154.319 222.637 154.322 222.647 150.103 222.67Z" fill="#6B9156"/>
</svg>
