<svg width="178" height="603" viewBox="0 0 178 603" fill="none" xmlns="http://www.w3.org/2000/svg">
<path d="M-165.38 436.644C-168.778 501.467 -170.477 533.878 -150.977 554.397C-131.478 574.917 -98.9574 574.87 -33.917 574.778L-5.76139 574.738C56.2955 574.649 87.3239 574.605 106.575 555.299C125.826 535.993 125.782 504.964 125.693 442.907L125.335 191.272C125.246 129.215 125.202 98.1869 105.896 78.9358C86.5898 59.6847 55.5614 59.7289 -6.49536 59.8174L-27.4561 59.8473C-94.9244 59.9435 -128.659 59.9916 -148.119 80.7173C-167.58 101.443 -165.448 136.05 -161.184 205.263C-158.578 247.565 -157.036 289.542 -158.702 316.262C-160.479 344.776 -162.991 391.055 -165.38 436.644Z" fill="#D0E6E0"/>
<g clipPath="url(#clip0_848_14340)">
<path d="M-27.1891 527.042C-26.181 565.198 -7.9621 585.932 3.31695 591.467C18.6387 598.983 30.0165 585.699 32.7133 587.81C58.0871 607.706 86.9925 590.426 96.9174 549.727C102.916 525.112 100.273 479.041 54.5681 480.282C51.4646 480.367 44.5094 481.464 37.4644 481.818C38.3998 476.754 38.8134 468.794 34.5362 462.047C21.1163 440.865 -9.68353 443.251 -9.68353 443.251C-9.68353 443.251 -12.322 455.985 -5.20716 463.111C-1.06861 467.272 13.8082 469.625 22.5607 474.378C26.9516 476.755 30.1541 479.567 32.3245 481.91C28.8067 481.861 25.5056 481.501 22.918 480.597C-20.9174 465.307 -27.5975 511.83 -27.1891 527.042Z" fill="#A7B96C"/>
<path d="M41.9431 503.644C41.0459 505.819 37.9445 505.718 37.193 503.486C36.1023 500.259 34.4504 496.583 31.9433 493.205C26.8392 486.317 17.5591 481.816 9.18965 482.271C-8.61531 483.24 -13.673 503.618 -15.5665 508.286C-24.7665 530.984 -17.938 584.159 11.895 585.183C24.0049 585.598 34.0949 579.647 34.0949 579.647C34.0949 579.647 41.0417 591.68 57.0096 591.595C74.6005 591.507 91.3244 560.549 94.4812 542.203C97.6669 523.712 87.2928 507.623 78.6065 497.711C71.1471 489.216 61.2872 485.011 52.6239 489.883C47.4097 492.813 44.0251 498.644 41.9627 503.646L41.9431 503.644Z" fill="#FBF9D9"/>
<path d="M31.7617 533.173C31.7617 533.173 24.964 550.174 19.7848 549.349C17.653 549.005 16.59 545.652 16.9687 543.434C18.8555 532.294 31.7611 533.183 31.7611 533.183L31.7617 533.173Z" fill="#92524A"/>
<path d="M46.5592 531.892C46.5592 531.892 42.7749 540.422 44.4701 545.567C48.14 556.71 54.2936 548.195 53.2804 542.081C52.4114 536.783 46.5592 531.892 46.5592 531.892Z" fill="#92524A"/>
<path d="M36.8302 486.173C36.8302 486.173 45.5222 454.246 49.4601 449.139C50.2542 448.109 51.4838 446.27 53.0463 446.597C58.4717 447.723 56.0208 458.305 54.115 459.648C44.2381 466.566 43.8451 489.958 41.5037 490.427C39.2817 490.874 36.84 486.174 36.84 486.174L36.8302 486.173Z" fill="#8F514A"/>
</g>
<g clipPath="url(#clip1_848_14340)">
<path d="M26.0773 326.91C27.1378 366.452 46.0539 387.941 57.7717 393.691C73.6806 401.475 85.4895 387.722 88.2912 389.906C114.641 410.529 144.655 392.62 154.962 350.44C161.176 324.911 158.431 277.167 110.968 278.44C108.501 278.509 103.679 279.189 98.2541 279.671C96.3045 279.842 94.2535 279.995 92.2303 280.069C87.0168 280.281 81.831 280.061 78.0951 278.751C32.5769 262.904 25.6447 311.118 26.0667 326.898L26.0773 326.91Z" fill="#E47B76"/>
<path d="M90.3744 285.835C90.3744 285.835 92.6895 251.609 95.6519 245.619C96.2424 244.416 97.1319 242.288 98.7844 242.304C104.541 242.344 104.216 253.591 102.541 255.35C93.8966 264.401 98.2816 288.244 96.0078 289.202C93.8398 290.11 90.3857 285.836 90.3857 285.836L90.3744 285.835Z" fill="#8F514A"/>
<path d="M90.3372 285.662C90.3372 285.662 86.8719 280.499 77.8884 276.917C69.7944 273.687 55.9262 272.294 52.1327 269.398C45.6218 264.427 48.3568 255.235 48.3568 255.235C48.3568 255.235 77.2205 252.902 89.3515 267.831C95.586 275.505 90.3372 285.662 90.3372 285.662Z" fill="#A7B96C"/>
</g>
<g clipPath="url(#clip2_848_14340)">
<path d="M81.7962 64.5509C89.5412 62.4068 98.7178 54.0872 118.852 55.3537C143.974 56.934 149.564 89.0988 152.666 108.037C155.87 127.546 154.534 138.873 153.978 142.842C152.49 153.457 151.25 161.432 144.733 166.447C139.647 170.379 131.47 172.389 124.343 171.756C119.291 171.303 117.164 169.746 112.754 170.818C107.892 171.993 102.464 176.692 98.3144 179.294C88.7678 185.263 49.5714 193.984 28.6799 155.326C19.6505 138.614 5.41296 106.301 20.256 85.722C38.6916 60.1529 74.1804 66.671 81.7962 64.5509Z" fill="#E47B76"/>
<path d="M91.7186 93.2683C91.7186 93.2683 87.133 83.4576 77.9362 77.4599C70.6159 72.698 60.1647 71.7157 52.3579 75.1417C35.7436 82.4208 35.0232 98.6829 34.8821 103.828C34.219 128.81 65.0934 184.125 93.8799 174.445C105.568 170.519 108.916 160.943 108.916 160.943C108.916 160.943 121.736 168.345 136.928 162.555C153.659 156.187 149.819 121.281 146.28 102.617C142.716 83.8096 140.121 70.0793 128.295 63.7124C118.159 58.2549 102.985 59.1473 96.4649 66.9125C88.7873 76.0393 91.7316 93.2671 91.7316 93.2671L91.7186 93.2683Z" fill="#FBF9D9"/>
<path d="M91.9924 117.316C91.9924 117.316 96.8037 133.346 92.6342 135.713C90.9189 136.688 88.2595 134.887 87.2659 133.076C82.2852 124.023 91.9924 117.316 91.9924 117.316Z" fill="#92524A"/>
<path d="M108.537 117.861C108.537 117.861 106.188 126.062 108.363 130.51C113.079 140.152 117.569 131.664 115.888 126.239C114.44 121.545 108.536 117.848 108.536 117.848L108.537 117.861Z" fill="#92524A"/>
<path d="M86.3939 58.2776C86.3939 58.2776 88.235 53.3704 93.9382 49.2805C99.0589 45.5954 108.23 42.9355 110.5 39.9923C114.402 34.9366 111.744 27.1208 111.744 27.1208C111.744 27.1208 92.2033 28.0545 85.4329 42.4608C81.953 49.8629 86.3951 58.2907 86.3951 58.2907L86.3939 58.2776Z" fill="#A7B96C"/>
<path d="M79.0582 67.6919C79.0582 67.6919 73.7617 37.8975 75.0181 32.1318C75.2746 30.9782 75.5633 28.9664 76.9778 28.6227C81.8899 27.4296 83.9993 37.1344 82.949 38.9871C77.5018 48.5696 86.3079 68.064 84.5682 69.3697C82.9153 70.6154 79.0571 67.6788 79.0571 67.6788L79.0582 67.6919Z" fill="#8F514A"/>
<path d="M74.9032 61.1478C74.9032 61.1478 67.7586 58.7664 58.0239 61.4346C49.264 63.836 37.9873 71.6888 32.6364 71.5768C23.4582 71.3683 17.1573 61.2951 17.1573 61.2951C17.1573 61.2951 35.9221 40.2253 58.1219 45.7255C69.5298 48.5481 74.9043 61.1609 74.9043 61.1609L74.9032 61.1478Z" fill="#A7B96C"/>
</g>
<defs>
<clipPath id="clip0_848_14340">
<rect width="126.769" height="149.53" fill="white" transform="matrix(-0.997938 -0.0641781 -0.0641781 0.997938 104.574 449.891)"/>
</clipPath>
<clipPath id="clip1_848_14340">
<rect width="131.643" height="155.503" fill="white" transform="matrix(-0.997938 -0.0641781 -0.0641781 0.997938 162.926 246.428)"/>
</clipPath>
<clipPath id="clip2_848_14340">
<rect width="139.047" height="155.503" fill="white" transform="matrix(-0.996422 0.0845218 0.0845218 0.996422 145.957 22.7319)"/>
</clipPath>
</defs>
</svg>
