<svg width="247" height="604" viewBox="0 0 247 604" fill="none" xmlns="http://www.w3.org/2000/svg">
<path d="M141.939 425.524C146.928 504.532 149.422 544.036 125.859 569.253C102.295 594.47 62.6188 594.656 -16.7331 595.029L-50.2799 595.186C-125.704 595.54 -163.416 595.717 -186.957 572.396C-210.498 549.075 -210.675 511.363 -211.029 435.939L-212.251 175.701C-212.605 100.277 -212.782 62.5648 -189.461 39.0236C-166.14 15.4824 -128.428 15.3053 -53.0037 14.9513L-28.9408 14.8383C53.3971 14.4518 94.566 14.2585 118.369 39.2774C142.172 64.2961 139.851 106.839 135.209 191.926C132.878 234.649 131.796 275.708 133.787 302.809C135.951 332.241 138.968 378.478 141.939 425.524Z" fill="#F1E0D0"/>
<g clip-path="url(#clip0_848_8332)">
<path d="M106.925 75.766C111.99 77.6541 116.376 79.5942 118.9 84.8773C121.615 84.5829 122.085 81.9499 122.033 79.6634C121.824 71.2623 116.811 69.5128 109.727 67.5554C111.328 60.9904 114.27 59.8299 111.119 52.6759C106.942 43.2008 101.877 50.2335 100.589 56.9544C97.8913 57.9764 96.7252 42.3867 86.9085 42.508C85.1157 42.5253 80.4162 42.9757 81.7739 45.8338C87.4307 50.8744 90.9291 52.1043 91.6602 60.1763C75.3687 49.6099 62.9934 35.5099 77.3529 17.2353C114.914 -30.5731 180.48 31.7511 154.302 75.0039C148.889 83.942 140.604 89.6235 129.9 90.8014C118.586 92.0486 112.93 83.7861 106.942 75.766L106.925 75.766Z" fill="#F05964"/>
<path d="M9.3123 66.7585C5.03056 66.031 -14.2199 67.053 -2.83672 59.3274C3.02891 55.3434 6.28373 58.0629 12.4975 56.989C10.7395 52.8664 9.06862 49.2981 14.3773 47.6178C20.3996 45.7124 23.2367 51.5499 27.7795 53.9576C29.8856 54.2175 32.5486 48.9343 35.5771 48.0162C38.8146 47.0289 47.6391 49.4713 47.7088 53.3341C47.761 56.5213 37.4918 59.2408 34.9332 60.4187C31.9046 61.8218 27.4836 63.3807 27.7273 67.2609L35.612 133.933C48.7183 117.772 66.9244 102.805 79.3345 86.4362C83.8425 80.4948 92.2842 67.2609 91.6576 60.1589C90.944 52.0869 87.4281 50.857 81.7713 45.8164C80.4311 42.9582 85.1131 42.5079 86.9059 42.4906C96.7226 42.3693 97.8887 57.9417 100.587 56.937C101.875 50.2161 106.94 43.1834 111.117 52.6585C114.267 59.8124 111.326 60.973 109.724 67.538C116.808 69.4954 121.821 71.2622 122.03 79.646C122.082 81.9325 121.612 84.5654 118.897 84.8599C116.373 79.5767 111.987 77.6367 106.922 75.7486C102.971 74.2762 100.726 72.111 96.1308 75.2636L65.5842 113.129C69.4308 117.685 75.5401 118.343 81.0402 119.33C84.8694 120.023 110.56 122.691 111.935 121.357C113.31 120.023 113.327 117.373 116.547 115.104C118.479 113.736 120.986 113.268 122.135 112.436L121.195 120.439L135.363 114.394C140.219 116.594 124.885 127.264 123.109 128.373C124.711 131.04 129.706 127.316 130.524 127.61C130.611 133.656 121.839 136.583 116.669 134.504C118.166 138.852 116.983 143.702 112.509 145.59C109.724 144.517 112.718 136.826 111.552 136.358C110.055 136.86 108.489 137.293 107.131 138.159C105.286 139.32 97.5058 149.8 98.7764 140.948C99.4204 136.531 103.197 131.889 105.756 128.39C89.5689 124.475 72.1808 126.103 55.5238 125.999C36.3082 148.033 18.7983 172.665 -1.44429 193.728C-4.0377 196.43 -10.7214 204.277 -14.0807 204C-20.0333 202.372 -26.4211 189.276 -23.1315 184.305C-6.2482 170.257 12.4453 158.01 27.2573 141.693C27.3095 125.809 27.414 109.734 24.6291 94.0059C23.1496 85.6394 20.7999 69.6859 11.7143 66.8105C10.6873 66.4814 9.88668 66.8624 9.29489 66.7758L9.3123 66.7585Z" fill="#ADC17D"/>
<path d="M98.7962 140.931C97.5256 149.8 105.306 139.32 107.151 138.142C108.508 137.276 110.058 136.843 111.572 136.341C112.738 136.808 109.744 144.516 112.529 145.573C117.002 143.685 118.186 138.852 116.689 134.487C121.858 136.566 130.631 133.656 130.544 127.593C129.726 127.281 124.73 131.023 123.129 128.355C124.904 127.247 140.221 116.576 135.383 114.376L121.214 120.422L122.154 112.419C124.974 110.392 126.993 107.43 129.969 105.871C143.354 98.856 156.722 102.84 166.591 113.458C199.504 148.916 161.247 197.21 118.273 181.377C102.625 175.609 82 156.607 98.8136 140.948L98.7962 140.931Z" fill="#F05964"/>
<path d="M34.9504 60.4188C37.4916 59.2409 47.7783 56.5214 47.726 53.3342C47.6738 49.4714 38.8493 47.029 35.5944 48.0163C32.5659 48.9344 29.9028 54.2176 27.7968 53.9578C23.2539 51.55 20.4169 45.7125 14.3946 47.6179C9.08589 49.2982 10.7742 52.8665 12.5148 56.9891C6.30102 58.0804 3.0462 55.3435 -2.81945 59.3276C-14.2026 67.0531 5.04781 66.0311 9.32956 66.7586C-1.65329 75.2637 -14.4637 69.1664 -19.9638 57.63C-42.8172 9.63102 48.6659 -27.9055 62.6425 27.9576C66.698 44.1882 53.0173 64.7147 34.9504 60.4188Z" fill="#F05964"/>
</g>
<g clip-path="url(#clip1_848_8332)">
<path d="M61.0165 365.566C61.0713 365.47 61.1584 365.444 61.0254 365.646C61.0254 365.646 60.9976 365.617 61.0039 365.6C61.0039 365.6 61.0039 365.6 61.0102 365.583L61.0165 365.566Z" fill="#3A4042"/>
<path d="M62.0985 532.783C54.1894 546.365 59.4382 562.99 69.5782 573.794C81.5403 586.514 100.801 592.16 117.35 586.066C133.734 580.047 144.098 563.713 141.409 546.32C138.773 529.257 122.957 515.854 105.564 517.434C104.672 517.533 104.041 517.923 103.643 518.477C88.3738 514.615 70.4757 518.46 62.0985 532.783Z" fill="#F05964"/>
<path d="M11.0162 372.842C6.92591 379.816 6.10071 389.279 6.39761 397.229C7.03729 413.322 14.312 429.255 28.8679 437.213C43.0894 444.969 60.2204 443.097 71.5266 431.119C77.2797 425.07 80.9285 417.446 82.3329 409.209C83.3117 403.286 83.5139 395.986 81.7244 389.762C81.7311 388.636 81.4855 387.456 81.2191 386.385C80.9005 385.139 80.4944 383.919 80.0307 382.697C79.8514 382.339 79.6253 382.003 79.446 381.645C79.7455 381.308 79.8331 380.912 79.6954 380.336C73.2306 361.257 49.9863 355.018 32.2004 359.877C24.4476 361.959 15.1904 365.588 10.9693 372.864L11.0162 372.842Z" fill="#F05964"/>
<path d="M-36.7653 485.165C-39.4723 499.888 -31.207 514.085 -18.8642 521.712C-6.86837 529.173 12.207 532.104 22.3872 520.119C31.1684 509.817 34.4451 486.589 21.6276 478.086C21.5032 478.001 21.3878 477.998 21.3148 477.932C16.4228 466.088 4.05766 457.888 -9.21813 458.75C-23.6046 459.669 -34.2561 471.402 -36.7888 485.176L-36.7653 485.165Z" fill="#F05964"/>
<path d="M133.462 415.483C124.889 418.313 118.211 424.916 114.715 433.18C108.101 448.737 114.716 466.723 127.782 476.66C139.923 485.944 157.845 487.361 171.306 480.088C184.693 472.808 191.61 457.168 189.291 442.304C186.661 425.594 170.42 412.871 153.545 413.786C153.053 413.799 152.65 413.942 152.28 414.156C145.95 413.436 139.562 413.453 133.439 415.494L133.462 415.483Z" fill="#F05964"/>
<path d="M122.485 330.418C130.097 332.253 138.022 332.764 145.426 329.833C154.135 326.372 160.036 318.393 162.133 309.438C166.467 290.569 153.848 272.139 138.01 262.911C122.194 253.73 102.364 255.638 89.526 269.132C77.7644 281.448 76.4607 301.279 85.9089 315.33C93.7678 327.042 108.854 333.036 122.485 330.418Z" fill="#F05964"/>
<path d="M70.3907 365.366C72.0471 366.678 73.6358 368.12 75.1416 369.628C75.1071 367.981 75.0727 366.334 75.1364 364.685C75.2667 361.484 75.8797 355.075 80.8057 356.542C84.7646 357.73 84.2357 363.489 83.9577 366.616C83.8246 368.084 83.5544 369.502 83.2158 370.895C89.5806 363.768 97.6018 357.952 107.716 360.438C113.086 361.757 116.931 365.997 119.062 370.927C120.969 358.108 121.761 345.151 123.358 332.276C120.693 334.542 117.917 336.689 114.953 338.553C113.126 339.708 111.185 341.016 108.903 340.66C106.547 340.297 105.014 338.175 105.215 335.837C105.582 331.731 110.634 328.847 113.903 327.212C115.716 326.305 117.591 325.654 119.517 325.178C117.562 323.464 115.715 321.615 114.067 319.646C111.775 316.894 110.843 312.406 114.955 310.751C118.974 309.14 122.621 313.073 125.101 315.739C126.313 317.042 127.296 318.436 128.104 319.94C129.491 318.078 131.127 316.386 133.025 314.985C134.521 313.883 136.446 312.356 138.367 312.266C140.483 312.172 142.06 313.804 142.133 315.874C142.215 317.869 140.99 319.869 140.036 321.56C139.088 323.233 137.919 324.767 136.66 326.229C139.306 326.544 141.943 326.991 144.51 327.627C148.074 328.514 157.48 332.236 154.5 337.519C153.216 339.788 150.15 339.396 147.959 339.269C145.33 339.117 142.728 338.682 140.173 338.012C136.284 337.005 131.71 335.163 128.533 332.278C129.625 346.301 128.837 360.621 126.514 374.513C130.247 372.621 134.854 372.842 138.609 374.48C147.461 378.329 153.331 388.316 156.192 397.173C157.543 401.368 158.181 405.864 157.822 410.265C160.194 409.584 162.671 409.408 165.154 409.429C168.376 409.45 171.792 409.368 174.977 409.804C177.945 410.198 181.027 412.074 180.625 415.486C180.201 419.008 176.569 420.099 173.619 420.607C170.443 421.147 167.155 421.569 163.96 421.421C164.84 422.991 165.703 424.555 166.355 426.216C167.681 429.584 170.16 436.102 165.307 437.97C160.998 439.629 157.371 433.058 155.571 430.078C154.474 428.253 153.582 426.348 152.823 424.395C149.133 430.233 143.383 434.532 136.553 436.487C135.025 436.936 133.762 435.614 133.364 434.319C131.947 429.827 135.518 425.949 138.59 423.211C141.365 420.752 144.4 418.642 147.535 416.685C145.535 415.831 143.554 414.925 141.598 413.95C138.772 412.538 135.592 411.19 135.545 407.573C135.521 406.689 136.451 405.592 137.365 405.54C140.705 405.294 143.932 405.881 146.866 407.527C148.96 408.708 150.494 410.403 152.004 412.166C152.234 410.909 152.481 409.657 152.515 408.405C152.572 406.247 152.328 404.114 151.881 402.003C150.927 397.468 149.007 393.18 146.537 389.273C143.645 384.665 139.543 379.436 133.939 378.224C130.446 377.461 127.609 378.613 125.355 380.661C125.224 381.333 125.116 381.993 124.968 382.659C120.651 403.169 112.165 422.588 103.535 441.604C98.195 453.39 92.3773 464.941 86.1334 476.277C87.6201 475.833 89.1915 475.634 90.7132 475.728C96.7747 476.175 101.442 480.873 104.771 485.564C108.684 491.094 110.979 496.688 111.11 503.507C111.171 506.876 110.913 510.263 110.553 513.613C110.518 513.97 110.489 514.368 110.446 514.799C111.875 513.459 113.449 512.249 115.159 511.149C117.929 509.388 122.379 506.924 125.408 509.579C128.864 512.605 125.338 517.258 122.541 519.144C120.616 520.458 118.487 521.482 116.309 522.429C117.559 523.26 118.754 524.187 119.792 525.329C122.247 528.064 125.786 533.922 123.601 537.63C120.825 542.307 115.182 537.773 112.685 535.471C112.41 535.214 112.165 534.929 111.914 534.661C111.019 539.195 108.758 543.478 105.314 546.644C103.339 548.464 100.548 546.695 100.52 544.291C100.497 539.925 100.973 535.625 101.658 531.345C97.7657 533.878 93.1756 535.298 88.3986 535.325C86.354 535.33 84.8497 532.499 86.1954 530.855C89.0356 527.428 92.5021 524.835 96.3396 522.923C91.9315 520.422 88.4064 516.475 86.6452 511.545C86.0292 509.839 86.6432 507.595 88.7546 507.304C92.3157 506.827 95.5083 508.141 98.2443 510.376C100.096 511.896 101.89 514.153 104.041 515.55C104.155 515.028 104.247 514.516 104.308 514.033C104.672 511.307 104.932 508.543 105.054 505.787C105.328 499.876 104.108 495.009 100.87 490.021C98.4031 486.212 94.8062 481.616 89.9763 480.943C87.6416 480.627 85.309 481.517 83.3694 482.767C82.8626 483.086 82.4072 483.424 81.9689 483.768C79.3716 488.277 76.7014 492.72 73.9283 497.126C68.1089 506.361 61.9507 515.354 55.3851 524.081C49.2966 532.147 43.0418 541.455 35.2979 547.996C32.5861 550.283 28.5344 546.921 30.5478 543.889C36.0901 535.563 43.5286 528.268 49.5639 520.241C55.6415 512.152 61.393 503.786 66.8208 495.243C69.6597 490.765 72.4129 486.255 75.0761 481.673C75.3671 477.772 75.1559 473.861 71.7232 471.194C67.6083 468.003 61.969 466.993 56.9136 466.509C51.0631 465.966 46.2575 467.442 41.3845 470.684C38.8767 472.366 36.4617 474.218 34.1198 476.137C32.4776 477.477 30.9066 478.94 29.3184 480.397C32.4096 482.724 34.8612 486.1 36.7674 489.371C37.7376 491.013 38.8907 492.898 38.3607 494.862C37.7197 497.232 35.3439 498.029 33.1689 497.227C29.1957 495.761 26.1122 492.464 24.4334 488.576C20.8743 493.003 16.2104 496.205 10.0116 496.447C7.64062 496.546 6.74667 493.589 7.74805 491.877C10.3246 487.477 13.9798 483.844 18.3009 481.255C13.1337 478.649 8.79379 474.538 6.05002 469.265C4.81956 466.904 7.25446 464.787 9.51341 465.309C13.8988 466.343 17.7725 468.394 21.014 471.263C20.9748 470.315 20.9653 469.339 21.1054 468.378C21.5557 465.101 23.094 461.933 26.2571 460.531C27.487 459.993 29.1653 460.612 29.3783 462.091C29.8448 465.415 29.7532 469.039 28.9296 472.432C29.5167 471.948 30.11 471.447 30.6737 470.974C33.6154 468.538 36.6643 466.18 39.9052 464.146C46.0396 460.28 52.8174 459.628 59.8422 460.838C65.9945 461.882 73.1805 463.657 77.1485 468.935C78.3621 470.55 79.0421 472.24 79.3974 473.967C85.6865 462.667 91.5212 451.122 96.8098 439.318C104.702 421.722 111.962 403.465 116.375 384.645C115.938 382.402 115.588 380.132 115.134 377.883C114.19 373.216 111.994 367.989 107.205 366.203C97.3421 362.506 89.124 371.44 83.5137 378.632C83.5137 378.632 83.5182 378.672 83.529 378.696C86.0316 382.829 88.0356 387.207 89.6113 391.796C91.0006 395.888 90.9945 401.918 85.6221 402.874C80.7897 403.737 78.0106 399.035 77.3884 394.972C76.9946 392.453 76.8442 389.907 76.8092 387.365C74.8794 388.852 72.8441 390.202 70.6927 391.393C67.6999 393.072 60.8754 397.753 58.2394 393.453C55.6593 389.214 62.6198 384.796 65.5504 383.076C68.3511 381.443 71.286 380.133 74.2642 378.916C71.3144 377.05 68.4259 375.07 65.688 372.892C63.6261 371.256 61.6489 369.496 59.6528 367.787C57.9658 366.347 56.6235 364.237 58.2488 362.152C61.4761 357.992 67.514 363.196 70.314 365.416L70.3907 365.366Z" fill="#ADC17D"/>
</g>
<defs>
<clipPath id="clip0_848_8332">
<rect width="203" height="204" fill="white" transform="translate(179 204) rotate(-180)"/>
</clipPath>
<clipPath id="clip1_848_8332">
<rect width="202.527" height="320.904" fill="white" transform="matrix(-0.938199 -0.346096 -0.346096 0.938199 246.074 302.094)"/>
</clipPath>
</defs>
</svg>
