<svg width="185" height="1097" viewBox="0 0 185 1097" fill="none" xmlns="http://www.w3.org/2000/svg">
<path d="M-545.432 876.917C-551.405 956.779 -554.391 996.709 -530.787 1022.26C-507.183 1047.82 -467.067 1048.01 -386.836 1048.39L-1.46558 1050.19C73.9583 1050.55 111.67 1050.73 135.211 1027.4C158.753 1004.08 158.93 966.371 159.284 890.947L162.159 278.536C162.513 203.113 162.69 165.401 139.368 141.859C116.047 118.318 78.3354 118.141 2.91151 117.787L-370.594 116.034C-455.412 115.636 -497.821 115.436 -521.76 141.617C-545.7 167.797 -541.635 210.89 -533.504 297.077C-524.078 397.003 -516.077 513.652 -521.941 579.304C-528.065 647.862 -537.673 773.169 -545.432 876.917Z" fill="#D0E6E0"/>
<g clipPath="url(#clip0_848_5258)">
<path d="M80.1452 193.631C76.3339 202.095 68.4676 210.781 66.6506 220.908C66.3847 228.353 84.7763 200.367 85.7956 199.126C96.8084 186.052 112.231 169.079 124.551 157.401C136.206 146.366 148.77 134.711 165.101 131.476C171.97 146.322 157.634 162.941 148.46 174.153C138.245 186.629 125.526 198.129 113.184 208.521C89.6069 228.375 59.6264 241.382 46.3977 270.055C54.1532 271.053 58.6292 262.411 64.6342 258.666C88.0336 243.997 131.775 228.974 159.118 236.175C172.591 239.72 187.481 250.312 167.095 257.935C125.991 273.268 58.873 264.516 29.9561 304.268C27.1198 308.146 17.8797 323.79 16.5723 327.778C15.5974 330.814 16.4394 332.698 18.7439 332.099C39.0632 318.693 60.0695 301.72 81.1201 289.865C95.1243 281.977 110.414 274.465 126.855 274.975C132.395 293.721 103.345 314.151 88.8313 322.283C65.166 335.512 42.6972 337.307 18.5223 346.015C-3.37035 353.903 -8.11229 364.805 -19.7677 383.352C-5.18736 379.807 7.70891 370.035 21.8239 365.049C38.3098 359.221 56.0588 355.875 73.4976 356.274C80.1452 356.429 111.566 358.468 103.899 371.364C91.5125 392.171 -8.66625 393.102 -32.5088 404.092L-51.4987 426.694C-31.7998 419.116 -10.8378 408.679 10.523 406.663C27.1641 405.09 30.6208 412.247 18.899 424.057C7.443 435.624 -19.3245 442.072 -35.4781 443.645C-47.2443 444.798 -73.0146 438.327 -73.6129 454.57C-55.7753 447.501 -29.8276 467.754 -61.5144 470.191C-68.6937 470.745 -87.1961 466.38 -90.9187 467.399C-96.0817 468.818 -103.261 480.495 -112.501 479.099C-117.066 469.261 -99.4498 465.095 -97.7436 457.162C-96.0373 449.229 -100.934 432.987 -100.203 423.06C-98.4526 399.328 -85.5785 395.916 -82.4985 423.814C-82.0775 427.625 -84.9581 444.975 -84.0053 445.507C-81.1468 447.124 -77.1804 441.297 -76.3606 438.217C-73.4578 427.226 -79.4628 411.227 -80.327 400.148C-81.6565 383.33 -83.6064 339.833 -72.9038 326.56C-54.9776 304.379 -55.7531 358.734 -55.7753 367.442C-55.8418 383.33 -57.6366 399.683 -60.5615 415.282C-54.889 417.388 -41.7046 397.112 -40.8183 391.529C-39.1342 380.737 -45.7153 341.871 -48.33 329.662C-50.9447 317.453 -70.6215 259.02 -65.4364 252.949C-60.2513 246.878 -52.9833 253.791 -49.1721 257.469C-31.8219 274.221 -24.8641 306.573 -23.4681 329.817C-23.0693 336.287 -27.1686 369.06 -25.3738 369.968C-19.3023 373.026 -13.519 357.56 -12.6991 353.083C-15.1365 330.393 -20.2108 307.836 -20.3438 284.902C-20.4324 271.163 -20.5875 247.587 -4.54476 243.31C4.98341 271.518 3.58743 301.654 1.59315 330.858C4.8283 332.786 15.8854 309.542 16.6388 305.997C23.1091 276.06 -8.57761 217.872 -16.3553 186.03C-18.3938 177.721 -19.4131 150.798 -5.34247 161.501C16.4394 178.075 28.9146 235.244 29.2913 261.857C29.3578 267.419 24.6602 293.477 34.1219 277.08C49.9431 249.692 29.2692 185.742 24.5937 153.346C22.954 141.957 16.2843 97.7063 21.4694 90.106C25.1255 84.7214 31.3299 85.3197 36.3377 88.3776C60.1803 103.047 60.8008 178.674 58.4298 205.33C58.8065 206.837 62.5291 205.508 63.2825 204.998C68.7778 201.386 74.8936 90.1724 77.1538 74.3291C78.8378 62.4743 84.5104 30.4109 97.8941 26.9984C105.783 24.982 112.918 40.9583 114.269 47.1849C123.953 91.4355 98.1379 153.767 80.123 193.631H80.1452Z" fill="#6A8D7E"/>
</g>
<g clipPath="url(#clip1_848_5258)">
<path d="M-109.963 904.665C-93.2696 904.053 -55.7391 884.979 -32.992 868.928C-39.5934 877.701 -47.156 887.814 -51.2528 896.434C-56.0366 906.474 -72.3617 956.194 -64.4941 965.986C-63.8498 965.678 -63.2152 965.246 -62.5903 964.688C-66.7147 982.447 -69.7538 1003.14 -64.7044 1008.82C-53.4156 1002.8 -45.1302 954.415 -39.0079 943.705C-32.5498 932.382 -25.0029 916.468 -19.8101 904.398C-19.3284 903.262 -12.0592 878.602 -10.5863 884.128C-9.66279 891.972 -13.4941 900.124 -14.4194 907.175C-18.7666 940.478 17.0654 1076.16 22.4159 1072.95C31.5035 1067.46 16.7617 1003.07 14.3542 994.195C-10.2741 903.205 -1.28129 877.461 -0.670203 878.475C3.52043 898.584 68.613 1024.93 84.5579 1024.2C91.6174 1023.88 39.1346 932.404 35.3781 924.414C26.8329 906.145 6.22682 875.265 1.25188 851.557C3.89322 844.505 5.9775 838.799 6.16623 839.133C6.35761 840.421 6.78238 842.138 7.40084 844.21C7.54902 844.809 7.67744 845.328 7.76634 845.687C7.88015 846.061 8.06374 846.461 8.2074 846.87C19.2719 881.233 69.1855 988.958 83.7417 989.044C89.7877 989.074 55.9052 920.543 43.7953 895.401C63.2709 917.429 85.2829 938.574 95.6444 942.431C105.099 945.961 49.7679 892.822 22.1493 849.269C13.392 830.057 6.00907 809.806 9.88831 796.366C13.9335 782.398 15.2204 802.675 16.3077 806.813C16.9996 809.439 18.642 812.994 20.9812 817.225C28.4772 840.161 39.0562 867.08 47.9896 879.638C52.0664 877.104 52.2557 869.133 50.7576 859.651C68.8102 882.179 89.1102 903.684 99.0716 907.979C106.88 911.365 70.7457 872.102 44.0295 832.796C41.9459 826.087 40.0191 820.525 39.153 817.709C33.9516 800.88 25.195 785.439 18.3607 769.29C18.3218 768.875 18.2932 768.332 18.2848 767.698C18.9722 764.053 20.0876 758.798 21.3291 754.995C22.0393 754.268 22.8783 753.891 23.9155 754.058C25.4413 754.317 29.7196 779.319 31.4491 783.998C32.3014 786.33 33.3031 788.752 34.3844 791.239C40.3411 811.292 47.8226 832.028 54.7051 842.805C58.4166 840.764 59.3054 834.336 58.7815 826.308C61.2308 828.329 63.7856 830.091 66.4511 831.445C70.0681 833.305 98.3985 851.213 100.837 845.652C102.949 840.828 74.5155 824.132 53.4809 797.087C51.6383 789.725 49.8328 783.539 49.0571 780.49C44.7293 763.423 36.7968 747.545 30.7914 731.064C30.7667 730.964 30.792 730.809 30.7824 730.684C31.5715 726.252 33.5525 719.956 35.8765 716.161C36.2758 716.062 36.69 716.023 37.1387 716.124C38.6444 716.472 41.6352 741.666 43.125 746.404C47.055 758.949 54.1299 774.616 63.9548 785.724C76.0994 808.951 91.0567 832.498 95.8047 820.772C97.5713 816.436 95.6712 812.182 91.2479 805.521C99.3423 810.32 107.783 814.461 109.226 811.562C111.923 806.191 75.6389 783.279 56.6746 748.073C55.9203 746.48 55.1411 744.872 54.367 743.199C51.5126 735.514 48.3423 720.387 46.3896 709.153C46.2311 702.602 46.3065 696.312 46.1761 692.531C46.0974 690.071 47.7014 684.907 50.1694 685.462C50.997 685.638 52.7449 699.042 53.9005 701.743C55.9044 706.417 58.46 711.866 61.1455 717.24C63.9187 733.59 71.3055 780.579 79.4247 763.21C84.9613 751.331 76.6228 695.783 72.5226 683.491C70.532 677.5 65.971 670.026 63.7734 663.027C65.3819 660.108 66.0825 657.201 63.6449 654.457C63.3156 654.496 63.001 654.595 62.6865 654.694C63.1469 652.101 64.827 648.443 66.9158 649.007C67.7334 649.229 68.7777 662.7 69.7985 665.456C77.2413 685.693 94.0962 720.594 91.0178 702.583C89.7244 695.042 70.4823 659.227 75.0098 637.788C76.3019 631.705 87.1729 625.202 81.9659 618.714C74.8208 619.38 71.6234 629.409 68.0317 631.421C65.4241 632.871 50.9115 633.304 45.5903 634.747C-0.494445 647.335 32.4059 646.802 57.4945 644.155C60.0485 656.363 38.6204 665.499 30.0477 668.531C18.2995 672.687 -19.9443 695.815 -26.376 706.559C-32.943 717.527 -8.53015 699.644 3.59735 695.394C11.7057 692.54 19.3143 688.01 26.6348 682.999C31.0658 682.496 35.7416 681.869 40.168 681.177L36.1371 689.378C20.3973 701.98 -56.6927 747.684 -62.0792 765.48C-64.7348 774.273 -28.9442 748.68 -8.57037 734.169C4.67879 728.201 16.3276 717.818 27.6338 708.792C28.448 708.315 29.2673 707.858 30.1114 707.416L21.5568 727.394C6.47852 740.786 -68.1368 790.412 -72.6161 808.449C-75.0144 818.111 -34.2868 785.068 -16.1732 770.756C-19.2064 774.854 -22.5787 778.951 -26.8437 782.951C-36.1688 791.678 -66.4546 802.094 -58.8641 815.048C-46.5111 812.395 -36.4984 803.964 -27.5082 795.511C-13.983 782.779 -1.48102 766.253 11.2036 752.521C12.812 751.657 13.7967 752.896 13.6161 755.335C13.5537 756.368 13.0897 758.432 12.4451 760.879C9.79223 768.57 6.03077 774.692 -3.03998 781.449C-17.0334 791.86 -21.1724 805.448 -31.9306 818.831C-52.8866 832.702 -79.5485 844.235 -108.011 853.797C-123.858 859.116 -115.014 859.492 -104.319 859.643C-95.9191 859.768 -82.0156 855.503 -67.2694 849.333C-68.6381 852.108 -68.7249 854.927 -66.8562 857.77C-54.6563 854.497 -45.0863 845.562 -36.549 836.648C-35.0836 835.121 -33.633 833.533 -32.1923 831.905C-22.1561 826.053 -13.8609 820.272 -9.45487 815.729C-5.99898 812.14 -4.23228 805.75 0.655322 804.18C-0.353024 808.498 -1.5112 812.895 -2.1292 814.679C-14.5187 850.331 -60.8003 878.053 -113.944 899.018C-129.484 905.151 -120.629 905.058 -109.938 904.68L-109.963 904.665ZM-33.0898 902.535C-35.223 905.817 -37.7312 909.467 -40.2998 913.302C-38.5218 908.413 -36.9108 904.476 -35.4886 902.26C-28.4577 891.282 -20.0887 875.779 -14.293 864.005C-13.922 863.278 -10.0991 852.437 -7.1719 846.798C-10.9578 868.922 -20.7964 883.624 -33.1098 902.54L-33.0898 902.535ZM46.0294 669.069C46.0294 669.069 46.0844 669.035 46.0994 669.01L46.0694 669.059C46.0694 669.059 46.0294 669.069 46.0095 669.074L46.0294 669.069Z" fill="#6A8D7E"/>
</g>
<defs>
<clipPath id="clip0_848_5258">
<rect width="290.365" height="452.389" fill="white" transform="translate(-113.254 26.8218)"/>
</clipPath>
<clipPath id="clip1_848_5258">
<rect width="267.384" height="426.744" fill="white" transform="translate(185 1032.73) rotate(166.105)"/>
</clipPath>
</defs>
</svg>
