<svg width="194" height="754" viewBox="0 0 194 754" fill="none" xmlns="http://www.w3.org/2000/svg">
<path d="M29.7991 331.053C29.7411 331.386 29.7 331.722 29.6758 332.06C28.9254 359.095 28.868 386.172 27.2417 413.153C25.6494 439.514 25.2072 465.874 25.643 492.235C25.8705 506.036 27.6796 519.775 28.9381 533.534C30.0435 545.651 31.4891 557.66 33.615 569.616C33.6593 570.454 33.8749 571.274 34.2486 572.026C34.6223 572.778 35.1461 573.445 35.7876 573.987C36.2935 565.154 36.7804 564.807 43.8148 569.216C51.4031 573.674 58.3616 579.125 64.5058 585.426C71.1257 592.598 77.9242 599.605 84.6461 606.684C92.8285 605.621 100.647 608.761 108.736 608.778C108.853 605.736 108.962 602.692 109.085 599.65C109.723 583.793 108.177 567.881 110.905 552.063C112.336 543.957 110.628 535.611 106.126 528.721C104.706 526.411 103.497 523.98 102.512 521.454C100.524 516.537 101.296 515.005 106.187 514.886C110.245 514.739 114.307 515.024 118.305 515.736C126.44 517.294 127.182 519.137 121.742 525.181C118.781 528.413 116.489 532.2 115.001 536.324C113.513 540.447 112.858 544.825 113.073 549.203C113.311 569.129 113.545 589.084 112.038 608.993C124.954 609.877 137.85 611.096 150.82 611.076C151.959 611.076 153.103 612.248 154.244 612.877L167.04 597.186C172.758 590.458 178.915 584.115 185.469 578.198C186.415 577.305 187.574 576.329 189.068 577.184C189.639 577.554 190.078 578.094 190.324 578.728C190.569 579.362 190.609 580.057 190.437 580.715C190.12 583.053 189.468 585.336 189.096 587.666C187.767 596.015 184.119 603.906 184.166 612.526C203.919 616.089 223.864 614.331 243.732 614.692C237.873 597.473 227.206 583.155 215.246 569.48C218.989 567.371 220.548 569.862 222.523 570.743C230.85 574.456 235.006 582.724 241.613 588.323C246.077 581.457 244.929 573.487 246.168 565.957C250.807 537.753 258.273 510.047 260.544 481.393C260.994 475.698 260.49 469.216 263.9 463.829C261.905 453.522 257.814 443.734 251.881 435.072C246.028 426.214 236.787 420.617 230.329 412.203C246.938 414.576 262.209 422.639 273.535 435.017C276.122 420.136 268.611 408.151 265.722 393.363C277.584 400.434 281.549 410.906 287.99 419.273L303.084 412.989C305.678 409.76 304.521 405.84 305.08 402.232C306.062 395.899 305.93 389.301 309.268 381.726C313.203 392.281 313.222 401.865 315.69 410.887L321.271 410.759C320.607 402.369 322.217 393.937 319.944 385.523C317.752 377.415 312.854 370.119 312.767 361.354C320.705 371.052 321.434 383.759 326.46 396.08C328.479 391.948 330.006 389.322 331.06 386.514C332.138 383.653 332.404 380.336 337.344 378.812C333.76 390.315 330.573 400.549 327.385 410.783L335.135 410.885L339.175 394.515C344.111 399.902 342.297 406.293 345.18 411.097L351.755 410.957C352.389 410.41 352.906 409.742 353.276 408.992C353.646 408.242 353.861 407.425 353.909 406.59C355.463 397.132 357.098 387.687 358.877 377.175C362.117 388.793 357.948 399.299 358.267 410.338L375.074 407.013C374.377 410.68 371.122 410.725 370.138 412.832C375.197 416.941 381.192 414.209 386.694 415.051C410.881 418.912 435.32 420.985 459.813 421.254L460.221 420.749C458.788 410.204 462.047 399.951 461.994 389.424C461.732 337.241 462.085 285.045 461.862 232.868C461.821 223.327 464.115 214.098 464.049 204.594C463.949 190.727 457.442 183.433 443.429 182.587C437.359 182.219 431.213 182.719 425.359 180.493C422.58 183.472 419.058 185.658 415.155 186.826C402.415 191.265 389.88 194.39 375.826 193.072C361.137 191.696 349.795 187.017 342.174 174.277C339.576 177.379 335.99 176.486 332.706 176.494C319.166 176.535 305.624 176.458 292.089 176.424C286.464 181.135 280.463 185.565 278.484 193.771C289.325 197.049 300.699 196.837 310.646 203.399C305.204 205.934 299.501 207.864 293.639 209.156C284.498 211.756 275.367 214.43 267.572 220.244C264.906 222.234 260.556 223.539 260.956 227.215C261.381 231.167 265.96 230.774 269.094 231.68C273.322 232.912 277.506 234.32 281.668 235.767C283.53 236.416 285.635 237.043 285.325 239.549C285.178 240.079 284.847 240.54 284.391 240.847C283.935 241.154 283.383 241.287 282.837 241.222C273.271 240.4 264.942 244.35 256.477 247.847C247.814 251.429 242.91 257.119 243.443 267.292C244.066 279.141 243.656 291.048 243.581 302.93C243.569 304.734 244.238 307.213 241.171 307.56C239.385 306.641 239.181 304.779 238.902 303.219C237.063 292.93 230.214 287.653 220.918 284.484C210.669 280.989 200.609 276.913 189.668 275.889C187.321 275.512 185.023 274.883 182.812 274.012C181.855 273.701 180.873 272.949 181.185 271.82C181.294 271.349 181.496 270.904 181.779 270.512C182.062 270.12 182.42 269.789 182.833 269.537C187.268 267.851 191.897 266.725 196.611 266.184C198.949 265.91 201.84 267.209 204.162 263.935C192.706 257.652 180.48 252.888 167.793 249.764C165.599 249.201 162.495 249.734 162.506 246.392C162.506 243.437 165.494 242.87 167.631 242.232C171.434 241.093 175.584 241.059 178.96 238.661C178.998 236.139 177.176 234.87 175.701 233.614C169.244 228.11 165.392 220.093 158.031 215.465C157.725 215.317 157.459 215.099 157.254 214.829C157.048 214.559 156.909 214.244 156.847 213.911C156.785 213.577 156.802 213.233 156.897 212.908C156.992 212.582 157.161 212.283 157.393 212.034C158.192 211.475 159.179 211.252 160.142 211.414C161.132 211.633 162.082 212.003 162.96 212.51C194.636 226.696 219.842 247.819 235.186 279.59C236.094 281.473 236.117 284.42 239.468 284.39C239.468 269.035 240.446 253.691 239.219 238.525C237.384 219.99 237.421 201.317 239.33 182.789C239.676 179.9 240.373 176.624 237.529 174.25C225.978 171.959 214.247 170.697 202.474 170.478C182.952 169.947 163.358 168.89 143.86 172.081C138.598 172.942 133.071 172.185 127.665 172.17C125.241 181.045 119.582 188.69 111.802 193.599C98.7894 202.345 84.9735 202.292 70.186 200.049C59.9947 198.503 53.7277 193.306 49.2209 184.806C48.6978 183.939 48.1251 183.102 47.5053 182.3C40.6346 183.98 38.1962 189.432 36.4977 195.41C35.9362 197.345 35.65 199.349 35.6473 201.363C35.5099 225.166 34.129 248.945 31.5104 272.604C51.1405 293.899 62.5861 319.7 71.6487 346.584C72.0302 346.575 72.4056 346.486 72.7496 346.32C73.0936 346.155 73.3983 345.918 73.6433 345.625C73.8883 345.333 74.0679 344.991 74.1701 344.623C74.2722 344.256 74.2946 343.87 74.2358 343.493C74.3931 330.625 76.6593 317.917 76.536 304.979C76.3787 288.397 76.1427 271.815 78.0772 255.217C79.5972 242.17 79.931 228.718 70.9662 217.185C69.9557 216.155 69.3525 214.793 69.2681 213.352C69.1837 211.911 69.6238 210.489 70.507 209.347C76.789 208.463 83.1902 209.037 89.2146 211.025C95.3349 213.316 96.0747 215.667 92.11 220.561C90.6219 222.402 88.8808 224.045 87.2524 225.774C85.6442 227.301 84.3773 229.152 83.5346 231.203C82.6919 233.255 82.2926 235.462 82.3629 237.678C83.4004 256.022 79.4207 274.162 80.2009 292.496C80.2192 296.218 79.9105 299.935 79.2784 303.604C77.908 311.324 78.0908 319.239 79.8162 326.888C82.54 322.895 85.4706 319.047 88.5959 315.359C97.6414 305.818 104.752 294.313 115.911 286.932C127.539 279.25 140.55 274.054 152.918 267.702C154.406 266.939 156.19 265.933 157.399 267.813C158.43 269.418 157.297 270.97 156.394 272.447C151.496 279.769 146.97 287.332 142.833 295.108C135.441 310.476 122.75 320.406 109.387 329.841C102.314 334.836 93.868 336.59 85.9599 339.535C79.3038 342.018 76.3638 345.755 76.249 352.979C76.1257 360.8 74.661 368.599 73.7809 376.408C70.1669 369.956 67.8008 363.563 62.1057 358.873C51.1554 349.836 40.5559 340.349 29.7991 331.053ZM253.896 402.711L253.911 402.696C254.038 398.668 253.542 394.645 252.442 390.768C251.519 387.696 250.475 383.82 255.188 380.64C256.116 389.901 257.951 399.049 260.667 407.951C261.19 409.541 262.017 411.25 259.995 412.29C259.211 412.628 258.338 412.698 257.511 412.489C256.683 412.28 255.948 411.805 255.418 411.136C251.062 406.924 246.738 402.679 242.504 398.349C241.205 397.02 239.191 395.621 241.506 393.034C246.902 394.556 248.962 400.57 253.896 402.711ZM67.5266 399.224C86.2682 419.792 96.6508 444.773 106.398 470.368C106.045 440.725 108.005 411.652 117.531 383.504C125.63 411.235 125.135 439.543 123.66 467.953C132.616 446.401 140.49 424.83 144.363 402.014C144.789 399.486 144.406 395.523 149.266 395.249C154.793 423.042 151.491 450.181 144.391 477.237C158.649 458.334 163.807 435.827 170.516 411.96C171.234 413.499 171.787 415.108 172.168 416.763C172.144 433.736 172.242 450.712 171.849 467.679C171.498 472.415 170.596 477.094 169.159 481.62C166.056 493.312 158.411 500.411 147.24 505.177C132.724 511.369 117.88 510.402 103.364 507.941C90.5857 505.768 78.2324 499.862 71.0151 488.438C61.5508 473.444 55.0309 457.009 53.9467 438.906C53.618 430.769 52.2492 422.707 49.8735 414.917C49.3187 413.217 47.6095 411.197 50.9832 409.007C56.1341 415.032 60.7212 421.517 64.6865 428.38C68.9892 435.221 72.8689 442.326 76.9335 449.316L79.138 448.253C75.4645 431.956 69.0998 416.269 67.5266 399.224ZM382.559 329.061C382.559 325.493 382.574 321.926 382.559 318.357C382.5 305.814 380.646 293.195 381.173 280.855C381.743 267.319 381.751 253.778 382.236 240.251C382.695 227.613 382.961 215.166 373.709 204.66C370.85 201.414 372.582 198.803 376.945 199.069C381.307 199.334 385.661 200.198 389.997 200.835C392.217 201.163 395.072 200.123 396.235 202.995C397.321 205.684 395.284 207.498 393.656 209.148C390.15 212.64 387.519 216.911 385.977 221.613C384.434 226.315 384.025 231.315 384.781 236.205C386.092 246.409 384.87 256.401 384.502 266.477C383.667 289.224 387.327 311.816 386.702 334.55C386.702 334.794 386.936 335.047 387.068 335.3C388.805 334.785 388.435 333.208 388.692 331.984C393.106 312.078 401.061 293.127 412.179 276.035C420.321 263.131 428.552 250.284 436.872 237.494C437.925 235.87 439.29 233.712 441.615 234.434C444.232 235.251 443.316 237.742 443.057 239.634C440.703 256.387 437.229 272.962 432.657 289.25C427.298 309.262 418.66 328.248 407.094 345.436C399.744 356.248 389.768 365.166 384.379 379.148C381.02 372.557 382.028 367.058 382.446 362.013C383.246 352.371 379.872 345.266 372.918 338.629C359.296 325.354 347.985 309.899 339.451 292.9C328.803 272.381 320.999 250.623 310.524 230.068C309.37 227.802 307.897 225.355 310.493 222.202C343.152 252.096 367.791 286.943 382.559 329.061ZM296.037 377.032C298.547 378.265 298.885 379.707 298.49 380.908C296.118 388.136 296.838 395.555 296.717 402.932C296.814 404.612 296.707 406.297 296.398 407.951C295.862 409.932 293.79 410.859 292.693 409.124C289.491 404.065 285.052 399.613 283.226 393.546C287.525 392.53 288.443 397.56 292.697 396.607C292.162 389.905 293.313 383.176 296.045 377.032H296.037ZM272.531 380.028C280.127 384.879 280.127 384.879 280.567 390.362C276.866 388.11 273.73 386.097 272.54 380.028H272.531Z" fill="#F9D8AC"/>
<path d="M308.234 35.61C292.807 35.9183 282.724 46.0523 271.827 56.4435C269.852 46.5604 268.085 37.7656 266.342 28.9667C266.013 27.3043 265.879 25.5953 265.445 23.9648C265.086 22.617 264.142 21.4136 262.609 21.9005C262.17 22.1128 261.786 22.4248 261.489 22.8116C261.191 23.1984 260.988 23.6492 260.896 24.1283C260.543 27.8422 260.434 31.5795 260.273 35.3082C259.835 43.4578 257.88 51.4543 254.507 58.8862C253.979 60.5602 253.081 62.094 251.881 63.3751C250.681 64.6562 249.209 65.6517 247.573 66.2883C249.95 46.8346 238.287 32.5639 233.489 15.9609C228.2 33.0273 232.822 51.4008 224.854 69.3048C216.263 53.5437 210.9 37.6957 199.49 25.4614C196.159 27.9529 198.298 29.7554 198.706 31.471C201.057 41.3604 203.444 51.2416 205.968 61.0907C206.583 62.848 206.75 64.7308 206.453 66.5688C206.156 68.4068 205.404 70.1416 204.267 71.6156C185.902 44.8469 169.926 32.9379 152.992 34.898C159.818 39.6025 164.312 44.9851 169.546 49.5939C179.737 58.7265 186.823 70.8143 189.811 84.1689C193 97.0069 196.274 109.817 200.526 122.358C207.214 142.094 212.494 145.757 233.164 145.498C245.955 145.338 258.036 143.042 269.136 136.237C274.772 132.985 278.905 127.647 280.643 121.375C282.64 114.882 283.778 108.156 284.027 101.367C284.491 78.0655 291.68 57.4574 307.441 40.0403C307.989 39.2329 308.373 38.3257 308.57 37.3702C308.674 37.0896 308.466 36.7112 308.234 35.61Z" fill="#F8B06C"/>
<path d="M184.167 612.535C184.12 603.915 187.768 596.023 189.096 587.675C189.468 585.337 190.121 583.058 190.438 580.724C190.61 580.066 190.57 579.371 190.324 578.737C190.079 578.103 189.639 577.562 189.069 577.193C187.581 576.342 186.416 577.314 185.47 578.207C178.915 584.123 172.759 590.467 167.041 597.195L154.243 612.886C152.077 616.311 150.021 619.812 147.725 623.149C135.047 641.576 123.112 660.384 116.333 681.967C115.907 683.313 115.946 685.452 112.468 685.96C112.468 672.965 113.159 660.148 112.274 647.439C111.352 634.646 111.273 621.806 112.038 609.002C113.546 589.093 113.314 569.138 113.074 549.212C112.859 544.834 113.514 540.456 115.002 536.333C116.49 532.209 118.781 528.422 121.743 525.19C127.183 519.157 126.441 517.303 118.305 515.745C114.308 515.033 110.246 514.748 106.188 514.895C101.299 515.014 100.525 516.546 102.512 521.463C103.498 523.989 104.707 526.42 106.126 528.73C110.628 535.62 112.337 543.966 110.905 552.071C108.178 567.89 109.728 583.802 109.086 599.659C108.962 602.701 108.854 605.745 108.739 608.787C109.457 622.38 109.142 636.008 107.797 649.553C101.947 634.072 93.2119 620.428 84.6468 606.693C77.9248 599.612 71.1264 592.605 64.5064 585.435C58.3623 579.134 51.4038 573.682 43.8155 569.225C36.7811 564.816 36.2943 565.162 35.7883 573.995C42.9971 599.282 52.9588 623.041 70.9244 642.992C79.6106 652.637 88.3947 661.68 99.8721 668.115C108.331 672.854 111.471 680.885 110.299 690.569C108.733 703.549 109.681 716.538 108.973 729.795C113.242 729.115 112.982 726.761 112.757 724.959C111.866 717.835 115.825 713.6 121.073 709.882C128.257 704.793 135.586 699.859 142.391 694.295C159.005 680.709 168.218 662.407 174.551 642.373C177.704 632.407 179.855 622.123 184.167 612.535ZM68.2905 610.673C60.4801 604.376 60.4801 604.376 59.9848 598.555C62.2631 599.724 64.2171 601.439 65.6728 603.545C67.1286 605.652 68.041 608.086 68.3287 610.63C68.8747 610.589 69.4233 610.665 69.9368 610.855C70.4504 611.045 70.9169 611.344 71.3043 611.731C71.6917 612.118 71.9909 612.584 72.1814 613.098C72.372 613.611 72.4493 614.159 72.4082 614.705C81.3647 622.478 88.3525 632.262 92.7994 643.256C97.5614 646.317 98.8496 651.121 99.4682 656.272C97.3632 654.832 95.6487 652.892 94.4785 650.625C93.3082 648.359 92.7189 645.838 92.7633 643.288C91.7412 643.306 90.7307 643.069 89.8239 642.597C88.9171 642.125 88.1429 641.434 87.572 640.586C83.3203 634.474 79.1621 628.298 74.7764 622.286C73.0594 620.162 72.1994 617.472 72.3657 614.746C71.8199 614.788 71.2714 614.712 70.7579 614.522C70.2443 614.333 69.7779 614.034 69.3907 613.647C69.0035 613.26 68.7047 612.794 68.5147 612.281C68.3248 611.767 68.2483 611.219 68.2905 610.673ZM166.592 623.904C168.308 625.739 166.966 627.235 166.28 628.619C160.285 640.726 154.424 652.905 148.099 664.839C143.369 673.768 138.031 682.372 132.921 691.096C132.041 692.599 130.618 694.053 128.882 693.058C127.145 692.063 127.489 690.052 128.58 688.623C130.827 685.681 132.989 682.724 134.985 679.572C144.936 663.855 153.055 647.174 161.454 630.628C162.71 628.145 163.038 624.712 166.592 623.904Z" fill="#B0C084"/>
<path d="M29.7989 331.053C40.5557 340.349 51.1552 349.837 62.1289 358.869C67.824 363.559 70.1858 369.952 73.804 376.404C74.6841 368.595 76.1425 360.796 76.2722 352.975C76.387 345.747 79.327 342.013 85.9831 339.53C93.8827 336.586 102.337 334.832 109.41 329.837C122.773 320.396 135.464 310.472 142.856 295.104C146.993 287.328 151.519 279.764 156.417 272.443C157.32 270.965 158.453 269.414 157.422 267.809C156.213 265.929 154.425 266.935 152.941 267.698C140.573 274.05 127.563 279.246 115.934 286.928C104.771 294.305 97.6646 305.814 88.6191 315.355C85.4938 319.043 82.5632 322.891 79.8393 326.884C78.114 319.235 77.9311 311.319 79.3015 303.599C79.9337 299.931 80.2424 296.214 80.2241 292.492C79.4439 274.158 83.4235 256.018 82.3861 237.674C82.3158 235.458 82.7151 233.251 83.5577 231.199C84.4004 229.148 85.6674 227.297 87.2756 225.77C88.904 224.041 90.6429 222.398 92.1332 220.557C96.0979 215.668 95.3581 213.312 89.2377 211.021C83.2134 209.032 76.8121 208.458 70.5302 209.343C69.647 210.485 69.2068 211.907 69.2913 213.348C69.3757 214.789 69.9789 216.151 70.9894 217.181C79.9541 228.714 79.6204 242.166 78.1004 255.213C76.1659 271.822 76.3997 288.399 76.5592 304.975C76.6825 317.913 74.4163 330.621 74.259 343.489C74.3178 343.866 74.2954 344.251 74.1932 344.619C74.0911 344.987 73.9114 345.329 73.6665 345.621C73.4215 345.914 73.1168 346.151 72.7728 346.316C72.4288 346.481 72.0534 346.571 71.6718 346.58C62.6093 319.694 51.1637 293.893 31.5336 272.6C21.423 265.372 12.5901 256.444 2.29671 249.89C-0.947342 251.333 0.0815582 253.453 0.449341 255.366C3.2628 270.347 6.94316 285.152 11.4719 299.707C14.2583 308.465 18.7735 316.575 24.75 323.557C26.6887 325.868 29.108 327.881 29.7989 331.053ZM49.9158 331.384C48.258 330.261 46.7432 328.941 45.4048 327.451C38.0727 316.998 30.8937 306.439 23.6977 295.893C22.8837 294.84 22.2665 293.649 21.8758 292.377C21.8071 291.908 21.8532 291.429 22.0102 290.982C22.1672 290.535 22.4304 290.132 22.7772 289.809C23.2236 289.671 23.6952 289.635 24.1574 289.703C24.6197 289.771 25.0611 289.94 25.4494 290.2C26.2548 290.807 26.8951 291.607 27.3116 292.526C32.7857 302.991 40.2602 312.164 46.4571 322.166C48.2364 325.039 50.5196 327.592 49.9924 331.308C57.0396 334.941 60.2687 341.431 64.006 349.065C57.7475 345.764 54.0038 340.815 49.9158 331.384ZM130.296 291.818C120.621 305.557 108.144 317.089 93.6872 325.655C104.853 313.303 117.105 301.978 130.296 291.818Z" fill="#B0C084"/>
<path d="M47.5056 182.303C48.1254 183.104 48.6982 183.941 49.2212 184.809C53.728 193.312 59.995 198.506 70.1864 200.051C84.9738 202.294 98.7897 202.348 111.802 193.602C119.582 188.692 125.241 181.047 127.665 172.173C132.735 151.454 128.377 131.357 123.783 111.236C122.72 106.608 120.495 104.939 115.845 106.716C112.102 108.149 108.53 108.011 105.96 104.275L104.808 105.204C105.274 107.364 105.096 109.613 104.297 111.673C103.498 113.733 102.112 115.514 100.312 116.795C94.8755 121.431 90.8729 127.52 88.7727 134.35C88.1562 136.218 87.8713 138.406 84.5848 138.389C80.1651 133.055 79.5848 125.513 75.6286 119.681C72.7404 115.436 71.6413 110.224 72.5694 105.175C72.1166 104.82 71.6787 104.452 71.2514 104.069C69.774 104.953 68.2306 105.866 66.5937 104.588C64.9929 103.338 63.5984 101.824 62.0018 100.568C55.6689 95.57 54.3658 96.0719 52.2505 104.327C50.9899 109.25 49.742 114.178 48.6174 119.131C45.9352 129.298 44.367 139.728 43.9406 150.234C43.8853 158.421 44.1043 166.522 47.0167 174.278C47.7662 176.884 47.9331 179.624 47.5056 182.303ZM107.535 132.396C98.4113 136.797 98.1116 146.763 93.3348 154.832C92.697 140.63 100.775 125.993 111.234 121.304C117.319 118.572 120.344 119.815 120.931 126.474C121.359 133.56 121.322 140.666 120.82 147.747C120.758 149.167 120.51 151.722 116.993 151.64V133.702C113.9 141.214 114.287 149.376 111.188 156.831C107.623 155.005 110.437 151.414 107.495 149.09C107.03 149.94 106.506 150.755 105.926 151.531C105.276 152.298 104.408 152.685 103.137 151.624C102.587 144.971 107.412 139.384 107.535 132.396ZM55.7773 160.976C51.313 148.291 49.3998 135.57 55.89 122.843C56.8396 121.444 58.0157 120.213 59.37 119.201C59.7591 118.74 60.2542 118.381 60.8128 118.154C61.3714 117.927 61.9767 117.839 62.5768 117.898C63.1769 117.956 63.7538 118.16 64.258 118.49C64.7622 118.821 65.1785 119.269 65.4712 119.796C69.5103 125.324 73.2604 131.031 73.9619 138.051C71.6851 138.806 70.5605 135.946 68.7833 137.692C67.7778 140.517 70.3777 142.747 70.146 145.468C70.0354 146.78 70.2374 148.193 68.6111 148.797C66.0452 149.752 67.1825 145.136 64.6825 146.021C63.4538 148.072 65.3628 150.94 62.6545 152.449C59.3339 150.453 60.3968 147.122 60.1587 144.235C59.8887 140.976 60.2905 137.502 56.3322 135.094C55.4776 144.016 55.975 152.49 55.7773 160.976ZM75.7051 143.249C77.3845 143.427 77.8735 144.698 78.1264 146.055C78.3135 147.058 78.3199 148.313 77.2336 148.727C75.552 149.365 74.8356 148.144 74.64 146.729C74.4657 145.466 74.2893 144.082 75.7051 143.249Z" fill="#F8B06C"/>
<path d="M237.529 174.252C240.373 176.616 239.676 179.903 239.33 182.792C237.421 201.319 237.384 219.992 239.219 238.527C240.446 253.693 239.468 269.037 239.468 284.393C236.117 284.422 236.094 281.476 235.186 279.592C219.842 247.822 194.631 226.699 162.96 212.513C162.082 212.006 161.132 211.636 160.142 211.416C159.179 211.254 158.192 211.477 157.393 212.037C157.161 212.285 156.992 212.585 156.897 212.91C156.802 213.236 156.785 213.58 156.847 213.913C156.909 214.247 157.048 214.561 157.254 214.832C157.459 215.102 157.725 215.319 158.031 215.468C165.392 220.096 169.244 228.113 175.701 233.617C177.176 234.873 178.998 236.142 178.96 238.663C175.584 241.061 171.434 241.095 167.631 242.235C165.494 242.873 162.514 243.44 162.506 246.395C162.506 249.737 165.599 249.203 167.793 249.767C180.48 252.891 192.706 257.654 204.162 263.938C201.84 267.211 198.943 265.913 196.611 266.187C191.909 266.726 187.292 267.848 182.867 269.527C182.454 269.779 182.096 270.11 181.813 270.502C181.53 270.894 181.329 271.339 181.219 271.81C180.907 272.943 181.889 273.691 182.846 274.001C185.057 274.873 187.355 275.502 189.702 275.879C200.643 276.903 210.703 280.981 220.952 284.473C230.248 287.643 237.108 292.919 238.936 303.209C239.215 304.769 239.419 306.631 241.205 307.55C244.272 307.203 243.603 304.724 243.615 302.919C243.688 291.038 244.1 279.131 243.477 267.282C242.944 257.109 247.848 251.419 256.511 247.836C264.97 244.339 273.305 240.396 282.871 241.212C283.418 241.277 283.969 241.144 284.425 240.837C284.881 240.53 285.213 240.069 285.359 239.539C285.669 237.037 283.564 236.406 281.702 235.757C277.54 234.31 273.356 232.902 269.128 231.669C265.994 230.755 261.422 231.148 260.99 227.205C260.588 223.529 264.94 222.224 267.606 220.234C275.401 214.42 284.538 211.746 293.673 209.146C299.535 207.854 305.238 205.924 310.68 203.389C300.733 196.827 289.351 197.039 278.518 193.761C280.493 185.553 286.494 181.125 292.123 176.414C294.623 173.459 297.127 170.502 300.463 166.565C290.624 166.431 285.635 173.672 278.66 176.508C265.016 187.549 255.114 201.514 246.93 216.858C245.939 218.719 245.703 221.593 241.906 221.631C241.906 207.711 241.838 193.931 241.987 180.151C242.289 178.155 242.865 176.21 243.698 174.371C243.741 168.381 248.656 164.962 251.162 160.272C252.083 158.553 254.223 157.084 253.097 154.915C251.728 152.275 249.162 153.013 246.774 153.334C240.106 154.233 233.282 152.921 226.02 154.609C227.852 162.547 236.003 166.559 237.529 174.252Z" fill="#B0C084"/>
<path d="M184.273 34.1708C182.679 24.8765 181.085 15.5803 179.159 4.33667C173.984 11.4902 181.576 17.2447 176.795 22.6338C172.296 22.7634 170.657 17.3298 166.661 15.8906C165.298 15.3995 163.81 15.559 163.259 16.996C163.154 17.4655 163.169 17.954 163.303 18.416C163.438 18.878 163.686 19.2985 164.027 19.6386C171.119 23.6118 175.438 30.9863 182.256 35.2656C182.925 34.9 183.597 34.535 184.273 34.1708Z" fill="#EADEC2"/>
<path d="M101.32 96.5413C100.084 93.0073 97.5856 90.0549 94.305 88.2507C90.4615 85.8187 86.6519 85.8801 83.5843 89.8087C84.0091 90.1606 84.4064 90.5444 84.7727 90.9568C91.8645 88.512 95.0533 95.7039 100.504 97.3195C100.768 97.0602 101.042 96.8028 101.32 96.5413Z" fill="#F8B06C"/>
<path d="M105.961 104.275C105.359 101.238 103.718 98.5061 101.32 96.5479C101.044 96.803 100.77 97.0601 100.497 97.3152C100.88 100.519 101.688 103.48 104.807 105.206L105.961 104.275Z" fill="#F8B06C"/>
<path d="M75.3672 97.9465C74.31 98.6469 73.4021 99.5499 72.696 100.603C71.9899 101.657 71.4997 102.84 71.2537 104.084C71.6789 104.46 72.1147 104.828 72.5632 105.181C73.7146 104.602 74.6957 103.733 75.4104 102.661C76.1252 101.588 76.5491 100.348 76.6406 99.0627C76.1984 98.7126 75.774 98.3405 75.3672 97.9465Z" fill="#F8B06C"/>
<path d="M78.3486 94.6792C76.9781 95.3547 75.9147 96.5246 75.3724 97.9531C75.7742 98.34 76.1994 98.712 76.6479 99.0607C77.8998 98.2093 78.7724 96.9052 79.082 95.4232C78.8333 95.1766 78.5973 94.9279 78.3486 94.6792Z" fill="#F8B06C"/>
<path d="M81.6189 91.7539C80.8994 91.9867 80.2364 92.3671 79.6723 92.8708C79.1082 93.3745 78.6554 93.9903 78.343 94.679C78.5832 94.9278 78.8277 95.1765 79.0658 95.4189C79.8059 95.2682 80.5086 94.9718 81.133 94.5469C81.7575 94.1221 82.2912 93.5775 82.7031 92.9445C82.3187 92.5693 81.9566 92.1717 81.6189 91.7539Z" fill="#F8B06C"/>
<path d="M83.5773 89.8086C82.9267 90.4612 82.2784 91.1161 81.6257 91.7624C81.9642 92.1755 82.3247 92.5701 82.7057 92.9444C83.3916 92.2783 84.0783 91.6157 84.7656 90.9566C84.3993 90.5443 84.002 90.1604 83.5773 89.8086Z" fill="#F8B06C"/>
<path d="M67.531 399.225C69.1041 416.268 75.4689 431.963 79.1424 448.262L76.9379 449.325C72.8732 442.335 68.9936 435.231 64.6908 428.39C60.7255 421.526 56.1385 415.041 50.9876 409.017C47.6138 411.206 49.323 413.224 49.8779 414.927C52.2535 422.716 53.6224 430.778 53.951 438.915C55.0352 457.01 61.5552 473.445 71.0195 488.447C78.2368 499.88 90.5901 505.777 103.369 507.95C117.884 510.416 132.729 511.383 147.244 505.186C158.415 500.42 166.06 493.322 169.164 481.629C170.6 477.103 171.502 472.424 171.853 467.688C172.246 450.722 172.148 433.745 172.172 416.772C171.792 415.118 171.238 413.508 170.52 411.97C163.811 435.837 158.654 458.343 144.395 477.246C151.496 450.19 154.787 423.051 149.27 395.258C144.41 395.532 144.806 399.495 144.368 402.023C140.495 424.839 132.62 446.411 123.664 467.962C125.139 439.553 125.635 411.245 117.535 383.513C108.009 411.661 106.056 440.734 106.402 470.377C96.6573 444.774 86.2725 419.793 67.531 399.225ZM131.532 496.525C131.972 495.662 132.272 495.531 132.253 496.119C132.253 496.228 131.721 496.332 131.434 496.421C131.281 497.442 131.009 497.697 130.784 497.099C130.762 497.018 131.279 496.721 131.532 496.525ZM127.512 502.673C127.639 502.017 127.189 500.671 128.707 501.668L127.387 502.554C127.1 503.16 127.295 504.746 125.975 503.247L127.512 502.673ZM103.133 496.296C103.949 496.325 104.747 496.539 105.469 496.922C106.19 497.305 106.814 497.847 107.295 498.507C108.026 499.523 109.017 500.813 107.431 501.742C106.925 502.04 105.618 501.368 104.91 500.835C104.278 500.318 103.766 499.67 103.409 498.936C103.053 498.202 102.86 497.399 102.844 496.583L102.072 495.497C102.437 495.757 102.795 496.021 103.143 496.287L103.133 496.296ZM78.7342 453.868L79.4464 452.238C79.6781 452.467 80.0841 452.682 80.1075 452.924C80.1003 453.5 80.0384 454.073 79.9226 454.637L78.7342 453.868Z" fill="#E26267"/>
<path d="M112.038 609.002C111.272 621.806 111.351 634.646 112.274 647.44C113.158 660.148 112.467 672.965 112.467 685.96C115.945 685.452 115.909 683.313 116.332 681.968C123.111 660.384 135.039 641.576 147.724 623.15C150.02 619.812 152.076 616.311 154.242 612.886C153.103 612.248 151.959 611.083 150.82 611.085C137.85 611.104 124.954 609.886 112.038 609.002Z" fill="#FBF4F0"/>
<path d="M84.6468 606.691C93.2119 620.426 101.947 634.07 107.797 649.55C109.142 636.005 109.457 622.378 108.739 608.785C100.648 608.768 92.8377 605.622 84.6468 606.691Z" fill="#FBF4F0"/>
<path d="M166.589 623.904C163.034 624.712 162.707 628.155 161.446 630.628C153.047 647.173 144.928 663.855 134.977 679.571C132.981 682.724 130.819 685.681 128.572 688.623C127.481 690.052 127.126 692.059 128.874 693.058C130.621 694.057 132.037 692.599 132.913 691.096C138.015 682.38 143.361 673.766 148.091 664.839C154.416 652.905 160.277 640.726 166.272 628.619C166.963 627.235 168.304 625.738 166.589 623.904Z" fill="#90A58F"/>
<path d="M92.7969 643.26C88.3499 632.267 81.3621 622.483 72.4057 614.71L72.3632 614.75C72.1968 617.477 73.0568 620.167 74.7739 622.291C79.1595 628.303 83.3219 634.478 87.5694 640.59C88.1403 641.438 88.9145 642.13 89.8213 642.602C90.7281 643.074 91.7386 643.311 92.7607 643.292L92.7969 643.26Z" fill="#88A08A"/>
<path d="M68.332 610.633C68.0439 608.089 67.1314 605.655 65.6757 603.549C64.2199 601.443 62.2661 599.729 59.988 598.56C60.4834 604.376 60.4834 604.376 68.2938 610.677L68.332 610.633Z" fill="#88A08A"/>
<path d="M92.7599 643.292C92.7155 645.842 93.3048 648.363 94.4751 650.629C95.6453 652.896 97.3598 654.836 99.4648 656.276C98.8462 651.13 97.5516 646.321 92.7961 643.26L92.7599 643.292Z" fill="#88A08A"/>
<path d="M68.2895 610.673C68.2467 611.219 68.3227 611.768 68.5124 612.282C68.702 612.796 69.0007 613.263 69.388 613.65C69.7753 614.038 70.2419 614.337 70.7558 614.527C71.2697 614.716 71.8186 614.793 72.3648 614.75L72.4073 614.71C72.4483 614.164 72.3709 613.615 72.1804 613.102C71.9899 612.588 71.6907 612.122 71.3034 611.735C70.916 611.348 70.4496 611.049 69.936 610.858C69.4225 610.668 68.8739 610.591 68.3278 610.632L68.2895 610.673Z" fill="#88A08A"/>
<path d="M130.297 291.818C117.105 301.978 104.853 313.303 93.6875 325.655C108.144 317.089 120.622 305.557 130.297 291.818Z" fill="#88A08A"/>
<path d="M49.9931 331.306C50.5204 327.592 48.2372 325.039 46.4578 322.165C40.261 312.163 32.7865 302.99 27.3124 292.524C26.8959 291.605 26.2556 290.806 25.4502 290.198C25.0619 289.939 24.6205 289.768 24.1582 289.701C23.696 289.633 23.2244 289.67 22.778 289.807C22.4311 290.13 22.1679 290.533 22.0109 290.98C21.8539 291.427 21.8079 291.906 21.8766 292.375C22.2673 293.647 22.8845 294.838 23.6985 295.891C30.8945 306.438 38.0735 316.997 45.4056 327.449C46.744 328.939 48.2588 330.259 49.9166 331.382L49.9931 331.306Z" fill="#88A08A"/>
<path d="M49.9176 331.384C54.0057 340.815 57.7493 345.763 64.0078 349.063C60.2706 341.429 57.0414 334.939 49.9942 331.306L49.9176 331.384Z" fill="#88A08A"/>
<path d="M84.7581 90.9569C84.0721 91.6174 83.3855 92.28 82.6981 92.9447C82.2869 93.5779 81.7536 94.1228 81.1295 94.5477C80.5054 94.9725 79.8028 95.2687 79.0629 95.4191C78.7579 96.903 77.8862 98.2095 76.6331 99.0607C76.5436 100.347 76.1207 101.588 75.4062 102.661C74.6916 103.734 73.71 104.603 72.5578 105.181C71.6332 110.232 72.7336 115.444 75.6212 119.69C79.5774 125.515 80.1577 133.057 84.5774 138.398C87.864 138.412 88.1488 136.225 88.7653 134.358C90.8655 127.529 94.8681 121.439 100.304 116.803C102.105 115.522 103.491 113.742 104.29 111.682C105.089 109.622 105.267 107.373 104.801 105.213C101.68 103.5 100.872 100.536 100.489 97.3238C95.043 95.7039 91.8542 88.5122 84.7581 90.9569Z" fill="#F38160"/>
<path d="M107.537 132.396C107.413 139.384 102.588 144.97 103.149 151.624C104.424 152.687 105.287 152.298 105.938 151.531C106.517 150.755 107.042 149.939 107.507 149.09C110.449 151.414 107.634 155.005 111.2 156.831C114.299 149.375 113.912 141.214 117.005 133.701V151.639C120.511 151.722 120.759 149.167 120.832 147.747C121.334 140.666 121.371 133.559 120.942 126.473C120.356 119.82 117.328 118.572 111.246 121.303C100.798 125.993 92.7194 140.629 93.3466 154.832C98.1127 146.763 98.4125 136.797 107.537 132.396ZM110.373 143.221C110.46 143.461 110.668 143.731 110.615 143.933C110.39 144.783 109.977 144.817 109.611 144.037C109.583 143.911 109.582 143.78 109.61 143.653C109.637 143.527 109.691 143.407 109.769 143.304C109.847 143.189 110.164 143.242 110.373 143.221Z" fill="#F38160"/>
<path d="M55.7703 160.976C55.9681 152.489 55.4706 144.016 56.3273 135.085C60.2835 137.502 59.8817 140.976 60.1539 144.226C60.3919 147.113 59.329 150.444 62.6496 152.44C65.358 150.931 63.4489 148.063 64.6777 146.012C67.1777 145.127 66.0403 149.743 68.6062 148.788C70.2325 148.184 70.0306 146.771 70.1411 145.459C70.3728 142.738 67.7729 140.508 68.7784 137.683C70.562 135.937 71.6802 138.797 73.957 138.042C73.2555 131.027 69.5097 125.306 65.4664 119.787C65.1736 119.26 64.7573 118.812 64.2531 118.481C63.749 118.15 63.1721 117.947 62.572 117.889C61.9719 117.83 61.3665 117.918 60.8079 118.145C60.2494 118.372 59.7543 118.731 59.3652 119.192C58.0109 120.204 56.8348 121.435 55.8851 122.834C49.3843 135.57 51.3039 148.291 55.7703 160.976Z" fill="#F38160"/>
<path d="M75.7042 143.248C74.2905 144.082 74.467 145.465 74.6413 146.728C74.8369 148.144 75.5533 149.367 77.2348 148.727C78.3211 148.312 78.3148 147.058 78.1277 146.054C77.8747 144.698 77.3858 143.427 75.7042 143.248Z" fill="#F38160"/>
<path d="M102.853 496.572C102.869 497.388 103.062 498.191 103.419 498.925C103.776 499.659 104.288 500.307 104.92 500.824C105.628 501.357 106.935 502.029 107.441 501.732C109.027 500.803 108.036 499.512 107.305 498.496C106.824 497.836 106.2 497.294 105.478 496.911C104.757 496.528 103.959 496.314 103.143 496.285L102.853 496.572Z" fill="#F8B06C"/>
<path d="M78.7421 453.861L79.9283 454.629C80.0441 454.065 80.1061 453.491 80.1133 452.915C80.0963 452.673 79.6881 452.458 79.4521 452.229L78.7421 453.861Z" fill="#F9D8AC"/>
<path d="M127.523 502.673L125.986 503.247C127.307 504.746 127.111 503.16 127.398 502.554L127.523 502.673Z" fill="#F9D8AC"/>
<path d="M127.399 502.554L128.719 501.668C127.201 500.671 127.656 502.016 127.524 502.673L127.399 502.554Z" fill="#F9D8AC"/>
<path d="M131.527 496.525C131.266 496.721 130.749 497.018 130.781 497.099C131.015 497.688 131.279 497.441 131.432 496.421L131.527 496.525Z" fill="#F9D8AC"/>
<path d="M103.141 496.287C102.786 496.022 102.432 495.755 102.078 495.486L102.849 496.572L103.141 496.287Z" fill="#F8B06C"/>
<path d="M131.442 496.415C131.729 496.315 132.259 496.221 132.261 496.113C132.28 495.524 131.98 495.656 131.54 496.519L131.442 496.415Z" fill="#F9D8AC"/>
<path d="M110.366 143.221C110.154 143.242 109.843 143.189 109.763 143.304C109.685 143.407 109.63 143.526 109.603 143.653C109.576 143.78 109.577 143.911 109.605 144.037C109.977 144.817 110.383 144.777 110.609 143.933C110.662 143.735 110.453 143.461 110.366 143.221Z" fill="#F8B06C"/>
</svg>
