<svg width="339" height="501" viewBox="0 0 339 501" fill="none" xmlns="http://www.w3.org/2000/svg">
<path d="M82.3541 489.636C82.1644 489.407 81.9556 488.972 81.7658 488.976C71.0397 489.255 60.3121 488.906 49.5917 489.963C31.847 491.712 14.0508 492.566 -3.48701 488.255C-13.3536 485.828 -21.8424 480.271 -29.6446 474.129C-44.399 462.513 -55.907 448.58 -60.0548 429.399C-63.8686 411.766 -69.426 394.528 -72.6099 376.734C-72.6316 375.984 -72.8119 375.247 -73.1389 374.572C-73.466 373.897 -73.9323 373.298 -74.5073 372.816C-74.4132 372.529 -74.2859 372.254 -74.1279 371.996C-61.66 356.409 -50.6492 339.74 -38.0181 324.253C-28.9465 313.138 -23.7874 299.651 -16.8713 287.227C-12.5338 279.448 -10.733 272.797 -19.1102 266.777C-19.5238 266.479 -19.5963 265.699 -19.8259 265.147C-16.752 264.688 -14.6401 268.372 -11.3708 267.183C-9.73527 264.515 -11.5167 262.538 -12.6248 260.491C-17.8997 250.749 -17.3687 248.408 -7.69181 242.422C2.69222 236.063 14.8073 233.118 26.9514 233.999C30.7918 234.204 34.839 235.187 38.4934 232.946C39.4653 232.505 40.2823 231.782 40.8388 230.871C41.3953 229.961 41.6656 228.904 41.6147 227.838C41.5061 226.773 41.0259 225.781 40.2584 225.035C39.4908 224.289 38.4853 223.837 37.4178 223.758C30.6745 222.044 23.6593 221.676 16.7736 222.675C3.57515 225.047 -7.48692 231.836 -18.2055 239.183C-25.117 244.1 -33.267 246.985 -41.7333 247.51C-44.7656 247.603 -47.7318 248.42 -50.3838 249.894C-50.7723 250.111 -51.1133 250.404 -51.3876 250.755C-51.6619 251.106 -51.8641 251.507 -51.9815 251.937C-52.1466 253.265 -51.0326 253.876 -49.8751 254.453C-46.659 256.056 -42.68 255.487 -39.8187 258.045C-43.7521 258.045 -47.7179 258.348 -51.6114 257.954C-55.0745 257.553 -58.5829 258.015 -61.8244 259.298C-65.0659 260.582 -67.94 262.646 -70.1909 265.308C-73.24 268.534 -75.3652 272.79 -79.678 274.765C-79.7634 239.638 -80.5714 204.492 -79.5525 169.397C-79.173 156.474 -78.9531 143.454 -78.0215 130.533C-76.3024 106.703 -72.7768 83.2353 -61.8003 61.4833C-56.9459 52.3817 -50.3162 44.346 -42.3026 37.851C-35.8229 32.2991 -27.4571 31.0868 -19.3191 30.8306C-4.25536 30.4397 10.7749 29.2075 25.7011 27.14C26.0016 27.0995 26.3052 27.0856 26.6081 27.0983C48.6922 27.7871 70.721 23.3548 92.733 25.4932C108.755 27.0491 124.815 25.8006 140.696 27.3526C154.737 28.7264 168.819 30.1474 182.843 31.9746C194.456 33.4925 206.157 34.6045 217.815 35.9726C226.314 36.9706 234.049 40.625 242.421 41.8242C240.922 45.0062 236.252 45.4123 235.104 50.2185C243.643 49.3912 250.919 45.6647 258.809 45.5356L262.252 48.6947C257.243 49.8331 252.274 51.2127 247.213 52.0286C239.813 53.2202 235.639 57.4912 232.96 64.3181C227.435 78.4235 226.541 93.1192 226.473 107.972C226.429 117.347 227.059 126.757 226.42 136.09C224.951 157.531 222.084 178.761 215.181 199.274C212.827 206.27 213.807 207.554 220.989 207.076C230.418 206.547 239.481 203.247 247.043 197.589C255.74 190.952 262.791 182.403 267.652 172.602C273.885 160.504 279.667 148.148 286.437 136.361C292.905 125.098 296.004 112.949 298.459 100.447C300.389 89.4151 300.542 78.1457 298.913 67.0655C309.128 76.1162 319.289 85.1878 325.061 98.0181C329.19 107.748 331.956 118.002 333.279 128.489C337.922 159.453 337.227 190.628 336.751 221.749C335.969 272.945 340.384 324.081 338.549 375.251C337.428 406.558 331.719 436.962 316.35 464.947C306.293 483.25 291.812 492.333 270.394 493.219C244.667 494.285 218.928 495.592 193.26 494.378C174.815 493.503 156.31 493.999 137.983 492.414C127.23 491.479 116.195 492.291 105.628 489.234C109.364 483.404 114.263 478.29 116.812 471.742C118.55 467.271 121.32 465.416 126.299 465.048C133.16 464.545 140.309 463.604 145.857 458.908C148.65 456.545 153.826 453.76 151.582 449.927C149.694 446.702 145.11 450.052 141.861 451.225C124.94 457.34 108.742 456.965 93.5529 446.21C92.0729 445.161 90.517 442.825 87.8606 445.227C90.6831 452.215 95.4605 458.241 101.621 462.583C105.526 465.31 105.996 468.032 104.192 472.531C100.135 482.658 92.1771 487.187 82.3541 489.636ZM158.363 125.206C161.985 121.981 166.548 121.88 171.003 121.412C172.548 121.25 174.256 120.918 174.641 119.269C175.176 116.974 173.134 116.3 171.535 115.52C170.725 115.127 169.839 114.896 169.01 114.537C161.103 111.122 159.213 107.551 162.209 99.7372C166.713 87.9732 173.362 77.6703 184.041 70.4127C187.087 68.464 189.997 66.3084 192.748 63.9614C193.84 63.0955 194.558 61.8444 194.755 60.4653C194.953 59.0862 194.615 57.6839 193.81 56.5463C191.856 53.6243 189.27 54.4895 186.601 55.757C176.043 60.5184 167.362 68.645 161.915 78.8656C158.177 85.777 155.146 93.0481 152.868 100.568C150.262 108.966 145.489 116.528 139.03 122.495C137.453 123.903 136 125.443 134.685 127.098C132.101 130.671 132.873 132.071 137.484 132.494C138.389 132.51 139.295 132.451 140.191 132.32C140.257 133.236 140.019 134.148 139.512 134.915C139.006 135.681 138.26 136.258 137.391 136.557C130.071 139.541 128.132 146.256 127.686 152.814C126.708 167.005 127.412 181.262 129.782 195.288C135.313 228.05 156.312 251.584 176.766 275.511C177.594 276.62 178.753 277.436 180.076 277.841C181.4 278.247 182.817 278.22 184.124 277.765C187.35 276.698 187.596 273.945 187.68 271.124C187.571 265.374 187.796 259.623 188.354 253.899C190.137 239.772 190.301 225.488 188.839 211.325C187.858 202.622 187.58 193.855 188.008 185.108C189.468 167.024 184.673 149.839 181.758 132.384C180.81 126.719 178.32 125.316 172.005 125.174C167.454 125.064 162.909 125.186 158.363 125.206ZM275.472 301.602C277.441 301.107 280.069 302.608 281.371 300.481C283.001 297.824 280.546 296.058 279.066 294.25C278.039 292.747 276.779 291.417 275.335 290.309C268.719 286.184 269.087 280.472 270.256 273.71C272.514 262.445 273.525 250.966 273.271 239.48C273.117 236.312 272.43 233.141 269.167 232.035C265.789 230.897 262.588 232.534 259.993 234.631C257.397 236.727 258.304 239.697 259.29 242.19C260.95 246.079 262.274 250.103 263.247 254.218C265.023 262.703 262.548 270.761 258.52 277.676C255.338 283.138 248.509 279.074 243.362 279.749C242.468 279.867 241.523 279.658 240.647 279.833C235.561 280.846 230.211 281.322 226.008 285.747C231.33 288.922 236.453 288.92 241.542 288.827C251.469 288.637 260.535 292.075 269.603 295.413C272.434 296.454 275.115 298.096 275.498 301.663C263.489 297.533 251.264 294.057 238.878 291.25C227.304 288.921 220.283 292.141 215.978 302.412C205.446 327.551 195.317 352.859 188.466 379.32C187.056 384.276 186.154 389.362 185.773 394.5C185.229 405.705 183.23 416.792 179.829 427.483C178.817 430.655 177.69 433.81 176.982 437.053C175.478 443.941 178.652 446.882 185.521 444.922C188.153 444.193 190.669 443.095 192.993 441.66C203.313 435.112 212.58 427.39 219.259 416.948C220.06 415.696 221.192 414.571 220.49 412.876L220.456 412.914C224.275 413.136 225.332 409.736 227.038 407.537C237.244 394.365 247.477 381.205 257.281 367.735C268.481 352.559 276.084 335.035 279.515 316.489C280.54 310.89 280.498 305.568 275.472 301.602ZM0.139214 405.418C3.08401 405.45 4.97167 407.73 7.40417 408.854C14.2349 412.011 20.8758 414.736 26.7578 406.987C27.9664 405.399 30.2418 404.638 31.9817 403.429C46.8528 393.308 58.7688 379.418 66.511 363.181C74.914 345.071 82.2763 326.497 88.5624 307.549C94.3856 290.282 93.8357 272.915 82.639 257.252C77.8367 250.533 76.0511 250.58 71.7136 257.502C55.2403 283.675 34.431 306.853 10.178 326.041C-1.68464 335.515 -12.0215 346.556 -18.7498 360.557C-20.0534 362.935 -20.7433 365.601 -20.7565 368.312C-20.7698 371.024 -20.1061 373.697 -18.8257 376.087C-14.2738 384.633 -9.16847 392.873 -3.54213 400.754C-7.80373 401.103 -10.1317 398.319 -12.2871 395.314C-16.9659 389.004 -20.9854 382.232 -24.2827 375.103C-25.0283 373.421 -25.1403 370.738 -28.512 370.909C-29.7187 380.767 -28.4955 390.771 -24.9488 400.048C-22.8616 405.503 -22.5733 409.417 -27.8917 413.341C-32.7321 416.914 -35.5744 422.57 -39.2763 427.325C-41.4963 430.171 -41.1527 432.118 -38.0561 433.818C-36.4737 434.687 -35.0392 435.839 -33.4321 436.664C-28.846 439 -28.1191 438.837 -26.2065 433.763C-24.4873 428.929 -22.2399 424.3 -19.5048 419.959C-15.5202 413.848 -15.4634 413.722 -9.00833 417.269C-2.68855 420.938 4.68066 422.376 11.9161 421.352C13.6428 421.098 15.6219 420.51 15.842 418.273C16.0204 416.453 14.4321 415.732 13.1191 415.087C10.8557 414.257 8.65678 413.259 6.5407 412.104C4.01713 410.345 0.0765991 409.713 0.139214 405.418ZM46.2198 92.6448C35.7403 93.3886 26.8112 98.5628 17.7339 103.331C10.1265 107.142 3.60468 112.813 -1.22549 119.818C-4.5251 124.69 -5.19659 128.736 -1.17406 133.538C0.747261 136.248 2.28309 139.212 3.38929 142.344C6.12975 149.403 9.59818 156.156 13.738 162.496C28.3999 183.271 44.7477 202.804 62.6156 220.895C73.2411 231.521 86.481 237.196 101.173 239.515C108.563 240.68 111.229 237.629 110.091 230.375C109.076 224.384 106.736 218.695 103.243 213.723C97.4465 204.843 93.0269 195.137 90.1337 184.935C85.4528 169.621 81.0259 154.226 76.269 138.938C72.034 125.36 67.3952 111.949 59.6328 99.819C56.4053 94.7699 52.7848 91.3375 46.2198 92.6448ZM158.382 381.02C159.342 362.141 157.393 343.163 154.574 324.348C152.351 310.453 145.406 297.749 134.911 288.375C129.977 283.782 126.998 284.39 123.606 290.565C120.565 295.833 118.856 301.764 118.627 307.843C118.2 317.526 116.112 327.064 112.453 336.04C104.142 358.102 95.3761 380.002 88.2456 402.488C85.4641 410.814 83.9297 419.506 83.692 428.281C83.5474 430.084 83.8858 431.893 84.6722 433.521C85.4585 435.149 86.6643 436.539 88.1659 437.547C92.7147 441.083 97.9703 443.602 103.577 444.931C109.197 446.081 114.866 447.001 120.464 448.225C128.222 449.751 136.248 449.161 143.7 446.518C151.458 444.03 151.971 443.254 152.654 435.099C152.669 432.979 152.93 430.868 153.433 428.809C158.613 413.311 158.98 397.335 158.382 381.017V381.02ZM44.1973 88.5331C44.0929 85.6263 41.9866 85.4004 40.4307 84.7135C34.8853 82.2106 28.8038 81.1288 22.7355 81.5658C17.8022 81.932 16.0278 79.5052 14.6237 75.1145C13.4747 71.6696 13.1241 68.0086 13.5981 64.4082C14.0721 60.8078 15.3586 57.3622 17.3601 54.3321C18.2235 53.0939 19.0043 51.8002 19.6976 50.4594C19.967 50.0035 20.1279 49.4915 20.1673 48.9634C20.2067 48.4352 20.1238 47.9052 19.925 47.4143C19.7262 46.9234 19.4166 46.4851 19.0208 46.1332C18.625 45.7814 18.1534 45.5257 17.6426 45.3858C10.2294 41.8376 6.05895 43.4352 4.71368 51.7421C2.8799 61.8835 3.01917 72.2833 5.12365 82.3721C6.29436 87.5425 5.78744 91.4682 1.10461 95.0733C-4.61922 99.1791 -8.70499 105.178 -10.4296 112.008C-11.1544 115.266 -12.6361 120.396 -9.08987 121.852C-5.50185 123.326 -4.27808 118.114 -2.7222 115.543C3.24139 105.691 10.7815 97.8476 21.5779 93.2463C28.8412 90.1422 36.562 89.5008 44.1973 88.5331Z" fill="#FFE9D1"/>
<path d="M298.919 67.0596C300.549 78.1397 300.396 89.4092 298.466 100.441C296.01 112.943 292.912 125.092 286.444 136.355C279.674 148.146 273.892 160.502 267.659 172.596C262.798 182.397 255.746 190.946 247.05 197.583C239.488 203.241 230.425 206.541 220.996 207.07C213.814 207.548 212.837 206.264 215.188 199.268C222.091 178.755 224.958 157.525 226.426 136.084C227.066 126.754 226.436 117.341 226.479 107.966C226.548 93.113 227.441 78.4176 232.967 64.3121C235.642 57.4814 239.824 53.214 247.22 52.0224C252.281 51.2066 257.25 49.8215 262.259 48.6906C271.828 47.9127 281.347 47.6908 290.552 51.1573C290.741 51.2313 291.087 50.9257 291.358 50.7967L291.248 50.7664C291.352 51.3166 291.286 52.2235 291.582 52.362C297.925 55.3409 299.173 60.8171 298.919 67.0596ZM273.203 83.4779L271.375 85.2843C267.823 85.1192 267.612 82.903 268.327 80.2144C269.086 77.3474 269.927 74.507 266.697 71.4976C264.978 76.7877 266.602 82.3015 262.828 86.3354C258.362 83.3906 255.808 78.8994 251.12 77.0551C250.186 76.5415 249.107 76.355 248.056 76.5252C247.004 76.6954 246.039 77.2125 245.315 77.9943C244.769 78.5265 244.399 79.2128 244.254 79.9612C244.109 80.7096 244.196 81.4844 244.503 82.182C244.64 82.7027 244.885 83.189 245.22 83.6101C245.556 84.0312 245.975 84.378 246.452 84.6279C246.929 84.8778 247.454 85.0254 247.991 85.0617C248.528 85.098 249.067 85.022 249.573 84.8384C257.459 82.1099 259.629 88.7072 262.506 93.1433C265.528 97.8224 264.46 102.758 260.574 107.346C258.569 106.017 257.117 104.976 255.59 104.059C254.032 103.126 252.387 102.352 250.81 101.439C247.628 99.6194 244.972 100.896 242.496 102.879C241.851 103.297 241.391 103.946 241.209 104.692C241.027 105.438 241.137 106.226 241.517 106.894C241.784 107.611 242.254 108.235 242.869 108.69C243.485 109.145 244.219 109.412 244.983 109.457C246.164 109.246 247.312 108.881 248.398 108.372C254.728 106.315 258.242 108.446 258.768 115.066C259.278 121.506 257.227 127.433 254.474 133.486C251.93 130.731 249.757 128.259 247.453 125.916C246.972 125.322 246.377 124.83 245.705 124.467C245.032 124.103 244.294 123.876 243.534 123.799C242.774 123.721 242.005 123.794 241.273 124.014C240.541 124.234 239.86 124.597 239.268 125.081C237.94 125.982 236.873 127.079 237.276 128.794C238.082 132.219 240.845 132.262 243.668 132.547C250.619 133.251 253.024 135.905 251.241 142.459C249.694 148.132 247.926 153.99 244.323 158.642C241.964 158.62 241.763 156.665 240.577 155.899C239.345 155.041 238.041 154.29 236.68 153.656C236.275 153.441 235.831 153.313 235.374 153.279C234.917 153.246 234.457 153.308 234.026 153.461C233.594 153.614 233.199 153.856 232.865 154.17C232.532 154.484 232.267 154.864 232.088 155.286C231.088 157.259 231.929 158.574 233.861 159.62C241.318 163.659 241.409 163.849 238.604 171.738C237.593 174.584 236.061 177.23 234.963 180.043C234.426 181.417 232.293 183.068 235.695 184.724C238.097 180.652 240.395 176.495 242.942 172.497C247.22 165.782 250.342 157.318 261.436 161.221C263.673 162.008 266.111 159.602 265.688 156.635C265.251 153.569 263.012 152.882 260.244 153.753C257.369 154.658 254.514 155.618 251.651 156.551L251.104 156.005C251.956 149.038 255.489 142.677 260.955 138.274C263.724 135.849 266.5 133.543 270.344 137.033C270.732 137.404 271.196 137.69 271.703 137.869C272.21 138.048 272.749 138.118 273.285 138.073C273.821 138.028 274.341 137.87 274.811 137.609C275.281 137.348 275.69 136.989 276.012 136.558C276.558 135.824 276.891 134.953 276.973 134.041C277.056 133.129 276.886 132.212 276.48 131.391C275.038 128.022 272.05 128.779 269.488 129.435C266.475 130.21 264.392 133.486 260.417 133.255C259.81 127.183 261.935 122.335 264.718 117.631C265.902 115.639 268.217 113.867 267.151 111.18C264.286 103.961 267.684 97.6762 269.971 91.2573C270.68 89.265 271.788 87.4434 271.329 85.2197C271.805 85.1976 272.255 84.9971 272.59 84.6582C272.925 84.3193 273.121 83.8668 273.137 83.3906C273.611 83.3532 274.055 83.1474 274.389 82.8104C274.724 82.4734 274.927 82.0275 274.961 81.5538C277.047 81.7571 279.013 82.629 280.564 84.0396C281.308 84.7961 282.304 85.2535 283.363 85.3255C284.422 85.3975 285.471 85.079 286.311 84.4303C288.018 83.0604 287.601 81.22 286.501 79.6432C285.042 77.556 283.218 76.1463 280.446 77.3113C278.23 78.241 276 79.1423 275.057 81.6469L273.203 83.4779ZM273.183 107.105C276.067 107.031 276.977 109.587 278.638 111.163C279.121 111.739 279.801 112.115 280.546 112.218C281.291 112.321 282.048 112.144 282.67 111.721C283.387 111.171 283.879 110.377 284.053 109.49C284.228 108.603 284.073 107.683 283.618 106.901C281.839 102.737 278.052 102.83 273.156 107.074L270.879 107.643L271.465 108.607L273.183 107.105Z" fill="#E26267"/>
<path d="M82.3488 489.636C92.1718 487.186 100.129 482.657 104.194 472.531C105.998 468.032 105.522 465.309 101.623 462.583C95.4627 458.241 90.6852 452.215 87.8628 445.227C90.5191 442.825 92.0788 445.16 93.555 446.21C108.734 456.964 124.942 457.34 141.863 451.224C145.112 450.052 149.696 446.695 151.584 449.927C153.825 453.76 148.653 456.545 145.86 458.907C140.312 463.603 133.162 464.544 126.301 465.047C121.318 465.415 118.548 467.271 116.814 471.741C114.265 478.289 109.366 483.403 105.63 489.234C102.424 492.347 99.811 496.055 95.9972 498.561C91.0639 501.804 90.0371 501.778 86.2062 497.423C84.2481 495.205 82.1212 492.981 82.3488 489.636Z" fill="#88A08A"/>
<path d="M258.814 45.5313C250.924 45.6679 243.634 49.3869 235.109 50.2142C236.257 45.408 240.927 45.002 242.426 41.8201C248.987 37.5585 255.284 32.7618 263.107 30.9194C266.859 30.0352 267.741 27.4869 267.546 24.1626C267.47 17.8233 268.277 11.5044 269.944 5.3876C271.228 -0.437483 272.124 -0.826347 278.141 0.896511C279.591 1.31205 281.036 1.75036 282.446 2.27974C285.757 3.52065 286.453 5.6059 284.412 8.56587C281.362 13.4281 279.007 18.6933 277.416 24.2082C275.594 29.5988 276.304 30.9839 281.835 32.7295C288.483 34.8907 294.278 39.0962 298.394 44.7459C299.669 46.4042 301.204 48.3074 300.149 50.497C298.666 53.5784 296.559 50.939 294.753 50.6563C293.607 50.3062 292.378 50.3436 291.256 50.7626L291.364 50.793C290.605 47.8482 287.909 47.757 285.715 47.1214C276.937 44.8447 267.799 44.3046 258.814 45.5313Z" fill="#88A08A"/>
<path d="M-3.54716 400.763C-9.1735 392.882 -14.2788 384.643 -18.8308 376.096C-20.1111 373.706 -20.7748 371.033 -20.7615 368.322C-20.7483 365.61 -20.0585 362.944 -18.7548 360.566C-12.0303 346.565 -1.68966 335.52 10.173 326.05C34.4259 306.862 55.2353 283.684 71.7086 257.511C76.0461 250.59 77.8316 250.542 82.634 257.261C93.8288 272.924 94.3806 290.276 88.5574 307.558C82.2712 326.506 74.909 345.081 66.5059 363.19C58.7646 379.425 46.8505 393.312 31.9822 403.432C30.2423 404.641 27.9674 405.402 26.7588 406.99C20.8768 414.737 14.2354 412.014 7.40471 408.857C4.97221 407.734 3.08455 405.453 0.139751 405.421L0.207848 405.506C0.225151 405.251 0.187687 404.996 0.0975971 404.757C0.00750923 404.518 -0.133018 404.301 -0.31422 404.121C-0.495422 403.941 -0.712988 403.802 -0.952562 403.714C-1.19213 403.626 -1.44789 403.59 -1.70254 403.609L-1.61731 403.708C-1.71253 403.125 -1.93705 402.572 -2.27464 402.088C-2.61223 401.605 -3.05443 401.203 -3.568 400.913L-3.54716 400.763ZM51.6772 332.949C54.4209 337.184 54.0284 341.406 55.7171 344.922C56.6317 346.819 58.2066 348.673 60.6372 348.223C61.6921 348.021 62.6679 347.524 63.4523 346.79C64.2366 346.056 64.7973 345.115 65.0694 344.075C65.8056 341.489 64.0447 340.269 61.9708 339.315C59.897 338.36 56.935 338.493 56.5973 335.264C56.0035 330.877 56.3781 326.413 57.6942 322.186C59.0104 317.959 61.2363 314.071 64.2157 310.796C66.3028 315.087 65.1891 319.673 68.8796 322.181C70.1812 323.067 71.4962 323.91 73.0274 323.13C73.8283 322.682 74.4226 321.94 74.6835 321.06C74.9444 320.181 74.851 319.234 74.4236 318.422C74.1245 317.257 73.4143 316.24 72.4238 315.557C65.2762 312.142 66.9309 306.07 68.2496 300.624C69.802 295.414 71.6552 290.297 73.7996 285.301C74.4011 283.669 75.3836 281.886 72.1162 280.834C70.0848 286.126 67.4762 291.178 64.3371 295.898C62.0753 299.029 60.1039 300.966 56.3907 297.775C54.4306 296.09 51.5692 295.338 50.1291 298.053C48.4518 301.228 51.2903 302.937 53.6488 304.357C54.433 304.809 55.3407 305 56.2406 304.901C61.8437 304.093 60.7205 307.484 59.3392 310.271C57.8725 313.231 56.1308 316.039 54.7476 319.084C51.4556 326.325 45.9681 327.226 40.0254 321.864C39.1531 321.046 38.2113 320.305 37.2113 319.65C36.6104 319.179 35.8655 318.93 35.1021 318.945C34.3388 318.96 33.6039 319.238 33.0217 319.732C32.409 320.187 31.9461 320.814 31.6913 321.533C31.4365 322.253 31.4015 323.032 31.5913 323.771C31.9694 325.053 32.6318 326.232 33.529 327.222C34.4261 328.213 35.5349 328.988 36.773 329.49C40.2662 331.329 43.8279 328.651 47.5563 330.418C45.6742 335.638 42.6472 340.371 38.6973 344.269C33.3845 349.696 27.9616 348.28 25.4001 341.094C24.6259 338.926 23.7644 337.089 21.3338 336.86C19.6754 336.702 18.6773 337.962 17.8804 339.341C17.3673 340.276 17.1531 341.345 17.2661 342.405C17.3791 343.465 17.8138 344.465 18.5122 345.271C20.3356 348.056 23.3773 348.561 26.2747 349.47C32.3009 351.367 32.2742 351.445 32.2477 357.64C34.4961 358.466 35.5493 354.946 37.7389 356.006C38.6512 359.535 39.745 363.013 41.0158 366.429C42.1031 368.992 44.6987 369.317 47.2621 368.861C48.0252 368.801 48.7435 368.477 49.2939 367.945C49.8443 367.413 50.1927 366.706 50.2792 365.945C50.4462 363.226 48.3928 362.3 46.1443 362.179C42.4197 361.98 42.0671 359.648 41.8015 356.634C40.9856 347.349 46.0343 340.639 51.6772 332.949ZM28.6011 362.414C26.78 361.819 24.8131 361.844 23.0075 362.484C16.8086 364.108 11.0235 364.82 8.09956 357.082C7.72827 356.232 7.03533 355.563 6.17249 355.222C5.30966 354.88 4.34705 354.894 3.49452 355.261C2.61223 355.491 1.82665 355.998 1.25338 356.707C0.680098 357.417 0.348867 358.291 0.308371 359.202C0.214544 360.101 0.384403 361.009 0.797087 361.813C1.20977 362.618 1.84766 363.286 2.6329 363.735C5.61185 365.645 8.94958 365.492 12.2511 365.613C14.695 365.702 18.4896 365.928 18.5257 367.991C18.6015 372.544 23.8935 375.201 22.1213 380.221C21.8341 381.247 21.7596 382.321 21.9022 383.376C22.0448 384.432 22.4014 385.447 22.9505 386.36C23.4982 387.45 24.4168 388.31 25.5414 388.785C26.666 389.26 27.9228 389.318 29.0865 388.949C29.8409 388.854 30.5456 388.521 31.0979 387.998C31.6502 387.475 32.0217 386.791 32.1587 386.043C32.4946 383.362 30.576 382.354 28.3542 381.931C24.3885 381.172 23.6409 378.992 24.8762 375.36C26.2803 371.203 27.3241 366.918 28.6011 362.421V362.414ZM12.5809 377.905C12.2716 377.168 11.7272 376.956 11.1523 377.508C10.7893 377.953 10.4877 378.445 10.255 378.971C10.7806 379.119 11.4367 379.54 11.7934 379.35C12.1976 379.145 12.3324 378.409 12.5809 377.905Z" fill="#E26267"/>
<path d="M46.2171 92.6442C52.7822 91.3369 56.4025 94.7694 59.6339 99.8184C67.3962 111.949 72.0355 125.359 76.2706 138.937C81.0369 154.225 85.4539 169.621 90.1348 184.935C93.0279 195.137 97.4476 204.843 103.244 213.722C106.737 218.694 109.077 224.383 110.092 230.374C111.23 237.628 108.561 240.679 101.174 239.514C86.4825 237.195 73.2498 231.524 62.6166 220.895C44.7487 202.803 28.4009 183.271 13.7391 162.496C9.59921 156.156 6.1308 149.402 3.39034 142.343C2.28413 139.211 0.748311 136.247 -1.17302 133.537C-5.19555 128.741 -4.52359 124.69 -1.22397 119.817C3.60618 112.812 10.1275 107.141 17.7349 103.33C26.8084 98.5622 35.7376 93.388 46.2171 92.6442ZM29.1213 122.714C28.4762 127.306 34.1114 130.374 32.3468 135.213C29.347 135.042 27.5485 133.276 25.4803 132.095C23.6132 131.045 21.4318 130.698 19.3308 131.116C17.0103 131.511 15.1564 132.835 15.3006 135.264C15.3004 135.811 15.4492 136.349 15.731 136.818C16.0128 137.288 16.4168 137.672 16.9002 137.929C17.3836 138.186 17.9279 138.307 18.4747 138.278C19.0215 138.25 19.5504 138.073 20.0043 137.767C25.5828 134.331 29.0151 138.742 33.1723 140.687C35.543 141.682 37.585 143.326 39.0638 145.429C40.5425 147.533 41.3981 150.01 41.5324 152.578C39.5368 151.615 37.2798 151.337 35.1101 151.786C32.9403 152.235 30.979 153.386 29.5294 155.062C29.2349 155.302 28.9935 155.601 28.8211 155.939C28.6488 156.278 28.5491 156.649 28.5284 157.028C28.5077 157.408 28.5662 157.787 28.7007 158.142C28.8352 158.498 29.0427 158.821 29.3094 159.092C30.3226 160.23 31.552 161.405 33.1913 160.799C34.2994 160.353 35.2531 159.593 35.9351 158.612C38.3903 155.007 40.9367 156.024 43.5248 158.299C48.2896 162.596 51.9261 167.998 54.1144 174.03C51.8166 174.12 49.5308 174.41 47.2835 174.897C45.7912 175.26 44.4705 176.129 43.5456 177.355C42.6208 178.581 42.1486 180.089 42.2096 181.624C42.1371 182.226 42.254 182.836 42.5436 183.369C42.8333 183.902 43.2815 184.332 43.8263 184.599C44.1653 184.775 44.5421 184.864 44.9237 184.859C45.3054 184.855 45.6805 184.757 46.0151 184.573C46.3498 184.389 46.634 184.126 46.8429 183.807C47.0519 183.487 47.1789 183.122 47.2131 182.741C47.7975 180.358 48.0236 177.916 51.4295 177.901C52.7923 177.826 54.1554 178.045 55.4263 178.543C56.6971 179.041 57.8457 179.806 58.7949 180.787C63.0325 185.126 66.4663 190.182 68.9366 195.722C64.7623 195.287 61.0513 194.936 58.3266 197.763C56.488 199.672 55.5788 202.085 57.6299 204.214C59.5861 206.239 61.8043 205.011 62.9428 203.101C66.1684 197.67 70.0204 199.685 73.7052 202.085C76.9423 204.351 79.7273 207.202 81.917 210.491C83.858 213.195 85.8863 215.842 87.9488 218.46C88.7229 219.439 89.9527 220.232 91.1025 219.528C92.907 218.424 92.089 216.916 91.0112 215.789C87.1538 211.928 83.7442 207.644 80.8469 203.019C78.9645 200.234 78.0329 196.916 78.1907 193.558C78.481 190.189 81.8109 190.87 83.549 189.437C85.3913 187.919 86.3838 185.995 85.1675 183.882C83.4902 180.967 81.1542 182.515 78.8355 183.312C74.7845 184.707 75.4525 189.532 72.2877 192.058C68.8667 188.589 66.2327 184.424 64.565 179.846C62.6107 174.33 64.3756 171.038 69.9654 168.799C71.0928 168.43 72.1716 167.928 73.1794 167.302C73.6704 166.942 74.0356 166.437 74.2226 165.858C74.4096 165.279 74.4091 164.655 74.2212 164.076C74.0306 163.337 73.575 162.693 72.9408 162.267C72.3067 161.84 71.5382 161.662 70.7812 161.765C67.6903 161.779 66.1039 164.162 64.0888 165.976C62.106 167.763 62.937 171.507 59.2276 172.36C55.2886 167.862 51.6476 163.118 50.3269 156.991C49.0671 151.155 51.0861 147.4 56.7632 145.252C58.2305 144.908 59.5768 144.173 60.6585 143.123C61.0902 142.693 61.3806 142.141 61.4914 141.542C61.6023 140.942 61.528 140.323 61.2788 139.767C60.9986 139.232 60.5721 138.789 60.0489 138.488C59.5257 138.187 58.9276 138.042 58.3247 138.068C55.5849 137.947 53.9605 139.787 52.1465 141.412C49.2017 144.051 48.4389 147.984 46.5585 151.538C41.7789 144.282 38.8477 137.556 38.3638 132.983C37.713 126.847 38.5419 125.361 44.5416 123.324C47.1145 122.451 49.3306 121.307 48.4369 118.371C47.4882 115.235 44.5646 115.948 42.2782 116.592C40.9676 116.992 39.7786 117.715 38.8201 118.694C37.8617 119.673 37.1644 120.878 36.7925 122.196C36.1512 123.991 37.4814 126.485 35.1856 127.667C32.2825 126.885 32.5877 122.623 29.1287 122.714H29.1213Z" fill="#B1CC6C"/>
<path d="M158.379 381.016C158.977 397.334 158.611 413.307 153.446 428.795C152.943 430.855 152.681 432.965 152.666 435.085C151.983 443.244 151.471 444.016 143.712 446.504C136.261 449.148 128.234 449.738 120.476 448.211C114.871 446.988 109.202 446.067 103.589 444.918C97.9828 443.588 92.7272 441.07 88.1784 437.533C86.6768 436.525 85.4706 435.136 84.6842 433.507C83.8979 431.879 83.5599 430.07 83.7045 428.268C83.9422 419.492 85.4766 410.8 88.2581 402.474C95.3962 379.988 104.155 358.088 112.466 336.026C116.124 327.051 118.213 317.512 118.64 307.829C118.869 301.75 120.578 295.819 123.618 290.551C127.011 284.383 129.994 283.768 134.923 288.361C145.419 297.735 152.363 310.439 154.586 324.335C157.394 343.163 159.339 362.141 158.379 381.016ZM127.072 368.359C128.609 372.313 127.757 376.265 127.561 380.123C127.336 384.591 124.801 387.93 121.537 390.911C118.38 393.793 115.403 392.319 112.272 391.209C111.69 391.039 111.082 390.971 110.477 391.006C108.579 391.027 106.619 391.323 106.303 393.56C106.21 394.481 106.462 395.404 107.009 396.15C107.557 396.896 108.36 397.414 109.266 397.603C111.915 398.361 114.748 398.127 117.235 396.943C119.841 395.871 122.478 394.879 125.685 393.623C125.64 401.473 123.016 409.092 118.217 415.305C116.082 417.997 113.78 419.479 110.581 416.872C108.786 415.405 106.934 414.616 105.001 416.648C104.441 417.168 104.072 417.86 103.952 418.614C103.832 419.369 103.968 420.141 104.339 420.809C105.46 422.856 107.515 423.276 109.718 423.589C113.932 424.202 116.051 420.46 119.273 419.225C121.55 421.008 119.307 424.099 121.685 426.055C125.43 422.892 122.323 416.883 126.561 414.035C128.556 415.268 128.91 417.428 129.565 419.412C129.928 420.572 130.517 421.648 131.299 422.578C132.081 423.509 133.039 424.275 134.119 424.832C136.124 425.883 138.462 426.234 139.741 424.012C140.027 423.548 140.193 423.02 140.223 422.476C140.254 421.932 140.148 421.389 139.916 420.896C139.684 420.403 139.332 419.976 138.893 419.653C138.454 419.331 137.941 419.123 137.401 419.048C128.939 416.946 129.292 409.265 127.747 403.3C126.444 398.264 128.546 397.211 134.009 399.315C136.289 400.144 138.746 400.369 141.139 399.968C141.747 399.927 142.323 399.681 142.774 399.271C143.224 398.86 143.522 398.309 143.619 397.708C143.749 396.959 143.642 396.189 143.314 395.503C142.987 394.817 142.454 394.25 141.79 393.881C141.3 393.515 140.725 393.282 140.118 393.202C139.512 393.123 138.896 393.201 138.329 393.429C133.379 395.717 132.688 391.911 131.722 388.788C130.438 384.644 131.239 380.364 131.364 376.15C131.481 372.233 133.037 370.36 137.068 372.789C140.117 374.628 143.261 375.482 146.245 372.721C147.803 371.283 149.564 369.626 147.573 367.359C145.919 365.475 144.173 366.497 142.925 367.905C139.407 371.871 136.927 369.537 135.216 366.397C131.573 359.712 132.719 352.798 134.182 345.525C140.504 348.593 142.391 349.253 144.298 348.94C146.877 348.51 149.209 347.386 148.981 344.424C148.746 341.364 146.651 340.945 143.722 341.301C136.946 342.127 136.489 341.491 134.561 334.865C132.832 328.926 133.208 322.887 133.043 316.84C132.996 315.051 134.013 312.461 130.85 311.941C128.709 314.028 129.626 316.561 129.561 318.864C129.442 323.098 129.535 327.338 129.438 331.577C129.427 334.95 128.151 338.196 125.863 340.673C123.602 343.095 121.412 340.303 119.16 340.212C117.19 340.134 115.418 340.605 114.934 342.751C114.382 345.199 115.661 346.705 117.902 347.658C119.622 348.248 121.498 348.202 123.188 347.529C125.208 346.984 126.51 344.785 129.421 345.191C129.591 348.711 129.569 352.237 129.354 355.754C128.559 363.004 124.381 365.81 117.103 364.292C115.277 363.913 113.524 363.416 112.063 364.985C111.655 365.434 111.381 365.987 111.269 366.583C111.158 367.18 111.215 367.795 111.433 368.36C112.276 370.939 114.521 370.694 116.63 371.002C120.488 371.575 123.338 368.399 127.079 368.362L127.072 368.359Z" fill="#B1CC6C"/>
<path d="M220.487 412.878C221.189 414.572 220.056 415.697 219.255 416.95C212.576 427.386 203.317 435.114 192.989 441.662C190.665 443.096 188.149 444.195 185.517 444.923C178.652 446.884 175.478 443.943 176.979 437.055C177.687 433.812 178.814 430.657 179.825 427.484C183.227 416.794 185.225 405.707 185.77 394.501C186.15 389.364 187.052 384.278 188.462 379.322C195.308 352.861 205.436 327.553 215.975 302.414C220.278 292.143 227.308 288.923 238.874 291.251C251.26 294.058 263.485 297.534 275.495 301.662L275.47 301.604C280.496 305.569 280.536 310.892 279.511 316.493C276.08 335.039 268.477 352.562 257.278 367.738C247.474 381.21 237.241 394.369 227.034 407.54C225.327 409.74 224.272 413.14 220.452 412.918C220.452 410.1 220.306 406.817 217.003 406.368C213.622 405.907 213.398 403.028 212.036 401.435C208.512 401.763 208.757 406.848 205.015 406.451C203.883 403.9 202.596 401.42 201.161 399.027C199.598 396.727 196.765 394.283 194.418 395.917C191.615 397.867 192.843 401.347 194.706 404.007C195.219 404.76 195.841 405.432 196.552 406C199.691 408.68 202.042 412.163 203.356 416.075C208.601 411.711 208.594 411.766 214.151 412.531C216.238 412.81 218.373 412.768 220.487 412.878ZM225.304 365.748C222.559 362.414 220.602 359.76 218.346 357.399C216.735 355.707 214.521 353.339 212.254 355.726C210.087 358.003 211.149 360.883 213.368 362.936C214.444 363.996 215.76 364.782 217.204 365.228C222.849 366.647 223.064 370.82 222.234 375.218C221.037 380.073 218.864 384.635 215.849 388.625C213.753 385.485 211.23 382.651 208.354 380.204C207.504 379.328 206.404 378.735 205.204 378.504C204.005 378.274 202.764 378.419 201.649 378.918C201.139 379.253 200.744 379.735 200.517 380.301C200.29 380.867 200.242 381.489 200.38 382.083C200.417 383.17 200.86 384.203 201.622 384.979C202.384 385.755 203.409 386.217 204.495 386.274C211.753 386.542 213.69 391.365 213.923 399.066C218.741 393.281 223.139 391.735 228.581 394.501C228.918 394.684 229.292 394.786 229.675 394.8C230.058 394.815 230.44 394.741 230.789 394.584C231.139 394.427 231.448 394.191 231.692 393.896C231.936 393.6 232.108 393.252 232.196 392.879C232.539 391.551 231.499 390.716 230.789 389.75C228.069 386.041 224.002 389.299 220.923 388.263C220.797 385.972 221.497 383.713 222.894 381.895C227.739 373 229.382 372.336 239.402 374.941C240.279 375.168 241.11 375.576 241.988 375.779C242.496 375.953 243.035 376.019 243.57 375.976C244.105 375.932 244.625 375.779 245.099 375.526C245.572 375.272 245.989 374.925 246.322 374.504C246.656 374.083 246.899 373.598 247.037 373.08C247.927 370.222 246.235 368.366 243.609 367.691C240.929 367.181 238.165 367.338 235.56 368.148C229.321 369.628 228.704 368.852 230.645 362.545C231.368 360.239 232.209 357.972 233.165 355.752C233.994 353.442 235.602 351.492 237.712 350.239C239.822 348.985 242.303 348.505 244.728 348.882C246.838 348.993 248.931 349.323 250.973 349.866C254.075 350.794 256.462 350.8 256.754 346.793C257.01 343.292 255.105 341.838 251.788 341.933C247.541 342.08 243.4 343.298 239.749 345.472C238.704 346.073 237.266 346.895 236.922 345.248C235.725 339.518 228.676 339.746 226.644 334.812C226.175 333.674 224.242 333.114 222.934 332.376C221.876 331.778 220.616 331.291 219.578 332.162C219.021 332.689 218.656 333.387 218.539 334.144C218.423 334.902 218.562 335.677 218.935 336.347C220.263 339.658 223.456 341.059 226.071 343.079C228.951 345.303 232.181 347.633 230.678 352.011C229.247 356.21 228.644 360.78 225.304 365.748ZM237.533 336.875C238.945 336.911 239.531 335.863 240.074 334.848C243.278 328.864 247.513 325.551 254.744 328.372C256.034 328.827 257.405 329.006 258.768 328.897C260.131 328.788 261.456 328.394 262.657 327.741C264.382 326.879 265.759 325.773 265.387 323.619C265.246 322.723 264.809 321.899 264.145 321.28C263.481 320.661 262.63 320.282 261.725 320.204C257.631 319.475 254.135 321.567 250.369 322.498C248.164 323.045 245.561 327.454 243.349 321.777C242.836 320.464 237.805 322.098 236.465 318.29C235.556 316.389 234.403 314.615 233.036 313.011C232.845 312.599 232.569 312.233 232.225 311.936C231.882 311.639 231.479 311.419 231.044 311.291C230.608 311.162 230.151 311.128 229.701 311.19C229.252 311.253 228.82 311.41 228.437 311.652C227.946 311.864 227.507 312.178 227.149 312.574C226.79 312.97 226.521 313.438 226.359 313.947C226.197 314.456 226.146 314.993 226.21 315.524C226.274 316.054 226.451 316.564 226.729 317.02C227.647 318.563 228.84 319.925 230.249 321.037C238.539 327.801 238.565 327.769 237.533 336.875ZM245.475 316.233L245.051 315.58C244.872 315.77 244.573 315.937 244.536 316.149C244.417 316.87 244.711 317.185 245.208 316.923C245.373 316.836 245.39 316.47 245.475 316.233Z" fill="#E26267"/>
<path d="M158.366 125.208C162.919 125.185 167.462 125.063 172.008 125.164C178.323 125.303 180.814 126.705 181.761 132.374C184.675 149.831 189.47 167.014 188.011 185.098C187.582 193.845 187.86 202.612 188.842 211.315C190.303 225.478 190.14 239.762 188.356 253.889C187.798 259.613 187.573 265.364 187.682 271.114C187.599 273.935 187.35 276.688 184.127 277.755C182.82 278.21 181.402 278.237 180.079 277.831C178.756 277.426 177.596 276.61 176.769 275.501C156.314 251.574 135.316 228.04 129.785 195.278C127.415 181.252 126.711 166.995 127.688 152.804C128.134 146.246 130.073 139.531 137.393 136.547C138.262 136.249 139.008 135.672 139.514 134.906C140.021 134.14 140.259 133.228 140.194 132.312V132.52C141.947 132.507 143.393 132.023 143.9 130.101C146.381 127.581 150.076 129.228 152.791 127.515C154.715 126.792 157.155 127.356 158.494 125.185L158.366 125.208ZM156.637 203.583C153.373 203.137 150.448 201.004 146.941 201.708C144.74 202.148 142.448 202.835 142.678 205.455C142.689 205.997 142.843 206.527 143.122 206.991C143.402 207.455 143.797 207.839 144.271 208.103C144.744 208.367 145.278 208.503 145.82 208.497C146.362 208.492 146.893 208.344 147.36 208.07C152.21 206.093 155.819 207.607 157.986 211.971C159.84 215.698 163.284 219.276 161.166 224.46C159.077 223.524 156.941 222.696 154.766 221.98C153.753 221.626 152.656 221.587 151.619 221.867C150.583 222.147 149.656 222.733 148.958 223.549C148.531 223.986 148.268 224.557 148.214 225.165C148.16 225.773 148.318 226.382 148.662 226.887C148.921 227.355 149.273 227.766 149.695 228.095C150.117 228.424 150.601 228.664 151.118 228.801C151.636 228.939 152.176 228.97 152.705 228.893C153.235 228.816 153.743 228.634 154.201 228.355C159.096 225.949 161.697 228.972 163.714 232.53C166.251 236.998 168.314 241.734 170.634 246.328C171.346 247.738 170.928 250.261 174.258 249.682C175.068 245.049 172.293 241.157 171.114 236.983C168.892 229.11 169.338 227.632 176.694 223.395C179.066 222.031 180.95 220.528 178.795 217.8C176.859 215.348 174.64 216.265 172.422 217.817C170.482 219.172 170.029 222.073 167.37 222.652C164.464 216.635 164.335 214.028 166.348 208.254C166.828 206.339 167.912 204.629 169.441 203.379C170.969 202.129 172.861 201.406 174.833 201.317C175.456 201.309 176.065 201.136 176.599 200.816C177.133 200.496 177.573 200.04 177.873 199.495C178.174 198.95 178.325 198.335 178.311 197.712C178.297 197.09 178.118 196.482 177.793 195.951C176.435 193.521 174.188 195.056 172.167 195.741C167.921 197.19 166.578 201.769 163.324 204.406C158.96 197.306 162.616 190.433 162.295 183.698C165.766 182.903 169.024 181.369 171.847 179.199C172.261 178.873 172.6 178.462 172.841 177.994C173.082 177.525 173.219 177.01 173.243 176.484C173.267 175.958 173.178 175.432 172.981 174.944C172.784 174.455 172.484 174.015 172.101 173.653C170.661 172.059 168.833 172.624 167.344 173.789C164.236 176.224 161.58 178.966 161.98 183.385C161.411 183.216 160.54 183.229 160.299 182.85C155.263 174.898 158.971 162.276 167.591 158.428C169.824 157.428 172.438 157.075 172.311 153.91C172.251 153.302 172.017 152.724 171.636 152.246C171.256 151.768 170.746 151.41 170.167 151.214C167.401 150.1 165.716 151.885 163.783 153.419C160.957 155.659 160.128 159.435 157.538 162.238C155.478 157.944 158.163 153.382 154.946 149.565C152.669 155.602 151.808 167.89 153.168 172.317C154.671 177.203 156.343 182.089 153.197 186.988C152.015 182.293 149.167 179.698 144.159 179.88C142.615 179.935 141.073 180.205 140.594 181.982C140.346 182.866 140.451 183.812 140.888 184.619C141.325 185.427 142.059 186.032 142.936 186.307C146.057 187.743 149.497 186.925 152.757 187.46C154.326 192.745 157.855 197.547 156.716 203.499L156.637 203.583ZM139.906 156.293C139.317 156.261 138.732 156.407 138.227 156.711C137.722 157.016 137.321 157.465 137.075 158.001C136.825 158.544 136.739 159.149 136.827 159.74C136.916 160.332 137.175 160.885 137.574 161.331C138.713 162.696 140.175 163.756 141.826 164.416C143.477 165.077 145.265 165.317 147.032 165.114C147.327 165.121 147.62 165.055 147.884 164.922C148.148 164.789 148.376 164.594 148.548 164.353C148.719 164.113 148.829 163.834 148.868 163.54C148.907 163.247 148.873 162.949 148.77 162.672C148.114 159.944 142.744 156.124 139.906 156.293Z" fill="#A5C9BF"/>
<path d="M152.788 127.521C150.073 129.229 146.378 127.587 143.897 130.113C142.568 130.769 140.819 130.79 140.191 132.526V132.318C139.295 132.447 138.389 132.505 137.483 132.49C132.873 132.067 132.1 130.667 134.685 127.094C135.999 125.439 137.453 123.899 139.03 122.491C145.488 116.525 150.261 108.962 152.868 100.564C155.145 93.0441 158.176 85.7731 161.915 78.8617C167.361 68.6411 176.043 60.5144 186.6 55.753C189.27 54.4856 191.856 53.6201 193.81 56.5422C194.614 57.6797 194.953 59.0823 194.755 60.4614C194.557 61.8405 193.839 63.0915 192.748 63.9574C189.996 66.3045 187.087 68.46 184.04 70.4087C173.362 77.6664 166.713 87.9769 162.209 99.7333C159.213 107.553 161.103 111.118 169.009 114.533C169.838 114.892 170.716 115.123 171.534 115.516C173.134 116.296 175.176 116.969 174.641 119.265C174.261 120.914 172.554 121.246 171.003 121.407C166.548 121.876 161.985 121.977 158.362 125.202L158.494 125.176C156.222 125.054 153.892 124.785 152.788 127.521Z" fill="#88A08A"/>
<path d="M-39.8087 258.037C-42.6681 255.479 -46.6395 256.048 -49.8651 254.445C-51.0206 253.875 -52.1417 253.259 -51.971 251.929C-51.8535 251.499 -51.6518 251.097 -51.3776 250.746C-51.1033 250.396 -50.7618 250.103 -50.3733 249.885C-47.7213 248.412 -44.7555 247.595 -41.7232 247.502C-33.257 246.977 -25.1065 244.092 -18.1949 239.174C-7.47641 231.833 3.58567 225.044 16.7841 222.667C23.6698 221.668 30.6846 222.036 37.4278 223.75C38.4953 223.828 39.5009 224.28 40.2684 225.026C41.0359 225.772 41.5162 226.765 41.6248 227.83C41.6757 228.896 41.4058 229.952 40.8493 230.863C40.2928 231.774 39.4753 232.496 38.5035 232.937C34.8491 235.178 30.8018 234.195 26.9615 233.99C14.8174 233.109 2.70274 236.055 -7.6813 242.413C-17.3581 248.4 -17.8896 250.741 -12.6148 260.482C-11.5067 262.53 -9.72475 264.507 -11.3603 267.174C-14.6296 268.357 -16.7415 264.679 -19.8153 265.138L-19.8306 265.328C-21.4872 263.59 -23.4781 262.205 -25.6836 261.256C-27.8891 260.307 -30.2636 259.813 -32.6646 259.805L-32.547 259.885C-34.543 257.407 -37.3686 258.177 -39.9472 257.987L-39.8087 258.037Z" fill="#88A08A"/>
<path d="M-3.54421 400.763L-3.57062 400.916C-3.84195 402.491 -3.37124 403.548 -1.61992 403.711L-1.70562 403.613C-1.78531 404.967 -1.13625 405.586 0.205231 405.51L0.137135 405.425C0.0745201 409.72 4.01509 410.358 6.53676 412.115C8.65285 413.27 10.8517 414.267 13.1152 415.098C14.4282 415.743 16.0165 416.464 15.8381 418.283C15.618 420.52 13.6388 421.109 11.9122 421.363C4.67672 422.387 -2.69249 420.949 -9.01227 417.28C-15.4635 413.733 -15.5166 413.864 -19.5088 419.97C-22.2438 424.311 -24.4917 428.94 -26.2109 433.774C-28.1083 438.848 -28.8499 439.011 -33.436 436.675C-35.0431 435.855 -36.4719 434.704 -38.06 433.829C-41.1566 432.121 -41.5002 430.188 -39.2802 427.336C-35.5764 422.581 -32.7341 416.925 -27.8957 413.352C-22.5829 409.428 -22.8637 405.514 -24.9527 400.059C-28.4994 390.782 -29.7226 380.778 -28.516 370.92C-25.1442 370.743 -25.0323 373.432 -24.2866 375.113C-20.9893 382.243 -16.9698 389.015 -12.2911 395.325C-10.1337 398.328 -7.80582 401.112 -3.54421 400.763Z" fill="#88A08A"/>
<path d="M44.1919 88.5325C36.5567 89.5001 28.8358 90.1489 21.5725 93.2436C10.7761 97.8448 3.23601 105.689 -2.72758 115.54C-4.28347 118.111 -5.50722 123.32 -9.09525 121.849C-12.6415 120.394 -11.1597 115.263 -10.4349 112.005C-8.71038 105.176 -4.6246 99.1766 1.09922 95.0708C5.78206 91.4657 6.28898 87.54 5.11827 82.3695C3.0138 72.2808 2.87452 61.881 4.70831 51.7396C6.05358 43.4327 10.224 41.8349 17.6373 45.383C18.148 45.5229 18.6196 45.7789 19.0154 46.1307C19.4112 46.4826 19.7208 46.9209 19.9196 47.4118C20.1184 47.9026 20.2013 48.4327 20.1619 48.9609C20.1225 49.489 19.9616 50.001 19.6922 50.4569C18.9989 51.7977 18.2181 53.0914 17.3547 54.3295C15.3532 57.3597 14.0667 60.805 13.5927 64.4054C13.1187 68.0058 13.4693 71.6671 14.6183 75.112C16.0224 79.5045 17.7911 81.9311 22.7301 81.563C28.7985 81.1261 34.8799 82.208 40.4253 84.711C41.9812 85.3978 44.0875 85.6256 44.1919 88.5325Z" fill="#88A08A"/>
<path d="M275.472 301.601L275.496 301.66C275.117 298.095 272.434 296.454 269.603 295.412C260.535 292.075 251.469 288.644 241.542 288.826C236.453 288.919 231.33 288.921 226.008 285.747C230.216 281.322 235.561 280.846 240.647 279.832C241.523 279.658 242.468 279.867 243.362 279.749C248.509 279.073 255.338 283.138 258.52 277.675C262.548 270.761 265.023 262.702 263.247 254.217C262.274 250.102 260.95 246.078 259.291 242.189C258.304 239.696 257.426 236.704 259.993 234.63C262.56 232.556 265.789 230.89 269.167 232.035C272.43 233.141 273.117 236.311 273.271 239.48C273.525 250.966 272.514 262.445 270.256 273.709C269.087 280.472 268.719 286.183 275.335 290.308C276.779 291.416 278.039 292.746 279.066 294.249C280.546 296.057 283.001 297.82 281.371 300.48C280.069 302.607 277.441 301.106 275.472 301.601Z" fill="#88A08A"/>
<path d="M251.635 156.561C254.498 155.627 257.354 154.664 260.228 153.762C262.997 152.891 265.235 153.573 265.672 156.645C266.095 159.612 263.657 162.018 261.42 161.231C250.322 157.326 247.204 165.784 242.925 172.507C240.379 176.505 238.082 180.666 235.68 184.734C232.277 183.077 234.41 181.427 234.947 180.053C236.046 177.239 237.577 174.588 238.588 171.748C241.396 163.859 241.305 163.669 233.845 159.629C231.913 158.584 231.072 157.269 232.072 155.295C232.251 154.874 232.516 154.494 232.85 154.179C233.183 153.865 233.578 153.624 234.01 153.471C234.442 153.317 234.901 153.256 235.358 153.289C235.815 153.323 236.26 153.451 236.664 153.666C238.025 154.3 239.329 155.05 240.562 155.908C241.747 156.667 241.948 158.629 244.307 158.652C247.912 154 249.678 148.142 251.225 142.469C253.008 135.915 250.603 133.261 243.652 132.557C240.829 132.272 238.066 132.229 237.26 128.804C236.858 127.096 237.932 125.992 239.252 125.09C239.844 124.607 240.525 124.244 241.257 124.024C241.989 123.804 242.758 123.731 243.518 123.808C244.279 123.886 245.017 124.113 245.689 124.476C246.362 124.839 246.956 125.332 247.438 125.925C249.741 128.269 251.914 130.741 254.458 133.496C257.211 127.443 259.262 121.516 258.752 115.076C258.226 108.456 254.713 106.325 248.383 108.382C247.297 108.891 246.148 109.256 244.967 109.467C244.203 109.422 243.469 109.155 242.854 108.7C242.238 108.245 241.768 107.621 241.501 106.904C241.121 106.236 241.011 105.448 241.193 104.702C241.375 103.955 241.835 103.307 242.48 102.889C244.946 100.906 247.603 99.6291 250.794 101.449C252.371 102.352 254.02 103.135 255.574 104.069C257.092 104.985 258.553 106.025 260.559 107.355C264.445 102.767 265.512 97.8321 262.49 93.153C259.623 88.7169 257.443 82.1196 249.557 84.8481C249.051 85.0317 248.512 85.1076 247.975 85.0714C247.437 85.0351 246.914 84.8875 246.437 84.6376C245.96 84.3876 245.54 84.0409 245.204 83.6198C244.869 83.1987 244.624 82.7124 244.487 82.1917C244.18 81.494 244.093 80.7191 244.238 79.9707C244.383 79.2223 244.754 78.5362 245.3 78.004C246.023 77.2222 246.988 76.705 248.04 76.5348C249.091 76.3646 250.17 76.5512 251.103 77.0648C255.796 78.9091 258.346 83.4003 262.813 86.3451C266.587 82.3111 264.962 76.7973 266.681 71.5073C269.907 74.5166 269.076 77.3571 268.311 80.2241C267.596 82.9127 267.807 85.1289 271.359 85.294L271.3 85.2333C271.761 87.459 270.653 89.2804 269.943 91.2727C267.666 97.6974 264.251 103.985 267.124 111.196C268.19 113.881 265.875 115.653 264.691 117.647C261.902 122.351 259.782 127.193 260.39 133.27C264.365 133.502 266.448 130.225 269.461 129.451C272.023 128.794 275.011 128.037 276.453 131.407C276.858 132.228 277.029 133.145 276.946 134.056C276.863 134.968 276.531 135.839 275.984 136.574C275.663 137.005 275.254 137.363 274.784 137.624C274.314 137.885 273.794 138.044 273.258 138.088C272.722 138.133 272.182 138.064 271.675 137.884C271.168 137.705 270.705 137.42 270.317 137.048C266.473 133.559 263.697 135.864 260.928 138.289C255.462 142.692 251.928 149.054 251.079 156.022C250.889 156.402 250.688 156.764 250.491 157.134L251.635 156.561Z" fill="#F8B06C"/>
<path d="M275.034 81.6523C275.983 79.1477 278.207 78.2371 280.423 77.3169C283.195 76.1519 285.019 77.5617 286.478 79.6488C287.578 81.2256 287.995 83.0641 286.288 84.4359C285.448 85.0846 284.399 85.4031 283.34 85.3311C282.281 85.2591 281.285 84.8017 280.541 84.0452C278.99 82.6346 277.024 81.7627 274.938 81.5594L275.034 81.6523Z" fill="#F8B06C"/>
<path d="M273.152 107.074C278.048 102.829 281.835 102.736 283.615 106.901C284.07 107.682 284.224 108.603 284.05 109.49C283.875 110.377 283.383 111.17 282.666 111.721C282.044 112.144 281.287 112.321 280.542 112.218C279.797 112.114 279.117 111.739 278.634 111.163C276.977 109.586 276.063 107.03 273.179 107.104L273.152 107.074Z" fill="#F8B06C"/>
<path d="M273.18 107.105L271.454 108.6L270.867 107.636L273.144 107.067L273.18 107.105Z" fill="#F8B06C"/>
<path d="M273.119 83.3965C273.102 83.8724 272.907 84.3246 272.573 84.6634C272.238 85.0023 271.788 85.203 271.312 85.2256L271.369 85.2844L273.198 83.478L273.119 83.3965Z" fill="#F8B06C"/>
<path d="M274.946 81.5593C274.912 82.0333 274.71 82.4793 274.375 82.8163C274.04 83.1534 273.595 83.3591 273.121 83.3961L273.201 83.4776L275.043 81.6522L274.946 81.5593Z" fill="#F8B06C"/>
<path d="M51.6812 332.949C46.0383 340.639 40.9894 347.348 41.8147 356.64C42.0804 359.653 42.4334 361.985 46.1581 362.184C48.4065 362.306 50.4594 363.232 50.2924 365.951C50.2059 366.712 49.8575 367.418 49.3071 367.95C48.7568 368.482 48.0385 368.807 47.2754 368.867C44.712 369.323 42.1163 368.998 41.0291 366.435C39.7583 363.019 38.6649 359.54 37.7526 356.012C35.563 354.952 34.5098 358.479 32.2614 357.646C32.288 351.451 32.3146 351.365 26.2884 349.475C23.391 348.567 20.3494 348.062 18.5259 345.276C17.8275 344.471 17.3923 343.471 17.2794 342.411C17.1664 341.351 17.3811 340.282 17.8941 339.347C18.6986 337.968 19.6892 336.708 21.3475 336.865C23.7781 337.095 24.6392 338.932 25.4134 341.1C27.9749 348.286 33.4073 349.701 38.7106 344.275C42.6605 340.377 45.6874 335.644 47.5695 330.424C43.8411 328.657 40.2799 331.334 36.7868 329.496C35.5486 328.993 34.4394 328.218 33.5422 327.228C32.6451 326.238 31.9832 325.058 31.605 323.777C31.4153 323.038 31.4498 322.258 31.7046 321.539C31.9594 320.82 32.4227 320.192 33.0355 319.737C33.6176 319.243 34.3525 318.965 35.1159 318.95C35.8792 318.936 36.6241 319.185 37.225 319.656C38.2251 320.311 39.1664 321.052 40.0387 321.87C45.9814 327.232 51.4688 326.331 54.7608 319.09C56.1441 316.045 57.8857 313.237 59.3524 310.277C60.7338 307.489 61.8574 304.099 56.2543 304.907C55.3544 305.005 54.4467 304.815 53.6625 304.362C51.304 302.943 48.4655 301.234 50.1428 298.059C51.5773 295.344 54.4382 296.095 56.4039 297.78C60.1172 300.972 62.0962 299.034 64.3503 295.904C67.4894 291.184 70.0985 286.132 72.1299 280.84C75.3973 281.895 74.4068 283.675 73.8129 285.307C71.6685 290.303 69.8153 295.42 68.2628 300.63C66.9498 306.074 65.2956 312.15 72.4375 315.563C73.428 316.245 74.1382 317.263 74.4373 318.428C74.8647 319.24 74.9576 320.187 74.6967 321.066C74.4358 321.946 73.8416 322.688 73.0407 323.136C71.5094 323.919 70.1945 323.077 68.8928 322.187C65.2023 319.673 66.318 315.087 64.2289 310.802C61.2496 314.077 59.0236 317.964 57.7075 322.191C56.3914 326.418 56.0172 330.882 56.611 335.27C56.9487 338.495 59.9088 338.368 61.9846 339.321C64.0603 340.273 65.8189 341.495 65.0827 344.081C64.8105 345.12 64.2499 346.061 63.4655 346.795C62.6812 347.529 61.7053 348.026 60.6504 348.229C58.2198 348.679 56.645 346.834 55.7304 344.927C54.0322 341.406 54.4249 337.186 51.6812 332.949Z" fill="#F8B06C"/>
<path d="M28.603 362.421C27.326 366.926 26.2898 371.21 24.8781 375.367C23.6429 378.999 24.3905 381.181 28.3561 381.938C30.578 382.361 32.4965 383.369 32.1607 386.05C32.0237 386.798 31.6522 387.483 31.0999 388.005C30.5476 388.528 29.8428 388.861 29.0885 388.957C27.9248 389.325 26.6679 389.267 25.5433 388.792C24.4187 388.317 23.5002 387.457 22.9524 386.366C22.4034 385.454 22.0467 384.439 21.9041 383.383C21.7615 382.328 21.836 381.254 22.1232 380.228C23.8954 375.21 18.6035 372.546 18.5276 367.998C18.4915 365.935 14.6969 365.709 12.253 365.62C8.95153 365.499 5.61189 365.652 2.63484 363.742C1.8496 363.293 1.21171 362.625 0.79903 361.821C0.386346 361.016 0.216488 360.108 0.310315 359.209C0.350812 358.298 0.682042 357.424 1.25532 356.714C1.8286 356.005 2.61418 355.498 3.49646 355.268C4.34899 354.902 5.31161 354.888 6.17444 355.229C7.03727 355.57 7.73021 356.239 8.10151 357.089C11.0254 364.827 16.8105 364.11 23.0094 362.491C24.815 361.851 26.7819 361.826 28.603 362.421Z" fill="#F8B06C"/>
<path d="M12.5856 377.905C12.3351 378.409 12.2061 379.145 11.7962 379.35C11.4395 379.54 10.7834 379.119 10.2578 378.971C10.4905 378.446 10.7921 377.954 11.1551 377.508C11.73 376.964 12.2744 377.168 12.5856 377.905Z" fill="#F8B06C"/>
<path d="M0.206475 405.502C-1.1369 405.586 -1.78407 404.967 -1.70438 403.605C-1.44972 403.586 -1.19397 403.622 -0.954398 403.71C-0.714824 403.798 -0.496796 403.937 -0.315593 404.117C-0.134391 404.297 0.00613594 404.514 0.0962247 404.753C0.186313 404.992 0.223778 405.247 0.206475 405.502Z" fill="#FFE9D1"/>
<path d="M29.1252 122.714C32.5918 122.623 32.2867 126.889 35.1973 127.648C37.4932 126.466 36.163 123.972 36.8043 122.177C37.1761 120.858 37.873 119.654 38.8314 118.675C39.7899 117.695 40.9789 116.973 42.2895 116.572C44.5759 115.929 47.4924 115.216 48.4487 118.352C49.3424 121.287 47.1205 122.432 44.5533 123.304C38.5537 125.342 37.7224 126.828 38.3751 132.964C38.859 137.537 41.7907 144.263 46.5703 151.519C48.4506 147.965 49.2135 144.032 52.1583 141.393C53.9722 139.768 55.5962 137.928 58.336 138.049C58.9389 138.022 59.537 138.168 60.0602 138.469C60.5834 138.769 61.0103 139.213 61.2906 139.747C61.5398 140.304 61.614 140.923 61.5032 141.522C61.3924 142.122 61.1015 142.674 60.6698 143.104C59.5881 144.153 58.2418 144.889 56.7745 145.233C51.0917 147.381 49.0788 151.136 50.3387 156.972C51.6669 163.095 55.3003 167.839 59.2393 172.341C62.9488 171.487 62.1178 167.744 64.1006 165.957C66.1156 164.143 67.7058 161.759 70.7929 161.746C71.5499 161.643 72.3184 161.821 72.9526 162.247C73.5867 162.673 74.0423 163.317 74.233 164.057C74.4209 164.636 74.4214 165.259 74.2343 165.839C74.0473 166.418 73.6821 166.923 73.1911 167.283C72.1834 167.908 71.1041 168.411 69.9767 168.78C64.3926 171.019 62.6224 174.311 64.5768 179.827C66.2445 184.405 68.8785 188.569 72.2994 192.038C75.4643 189.513 74.7963 184.688 78.8473 183.293C81.1659 182.494 83.5015 180.946 85.1788 183.862C86.395 185.976 85.4031 187.898 83.5607 189.418C81.8227 190.851 78.4923 190.177 78.202 193.539C78.0441 196.897 78.9762 200.215 80.8586 203C83.756 207.625 87.1656 211.909 91.023 215.77C92.1007 216.897 92.9206 218.405 91.1143 219.509C89.9644 220.213 88.7347 219.42 87.9605 218.441C85.898 215.826 83.8698 213.18 81.9287 210.472C79.739 207.183 76.9536 204.332 73.7164 202.066C70.0317 199.672 66.1839 197.651 62.9545 203.082C61.8161 204.992 59.5941 206.22 57.6416 204.195C55.5905 202.072 56.5031 199.659 58.3379 197.744C61.0626 194.917 64.774 195.277 68.9483 195.702C66.478 190.163 63.0443 185.107 58.8067 180.768C57.8575 179.787 56.7084 179.022 55.4376 178.524C54.1667 178.026 52.8036 177.807 51.4407 177.882C48.0254 177.897 47.8092 180.339 47.2248 182.722C47.1907 183.102 47.0637 183.468 46.8547 183.788C46.6457 184.107 46.3611 184.37 46.0264 184.554C45.6917 184.737 45.3172 184.836 44.9355 184.84C44.5538 184.845 44.177 184.755 43.8381 184.58C43.2933 184.313 42.845 183.883 42.5554 183.35C42.2657 182.817 42.1489 182.207 42.2214 181.605C42.1604 180.07 42.6325 178.562 43.5574 177.335C44.4822 176.109 45.8029 175.241 47.2952 174.878C49.5426 174.391 51.8279 174.101 54.1257 174.011C51.9373 167.979 48.3013 162.577 43.5365 158.28C40.956 156.003 38.4135 154.978 35.9468 158.593C35.2648 159.574 34.3112 160.334 33.2031 160.78C31.5637 161.393 30.3339 160.226 29.3207 159.073C29.054 158.802 28.8469 158.479 28.7125 158.123C28.578 157.768 28.5194 157.388 28.5401 157.009C28.5609 156.63 28.6605 156.259 28.8329 155.92C29.0053 155.581 29.2462 155.283 29.5407 155.043C30.9903 153.367 32.9516 152.215 35.1213 151.766C37.2911 151.317 39.5486 151.596 41.5441 152.559C41.4099 149.991 40.5543 147.513 39.0755 145.41C37.5968 143.307 35.5548 141.663 33.1841 140.668C29.0268 138.723 25.5945 134.311 20.0161 137.748C19.5621 138.054 19.0333 138.231 18.4865 138.259C17.9397 138.288 17.3953 138.167 16.9119 137.91C16.4286 137.653 16.0241 137.269 15.7423 136.799C15.4604 136.33 15.3121 135.792 15.3124 135.245C15.1701 132.816 17.0196 131.492 19.3421 131.097C21.4431 130.679 23.6249 131.026 25.492 132.076C27.5602 133.256 29.3588 135.023 32.3586 135.194C34.108 130.367 28.4725 127.306 29.1252 122.714Z" fill="#359885"/>
<path d="M127.082 368.362C123.341 368.399 120.491 371.575 116.647 371.019C114.537 370.711 112.283 370.956 111.45 368.378C111.231 367.812 111.175 367.196 111.286 366.6C111.397 366.004 111.672 365.451 112.08 365.002C113.541 363.433 115.294 363.928 117.119 364.309C124.398 365.827 128.576 363.015 129.371 355.771C129.585 352.254 129.607 348.728 129.437 345.208C126.526 344.802 125.225 347.001 123.204 347.546C121.514 348.22 119.639 348.265 117.918 347.675C115.677 346.726 114.398 345.208 114.95 342.768C115.434 340.622 117.206 340.152 119.176 340.229C121.428 340.32 123.618 343.111 125.879 340.69C128.168 338.213 129.443 334.967 129.454 331.594C129.551 327.359 129.454 323.118 129.577 318.882C129.642 316.578 128.726 314.054 130.866 311.958C134.029 312.478 133.012 315.068 133.06 316.857C133.223 322.895 132.847 328.934 134.577 334.882C136.505 341.504 136.962 342.144 143.738 341.318C146.668 340.962 148.762 341.381 148.998 344.442C149.225 347.403 146.893 348.527 144.315 348.957C142.408 349.274 140.52 348.614 134.198 345.542C132.735 352.807 131.589 359.721 135.232 366.414C136.94 369.554 139.424 371.888 142.941 367.922C144.19 366.514 145.935 365.492 147.59 367.376C149.582 369.653 147.822 371.3 146.262 372.738C143.277 375.499 140.133 374.645 137.084 372.806C133.054 370.377 131.498 372.25 131.38 376.166C131.255 380.381 130.454 384.661 131.739 388.805C132.705 391.921 133.395 395.735 138.346 393.446C138.913 393.219 139.529 393.141 140.135 393.22C140.741 393.299 141.317 393.532 141.806 393.898C142.47 394.267 143.003 394.834 143.331 395.52C143.659 396.206 143.765 396.976 143.636 397.725C143.539 398.327 143.241 398.878 142.79 399.288C142.34 399.698 141.764 399.944 141.156 399.985C138.762 400.386 136.306 400.161 134.025 399.332C128.564 397.235 126.462 398.289 127.764 403.317C129.308 409.282 128.955 416.963 137.418 419.065C137.958 419.14 138.47 419.348 138.909 419.67C139.348 419.993 139.7 420.42 139.933 420.913C140.165 421.406 140.27 421.949 140.24 422.493C140.209 423.037 140.043 423.565 139.757 424.029C138.478 426.251 136.141 425.9 134.135 424.849C133.055 424.291 132.097 423.526 131.315 422.596C130.533 421.665 129.944 420.589 129.582 419.43C128.927 417.445 128.572 415.286 126.578 414.052C122.339 416.898 125.439 422.909 121.701 426.072C119.324 424.11 121.559 421.02 119.29 419.242C116.064 420.479 113.948 424.221 109.734 423.606C107.531 423.285 105.476 422.873 104.355 420.826C103.984 420.158 103.848 419.385 103.968 418.631C104.088 417.877 104.458 417.185 105.017 416.665C106.951 414.633 108.812 415.422 110.598 416.889C113.797 419.502 116.1 418.014 118.233 415.322C123.032 409.109 125.656 401.49 125.701 393.64C122.494 394.896 119.857 395.888 117.252 396.96C114.765 398.144 111.931 398.378 109.283 397.621C108.377 397.431 107.573 396.914 107.026 396.167C106.478 395.421 106.227 394.498 106.319 393.577C106.634 391.34 108.596 391.044 110.493 391.023C111.099 390.988 111.706 391.056 112.288 391.226C115.419 392.336 118.396 393.811 121.553 390.928C124.817 387.948 127.352 384.608 127.578 380.14C127.767 376.273 128.619 372.317 127.082 368.362Z" fill="#359885"/>
<path d="M225.304 365.747C228.644 360.78 229.247 356.209 230.695 351.997C232.198 347.633 228.968 345.289 226.088 343.066C223.473 341.045 220.285 339.65 218.951 336.334C218.579 335.664 218.44 334.888 218.556 334.13C218.673 333.373 219.038 332.675 219.595 332.148C220.633 331.277 221.893 331.768 222.952 332.362C224.259 333.1 226.192 333.664 226.661 334.798C228.693 339.72 235.742 339.5 236.939 345.234C237.283 346.881 238.721 346.06 239.767 345.458C243.418 343.284 247.559 342.067 251.806 341.92C255.122 341.825 257.027 343.278 256.771 346.779C256.479 350.786 254.092 350.781 250.989 349.853C248.948 349.31 246.855 348.98 244.745 348.868C242.32 348.491 239.839 348.971 237.729 350.225C235.619 351.479 234.011 353.428 233.182 355.738C232.226 357.958 231.385 360.225 230.663 362.531C228.721 368.838 229.335 369.614 235.577 368.134C238.182 367.325 240.946 367.167 243.626 367.677C246.252 368.352 247.944 370.208 247.054 373.066C246.916 373.585 246.673 374.069 246.339 374.49C246.006 374.911 245.589 375.259 245.116 375.512C244.643 375.765 244.122 375.918 243.587 375.962C243.052 376.006 242.514 375.939 242.005 375.766C241.127 375.563 240.298 375.155 239.419 374.927C229.389 372.322 227.746 372.986 222.912 381.881C221.514 383.7 220.814 385.959 220.94 388.249C224.012 389.285 228.078 386.027 230.807 389.736C231.516 390.702 232.556 391.533 232.213 392.865C232.125 393.238 231.952 393.586 231.709 393.882C231.465 394.178 231.156 394.413 230.807 394.57C230.457 394.727 230.076 394.801 229.693 394.787C229.31 394.773 228.935 394.67 228.598 394.488C223.156 391.721 218.758 393.268 213.941 399.053C213.707 391.351 211.77 386.53 204.512 386.26C203.426 386.203 202.401 385.741 201.639 384.965C200.877 384.189 200.434 383.156 200.397 382.069C200.26 381.475 200.308 380.853 200.535 380.287C200.761 379.721 201.157 379.239 201.666 378.904C202.781 378.405 204.022 378.26 205.222 378.491C206.421 378.721 207.521 379.314 208.372 380.19C211.247 382.637 213.77 385.471 215.866 388.611C218.881 384.621 221.053 380.06 222.251 375.204C223.08 370.806 222.866 366.633 217.221 365.214C215.777 364.769 214.462 363.982 213.385 362.922C211.167 360.879 210.104 358.002 212.271 355.712C214.548 353.325 216.753 355.693 218.364 357.385C220.603 359.765 222.559 362.421 225.304 365.747Z" fill="#F8B06C"/>
<path d="M237.532 336.873C238.564 327.765 238.537 327.802 230.253 321.03C228.844 319.917 227.651 318.555 226.733 317.013C226.455 316.557 226.278 316.047 226.214 315.516C226.15 314.986 226.201 314.448 226.363 313.94C226.525 313.431 226.794 312.962 227.153 312.567C227.511 312.171 227.951 311.856 228.441 311.645C228.825 311.403 229.256 311.245 229.705 311.183C230.155 311.12 230.613 311.155 231.048 311.283C231.483 311.412 231.886 311.632 232.23 311.928C232.573 312.225 232.849 312.592 233.04 313.004C234.407 314.607 235.56 316.381 236.469 318.282C237.809 322.09 245.565 312.893 246.077 314.206C248.291 319.883 248.17 323.037 250.373 322.491C254.132 321.559 257.635 319.468 261.729 320.197C262.633 320.275 263.486 320.654 264.149 321.273C264.813 321.892 265.25 322.715 265.391 323.612C265.771 325.766 264.386 326.872 262.661 327.733C261.46 328.387 260.135 328.781 258.772 328.889C257.409 328.998 256.038 328.82 254.749 328.365C247.518 325.549 243.282 328.856 240.078 334.841C239.529 335.858 238.943 336.911 237.532 336.873Z" fill="#F8B06C"/>
<path d="M220.486 412.878C218.372 412.768 216.238 412.809 214.149 412.521C208.591 411.762 208.599 411.7 203.354 416.066C202.04 412.153 199.688 408.671 196.55 405.99C195.838 405.422 195.216 404.751 194.704 403.998C192.841 401.342 191.613 397.858 194.416 395.907C196.763 394.274 199.595 396.718 201.159 399.017C202.594 401.411 203.881 403.891 205.013 406.442C208.756 406.838 208.511 401.753 212.033 401.425C213.395 403.026 213.619 405.905 217.001 406.358C220.304 406.808 220.446 410.09 220.45 412.908L220.486 412.878Z" fill="#F8B06C"/>
<path d="M245.473 316.233C245.388 316.47 245.371 316.836 245.206 316.922C244.709 317.183 244.415 316.868 244.534 316.147C244.57 315.937 244.87 315.768 245.049 315.578L245.473 316.233Z" fill="#F8B06C"/>
<path d="M162.303 183.7C162.618 190.43 158.971 197.302 163.326 204.402C166.58 201.765 167.923 197.192 172.17 195.737C174.181 195.052 176.437 193.517 177.795 195.947C178.12 196.478 178.299 197.086 178.313 197.708C178.327 198.331 178.176 198.946 177.875 199.491C177.575 200.036 177.135 200.492 176.601 200.812C176.067 201.132 175.458 201.305 174.835 201.313C172.863 201.402 170.972 202.126 169.443 203.375C167.914 204.625 166.83 206.335 166.35 208.25C164.333 214.024 164.466 216.631 167.373 222.648C170.029 222.069 170.484 219.168 172.424 217.813C174.642 216.261 176.862 215.347 178.797 217.796C180.953 220.525 179.069 222.027 176.697 223.392C169.341 227.629 168.894 229.107 171.116 236.979C172.295 241.153 175.07 245.045 174.26 249.679C170.93 250.257 171.348 247.734 170.636 246.324C168.316 241.73 166.253 236.994 163.717 232.526C161.7 228.972 159.098 225.949 154.203 228.352C153.746 228.63 153.237 228.813 152.707 228.889C152.178 228.966 151.638 228.935 151.121 228.798C150.603 228.66 150.119 228.42 149.697 228.091C149.275 227.762 148.923 227.351 148.664 226.883C148.32 226.378 148.162 225.77 148.216 225.161C148.27 224.553 148.533 223.982 148.96 223.545C149.658 222.729 150.586 222.143 151.622 221.863C152.658 221.583 153.755 221.622 154.768 221.976C156.943 222.692 159.079 223.52 161.168 224.456C163.286 219.272 159.84 215.694 157.988 211.967C155.814 207.603 152.205 206.085 147.362 208.066C146.895 208.34 146.364 208.488 145.822 208.493C145.28 208.499 144.746 208.363 144.273 208.099C143.799 207.835 143.404 207.452 143.124 206.987C142.845 206.523 142.692 205.993 142.68 205.452C142.45 202.831 144.742 202.144 146.943 201.704C150.45 201 153.376 203.133 156.639 203.579C156.96 204.368 157.25 204.488 157.372 203.913C157.391 203.822 156.952 203.634 156.726 203.491C157.865 197.539 154.336 192.737 152.767 187.453L153.21 186.976C156.352 182.081 154.681 177.195 153.178 172.309C151.818 167.883 152.685 155.595 154.956 149.557C158.182 153.375 155.487 157.936 157.548 162.23C160.138 159.428 160.963 155.652 163.793 153.411C165.726 151.878 167.411 150.092 170.177 151.206C170.756 151.402 171.266 151.76 171.646 152.239C172.027 152.717 172.261 153.294 172.321 153.902C172.448 157.067 169.834 157.42 167.6 158.42C158.988 162.268 155.267 174.89 160.309 182.842C160.549 183.221 161.415 183.208 161.99 183.377L162.303 183.7Z" fill="#88A08A"/>
<path d="M139.901 156.293C142.747 156.124 148.109 159.944 148.766 162.676C148.869 162.953 148.902 163.252 148.863 163.545C148.825 163.838 148.715 164.116 148.543 164.357C148.372 164.598 148.144 164.793 147.88 164.926C147.616 165.059 147.323 165.125 147.028 165.118C145.261 165.32 143.472 165.08 141.821 164.42C140.17 163.76 138.709 162.699 137.569 161.335C137.171 160.888 136.912 160.336 136.823 159.744C136.734 159.153 136.82 158.548 137.07 158.005C137.316 157.468 137.717 157.018 138.222 156.713C138.727 156.408 139.312 156.261 139.901 156.293Z" fill="#88A08A"/>
<path d="M152.763 187.457C149.503 186.922 146.064 187.739 142.943 186.303C142.066 186.029 141.332 185.423 140.895 184.616C140.457 183.809 140.352 182.863 140.601 181.979C141.079 180.201 142.621 179.932 144.166 179.877C149.173 179.687 152.022 182.29 153.206 186.982L152.763 187.457Z" fill="#88A08A"/>
<path d="M161.981 183.381C161.581 178.962 164.238 176.22 167.346 173.785C168.835 172.62 170.662 172.055 172.102 173.649C172.485 174.011 172.785 174.451 172.982 174.94C173.179 175.429 173.269 175.954 173.245 176.48C173.221 177.006 173.083 177.521 172.842 177.99C172.601 178.458 172.262 178.869 171.848 179.195C169.026 181.364 165.769 182.899 162.3 183.696L161.981 183.381Z" fill="#88A08A"/>
<path d="M152.785 127.521C153.889 124.794 156.219 125.067 158.489 125.191C157.157 127.352 154.709 126.788 152.785 127.521Z" fill="#FFE9D1"/>
<path d="M140.191 132.517C140.819 130.781 142.565 130.76 143.897 130.104C143.39 132.02 141.945 132.504 140.191 132.517Z" fill="#FFE9D1"/>
<path d="M251.638 156.561L250.5 157.13C250.69 156.76 250.894 156.39 251.088 156.018L251.638 156.561Z" fill="#E26267"/>
<path d="M156.72 203.496C156.946 203.638 157.384 203.826 157.365 203.917C157.244 204.486 156.953 204.372 156.633 203.583L156.72 203.496Z" fill="#A5C9BF"/>
</svg>
