<svg width="187" height="971" viewBox="0 0 187 971" fill="none" xmlns="http://www.w3.org/2000/svg">
<path d="M57.9625 385.817C49.9995 396.591 53.9552 408.573 55.2461 419.966C56.2642 425.787 56.9479 431.662 57.2946 437.562C57.2796 480.432 57.2796 523.303 57.2946 566.175C58.1591 567.735 59.1641 569.214 60.2969 570.592C88.7867 599.562 111.673 632.135 125.25 670.786C125.332 671.294 125.521 671.778 125.803 672.208C126.085 672.638 126.455 673.003 126.887 673.28C127.32 673.557 127.807 673.739 128.315 673.815C128.823 673.891 129.342 673.859 129.837 673.721C129.837 657.792 129.754 641.704 129.855 625.616C130.046 594.496 129.882 563.425 132.137 532.278C134.148 504.55 138.111 475.7 120.241 450.497C119.924 449.986 119.689 449.429 119.543 448.846C116.694 439.753 119.205 436.23 128.549 437.036C136.284 437.704 143.954 439.074 151.661 440.061C158.39 440.924 159.752 444.748 156.626 450.065C153.739 454.613 150.579 458.982 147.162 463.147C142.14 469.202 139.377 476.813 139.345 484.679C139.627 502.647 137.514 520.558 137.192 538.436C136.22 592.357 136.632 646.312 136.966 700.252C137.03 710.936 139.146 721.605 140.719 735.955C142.75 732.862 144.559 729.627 146.131 726.277C161.805 677.406 192.528 637.396 222.451 596.954C233.042 581.682 245.136 567.509 258.551 554.647C262.387 551.18 265.662 546.196 272.368 547.712C273.933 555.335 273.483 563.234 271.063 570.629C262.964 601.27 256.273 632.337 246.846 662.568C233.146 706.474 210.214 744.492 170.016 769.848C162.935 774.314 156.461 779.729 149.47 784.341C140.813 790.048 135.702 797.318 136.441 808.189C136.644 811.191 137.506 815.66 131.975 815.829C128.387 812.279 129.941 807.907 130.099 803.971C130.879 785.448 131.724 766.925 132.951 748.432C134.283 728.31 126.459 713.683 108.277 704.583C92.8677 696.395 79.461 684.898 69.0179 670.918C64.7812 665.117 59.9402 659.782 54.5773 655.003C54.3259 693.302 51.6585 731.785 54.5067 769.856C57.3775 808.219 60.1127 847.073 72.6239 884.171C75.626 893.088 79.2882 899.126 89.3302 902.777C107.185 909.269 123.15 920.767 142.577 923.439C179.821 928.565 217.002 932.562 254.704 926.873C269.963 924.24 285.409 922.841 300.892 922.692C334.338 923.048 367.776 921.446 401.034 917.892C433.344 914.515 465.497 915.907 497.705 914.853C502.404 914.699 507.436 915.709 510.956 911.232C508.914 907.367 505.072 905.396 502.017 902.574C477.486 879.927 456.655 854.811 448.399 821.372C443.239 800.481 437.712 779.676 432.691 758.752C431.676 756.065 431.356 753.167 431.76 750.324C432.163 747.481 433.277 744.786 434.998 742.488C464.929 764.778 494.133 786.367 514.179 817.766C533.775 848.466 547.69 881.864 559.631 919.296C565.26 895.242 565.237 874.325 565.312 853.397C565.372 836.026 564.187 818.471 566.232 801.321C569.467 774.415 568.344 747.516 569.095 720.614C569.691 712.81 568.157 704.99 564.655 697.989C560.302 689.992 549.123 681.609 556.67 672.907C563.169 665.402 574.716 673.128 584.041 673.826C586.431 673.943 588.787 674.432 591.025 675.278C597.915 678.134 599.596 683.159 595.63 689.632C593.743 692.701 591.401 695.464 588.683 697.828C578.289 706.834 575.351 718.092 575.572 731.571C575.917 752.473 575.02 773.338 573.279 794.289C571.027 821.278 572.735 848.589 572.735 880.685C607.574 826.273 651.967 790.698 710.028 772.925C712.426 778.622 708.355 781.395 706.407 784.754C701.007 794.064 694.687 802.901 689.895 812.5C669.128 854.06 638.11 883.477 593.198 897.936C584.732 900.66 573.826 901.164 568.959 911.311C595.502 906.807 622.505 908.729 649.209 905.111C667.484 902.638 686.33 904.361 704.925 904.214C729.572 904.019 739.358 896.953 746.18 872.828C749.333 860.115 751.48 847.175 752.605 834.127C755.712 808.035 753.779 781.616 758.699 755.697C759.46 749.749 759.673 743.743 759.334 737.756C759.394 631.602 758.44 525.433 760.11 419.306C760.549 391.536 763.698 363.369 765.21 335.483C767.694 289.566 781.204 244.782 777.707 198.325C776.988 183.385 773.575 168.698 767.634 154.971C758.208 134.606 739.194 125.461 718.682 123.945C696.819 122.331 674.573 124.361 652.471 125.607C614.982 127.724 577.095 129.66 539.475 124.106C529.921 123.254 520.323 123.003 510.738 123.356C503.734 139.235 500.087 156.39 500.028 173.746C499.603 188.669 497.277 203.477 493.104 217.812C491.51 223.267 488.831 228.343 485.228 232.737C481.625 237.131 477.171 240.752 472.134 243.383C448.459 257.189 422.6 261.073 396.065 259.166C377.189 257.812 362.423 249.173 355.819 229.04C347.815 204.648 340.388 180.144 334.388 155.174C330.335 138.309 324.89 121.892 313.673 108.097C302.461 117.021 288.984 113.546 277.543 111.617C255.999 107.989 234.624 109.677 213.197 108.972C177.945 107.816 142.971 113.974 107.643 112.751C90.8279 112.169 77.7874 122.508 69.4604 136.122C52.371 164.038 48.8514 195.297 51.0729 227.389C51.1705 228.792 53.2194 230.065 54.3565 231.397C56.1384 231.363 57.8981 231.795 59.4614 232.651C61.0247 233.507 62.3373 234.756 63.2689 236.275C87.2242 270.058 106.201 307.107 119.618 346.287C120.909 350.074 120.503 355.237 126.613 358.573C124.686 307.441 130.805 256.324 144.745 207.091C160.735 256.318 159.246 306.839 154.157 358.321C159.497 356.265 159.166 352.693 160.082 350.126C172.931 313.999 185.859 277.896 192.974 240.032C193.927 234.951 193.192 228.113 202.404 224.987C208.712 274.319 206.765 321.512 192.306 367.962C193.909 368.045 195.492 368.135 197.079 368.225C218.938 334.92 227.795 296.55 238.399 258.161C239.758 259.304 240.85 260.731 241.599 262.342C242.347 263.952 242.735 265.706 242.734 267.482C243.573 300.345 242.528 333.23 239.604 365.973C237.353 390.459 225.385 409.811 200.768 419.669C154.018 438.282 90.4414 430.533 57.9625 385.817ZM604.888 468.453L604.951 468.28C611.357 469.2 612.516 473.696 612.34 479.103L612.715 478.852C613.789 479.343 615.36 479.531 615.863 480.353C621.023 488.894 626.232 495.581 638.289 490.549C644.871 487.806 649.495 492.425 650.872 499.555C653.148 511.286 655.491 523.004 657.901 534.709C663.192 560.325 663.769 585.745 654.981 610.816C650.798 622.723 643.181 633.124 633.092 640.706C605.784 662.02 575.429 660.625 544.2 653.908C539.562 652.564 535.365 650.014 532.034 646.519C523.712 638.646 517.8 628.57 514.986 617.466C507.612 591.629 508.663 565.207 511.916 539.171C514.276 520.318 520.09 501.848 525.032 483.389C527.456 474.337 531.658 473.339 539.363 478.307C544.177 481.411 546.752 487.689 552.872 488.612C558.501 484.946 558.876 477.373 565.188 475.223C568.724 469.759 573.378 465.107 578.844 461.575C590.083 452.047 592.961 452.437 601.404 464.652L601.228 464.746C601.714 464.743 602.195 464.837 602.643 465.024C603.091 465.21 603.498 465.483 603.839 465.829C604.18 466.174 604.448 466.584 604.628 467.035C604.808 467.486 604.897 467.968 604.888 468.453ZM394.767 275.479C410.573 273.261 423.399 270.499 436.563 271.726C445.213 272.522 446.902 276.008 442.913 283.528C441.867 285.69 440.532 287.699 438.946 289.502C427.313 301.702 424.953 316.818 424.911 332.755C424.866 349.537 424.537 366.322 424.691 383.1C424.721 386.733 422.131 391.498 427.996 394.257C436.353 380.421 444.587 366.645 452.966 352.955C461.419 339.826 472.274 328.411 484.962 319.309C497.323 309.928 508.426 298.542 525.793 295.086C525.418 301.935 521.602 304.224 518.791 307.094C511.256 314.81 503.548 322.368 496.144 330.207C492.936 333.584 488.324 337.138 489.978 342.384C491.855 348.366 497.953 346.456 502.411 346.707C517.984 347.589 531.505 354.134 549.712 361.185C514.719 373.235 480.132 376.233 456.43 403.822C471.441 414.13 490.492 410.884 504.182 426.098C482.191 425.039 465.507 433.156 448.564 440.358C434.398 446.381 427.126 456.494 427.801 472.54C428.552 490.492 428.435 508.494 428.222 526.469C428.15 532.638 429.936 539.554 424.979 544.804C420.476 543.615 420.244 540.237 419.925 537.565C417.876 520.464 406.686 511.672 391.975 505.627C375.406 498.693 358.183 493.439 340.565 489.945C334.103 488.706 327.64 487.449 321.201 486.105C320.609 486.054 320.034 485.885 319.508 485.607C318.983 485.33 318.519 484.95 318.143 484.49C317.768 484.03 317.488 483.499 317.321 482.929C317.154 482.359 317.103 481.761 317.17 481.171C317.388 480.323 317.792 479.535 318.352 478.863C318.912 478.19 319.615 477.651 320.409 477.283C323.745 476.022 327.517 475.876 330.8 474.529C339.307 471.031 349.079 473.876 358.254 470.652C355.64 466.586 351.71 463.539 347.12 462.021C329.825 453.753 311.741 447.249 293.142 442.605C288.992 441.48 283.104 441.783 282.849 434.995C286.891 430.706 292.231 429.993 297.462 428.616C302.862 427.193 309.298 427.411 313.414 421.609C304.235 407.348 292.673 394.772 279.232 384.428C276.361 382.226 272.616 379.599 274.597 375.764C277.731 369.718 282.065 374.657 285.135 376.233C302.896 384.929 320.069 394.776 336.546 405.713C357.436 419.823 375.614 437.581 390.208 458.137C400.715 473.193 409.391 489.284 420.416 509C420.416 476.206 421.944 447.709 419.996 419.455C417.569 390.245 417.679 360.88 420.326 331.689C421.546 320.011 420.368 309.219 412.296 299.702C406.569 292.955 401.848 285.367 394.767 275.479Z" fill="#FAD9C9"/>
<path d="M57.9598 385.817C90.4387 430.533 154.027 438.283 200.747 419.568C225.364 409.71 237.338 390.358 239.582 365.872C242.506 333.129 243.551 300.244 242.712 267.381C242.713 265.605 242.325 263.851 241.577 262.241C240.828 260.631 239.737 259.204 238.378 258.06C227.774 296.442 218.917 334.819 197.062 368.12C194.871 373.67 192.622 379.186 186.929 382.207C186.784 382.648 186.587 383.07 186.344 383.465C186.186 383.667 185.781 383.675 185.488 383.772L187.076 382.361C186.945 379.721 187.338 377.08 188.232 374.592C189.126 372.104 190.503 369.818 192.284 367.865C206.758 321.423 208.706 274.229 202.398 224.89C193.185 228.016 193.921 234.853 192.968 239.934C185.838 277.798 172.925 313.902 160.076 350.029C159.16 352.592 159.491 356.168 154.151 358.224C159.239 306.761 160.729 256.24 144.739 206.994C130.798 256.227 124.679 307.344 126.606 358.476C120.497 355.14 120.902 349.976 119.611 346.19C106.194 307.01 87.2179 269.96 63.2626 236.178C62.3309 234.659 61.0183 233.409 59.455 232.554C57.8917 231.698 56.132 231.266 54.3501 231.3C54.3952 234.772 54.4386 238.244 54.4811 241.717C64.2379 267.719 70.993 294.629 78.3482 321.336L94.9234 360.739L91.5831 362.24C85.1173 348.644 76.3625 336.234 72.3509 321.366L46.21 274.65L28.539 251.489C24.0359 252.464 24.3663 255.459 25.0117 257.279C30.817 273.719 32.0935 290.764 33.4332 308C35.5766 327.537 40.996 346.574 49.4642 364.311C52.5451 371.366 55.1378 378.642 57.9598 385.817ZM169.007 407.583C169.167 407.106 169.388 406.652 169.664 406.232C169.841 406.025 170.306 406.067 170.644 405.995L168.85 407.417C168.549 409.515 167.671 411.027 165.255 411.012C165.591 412.161 165.617 413.378 165.331 414.54C165.045 415.701 164.456 416.767 163.626 417.628C162.59 418.754 161.311 420.968 159.434 418.788C158.984 418.262 159.363 416.356 159.993 415.688C161.701 414.061 163.51 412.543 165.409 411.144L169.007 407.583ZM118.49 404.006C121.078 404.131 123.517 405.249 125.302 407.127C127.086 409.005 128.078 411.499 128.07 414.09C125.541 413.781 123.204 412.583 121.476 410.71C119.748 408.838 118.741 406.413 118.636 403.868L117.908 402.637L118.49 404.006Z" fill="#E26267"/>
<path d="M54.5761 654.963C59.939 659.742 64.78 665.077 69.0167 670.878C79.4598 684.858 92.8665 696.354 108.276 704.542C126.458 713.643 134.282 728.27 132.949 748.392C131.722 766.892 130.878 785.415 130.097 803.93C129.932 807.867 128.379 812.238 131.974 815.788C137.505 815.619 136.643 811.158 136.44 808.148C135.69 797.265 140.812 790.008 149.469 784.3C156.46 779.688 162.934 774.273 170.015 769.808C210.213 744.451 233.145 706.437 246.845 662.528C256.272 632.308 262.982 601.24 271.061 570.589C273.482 563.193 273.932 555.294 272.367 547.672C265.661 546.171 262.385 551.139 258.55 554.606C245.135 567.469 233.041 581.642 222.45 596.914C192.526 637.356 161.804 677.366 146.129 726.236C144.558 729.586 142.749 732.821 140.718 735.914C139.149 721.564 137.033 710.895 136.965 700.212C136.631 646.272 136.215 592.317 137.19 538.395C137.513 520.518 139.626 502.606 139.344 484.639C139.375 476.772 142.138 469.161 147.161 463.107C150.577 458.942 153.738 454.573 156.625 450.025C159.751 444.707 158.389 440.883 151.66 440.02C143.952 439.033 136.275 437.664 128.548 436.996C119.204 436.189 116.693 439.713 119.541 448.805C119.687 449.389 119.923 449.945 120.239 450.456C138.109 475.659 134.147 504.494 132.136 532.237C129.884 563.384 130.045 594.455 129.854 625.576C129.752 641.663 129.835 657.751 129.835 673.681C129.34 673.819 128.822 673.851 128.314 673.775C127.805 673.699 127.319 673.516 126.886 673.239C126.453 672.962 126.084 672.597 125.802 672.167C125.52 671.738 125.331 671.253 125.249 670.746C111.672 632.12 88.7855 599.533 60.2957 570.551C59.1629 569.173 58.1579 567.695 57.2934 566.135C39.9976 551.953 24.4766 535.179 -0.0017395 526.732C9.00079 575.028 25.5684 617.572 54.5761 654.963ZM57.4061 605.372C58.3718 605.3 59.3415 605.437 60.249 605.775C61.1564 606.113 61.9795 606.644 62.6621 607.331C63.3448 608.018 63.8706 608.845 64.2031 609.754C64.5356 610.664 64.6675 611.634 64.5888 612.599C65.8391 613.288 66.854 614.335 67.5041 615.606C68.1541 616.876 68.4094 618.313 68.2361 619.729C69.966 620.153 72.3826 619.989 73.3245 621.088C86.1134 636.031 98.3658 651.383 106.273 669.632C106.46 670.059 105.053 671.174 103.574 672.945C90.065 656.134 76.6643 639.678 68.0858 619.857C66.8475 619.14 65.8488 618.074 65.2146 616.791C64.5803 615.509 64.3389 614.067 64.521 612.648C63.5561 612.724 62.5862 612.59 61.6782 612.254C60.7702 611.919 59.9457 611.391 59.2613 610.707C58.5769 610.023 58.0491 609.198 57.7139 608.29C57.3788 607.382 57.2444 606.412 57.32 605.447C56.0641 604.765 55.0438 603.719 54.3928 602.446C53.7419 601.174 53.4902 599.735 53.6718 598.317C46.2867 597.24 41.502 593.851 40.7365 584.222C49.1949 586.954 53.0265 591.191 53.8221 598.193C55.058 598.906 56.057 599.967 56.6942 601.243C57.3315 602.52 57.5792 603.956 57.4061 605.372ZM163.493 750.425C190.102 713.308 206.756 670.694 229.914 631.787C228.045 655.586 180.601 741.34 163.493 750.425ZM108.235 682.942C108.667 681.91 108.986 680.071 109.56 679.989C110.443 679.908 111.325 680.158 112.033 680.691C112.742 681.223 113.227 682 113.395 682.871C113.965 684.661 113.395 686.421 111.252 686.458C109.24 686.492 108.494 684.77 108.235 682.942Z" fill="#B0C084"/>
<path d="M46.1953 274.65C54.9088 290.223 63.6226 305.794 72.3362 321.362H78.3398C70.981 294.644 64.2193 267.745 54.4737 241.743C48.0605 245.871 50.7433 252.393 50.1467 258.048C49.55 263.704 51.993 270.177 46.1953 274.65Z" fill="#FAD9C9"/>
<path d="M186.919 382.207C192.627 379.186 194.874 373.67 197.051 368.12C195.46 368.034 193.876 367.944 192.274 367.861C190.488 369.812 189.106 372.099 188.209 374.588C187.312 377.077 186.918 379.719 187.05 382.361L186.919 382.207Z" fill="#F9D8AC"/>
<path d="M78.347 321.355H72.3425C76.354 336.227 85.1014 348.636 91.5746 362.232L94.9141 360.731L78.347 321.355Z" fill="#F9D8AC"/>
<path d="M118.64 403.849C118.745 406.395 119.752 408.82 121.48 410.692C123.208 412.564 125.545 413.762 128.074 414.071C128.082 411.481 127.09 408.987 125.306 407.108C123.521 405.23 121.082 404.113 118.494 403.988L118.64 403.849Z" fill="#F9D8AC"/>
<path d="M165.405 411.144C163.513 412.54 161.709 414.053 160.005 415.674C159.375 416.342 158.995 418.248 159.445 418.773C161.322 420.953 162.602 418.739 163.638 417.614C164.468 416.752 165.057 415.687 165.343 414.525C165.629 413.363 165.602 412.146 165.266 410.998L165.405 411.144Z" fill="#F9D8AC"/>
<path d="M169.004 407.564L165.393 411.14L165.255 410.994C167.672 410.994 168.55 409.493 168.85 407.399L169.004 407.564Z" fill="#F9D8AC"/>
<path d="M168.851 407.391L170.645 405.969C170.307 406.04 169.842 405.999 169.665 406.205C169.389 406.626 169.167 407.08 169.005 407.556L168.851 407.391Z" fill="#F9D8AC"/>
<path d="M118.51 403.988L117.928 402.618L118.656 403.849L118.51 403.988Z" fill="#F9D8AC"/>
<path d="M187.074 382.361L185.487 383.773C185.779 383.675 186.185 383.667 186.342 383.465C186.586 383.07 186.782 382.648 186.928 382.207L187.074 382.361Z" fill="#F9D8AC"/>
<path d="M163.493 750.425C180.601 741.34 228.038 655.585 229.914 631.786C206.757 670.693 190.103 713.308 163.493 750.425Z" fill="#90A58F"/>
<path d="M68.0816 619.864C76.6601 639.682 90.0683 656.137 103.57 672.949C105.049 671.177 106.456 670.063 106.268 669.635C98.3615 651.386 86.1091 636.034 73.3202 621.091C72.3783 619.992 69.9618 620.157 68.2318 619.733L68.0816 619.864Z" fill="#88A08A"/>
<path d="M53.8242 598.177C53.0249 591.175 49.1934 586.939 40.735 584.207C41.4855 593.836 46.2852 597.225 53.6703 598.302L53.8242 598.177Z" fill="#88A08A"/>
<path d="M108.236 682.942C108.491 684.769 109.238 686.492 111.238 686.458C113.362 686.42 113.951 684.661 113.381 682.871C113.213 682 112.727 681.223 112.018 680.69C111.31 680.158 110.429 679.907 109.546 679.988C108.979 680.071 108.663 681.91 108.236 682.942Z" fill="#88A08A"/>
<path d="M64.5951 612.599C64.6737 611.634 64.5419 610.663 64.2094 609.754C63.8769 608.844 63.351 608.018 62.6684 607.331C61.9858 606.644 61.1626 606.113 60.2552 605.775C59.3478 605.437 58.378 605.299 57.4124 605.372L57.3262 605.451C57.2506 606.416 57.385 607.385 57.7202 608.293C58.0553 609.201 58.5832 610.026 59.2676 610.71C59.952 611.395 60.7764 611.923 61.6844 612.258C62.5924 612.593 63.5624 612.727 64.5273 612.652L64.5951 612.599Z" fill="#88A08A"/>
<path d="M53.6712 598.302C53.4896 599.72 53.7413 601.159 54.3922 602.431C55.0432 603.703 56.0635 604.75 57.3194 605.432L57.4055 605.353C57.5817 603.935 57.3357 602.495 56.6982 601.216C56.0608 599.936 55.06 598.873 53.8215 598.159L53.6712 598.302Z" fill="#88A08A"/>
<path d="M64.529 612.659C64.3469 614.078 64.5883 615.52 65.2225 616.802C65.8568 618.085 66.8554 619.151 68.0938 619.868L68.244 619.74C68.4173 618.324 68.1621 616.887 67.512 615.617C66.8619 614.346 65.8471 613.299 64.5968 612.61L64.529 612.659Z" fill="#88A08A"/>
</svg>
