<svg width="320" height="901" viewBox="0 0 320 901" fill="none" xmlns="http://www.w3.org/2000/svg">
<path d="M609.512 680.598C615.53 760.452 618.539 800.379 594.933 825.951C571.327 851.523 531.205 851.711 450.961 852.088L192.372 853.302C116.948 853.656 79.2363 853.833 55.6951 830.512C32.1539 807.19 31.9769 769.478 31.6228 694.054L29.5223 246.622C29.1683 171.198 28.9912 133.486 52.3124 109.945C75.6336 86.4035 113.346 86.2264 188.769 85.8724L435.494 84.7141C520.084 84.317 562.379 84.1185 586.292 110.051C610.205 135.983 606.487 179.267 599.053 265.835C592.701 339.795 588.24 418.769 592.446 465.863C596.904 515.769 603.605 602.21 609.512 680.598Z" fill="#F2AB94"/>
<g clip-path="url(#clip0_848_5122)">
<path d="M82.9199 354.871L82.8714 354.319C82.8176 354.54 82.8461 354.745 82.9199 354.871Z" fill="#FFF5F0"/>
<path d="M197.477 128.217C197.563 131.56 206.147 130.93 204.572 140.646C204.219 142.823 201.555 145.535 201.672 147.333C201.828 149.499 204.034 150.73 204.147 153.28C204.352 158.381 197.607 161.297 194.345 164.136C195.064 168.473 198.162 171.466 199.143 175.839C202.177 189.493 180.646 195.723 180.861 201.333C181.007 205.045 183.969 208.62 181.789 213.111C180.284 216.176 175.147 218.048 174.794 218.862C174.251 220.112 177.168 229.586 175.868 234.333C173.607 242.583 165.961 240.114 165.542 242.023C166.527 247.027 169.407 250.597 170.518 255.873C174.081 272.611 157.84 279.868 144.901 285.307C151.131 298.255 137.765 306.09 126.76 308.428C129.326 310.107 133.178 310.336 135.503 312.651C150.224 327.203 119.074 357.631 101.385 355.358C101.243 355.35 83.5647 354.95 82.898 354.87L82.8495 354.318C82.7957 354.538 82.8242 354.743 82.898 354.87L70.4397 359.075C62.0736 359.473 49.9309 354.945 42.9587 350.379C36.3 346.014 26.7924 337.207 29.837 328.432C30.5982 326.239 33.0662 325.795 32.1585 323.95C25.2092 318.999 16.069 317.702 13.2413 307.765C9.55687 294.785 21.055 298.175 22.9171 295.945C23.2902 279.401 31.0112 288.143 41.4506 287.095C38.6925 276.673 25.0365 275.352 17.6298 269.539C10.6701 264.078 6.26292 254.698 11.5102 246.523C15.191 240.738 17.1677 245.821 22.3172 245.11L18.9691 237.767L24.2727 234.805C19.949 225.39 9.57248 217.507 15.205 205.59C20.0707 195.275 32.3859 206.143 34.1212 202.623C33.618 196.711 27.184 189.938 26.5182 184.709C25.6374 177.96 34.6411 172.654 33.13 166.927C32.2483 163.618 24.9871 157.752 22.8771 152.172C19.0417 142.073 20.1939 128.852 26.2599 119.911C32.3461 110.972 38.5078 108.977 43.54 120.165C49.2745 118.511 48.0042 111.129 55.4783 114.097C51.0717 101.97 41.9699 83.2538 51.8866 71.4892C59.1331 62.8835 65.4869 70.3235 69.7512 66.018C71.0712 64.6922 71.1554 56.088 71.8096 53.2979C74.4097 42.0754 85.6048 26.9473 97.306 24.1829C103.868 22.6395 104.363 28.0013 109.714 27.6681C109.403 20.5872 108.425 12.3881 115.855 8.57605C125.571 3.5974 131.44 5.51339 133.94 16.5099C135.914 17.5228 148.786 5.34371 155.448 14.7763C160.384 21.7657 147.081 33.329 157.871 37.0029C165.569 39.6179 170.294 37.8431 173.257 48.9282C174.286 52.836 172.098 57.1225 172.548 59.1438C173.078 61.5159 175.789 62.4707 176.667 65.1484C177.886 68.9454 174.322 68.6522 175.557 71.4935C189.765 65.5811 194.102 80.9405 189.603 91.928C187.699 96.5773 183.471 99.5824 180.73 103.592C190.248 100.25 195.702 98.1725 200.594 108.986C204.535 117.646 203.679 121.442 197.455 128.256L197.477 128.217Z" fill="#82A088"/>
<path d="M78.6748 347.923C78.7272 321.712 82.4266 296.104 87.6527 270.486C87.4622 269.925 85.811 270.661 84.8194 269.544C74.4095 257.772 80.1982 234.67 71.9072 220.113C68.5176 214.152 51.9305 206.348 45.5269 200.431C42.9032 198.016 34.6837 191.157 40.4532 188.916C43.1243 193.613 46.8241 197.435 50.9989 200.797C59.1149 207.345 72.161 211.051 75.7649 221.279C77.1772 221.139 76.4957 219.938 76.5584 218.884C77.1083 211.345 75.4183 205.546 71.6748 199.035L74.538 198.106C82.5521 209.104 79.1881 221.197 79.803 233.446C79.9644 236.549 82.8203 269.629 88.233 267.569C96.175 225.016 103.107 181.996 108.653 139.015C110.531 124.534 109.888 106.26 114.421 92.6487C114.866 91.3115 113.608 90.2394 116.308 89.9929C118.813 91.6682 116.298 128.153 115.843 133.764C113.89 158.397 110.333 184.684 107.022 209.236C100.984 253.999 90.0094 298.957 92.5354 344.432C91.8548 345.613 92.2352 345.717 92.1976 346.691C92.135 349.456 94.1027 361.194 95.4553 363.086C96.1232 363.146 98.2524 372.166 98.9776 374.001C101.33 379.961 109.772 393 109.9 398.035C109.953 399.87 106.555 405.346 105.217 406.976C102.715 410.043 94.6296 418.05 91.4388 412.853C83.1042 399.373 78.0287 349.207 78.0287 349.207C78.6741 348.961 78.6804 348.513 78.6748 347.923Z" fill="#FFF5F0"/>
<path d="M150.279 200.023L172.908 180.812C176.381 182.626 167.276 190.328 166.068 191.477C155.679 201.26 143.258 208.947 132.791 218.664L141.649 217.868C146.423 217.989 155.478 209.43 156.624 216.173C149.464 221.609 140.459 220.769 132.553 223.006C122.269 225.895 115.617 241.273 112.19 250.655L108.917 250.603C112.093 235.527 122.942 223.472 133.772 213.126C136.124 210.864 144.737 204.945 145.703 203.414C146.174 202.669 148.138 192.915 149.212 190.251C151.151 185.36 154.5 181.041 155.689 175.759L158.732 177.283L150.256 200.062L150.279 200.023Z" fill="#FFF5F0"/>
<path d="M35.1513 218.518C36.903 222.937 34.7411 227.816 37.6285 231.956C39.8414 235.12 55.4942 239.816 55.6439 248.251C58.5348 243.09 59.3634 235.996 58.3032 230.214C66.4245 230.167 60.1661 245.426 59.8479 250.78C59.4006 258.304 61.1165 257.165 62.3869 262.491C65.1932 274.157 65.1628 297.602 73.1193 305.463C74.3101 306.653 81.7055 309.575 78.0401 311.678C74.3747 313.78 66.1223 302.34 64.9256 299.195C63.2181 294.718 63.0112 282.453 61.6767 280.257C61.1954 279.455 54.1832 275.904 52.0316 273.762C50.0911 271.835 40.2917 260.404 47.687 261.617C51.238 266.917 54.4915 273.114 60.8388 275.527C60.2352 264.46 54.0167 246.872 44.8345 240.118C41.1495 237.416 35.1126 236.284 32.9974 231.477C31.9934 229.199 32.2231 216.777 35.1704 218.54L35.1513 218.518Z" fill="#FFF5F0"/>
<path d="M72.7175 182.57C74.2336 182.395 73.3315 181.141 73.2737 180.059C73.0758 176.2 72.3553 168.81 71.3437 165.29C70.4808 162.349 64.1437 153.261 69.881 154.64C74.1539 155.668 76.6569 180.993 79.336 186.24C80.756 189.052 84.3097 191.909 86.154 195.112C89.7676 201.412 92.6199 208.196 96.0652 214.588L92.8863 215.01C87.5273 207.609 85.1632 198.432 79.0607 191.556C74.503 186.421 63.791 179.047 57.293 177.114C54.9938 176.428 35.0326 174.041 37.3136 169.556C39.8812 168.121 55.3787 175.087 56.6301 172.862C49.6416 165.832 40.2037 156.194 38.1752 146.161C37.878 144.658 37.4671 143.697 38.5856 142.339C42.7785 141.632 41.3003 145.96 42.5187 148.74C48.6083 162.677 62.1086 172.435 72.6948 182.609L72.7175 182.57Z" fill="#FFF5F0"/>
<path d="M179.925 127.011C181.281 129.533 179.881 131.18 178.779 133.292C174.871 140.835 168.472 148.534 163.504 155.444C169.654 153.632 175.983 150.548 180.964 146.509C181.776 145.845 185.912 139.598 186.446 143.619C187.55 151.744 161.561 159.378 155.753 163.633C147.35 169.789 129.107 192.232 123.909 201.631C122.244 204.646 122.779 209.685 118.275 210.495C114.521 208.603 127.003 190.316 128.771 187.958C138.564 174.843 151.857 164.134 162.108 151.535C167.684 144.682 171.351 136.738 176.448 129.714C177.467 128.309 177.775 127.249 179.904 127.03L179.925 127.011Z" fill="#FFF5F0"/>
<path d="M85.4007 87.2592L93.4869 63.5C93.968 47.8774 100.215 50.2637 97.0299 64.484C95.5036 71.3335 88.3648 84.9727 89.0563 91.14C89.7477 97.3072 109.614 126.961 103.369 130.701L100.443 129.266C97.4263 103.34 68.857 84.1998 79.54 56.4634L82.8128 56.5154C83.2358 57.2733 79.6961 69.9257 80.7805 73.2466L85.3792 87.2783L85.4007 87.2592Z" fill="#FFF5F0"/>
<path d="M130.609 68.1295C134.227 59.9797 136.074 50.8087 135.403 41.8951C139.849 37.2748 139.197 45.8452 139.055 48.5843C138.542 58.2417 134.078 67.2774 133.057 76.2329C132.301 82.7822 133.31 88.7445 131.971 95.8697C131.407 98.8483 125.571 117.958 124.054 118.499C122.482 117.897 121.788 117.591 121.696 115.713C121.644 114.53 127.583 99.8625 128.382 95.6563C130.193 86.0761 130.359 75.0752 126.379 66.026C122.4 56.9768 113.966 50.6546 113.432 40.4669L116.984 39.9251C117.205 50.9286 128.681 57.4316 130.588 68.1283L130.609 68.1295Z" fill="#FFF5F0"/>
<path d="M79.7395 125.574C82.8685 126.676 76.595 109.329 77.2339 108.166L80.1185 107.218C82.988 115.082 83.6255 123.525 86.9065 131.312C88.3345 134.673 90.8459 137.265 92.0272 140.327C95.3983 148.994 97.5358 158.219 100.761 166.938L97.878 167.866C92.053 159.745 93.2141 149.454 88.5154 140.871C81.1922 127.492 55.7063 113.643 59.8028 95.7321C60.2142 93.9452 61.7732 92.0229 62.9515 94.1079C63.8521 95.7286 62.9052 99.3357 63.3427 101.56C65.4518 112.289 73.2894 117.7 79.718 125.593L79.7395 125.574Z" fill="#FFF5F0"/>
<path d="M151.672 109.496C152.028 111.369 153.845 109.564 154.791 109.05C158.915 106.772 162.523 103.567 166.665 101.33C170.299 105.576 158.434 111.099 155.032 113.216C151.63 115.334 146.733 116.936 144.088 118.977C142.062 120.546 133.423 133.404 131.971 136.269C130.66 138.816 128.831 146.645 127.821 147.888C126.548 149.46 125.811 148.501 124.569 147.837C129.802 123.806 150.998 107.136 165.924 88.8099L168.694 89.4427C170.249 92.0385 154.242 106.657 151.692 109.497L151.672 109.496Z" fill="#FFF5F0"/>
<path d="M78.0289 349.207C74.238 351.708 73.128 345.394 71.1186 342.914C65.0511 335.45 54.6317 336.846 48.4277 330.31C44.9043 326.6 42.7154 321.321 38.8416 317.346C37.1538 315.617 28.4098 310.05 29.2637 308.35C30.6454 305.644 39.3192 312.734 40.5493 313.946C44.1468 317.437 51.6467 330.583 55.4156 330.848C57.8573 330.504 56.2943 329.414 56.015 327.952C54.6539 320.728 55.2888 314.497 53.8155 307.449L56.9756 304.604C60.1188 311.629 56.2223 328.229 62.0456 333.297C62.9349 334.083 65.5005 334.052 67.0087 335.037C72.8065 338.822 75.2091 341.875 78.6774 347.882C78.6829 348.472 78.6564 348.918 78.0313 349.166L78.0289 349.207Z" fill="#FFF5F0"/>
<path d="M161.554 129.826C164.477 131.302 157.573 138.605 156.585 139.829C146.465 152.273 125.333 168.541 119.225 182.302C117.887 185.296 118.089 188.747 117.312 190.859C116.099 194.165 113.702 192.374 113.695 188.384C113.684 175.562 140.379 152.298 149.318 142.612C151.124 140.644 159.735 128.924 161.553 129.846L161.554 129.826Z" fill="#FFF5F0"/>
<path d="M132.327 246.662C136.633 248.852 120.639 264.956 119.979 267.848C127.535 266.018 134.051 262.843 140.652 258.941C144.695 261.095 134.613 267.09 132.377 268.076C122.31 272.444 117.782 268.511 110.448 279.615C109.286 281.378 106.643 290.237 104.413 289.066C103.558 287.367 103.485 286.202 103.878 284.374C104.969 279.371 124.376 254.453 128.87 249.367C129.895 248.207 130.142 246.797 132.306 246.681L132.327 246.662Z" fill="#FFF5F0"/>
<path d="M92.5524 344.433C94.777 340.556 101.216 339.372 103.988 336.891C107.428 333.798 106.17 324.158 110.255 321.49C112.161 320.24 112.668 322.997 112.718 324.221C112.746 324.772 108.71 332.083 109.684 334.522C112.662 333.377 115.933 332.777 118.857 331.506C122.199 330.056 128.435 323.731 130.329 328.83C123.496 334.936 114.417 336.371 106.62 339.856C101.874 341.996 97.1658 346.58 92.2337 346.714C92.251 345.738 91.8897 345.656 92.5715 344.455L92.5524 344.433Z" fill="#FFF5F0"/>
<path d="M134.419 279.229L134.585 282.943C124.757 287.732 115.239 295.185 108.154 303.475C104.656 307.561 102.447 313.23 98.1643 315.785C94.4502 313.915 105.257 301.206 106.76 299.545C114.189 291.296 124.114 283.501 134.419 279.229Z" fill="#FFF5F0"/>
<g clip-path="url(#clip1_848_5122)">
<path d="M83.1231 354.871L83.0745 354.319C83.0207 354.54 83.0492 354.745 83.1231 354.871Z" fill="#FFF5F0"/>
<path d="M197.68 128.217C197.766 131.56 206.35 130.93 204.775 140.646C204.422 142.823 201.758 145.535 201.875 147.333C202.031 149.499 204.237 150.73 204.35 153.28C204.555 158.381 197.81 161.297 194.548 164.136C195.267 168.473 198.365 171.466 199.346 175.839C202.38 189.493 180.849 195.723 181.065 201.333C181.21 205.045 184.172 208.62 181.992 213.111C180.487 216.176 175.35 218.048 174.997 218.862C174.454 220.112 177.371 229.586 176.071 234.333C173.81 242.583 166.164 240.114 165.746 242.023C166.73 247.027 169.611 250.597 170.721 255.873C174.284 272.611 158.043 279.868 145.104 285.307C151.334 298.255 137.968 306.09 126.963 308.428C129.529 310.107 133.382 310.336 135.706 312.651C150.427 327.203 119.277 357.631 101.588 355.358C101.446 355.35 83.7678 354.95 83.1011 354.87L83.0526 354.318C82.9988 354.538 83.0273 354.743 83.1011 354.87L70.6428 359.075C62.2767 359.473 50.134 354.945 43.1618 350.379C36.5031 346.014 26.9955 337.207 30.0401 328.432C30.8013 326.239 33.2694 325.795 32.3617 323.95C25.4124 318.999 16.2721 317.702 13.4445 307.765C9.76 294.785 21.2582 298.175 23.1202 295.945C23.4933 279.401 31.2143 288.143 41.6538 287.095C38.8956 276.673 25.2397 275.352 17.8329 269.539C10.8732 264.078 6.46605 254.698 11.7133 246.523C15.3942 240.738 17.3709 245.821 22.5203 245.11L19.1722 237.767L24.4758 234.805C20.1521 225.39 9.77561 217.507 15.4081 205.59C20.2738 195.275 32.589 206.143 34.3243 202.623C33.8212 196.711 27.3871 189.938 26.7213 184.709C25.8405 177.96 34.8443 172.654 33.3331 166.927C32.4514 163.618 25.1902 157.752 23.0802 152.172C19.2448 142.073 20.3971 128.852 26.463 119.911C32.5492 110.972 38.7109 108.977 43.7431 120.165C49.4776 118.511 48.2073 111.129 55.6815 114.097C51.2748 101.97 42.173 83.2538 52.0897 71.4892C59.3363 62.8835 65.69 70.3235 69.9544 66.018C71.2744 64.6922 71.3585 56.088 72.0127 53.2979C74.6128 42.0754 85.8079 26.9473 97.5091 24.1829C104.071 22.6395 104.566 28.0013 109.917 27.6681C109.606 20.5872 108.628 12.3881 116.058 8.57605C125.774 3.5974 131.643 5.51339 134.143 16.5099C136.117 17.5228 148.989 5.34371 155.651 14.7763C160.587 21.7657 147.284 33.329 158.074 37.0029C165.773 39.6179 170.497 37.8431 173.46 48.9282C174.489 52.836 172.301 57.1225 172.751 59.1438C173.281 61.5159 175.992 62.4707 176.87 65.1484C178.089 68.9454 174.525 68.6522 175.761 71.4935C189.969 65.5811 194.305 80.9405 189.806 91.928C187.902 96.5773 183.674 99.5824 180.933 103.592C190.451 100.25 195.906 98.1725 200.797 108.986C204.738 117.646 203.882 121.442 197.658 128.256L197.68 128.217Z" fill="#82A088"/>
<path d="M78.8779 347.923C78.9303 321.712 82.6297 296.104 87.8558 270.486C87.6653 269.925 86.0141 270.661 85.0225 269.544C74.6126 257.772 80.4013 234.67 72.1103 220.113C68.7208 214.152 52.1336 206.348 45.73 200.431C43.1064 198.016 34.8868 191.157 40.6563 188.916C43.3274 193.613 47.0272 197.435 51.202 200.797C59.318 207.345 72.3641 211.051 75.9681 221.279C77.3803 221.139 76.6989 219.938 76.7615 218.884C77.3114 211.345 75.6214 205.546 71.878 199.035L74.7411 198.106C82.7553 209.104 79.3912 221.197 80.0061 233.446C80.1675 236.549 83.0234 269.629 88.4361 267.569C96.3781 225.016 103.31 181.996 108.856 139.015C110.734 124.534 110.091 106.26 114.624 92.6487C115.07 91.3115 113.811 90.2394 116.511 89.9929C119.016 91.6682 116.501 128.153 116.046 133.764C114.093 158.397 110.536 184.684 107.225 209.236C101.187 253.999 90.2125 298.957 92.7385 344.432C92.0579 345.613 92.4383 345.717 92.4007 346.691C92.3381 349.456 94.3058 361.194 95.6584 363.086C96.3263 363.146 98.4556 372.166 99.1808 374.001C101.533 379.961 109.975 393 110.103 398.035C110.157 399.87 106.759 405.346 105.421 406.976C102.919 410.043 94.8328 418.05 91.6419 412.853C83.3073 399.373 78.2318 349.207 78.2318 349.207C78.8773 348.961 78.8835 348.513 78.8779 347.923Z" fill="#FFF5F0"/>
<path d="M150.482 200.023L173.111 180.812C176.584 182.626 167.479 190.328 166.271 191.477C155.882 201.26 143.461 208.947 132.994 218.664L141.852 217.868C146.626 217.989 155.681 209.43 156.827 216.173C149.667 221.609 140.662 220.769 132.757 223.006C122.472 225.895 115.82 241.273 112.393 250.655L109.121 250.603C112.296 235.527 123.145 223.472 133.975 213.126C136.327 210.864 144.94 204.945 145.906 203.414C146.377 202.669 148.341 192.915 149.415 190.251C151.354 185.36 154.703 181.041 155.892 175.759L158.935 177.283L150.459 200.062L150.482 200.023Z" fill="#FFF5F0"/>
<path d="M35.3545 218.518C37.1062 222.937 34.9442 227.816 37.8316 231.956C40.0445 235.12 55.6973 239.816 55.847 248.251C58.7379 243.09 59.5666 235.996 58.5063 230.214C66.6277 230.167 60.3693 245.426 60.051 250.78C59.6037 258.304 61.3196 257.165 62.59 262.491C65.3963 274.157 65.3659 297.602 73.3224 305.463C74.5132 306.653 81.9087 309.575 78.2433 311.678C74.5779 313.78 66.3255 302.34 65.1288 299.195C63.4212 294.718 63.2143 282.453 61.8798 280.257C61.3985 279.455 54.3863 275.904 52.2348 273.762C50.2942 271.835 40.4948 260.404 47.8902 261.617C51.4412 266.917 54.6946 273.114 61.042 275.527C60.4383 264.46 54.2198 246.872 45.0377 240.118C41.3527 237.416 35.3158 236.284 33.2005 231.477C32.1965 229.199 32.4262 216.777 35.3735 218.54L35.3545 218.518Z" fill="#FFF5F0"/>
<path d="M72.9206 182.57C74.4367 182.395 73.5346 181.141 73.4768 180.059C73.2789 176.2 72.5584 168.81 71.5468 165.29C70.684 162.349 64.3468 153.261 70.0841 154.64C74.357 155.668 76.86 180.993 79.5392 186.24C80.9591 189.052 84.5128 191.909 86.3572 195.112C89.9707 201.412 92.823 208.196 96.2683 214.588L93.0894 215.01C87.7304 207.609 85.3663 198.432 79.2639 191.556C74.7061 186.421 63.9941 179.047 57.4961 177.114C55.197 176.428 35.2357 174.041 37.5167 169.556C40.0843 168.121 55.5819 175.087 56.8333 172.862C49.8447 165.832 40.4068 156.194 38.3784 146.161C38.0811 144.658 37.6702 143.697 38.7887 142.339C42.9816 141.632 41.5034 145.96 42.7218 148.74C48.8114 162.677 62.3118 172.435 72.898 182.609L72.9206 182.57Z" fill="#FFF5F0"/>
<path d="M180.128 127.011C181.484 129.533 180.084 131.18 178.982 133.292C175.074 140.835 168.675 148.534 163.707 155.444C169.858 153.632 176.186 150.548 181.167 146.509C181.98 145.845 186.115 139.598 186.649 143.619C187.753 151.744 161.764 159.378 155.956 163.633C147.553 169.789 129.31 192.232 124.112 201.631C122.448 204.646 122.982 209.685 118.478 210.495C114.725 208.603 127.206 190.316 128.974 187.958C138.768 174.843 152.06 164.134 162.311 151.535C167.887 144.682 171.554 136.738 176.651 129.714C177.671 128.309 177.978 127.249 180.107 127.03L180.128 127.011Z" fill="#FFF5F0"/>
<path d="M85.6038 87.2592L93.6901 63.5C94.1711 47.8774 100.418 50.2637 97.233 64.484C95.7068 71.3335 88.568 84.9727 89.2594 91.14C89.9509 97.3072 109.817 126.961 103.572 130.701L100.646 129.266C97.6294 103.34 69.0601 84.1998 79.7431 56.4634L83.016 56.5154C83.4389 57.2733 79.8992 69.9257 80.9837 73.2466L85.5823 87.2783L85.6038 87.2592Z" fill="#FFF5F0"/>
<path d="M130.812 68.1295C134.43 59.9797 136.277 50.8087 135.606 41.8951C140.052 37.2748 139.4 45.8452 139.258 48.5843C138.745 58.2417 134.281 67.2774 133.26 76.2329C132.505 82.7822 133.513 88.7445 132.174 95.8697C131.611 98.8483 125.774 117.958 124.257 118.499C122.685 117.897 121.991 117.591 121.899 115.713C121.848 114.53 127.786 99.8625 128.585 95.6563C130.396 86.0761 130.562 75.0752 126.582 66.026C122.603 56.9768 114.169 50.6546 113.635 40.4669L117.187 39.9251C117.408 50.9286 128.884 57.4316 130.792 68.1283L130.812 68.1295Z" fill="#FFF5F0"/>
<path d="M79.9426 125.574C83.0716 126.676 76.7981 109.329 77.437 108.166L80.3216 107.218C83.1911 115.082 83.8286 123.525 87.1097 131.312C88.5376 134.673 91.0491 137.265 92.2303 140.327C95.6014 148.994 97.7389 158.219 100.965 166.938L98.0811 167.866C92.2562 159.745 93.4173 149.454 88.7186 140.871C81.3953 127.492 55.9095 113.643 60.0059 95.7321C60.4174 93.9452 61.9763 92.0229 63.1546 94.1079C64.0553 95.7286 63.1083 99.3357 63.5458 101.56C65.6549 112.289 73.4925 117.7 79.9211 125.593L79.9426 125.574Z" fill="#FFF5F0"/>
<path d="M151.875 109.496C152.232 111.369 154.048 109.564 154.994 109.05C159.118 106.772 162.727 103.567 166.868 101.33C170.502 105.576 158.637 111.099 155.235 113.216C151.833 115.334 146.936 116.936 144.291 118.977C142.265 120.546 133.626 133.404 132.174 136.269C130.863 138.816 129.034 146.645 128.025 147.888C126.751 149.46 126.014 148.501 124.772 147.837C130.005 123.806 151.201 107.136 166.127 88.8099L168.897 89.4427C170.452 92.0385 154.445 106.657 151.895 109.497L151.875 109.496Z" fill="#FFF5F0"/>
<path d="M78.232 349.207C74.4411 351.708 73.3311 345.394 71.3217 342.914C65.2543 335.45 54.8348 336.846 48.6308 330.31C45.1075 326.6 42.9186 321.321 39.0447 317.346C37.3569 315.617 28.6129 310.05 29.4668 308.35C30.8485 305.644 39.5223 312.734 40.7525 313.946C44.3499 317.437 51.8498 330.583 55.6187 330.848C58.0604 330.504 56.4975 329.414 56.2181 327.952C54.857 320.728 55.4919 314.497 54.0186 307.449L57.1787 304.604C60.3219 311.629 56.4255 328.229 62.2487 333.297C63.138 334.083 65.7036 334.052 67.2118 335.037C73.0096 338.822 75.4123 341.875 78.8805 347.882C78.8861 348.472 78.8595 348.918 78.2344 349.166L78.232 349.207Z" fill="#FFF5F0"/>
<path d="M161.757 129.826C164.681 131.302 157.776 138.605 156.788 139.829C146.668 152.273 125.537 168.541 119.428 182.302C118.09 185.296 118.292 188.747 117.516 190.859C116.302 194.165 113.905 192.374 113.898 188.384C113.887 175.562 140.582 152.298 149.521 142.612C151.327 140.644 159.939 128.924 161.756 129.846L161.757 129.826Z" fill="#FFF5F0"/>
<path d="M132.53 246.662C136.836 248.852 120.842 264.956 120.182 267.848C127.738 266.018 134.254 262.843 140.855 258.941C144.898 261.095 134.816 267.09 132.58 268.076C122.513 272.444 117.985 268.511 110.651 279.615C109.489 281.378 106.846 290.237 104.616 289.066C103.761 287.367 103.688 286.202 104.081 284.374C105.172 279.371 124.579 254.453 129.073 249.367C130.099 248.207 130.345 246.797 132.509 246.681L132.53 246.662Z" fill="#FFF5F0"/>
<path d="M92.7556 344.433C94.9801 340.556 101.419 339.372 104.191 336.891C107.631 333.798 106.373 324.158 110.458 321.49C112.364 320.24 112.871 322.997 112.921 324.221C112.949 324.772 108.913 332.083 109.887 334.522C112.865 333.377 116.136 332.777 119.06 331.506C122.402 330.056 128.638 323.731 130.532 328.83C123.699 334.936 114.62 336.371 106.823 339.856C102.077 341.996 97.3689 346.58 92.4369 346.714C92.4542 345.738 92.0928 345.656 92.7746 344.455L92.7556 344.433Z" fill="#FFF5F0"/>
<path d="M134.622 279.229L134.788 282.943C124.961 287.732 115.443 295.185 108.357 303.475C104.859 307.561 102.65 313.23 98.3675 315.785C94.6533 313.915 105.46 301.206 106.963 299.545C114.392 291.296 124.317 283.501 134.622 279.229Z" fill="#FFF5F0"/>
</g>
</g>
<g clip-path="url(#clip2_848_5122)">
<path d="M190.924 834.79L190.972 834.237C191.026 834.458 190.998 834.663 190.924 834.79Z" fill="#FFF5F0"/>
<path d="M76.3665 608.135C76.2804 611.478 67.6971 610.848 69.2717 620.565C69.6249 622.742 72.2888 625.453 72.1719 627.251C72.0158 629.418 69.81 630.648 69.6971 633.199C69.4917 638.299 76.2372 641.216 79.4988 644.054C78.7799 648.391 75.6819 651.384 74.7007 655.757C71.6667 669.411 93.1982 675.641 92.9823 681.251C92.8368 684.964 89.8751 688.539 92.0547 693.029C93.5595 696.094 98.6966 697.967 99.0501 698.78C99.5924 700.03 96.6762 709.505 97.9757 714.251C100.236 722.502 107.883 720.032 108.301 721.941C107.317 726.945 104.436 730.515 103.326 735.792C99.7629 752.53 116.004 759.787 128.943 765.225C122.713 778.173 136.079 786.008 147.083 788.346C144.518 790.025 140.665 790.254 138.341 792.57C123.62 807.122 154.77 837.549 172.459 835.277C172.601 835.268 190.279 834.869 190.946 834.788L190.994 834.236C191.048 834.457 191.02 834.662 190.946 834.788L203.404 838.993C211.77 839.392 223.913 834.864 230.885 830.297C237.544 825.933 247.051 817.125 244.007 808.351C243.246 806.157 240.778 805.714 241.685 803.869C248.635 798.917 257.775 797.621 260.602 787.683C264.287 774.703 252.789 778.094 250.927 775.864C250.554 759.319 242.833 768.061 232.393 767.013C235.151 756.591 248.807 755.271 256.214 749.457C263.174 743.996 267.581 734.616 262.334 726.441C258.653 720.656 256.676 725.74 251.527 725.028L254.875 717.685L249.571 714.724C253.895 705.308 264.271 697.425 258.639 685.508C253.773 675.193 241.458 686.061 239.723 682.541C240.226 676.63 246.66 669.857 247.326 664.627C248.206 657.879 239.203 652.573 240.714 646.845C241.595 643.536 248.857 637.671 250.967 632.091C254.802 621.992 253.65 608.77 247.584 599.829C241.498 590.89 235.336 588.895 230.304 600.083C224.569 598.43 225.84 591.047 218.365 594.016C222.772 581.888 231.874 563.172 221.957 551.408C214.711 542.802 208.357 550.242 204.093 545.936C202.773 544.61 202.688 536.006 202.034 533.216C199.434 521.994 188.239 506.866 176.538 504.101C169.976 502.558 169.48 507.92 164.13 507.586C164.441 500.506 165.419 492.306 157.989 488.494C148.272 483.516 142.404 485.432 139.904 496.428C137.93 497.441 125.058 485.262 118.396 494.695C113.46 501.684 126.762 513.247 115.973 516.921C108.274 519.536 103.55 517.761 100.587 528.847C99.5579 532.754 101.746 537.041 101.296 539.062C100.766 541.434 98.0552 542.389 97.1767 545.067C95.9577 548.864 99.5214 548.571 98.2864 551.412C84.0784 545.499 79.7418 560.859 84.2406 571.846C86.1448 576.496 90.3725 579.501 93.1136 583.51C83.5958 580.168 78.1413 578.091 73.2497 588.904C69.3084 597.564 70.1648 601.36 76.3892 608.174L76.3665 608.135Z" fill="#82A088"/>
<path d="M195.169 827.841C195.117 801.63 191.417 776.022 186.191 750.404C186.382 749.843 188.033 750.579 189.024 749.462C199.434 737.69 193.646 714.588 201.937 700.032C205.326 694.07 221.913 686.266 228.317 680.35C230.941 677.935 239.16 671.076 233.391 668.834C230.719 673.531 227.02 677.353 222.845 680.716C214.729 687.263 201.683 690.969 198.079 701.197C196.667 701.057 197.348 699.857 197.285 698.802C196.735 691.263 198.425 685.464 202.169 678.953L199.306 678.024C191.292 689.023 194.656 701.116 194.041 713.364C193.879 716.467 191.023 749.547 185.611 747.487C177.669 704.934 170.737 661.914 165.191 618.933C163.313 604.452 163.956 586.178 159.423 572.567C158.977 571.23 160.236 570.158 157.536 569.911C155.031 571.586 157.546 608.072 158.001 613.682C159.954 638.315 163.511 664.602 166.822 689.154C172.86 733.917 183.834 778.875 181.308 824.35C181.989 825.531 181.609 825.635 181.646 826.61C181.709 829.374 179.741 841.112 178.388 843.004C177.721 843.064 175.591 852.085 174.866 853.919C172.514 859.879 164.072 872.918 163.944 877.953C163.89 879.788 167.288 885.264 168.626 886.894C171.128 889.961 179.214 897.968 182.405 892.771C190.74 879.291 195.815 829.125 195.815 829.125C195.17 828.879 195.163 828.432 195.169 827.841Z" fill="#FFF5F0"/>
<path d="M123.565 679.941L100.936 660.73C97.4628 662.545 106.568 670.246 107.776 671.395C118.165 681.178 130.586 688.866 141.053 698.583L132.195 697.786C127.42 697.907 118.366 689.348 117.22 696.092C124.38 701.528 133.385 700.687 141.29 702.924C151.575 705.813 158.227 721.191 161.653 730.573L164.926 730.521C161.751 715.446 150.902 703.391 140.072 693.044C137.72 690.782 129.107 684.863 128.141 683.333C127.67 682.587 125.706 672.833 124.632 670.17C122.693 665.278 119.344 660.959 118.155 655.677L115.112 657.201L123.588 679.981L123.565 679.941Z" fill="#FFF5F0"/>
<path d="M238.692 698.437C236.941 702.856 239.103 707.734 236.215 711.874C234.002 715.038 218.35 719.734 218.2 728.169C215.309 723.008 214.48 715.914 215.541 710.132C207.419 710.085 213.678 725.344 213.996 730.698C214.443 738.222 212.727 737.083 211.457 742.409C208.651 754.075 208.681 777.52 200.724 785.381C199.534 786.571 192.138 789.494 195.804 791.596C199.469 793.698 207.721 782.258 208.918 779.114C210.626 774.636 210.833 762.372 212.167 760.176C212.648 759.374 219.661 755.823 221.812 753.68C223.753 751.753 233.552 740.323 226.157 741.536C222.606 746.835 219.352 753.032 213.005 755.445C213.609 744.378 219.827 726.79 229.009 720.037C232.694 717.334 238.731 716.202 240.846 711.395C241.85 709.117 241.621 696.695 238.673 698.458L238.692 698.437Z" fill="#FFF5F0"/>
<path d="M201.126 662.488C199.61 662.314 200.512 661.059 200.57 659.977C200.768 656.119 201.488 648.729 202.5 645.208C203.363 642.267 209.7 633.179 203.963 634.559C199.69 635.586 197.187 660.911 194.508 666.158C193.088 668.97 189.534 671.827 187.69 675.03C184.076 681.33 181.224 688.115 177.779 694.507L180.957 694.928C186.316 687.527 188.681 678.35 194.783 671.474C199.341 666.339 210.053 658.966 216.551 657.033C218.85 656.346 238.811 653.959 236.53 649.474C233.963 648.04 218.465 655.006 217.214 652.78C224.202 645.75 233.64 636.112 235.669 626.08C235.966 624.576 236.377 623.615 235.258 622.257C231.065 621.55 232.543 625.879 231.325 628.658C225.235 642.595 211.735 652.353 201.149 662.527L201.126 662.488Z" fill="#FFF5F0"/>
<path d="M93.9185 606.929C92.5627 609.452 93.9629 611.098 95.0651 613.211C98.9725 620.753 105.372 628.453 110.34 635.362C104.189 633.55 97.8611 630.466 92.88 626.427C92.0674 625.763 87.9318 619.516 87.3976 623.537C86.2935 631.663 112.283 639.297 118.091 643.551C126.494 649.707 144.737 672.15 149.935 681.549C151.599 684.564 151.065 689.603 155.569 690.414C159.322 688.522 146.841 670.234 145.073 667.876C135.279 654.761 121.987 644.052 111.736 631.453C106.16 624.6 102.493 616.656 97.3958 609.632C96.3763 608.228 96.0691 607.167 93.9399 606.948L93.9185 606.929Z" fill="#FFF5F0"/>
<path d="M188.443 567.177L180.357 543.418C179.876 527.796 173.629 530.182 176.814 544.402C178.34 551.252 185.479 564.891 184.787 571.058C184.096 577.225 164.23 606.88 170.475 610.62L173.401 609.184C176.417 583.258 204.987 564.118 194.304 536.382L191.031 536.434C190.608 537.191 194.148 549.844 193.063 553.165L188.465 567.196L188.443 567.177Z" fill="#FFF5F0"/>
<path d="M143.235 548.048C139.617 539.898 137.77 530.727 138.44 521.813C133.995 517.193 134.646 525.763 134.789 528.503C135.302 538.16 139.766 547.196 140.787 556.151C141.542 562.7 140.534 568.663 141.873 575.788C142.436 578.767 148.273 597.877 149.79 598.417C151.362 597.815 152.056 597.509 152.148 595.631C152.199 594.448 146.261 579.781 145.461 575.575C143.651 565.994 143.485 554.993 147.464 545.944C151.444 536.895 159.878 530.573 160.412 520.385L156.86 519.843C156.639 530.847 145.163 537.35 143.255 548.047L143.235 548.048Z" fill="#FFF5F0"/>
<path d="M194.104 605.492C190.975 606.594 197.249 589.247 196.61 588.084L193.725 587.136C190.856 595 190.218 603.443 186.937 611.23C185.509 614.592 182.998 617.183 181.817 620.245C178.445 628.912 176.308 638.137 173.082 646.856L175.966 647.784C181.791 639.663 180.63 629.373 185.328 620.79C192.652 607.41 218.137 593.561 214.041 575.65C213.63 573.863 212.071 571.941 210.892 574.026C209.992 575.647 210.939 579.254 210.501 581.478C208.392 592.207 200.554 597.619 194.126 605.511L194.104 605.492Z" fill="#FFF5F0"/>
<path d="M122.172 589.414C121.815 591.287 119.999 589.482 119.053 588.968C114.929 586.69 111.32 583.485 107.179 581.248C103.545 585.494 115.41 591.017 118.812 593.135C122.214 595.253 127.111 596.854 129.755 598.895C131.782 600.464 140.42 613.322 141.873 616.187C143.184 618.734 145.013 626.563 146.022 627.806C147.296 629.379 148.033 628.419 149.275 627.755C144.041 603.724 122.846 587.054 107.92 568.728L105.15 569.361C103.595 571.957 119.602 586.575 122.152 589.415L122.172 589.414Z" fill="#FFF5F0"/>
<path d="M195.815 829.125C199.606 831.627 200.716 825.312 202.725 822.832C208.793 815.368 219.212 816.764 225.416 810.228C228.939 806.518 231.128 801.239 235.002 797.264C236.69 795.535 245.434 789.968 244.58 788.268C243.198 785.562 234.525 792.652 233.294 793.865C229.697 797.355 222.197 810.501 218.428 810.766C215.986 810.422 217.549 809.332 217.829 807.871C219.19 800.646 218.555 794.415 220.028 787.367L216.868 784.522C213.725 791.548 217.621 808.148 211.798 813.216C210.909 814.001 208.343 813.97 206.835 814.956C201.037 818.74 198.635 821.793 195.166 827.8C195.161 828.39 195.187 828.836 195.812 829.084L195.815 829.125Z" fill="#FFF5F0"/>
<path d="M112.29 609.744C109.366 611.22 116.271 618.523 117.259 619.747C127.379 632.191 148.51 648.459 154.619 662.22C155.956 665.214 155.755 668.666 156.531 670.777C157.745 674.083 160.141 672.292 160.148 668.303C160.159 655.48 133.464 632.216 124.526 622.531C122.72 620.562 114.108 608.842 112.291 609.764L112.29 609.744Z" fill="#FFF5F0"/>
<path d="M141.516 726.58C137.211 728.77 153.205 744.875 153.865 747.766C146.309 745.936 139.793 742.761 133.192 738.859C129.149 741.013 139.231 747.008 141.467 747.994C151.534 752.362 156.061 748.429 163.395 759.533C164.558 761.296 167.201 770.155 169.431 768.984C170.286 767.285 170.359 766.121 169.966 764.292C168.875 759.289 149.467 734.371 144.974 729.285C143.948 728.125 143.702 726.715 141.538 726.599L141.516 726.58Z" fill="#FFF5F0"/>
<path d="M181.291 824.352C179.067 820.474 172.628 819.29 169.855 816.809C166.416 813.716 167.674 804.076 163.589 801.408C161.683 800.158 161.175 802.915 161.126 804.139C161.098 804.691 165.134 812.001 164.16 814.441C161.182 813.295 157.911 812.695 154.987 811.424C151.645 809.974 145.409 803.649 143.515 808.748C150.348 814.855 159.427 816.289 167.224 819.774C171.97 821.914 176.678 826.498 181.61 826.632C181.593 825.657 181.954 825.574 181.272 824.373L181.291 824.352Z" fill="#FFF5F0"/>
<path d="M139.425 759.147L139.259 762.861C149.086 767.65 158.604 775.103 165.69 783.393C169.188 787.48 171.397 793.149 175.679 795.703C179.394 793.833 168.587 781.125 167.084 779.464C159.655 771.215 149.73 763.419 139.425 759.147Z" fill="#FFF5F0"/>
</g>
<g clip-path="url(#clip3_848_5122)">
<path d="M208.82 326.345C208.734 329.688 200.15 329.059 201.725 338.775C202.078 340.952 204.742 343.663 204.625 345.461C204.469 347.628 202.263 348.858 202.15 351.409C201.945 356.509 208.69 359.426 211.952 362.264C211.233 366.602 208.135 369.594 207.154 373.967C204.12 387.621 225.651 393.851 225.435 399.461C225.29 403.174 222.328 406.749 224.508 411.239C226.013 414.305 231.15 416.177 231.503 416.99C232.046 418.24 229.129 427.715 230.429 432.461C232.69 440.712 240.336 438.243 240.754 440.151C239.77 445.155 236.889 448.726 235.779 454.002C232.216 470.74 248.457 477.997 261.396 483.435C255.166 496.384 268.532 504.218 279.537 506.556C276.971 508.235 273.118 508.464 270.794 510.78C256.073 525.332 287.223 555.76 304.912 553.487C305.054 553.478 322.732 553.079 323.399 552.998L323.447 552.446C323.501 552.667 323.473 552.872 323.399 552.998L335.857 557.204C344.223 557.602 356.366 553.074 363.338 548.508C369.997 544.143 379.504 535.335 376.46 526.561C375.699 524.367 373.231 523.924 374.138 522.079C381.088 517.127 390.228 515.831 393.056 505.893C396.74 492.913 385.242 496.304 383.38 494.074C383.007 477.529 375.286 486.272 364.846 485.223C367.604 474.802 381.26 473.481 388.667 467.668C395.627 462.206 400.034 452.826 394.787 444.651C391.106 438.866 389.129 443.95 383.98 443.238L387.328 435.895L382.024 432.934C386.348 423.518 396.724 415.636 391.092 403.718C386.226 393.404 373.911 404.271 372.176 400.752C372.679 394.84 379.113 388.067 379.779 382.837C380.659 376.089 371.656 370.783 373.167 365.055C374.049 361.747 381.31 355.881 383.42 350.301C387.255 340.202 386.103 326.98 380.037 318.04C373.951 309.1 367.789 307.106 362.757 318.293C357.022 316.64 358.293 309.258 350.819 312.226C355.225 300.098 364.327 281.382 354.41 269.618C347.164 261.012 340.81 268.452 336.546 264.147C335.226 262.821 335.141 254.217 334.487 251.426C331.887 240.204 320.692 225.076 308.991 222.311C302.429 220.768 301.934 226.13 296.583 225.797C296.894 218.716 297.872 210.517 290.442 206.705C280.726 201.726 274.857 203.642 272.357 214.638C270.383 215.651 257.511 203.472 250.849 212.905C245.913 219.894 259.216 231.457 248.426 235.131C240.727 237.746 236.003 235.972 233.04 247.057C232.011 250.965 234.199 255.251 233.749 257.272C233.219 259.644 230.508 260.599 229.63 263.277C228.411 267.074 231.975 266.781 230.739 269.622C216.531 263.71 212.195 279.069 216.694 290.057C218.598 294.706 222.826 297.711 225.567 301.72C216.049 298.378 210.594 296.301 205.703 307.114C201.762 315.774 202.618 319.57 208.842 326.385L208.82 326.345Z" fill="#82A088"/>
<path d="M327.622 546.051C327.57 519.84 323.87 494.233 318.644 468.614C318.835 468.053 320.486 468.79 321.478 467.672C331.887 455.9 326.099 432.798 334.39 418.242C337.779 412.281 354.366 404.476 360.77 398.56C363.394 396.145 371.613 389.286 365.844 387.044C363.173 391.741 359.473 395.564 355.298 398.926C347.182 405.473 334.136 409.18 330.532 419.407C329.12 419.267 329.801 418.067 329.738 417.012C329.189 409.474 330.879 403.675 334.622 397.163L331.759 396.234C323.745 407.233 327.109 419.326 326.494 431.574C326.332 434.677 323.477 467.757 318.064 465.698C310.122 423.144 303.19 380.124 297.644 337.143C295.766 322.662 296.409 304.388 291.876 290.777C291.43 289.44 292.689 288.368 289.989 288.121C287.484 289.797 289.999 326.282 290.454 331.892C292.407 356.525 295.964 382.813 299.275 407.365C305.313 452.127 316.288 497.085 313.762 542.56C314.442 543.741 314.062 543.845 314.099 544.82C314.162 547.584 312.194 559.322 310.842 561.214C310.174 561.274 308.044 570.295 307.319 572.129C304.967 578.09 296.525 591.129 296.397 596.163C296.343 597.998 299.741 603.475 301.079 605.105C303.581 608.172 311.667 616.178 314.858 610.982C323.193 597.501 328.268 547.336 328.268 547.336C327.623 547.089 327.616 546.642 327.622 546.051Z" fill="#FFF5F0"/>
<path d="M256.018 398.151L233.389 378.94C229.916 380.755 239.021 388.456 240.229 389.606C250.618 399.388 263.039 407.076 273.506 416.793L264.648 415.996C259.874 416.117 250.819 407.558 249.673 414.302C256.833 419.738 265.838 418.897 273.743 421.134C284.028 424.023 290.68 439.401 294.107 448.784L297.379 448.732C294.204 433.656 283.355 421.601 272.525 411.254C270.173 408.992 261.56 403.073 260.594 401.543C260.123 400.797 258.159 391.043 257.085 388.38C255.146 383.488 251.797 379.169 250.608 373.887L247.565 375.411L256.041 398.191L256.018 398.151Z" fill="#FFF5F0"/>
<path d="M371.146 416.647C369.394 421.066 371.556 425.944 368.668 430.084C366.456 433.248 350.803 437.944 350.653 446.379C347.762 441.219 346.933 434.124 347.994 428.342C339.872 428.296 346.131 443.554 346.449 448.908C346.896 456.433 345.18 455.293 343.91 460.62C341.104 472.286 341.134 495.73 333.178 503.591C331.987 504.781 324.591 507.704 328.257 509.806C331.922 511.908 340.175 500.468 341.371 497.324C343.079 492.846 343.286 480.582 344.62 478.386C345.102 477.584 352.114 474.033 354.265 471.89C356.206 469.963 366.005 458.533 358.61 459.746C355.059 465.045 351.805 471.242 345.458 473.655C346.062 462.588 352.28 445 361.462 438.247C365.147 435.545 371.184 434.412 373.299 429.606C374.304 427.327 374.074 414.906 371.126 416.668L371.146 416.647Z" fill="#FFF5F0"/>
<path d="M333.579 380.698C332.063 380.524 332.965 379.269 333.023 378.187C333.221 374.329 333.942 366.939 334.953 363.419C335.816 360.477 342.153 351.39 336.416 352.769C332.143 353.796 329.64 379.121 326.961 384.368C325.541 387.18 321.987 390.037 320.143 393.24C316.529 399.541 313.677 406.325 310.232 412.717L313.411 413.138C318.77 405.737 321.134 396.56 327.236 389.684C331.794 384.549 342.506 377.176 349.004 375.243C351.303 374.557 371.264 372.169 368.983 367.685C366.416 366.25 350.918 373.216 349.667 370.99C356.655 363.96 366.093 354.322 368.122 344.29C368.419 342.786 368.83 341.826 367.711 340.467C363.518 339.76 364.997 344.089 363.778 346.868C357.689 360.805 344.188 370.563 333.602 380.738L333.579 380.698Z" fill="#FFF5F0"/>
<path d="M226.372 325.139C225.016 327.662 226.416 329.309 227.518 331.421C231.426 338.963 237.825 346.663 242.793 353.572C236.642 351.76 230.314 348.676 225.333 344.637C224.52 343.973 220.385 337.727 219.851 341.748C218.747 349.873 244.736 357.507 250.544 361.761C258.947 367.917 277.19 390.36 282.388 399.759C284.052 402.774 283.518 407.813 288.022 408.624C291.775 406.732 279.294 388.444 277.526 386.087C267.732 372.971 254.44 362.262 244.189 349.663C238.613 342.81 234.946 334.867 229.849 327.843C228.829 326.438 228.522 325.377 226.393 325.158L226.372 325.139Z" fill="#FFF5F0"/>
<path d="M320.896 285.388L312.81 261.628C312.329 246.006 306.082 248.392 309.267 262.612C310.793 269.462 317.932 283.101 317.241 289.268C316.549 295.436 296.683 325.09 302.928 328.83L305.854 327.394C308.871 301.469 337.44 282.328 326.757 254.592L323.484 254.644C323.061 255.402 326.601 268.054 325.516 271.375L320.918 285.407L320.896 285.388Z" fill="#FFF5F0"/>
<path d="M275.688 266.258C272.07 258.108 270.223 248.937 270.894 240.024C266.448 235.403 267.1 243.974 267.242 246.713C267.755 256.37 272.219 265.406 273.24 274.361C273.995 280.911 272.987 286.873 274.326 293.998C274.889 296.977 280.726 316.087 282.243 316.628C283.815 316.025 284.509 315.72 284.601 313.842C284.652 312.658 278.714 297.991 277.915 293.785C276.104 284.205 275.938 273.204 279.918 264.154C283.897 255.105 292.331 248.783 292.865 238.595L289.313 238.053C289.092 249.057 277.616 255.56 275.708 266.257L275.688 266.258Z" fill="#FFF5F0"/>
<path d="M326.557 323.702C323.428 324.804 329.702 307.457 329.063 306.294L326.178 305.346C323.309 313.21 322.671 321.654 319.39 329.44C317.962 332.802 315.451 335.393 314.27 338.455C310.899 347.123 308.761 356.347 305.535 365.067L308.419 365.994C314.244 357.873 313.083 347.583 317.781 339C325.105 325.62 350.591 311.772 346.494 293.861C346.083 292.074 344.524 290.151 343.345 292.236C342.445 293.857 343.392 297.464 342.954 299.688C340.845 310.417 333.007 315.829 326.579 323.721L326.557 323.702Z" fill="#FFF5F0"/>
<path d="M254.625 307.624C254.268 309.497 252.452 307.692 251.506 307.179C247.382 304.9 243.773 301.695 239.632 299.459C235.998 303.704 247.863 309.227 251.265 311.345C254.667 313.463 259.564 315.065 262.209 317.105C264.235 318.674 272.874 331.532 274.326 334.397C275.637 336.945 277.466 344.774 278.475 346.016C279.749 347.589 280.486 346.629 281.728 345.965C276.495 321.935 255.299 305.264 240.373 286.938L237.603 287.571C236.048 290.167 252.055 304.785 254.605 307.625L254.625 307.624Z" fill="#FFF5F0"/>
<path d="M244.743 327.954C241.819 329.43 248.724 336.734 249.712 337.957C259.832 350.401 280.963 366.669 287.072 380.431C288.41 383.424 288.208 386.876 288.984 388.987C290.198 392.293 292.595 390.502 292.602 386.513C292.613 373.69 265.918 350.426 256.979 340.741C255.173 338.772 246.561 327.052 244.744 327.974L244.743 327.954Z" fill="#FFF5F0"/>
<path d="M273.97 444.791C269.664 446.98 285.658 463.085 286.318 465.976C278.762 464.146 272.246 460.972 265.645 457.07C261.602 459.223 271.684 465.218 273.92 466.204C283.987 470.572 288.515 466.639 295.849 477.743C297.011 479.506 299.654 488.365 301.884 487.195C302.739 485.495 302.812 484.331 302.419 482.502C301.328 477.499 281.921 452.581 277.427 447.496C276.401 446.335 276.155 444.925 273.991 444.81L273.97 444.791Z" fill="#FFF5F0"/>
<path d="M313.744 542.562C311.52 538.685 305.081 537.5 302.309 535.019C298.869 531.926 300.127 522.286 296.042 519.618C294.136 518.368 293.629 521.126 293.579 522.35C293.551 522.901 297.587 530.212 296.613 532.651C293.635 531.505 290.364 530.906 287.44 529.634C284.098 528.184 277.862 521.859 275.968 526.958C282.801 533.065 291.88 534.499 299.677 537.984C304.423 540.124 309.131 544.708 314.063 544.843C314.046 543.867 314.407 543.784 313.725 542.583L313.744 542.562Z" fill="#FFF5F0"/>
<path d="M271.878 477.358L271.712 481.072C281.539 485.86 291.057 493.314 298.143 501.603C301.641 505.69 303.85 511.359 308.133 513.913C311.847 512.044 301.04 499.335 299.537 497.674C292.108 489.425 282.183 481.63 271.878 477.358Z" fill="#FFF5F0"/>
</g>
<defs>
<clipPath id="clip0_848_5122">
<rect width="188.633" height="409.686" fill="white" transform="translate(24.3125) rotate(3.40193)"/>
</clipPath>
<clipPath id="clip1_848_5122">
<rect width="188.633" height="409.686" fill="white" transform="translate(24.5156) rotate(3.40193)"/>
</clipPath>
<clipPath id="clip2_848_5122">
<rect width="188.633" height="409.686" fill="white" transform="matrix(-0.998238 0.05934 0.05934 0.998238 249.531 479.918)"/>
</clipPath>
<clipPath id="clip3_848_5122">
<rect width="188.633" height="409.686" fill="white" transform="matrix(-0.998238 0.05934 0.05934 0.998238 381.984 198.128)"/>
</clipPath>
</defs>
</svg>
