<svg width="241" height="785" viewBox="0 0 241 785" fill="none" xmlns="http://www.w3.org/2000/svg">
<path d="M139.336 469.256C139.454 544.544 139.513 582.189 115.501 604.47C91.4883 626.751 53.8171 623.87 -21.5252 618.108L-127.306 610.019C-197.738 604.632 -232.954 601.939 -253.161 578.386C-273.368 554.832 -270.675 519.616 -265.288 449.184L-249.702 245.367C-244.315 174.935 -241.622 139.719 -218.069 119.512C-194.515 99.3053 -159.299 101.998 -88.8673 107.385L4.90304 114.556C83.494 120.566 122.789 123.571 143.121 148.91C163.452 174.248 157.553 215.484 145.756 297.957C141.417 328.286 138.509 356.497 138.797 376.372C139.126 399.096 139.28 433.276 139.336 469.256Z" fill="#F1E0D0"/>
<g clip-path="url(#clip0_848_8056)">
<path d="M103.087 468.194C175.107 487.469 187.691 558.528 148.768 599.403C117.032 632.735 75.9287 654.777 30.7409 630.105C-26.9566 598.596 -44.503 558.345 -35.1166 520.482C-19.1641 456.185 32.7525 433.58 103.087 468.194Z" fill="#E5893C"/>
<path d="M49.551 554.395C32.3228 590.455 26.3683 618.02 43.4863 625.492C55.6933 630.834 103.228 546.31 103.512 526.881C103.67 516.157 102.138 501.261 97.4232 498.328C89.8869 493.63 62.981 526.29 49.551 554.395Z" fill="#FAAA63"/>
<path d="M77.5014 488.147C80.2601 493.843 16.6916 540.805 19.8379 572.601C21.8446 592.829 14.263 604.072 9.32004 604.803C3.49635 605.672 -4.04463 590.028 -7.01056 578.683C-10.9688 563.599 -8.29793 550.722 -6.80756 545.097C-2.10668 527.542 8.34617 517.004 17.0824 508.23C24.6466 500.613 37.1047 488.393 56.7791 483.501C58.69 483.033 74.9619 482.893 77.5014 488.147Z" fill="#FAAA63"/>
<path d="M119.791 494.996C114.215 497.485 121.391 513.771 118.222 539.3C117.295 546.814 119.872 568.717 104.248 582.006C38.3547 638.059 120.057 630.393 137.508 598.453C149.957 575.696 152.994 554.803 153.037 550.172C153.145 539.664 150.085 516.037 140.762 502.605C136.439 496.381 124.439 492.903 119.773 494.988L119.791 494.996Z" fill="#FAAA63"/>
<path d="M71.1379 473.381C70.8506 474.641 43.2504 458.899 11.8505 493.696C-24.3923 533.874 -9.97868 546.034 -24.215 558.217C-27.891 561.358 -36.5649 450.363 56.2975 457.922C64.2907 458.579 71.6595 471.034 71.1379 473.381Z" fill="#FAAA63"/>
<path d="M84.8777 479.172C84.8906 475.955 88.8633 475.019 94.2346 470.213C98.3611 466.532 97.3827 465.848 105.447 455.485C110.522 448.971 109.345 441.821 116.706 443.588C117.785 443.84 116.668 447.659 115.418 452.134C113.309 459.632 111.435 462.755 108.966 470.335C106.21 478.828 106.527 481.085 106.963 482.572C108.418 487.486 114.137 488.302 113.681 490.548C113.265 492.552 108.539 494.178 104.803 493.076C101.264 492.015 101.303 489.286 96.8987 487.482C93.8113 486.229 93.0227 487.249 90.337 485.867C88.1266 484.735 84.8924 482.077 84.8959 479.18L84.8777 479.172Z" fill="#A75B48"/>
</g>
<g clip-path="url(#clip1_848_8056)">
<path d="M64.7749 89.2684C-22.308 84.7238 -61.9516 159.24 -33.3981 218.762C-10.1176 267.299 27.6574 306.655 86.8355 295.512C162.398 281.279 196.445 242.828 199.666 197.316C205.121 120.025 155.518 76.1402 64.7749 89.2684Z" fill="#E5893C"/>
<path d="M93.2282 204.493C99.3827 250.828 96.0601 283.645 74.3185 285.781C58.8099 287.319 36.4265 176.126 43.1224 154.408C46.8162 142.421 53.8967 126.401 60.2002 124.839C70.2802 122.331 88.4288 168.377 93.2282 204.493Z" fill="#FAAA63"/>
<path d="M86.0374 120.701C80.9126 126.042 134.689 201.23 119.715 235.47C110.183 257.25 114.56 272.495 119.796 275.093C125.962 278.16 139.997 263.476 147.39 251.926C157.238 236.572 158.913 221.282 159.285 214.485C160.39 193.258 152.563 177.762 146.01 164.847C140.343 153.643 130.893 135.552 110.769 123.009C108.812 121.799 90.759 115.771 86.0374 120.701Z" fill="#FAAA63"/>
<path d="M36.5202 113.059C41.8258 117.841 27.965 133.37 22.2779 162.917C20.5973 171.611 9.82652 195.049 22.4136 215.473C75.496 301.614 -12.6371 263.601 -20.5256 221.768C-26.1635 191.958 -22.003 167.616 -20.3796 162.448C-16.7076 150.719 -4.77632 125.537 10.4426 113.957C17.499 108.593 32.1046 109.054 36.5433 113.056L36.5202 113.059Z" fill="#FAAA63"/>
<path d="M98.4501 106.569C98.3152 108.074 134.703 100.52 157.08 150.566C182.904 208.345 162.479 216.673 173.921 235.365C176.878 240.186 226.583 119.827 120.54 94.725C111.41 92.572 98.7169 103.77 98.4501 106.569Z" fill="#FAAA63"/>
<path d="M81.0746 108.053C82.2212 104.47 78.1391 101.995 73.8975 94.7094C70.6349 89.125 71.9702 88.7169 66.738 74.2767C63.4425 65.1987 67.3317 57.668 58.5052 56.9778C57.2133 56.8689 57.078 61.521 56.8544 66.9509C56.4946 76.054 57.4527 80.2047 57.4636 89.5285C57.4656 99.9722 56.2981 102.369 55.277 103.866C51.8845 108.808 45.2267 107.653 44.9236 110.316C44.663 112.696 49.3343 116.21 53.8891 116.331C58.2087 116.429 59.1502 113.378 64.7017 112.961C68.5888 112.68 69.0981 114.1 72.5848 113.532C75.4526 113.07 80.0101 111.28 81.0515 108.056L81.0746 108.053Z" fill="#A75B48"/>
</g>
<defs>
<clipPath id="clip0_848_8056">
<rect width="206.825" height="205.719" fill="white" transform="matrix(-0.917329 -0.398131 -0.398131 0.917329 205.086 481.945)"/>
</clipPath>
<clipPath id="clip1_848_8056">
<rect width="241.909" height="240.615" fill="white" transform="translate(-53.668 67.7595) rotate(-5.49037)"/>
</clipPath>
</defs>
</svg>
