<svg width="187" height="555" viewBox="0 0 187 555" fill="none" xmlns="http://www.w3.org/2000/svg">
<path d="M-21.2951 541.676C-21.0854 541.422 -20.8545 540.942 -20.6448 540.946C-8.78772 541.254 3.07097 540.868 14.9217 542.037C34.5373 543.97 54.2098 544.914 73.5968 540.149C84.5037 537.466 93.8876 531.323 102.512 524.533C118.822 511.692 131.544 496.291 136.129 475.087C140.345 455.595 146.488 436.54 150.008 416.87C150.032 416.041 150.231 415.226 150.593 414.479C150.954 413.733 151.47 413.071 152.105 412.538C152.001 412.221 151.86 411.917 151.686 411.632C137.903 394.401 125.732 375.975 111.769 358.855C101.741 346.568 96.0376 331.66 88.3923 317.925C83.5975 309.326 81.6068 301.974 90.8672 295.319C91.3244 294.989 91.4045 294.127 91.6583 293.517C88.2604 293.009 85.9258 297.083 82.3119 295.768C80.5038 292.819 82.4731 290.633 83.6981 288.37C89.5291 277.601 88.9421 275.013 78.2449 268.396C66.766 261.367 53.3736 258.111 39.9491 259.085C35.7038 259.311 31.2298 260.398 27.1901 257.921C26.1158 257.433 25.2126 256.634 24.5974 255.628C23.9823 254.621 23.6834 253.453 23.7397 252.274C23.8598 251.097 24.3906 250 25.2391 249.176C26.0875 248.351 27.1991 247.851 28.3792 247.765C35.8334 245.87 43.5883 245.463 51.2 246.567C65.79 249.189 78.0184 256.694 89.8671 264.815C97.5074 270.251 106.517 273.44 115.876 274.021C119.228 274.123 122.507 275.027 125.438 276.656C125.868 276.896 126.245 277.22 126.548 277.607C126.851 277.995 127.075 278.439 127.204 278.914C127.387 280.383 126.155 281.058 124.876 281.696C121.321 283.468 116.922 282.839 113.759 285.666C118.107 285.666 122.491 286.002 126.795 285.565C130.623 285.123 134.502 285.634 138.085 287.052C141.668 288.47 144.845 290.752 147.334 293.695C150.704 297.261 153.053 301.966 157.821 304.149C157.915 265.318 158.809 226.467 157.682 187.672C157.263 173.386 157.02 158.993 155.99 144.71C154.09 118.367 150.192 92.4255 138.058 68.38C132.692 58.3188 125.363 49.4358 116.505 42.256C109.342 36.1188 100.094 34.7786 91.0981 34.4954C74.4462 34.0633 57.8312 32.7012 41.3312 30.4157C40.999 30.371 40.6634 30.3556 40.3285 30.3696C15.916 31.131 -8.43541 26.2314 -32.7682 28.5953C-50.4793 30.3152 -68.2325 28.935 -85.7884 30.6507C-101.31 32.1693 -116.877 33.7401 -132.379 35.76C-145.216 37.438 -158.151 38.6672 -171.038 40.1795C-180.433 41.2828 -188.984 45.3225 -198.239 46.6481C-196.582 50.1656 -191.42 50.6146 -190.151 55.9275C-199.589 55.013 -207.633 50.8935 -216.354 50.7509L-220.161 54.243C-214.624 55.5015 -209.13 57.0265 -203.536 57.9284C-195.356 59.2457 -190.742 63.9669 -187.78 71.5137C-181.672 87.1063 -180.685 103.351 -180.609 119.77C-180.561 130.134 -181.257 140.535 -180.55 150.853C-178.927 174.554 -175.758 198.023 -168.127 220.699C-165.524 228.432 -166.608 229.852 -174.547 229.324C-184.97 228.739 -194.989 225.09 -203.348 218.836C-212.962 211.5 -220.757 202.049 -226.13 191.215C-233.021 177.841 -239.412 164.182 -246.896 151.153C-254.046 138.702 -257.471 125.272 -260.185 111.452C-262.319 99.2568 -262.488 86.7992 -260.687 74.5508C-271.979 84.5558 -283.211 94.5838 -289.592 108.767C-294.156 119.523 -297.214 130.858 -298.676 142.45C-303.809 176.679 -303.041 211.141 -302.514 245.544C-301.65 302.138 -306.531 358.665 -304.503 415.23C-303.263 449.838 -296.952 483.448 -279.962 514.384C-268.846 534.616 -252.838 544.656 -229.161 545.636C-200.722 546.815 -172.269 548.26 -143.895 546.917C-123.505 545.951 -103.049 546.498 -82.7892 544.747C-70.9028 543.712 -58.7039 544.61 -47.023 541.231C-51.1529 534.786 -56.5687 529.133 -59.3856 521.894C-61.3069 516.953 -64.3692 514.902 -69.873 514.495C-77.4575 513.939 -85.3605 512.898 -91.4935 507.707C-94.581 505.096 -100.303 502.017 -97.8218 497.78C-95.7348 494.214 -90.6672 497.918 -87.0763 499.214C-68.371 505.975 -50.4649 505.559 -33.6746 493.671C-32.0386 492.511 -30.3186 489.929 -27.3822 492.584C-30.5022 500.309 -35.7834 506.971 -42.593 511.77C-46.9096 514.784 -47.4297 517.794 -45.435 522.767C-40.9506 533.961 -32.1537 538.968 -21.2951 541.676ZM-105.318 138.822C-109.322 135.256 -114.366 135.145 -119.291 134.627C-120.999 134.449 -122.886 134.082 -123.312 132.259C-123.904 129.721 -121.647 128.976 -119.879 128.114C-118.983 127.68 -118.004 127.424 -117.087 127.028C-108.347 123.252 -106.257 119.305 -109.569 110.667C-114.549 97.6629 -121.899 86.2737 -133.703 78.2508C-137.071 76.0967 -140.287 73.7139 -143.329 71.1194C-144.535 70.1622 -145.329 68.7792 -145.548 67.2547C-145.766 65.7302 -145.392 64.18 -144.503 62.9225C-142.343 59.6924 -139.484 60.6488 -136.533 62.0499C-124.862 67.3133 -115.266 76.2968 -109.245 87.595C-105.112 95.2351 -101.762 103.273 -99.2438 111.586C-96.3625 120.869 -91.0865 129.229 -83.947 135.824C-82.2038 137.381 -80.5968 139.083 -79.1437 140.913C-76.2869 144.863 -77.1403 146.41 -82.2372 146.878C-83.2384 146.895 -84.2394 146.83 -85.2303 146.685C-85.3033 147.698 -85.0395 148.707 -84.4796 149.554C-83.9196 150.401 -83.0952 151.039 -82.1347 151.369C-74.0427 154.668 -71.8991 162.091 -71.4062 169.34C-70.326 185.027 -71.104 200.787 -73.7238 216.292C-79.838 252.509 -103.051 278.524 -125.661 304.973C-126.576 306.199 -127.858 307.102 -129.321 307.55C-130.783 307.998 -132.351 307.968 -133.795 307.465C-137.361 306.286 -137.634 303.243 -137.726 300.124C-137.606 293.768 -137.854 287.41 -138.471 281.083C-140.443 265.467 -140.623 249.677 -139.008 234.02C-137.923 224.4 -137.616 214.708 -138.089 205.039C-139.702 185.048 -134.402 166.051 -131.18 146.757C-130.131 140.493 -127.379 138.943 -120.399 138.786C-115.367 138.664 -110.344 138.799 -105.318 138.822ZM-234.774 333.816C-236.952 333.268 -239.856 334.928 -241.295 332.576C-243.097 329.64 -240.383 327.687 -238.747 325.688C-237.612 324.027 -236.22 322.556 -234.623 321.332C-227.309 316.772 -227.716 310.458 -229.008 302.983C-231.504 290.531 -232.622 277.841 -232.341 265.144C-232.172 261.642 -231.412 258.137 -227.804 256.914C-224.071 255.656 -220.533 257.466 -217.663 259.783C-214.794 262.101 -215.796 265.384 -216.887 268.14C-218.722 272.439 -220.185 276.887 -221.26 281.436C-223.223 290.815 -220.488 299.723 -216.035 307.367C-212.518 313.405 -204.969 308.913 -199.279 309.659C-198.291 309.789 -197.246 309.558 -196.277 309.751C-190.656 310.871 -184.741 311.398 -180.095 316.289C-185.978 319.798 -191.642 319.796 -197.267 319.693C-208.241 319.484 -218.263 323.284 -228.287 326.974C-231.416 328.125 -234.38 329.94 -234.804 333.883C-221.528 329.318 -208.014 325.475 -194.323 322.372C-181.528 319.798 -173.767 323.358 -169.008 334.711C-157.365 362.501 -146.169 390.477 -138.595 419.728C-137.036 425.206 -136.039 430.829 -135.618 436.508C-135.016 448.895 -132.807 461.151 -129.047 472.969C-127.929 476.476 -126.683 479.964 -125.901 483.548C-124.237 491.162 -127.746 494.414 -135.339 492.247C-138.249 491.441 -141.03 490.227 -143.599 488.641C-155.007 481.403 -165.251 472.866 -172.635 461.324C-173.52 459.939 -174.772 458.695 -173.996 456.822L-173.958 456.864C-178.18 457.11 -179.348 453.351 -181.234 450.92C-192.516 436.36 -203.828 421.811 -214.666 406.921C-227.047 390.145 -235.451 370.774 -239.244 350.273C-240.377 344.083 -240.331 338.2 -234.774 333.816ZM69.5882 448.577C66.3329 448.613 64.2463 451.134 61.5573 452.376C54.0064 455.866 46.6653 458.878 40.1631 450.312C38.827 448.556 36.3118 447.715 34.3884 446.379C17.9493 435.191 4.77695 419.837 -3.78148 401.887C-13.0705 381.868 -21.209 361.336 -28.158 340.389C-34.5951 321.302 -33.9872 302.104 -21.61 284.789C-16.3013 277.362 -14.3275 277.415 -9.53264 285.066C8.67752 313.999 31.6809 339.62 58.491 360.831C71.6044 371.304 83.0311 383.509 90.4688 398.987C91.9099 401.615 92.6725 404.562 92.6871 407.56C92.7018 410.558 91.9681 413.512 90.5528 416.154C85.5209 425.602 79.8773 434.71 73.6577 443.422C78.3687 443.808 80.942 440.731 83.3248 437.408C88.4968 430.434 92.9402 422.947 96.5851 415.066C97.4094 413.208 97.5331 410.242 101.26 410.43C102.594 421.328 101.242 432.386 97.3214 442.641C95.0142 448.672 94.6954 452.999 100.575 457.336C105.925 461.286 109.067 467.538 113.16 472.795C115.614 475.941 115.234 478.093 111.811 479.972C110.061 480.933 108.476 482.206 106.699 483.118C101.63 485.7 100.826 485.52 98.7117 479.911C96.8113 474.568 94.3269 469.451 91.3035 464.652C86.8988 457.896 86.8359 457.758 79.7003 461.678C72.7141 465.734 64.568 467.324 56.5696 466.192C54.6609 465.911 52.4731 465.261 52.2298 462.788C52.0326 460.776 53.7883 459.979 55.2398 459.266C57.7419 458.348 60.1726 457.246 62.5118 455.969C65.3015 454.024 69.6574 453.326 69.5882 448.577ZM18.6491 102.827C30.2335 103.649 40.1041 109.369 50.1384 114.64C58.548 118.853 65.7574 125.122 71.0968 132.865C74.7443 138.251 75.4866 142.723 71.04 148.032C68.9161 151.028 67.2183 154.304 65.9955 157.766C62.9661 165.569 59.132 173.035 54.5556 180.044C38.3478 203.009 20.2764 224.6 0.524612 244.6C-11.2213 256.345 -25.857 262.619 -42.0978 265.182C-50.2675 266.47 -53.2149 263.097 -51.9564 255.079C-50.8343 248.456 -48.2479 242.167 -44.3863 236.671C-37.9788 226.855 -33.0931 216.126 -29.895 204.848C-24.7205 187.92 -19.8268 170.901 -14.5684 154.001C-9.88686 138.992 -4.7589 124.167 3.82188 110.758C7.38969 105.176 11.3919 101.382 18.6491 102.827ZM-105.339 421.608C-106.4 400.738 -104.246 379.759 -101.129 358.96C-98.6717 343.6 -90.9952 329.556 -79.3931 319.194C-73.9396 314.116 -70.6466 314.79 -66.8963 321.615C-63.5349 327.439 -61.6456 333.995 -61.3925 340.715C-60.9205 351.419 -58.612 361.963 -54.5674 371.885C-45.3805 396.272 -35.69 420.482 -27.8077 445.339C-24.7329 454.543 -23.0368 464.151 -22.774 473.852C-22.6142 475.845 -22.9883 477.844 -23.8575 479.644C-24.7268 481.444 -26.0597 482.98 -27.7196 484.094C-32.748 488.004 -38.5578 490.788 -44.7555 492.257C-50.9682 493.528 -57.2353 494.546 -63.4228 495.898C-71.999 497.585 -80.8714 496.933 -89.1087 494.011C-97.6853 491.261 -98.2516 490.403 -99.0067 481.388C-99.0232 479.045 -99.3123 476.711 -99.8686 474.435C-105.595 457.303 -106 439.642 -105.339 421.604V421.608ZM20.8849 98.2818C21.0002 95.0685 23.3287 94.8188 25.0486 94.0595C31.1786 91.2927 37.9013 90.0969 44.6095 90.5799C50.063 90.9847 52.0244 88.302 53.5765 83.4484C54.8467 79.6403 55.2343 75.5933 54.7103 71.6133C54.1863 67.6332 52.7642 63.8244 50.5517 60.4748C49.5972 59.1061 48.7341 57.676 47.9677 56.1938C47.6699 55.6898 47.492 55.1238 47.4485 54.54C47.4049 53.9562 47.4965 53.3702 47.7163 52.8276C47.9361 52.285 48.2783 51.8004 48.7159 51.4115C49.1534 51.0225 49.6747 50.7399 50.2393 50.5852C58.4342 46.6629 63.0443 48.429 64.5314 57.6117C66.5586 68.8224 66.4046 80.3187 64.0783 91.4712C62.7841 97.1868 63.3445 101.526 68.5211 105.512C74.8484 110.05 79.3649 116.682 81.2713 124.232C82.0726 127.833 83.7106 133.505 79.7904 135.113C75.8241 136.743 74.4713 130.981 72.7513 128.139C66.159 117.249 57.8238 108.578 45.8892 103.492C37.8601 100.061 29.3251 99.3516 20.8849 98.2818Z" fill="#D0E6E0"/>
<path d="M157.818 304.145C153.048 301.962 150.699 297.257 147.33 293.691C144.842 290.748 141.665 288.466 138.082 287.048C134.498 285.63 130.619 285.119 126.791 285.561C122.487 285.998 118.104 285.654 113.756 285.662L113.903 285.628C111.725 288.483 108.535 287.374 105.722 287.726L105.854 287.638C102.058 291.381 96.9947 293.56 91.6671 293.744L91.6502 293.523C91.3964 294.136 91.3168 294.992 90.8596 295.327C81.5992 301.983 83.5899 309.326 88.3847 317.934C96.0342 331.668 101.733 346.577 111.761 358.864C125.724 375.973 137.896 394.41 151.678 411.641C151.853 411.925 151.994 412.229 152.098 412.547C159.424 420.744 165.67 429.872 173.634 437.521C175.566 439.378 177.431 441.635 180.495 440.588C182.13 440.131 183.568 439.147 184.587 437.789C185.605 436.431 186.146 434.774 186.127 433.077C185.942 406.814 189.762 380.311 182.1 354.47C178.089 340.947 171.182 328.709 164.149 316.573C161.817 312.535 158.959 308.776 157.818 304.145ZM159.196 381.11C155.693 369.448 149.788 365.547 139.016 367.567C137.724 367.852 136.403 367.981 135.081 367.95C134.406 367.935 133.757 367.684 133.247 367.241C132.738 366.798 132.399 366.19 132.291 365.523C132.16 364.87 132.209 364.193 132.433 363.565C132.657 362.937 133.047 362.381 133.562 361.958C135.773 359.896 138.485 360.244 141.165 360.381C143.726 360.511 146.011 363.069 149.067 361.121C149.222 360.253 149.207 359.363 149.023 358.501C144.637 348.463 138.493 344.966 127.328 345.992C124.04 346.296 120.81 345.727 120.856 341.746C120.898 338.269 124.138 338.258 126.877 337.96C130.653 337.541 133.566 340.528 137.092 340.88C137.382 340.103 137.574 339.293 137.665 338.468C137.645 337.796 137.412 337.147 137 336.616C130.762 329.904 125.709 320.916 113.859 325.571C113.223 325.841 112.528 325.945 111.841 325.873C111.154 325.801 110.496 325.555 109.93 325.159C109.364 324.763 108.907 324.23 108.604 323.609C108.3 322.989 108.16 322.301 108.195 321.611C107.945 317.584 111.283 318.196 113.88 317.848C118.431 317.235 121.921 320.535 126.821 321.692C125.552 316.562 120.998 313.804 120.543 308.738C128.042 308.602 127.194 317.716 132.853 319.127C133.889 315.062 134.777 311.532 135.691 308.011C136.471 304.997 138.325 302.931 141.465 304.252C145.241 305.844 144.236 308.978 142.782 311.803C142.288 312.678 141.65 313.465 140.895 314.129C134.86 319.782 135.731 326.085 139.636 332.239C141.356 334.965 142.308 338.359 145.771 340.687C146.092 335.949 146.321 331.555 149.39 328.144C150.837 326.536 152.777 325.514 154.73 326.762C156.682 328.01 156.431 330.259 155.732 332.216C155.297 333.113 154.737 333.944 154.069 334.684C148.268 342.573 148.406 347.947 154.869 357.066C156.618 355.046 158.285 353.029 160.055 351.105C160.773 350.171 161.697 349.416 162.756 348.899C163.815 348.383 164.979 348.119 166.157 348.129C167.514 348.2 168.986 348.37 169.322 349.893C169.434 350.857 169.171 351.826 168.588 352.601C167.803 353.65 166.767 354.977 165.641 355.202C159.634 356.4 160.011 360.8 160.091 365.27C160.08 370.305 161.908 375.171 165.232 378.954C166.893 375.43 168.091 372.162 171.47 370.801C173.708 369.899 176.269 369.467 177.614 372.103C178.778 374.383 177.166 376.015 175.161 376.747C167.031 379.713 167.55 385.836 169.232 392.432C170.138 395.998 171.245 399.507 171.959 403.102C172.309 404.874 172.951 407.297 169.251 407.557C168.343 405.233 167.313 402.806 166.44 400.325C162.53 389.231 162.035 388.854 149.964 388.304C147.393 388.187 145.155 387.272 144.918 384.481C144.664 381.477 147.049 380.822 149.499 380.256C152.811 379.48 155.817 382.331 159.196 381.106V381.11Z" fill="#A5C9BF"/>
<path d="M73.6618 443.432C79.8814 434.721 85.525 425.612 90.5568 416.165C91.9722 413.522 92.7058 410.568 92.6912 407.57C92.6765 404.573 91.914 401.626 90.4729 398.997C83.0394 383.52 71.6085 371.31 58.495 360.842C31.685 339.63 8.68158 314.01 -9.52857 285.077C-14.3234 277.425 -16.2972 277.373 -21.606 284.8C-33.9811 302.115 -34.5911 321.296 -28.1539 340.4C-21.205 361.346 -13.0665 381.879 -3.77741 401.898C4.78019 419.844 17.9504 435.196 34.3863 446.383C36.3097 447.719 38.8245 448.56 40.1605 450.316C46.6627 458.88 54.0043 455.87 61.5552 452.38C64.2442 451.138 66.3309 448.617 69.5862 448.582L69.5109 448.676C69.4918 448.394 69.5332 448.112 69.6328 447.848C69.7324 447.583 69.8877 447.344 70.088 447.145C70.2883 446.946 70.5288 446.792 70.7936 446.695C71.0585 446.597 71.3412 446.557 71.6227 446.578L71.5285 446.687C71.6337 446.044 71.8819 445.432 72.2551 444.897C72.6283 444.363 73.1171 443.919 73.6848 443.598L73.6618 443.432ZM12.6148 368.468C9.58181 373.15 10.0157 377.817 8.14892 381.703C7.13794 383.801 5.397 385.85 2.71013 385.353C1.54401 385.129 0.465248 384.58 -0.401779 383.768C-1.26881 382.957 -1.88859 381.917 -2.18945 380.768C-3.00327 377.909 -1.05669 376.56 1.23585 375.505C3.52839 374.45 6.80262 374.597 7.17597 371.027C7.83237 366.177 7.41826 361.243 5.96336 356.57C4.50847 351.897 2.04781 347.6 -1.24569 343.98C-3.55292 348.723 -2.32171 353.792 -6.40131 356.565C-7.84017 357.545 -9.2938 358.476 -10.9865 357.614C-11.8718 357.119 -12.5287 356.298 -12.8171 355.326C-13.1056 354.354 -13.0023 353.307 -12.5299 352.41C-12.1992 351.122 -11.4141 349.997 -10.3192 349.243C-2.41803 345.467 -4.24713 338.755 -5.70488 332.736C-7.42103 326.975 -9.4696 321.32 -11.8401 315.797C-12.505 313.993 -13.5911 312.021 -9.9792 310.859C-7.7336 316.709 -4.84992 322.293 -1.37985 327.511C1.12034 330.972 3.29959 333.113 7.40436 329.585C9.57105 327.723 12.7342 326.892 14.3261 329.894C16.1803 333.403 13.0425 335.293 10.4354 336.861C9.56848 337.361 8.56502 337.572 7.57027 337.463C1.37642 336.57 2.61801 340.318 4.14497 343.399C5.76632 346.671 7.69164 349.776 9.2207 353.142C12.8598 361.146 18.9258 362.142 25.4951 356.215C26.4594 355.311 27.5004 354.492 28.606 353.767C29.2702 353.246 30.0937 352.971 30.9375 352.988C31.7813 353.004 32.5937 353.311 33.2372 353.857C33.9146 354.36 34.4263 355.054 34.7079 355.849C34.9896 356.644 35.0283 357.505 34.8185 358.323C34.4005 359.739 33.6683 361.043 32.6765 362.138C31.6847 363.232 30.4591 364.089 29.0904 364.645C25.229 366.677 21.2918 363.718 17.1702 365.67C19.2508 371.441 22.5969 376.673 26.9632 380.982C32.8362 386.981 38.8309 385.416 41.6625 377.473C42.5182 375.075 43.4706 373.045 46.1575 372.791C47.9907 372.617 49.0941 374.01 49.9751 375.535C50.5422 376.568 50.7789 377.75 50.6541 378.922C50.5292 380.093 50.0487 381.199 49.2766 382.089C47.2609 385.168 43.8985 385.726 40.6957 386.731C34.0341 388.829 34.0635 388.915 34.0929 395.763C31.6074 396.675 30.4432 392.784 28.0227 393.957C27.0142 397.857 25.8051 401.703 24.4003 405.478C23.1984 408.312 20.3291 408.671 17.4954 408.167C16.6518 408.1 15.8578 407.742 15.2494 407.154C14.641 406.566 14.2559 405.784 14.1602 404.943C13.9756 401.938 16.2455 400.914 18.731 400.78C22.8484 400.56 23.2381 397.982 23.5318 394.651C24.4337 384.386 18.8527 376.969 12.6148 368.468ZM38.124 401.04C40.1371 400.382 42.3114 400.41 44.3074 401.118C51.1598 402.913 57.5549 403.7 60.7871 395.146C61.1975 394.206 61.9635 393.467 62.9174 393.089C63.8712 392.712 64.9353 392.728 65.8777 393.133C66.853 393.387 67.7214 393.948 68.3551 394.732C68.9888 395.516 69.355 396.482 69.3998 397.489C69.5035 398.484 69.3157 399.487 68.8595 400.376C68.4033 401.266 67.6982 402.004 66.8302 402.5C63.5371 404.612 59.8475 404.442 56.1978 404.576C53.4963 404.675 49.3016 404.925 49.2617 407.205C49.1778 412.238 43.3279 415.175 45.287 420.725C45.6045 421.859 45.6868 423.045 45.5292 424.212C45.3716 425.379 44.9773 426.501 44.3703 427.51C43.7649 428.716 42.7495 429.667 41.5063 430.192C40.2631 430.716 38.8738 430.781 37.5873 430.373C36.7535 430.268 35.9744 429.899 35.3639 429.322C34.7534 428.744 34.3427 427.987 34.1912 427.16C33.82 424.196 35.9408 423.083 38.3969 422.615C42.7807 421.776 43.6071 419.366 42.2416 415.351C40.6895 410.756 39.5356 406.019 38.124 401.048V401.04ZM55.8332 418.164C56.1751 417.35 56.777 417.115 57.4125 417.725C57.8138 418.218 58.1472 418.762 58.4044 419.343C57.8234 419.506 57.0981 419.972 56.7038 419.762C56.257 419.535 56.108 418.722 55.8332 418.164Z" fill="#E26267"/>
<path d="M18.6537 102.827C11.3964 101.382 7.39436 105.176 3.82236 110.758C-4.75842 124.167 -9.88689 138.992 -14.5685 154.001C-19.8373 170.901 -24.72 187.92 -29.8945 204.848C-33.0927 216.126 -37.9783 226.855 -44.3858 236.671C-48.2474 242.167 -50.8338 248.456 -51.9559 255.079C-53.2144 263.097 -50.2633 266.47 -42.0978 265.182C-25.8571 262.619 -11.2292 256.35 0.525078 244.6C20.2769 224.6 38.3483 203.009 54.5561 180.043C59.1325 173.035 62.9666 165.569 65.996 157.766C67.2188 154.304 68.9166 151.028 71.0405 148.032C75.4871 142.729 74.7443 138.251 71.0968 132.865C65.7574 125.122 58.5485 118.853 50.1389 114.64C40.1088 109.369 30.2381 103.649 18.6537 102.827ZM37.552 136.068C38.2651 141.144 32.0357 144.535 33.9864 149.884C37.3025 149.695 39.2907 147.742 41.577 146.438C43.6409 145.277 46.0523 144.893 48.3748 145.355C50.94 145.792 52.9893 147.256 52.8299 149.94C52.8302 150.546 52.6657 151.14 52.3542 151.659C52.0426 152.178 51.596 152.602 51.0617 152.886C50.5273 153.17 49.9256 153.304 49.3211 153.272C48.7167 153.241 48.1321 153.046 47.6302 152.707C41.4637 148.909 37.6694 153.785 33.0739 155.935C30.4532 157.035 28.1959 158.852 26.5612 161.177C24.9266 163.503 23.9808 166.241 23.8324 169.08C26.0383 168.015 28.5333 167.708 30.9318 168.204C33.3303 168.7 35.4985 169.973 37.1009 171.826C37.4265 172.091 37.6933 172.421 37.8838 172.795C38.0744 173.17 38.1846 173.58 38.2075 173.999C38.2304 174.419 38.1656 174.838 38.017 175.231C37.8683 175.624 37.6389 175.981 37.3441 176.28C36.224 177.539 34.8651 178.837 33.0529 178.168C31.828 177.675 30.7738 176.834 30.0198 175.75C27.3057 171.765 24.4909 172.889 21.6299 175.404C16.3627 180.154 12.3428 186.126 9.92379 192.794C12.4638 192.893 14.9906 193.214 17.4749 193.753C19.1246 194.154 20.5845 195.114 21.6069 196.469C22.6292 197.824 23.1512 199.492 23.0837 201.188C23.1639 201.854 23.0347 202.528 22.7145 203.118C22.3943 203.707 21.8988 204.182 21.2966 204.477C20.9219 204.671 20.5054 204.77 20.0834 204.765C19.6615 204.76 19.2469 204.651 18.877 204.448C18.507 204.245 18.1929 203.955 17.9619 203.601C17.7309 203.248 17.5905 202.844 17.5527 202.424C16.9067 199.789 16.6568 197.09 12.8918 197.073C11.3852 196.99 9.87843 197.232 8.47358 197.782C7.06873 198.333 5.79904 199.179 4.74973 200.263C0.0653687 205.06 -3.73045 210.649 -6.46122 216.772C-1.84677 216.292 2.25547 215.904 5.26745 219.029C7.2999 221.139 8.30499 223.807 6.03761 226.161C3.87511 228.399 1.42306 227.042 0.164574 224.93C-3.40114 218.927 -7.65926 221.154 -11.7326 223.807C-15.3111 226.312 -18.3896 229.463 -20.8102 233.099C-22.9559 236.088 -25.198 239.014 -27.478 241.909C-28.3338 242.991 -29.6931 243.868 -30.9642 243.089C-32.9589 241.869 -32.0547 240.201 -30.8633 238.955C-26.5992 234.687 -22.8301 229.952 -19.6273 224.839C-17.5464 221.761 -16.5166 218.093 -16.691 214.381C-17.0119 210.656 -20.693 211.409 -22.6143 209.825C-24.6509 208.148 -25.7479 206.021 -24.4035 203.684C-22.5493 200.462 -19.967 202.174 -17.4038 203.055C-12.9257 204.596 -13.6642 209.93 -10.1656 212.722C-6.38397 208.887 -3.47227 204.283 -1.62873 199.223C0.531677 193.126 -1.41938 189.486 -7.59855 187.011C-8.84477 186.604 -10.0373 186.048 -11.1514 185.356C-11.6941 184.959 -12.0978 184.4 -12.3046 183.76C-12.5113 183.12 -12.5107 182.431 -12.303 181.791C-12.0923 180.973 -11.5886 180.261 -10.8876 179.79C-10.1866 179.319 -9.3371 179.122 -8.50032 179.236C-5.08353 179.251 -3.32983 181.885 -1.10231 183.89C1.08955 185.866 0.170883 190.004 4.27145 190.948C8.62582 185.975 12.6507 180.731 14.1105 173.959C15.5033 167.507 13.2714 163.356 6.99572 160.982C5.3737 160.602 3.88539 159.788 2.68964 158.628C2.21249 158.152 1.89142 157.542 1.76892 156.88C1.64642 156.217 1.72848 155.533 2.00397 154.918C2.31374 154.327 2.78516 153.837 3.36353 153.504C3.9419 153.172 4.60304 153.011 5.26949 153.04C8.29825 152.906 10.0939 154.941 12.0991 156.736C15.3544 159.654 16.1977 164.002 18.2763 167.93C23.5599 159.91 26.8001 152.474 27.335 147.419C28.0544 140.636 27.1381 138.994 20.5059 136.741C17.6617 135.776 15.2119 134.511 16.1998 131.267C17.2486 127.799 20.4805 128.588 23.0079 129.299C24.4567 129.742 25.7711 130.541 26.8306 131.623C27.8901 132.706 28.6609 134.037 29.072 135.495C29.7809 137.479 28.3104 140.236 30.8484 141.542C34.0575 140.678 33.7201 135.967 37.5438 136.068H37.552Z" fill="#B1CC6C"/>
<path d="M113.751 285.658C116.912 282.83 121.302 283.459 124.868 281.687C126.145 281.058 127.384 280.376 127.196 278.906C127.066 278.431 126.843 277.987 126.54 277.599C126.237 277.211 125.859 276.887 125.43 276.647C122.498 275.018 119.219 274.115 115.867 274.012C106.509 273.432 97.4988 270.243 89.8585 264.807C78.0098 256.691 65.7814 249.187 51.1913 246.559C43.5797 245.455 35.8253 245.861 28.371 247.756C27.191 247.843 26.0794 248.342 25.231 249.167C24.3825 249.992 23.8517 251.089 23.7316 252.266C23.6753 253.444 23.9737 254.612 24.5888 255.619C25.204 256.626 26.1077 257.425 27.182 257.912C31.2217 260.389 35.6957 259.303 39.941 259.076C53.3655 258.102 66.7574 261.358 78.2363 268.387C88.9334 275.005 89.5209 277.593 83.69 288.361C82.465 290.624 80.4952 292.81 82.3032 295.759C85.9172 297.066 88.2518 293.001 91.6497 293.508L91.6666 293.718C93.4979 291.797 95.6987 290.266 98.1367 289.216C100.575 288.167 103.2 287.622 105.854 287.613L105.724 287.701C107.93 284.961 111.054 285.813 113.904 285.603L113.751 285.658Z" fill="#88A08A"/>
<path d="M73.6572 443.432L73.6864 443.602C73.9863 445.343 73.466 446.511 71.53 446.692L71.6247 446.582C71.7128 448.08 70.9953 448.764 69.5124 448.68L69.5877 448.585C69.6569 453.334 65.3008 454.039 62.5133 455.981C60.1741 457.258 57.7434 458.361 55.2413 459.278C53.7898 459.992 52.0341 460.789 52.2313 462.8C52.4746 465.273 54.6624 465.923 56.5711 466.204C64.5695 467.336 72.7156 465.746 79.7017 461.691C86.8332 457.77 86.8919 457.915 91.305 464.665C94.3284 469.463 96.8133 474.58 98.7137 479.924C100.811 485.533 101.631 485.713 106.701 483.131C108.477 482.225 110.057 480.952 111.812 479.985C115.235 478.097 115.615 475.96 113.161 472.807C109.067 467.551 105.925 461.298 100.576 457.349C94.7032 453.011 95.0136 448.684 97.3229 442.654C101.244 432.399 102.596 421.34 101.262 410.443C97.5346 410.248 97.4109 413.22 96.5865 415.078C92.9416 422.959 88.4983 430.446 83.3262 437.421C80.9414 440.741 78.3681 443.818 73.6572 443.432Z" fill="#88A08A"/>
<path d="M20.8877 98.2821C29.3279 99.3518 37.8629 100.069 45.892 103.49C57.8267 108.576 66.1618 117.247 72.7542 128.138C74.4741 130.98 75.8269 136.737 79.7932 135.112C83.7134 133.503 82.0754 127.831 81.2741 124.23C79.3678 116.68 74.8512 110.048 68.5239 105.51C63.3473 101.525 62.7869 97.185 64.0811 91.4694C66.4074 80.3169 66.5614 68.8206 64.5343 57.6099C63.0471 48.4272 58.437 46.6609 50.2421 50.5832C49.6775 50.7378 49.1562 51.0207 48.7187 51.4097C48.2811 51.7986 47.9389 52.2832 47.7191 52.8258C47.4993 53.3684 47.4077 53.9544 47.4513 54.5382C47.4949 55.122 47.6727 55.688 47.9705 56.192C48.7369 57.6742 49.6 59.1043 50.5545 60.473C52.767 63.8226 54.1891 67.6312 54.7131 71.6112C55.2371 75.5912 54.8495 79.6385 53.5793 83.4466C52.0272 88.3023 50.0721 90.9848 44.6123 90.5778C37.9041 90.0948 31.1815 91.2909 25.0514 94.0577C23.3315 94.817 21.003 95.0687 20.8877 98.2821Z" fill="#88A08A"/>
<path d="M159.193 381.106C155.814 382.331 152.808 379.48 149.482 380.248C147.032 380.814 144.657 381.469 144.901 384.472C145.138 387.264 147.376 388.179 149.947 388.296C162.022 388.846 162.514 389.223 166.423 400.317C167.296 402.798 168.325 405.225 169.234 407.549C172.934 407.295 172.292 404.866 171.942 403.094C171.235 399.499 170.127 395.983 169.215 392.424C167.537 385.827 167.015 379.705 175.145 376.739C177.15 376.007 178.76 374.375 177.596 372.095C176.252 369.459 173.691 369.891 171.453 370.793C168.074 372.154 166.876 375.422 165.215 378.945C161.891 375.163 160.062 370.297 160.074 365.261C159.994 360.783 159.617 356.383 165.624 355.194C166.75 354.969 167.787 353.635 168.571 352.593C169.154 351.818 169.417 350.848 169.305 349.885C168.969 348.362 167.497 348.192 166.14 348.121C164.962 348.111 163.798 348.375 162.739 348.892C161.68 349.408 160.756 350.163 160.038 351.097C158.268 353.021 156.601 355.039 154.851 357.058C148.4 347.939 148.25 342.565 154.052 334.676C154.72 333.936 155.28 333.105 155.715 332.207C156.414 330.246 156.674 328.002 154.713 326.754C152.752 325.506 150.82 326.527 149.373 328.136C146.304 331.547 146.076 335.941 145.755 340.679C142.292 338.351 141.339 334.951 139.62 332.231C135.72 326.068 134.85 319.774 140.878 314.121C141.633 313.457 142.271 312.67 142.766 311.795C144.219 308.974 145.232 305.84 141.448 304.244C138.302 302.922 136.454 304.988 135.674 308.003C134.759 311.528 133.872 315.059 132.836 319.119C127.173 317.708 128.025 308.594 120.526 308.73C120.981 313.796 125.535 316.554 126.804 321.685C121.904 320.527 118.414 317.227 113.862 317.84C111.266 318.188 107.929 317.575 108.178 321.603C108.143 322.293 108.284 322.98 108.587 323.601C108.89 324.222 109.347 324.755 109.913 325.151C110.479 325.547 111.137 325.793 111.824 325.865C112.511 325.937 113.205 325.833 113.841 325.563C125.692 320.908 130.745 329.9 136.983 336.608C137.395 337.139 137.628 337.788 137.648 338.46C137.557 339.285 137.365 340.095 137.075 340.872C133.549 340.52 130.63 337.541 126.861 337.952C124.121 338.25 120.88 338.261 120.839 341.738C120.792 345.724 124.022 346.288 127.311 345.984C138.476 344.958 144.62 348.454 149.005 358.493C149.19 359.355 149.205 360.245 149.05 361.113C145.993 363.061 143.71 360.502 141.149 360.372C138.468 360.236 135.756 359.888 133.545 361.95C133.03 362.373 132.64 362.928 132.416 363.556C132.192 364.185 132.143 364.862 132.274 365.515C132.383 366.182 132.721 366.789 133.23 367.233C133.74 367.676 134.388 367.927 135.064 367.942C136.386 367.973 137.707 367.844 138.998 367.558C149.786 365.543 155.69 369.444 159.193 381.106Z" fill="#88A08A"/>
<path d="M105.84 287.627C103.186 287.637 100.56 288.182 98.1223 289.231C95.6843 290.281 93.4835 291.812 91.6522 293.733C96.9797 293.55 102.044 291.37 105.84 287.627Z" fill="#D0E6E0"/>
<path d="M113.891 285.624C111.036 285.834 107.913 284.976 105.711 287.722C108.534 287.365 111.724 288.479 113.891 285.624Z" fill="#D0E6E0"/>
<path d="M12.6104 368.469C18.8482 376.97 24.4295 384.386 23.5171 394.658C23.2235 397.988 22.8332 400.566 18.7159 400.786C16.2304 400.921 13.961 401.944 14.1456 404.95C14.2412 405.791 14.6263 406.572 15.2348 407.16C15.8432 407.748 16.6372 408.107 17.4807 408.174C20.3144 408.677 23.1838 408.318 24.3856 405.485C25.7904 401.709 26.9991 397.864 28.0076 393.963C30.428 392.791 31.5922 396.69 34.0777 395.769C34.0484 388.921 34.0189 388.827 40.6805 386.737C43.8833 385.733 47.2457 385.175 49.2614 382.096C50.0335 381.205 50.5145 380.1 50.6394 378.928C50.7643 377.756 50.527 376.574 49.9599 375.541C49.0706 374.016 47.9755 372.624 46.1423 372.798C43.4555 373.051 42.5036 375.082 41.6478 377.479C38.8162 385.422 32.811 386.987 26.9486 380.988C22.5822 376.679 19.2361 371.448 17.1556 365.677C21.2771 363.724 25.2138 366.684 29.0752 364.651C30.4439 364.096 31.6701 363.239 32.6618 362.145C33.6536 361.05 34.3853 359.746 34.8034 358.329C35.0131 357.512 34.9749 356.651 34.6933 355.855C34.4116 355.06 33.8994 354.367 33.2221 353.864C32.5786 353.318 31.7661 353.01 30.9223 352.994C30.0785 352.978 29.2551 353.253 28.5908 353.774C27.4853 354.498 26.4447 355.317 25.4804 356.221C18.9111 362.149 12.8452 361.153 9.20605 353.149C7.67699 349.782 5.75166 346.678 4.13031 343.406C2.60335 340.325 1.36125 336.576 7.5551 337.47C8.54985 337.579 9.55331 337.368 10.4202 336.868C13.0274 335.299 16.1651 333.409 14.311 329.9C12.7253 326.899 9.56269 327.729 7.3897 329.592C3.28494 333.12 1.09729 330.978 -1.39451 327.517C-4.86458 322.3 -7.74878 316.715 -9.99437 310.865C-13.6062 312.032 -12.5113 313.999 -11.8548 315.803C-9.48426 321.326 -7.43568 326.982 -5.71953 332.742C-4.26808 338.76 -2.43949 345.476 -10.3344 349.249C-11.4293 350.004 -12.2144 351.129 -12.545 352.417C-13.0175 353.314 -13.1202 354.36 -12.8318 355.333C-12.5434 356.305 -11.8865 357.126 -11.0011 357.62C-9.30846 358.487 -7.85483 357.555 -6.41596 356.572C-2.33637 353.792 -3.56967 348.723 -1.26035 343.987C2.03316 347.607 4.49382 351.904 5.94871 356.577C7.4036 361.249 7.8172 366.184 7.1608 371.034C6.78745 374.599 3.51532 374.459 1.22068 375.512C-1.07396 376.565 -3.01793 377.916 -2.20411 380.775C-1.90324 381.923 -1.28347 382.963 -0.416439 383.775C0.450592 384.586 1.52935 385.135 2.69547 385.359C5.38234 385.857 7.12328 383.818 8.13426 381.71C10.0115 377.817 9.5774 373.152 12.6104 368.469Z" fill="#F8B06C"/>
<path d="M38.1261 401.048C39.5377 406.028 40.6832 410.764 42.2437 415.359C43.6092 419.374 42.7828 421.786 38.3991 422.623C35.9429 423.091 33.8221 424.204 34.1933 427.168C34.3448 427.995 34.7555 428.752 35.366 429.33C35.9766 429.908 36.7556 430.276 37.5895 430.382C38.8759 430.789 40.2652 430.724 41.5084 430.2C42.7516 429.675 43.767 428.724 44.3725 427.518C44.9794 426.51 45.3737 425.387 45.5313 424.221C45.6889 423.054 45.6066 421.867 45.2891 420.733C43.33 415.185 49.1799 412.241 49.2638 407.213C49.3037 404.933 53.4984 404.683 56.2 404.585C59.8496 404.451 63.5413 404.62 66.8323 402.508C67.7003 402.012 68.4054 401.274 68.8616 400.385C69.3178 399.495 69.5056 398.492 69.4019 397.497C69.3571 396.49 68.991 395.524 68.3572 394.74C67.7235 393.956 66.8551 393.396 65.8798 393.141C64.9374 392.736 63.8733 392.72 62.9195 393.098C61.9657 393.475 61.1997 394.215 60.7892 395.155C57.557 403.708 51.1619 402.915 44.3095 401.126C42.3135 400.418 40.1392 400.391 38.1261 401.048Z" fill="#F8B06C"/>
<path d="M55.8291 418.164C56.106 418.722 56.2487 419.536 56.7017 419.762C57.0961 419.972 57.8213 419.507 58.4023 419.343C58.1451 418.762 57.8117 418.218 57.4104 417.726C56.7749 417.124 56.1731 417.35 55.8291 418.164Z" fill="#F8B06C"/>
<path d="M69.5132 448.672C70.9982 448.764 71.7137 448.08 71.6256 446.574C71.3441 446.553 71.0613 446.593 70.7965 446.69C70.5317 446.788 70.2907 446.942 70.0903 447.14C69.89 447.339 69.7347 447.579 69.6351 447.843C69.5355 448.107 69.4941 448.39 69.5132 448.672Z" fill="#D0E6E0"/>
<path d="M71.5264 446.692C73.4624 446.512 73.9827 445.343 73.6828 443.602C73.1151 443.923 72.6268 444.367 72.2536 444.902C71.8804 445.437 71.6317 446.048 71.5264 446.692Z" fill="#D0E6E0"/>
<path d="M37.5465 136.067C33.7144 135.967 34.0517 140.682 30.8342 141.521C28.2962 140.214 29.7667 137.458 29.0578 135.474C28.6468 134.016 27.8764 132.685 26.8169 131.602C25.7574 130.519 24.443 129.72 22.9943 129.278C20.4668 128.567 17.2428 127.778 16.1856 131.245C15.1977 134.49 17.6538 135.755 20.4917 136.72C27.1239 138.972 28.0429 140.615 27.3213 147.398C26.7865 152.453 23.5457 159.888 18.2621 167.909C16.1835 163.981 15.3402 159.633 12.0849 156.715C10.0797 154.92 8.28458 152.885 5.25583 153.019C4.58937 152.989 3.92824 153.15 3.34987 153.483C2.7715 153.815 2.29957 154.306 1.98978 154.896C1.7143 155.511 1.63224 156.196 1.75474 156.858C1.87724 157.521 2.19882 158.131 2.67597 158.607C3.87172 159.767 5.36003 160.58 6.98205 160.96C13.264 163.335 15.4891 167.486 14.0964 173.937C12.6281 180.706 8.61164 185.95 4.25727 190.927C0.156704 189.983 1.07537 185.845 -1.11649 183.869C-3.34401 181.864 -5.10191 179.229 -8.5145 179.215C-9.35128 179.1 -10.2008 179.298 -10.9018 179.769C-11.6028 180.24 -12.1065 180.952 -12.3172 181.769C-12.5249 182.409 -12.5255 183.098 -12.3187 183.739C-12.112 184.379 -11.7083 184.937 -11.1655 185.335C-10.0515 186.027 -8.85844 186.582 -7.61222 186.99C-1.43934 189.465 0.517494 193.104 -1.64291 199.202C-3.48644 204.262 -6.39815 208.866 -10.1798 212.701C-13.6784 209.909 -12.9399 204.575 -17.418 203.033C-19.9811 202.15 -22.563 200.439 -24.4171 203.663C-25.7616 205.999 -24.6651 208.124 -22.6284 209.804C-20.7071 211.388 -17.0256 210.643 -16.7047 214.36C-16.5302 218.071 -17.5606 221.74 -19.6415 224.818C-22.8443 229.931 -26.6134 234.666 -30.8775 238.934C-32.0689 240.18 -32.9752 241.847 -30.9784 243.068C-29.7073 243.846 -28.3479 242.97 -27.4922 241.887C-25.2122 238.997 -22.9701 236.071 -20.8244 233.078C-18.4038 229.442 -15.3247 226.291 -11.7462 223.786C-7.67293 221.139 -3.41951 218.905 0.150394 224.908C1.40888 227.02 3.86513 228.377 6.02343 226.139C8.29081 223.792 7.28204 221.124 5.25378 219.008C2.2418 215.883 -1.86095 216.281 -6.4754 216.751C-3.74462 210.628 0.0511894 205.038 4.73555 200.242C5.78486 199.158 7.05507 198.311 8.45991 197.761C9.86475 197.211 11.3716 196.969 12.8781 197.052C16.6536 197.068 16.8925 199.768 17.5386 202.402C17.5763 202.823 17.7167 203.227 17.9477 203.58C18.1787 203.933 18.4933 204.224 18.8633 204.427C19.2333 204.63 19.6473 204.739 20.0693 204.744C20.4912 204.749 20.9077 204.65 21.2824 204.456C21.8846 204.161 22.3801 203.685 22.7003 203.096C23.0205 202.507 23.1497 201.833 23.0695 201.167C23.137 199.471 22.6151 197.803 21.5927 196.448C20.5703 195.092 19.1104 194.132 17.4607 193.731C14.9764 193.193 12.4502 192.872 9.91012 192.773C12.3292 186.105 16.3485 180.133 21.6157 175.382C24.4683 172.865 27.2789 171.733 30.0056 175.729C30.7596 176.813 31.8138 177.653 33.0387 178.147C34.8509 178.824 36.2104 177.535 37.3304 176.259C37.6252 175.96 37.8542 175.603 38.0028 175.21C38.1514 174.817 38.2162 174.397 38.1933 173.978C38.1704 173.559 38.0602 173.148 37.8696 172.774C37.6791 172.4 37.4128 172.07 37.0872 171.804C35.4848 169.952 33.3167 168.679 30.9182 168.183C28.5197 167.686 26.0241 167.994 23.8182 169.059C23.9666 166.22 24.9124 163.481 26.5471 161.156C28.1817 158.831 30.439 157.014 33.0597 155.914C37.6553 153.764 41.4495 148.887 47.6161 152.686C48.1179 153.024 48.7025 153.22 49.3069 153.251C49.9114 153.283 50.5132 153.149 51.0475 152.865C51.5818 152.581 52.029 152.156 52.3405 151.637C52.652 151.118 52.816 150.524 52.8157 149.919C52.973 147.234 50.9284 145.77 48.3611 145.334C46.0386 144.871 43.6267 145.255 41.5628 146.416C39.2765 147.721 37.2883 149.674 33.9722 149.862C32.0383 144.526 38.2681 141.143 37.5465 136.067Z" fill="#359885"/>
</svg>
