<svg width="388" height="744" viewBox="0 0 388 744" fill="none" xmlns="http://www.w3.org/2000/svg">
<path d="M63.6934 507.281C57.5836 587.097 54.5287 627.005 78.1387 652.612C101.749 678.218 141.887 678.407 222.164 678.784L345.156 679.361C420.58 679.715 458.292 679.892 481.833 656.571C505.374 633.25 505.551 595.538 505.905 520.114L507.177 249.13C507.531 173.706 507.708 135.994 484.387 112.453C461.066 88.912 423.354 88.7349 347.93 88.3809L236.803 87.8592C152.828 87.465 110.841 87.2678 86.9895 112.669C63.138 138.071 66.096 181.75 72.0121 269.109C74.9378 312.312 76.3038 353.759 73.8549 381.176C71.1566 411.385 67.3907 458.98 63.6934 507.281Z" fill="#F5E0CC"/>
<g clip-path="url(#clip0_848_4795)">
<path d="M292.87 330.545C295.687 331.019 298.976 328.801 300.247 326.109C302.191 321.997 299.126 317.586 294.341 308.763C286.44 294.233 289.481 296.476 281.431 282.196C280.534 280.601 269.693 261.485 268.147 262.258C267.425 262.607 269.244 266.943 272.584 277.012C276.322 288.277 279.711 299.666 283.3 310.981C287.736 324.988 289.232 329.922 292.895 330.545H292.87Z" fill="#92A565"/>
<path d="M292.548 245.809C292.474 237.46 293.072 144.375 292.474 130.693C292.05 120.45 303.963 127.478 303.963 128.524C303.689 148.213 301.147 329.972 302.069 341.835C303.016 354.396 301.495 406.783 301.495 406.783C301.495 406.783 304.935 362.072 320.387 350.508C320.387 350.508 319.44 419.942 310.767 420.889C302.617 421.811 301.246 434.622 301.147 436.142V436.416C301.296 440.329 304.436 527.757 305.383 547.545C306.33 567.782 305.01 624.331 306.929 643.596C308.225 656.556 312.112 669.067 314.555 675.895C315.278 677.989 313.084 679.833 311.141 678.786C306.654 676.394 300.175 672.008 294.692 664.805C294.393 664.381 294.193 663.933 294.193 663.409C293.819 654.113 297.159 571.271 294.418 552.006C291.527 531.769 290.156 488.778 289.608 471.955C288.71 444.291 292.573 245.834 292.573 245.834L292.548 245.809Z" fill="#A9BF7B"/>
<path d="M324.303 88.4743C345.911 92.412 355.73 96.0008 371.257 99.6644C377.189 101.06 421.426 111.303 459.482 108.213C464.666 107.789 480.517 106.518 479.071 103.203C477.352 99.2657 452.155 94.6799 445.875 93.5335C423.096 89.3964 410.435 89.5459 365.5 87.6767C333.599 86.3559 314.583 85.2094 314.982 86.3309C315.182 86.8792 319.792 87.6518 324.278 88.4493L324.303 88.4743Z" fill="#F2F2F3"/>
<path d="M311.538 79.1533C316.423 79.901 319.738 73.6953 324.324 65.122C335.987 43.3148 330.804 30.3801 328.037 24.8723C325.719 20.2616 321.159 11.2148 312.336 9.47021C305.009 7.99979 298.18 12.2615 296.161 13.5326C286.317 19.6884 286.367 28.1122 294.317 48.9473C301.345 67.3899 305.482 78.2561 311.538 79.1533Z" fill="#F2F2F3"/>
<path d="M282.18 85.7335C285.221 88.8239 261.918 92.5124 241.108 95.7773C220.746 98.9923 203.126 100.587 181.917 100.263C168.285 100.064 154.702 99.8645 150.316 96.8738C144.783 93.1106 155.624 86.1074 169.007 82.5933C183.462 78.7802 201.157 79.5278 235.974 81.1727C261.769 82.3939 279.763 83.2413 282.18 85.7086V85.7335Z" fill="#F2F2F3"/>
<path d="M312.489 93.2094C322.209 93.309 346.633 119.278 366.197 140.088C384.839 159.927 386.384 164.861 382.197 165.684C375.568 167.005 355.655 157.733 354.234 157.085C329.212 145.347 321.86 131.69 316.402 121.048C312.414 113.247 303.891 93.1097 312.489 93.2094Z" fill="#F2F2F3"/>
<path d="M289.058 77.4335C293.245 76.611 280.335 65.4208 266.553 53.483C235.425 26.492 217.929 17.6944 199.985 12.1866C186.452 8.02453 182.788 8.84697 182.066 9.02143C173.841 11.1897 192.608 27.3145 194.477 28.9095C198.988 32.7476 208.733 40.3489 258.901 64.6732C282.877 76.287 287.313 77.7824 289.033 77.4335H289.058Z" fill="#F2F2F3"/>
<path d="M316.273 91.2906C334.566 99.0664 340.846 103.876 353.033 110.057C357.669 112.425 392.685 129.895 436.174 136.575C442.106 137.497 460.224 140.263 462.442 137.621C465.084 134.456 443.751 125.384 438.442 123.117C419.177 114.917 405.644 112.076 360.51 100.313C328.46 91.9635 309.743 86.7298 308.871 87.627C308.447 88.0507 312.434 89.6707 316.248 91.2906H316.273Z" fill="#E2E2E2"/>
<path d="M313.382 81.7958C317.694 83.4656 328.186 79.8768 342.666 74.9421C379.526 62.3563 388.648 52.0883 391.937 47.5773C394.704 43.7891 400.112 36.4121 392.81 33.1223C386.729 30.3809 374.766 31.8014 371.227 32.2002C353.931 34.2189 344.485 40.1505 329.357 56.5992C315.949 71.1789 308.073 79.7522 313.407 81.7958H313.382Z" fill="#E2E2E2"/>
<path d="M275.051 79.5764C274.777 82.4674 246.116 79.6014 220.521 77.0842C195.498 74.5919 175.137 71.6262 153.205 66.4672C139.099 63.1526 125.043 59.8379 123.772 56.7475C122.177 52.8347 141.492 50.4421 159.51 51.0901C179 51.7879 196.794 56.4235 231.536 65.6697C257.281 72.5234 275.275 77.3085 275.026 79.6014L275.051 79.5764Z" fill="#E2E2E2"/>
<path d="M298.506 91.8889C308.624 94.2316 305.011 118.107 302.12 137.273C299.353 155.541 295.416 159.329 290.107 158.955C281.658 158.332 271.141 147.217 270.394 146.419C257.309 132.363 264.96 121.073 271.241 112.35C275.827 105.97 289.584 89.8453 298.531 91.9138L298.506 91.8889Z" fill="#E2E2E2"/>
<path d="M291.679 75.3652C297.012 75.764 296.04 64.9227 295.018 53.3338C292.701 27.1653 284.227 16.9222 271.566 8.89716C262.046 2.81609 257.236 2.54194 256.289 2.4921C245.198 2.09334 246.744 17.7695 246.918 19.3147C247.342 23.0531 249.012 30.6544 274.358 59.39C286.47 73.1222 289.461 75.1908 291.654 75.3403L291.679 75.3652Z" fill="#E2E2E2"/>
<path d="M309.248 79.4271C319.815 72.9971 328.414 71.4519 337.834 67.4892C341.423 65.969 367.691 54.5047 365.174 35.5636C364.825 32.9717 363.778 25.0962 356.651 23.2021C348.152 20.9591 335.815 28.4358 332.75 30.305C321.61 37.059 320.613 42.7163 311.94 60.8599C305.759 73.7448 301.348 81.1467 303.79 81.8445C304.962 82.1685 307.055 80.748 309.273 79.4021L309.248 79.4271Z" fill="white"/>
<path d="M288.237 77.883C290.305 76.3129 277.57 70.1571 259.975 61.6336C215.164 39.9511 187.301 32.3498 175.388 29.3591C165.394 26.8419 145.855 21.9571 141.219 24.4743C137.356 26.5678 145.631 32.7734 148.073 34.6177C160.011 43.5898 177.83 49.9948 222.641 62.3813C262.342 73.3721 285.67 79.827 288.262 77.883H288.237Z" fill="white"/>
<path d="M299.078 95.7025C305.932 96.7243 311.241 109.684 315.976 121.248C320.611 132.563 322.132 141.46 319.241 150.457C317.372 156.239 315.502 161.996 308.773 161.647C300.275 161.199 286.617 151.13 280.611 142.631C274.106 133.435 277.521 126.282 284.648 112.376C289.932 102.058 293.62 94.8801 299.078 95.7025Z" fill="white"/>
<path d="M318.047 88.1997C319.269 84.0377 376.665 93.1842 422.697 100.511C466.585 107.49 477.127 110.58 478.423 113.022C480.492 116.91 458.859 118.53 457.289 118.655C429.874 120.624 400.267 113.421 377.238 107.689C360.366 103.502 316.951 91.8633 318.023 88.1997H318.047Z" fill="white"/>
<path d="M282.231 86.3564C280.935 83.914 255.963 81.023 229.296 77.9077C169.034 70.9295 148.622 71.8267 135.114 75.4653C124.921 78.1819 126.242 80.4249 126.566 80.8735C130.279 86.1072 166.292 90.2194 169.856 90.6182C178.43 91.5652 195.526 93.1353 252.125 89.7708C279.191 88.1758 282.78 87.3782 282.231 86.3564Z" fill="white"/>
<path d="M294.015 92.4369C286.962 100.088 279.684 102.431 272.681 107.39C270.015 109.284 250.625 123.565 260.793 143.204C262.189 145.871 266.401 154.045 273.778 155.441C282.526 157.086 290.775 148.163 292.819 145.945C300.246 137.895 298.825 131.889 299.274 112.126C299.598 98.0943 300.57 89.9447 298.052 89.4213C296.831 89.1721 295.51 90.8419 294.04 92.4369H294.015Z" fill="#F2F2F3"/>
<path d="M314.005 92.2628C312.734 94.0821 327.04 99.4653 346.753 106.892C396.972 125.783 425.733 131.366 437.945 133.484C448.188 135.254 468.175 138.718 471.415 135.678C474.107 133.16 463.914 127.354 460.898 125.634C446.194 117.235 427.153 112.076 380.772 102.905C339.7 94.7799 315.551 90.0198 314.005 92.2628Z" fill="#F2F2F3"/>
<path d="M296.633 74.4935C289.904 73.995 279.636 60.8609 270.489 49.1474C261.517 37.6831 256.433 28.4618 255.362 18.7919C254.689 12.5613 253.991 6.35561 260.346 6.15623C268.346 5.90701 285.094 15.2778 294.141 23.6767C303.935 32.7485 303.761 40.5492 302.988 55.7518C302.415 67.0168 302.016 74.8673 296.633 74.4935Z" fill="#F2F2F3"/>
<path d="M282.308 83.9884C282.906 88.4744 226.332 83.789 180.948 80.0507C137.708 76.4867 126.717 74.144 124.499 71.7016C120.96 67.8137 140.2 64.2498 141.596 64.0006C165.995 59.5893 196.201 64.5988 219.753 68.6362C236.999 71.602 281.76 80.0756 282.308 84.0133V83.9884Z" fill="#F2F2F3"/>
<path d="M315.979 82.8425C318.197 85.3098 342.347 86.207 368.167 87.154C426.485 89.3223 444.878 86.6057 455.819 81.6462C464.068 77.9078 461.925 75.6897 461.427 75.2411C455.844 70.0822 421.027 68.861 417.563 68.7364C409.289 68.4622 392.915 68.3127 342.248 76.6617C318.023 80.6493 315.057 81.7957 315.979 82.8175V82.8425Z" fill="#F2F2F3"/>
<path d="M286.969 86.9543C270.919 90.6678 260.626 90.6429 247.666 92.4871C242.732 93.1849 206.22 98.6928 194.781 114.843C193.211 117.036 188.451 123.765 194.656 126.431C202.008 129.622 220.725 125.285 225.386 124.213C242.283 120.301 247.542 115.765 270.321 101.983C286.495 92.213 296.714 86.73 294.645 85.783C293.648 85.3344 290.358 86.1817 287.019 86.9543H286.969Z" fill="#E2E2E2"/>
<path d="M308.177 91.4651C304.788 92.4371 313.76 99.54 326.121 109.334C357.623 134.282 381.598 144.874 392.066 149.185C400.839 152.799 417.985 159.902 424.789 158.506C430.446 157.36 426.284 150.93 425.038 149.011C419.007 139.715 404.851 131.64 366.421 114.419C332.377 99.1661 312.364 90.1941 308.177 91.4153V91.4651Z" fill="#E2E2E2"/>
<path d="M309.917 74.9914C303.388 73.0724 307.4 61.4835 310.989 51.1407C314.503 41.0222 319.513 33.371 329.307 26.3429C335.612 21.8319 341.893 17.321 348.796 18.6419C357.519 20.3117 364.522 30.804 364.597 38.8041C364.672 47.4522 355.7 52.8853 337.731 63.3527C324.422 71.1285 315.151 76.5366 309.942 75.0164L309.917 74.9914Z" fill="#E2E2E2"/>
<path d="M284.145 78.3067C279.734 81.5964 225.478 65.1476 181.988 51.9637C140.517 39.4028 131.595 35.2158 132.044 32.9728C132.741 29.4089 156.966 31.4027 158.711 31.5522C189.34 34.1442 215.459 44.6863 235.696 52.9855C250.5 59.0666 288.033 75.4157 284.145 78.3316V78.3067Z" fill="#E2E2E2"/>
<path d="M320.885 85.3336C320.462 87.5766 344.836 93.8321 370.93 100.511C429.821 115.589 452.226 117.982 469.323 117.035C482.208 116.337 482.457 114.269 482.432 113.845C482.383 108.935 447.142 99.963 443.628 99.0908C435.229 96.9724 418.207 93.0595 355.478 87.128C325.496 84.2869 321.085 84.4115 320.91 85.3336H320.885Z" fill="#E2E2E2"/>
<path d="M313.157 91.0164C328.559 99.9137 332.746 104.873 342.491 111.702C346.204 114.294 374.341 133.634 416.859 144.151C422.666 145.596 440.361 149.958 444.049 147.815C448.436 145.248 430.492 134.88 426.006 132.288C409.806 122.917 396.971 118.979 355.276 103.727C325.668 92.8856 308.546 86.2562 307.201 86.979C306.553 87.3279 309.942 89.1721 313.157 91.0413V91.0164Z" fill="white"/>
<path d="M314.881 82.169C318.594 84.113 331.454 81.9697 349.199 79.0288C394.383 71.5521 409.187 63.2529 414.944 59.5395C419.754 56.4242 429.175 50.3431 423.119 46.6297C418.085 43.5393 404.751 43.5642 400.813 43.5642C381.548 43.5642 368.614 47.9256 344.389 61.1594C322.931 72.873 310.295 79.7516 314.881 82.1441V82.169Z" fill="white"/>
<path d="M275.577 76.2124C273.832 78.7794 245.022 73.2467 219.327 68.312C194.18 63.4771 174.192 58.692 153.656 51.7885C140.447 47.3523 127.263 42.9161 127.513 40.0002C127.812 36.3117 149.37 36.1621 168.061 38.6294C188.273 41.2712 204.697 47.2775 236.723 59.1904C260.449 68.013 276.997 74.1688 275.602 76.2124H275.577Z" fill="white"/>
<path d="M294.114 89.6962C303.635 92.8364 287.809 113.921 275.124 130.843C263.036 146.968 256.955 149.984 251.547 149.061C242.949 147.616 237.441 136.55 237.067 135.753C230.338 121.771 244.07 112.425 255.086 105.223C263.136 99.9642 285.741 86.9049 294.139 89.6713L294.114 89.6962Z" fill="white"/>
<path d="M295.211 74.1446C300.645 75.0418 305.056 65.2224 309.816 54.6802C320.533 30.9292 316.744 20.8605 307.423 12.3121C300.395 5.88213 295.486 5.13446 294.489 4.98493C282.999 3.48958 276.744 17.7203 276.146 19.1409C274.7 22.5552 272.632 29.5584 284.968 57.9949C290.85 71.5776 292.968 73.7459 295.211 74.1197V74.1446Z" fill="white"/>
<path d="M301.317 70.4805C315.373 72.5491 326.589 78.655 331.374 83.9635C337.455 90.7175 334.539 97.7705 322.028 100.213C310.788 102.431 293.217 100.612 280.856 94.6802C268.37 88.6988 267.547 81.5211 270.314 77.4338C273.628 72.574 284.794 68.0381 301.292 70.4556L301.317 70.4805Z" fill="#E8A524"/>
<path d="M303.263 668.992C303.263 668.992 306.428 629.764 321.133 594.274C333.818 563.695 348.946 567.807 359.314 539.046C371.576 505.002 362.055 466.771 354.429 465.949C350.641 465.55 346.977 474.348 339.8 491.943C333.718 506.897 326.441 526.934 319.488 557.713C315.899 573.564 316.597 573.614 312.086 593.352C305.506 622.113 303.861 628.667 303.861 628.667C298.079 651.721 299.301 667.945 299.301 667.945L303.263 668.967V668.992Z" fill="#A9BF7B"/>
<path d="M297.513 559.359C294.946 559.633 295.469 534.885 280.864 509.414C276.777 502.286 270.173 490.747 257.313 480.579C247.493 472.803 242.459 472.504 234.982 463.931C225.611 453.189 220.353 438.535 223.618 435.918C224.864 434.896 227.331 435.719 237.026 441.6C254.272 452.068 262.895 457.301 267.88 463.133C269.824 465.401 274.335 476.193 283.307 497.651C298.011 532.841 286.572 508.043 294.671 528.106C296.142 531.72 298.759 538.1 299.133 546.897C299.357 551.882 298.908 559.234 297.513 559.384V559.359Z" fill="#A9BF7B"/>
<path d="M302.386 241.697C301.614 244.339 298.997 246.732 296.853 246.507C294.685 246.283 293.24 243.392 292.043 240.227C286.835 226.42 286.162 207.553 287.981 207.379C289.078 207.279 288.405 214.033 293.514 224.002C298.349 233.448 303.807 236.837 302.361 241.722L302.386 241.697Z" fill="#A9BF7B"/>
<path d="M189.287 623.785C182.425 623.686 179.211 624.835 174.228 625.33C172.333 625.52 158.163 626.765 146.663 619.946C145.096 619.015 140.309 616.178 140.944 614.158C141.696 611.754 149.697 611.873 151.688 611.901C158.915 612.006 162.791 613.702 176.685 618.093C186.555 621.21 192.453 622.835 192.262 623.538C192.172 623.88 190.716 623.804 189.287 623.785Z" fill="#F2F2F3"/>
<path d="M193.742 619.195C192.195 619.072 191.539 614.538 190.628 608.276C188.314 592.334 190.655 584.393 191.825 581.081C192.804 578.306 194.721 572.88 197.533 572.818C199.868 572.766 201.716 576.449 202.261 577.541C204.93 582.863 204.421 588.451 200.778 601.291C197.549 612.661 195.653 619.347 193.747 619.195H193.742Z" fill="#F2F2F3"/>
<path d="M202.36 627.259C201.249 628.931 208.185 634.296 214.38 639.086C220.437 643.771 225.759 647.045 232.282 649.492C236.475 651.065 240.658 652.633 242.178 651.207C244.095 649.406 241.167 643.396 237.27 639.385C233.055 635.047 227.58 633.317 216.805 630.043C208.82 627.615 203.25 625.923 202.36 627.259Z" fill="#F2F2F3"/>
<path d="M192.63 628.423C189.639 627.268 180.648 641.452 173.436 652.828C166.564 663.671 165.812 666.745 167.04 667.819C168.999 669.525 175.644 665.876 176.121 665.61C184.476 660.953 187.526 652.809 189.813 646.427C191.487 641.756 195.272 629.444 192.63 628.423Z" fill="#F2F2F3"/>
<path d="M200.734 620.872C199.5 619.798 204.101 613.996 209.026 607.786C220.14 593.768 226.017 590.119 231.841 588.708C236.231 587.643 237.316 588.646 237.523 588.86C239.916 591.326 233.229 599.684 232.561 600.511C230.952 602.493 227.526 606.322 210.72 616.177C202.688 620.886 201.248 621.314 200.734 620.872Z" fill="#F2F2F3"/>
<path d="M191.576 626.669C185.509 629.544 183.306 631.944 179.208 634.529C177.646 635.512 165.896 642.725 152.156 641.713C150.282 641.576 144.563 641.153 144.039 639.109C143.414 636.677 150.483 633.327 152.246 632.49C158.637 629.459 162.947 629.273 177.481 627.121C187.806 625.591 193.843 624.465 194.06 625.168C194.166 625.505 192.847 626.071 191.582 626.669H191.576Z" fill="#E2E2E2"/>
<path d="M193.018 620.725C191.599 621.285 188.592 617.593 184.435 612.495C173.856 599.518 171.648 591.549 170.902 588.142C170.272 585.286 169.043 579.698 171.474 578.434C173.496 577.384 177.086 579.812 178.15 580.53C183.339 584.041 185.897 589.159 189.587 601.989C192.854 613.35 194.776 620.031 193.024 620.725H193.018Z" fill="#E2E2E2"/>
<path d="M204.907 624.066C204.827 626.014 213.786 627.72 221.787 629.24C229.613 630.728 236.03 631.303 243.062 630.633C247.578 630.2 252.089 629.768 252.656 627.862C253.371 625.458 247.584 621.452 242.013 619.618C235.993 617.637 230.269 618.487 219.065 620.269C210.768 621.59 204.976 622.512 204.912 624.066H204.907Z" fill="#E2E2E2"/>
<path d="M197.001 629.288C193.76 629.563 193.485 645.885 193.263 658.972C193.051 671.445 194.041 674.467 195.693 674.876C198.325 675.527 202.195 669.454 202.471 669.017C207.294 661.324 205.605 652.87 204.186 646.289C203.148 641.471 199.865 629.045 197.001 629.292V629.288Z" fill="#E2E2E2"/>
<path d="M200.057 619.171C198.399 618.763 199.321 611.687 200.305 604.118C202.535 587.031 205.722 581.295 210.074 577.541C213.352 574.714 214.84 575.123 215.136 575.222C218.557 576.353 217.18 586.565 217.037 587.577C216.693 590.01 215.74 594.847 206.294 610.742C201.777 618.34 200.745 619.338 200.057 619.166V619.171Z" fill="#E2E2E2"/>
<path d="M194.427 619.67C191.552 614.078 189.005 611.977 186.347 608.162C185.336 606.708 177.944 595.788 179.808 583.533C180.062 581.861 180.84 576.762 183.144 576.396C185.881 575.964 189.233 582.483 190.069 584.108C193.098 589.996 193.071 593.868 194.686 607.012C195.835 616.344 196.757 621.818 195.968 621.97C195.586 622.046 195.025 620.834 194.427 619.67Z" fill="white"/>
<path d="M200.965 621.281C200.42 619.979 204.687 617.48 210.58 614.03C225.586 605.249 234.572 603.7 238.405 603.21C241.619 602.801 247.899 601.998 249.175 604.246C250.239 606.113 247.338 609.202 246.48 610.114C242.291 614.576 236.462 616.591 221.986 619.204C209.167 621.523 201.632 622.882 200.954 621.276L200.965 621.281Z" fill="white"/>
<path d="M196.602 631.754C194.436 631.578 192.059 639.513 189.936 646.598C187.855 653.531 186.87 659.252 187.241 665.586C187.479 669.658 187.717 673.721 189.803 674.334C192.44 675.104 197.211 670.134 199.551 665.244C202.082 659.955 201.442 654.781 200.065 644.645C199.043 637.138 198.328 631.896 196.602 631.754Z" fill="white"/>
<path d="M191.217 624.388C191.085 621.466 172.94 620.345 158.389 619.442C144.522 618.582 141.107 619.304 140.567 620.768C139.704 623.091 146.248 626.883 146.725 627.154C155.022 631.891 164.521 630.832 171.923 629.915C177.34 629.245 191.339 626.969 191.223 624.388H191.217Z" fill="white"/>
<path d="M202.311 627.667C202.856 626.203 210.677 627.41 219.048 628.703C237.94 631.62 244.151 634.79 248.096 638.886C251.066 641.974 250.526 643.286 250.404 643.547C248.964 646.555 237.675 644.769 236.553 644.583C233.868 644.141 228.531 643.029 211.354 633.706C203.147 629.254 202.088 628.271 202.316 627.667H202.311Z" fill="white"/>
<path d="M198.345 630.219C200.071 636.178 202.162 638.653 204.021 642.83C204.73 644.422 209.851 656.344 205.593 668.109C205.011 669.715 203.243 674.61 200.902 674.6C198.122 674.591 196.11 667.643 195.607 665.909C193.791 659.632 194.58 655.826 195.586 642.635C196.301 633.269 196.47 627.734 197.281 627.705C197.672 627.691 197.979 628.974 198.339 630.214L198.345 630.219Z" fill="#F2F2F3"/>
<path d="M192.224 627.591C192.505 628.96 187.808 630.742 181.327 633.198C164.823 639.456 155.673 639.547 151.803 639.418C148.562 639.309 142.219 639.1 141.404 636.686C140.726 634.681 144.189 632.101 145.211 631.34C150.214 627.615 156.351 626.56 171.113 626.289C184.186 626.047 191.874 625.904 192.219 627.596L192.224 627.591Z" fill="#F2F2F3"/>
<path d="M198.582 617.979C200.679 618.497 204.587 611.065 208.076 604.427C211.491 597.936 213.588 592.462 214.478 586.166C215.05 582.122 215.616 578.083 213.683 577.152C211.242 575.974 205.566 580.108 202.294 584.55C198.757 589.354 198.365 594.548 197.719 604.741C197.243 612.291 196.909 617.565 198.582 617.974V617.979Z" fill="#F2F2F3"/>
<path d="M202.426 626.085C201.981 628.979 219.613 632.975 233.756 636.178C247.237 639.228 250.737 639.062 251.557 637.713C252.865 635.565 247.173 630.789 246.76 630.447C239.527 624.465 229.97 623.994 222.504 623.723C217.04 623.524 202.813 623.533 202.421 626.09L202.426 626.085Z" fill="#F2F2F3"/>
<path d="M192.161 621.091C191.335 622.446 183.875 620.013 175.895 617.409C157.877 611.536 152.391 607.425 149.32 602.764C147.006 599.252 147.795 598.045 147.97 597.808C149.982 595.08 160.741 598.635 161.806 598.991C164.363 599.851 169.393 601.795 184.457 613.702C191.658 619.39 192.505 620.526 192.161 621.087V621.091Z" fill="#F2F2F3"/>
<path d="M200.831 627.468C205.538 631.948 208.699 633.212 212.569 636.068C214.047 637.156 224.928 645.396 227.506 657.546C227.856 659.204 228.931 664.26 226.876 665.263C224.43 666.456 218.944 661.233 217.578 659.931C212.617 655.213 211.272 651.535 205.077 639.542C200.682 631.022 197.86 626.099 198.554 625.724C198.887 625.543 199.846 626.531 200.831 627.468Z" fill="#E2E2E2"/>
<path d="M194.056 627.805C195.036 628.883 191.875 632.471 187.512 637.427C176.398 650.038 168.429 654.072 164.972 655.631C162.07 656.938 156.399 659.489 154.392 657.726C152.724 656.258 154.376 652.504 154.864 651.392C157.252 645.966 162.065 642.393 174.857 635.778C186.188 629.919 192.849 626.474 194.062 627.805H194.056Z" fill="#E2E2E2"/>
<path d="M194.474 616.634C196.586 616.183 196.031 607.981 195.528 600.654C195.04 593.488 193.944 587.781 191.345 581.885C189.677 578.093 188.009 574.306 185.811 574.325C183.037 574.348 180.278 580.421 179.796 585.729C179.272 591.464 181.713 596.192 186.616 605.406C190.249 612.229 192.785 616.995 194.469 616.634H194.474Z" fill="#E2E2E2"/>
<path d="M202.195 622.079C203.36 624.812 220.955 620.692 235.071 617.394C248.525 614.248 251.501 612.585 251.501 611.046C251.501 608.599 243.945 606.869 243.4 606.75C233.853 604.631 225.223 608.347 218.535 611.331C213.637 613.517 201.173 619.67 202.2 622.079H202.195Z" fill="#E2E2E2"/>
<path d="M190.517 622.136C190.517 623.676 182.675 624.768 174.282 625.933C155.337 628.565 148.327 627.334 143.133 624.574C139.22 622.492 139.267 621.095 139.294 620.815C139.596 617.555 150.932 616.021 152.055 615.878C154.76 615.526 160.209 615.061 179.8 618.99C189.161 620.867 190.511 621.495 190.511 622.136H190.517Z" fill="#E2E2E2"/>
<path d="M192.551 626.874C187.314 630.851 185.736 633.616 182.348 636.933C181.056 638.197 171.302 647.506 157.647 649.159C155.783 649.387 150.096 650.076 149.096 648.18C147.899 645.928 154.009 641.29 155.529 640.136C161.046 635.945 165.213 634.933 178.89 630.034C188.606 626.551 194.24 624.294 194.616 624.935C194.796 625.244 193.647 626.052 192.556 626.878L192.551 626.874Z" fill="white"/>
<path d="M192.537 620.787C191.288 621.609 187.465 618.582 182.186 614.401C168.753 603.762 164.692 596.406 163.145 593.217C161.848 590.547 159.312 585.33 161.382 583.624C163.103 582.208 167.191 583.89 168.403 584.389C174.312 586.822 178.029 591.326 184.701 603.149C190.61 613.617 194.083 619.77 192.537 620.787Z" fill="white"/>
<path d="M204.95 621.761C205.336 623.681 214.497 623.619 222.672 623.567C230.672 623.514 237.079 622.84 243.783 620.83C248.093 619.537 252.392 618.25 252.493 616.278C252.614 613.792 246.006 610.994 240.129 610.276C233.775 609.497 228.385 611.431 217.869 615.327C210.081 618.216 204.643 620.231 204.95 621.761Z" fill="white"/>
<path d="M198.472 628.385C195.369 629.278 199.002 645.272 201.914 658.097C204.688 670.323 206.377 673.079 208.093 673.16C210.815 673.289 213.144 666.612 213.308 666.132C216.184 657.693 212.509 649.758 209.554 643.6C207.389 639.09 201.21 627.591 198.472 628.38V628.385Z" fill="white"/>
<path d="M199.04 617.917C197.325 617.836 196.536 610.751 195.689 603.167C193.777 586.047 195.525 579.832 198.876 575.327C201.402 571.934 202.953 572.048 203.266 572.086C206.877 572.528 207.973 582.773 208.073 583.79C208.317 586.232 208.545 591.141 203.117 608.485C200.523 616.772 199.75 617.95 199.04 617.917Z" fill="white"/>
<path d="M197.377 614.724C192.945 614.329 189.143 616.985 187.375 619.903C185.114 623.624 185.606 628.675 189.297 631.873C192.622 634.747 198.118 635.755 202.248 633.369C206.426 630.956 207.093 626.299 206.479 623.243C205.748 619.599 202.582 615.189 197.372 614.728L197.377 614.724Z" fill="#E8A524"/>
</g>
<path d="M76.222 406.403C67.2484 406.258 63.0455 407.933 56.5299 408.653C54.0511 408.93 35.5223 410.744 20.4832 400.808C18.4336 399.451 12.1743 395.317 13.0052 392.375C13.9884 388.871 24.4507 389.044 27.0541 389.086C36.5055 389.238 41.5739 391.71 59.7427 398.108C72.6492 402.65 80.3626 405.018 80.1133 406.043C79.9956 406.541 78.0915 406.431 76.222 406.403Z" fill="#F2F2F3"/>
<path d="M82.0452 399.714C80.0233 399.534 79.1647 392.929 77.9738 383.803C74.948 360.573 78.0084 349.002 79.5386 344.176C80.8196 340.133 83.3261 332.225 87.0028 332.135C90.0563 332.059 92.4728 337.425 93.186 339.018C96.6757 346.773 96.011 354.916 91.2473 373.624C87.0236 390.194 84.5447 399.936 82.0521 399.714H82.0452Z" fill="#F2F2F3"/>
<path d="M93.3188 411.464C91.8647 413.902 100.935 421.719 109.036 428.699C116.958 435.526 123.916 440.296 132.447 443.862C137.931 446.154 143.401 448.439 145.388 446.362C147.894 443.738 144.065 434.979 138.969 429.135C133.458 422.813 126.298 420.293 112.208 415.522C101.766 411.984 94.482 409.519 93.3188 411.464Z" fill="#F2F2F3"/>
<path d="M80.5949 413.161C76.6828 411.478 64.9258 432.147 55.4952 448.723C46.5077 464.524 45.5245 469.004 47.1309 470.568C49.6928 473.054 58.3825 467.736 59.0057 467.349C69.9319 460.563 73.9201 448.695 76.9113 439.396C79.0993 432.59 84.0501 414.65 80.5949 413.161Z" fill="#F2F2F3"/>
<path d="M91.1869 402.158C89.5736 400.594 95.5906 392.139 102.03 383.089C116.564 362.663 124.249 357.346 131.866 355.289C137.606 353.738 139.025 355.199 139.295 355.511C142.425 359.104 133.68 371.284 132.808 372.489C130.703 375.376 126.223 380.957 104.246 395.317C93.7419 402.179 91.8586 402.802 91.1869 402.158Z" fill="#F2F2F3"/>
<path d="M79.2154 410.606C71.2804 414.795 68.3999 418.292 63.0407 422.058C60.9981 423.492 45.6336 434.002 27.6656 432.528C25.2145 432.327 17.7364 431.71 17.051 428.733C16.2339 425.188 25.4776 420.307 27.7833 419.088C36.1407 414.67 41.7769 414.4 60.7835 411.264C74.2854 409.034 82.1789 407.393 82.4627 408.418C82.6012 408.909 80.8771 409.733 79.2223 410.606H79.2154Z" fill="#E2E2E2"/>
<path d="M81.1004 401.944C79.2448 402.761 75.3119 397.381 69.8765 389.951C56.0422 371.042 53.1548 359.43 52.1785 354.465C51.3546 350.304 49.7482 342.161 52.9263 340.319C55.5713 338.789 60.2659 342.327 61.6576 343.373C68.4432 348.49 71.7875 355.947 76.6136 374.642C80.8858 391.198 83.3992 400.933 81.1073 401.944H81.1004Z" fill="#E2E2E2"/>
<path d="M96.6452 406.812C96.5414 409.65 108.257 412.136 118.719 414.352C128.953 416.519 137.345 417.357 146.54 416.381C152.446 415.751 158.346 415.12 159.087 412.344C160.021 408.84 152.453 403.003 145.169 400.331C137.296 397.443 129.812 398.683 115.16 401.279C104.31 403.204 96.7352 404.547 96.6521 406.812H96.6452Z" fill="#E2E2E2"/>
<path d="M86.3083 414.421C82.0708 414.823 81.7107 438.607 81.4199 457.676C81.143 475.852 82.4378 480.255 84.5981 480.851C88.0393 481.799 93.1008 472.95 93.4609 472.313C99.7687 461.103 97.5599 448.785 95.7043 439.195C94.3472 432.174 90.0542 414.068 86.3083 414.428V414.421Z" fill="#E2E2E2"/>
<path d="M90.3059 399.68C88.1387 399.084 89.3434 388.774 90.6313 377.744C93.5464 352.845 97.7147 344.488 103.406 339.018C107.692 334.898 109.638 335.494 110.026 335.639C114.499 337.287 112.698 352.167 112.511 353.642C112.061 357.187 110.815 364.236 98.4625 387.397C92.5562 398.468 91.206 399.922 90.3059 399.673V399.68Z" fill="#E2E2E2"/>
<path d="M82.9432 400.407C79.1834 392.257 75.8529 389.197 72.377 383.637C71.0545 381.518 61.3885 365.606 63.8258 347.749C64.1582 345.312 65.176 337.882 68.188 337.349C71.7677 336.719 76.1507 346.219 77.2447 348.587C81.2052 357.166 81.1706 362.809 83.2825 381.961C84.785 395.56 85.9898 403.537 84.9581 403.758C84.4595 403.869 83.7256 402.103 82.9432 400.407Z" fill="white"/>
<path d="M91.495 402.754C90.7818 400.857 96.3626 397.215 104.069 392.188C123.692 379.392 135.442 377.135 140.455 376.422C144.658 375.826 152.87 374.656 154.539 377.931C155.93 380.652 152.136 385.153 151.014 386.482C145.537 392.984 137.914 395.92 118.984 399.728C102.22 403.107 92.3674 405.087 91.4811 402.747L91.495 402.754Z" fill="white"/>
<path d="M85.7874 418.015C82.9554 417.758 79.8465 429.322 77.0699 439.646C74.3488 449.748 73.0609 458.084 73.5456 467.314C73.8572 473.248 74.1688 479.168 76.8968 480.061C80.345 481.183 86.5836 473.94 89.6441 466.816C92.9538 459.109 92.116 451.569 90.3157 436.8C88.9794 425.86 88.0446 418.222 85.7874 418.015Z" fill="white"/>
<path d="M78.7483 407.282C78.5752 403.024 54.8464 401.39 35.819 400.074C17.6849 398.821 13.2188 399.873 12.5126 402.006C11.3839 405.392 19.9421 410.917 20.5653 411.312C31.4153 418.215 43.8371 416.671 53.517 415.335C60.6003 414.358 78.9076 411.042 78.7552 407.282H78.7483Z" fill="white"/>
<path d="M93.255 412.06C93.9682 409.927 104.195 411.686 115.142 413.569C139.847 417.821 147.969 422.439 153.128 428.408C157.012 432.908 156.306 434.819 156.146 435.2C154.263 439.583 139.501 436.98 138.033 436.709C134.523 436.066 127.543 434.445 105.081 420.86C94.349 414.372 92.9642 412.939 93.2619 412.06H93.255Z" fill="white"/>
<path d="M88.0687 415.778C90.3259 424.461 93.0609 428.068 95.4913 434.155C96.4191 436.474 103.115 453.847 97.5477 470.991C96.7861 473.331 94.4734 480.463 91.413 480.449C87.7778 480.435 85.1467 470.312 84.4889 467.785C82.1139 458.638 83.1456 453.092 84.4612 433.871C85.396 420.224 85.6175 412.157 86.6769 412.115C87.1893 412.095 87.5909 413.964 88.0617 415.771L88.0687 415.778Z" fill="#F2F2F3"/>
<path d="M80.0635 411.949C80.4305 413.943 74.2889 416.54 65.8138 420.12C44.2314 429.239 32.2666 429.37 27.2051 429.183C22.9676 429.024 14.6725 428.719 13.6062 425.202C12.72 422.28 17.2483 418.52 18.5847 417.412C25.1279 411.984 33.1529 410.447 52.4572 410.052C69.5528 409.699 79.6066 409.491 80.0566 411.956L80.0635 411.949Z" fill="#F2F2F3"/>
<path d="M88.3773 397.942C91.1192 398.697 96.2292 387.867 100.792 378.195C105.258 368.736 108 360.76 109.163 351.585C109.911 345.693 110.652 339.807 108.125 338.45C104.933 336.733 97.5102 342.757 93.2311 349.231C88.6058 356.231 88.0934 363.799 87.2487 378.652C86.6255 389.654 86.1893 397.34 88.3773 397.935V397.942Z" fill="#F2F2F3"/>
<path d="M93.4053 409.754C92.8237 413.971 115.881 419.794 134.375 424.461C152.004 428.906 156.581 428.664 157.654 426.698C159.364 423.568 151.921 416.609 151.381 416.111C141.922 407.393 129.424 406.708 119.661 406.313C112.516 406.022 93.9108 406.036 93.3984 409.761L93.4053 409.754Z" fill="#F2F2F3"/>
<path d="M79.9823 402.477C78.9021 404.451 69.1461 400.906 58.7115 397.111C35.1489 388.553 27.9755 382.564 23.9596 375.771C20.9337 370.654 21.9654 368.895 22.1939 368.549C24.8251 364.575 38.8948 369.754 40.2865 370.273C43.6309 371.527 50.2087 374.359 69.9077 391.71C79.3245 399.998 80.4323 401.653 79.9823 402.47V402.477Z" fill="#F2F2F3"/>
<path d="M91.3172 411.769C97.4727 418.298 101.606 420.14 106.668 424.302C108.6 425.887 122.829 437.894 126.201 455.598C126.658 458.015 128.063 465.382 125.377 466.843C122.178 468.581 115.005 460.972 113.218 459.074C106.73 452.199 104.972 446.839 96.8703 429.363C91.1234 416.948 87.4328 409.775 88.3399 409.228C88.7761 408.965 90.0294 410.405 91.3172 411.769Z" fill="#E2E2E2"/>
<path d="M82.4612 412.261C83.7422 413.832 79.6085 419.06 73.9031 426.282C59.3694 444.658 48.9487 450.537 44.4273 452.808C40.6329 454.712 33.2172 458.43 30.593 455.862C28.4119 453.722 30.5722 448.252 31.2092 446.632C34.332 438.724 40.626 433.518 57.3545 423.879C72.1721 415.342 80.8826 410.322 82.4682 412.261H82.4612Z" fill="#E2E2E2"/>
<path d="M83.0075 395.982C85.7703 395.324 85.0432 383.373 84.3854 372.697C83.7484 362.255 82.3151 353.939 78.9154 345.346C76.7343 339.821 74.5532 334.302 71.6798 334.33C68.0515 334.365 64.4441 343.214 63.814 350.948C63.1285 359.305 66.3205 366.195 72.7322 379.621C77.4821 389.564 80.7988 396.508 83.0006 395.982H83.0075Z" fill="#E2E2E2"/>
<path d="M93.1026 403.917C94.6259 407.898 117.635 401.895 136.094 397.09C153.688 392.506 157.58 390.083 157.58 387.839C157.58 384.274 147.699 381.753 146.986 381.58C134.502 378.492 123.215 383.907 114.47 388.255C108.066 391.44 91.7663 400.407 93.1095 403.917H93.1026Z" fill="#E2E2E2"/>
<path d="M77.8296 404C77.8296 406.243 67.5751 407.836 56.6004 409.532C31.826 413.368 22.6586 411.575 15.866 407.552C10.7491 404.519 10.8115 402.484 10.8461 402.075C11.2408 397.325 26.0652 395.089 27.5331 394.881C31.0713 394.369 38.1962 393.69 63.8153 399.416C76.0571 402.151 77.8227 403.065 77.8227 404H77.8296Z" fill="#E2E2E2"/>
<path d="M80.4925 410.903C73.6446 416.699 71.5812 420.729 67.1498 425.562C65.4603 427.403 52.7062 440.968 34.849 443.377C32.4117 443.71 24.9752 444.714 23.6666 441.951C22.1017 438.669 30.0921 431.911 32.0793 430.228C39.2942 424.121 44.7435 422.647 62.6284 415.508C75.3341 410.432 82.7013 407.144 83.1929 408.078C83.4283 408.528 81.9258 409.705 80.4994 410.91L80.4925 410.903Z" fill="white"/>
<path d="M80.4704 402.034C78.8363 403.232 73.8371 398.821 66.9338 392.728C49.3674 377.225 44.0566 366.507 42.0348 361.861C40.3384 357.969 37.0218 350.367 39.7291 347.881C41.9794 345.817 47.3248 348.269 48.9104 348.996C56.6377 352.541 61.4984 359.105 70.2227 376.332C77.95 391.586 82.4922 400.552 80.4704 402.034Z" fill="white"/>
<path d="M96.6998 403.453C97.2052 406.251 109.184 406.16 119.875 406.084C130.337 406.008 138.715 405.025 147.481 402.096C153.117 400.213 158.74 398.336 158.871 395.463C159.03 391.841 150.389 387.763 142.703 386.718C134.394 385.582 127.346 388.4 113.595 394.078C103.409 398.288 96.2982 401.224 96.6998 403.453Z" fill="white"/>
<path d="M88.232 413.105C84.1745 414.407 88.9244 437.713 92.7326 456.401C96.3609 474.217 98.5697 478.233 100.813 478.351C104.372 478.538 107.419 468.809 107.633 468.11C111.393 455.813 106.588 444.25 102.724 435.276C99.8921 428.705 91.8117 411.949 88.232 413.098V413.105Z" fill="white"/>
<path d="M88.975 397.852C86.7316 397.734 85.6999 387.41 84.5921 376.359C82.0925 351.412 84.3774 342.355 88.7604 335.791C92.0632 330.847 94.0919 331.014 94.5004 331.069C99.2227 331.713 100.656 346.641 100.788 348.123C101.106 351.682 101.404 358.835 94.3066 384.107C90.9138 396.183 89.9028 397.9 88.975 397.852Z" fill="white"/>
<path d="M86.7996 393.199C81.0041 392.624 76.0326 396.495 73.72 400.746C70.7634 406.168 71.4073 413.528 76.2334 418.188C80.5817 422.377 87.7689 423.845 93.1697 420.369C98.6328 416.852 99.5053 410.066 98.7021 405.614C97.7465 400.303 93.6059 393.878 86.7926 393.206L86.7996 393.199Z" fill="#E8A524"/>
<path d="M450.222 650.403C441.248 650.258 437.045 651.933 430.53 652.653C428.051 652.93 409.522 654.745 394.483 644.809C392.434 643.451 386.174 639.318 387.005 636.375C387.988 632.871 398.451 633.045 401.054 633.086C410.505 633.238 415.574 635.71 433.743 642.108C446.649 646.65 454.363 649.018 454.113 650.043C453.996 650.542 452.092 650.431 450.222 650.403Z" fill="#F2F2F3"/>
<path d="M452.748 651.282C452.575 647.024 428.846 645.39 409.819 644.074C391.685 642.821 387.219 643.873 386.513 646.006C385.384 649.392 393.942 654.917 394.565 655.312C405.415 662.215 417.837 660.671 427.517 659.335C434.6 658.359 452.908 655.042 452.755 651.282H452.748Z" fill="white"/>
<path d="M454.064 655.949C454.431 657.943 448.289 660.54 439.814 664.119C418.231 673.238 406.267 673.37 401.205 673.183C396.968 673.024 388.673 672.719 387.606 669.202C386.72 666.28 391.248 662.52 392.585 661.412C399.128 655.984 407.153 654.447 426.457 654.052C443.553 653.699 453.607 653.491 454.057 655.956L454.064 655.949Z" fill="#F2F2F3"/>
<path d="M451.83 648C451.83 650.243 441.575 651.836 430.6 653.532C405.826 657.368 396.659 655.575 389.866 651.552C384.749 648.519 384.811 646.484 384.846 646.075C385.241 641.325 400.065 639.089 401.533 638.881C405.071 638.369 412.196 637.69 437.815 643.416C450.057 646.151 451.823 647.065 451.823 648H451.83Z" fill="#E2E2E2"/>
<defs>
<clipPath id="clip0_848_4795">
<rect width="361.375" height="680.382" fill="white" transform="matrix(-1 0 0 1 483.375 0)"/>
</clipPath>
</defs>
</svg>
