<svg width="299" height="1002" viewBox="0 0 299 1002" fill="none" xmlns="http://www.w3.org/2000/svg">
<path d="M347.798 63.1835C360.898 106.764 374.289 150.285 377.615 196.042C378.779 211.952 378.612 212.417 394.917 211.878C405.825 211.517 419.216 216.752 426.992 208.816C433.686 201.987 432.999 189.263 434.857 178.938C441.749 140.752 451.109 103.027 456.091 64.4681C456.797 61.4786 457.821 58.5734 459.148 55.8032C499.387 55.0815 539.021 60.8477 578.802 65.865C592.331 66.9605 605.948 65.712 619.053 62.1746C630.589 59.9672 642.343 59.1093 654.077 59.6177C667.984 59.6449 674.832 64.8522 678.069 77.9096C680.137 86.26 681.173 94.8703 682.543 103.384C688.519 140.666 684.906 178.484 689.554 215.979C695.953 267.588 693.493 319.728 693.869 371.67C694.141 409.36 697.362 446.948 698.29 484.642C699.128 518.401 702.329 552.338 705.786 585.981C708.526 612.615 706.787 639.141 708.891 665.555C714.56 736.639 711.417 807.823 712.274 878.973C712.371 887.219 715.708 894.653 715.976 902.716C716.29 927.396 713.792 952.031 708.53 976.144C706.958 984.134 703.299 989.101 694.3 990.618C679.741 993.074 665.357 996.217 650.542 997.405C549.086 1005.53 447.472 999.124 345.935 1000.92C310.624 1001.55 276.032 994.712 241.423 988.655C222.022 985.259 202.457 982.718 183.268 978.43C164.55 974.243 146.731 968.279 132.998 952.777C122.009 940.36 118.474 925.289 115.091 910.683C108.177 880.681 103.663 850.175 101.591 819.457C93.9119 708.091 100.039 596.62 98.3975 485.216C98.0095 459.835 92.2088 434.857 94.2965 409.422C103.252 412.573 109.247 422.499 120.326 420.791L120.189 420.725C120.624 428.241 125.622 428.874 131.493 428.234L131.358 428.164C131.881 435.536 136.766 436.371 142.66 435.668L142.234 435.851C143.829 445.975 153.572 448.369 160.057 453.087C173.383 462.03 183.016 475.5 187.171 491.002C191.242 506.364 197.607 521.109 199.384 537.108C199.423 539.273 200.077 541.383 201.271 543.19C202.464 544.997 204.147 546.427 206.123 547.313C204.516 549.6 203.387 552.188 202.803 554.921C202.219 557.655 202.192 560.478 202.724 563.222C206.775 581.235 208.545 599.531 210.792 617.819C214.924 651.306 220.779 684.588 221.032 718.463C220.999 723.39 221.582 728.302 222.766 733.084C230.181 761.663 238.349 790.156 236.037 820.24C235.783 822.708 236.138 825.201 237.069 827.5C244.325 843.247 243.475 859.959 243.312 876.606C242.961 892.127 248.243 907.25 258.182 919.177C258.365 923.062 259.986 926.741 262.73 929.498C265.474 932.255 269.144 933.894 273.029 934.097C272.817 938.318 273.692 942.523 275.572 946.308C277.452 950.093 280.273 953.333 283.765 955.714C283.602 944.76 280.455 938.365 273.144 933.985C272.923 930.104 271.279 926.441 268.525 923.697C265.771 920.953 262.102 919.322 258.221 919.115C258.865 913.295 256.199 908.374 254.103 903.206C248.957 891.28 246.516 878.362 246.957 865.38C247.368 857.282 250.623 851.799 259.098 852.427C279.85 853.949 299.17 847.445 320.232 841.594C324.26 857.917 329.515 873.914 335.951 889.446C342.16 905.394 338.164 922.848 341.71 939.114C347.282 938.249 347.193 935.478 347.391 933.208C349.259 914.059 346.359 894.745 338.947 876.99C330.064 854.649 323.069 831.604 318.032 808.095C309.585 772.831 305.181 736.755 298.538 701.13C289.415 652.187 277.359 603.822 268.593 554.775C267.254 547.301 265.826 538.548 257.049 534.737C257.375 532.308 258.578 529.588 257.887 527.492C247.593 496.139 244.217 463.572 241.101 431.024C238.924 408.296 234.893 385.135 237.182 362.73C240.485 324.489 249.982 287.039 265.302 251.845C277.867 224.062 291.627 197.257 312.289 174.557C319.165 167.002 320.127 159.606 313.888 151.294C308.696 144.376 304.079 137.007 298.658 130.278C292.112 122.161 289.271 122.037 283.226 130.701C271.072 147.882 260.564 166.169 251.841 185.321C250.266 188.813 250.941 194.405 243.693 194.246C246.388 176.573 247.614 158.708 247.359 140.833C247.491 140.507 247.546 140.156 247.519 139.806C247.492 139.456 247.385 139.116 247.205 138.815C252.11 132.606 251.322 124.671 253.242 117.613C255.287 110.104 252.001 107.641 243.902 109.926C231.392 113.457 219.068 117.609 206.651 121.451C191.556 126.107 190.886 126.13 191.716 141.857C193.866 182.64 196.659 223.387 199.193 264.146V290.66C192.035 270.12 188.167 248.577 187.734 226.829C186.679 204.575 188.204 182.205 184.242 160.087C182.302 149.125 180.669 147.794 169.835 149.889C158.089 152.163 148 158.535 137.24 163.219C131.031 165.908 122.708 165.201 118.614 170.541C114.047 176.481 123.251 182.873 120.88 189.811C115.093 190.517 109.675 193.027 105.394 196.985C98.7118 197.726 96.7018 202.049 99.2085 207.408C108.059 226.305 112.367 247.053 123.011 265.182C123.981 274.826 127.911 283.933 134.263 291.254C134.112 295.293 137.084 299.539 132.882 304.059C125.941 295.546 120.284 286.063 116.088 275.911C110.656 264.231 104.889 252.718 99.4879 241.031C96.3837 234.329 92.018 236.417 87.4159 238.749C80.1907 192.659 84.1336 146.223 83.2722 99.942C82.9385 82.1235 83.4309 81.9917 100.547 76.9163C104.03 75.6921 107.653 74.9096 111.331 74.5877C146.487 73.3615 181.565 70.9794 216.768 70.0636C247.559 69.8926 278.312 67.8478 308.855 63.9405C321.587 62.0546 334.799 63.3426 347.798 63.1835ZM653.568 164.355C654.653 163.389 655.516 162.199 656.097 160.867C656.678 159.536 656.962 158.094 656.932 156.641C659.109 151.395 669.307 146.165 656.971 140.887C655.235 138.658 652.708 137.183 649.913 136.766C640.267 127.181 628.681 119.772 615.933 115.037C610.543 113.197 605.557 100.99 599.57 114.4C595.278 121.214 597.354 128.877 596.691 136.169C595.305 151.48 594.017 166.804 592.69 182.12C584.541 156.897 581.305 131.008 569.92 107.357C563.991 95.0412 562.16 94.0555 550.437 100.144C544.947 102.992 539.743 106.406 534.268 109.289C513.535 120.209 509.643 116.026 523.403 143.514C536.126 168.942 550.984 193.388 557.293 221.668C563.397 249.028 568.263 276.423 565.461 304.792C556.148 272.652 542.664 242.179 532.401 210.578C526.239 191.607 515.677 174.821 505.045 158.124C500.443 150.899 495.049 151.166 490.253 157.441C484.97 164.302 480.173 171.524 475.896 179.054C473.877 182.226 473.02 186 473.475 189.733C473.929 193.465 475.665 196.924 478.387 199.519C502.585 226.262 517.19 257.751 526.639 292.48C538.198 335.009 548.4 377.518 548.614 421.924C548.612 436.158 547.321 450.362 544.76 464.364C542.82 475.228 547.616 480.218 556.704 483.307C548.094 483.831 540.581 483.602 536.561 494.948C524.163 528.509 514.665 563.071 508.169 598.254C498.204 656.428 483.136 713.616 475.352 772.171C472.326 794.94 464.216 817.202 468.081 845.587C471.612 832.452 478.772 833.119 485.597 833.523C499.799 833.746 513.941 831.639 527.461 827.287C548.512 821.556 552.237 824.637 548.105 846.805C546.578 853.419 544.387 859.862 541.566 866.036C539.452 871.204 536.759 876.125 537.399 881.945C535.063 882.299 532.798 883.022 530.69 884.087C528.362 885.779 525.762 888.693 529.312 891.273C531.365 892.763 534.038 890.797 535.226 888.693C536.188 886.526 536.917 884.263 537.399 881.941C552.144 869.097 556.801 851.287 555.055 833.647C553.249 819.74 553.363 805.65 555.396 791.774C557.491 782.806 558.857 773.683 559.482 764.495C559.788 722.588 566.25 681.196 571.659 639.871C577.545 594.937 581.325 549.459 594.087 505.642C595.57 500.559 596.493 496.19 593.16 491.747C594.914 491.174 596.48 490.136 597.692 488.743C598.903 487.351 599.715 485.656 600.039 483.839C602.581 469.66 610.194 457.996 618.09 446.436C618.5 446.107 618.836 445.695 619.074 445.227C619.313 444.758 619.451 444.245 619.476 443.72C624.695 439.541 629.852 435.311 630.729 428.02L630.558 428.175C631.524 427.998 632.408 427.519 633.086 426.808C633.763 426.097 634.198 425.19 634.33 424.217L634.229 424.361C638.934 421.897 642.582 417.807 644.493 412.852C645.079 412.128 645.446 411.252 645.552 410.326C652.727 403.365 661.651 397.812 664.22 387.145L664.189 387.261C681.127 377.886 681.55 376.563 671.503 364.476L671.624 364.674L668.084 359.827L664.006 353.789C664.303 352.25 664.109 350.657 663.449 349.236C662.789 347.814 661.698 346.636 660.331 345.869L660.475 346.056C660.333 339.757 660.19 333.458 660.048 327.159C678.767 307.621 678.849 304.005 660.751 285.251C658.632 283.055 656.211 281.146 653.929 279.101C652.286 276.212 651.257 273.016 650.905 269.712C650.553 266.408 650.886 263.067 651.884 259.897C657.817 242.579 661.83 224.586 667.856 207.322C671.096 198.044 671.849 191.27 662.156 185.771C659.338 184.49 656.93 182.453 655.2 179.887C653.469 177.32 652.484 174.324 652.354 171.231C652.778 168.942 653.19 166.65 653.588 164.355H653.568ZM451.791 922.863C452.385 924.613 452.955 924.905 453.211 923.678C453.242 923.535 452.264 923.166 451.752 922.902C452.063 906.632 450.266 890.288 454.927 874.18C446.561 887.277 445.827 907.14 451.818 922.863H451.791ZM358.722 509.841C372.943 508.013 385.042 516.488 398.301 518.149C415.762 520.337 420.132 531.633 421.548 545.881C422.511 553.89 422.037 562.007 420.151 569.85C416.976 582.178 420.69 610.873 426.08 622.817C431.074 619.953 429.906 614.936 428.688 611.416C424.703 599.896 425.522 588.111 425.824 576.416C426.957 532.525 424.357 488.674 428.598 444.679C431.543 414.144 429.181 383.059 426.48 352.086C423.426 317 425.704 281.464 425.704 246.102C425.704 214.722 420.17 210.217 389.193 215.91C384.149 216.837 381.387 218.944 381.115 224.171C380.436 237.104 377.115 249.645 377.111 262.811C377.111 293.683 379.66 324.695 373.649 355.4C371.352 364.377 370.02 373.573 369.676 382.833C370.095 407.547 366.835 432.188 365.061 456.75C363.796 474.262 365.295 492.721 358.679 509.81C356.471 511.517 354.678 513.704 353.436 516.204C352.194 518.704 351.534 521.453 351.508 524.245C351.314 537.756 349.809 551.345 352.862 564.763C356.266 577.922 356.132 591.748 352.474 604.839C351.616 607.699 349.447 611.436 354.472 614.699C359.986 601.568 364.949 588.449 361.69 575.12C356.385 553.367 353.432 531.904 358.748 509.841H358.722ZM463.568 850.08C458.097 856.444 458.097 856.444 457.449 864.437C462.838 858.007 462.838 858.007 463.595 850.064L463.568 850.08ZM517.749 901.657C516.133 902.177 514.707 903.165 513.654 904.496C512.6 905.827 511.966 907.442 511.832 909.135C511.735 910.19 512.483 912.239 512.995 912.289C517.419 912.728 519.297 909.371 520.837 906.124C521.664 904.443 520.842 902.686 517.777 901.673L517.749 901.657Z" fill="#D0E6E0"/>
<path d="M206.14 547.325C204.164 546.439 202.48 545.008 201.287 543.201C200.093 541.394 199.439 539.285 199.4 537.12C197.623 521.121 191.251 506.375 187.188 491.013C183.033 475.511 173.399 462.041 160.073 453.098C153.589 448.38 143.845 445.986 142.25 435.862C152.727 435.501 158.412 446.843 168.807 446.634C169.432 448.438 170.049 448.729 170.386 447.41C170.433 447.235 169.448 446.797 168.944 446.479C168.001 436.848 161.826 430.406 155.672 423.709C150.1 417.644 142.114 413.519 139.708 404.78C142.832 403.403 153.146 407.45 146.93 398.685C130.016 374.836 113.23 350.665 90.4909 331.632C78.1825 319.685 65.8002 307.807 53.5927 295.759C42.9373 285.243 42.6341 281.999 52.886 271.643C64.0613 260.347 75.8697 249.68 87.4215 238.737C92.0236 236.409 96.3961 234.322 99.4926 241.023C104.894 252.711 110.672 264.223 116.093 275.903C120.288 286.055 125.946 295.537 132.887 304.051C137.089 299.526 134.117 295.282 134.269 291.246L135.568 290.121C142.91 296.814 144.415 306.371 146.46 315.125C150.445 332.199 158.28 347.46 166.099 362.822C172.015 373.637 179.32 383.63 187.829 392.55C191.709 396.865 196.062 404.101 202.927 399.884C208.91 396.201 206.694 388.409 205.076 382.853C203.065 375.736 202.149 368.356 202.36 360.964C203.517 360.964 204.681 360.972 205.853 360.987C213.404 361.763 207.959 355.624 209.884 353.401L207.894 346.246C206.191 341.352 205.608 336.138 206.187 330.988C206.381 327.034 205.573 322.762 209.706 320.08C210.304 322.832 208.806 326.406 212.729 327.915C215.463 324.49 217.008 320.267 217.129 315.886C217.432 289.69 225.511 265.054 232.169 240.107C235.662 227.03 239.883 213.962 239.418 200.338C238.804 182.341 244.935 165.027 243.946 147.026C243.837 145.024 246.201 142.889 247.415 140.817C247.67 158.692 246.443 176.557 243.748 194.23C250.992 194.397 250.318 188.821 251.897 185.305C260.62 166.153 271.127 147.866 283.281 130.685C289.326 122.021 292.167 122.149 298.713 130.262C304.145 136.991 308.752 144.36 313.943 151.278C320.183 159.59 319.22 166.986 312.344 174.541C291.682 197.241 277.922 224.046 265.358 251.829C250.038 287.023 240.54 324.473 237.237 362.714C234.951 385.119 238.979 408.281 241.156 431.008C244.26 463.556 247.647 496.123 257.942 527.476C258.633 529.572 257.43 532.292 257.112 534.725L206.14 547.325Z" fill="#88A08A"/>
<path d="M168.802 446.634C158.41 446.843 152.706 435.501 142.248 435.862L142.676 435.68C141.979 433.297 140.462 431.237 138.394 429.864C136.325 428.491 133.838 427.893 131.372 428.175L131.507 428.245C130.809 425.863 129.292 423.804 127.224 422.431C125.157 421.057 122.671 420.457 120.205 420.737L120.34 420.799C118.92 418.859 117.911 416.274 116.025 415.06C83.6669 394.191 52.9429 370.626 17.7444 354.437C8.98645 350.405 3.27074 345.54 5.05181 335.141C4.82287 328.23 8.48221 322.409 10.3797 316.096C13.5595 314.322 17.2064 313.568 20.8289 313.934C24.4514 314.301 27.8747 315.77 30.6349 318.145C41.6783 326.581 54.4481 332.703 63.9161 343.262C67.1717 346.894 70.796 350.281 76.4069 349.261L75.9645 349.49C76.1909 350.432 76.6733 351.292 77.358 351.977C78.0428 352.662 78.9033 353.144 79.8448 353.37L79.8098 352.982C80.6129 355.666 82.0488 358.118 83.9961 360.133C85.9434 362.147 88.3454 363.664 91.0008 364.557L90.8028 364.429C92.6576 368.31 96.0841 368.55 99.7277 368.286C100.261 368.376 100.76 368.609 101.171 368.961C101.581 369.314 101.887 369.771 102.056 370.285C105.549 384.157 106.375 384.887 120.716 386.897L120.631 386.815C121.368 398.58 130.895 401.517 139.397 405.487L139.727 404.831C142.132 413.574 150.118 417.699 155.69 423.764C161.845 430.461 168.018 436.902 168.961 446.533L168.802 446.634Z" fill="#ACBD82"/>
<path d="M102.035 370.25C101.866 369.736 101.559 369.278 101.149 368.925C100.739 368.572 100.241 368.338 99.7073 368.247C97.3558 365.508 94.911 363.02 90.7824 364.394L90.9804 364.522C92.5946 359.807 87.8252 357.611 86.7969 353.941C93.6845 347.445 89.6568 339.149 90.4716 331.652C113.21 350.665 129.997 374.856 146.912 398.704C153.12 407.47 142.814 403.422 139.69 404.8L139.36 405.452C137.781 394.529 128.646 391.2 120.594 386.78L120.681 386.861C116.252 379.597 109.761 373.814 102.035 370.25Z" fill="#D0E6E0"/>
<path d="M5.05349 335.145C3.27242 345.544 8.98813 350.41 17.746 354.442C52.9445 370.63 83.6685 394.195 116.027 415.064C117.912 416.278 118.922 418.859 120.342 420.803C109.263 422.514 103.268 412.588 94.3125 409.437C68.8187 391.165 43.2474 373.133 14.0751 360.778C-2.9363 353.564 -2.64897 352.874 5.05349 335.145Z" fill="#88A08A"/>
<path d="M76.4022 349.261C70.7913 350.281 67.1671 346.894 63.9115 343.262C54.4434 332.703 41.6736 326.577 30.6302 318.145C27.87 315.77 24.4467 314.301 20.8242 313.934C17.2017 313.568 13.5548 314.322 10.375 316.095C17.1268 303.512 17.2583 303.267 27.4092 308.812C43.6094 317.928 58.7 328.89 72.3788 341.477C74.6644 343.529 76.992 345.679 76.4022 349.261Z" fill="#88A08A"/>
<path d="M86.8132 353.94C87.8414 357.611 92.6099 359.807 90.9957 364.521C88.3403 363.628 85.9383 362.111 83.991 360.097C82.0437 358.083 80.6078 355.631 79.8047 352.947C82.3579 351.744 84.5393 353.172 86.8132 353.94Z" fill="#88A08A"/>
<path d="M79.8452 353.351C78.9036 353.125 78.0432 352.642 77.3584 351.957C76.6736 351.273 76.1912 350.412 75.9648 349.471C79.0381 348.993 80.3496 350.278 79.8452 353.351Z" fill="#88A08A"/>
<path d="M206.146 547.325L257.079 534.764C265.848 538.571 267.276 547.325 268.615 554.798C277.38 603.846 289.437 652.195 298.559 701.153C305.202 736.778 309.606 772.854 318.054 808.118C323.09 831.627 330.087 854.672 338.969 877.014C346.381 894.769 349.282 914.082 347.413 933.231C347.215 935.501 347.304 938.276 341.732 939.138C338.185 922.864 342.194 905.41 335.974 889.469C329.538 873.937 324.283 857.94 320.255 841.617C299.192 847.468 279.871 853.972 259.119 852.451C250.645 851.83 247.39 857.305 246.978 865.403C246.538 878.385 248.979 891.303 254.126 903.229C256.221 908.409 258.887 913.318 258.243 919.138L258.201 919.181C248.264 907.253 242.983 892.13 243.335 876.61C243.498 859.963 244.347 843.239 237.091 827.504C236.159 825.205 235.805 822.712 236.059 820.244C238.387 790.16 230.204 761.651 222.789 733.088C221.605 728.305 221.022 723.394 221.054 718.467C220.802 684.592 214.946 651.31 210.813 617.823C208.559 599.535 206.798 581.239 202.747 563.226C202.215 560.483 202.242 557.662 202.826 554.929C203.41 552.197 204.539 549.611 206.146 547.325ZM271.486 672.062C270.499 673.437 269.836 675.017 269.549 676.684C269.261 678.352 269.356 680.063 269.825 681.689C273.675 709.775 277.241 737.907 281.676 765.892C284.858 785.977 289.138 805.891 293.228 825.82C293.755 828.393 294.555 832.673 298.734 831.672C302.827 830.69 301.889 827.046 300.934 824.113C296.794 812.489 293.653 800.533 291.544 788.375C287.613 761.562 284.245 734.659 279.852 707.924C277.908 696.12 278.451 683.447 271.486 672.062ZM237.483 672.392L232.734 673.133C235.962 690.886 239.307 708.622 242.384 726.402C245.426 743.999 247.428 761.814 251.309 779.221C255.127 796.407 252.12 815.087 261.859 830.985C259.019 777.184 247.708 724.881 237.483 672.392ZM251.673 678.247C263.745 729.774 262.209 783.916 280.892 834.4C267.42 783.028 269.787 728.928 251.673 678.247Z" fill="#FBF4F0"/>
<path d="M247.381 140.848C246.166 142.924 243.803 145.058 243.912 147.057C244.901 165.05 238.77 182.368 239.383 200.369C239.849 213.993 235.627 227.062 232.135 240.138C225.476 265.069 217.39 289.721 217.095 315.917C216.974 320.298 215.429 324.521 212.695 327.946C208.772 326.437 210.269 322.863 209.672 320.108C206.968 311.36 205.732 302.225 206.013 293.074C206.701 283.302 205.468 273.49 202.385 264.192C203.479 223.499 201.297 182.783 195.861 142.439C195.233 140.007 195.542 137.426 196.726 135.211C197.911 132.995 199.885 131.305 202.257 130.476C216.28 125.114 229.946 118.199 247.225 117.345V138.857C247.403 139.155 247.509 139.489 247.536 139.835C247.563 140.18 247.51 140.527 247.381 140.848Z" fill="#ACBD82"/>
<path d="M202.38 264.177C205.464 273.475 206.696 283.287 206.008 293.058C205.728 302.21 206.963 311.345 209.667 320.093C205.534 322.778 206.341 327.05 206.147 331.004C200.932 336.74 200.222 341.966 207.854 346.262L209.846 353.421C206.109 354.678 206.454 358.101 205.814 361.003C204.655 361.003 203.49 360.995 202.321 360.98C198.972 358.415 199.046 354.686 198.588 350.957C197.098 338.734 195.185 326.565 193.664 314.35C189.784 283.199 183.187 252.307 183.75 220.725C184.088 202.1 178.318 184.037 179.816 165.345C180.409 157.852 175.373 155.392 168.858 157.01C154.369 160.608 141.497 168.294 127.878 174.084C124.866 175.368 124.571 179.082 124.385 182.233C124.483 183.689 124.211 185.147 123.594 186.471C122.976 187.794 122.034 188.939 120.854 189.799C123.225 182.861 114.021 176.47 118.588 170.53C122.689 165.19 131.028 165.896 137.214 163.207C147.985 158.524 158.074 152.152 169.808 149.878C180.642 147.783 182.26 149.102 184.215 160.076C188.162 182.194 186.637 204.572 187.708 226.818C188.141 248.566 192.008 270.108 199.166 290.649V264.135C200.253 264.177 201.316 264.185 202.38 264.177ZM200.288 298.111C198.588 311.304 198.538 311.304 201.627 320C202.914 312.7 202.456 305.199 200.288 298.111Z" fill="#90A58F"/>
<path d="M202.382 264.176C201.319 264.176 200.255 264.176 199.196 264.176C196.662 223.433 193.868 182.689 191.719 141.888C190.888 126.161 191.56 126.146 206.655 121.481C219.072 117.64 231.41 113.488 243.905 109.956C252.003 107.671 255.29 110.135 253.245 117.644C251.324 124.702 252.112 132.63 247.208 138.846V117.345C229.928 118.199 216.262 125.106 202.238 130.476C199.866 131.305 197.893 132.995 196.708 135.21C195.524 137.426 195.215 140.006 195.843 142.439C201.284 182.777 203.471 223.488 202.382 264.176Z" fill="#88A08A"/>
<path d="M123.003 265.198C112.367 247.061 108.059 226.313 99.2081 207.416C96.7014 202.057 98.7114 197.734 105.393 196.997L105.782 197.412C104.83 206.638 106.795 215.93 111.4 223.98C117.943 236.537 122.318 250.109 124.341 264.123L123.003 265.198Z" fill="#88A08A"/>
<path d="M120.884 189.818C122.064 188.959 123.007 187.814 123.624 186.491C124.241 185.169 124.512 183.711 124.412 182.255C127.807 184.921 134.389 184.847 132.778 193.283C123.306 191.626 115.177 197.629 105.771 197.412L105.383 196.996C109.667 193.033 115.091 190.521 120.884 189.818Z" fill="#88A08A"/>
<path d="M134.256 291.261C127.904 283.94 123.974 274.833 123.004 265.189L124.319 264.126C131.08 271.151 135.069 280.386 135.545 290.125L134.256 291.261Z" fill="#88A08A"/>
<path d="M273.041 934.109C269.157 933.904 265.487 932.264 262.744 929.506C260 926.749 258.379 923.07 258.195 919.184L258.234 919.142C262.116 919.349 265.785 920.98 268.538 923.724C271.292 926.467 272.937 930.13 273.158 934.011L273.041 934.109Z" fill="#FBF4F0"/>
<path d="M273.167 934.011C280.478 938.373 283.625 944.768 283.788 955.741C280.296 953.359 277.475 950.121 275.595 946.336C273.715 942.55 272.839 938.345 273.051 934.124L273.167 934.011Z" fill="#FBF4F0"/>
<path d="M131.375 428.175C133.842 427.892 136.328 428.491 138.397 429.864C140.465 431.237 141.982 433.297 142.679 435.68C136.785 436.382 131.899 435.559 131.375 428.175Z" fill="#88A08A"/>
<path d="M120.207 420.736C122.674 420.457 125.159 421.056 127.227 422.43C129.295 423.803 130.811 425.862 131.51 428.244C125.654 428.881 120.642 428.272 120.207 420.736Z" fill="#88A08A"/>
<path d="M135.55 290.133C135.074 280.395 131.087 271.158 124.325 264.134C122.302 250.119 117.927 236.546 111.384 223.988C106.778 215.938 104.813 206.646 105.766 197.42C115.171 197.637 123.301 191.634 132.773 193.291C134.383 184.855 127.802 184.929 124.406 182.263C124.589 179.101 124.883 175.387 127.898 174.114C141.518 168.313 154.39 160.626 168.879 157.041C175.394 155.423 180.43 157.883 179.837 165.376C178.351 184.068 184.105 202.15 183.771 220.756C183.197 252.338 189.81 283.229 193.686 314.381C195.207 326.596 197.12 338.765 198.61 350.988C199.068 354.717 198.998 358.446 202.343 361.011C202.132 368.403 203.048 375.784 205.059 382.9C206.677 388.456 208.893 396.248 202.909 399.93C196.045 404.148 191.683 396.912 187.811 392.597C179.302 383.678 171.997 373.684 166.081 362.87C158.262 347.507 150.428 332.242 146.443 315.173C144.398 306.387 142.892 296.83 135.55 290.133ZM142.438 184.172C152.915 184.949 154.385 192.903 155.996 200.757C157.389 183.575 157.389 183.571 142.438 184.172ZM162.616 238.757C163.307 243.286 158.553 248.404 164.149 252.567C165.023 250.312 165.339 247.878 165.07 245.474C164.801 243.07 163.956 240.767 162.604 238.761L162.616 238.757ZM159.9 229.475C161.903 223.001 161.655 216.04 159.197 209.724C157.159 216.196 157.41 223.171 159.907 229.479L159.9 229.475ZM198.315 389.019C197.849 388.059 197.386 387.098 196.926 386.136C196.371 387.021 195.412 387.89 195.373 388.794C195.334 389.698 196.185 390.711 196.646 391.669L198.315 389.019Z" fill="#ACBD82"/>
<path d="M207.866 346.262C200.234 341.966 200.944 336.739 206.159 331.004C205.58 336.154 206.163 341.367 207.866 346.262Z" fill="#D0E6E0"/>
<path d="M205.82 361.003C206.461 358.1 206.115 354.678 209.852 353.421C207.92 355.64 213.364 361.775 205.82 361.003Z" fill="#D0E6E0"/>
<path d="M168.96 446.51C169.464 446.828 170.45 447.266 170.403 447.441C170.066 448.741 169.449 448.45 168.824 446.665L168.96 446.51Z" fill="#ACBD82"/>
<path d="M102.039 370.25C109.771 373.812 116.267 379.595 120.7 386.862C106.358 384.852 105.535 384.122 102.039 370.25Z" fill="#88A08A"/>
<path d="M120.613 386.78C128.665 391.199 137.799 394.54 139.378 405.452C130.877 401.498 121.351 398.545 120.613 386.78Z" fill="#88A08A"/>
<path d="M90.793 364.394C94.9139 363.021 97.3587 365.508 99.7179 368.248C96.0743 368.515 92.6478 368.275 90.793 364.394Z" fill="#88A08A"/>
<path d="M271.485 672.062C278.47 683.447 277.907 696.12 279.851 707.935C284.244 734.671 287.613 761.573 291.544 788.386C293.652 800.544 296.793 812.5 300.934 824.124C301.888 827.058 302.827 830.701 298.733 831.683C294.554 832.684 293.755 828.404 293.227 825.831C289.137 805.902 284.857 785.988 281.675 765.904C277.24 737.907 273.674 709.775 269.825 681.701C269.353 680.073 269.257 678.359 269.545 676.69C269.833 675.02 270.496 673.437 271.485 672.062Z" fill="#90A58F"/>
<path d="M237.473 672.391C247.697 724.881 259.008 777.183 261.845 830.984C252.105 815.075 255.113 796.407 251.294 779.221C247.414 761.814 245.415 743.999 242.369 726.401C239.292 708.622 235.947 690.885 232.719 673.133L237.473 672.391Z" fill="#90A58F"/>
<path d="M251.672 678.248C269.785 728.929 267.418 783.016 280.891 834.4C262.207 783.917 263.744 729.774 251.672 678.248Z" fill="#90A58F"/>
<path d="M200.296 298.11C202.464 305.198 202.922 312.699 201.635 319.999C198.546 311.307 198.596 311.303 200.296 298.11Z" fill="#D0E6E0"/>
<path d="M142.445 184.176C157.396 183.575 157.396 183.574 156.003 200.76C154.392 192.907 152.914 184.948 142.445 184.176Z" fill="#88A08A"/>
<path d="M162.601 238.761C163.951 240.768 164.795 243.073 165.062 245.477C165.329 247.882 165.01 250.316 164.133 252.571C158.538 248.407 163.291 243.289 162.601 238.761Z" fill="#88A08A"/>
<path d="M159.909 229.478C157.416 223.17 157.168 216.197 159.207 209.728C161.665 216.043 161.912 223.004 159.909 229.478Z" fill="#88A08A"/>
<path d="M198.314 389.027L196.646 391.673C196.184 390.715 195.33 389.733 195.373 388.798C195.415 387.863 196.37 387.025 196.925 386.14C197.388 387.102 197.851 388.065 198.314 389.027Z" fill="#88A08A"/>
</svg>
