<svg width="276" height="788" viewBox="0 0 276 788" fill="none" xmlns="http://www.w3.org/2000/svg">
<path d="M161.038 175.791C108.55 170.187 55.8519 172.757 3.24448 171.706C9.51608 186.913 15.9106 202.067 22.0372 217.329C29.9726 237.092 35.6446 257.51 32.8812 278.949C30.5478 299.372 26.3536 319.539 20.3509 339.198C12.9346 362.234 4.62129 385.115 -12.9102 402.946C-25.1923 415.441 -37.3002 428.168 -50.3594 439.815C-63.7759 452.276 -79.5681 461.901 -96.7916 468.116C-98.0568 466.586 -98.8177 464.702 -98.9706 462.722C-99.1236 460.742 -98.6608 458.763 -97.6457 457.056C-95.9464 452.752 -94.3087 448.421 -92.6287 444.11C-78.3539 407.477 -72.1794 368.902 -65.0404 330.525C-59.4943 300.705 -55.6404 270.846 -59.1873 240.507C-62.0475 216.058 -63.5956 191.272 -75.2909 168.791C-97.7881 168.468 -120.082 165.657 -142.463 163.777C-166.502 161.784 -190.668 161.871 -214.691 164.038C-221.247 165.042 -227.855 165.663 -234.483 165.899C-254.475 165.338 -274.17 170.78 -294.227 169.013C-285.669 186.584 -275.025 203.022 -267.121 220.989C-240.207 282.167 -214.124 343.613 -180.383 401.699C-148.6 456.476 -108.495 505.979 -61.5057 548.438C-48.985 559.801 -35.9678 570.913 -19.1167 575.908C-18.3972 575.984 -17.7032 576.213 -17.0802 576.581C-16.4571 576.949 -15.9202 577.446 -15.5057 578.039C-15.0912 578.632 -14.8088 579.307 -14.6775 580.019C-14.5463 580.73 -14.5688 581.461 -14.7444 582.163C-35.6294 581.238 -55.9764 585.678 -75.8876 591.64C-109.861 601.816 -140.834 593.313 -170.835 577.829C-175.782 575.075 -180.338 571.668 -184.378 567.701C-223.24 531.487 -255.609 488.881 -280.081 441.733C-307.695 389.026 -324.876 332.424 -340.833 275.402C-350.507 240.9 -348.678 206.33 -341.211 171.751C-351.986 171.879 -362.726 173.012 -373.291 175.134C-393.009 179.19 -403.031 189.27 -405.352 209.136C-405.722 213.239 -405.802 217.362 -405.591 221.476C-404.856 250.274 -408.705 278.73 -411.046 307.34C-413.045 331.821 -415.632 356.353 -415.238 381.094C-414.832 407.232 -413.261 433.524 -418.14 459.51C-417.104 461.275 -415.881 462.923 -414.49 464.425C-385.438 489.811 -356.397 515.239 -325.172 537.942C-298.537 557.312 -271.645 576.236 -240.858 588.976C-216.607 599.011 -192.449 609.484 -169.101 621.427C-141.198 635.81 -111.336 646.022 -80.4692 651.738C-77.8316 652.221 -75.2394 652.863 -75.2169 656.104C-75.2169 658.445 -77.0451 659.673 -79.2152 660.05C-93.9994 662.63 -103.325 672.278 -112.195 683.589C-135.302 713.022 -166.96 723.312 -202.858 718.71C-247.998 713.066 -291.16 696.812 -328.809 671.278C-361.154 649.413 -393.428 627.312 -419.81 597.985C-422.619 611.918 -418.063 625.51 -417.189 639.224C-416.201 656.114 -413.349 672.842 -408.686 689.106C-407.1 694.517 -405.346 699.889 -403.372 705.167C-396.578 723.35 -382.577 732.172 -363.982 731.608C-335.107 730.754 -306.379 733.578 -277.81 735.719C-196.673 741.791 -115.494 741.127 -34.285 741.285C-27.8554 730.589 -24.9662 718.587 -21.9932 706.712C-11.6459 665.387 -0.295547 624.298 6.85312 582.218C11.9349 552.324 25.4484 524.545 29.1017 494.235C31.7587 472.234 40.6324 451.636 44.2858 429.839C47.0823 411.562 51.3514 393.543 57.0514 375.954C59.0433 369.898 59.2526 363.396 57.6544 357.223C56.4918 356.917 55.2623 356.987 54.1418 357.423C53.0214 357.859 52.0682 358.639 51.4188 359.651C45.9772 365.175 39.3934 369.443 32.1294 372.156C31.0358 372.862 29.7129 373.122 28.4334 372.882C27.1538 372.642 26.0148 371.921 25.2514 370.866C24.8049 369.932 24.6236 368.894 24.7271 367.864C24.8306 366.834 25.2153 365.853 25.8387 365.026C29.6758 358.332 33.3805 351.561 37.2692 344.899C41.7222 337.273 49.3093 333.907 57.0577 330.931C57.8704 330.508 58.7614 330.255 59.6753 330.188C60.5891 330.121 61.5065 330.241 62.3723 330.541C63.2381 330.841 64.034 331.314 64.7104 331.933C65.3867 332.551 65.9296 333.301 66.3061 334.136C70.0239 342.068 77.3011 346.067 83.6565 351.255C99.4243 364.114 106.577 380.639 104.129 402.485C83.6344 392.908 76.363 373.749 65.7125 357.149C64.2196 365.734 64.3963 374.527 66.2321 383.045C71.0688 402.069 79.9033 419.601 86.1395 438.093C93.3623 459.51 101.347 480.869 101.772 503.757C102.556 545.907 102.881 588.061 95.5035 629.859C88.8804 667.38 82.4444 704.883 61.308 737.776C100.124 738.712 138.199 733.972 174.288 719.349C217.434 701.866 232.557 676.324 234.504 635.219C235.472 614.704 234.904 594.116 234.927 573.56C234.946 557.17 239.518 541.012 237.416 524.519C215.49 524.332 198.616 512.056 185.638 497.256C158.994 466.875 138.96 431.983 129.76 392.086C122.057 358.668 113.612 325.381 113.248 290.602C113.015 268.353 114.16 246.994 123.824 226.351C133.076 207.391 145.684 190.261 161.038 175.791Z" fill="#F9D8AC"/>
<path d="M-75.2876 168.791C-63.5924 191.272 -62.0442 216.058 -59.1841 240.506C-55.6372 270.846 -59.5072 300.705 -65.0372 330.525C-72.1762 368.896 -78.3507 407.477 -92.6255 444.11C-94.3055 448.421 -95.9432 452.752 -97.6425 457.056C-98.6576 458.763 -99.1204 460.742 -98.9674 462.722C-98.8145 464.702 -98.0536 466.586 -96.7884 468.116C-79.5649 461.901 -63.7719 452.276 -50.3554 439.815C-37.2962 428.168 -25.1883 415.441 -12.9062 402.946C4.62529 385.115 12.9507 362.234 20.3541 339.198C26.3568 319.539 30.551 299.372 32.8844 278.949C35.6478 257.51 29.9823 237.092 22.0404 217.329C15.9138 202.067 9.51929 186.913 3.24768 171.706C-3.00459 158.75 -9.1179 145.723 -15.5411 132.851C-32.2407 99.3904 -57.6626 76.3452 -94.4023 66.4557C-113.749 61.2514 -132.851 55.17 -152.049 49.4465C-157.838 48.2408 -163.157 45.3902 -167.366 41.2369C-157.915 35.062 -146.388 37.3868 -138.294 30.7959C-129.985 24.0245 -126.65 14.7316 -123.461 0.950195C-142.757 11.7232 -163.199 13.2646 -175.304 30.7219C-178.657 35.5587 -183.814 37.9932 -188.715 40.8469C-201.151 48.314 -211.188 59.1852 -217.642 72.1757C-220.592 77.7863 -218.251 81.3881 -212.16 80.64C-202.52 79.3136 -193.643 74.667 -187.06 67.5004C-177.709 81.6881 -174.069 99.1746 -157.163 110.386C-155.036 95.7972 -154.678 81.0046 -156.096 66.3298C-156.438 62.6378 -160.833 58.2429 -155.774 55.5278C-151.666 53.3255 -147.809 56.7531 -144.894 59.5777C-127.843 76.0935 -111.683 93.4961 -100.271 114.458C-90.4221 131.83 -82.0642 150.006 -75.2876 168.791ZM-18.4499 307.873C-0.34763 307.718 8.99442 316.256 9.06214 333.023C9.38802 341.002 6.55526 348.787 1.17884 354.691C-4.19757 360.595 -11.6849 364.142 -19.659 364.562C-32.744 365.645 -46.8023 350.645 -46.5476 334.855C-46.2348 315.627 -34.1466 306.696 -18.4499 307.873ZM-43.0649 272.371C-42.8553 257.384 -32.118 245.685 -18.9718 246.114C-0.00862122 246.733 11.9829 258.428 11.841 275.209C11.7282 290.26 -0.708637 297.635 -18.5561 298.831C-30.8059 299.656 -43.2519 285.608 -43.0649 272.387V272.371ZM-49.4367 208.62C-47.8535 194.161 -38.4022 183.027 -25.298 183.998C-10.5975 185.084 2.13867 196.873 1.69369 210.293C1.1939 225.322 -10.7847 237.576 -24.4855 237.056C-37.7349 236.595 -49.8462 222.769 -49.4367 208.62ZM-68.571 152.391C-68.2486 136.969 -55.734 128.285 -41.1464 133.418C-36.7495 134.898 -32.7916 137.452 -29.6316 140.848C-26.4716 144.245 -24.2093 148.376 -23.0504 152.868C-19.5551 164.799 -34.5557 182.434 -46.4153 180.741C-56.5079 179.303 -68.8129 163.558 -68.571 152.391ZM-42.9846 367.142C-40.6887 367.073 -38.4021 367.459 -36.2561 368.278C-34.1102 369.097 -32.1475 370.332 -30.4811 371.913C-28.8146 373.494 -27.4775 375.389 -26.5465 377.488C-25.6155 379.588 -25.1088 381.852 -25.0563 384.148C-25.4671 389.283 -27.7434 394.09 -31.4556 397.661C-35.1679 401.232 -40.0592 403.321 -45.2061 403.533C-53.2157 403.42 -61.0061 394.853 -61.2286 385.879C-61.308 383.439 -60.8941 381.008 -60.0115 378.732C-59.129 376.456 -57.7962 374.381 -56.0927 372.632C-54.3891 370.884 -52.3495 369.497 -50.0972 368.555C-47.8448 367.613 -45.4259 367.136 -42.9846 367.151V367.142ZM-69.7802 94.7699C-59.5844 94.828 -50.033 102.447 -49.9814 110.57C-50.3043 115.494 -52.4667 120.117 -56.0392 123.522C-59.6116 126.926 -64.3328 128.864 -69.2669 128.949C-78.3987 128.969 -84.3027 121.069 -83.9448 109.309C-83.6481 99.6805 -78.8281 94.7181 -69.7802 94.7794V94.7699Z" fill="#B0C084"/>
<path d="M161.04 175.791C145.683 190.264 133.073 207.398 123.82 226.364C114.147 247 113.012 268.372 113.244 290.615C113.608 325.394 122.054 358.68 129.757 392.099C138.956 431.995 158.99 466.887 185.633 497.269C198.612 512.069 215.489 524.354 237.412 524.532L237.706 524.27C240.448 522.293 243.741 521.224 247.121 521.214C250.502 521.203 253.802 522.252 256.556 524.213H276C259.577 505.674 247.396 483.776 240.308 460.045C238.566 457.527 236.951 454.923 235.471 452.242C216.934 414.36 204.176 373.914 197.622 332.252C193.911 309.381 193.534 286.268 192.193 263.284C191.274 247.568 193.44 231.465 195.233 215.742C196.697 202.893 197.835 189.05 206.931 178.184C211.445 160.517 221.877 147.183 237.242 134.579C239.705 152.497 236.007 167.017 231.831 181.482C233.979 191.717 232.508 203.547 244.232 209.554C249.892 206.645 254.405 201.91 257.038 196.117C259.672 190.323 260.272 183.81 258.742 177.632C254.467 160.781 250.152 143.482 242.426 128.101C235.31 113.933 223.747 102.095 204.748 103.782C197.09 104.462 189.326 103.875 181.645 104.366C173.068 104.911 171.885 107.755 177.292 114.829C184.789 124.628 194.382 131.077 207.122 131.645C212.213 131.87 217.324 131.68 222.796 131.68C222.754 138.945 217.865 141.444 213.751 143.985C196.281 154.745 178.627 165.212 161.04 175.791ZM132.217 340.488C129.686 324.504 151.219 307.543 167.454 318.784C178.517 326.439 186.121 337.57 185.447 352.402C185.422 354.707 184.92 356.981 183.972 359.082C183.024 361.182 181.651 363.064 179.939 364.607C175.864 368.566 170.819 371.384 165.31 372.779C159.802 374.173 154.024 374.095 148.555 372.552C138.617 369.837 135.335 360.422 133.11 351.238C132.556 347.681 132.257 344.088 132.217 340.488ZM200.837 410.898C200.676 426.639 192.015 436.581 179.684 438.048C168.834 439.338 160.166 432.566 156.113 420.313C152.405 409.108 155.004 398.799 160.463 389.21C167.083 377.586 180.729 376.312 190.451 385.698C193.776 388.994 196.409 392.921 198.195 397.248C199.982 401.576 200.885 406.216 200.853 410.898H200.837ZM132.217 282.905C132.217 270.858 142.039 259.589 152.209 259.947C165.281 260.408 175.676 270.159 175.66 281.934C175.637 295.155 163.73 307.917 151.854 307.408C139.082 306.853 132.217 298.279 132.217 282.905ZM206.251 484.541C192.118 484.219 181.658 473.998 181.841 460.651C182.025 447.305 188.961 440.411 201.708 440.982C214.038 441.547 225.737 454.38 225.247 466.81C225.208 469.235 224.681 471.627 223.698 473.844C222.715 476.061 221.296 478.057 219.525 479.713C217.754 481.37 215.666 482.652 213.389 483.485C211.111 484.317 208.689 484.682 206.267 484.558L206.251 484.541ZM160.744 246.546C159.099 246.548 157.457 246.431 155.83 246.194C141.487 243.534 136.863 233.19 143.989 220.292C147.088 214.952 151.141 210.225 155.946 206.346C161.559 201.587 171.136 201.319 175.892 205.201C181.742 209.98 185.927 223.562 183.664 230.423C182.247 235.314 179.206 239.576 175.043 242.507C170.879 245.437 165.842 246.862 160.76 246.546H160.744Z" fill="#B0C084"/>
<path d="M61.3103 737.789C82.4468 704.899 88.8828 667.392 95.5059 629.872C102.884 588.073 102.557 545.919 101.774 503.769C101.348 480.875 93.3647 459.523 86.1418 438.106C79.9057 419.613 71.0736 402.082 66.2337 383.058C64.3979 374.539 64.222 365.747 65.7149 357.162C76.3557 373.761 83.6367 392.921 104.132 402.498C106.579 380.652 99.4266 364.127 83.6589 351.267C77.3035 346.086 70.0263 342.081 66.3084 334.148C65.932 333.313 65.3883 332.563 64.7119 331.945C64.0356 331.327 63.2404 330.854 62.3747 330.554C61.5089 330.253 60.5914 330.133 59.6776 330.2C58.7638 330.267 57.8728 330.52 57.0601 330.944C49.3213 333.92 41.7246 337.286 37.2716 344.912C33.3829 351.574 29.6782 358.345 25.841 365.039C25.2177 365.865 24.833 366.847 24.7295 367.877C24.626 368.907 24.8073 369.945 25.2538 370.878C26.0172 371.933 27.1562 372.655 28.4357 372.895C29.7153 373.134 31.0382 372.875 32.1318 372.168C39.3958 369.455 45.9788 365.188 51.4204 359.664C52.0698 358.652 53.0238 357.872 54.1442 357.436C55.2646 356.999 56.4941 356.929 57.6568 357.236C59.255 363.408 59.0456 369.91 57.0538 375.967C51.3538 393.555 47.0847 411.575 44.2881 429.851C40.6348 451.649 31.7611 472.246 29.1041 494.247C25.4411 524.557 11.9276 552.336 6.85549 582.23C-0.293182 624.31 -11.6435 665.399 -21.9909 706.724C-24.9638 718.6 -27.853 730.586 -34.2826 741.297C-38.381 757.259 -47.2552 770.963 -56.6643 786.118C-43.3278 789.087 -32.2063 784.096 -20.8722 783.151C-15.339 782.69 -10.0343 779.962 -4.4979 778.991C23.0553 774.174 45.6426 761.541 61.3103 737.789ZM11.8953 644.772C11.5181 641.922 13.3686 636.508 14.797 631.056C19.824 611.709 38.2068 603.602 55.3707 613.221C64.5149 618.163 71.3705 626.477 74.4791 636.395C79.0385 650.351 77.3809 663.21 66.2919 673.096C61.8513 677.451 56.231 680.407 50.127 681.598C44.023 682.79 37.7037 682.165 31.9515 679.8C18.1701 674.135 12.6627 662.178 11.8953 644.772ZM27.4596 569.126C27.5563 552.801 39.3384 539.845 54.9417 540.451C77.1003 541.309 88.3282 555.464 89.26 577.716C89.9049 592.713 75.7174 605.769 60.7687 605.508C41.18 605.153 27.3338 590.037 27.4596 569.126ZM46.4514 715.84C46.5062 734.091 39.1062 744.728 25.6537 747.253C10.5309 750.09 -2.63796 742.984 -7.76489 729.222C-12.579 716.301 -5.0466 697.622 7.68365 690.896C24.8379 681.844 42.7371 690.573 46.0358 709.665C46.3145 711.713 46.4532 713.774 46.4514 715.84ZM61.3678 531.022C45.6388 533.067 37.5066 519.969 37.1842 504.153C37.0262 500.429 37.6148 496.711 38.9145 493.218C40.2142 489.725 42.199 486.527 44.7526 483.812C47.3062 481.097 50.3773 478.92 53.7845 477.409C57.1916 475.898 60.8658 475.083 64.5923 475.013C78.0674 474.894 91.2562 490.397 91.7721 506.958C92.1687 519.521 77.6224 531.029 61.3678 531.022ZM49.4374 449.12C49.2858 439.331 54.9189 432.266 63.08 432.031C72.818 431.731 82.7723 441.898 82.6143 451.984C82.4917 459.939 73.6247 468.361 65.2024 468.513C56.9284 468.661 49.5828 459.642 49.4248 449.137L49.4374 449.12Z" fill="#B0C084"/>
<path d="M244.236 209.551C232.512 203.544 233.982 191.714 231.835 181.479C223.983 176.965 215.338 178.455 206.925 178.18C197.829 189.047 196.691 202.89 195.227 215.739C193.434 231.462 191.267 247.565 192.186 263.281C193.527 286.265 193.905 309.391 197.616 332.249C204.17 373.911 216.928 414.357 235.465 452.239C236.945 454.92 238.56 457.524 240.302 460.042C240.544 414.919 241.621 369.779 240.782 324.675C240.07 286.197 244.707 247.968 244.236 209.551Z" fill="#F9D8AC"/>
<path d="M256.562 524.219C253.808 522.258 250.508 521.21 247.128 521.22C243.747 521.23 240.455 522.299 237.712 524.277L256.562 524.219Z" fill="#DAE1B5"/>
<path d="M-18.4475 307.873C-34.1442 306.696 -46.2324 315.611 -46.5452 334.862C-46.7999 350.662 -32.7416 365.652 -19.6566 364.569C-11.6825 364.149 -4.19517 360.602 1.18125 354.698C6.55767 348.794 9.39043 341.009 9.06454 333.03C8.99683 316.26 -0.345226 307.718 -18.4475 307.873Z" fill="#EADEC2"/>
<path d="M-43.064 272.387C-43.251 285.607 -30.8114 299.672 -18.5584 298.847C-0.710874 297.651 11.726 290.277 11.8388 275.225C11.9678 258.457 -0.0108585 246.749 -18.974 246.13C-32.117 245.685 -42.8544 257.384 -43.064 272.387Z" fill="#EADEC2"/>
<path d="M-49.4308 208.62C-49.8403 222.769 -37.729 236.583 -24.4796 237.07C-10.7788 237.576 1.19982 225.323 1.69962 210.306C2.14459 196.886 -10.5916 185.097 -25.292 184.01C-38.3963 183.027 -47.8475 194.161 -49.4308 208.62Z" fill="#EADEC2"/>
<path d="M132.215 340.488C132.246 344.087 132.535 347.678 133.079 351.236C135.304 360.419 138.587 369.834 148.525 372.549C153.997 374.098 159.78 374.18 165.294 372.785C170.808 371.391 175.859 368.571 179.938 364.607C181.654 363.067 183.032 361.187 183.985 359.087C184.938 356.987 185.445 354.712 185.474 352.406C186.148 337.573 178.544 326.443 167.481 318.788C151.24 307.534 129.7 324.505 132.215 340.488Z" fill="#EADEC2"/>
<path d="M200.851 410.898C200.885 406.216 199.985 401.574 198.201 397.245C196.417 392.916 193.785 388.987 190.462 385.689C180.743 376.296 167.097 377.576 160.474 389.2C155.015 398.79 152.413 409.098 156.124 420.304C160.177 432.557 168.845 439.328 179.695 438.038C192.029 436.581 200.689 426.64 200.851 410.898Z" fill="#EADEC2"/>
<path d="M132.211 282.905C132.191 298.28 139.059 306.854 151.838 307.411C163.704 307.924 175.622 295.159 175.645 281.938C175.661 270.163 165.265 260.411 152.193 259.95C142.049 259.589 132.24 270.859 132.211 282.905Z" fill="#EADEC2"/>
<path d="M206.27 484.558C208.693 484.686 211.117 484.324 213.397 483.494C215.677 482.664 217.766 481.383 219.54 479.728C221.314 478.073 222.736 476.077 223.722 473.86C224.707 471.642 225.235 469.249 225.275 466.823C225.755 454.393 214.057 441.559 201.737 440.995C188.99 440.415 182.067 447.277 181.87 460.665C181.674 474.053 192.137 484.236 206.27 484.558Z" fill="#EADEC2"/>
<path d="M160.76 246.546C165.845 246.866 170.886 245.443 175.052 242.512C179.219 239.581 182.262 235.317 183.68 230.424C185.937 223.562 181.745 209.98 175.909 205.202C171.153 201.332 161.576 201.587 155.962 206.346C151.158 210.225 147.105 214.952 144.006 220.292C136.88 233.19 141.503 243.534 155.846 246.194C157.473 246.431 159.116 246.548 160.76 246.546Z" fill="#EADEC2"/>
<path d="M206.929 178.18C215.342 178.454 223.987 176.975 231.839 181.479C236.03 167.014 239.713 152.494 237.249 134.576C221.862 147.18 211.443 160.513 206.929 178.18Z" fill="#FBF4F0"/>
<path d="M11.8914 644.773C12.6588 662.185 18.1656 674.135 31.9342 679.8C37.6864 682.165 44.0064 682.79 50.1104 681.599C56.2145 680.407 61.8348 677.451 66.2754 673.097C77.3547 663.211 79.0211 650.351 74.4617 636.396C71.3531 626.477 64.4984 618.163 55.3542 613.222C38.1903 603.603 19.8075 611.716 14.7805 631.056C13.3649 636.509 11.5141 641.913 11.8914 644.773Z" fill="#EADEC2"/>
<path d="M27.4528 569.126C27.327 590.037 41.1732 605.16 60.7619 605.508C75.7235 605.776 89.882 592.713 89.2532 577.716C88.3214 555.467 77.0935 541.309 54.9349 540.451C39.3316 539.845 27.5495 552.801 27.4528 569.126Z" fill="#EADEC2"/>
<path d="M46.4411 715.844C46.4427 713.778 46.3041 711.715 46.0254 709.669C42.7268 690.576 24.8276 681.848 7.67333 690.899C-5.05692 697.619 -12.5894 716.305 -7.77521 729.225C-2.64828 742.987 10.5205 750.094 25.6434 747.257C39.0959 744.732 46.4959 734.094 46.4411 715.844Z" fill="#EADEC2"/>
<path d="M61.3591 531.026C77.6137 531.026 92.1598 519.521 91.7697 506.961C91.2538 490.4 78.0658 474.897 64.5907 475.017C60.8642 475.087 57.1892 475.901 53.782 477.412C50.3749 478.923 47.3038 481.1 44.7502 483.815C42.1966 486.53 40.2118 489.728 38.9121 493.222C37.6124 496.715 37.0246 500.432 37.1826 504.156C37.5018 519.972 45.6301 533.07 61.3591 531.026Z" fill="#EADEC2"/>
<path d="M49.4212 449.137C49.5792 459.643 56.9248 468.662 65.1956 468.513C73.6083 468.362 82.4753 459.939 82.6075 451.985C82.7655 441.898 72.8112 431.732 63.0733 432.032C54.9057 432.283 49.2696 439.348 49.4212 449.137Z" fill="#EADEC2"/>
</svg>
