<svg width="185" height="659" viewBox="0 0 185 659" fill="none" xmlns="http://www.w3.org/2000/svg">
<path d="M367.989 406.785L368.38 401.409C365.441 401.466 363.254 400.483 362.318 397.401C361.396 394.355 359.82 391.436 359.364 388.339C358.42 381.892 354.327 379.606 348.572 378.533C344.878 377.844 340.835 377.701 337.311 374.577C344.716 370.554 352.93 368.248 361.346 367.827C363.747 367.569 366.152 368.27 368.037 369.779C368.167 356.04 368.37 342.302 368.41 328.563C368.452 312.703 368.342 296.843 368.297 280.983C364.347 278.049 360.378 275.13 358.765 270.139L358.752 270.214C355.522 267.907 352.78 264.985 350.683 261.616C348.073 257.588 344.297 254.452 339.859 252.624C331.599 249.117 323.049 246.337 314.307 244.316L313.925 244.755C318.395 249.368 324.268 252.104 329.166 256.156C337.251 262.848 344.675 270.006 347.564 280.59C350.493 291.323 348.93 302.279 349.041 313.143C349.068 315.817 347.323 317.33 344.85 315.474C342.54 313.734 339.574 312.81 337.937 310.197C336.939 310.103 335.975 309.787 335.116 309.271C334.257 308.756 333.524 308.054 332.971 307.218C329.691 306.698 326.598 305.847 324.866 302.604C323.429 302.499 322.051 301.985 320.897 301.123C319.743 300.26 318.859 299.085 318.352 297.736C305.165 292.74 297.911 275.871 299.106 266.049C299.901 259.528 302.462 252.987 300.975 246.424C297.594 231.505 300.557 233.41 310.585 227.928C311.035 227.648 311.509 227.409 312 227.212C316.538 225.681 318.298 222.507 319.095 217.771C320.627 208.662 322.673 199.528 327.874 191.651C331.151 186.689 334.102 181.008 341.231 180.539L341.208 180.539C341.217 179.731 341.5 178.949 342.011 178.323C342.521 177.696 343.229 177.261 344.019 177.089C352.037 174.364 359.792 170.76 368.305 169.665L368.397 118.446C362.225 112.589 355.682 107.277 347.171 105.239C342.58 104.139 337.904 102.559 333.281 102.607C321.125 102.734 309.105 100.942 296.978 100.855C297.571 102.021 298.259 103.148 298.738 104.361C300.372 108.499 299.01 110.949 294.708 111.585C293.135 111.829 291.524 111.641 290.049 111.041C288.574 110.441 287.289 109.452 286.332 108.179C284.993 106.553 283.779 104.827 282.7 103.017C279.879 98.3542 276.117 96.3443 270.75 98.4425C268.775 99.2071 266.631 99.4229 264.544 99.067L260.454 99.5465C261.571 101.711 260.027 103.562 259.787 105.563C263.056 106.952 265.206 104.306 267.781 103.28C273.986 100.806 276.79 101.495 280.525 107.119C285.983 115.26 290.221 124.157 293.105 133.525C294.286 137.584 295.127 141.735 295.619 145.935C296.119 149.881 294.483 151.46 290.657 150.955C285.443 150.266 281.273 148.291 279.026 142.795C277.536 139.154 277.028 134.527 272.562 132.649C272.234 134.222 272.491 135.861 273.286 137.258C276.57 145.676 280.52 153.819 285.098 161.61C289.15 168.036 288.735 170.176 283.148 175.42C278.622 179.539 273.645 183.133 268.312 186.134C262.817 189.34 257.866 191.546 250.66 190.147C239.746 188.029 229.989 183.581 220.019 179.308C217.613 178.278 215.713 176.123 217.01 173.62C220.998 165.933 223.36 157.392 228.605 150.431C230.802 151.175 230.878 152.899 231.42 154.369C233.803 160.847 236.274 167.293 238.622 173.785C239.852 177.183 241.981 179.651 245.721 178.524C255.38 175.613 265.22 173.158 274.384 168.849C279.608 166.391 279.794 165.397 277.136 160.308C273.977 154.463 271.176 148.431 268.75 142.246C267.919 140.288 266.916 138.408 265.752 136.627C264.159 133.955 262.089 133.249 259.045 134.606C251.773 137.841 244.39 140.84 237.026 143.858C235.434 144.511 233.927 146.116 231.576 144.567C233.618 136.777 238.404 131.552 246.32 129.865C248.239 129.563 250.05 128.78 251.584 127.589C253.119 126.398 254.326 124.838 255.095 123.054C253.787 123.054 252.479 123.024 251.171 123.054C248.262 123.142 245.086 123.593 243.956 119.923C242.775 116.093 246.029 115.17 248.365 113.518C250.267 112.174 253.924 112.491 253.481 108.649C250.575 108.316 248.485 110.163 246.18 111.397C239.852 114.787 239.852 114.806 234.747 109.688C231.14 106.078 231.035 106.025 227.235 109.863C223.683 113.452 220.316 117.223 216.78 120.83C215.324 122.73 213.538 124.352 211.508 125.62C209.141 126.749 207.623 123.365 204.705 124.173C207.062 130.691 204.564 135.197 200.162 139.395C196.112 143.248 192.573 147.606 189.633 152.361C189.253 152.813 188.972 153.34 188.81 153.908C188.649 154.476 188.609 155.072 188.694 155.657C188.779 156.241 188.986 156.801 189.303 157.3C189.62 157.798 190.039 158.224 190.532 158.549C198.161 165.518 198.692 168.992 193.746 178.944C185.813 173.693 179.966 166.567 174.502 159.138C170.417 153.586 170.52 149.338 174.714 143.891C177.951 139.686 181.418 135.635 185.038 131.755C190.121 126.311 194.847 120.098 203.57 121.378C203.531 119.544 202.797 117.793 201.516 116.479C196.84 109.607 196.93 109.548 204.254 105.285C211.185 101.249 218.78 98.9255 226.261 96.2794C208.747 95.8914 191.303 93.6964 173.751 94.2643C173.668 96.3858 173.598 98.5075 173.498 100.627C172.998 111.14 167.836 118.527 158.537 123.275C154.6 125.273 150.232 124.709 146.122 125.785C140.327 127.304 139.162 127.988 138.69 133.833C138.619 136.48 138.722 139.129 139 141.763C139.476 150.756 143.117 158.666 147.21 166.466C148.241 168.429 150.987 170.747 148.875 172.804C146.557 175.067 144.595 171.765 142.965 170.594C132.751 163.379 121.193 158.288 108.975 155.621C102.647 154.166 96.6688 154.113 91.1568 159.119C86.4657 163.378 80.499 165.501 74.0294 166.91C67.633 168.302 61.9694 166.039 55.9644 165.784C55.7846 171.327 55.4649 176.867 55.4483 182.411C55.3772 210.165 55.3512 237.924 55.37 265.686C60.992 267.963 66.9704 269.368 72.2909 272.377C85.4466 279.823 92.9102 291.336 95.21 306.056C96.6638 315.37 99.9978 323.271 107.462 329.4C114.547 335.216 118.969 343.246 123.948 350.777C124.96 352.307 126.502 354.041 124.674 355.674C122.845 357.308 121.318 355.406 119.796 354.457C114.457 350.958 108.667 348.201 102.586 346.26C93.6348 343.608 92.8819 343.947 90.5955 352.957C87.991 363.19 81.4815 369.383 71.4449 372.304C65.7791 373.772 59.8924 374.189 54.0762 373.536C53.3801 385.329 52.4674 397.108 51.8429 408.908C51.3283 418.615 50.599 428.28 50.982 438.004C54.186 437.447 56.6755 438.2 58.0877 441.481C59.2367 444.154 60.5856 446.748 61.9494 449.318C63.1518 451.577 63.0719 453.404 60.4807 454.462C56.8404 455.947 56.9354 458.223 58.3375 461.456C60.1978 466.12 62.4524 470.618 65.0769 474.899C70.4291 483.099 75.5898 491.424 80.7305 499.76C81.9279 501.706 83.6264 503.859 81.1834 506.158C75.0336 511.95 66.1494 510.546 61.6415 503.161C59.4516 499.571 58.4424 495.302 55.34 492.247C55.4032 501.529 55.5815 510.811 55.4749 520.092C55.6253 523.522 56.0604 526.935 56.7755 530.293C57.2986 530.222 57.8123 530.093 58.3075 529.91C75.3782 521.399 91.8363 520.766 107.538 533.276C109.588 535.006 112.045 536.184 114.677 536.701C117.309 537.218 120.029 537.055 122.581 536.228C127.755 534.666 133.152 535.482 138.446 535.193C139.944 535.111 142.004 534.753 142.426 536.786C142.802 538.618 140.897 539.262 139.688 540.255C132.266 546.3 125.568 553.182 119.728 560.766C115.288 566.576 114.625 572.198 118.482 578.418C123.44 586.411 124.754 595.164 124.247 604.446C123.979 609.36 121.656 613.624 120.88 618.326C131.73 620.888 142.827 621.848 153.853 623.036C175.218 625.336 196.707 625.788 218.167 626.766C232.367 627.412 246.727 628.196 260.81 630.904C261.333 631.003 261.866 631.041 262.399 631.017C275.969 630.351 289.388 633.48 302.953 632.659C317.218 631.797 331.503 631.137 345.596 628.444C350.27 627.552 355.015 627.031 359.727 626.335C362.905 626.15 365.959 625.033 368.505 623.122L368.16 620.996C366.957 620.52 365.898 619.738 365.09 618.727C364.282 617.716 363.753 616.511 363.554 615.232L363.627 615.26C363.222 615.169 362.851 614.963 362.558 614.668C362.265 614.373 362.062 614.001 361.972 613.595L362.03 613.655C361.626 613.562 361.255 613.356 360.963 613.061C360.67 612.767 360.466 612.395 360.375 611.99L360.435 612.052C360.031 611.957 359.661 611.751 359.368 611.456C359.076 611.162 358.872 610.791 358.78 610.386L358.84 610.446C358.436 610.35 358.068 610.143 357.775 609.849C357.482 609.555 357.277 609.185 357.183 608.781L357.218 608.844C355.171 607.892 353.711 606.543 353.979 604.03L354.004 604.055C353.066 604.106 352.134 603.886 351.318 603.421C350.502 602.956 349.837 602.266 349.403 601.434C338.094 585.807 333.489 569.197 342.345 550.764C344.53 546.22 347.019 541.822 349.193 537.276C351.783 532.333 352.61 526.655 351.537 521.179C349.557 511.179 351.752 501.156 353.686 491.266C353.979 489.767 354.124 487.727 356.149 487.695C358.75 487.654 358.48 489.987 358.856 491.75C360.167 499.089 363.37 505.958 368.149 511.679C368.648 494.931 368.585 478.183 368.187 461.436C360.537 473.722 363.586 471.812 349.972 471.233C349.71 471.233 349.449 471.249 349.189 471.279C352.417 475.109 352.277 478.725 348.628 482.233C347.732 483.211 346.906 484.251 346.155 485.344C335.864 498.53 334.149 498.793 319.974 489.341C319.066 488.794 318.195 488.186 317.368 487.522C315.839 486.175 313.538 484.978 315.433 482.403C316.778 480.571 318.49 480.986 320.402 481.709C329.018 484.973 329.288 485.134 335.056 478.272C338.925 473.669 343.238 470.966 349.301 471.373C344.202 466.6 344.204 466.6 347.749 460.548C351.031 454.508 353.596 448.105 355.391 441.469C358.32 431.909 358.435 431.757 368.417 430.948L367.897 421.907C366.646 417.356 367.263 412.523 365.816 407.954C365.409 406.733 366.9 406.58 367.989 406.785ZM138.439 209.397C139.991 209.135 141.571 208.977 143.093 208.594C149.998 206.857 152.012 207.944 152.655 214.799C153.091 219.024 154.253 223.142 156.091 226.972C157.577 230.662 158.584 234.527 159.088 238.474C159.921 243.083 158.71 246.702 154.149 249.052C145.418 253.548 136.85 258.354 128.186 262.978C126.124 264.079 123.646 264.144 122.379 262.196C120.134 258.732 116.414 256.282 114.629 251.551C121.227 250.804 127.037 249.493 133.083 249.161C140.039 248.778 141.689 246.434 141.743 239.546C141.517 235.833 140.718 232.176 139.375 228.707C137.426 222.324 135.545 215.958 138.484 209.358C134.361 209.265 133.233 206.086 132.381 203.014C131.463 199.706 131.048 196.259 130.411 192.875C129.934 190.366 128.326 189.854 126.337 190.987C124.742 191.894 123.483 193.373 121.936 194.389C119.809 195.772 117.365 196.592 114.835 196.77C112.304 196.948 109.769 196.48 107.47 195.408C106.074 194.947 104.885 194.012 104.108 192.764C103.331 191.517 103.016 190.036 103.218 188.581C103.48 177.213 112.304 170.429 123.035 173.721C132.431 176.609 141.743 179.771 151.055 182.922C157.618 185.142 158.53 186.617 157.506 193.468C157.058 195.814 156.391 198.113 155.516 200.336C155.36 200.994 154.97 201.574 154.419 201.968C153.868 202.361 153.193 202.541 152.519 202.476C146.189 201.538 142.53 205.878 138.439 209.397ZM165.583 308.45C167.901 308.187 170.219 307.926 172.942 307.618C173.679 313.434 175.107 318.99 175.273 324.828C175.458 331.213 177.495 333.331 183.954 333.802C187.769 334.081 190.847 334.768 191.876 338.851C193.042 343.506 193.579 348.229 191.709 352.84C191.46 353.463 190.544 353.919 189.848 354.242C183.759 357.051 175.29 354.56 172.251 348.515C168.442 341.234 164.24 334.165 159.663 327.34C156.332 322.177 156.747 320.189 160.983 315.456C162.867 313.351 165.786 311.879 165.608 308.405C157.33 307.511 153.438 301.226 150.342 294.86C147.511 289.032 152.201 284.82 155.689 280.935C161.903 274.021 169.02 267.946 174.64 260.452C176.251 258.307 178.637 255.991 181.195 256.402C185.761 257.136 188.912 260.709 192.214 263.809C195.065 266.485 193.128 268.459 191.761 270.729C191.487 271.338 191.348 271.999 191.354 272.667C191.361 273.335 191.512 273.993 191.798 274.597C192.154 275.596 192.415 276.627 192.577 277.676C193.503 285.305 191.363 287.335 183.684 285.836C181.111 285.178 178.575 284.377 176.091 283.436C173.34 282.569 171.987 283.711 172.049 286.487C172.045 287.814 172.258 289.133 172.679 290.392C174.697 295.859 172.965 300.232 169.06 304.136C167.826 305.51 166.666 306.95 165.586 308.449L165.583 308.45ZM294.918 433.033C296.24 436.405 299.701 436.965 302.34 438.528C305.534 440.417 309.026 441.791 312.247 443.637C318.595 447.279 319.419 447.246 323.478 440.938C327.499 434.688 330.766 427.982 335.201 421.964C338.865 417 338.663 416.082 333.274 412.672C325.614 407.817 317.06 404.745 308.785 401.159C302.222 398.315 301.003 399.131 297.794 405.614C294.309 412.657 290.535 419.557 286.537 427.188C281.832 418.906 280.559 410.633 277.526 403.011C276.239 399.777 277.649 397.324 281.065 396.219C281.564 396.052 282.064 395.855 282.563 395.662C294.007 391.193 306.02 389.541 318.157 388.59C319.476 388.641 320.751 389.08 321.821 389.852C329.616 394.46 336.657 400.237 342.698 406.983C347.659 412.811 347.837 415.726 343.053 421.732C336.382 430.107 331.621 439.629 326.269 448.798C325.386 450.308 323.972 451.872 325.278 453.877C329.94 450.108 332.12 444.563 334.961 439.597C336.087 437.331 337.878 435.463 340.095 434.242C342.312 433.022 344.849 432.508 347.366 432.77C352.007 432.96 353.186 434.169 352.029 438.72C348.333 453.186 340.693 465.552 331.02 476.721C328.229 479.944 324.727 480.257 320.948 478.064C318.433 476.605 316.3 474.468 313.373 473.734L312.04 475.133C311.244 486.188 306.838 489.324 296.728 485.889C289.942 483.584 283.168 481.226 276.462 478.698C268.712 475.857 261.448 471.837 254.925 466.78C250.595 463.363 250.643 462.093 254.077 457.659C255.756 455.494 259.011 454.187 258.287 450.571C254.66 451.469 251.293 452.175 248.18 448.785C241.436 441.304 235.574 433.071 230.712 424.25C228.953 421.141 228.222 417.484 230.557 414.458C236.542 406.656 243.951 400.058 252.392 395.013C254.539 393.731 255.816 394.816 256.375 397.081C258.041 403.822 256.19 408.835 249.727 413.191C246.945 415.068 246.412 417.035 247.628 419.864C249.911 424.953 252.958 429.663 256.663 433.832C260.66 438.477 262.287 443.268 259.777 449.079C264.923 448.144 268.878 449.511 271.418 454.482C272.312 456.233 273.369 458.322 275.822 458.663C277.634 455.499 274.785 453.824 273.438 451.86C266.705 442.035 259.706 432.405 252.998 422.568C249.676 417.697 250.107 416.602 255.693 414.722C259.944 413.265 264.278 412.061 268.672 411.118C274.963 409.801 276.498 410.816 278.547 417.083C279.781 420.846 280.597 424.756 281.974 428.462C284.805 436.085 286.747 444.292 294.382 449.064C296.777 450.563 296.585 453.061 296.52 455.466L309.413 455.466C307.277 451.85 303.906 449.129 299.921 447.805C293.163 445.083 288.95 439.924 288.648 432.265C291.313 431.006 292.85 433.874 295.006 433.116C295.105 429.359 292.742 425.955 294.59 421.792C296.856 416.683 299.586 411.849 302.024 406.848C302.207 406.342 302.491 405.879 302.86 405.487C303.229 405.095 303.675 404.783 304.169 404.57C304.663 404.357 305.196 404.248 305.734 404.248C306.272 404.249 306.804 404.36 307.298 404.575C314.515 407.226 321.817 409.701 328.447 413.716C331.799 415.747 332.385 418.378 330.234 421.756C327.807 425.557 325.602 429.501 323.219 433.331C316.274 444.488 316.129 441.657 307.821 437.614C303.751 435.626 300.217 431.666 294.921 433.033L294.918 433.033ZM230.991 591.59C224.94 594.521 221.248 598.751 217.373 602.706C214.632 605.509 211.941 606.546 208.244 604.26C196.785 597.011 186.371 588.231 177.291 578.162C174.832 575.497 174.104 572.343 176.011 569.407C178.487 565.592 180.227 561.424 182.524 557.549C184.988 553.386 188.577 553.49 191.068 557.627C192.342 559.976 192.928 562.637 192.76 565.304C192.646 568.758 192.724 572.216 192.992 575.662C193.53 580.728 195.176 582.358 200.427 583.249C207.195 584.4 213.974 585.565 220.793 586.281C225.483 586.781 230.415 587.346 234.049 582.908C234.823 581.962 236.927 581.287 236.865 583.407C236.752 587.271 238.355 586.758 240.587 585.386C244.75 582.831 248.837 581.181 254.064 582.426C258.307 583.436 261.25 581.094 263.223 576.914C263.811 575.438 264.536 574.02 265.388 572.678C266.898 570.611 272.137 569.465 274.132 570.898C277.111 573.037 275.416 575.674 274.272 577.983C273.106 580.351 271.183 582.406 270.295 584.854C265.165 598.991 252.941 605.099 240.697 610.999C234.702 613.883 229.443 611.972 225.083 606.961C223.053 604.629 223.323 602.964 225.265 600.799C227.451 598.373 230.975 596.763 230.995 591.59L230.991 591.59ZM138.422 444.938C138.336 451.031 138.545 457.103 137.105 463.153C136.835 464.845 136.163 466.449 135.147 467.828C134.13 469.208 132.797 470.324 131.26 471.083C119.685 476.878 107.123 478.948 94.5306 480.721C90.151 481.337 87.8845 478.793 88.1326 474.748C88.9252 461.797 89.7462 448.847 90.5955 435.901C90.648 434.838 90.7749 433.781 90.9753 432.736C92.5023 425.383 93.8061 424.5 101.248 425.201C104.139 425.472 106.947 427.129 109.869 426.2C117.072 423.89 124.096 426.099 131.135 426.935C136.827 427.612 138.219 429.566 138.394 435.373C138.494 438.558 138.416 441.749 138.426 444.938L138.422 444.938ZM127.133 375.461C130.082 375.531 132.976 376.271 135.596 377.626C147.626 382.648 158.449 389.907 169.568 396.578C172.452 398.309 174.665 401.185 177.11 403.611C178.326 404.66 179.184 406.063 179.563 407.624C179.942 409.185 179.824 410.825 179.225 412.315C176.789 419.325 173.864 426.156 170.472 432.756C170.192 433.5 169.721 434.158 169.108 434.663C168.494 435.169 167.759 435.504 166.975 435.637C160.798 436.365 156.299 432.522 156.111 426.1C155.933 420 155.896 413.895 155.956 407.794C155.996 403.741 154.589 401.319 150.202 400.813C143.911 400.087 137.686 398.731 131.385 398.125C118.326 396.866 118.312 396.996 120.79 383.627C121.009 382.06 121.321 380.507 121.726 378.976C121.982 377.795 122.694 376.763 123.708 376.104C124.721 375.446 125.953 375.215 127.137 375.461L127.133 375.461ZM124.254 480.11C119.055 490.345 115.44 500.894 107.715 509.269C101.968 515.497 100.99 515.697 95.0035 509.912C81.3799 496.746 72.977 480.087 64.3292 463.606C64.071 463.14 63.8797 462.64 63.7613 462.12C63.4798 460.713 63.6482 459.209 65.2035 458.881C69.2751 458.025 72.0311 454.805 75.7113 453.303C82.7388 450.44 85.3948 452.285 85.7412 459.944C85.996 465.582 84.6223 471.028 84.2426 476.573C83.813 482.934 85.0752 484.122 91.3483 484.203C97.7612 484.287 103.939 482.502 110.241 481.714C114.62 481.169 118.795 478.806 124.261 480.11L124.254 480.11ZM163.888 452.287C164.75 465.489 161.675 473.406 157.465 485.174C156.349 488.295 154.407 491.352 151.1 491.734C143.232 492.641 135.393 494.337 127.385 493.604C125.22 493.404 123.388 492.272 124.151 490.145C126.249 484.287 127.053 477.272 133.881 474.58C140.146 472.107 142.023 467.574 141.724 461.402C141.535 454.513 142.008 447.621 143.135 440.821C144.029 434.603 145.633 433.559 150.446 437.208C151.413 438.056 152.585 438.637 153.846 438.894C155.106 439.15 156.412 439.074 157.634 438.671C162.029 437.572 163.516 438.811 163.841 443.168C164.076 446.333 163.894 449.529 163.894 452.287L163.888 452.287ZM176.81 301.361C176.81 298.629 176.77 296.768 176.81 294.91C176.977 288.437 177.156 288.459 183.611 289.013C194.49 289.951 204.76 293.779 215.438 295.494C222.712 296.66 224.414 299.06 222.432 306.354C220.182 314.618 215.446 321.804 211.743 329.435C211.441 330.339 210.814 331.1 209.983 331.569C209.152 332.038 208.177 332.183 207.246 331.974C200.455 330.004 193.506 331.286 186.665 330.665C181.406 330.187 178.552 327.868 178.597 322.652C178.667 315.173 176.514 307.939 176.81 301.361ZM118.246 246.054C114.68 246.054 112.263 245.838 109.898 246.097C104.206 246.725 100.862 244.146 99.0585 238.918C97.2417 233.653 95.1334 228.486 93.3616 223.205C91.3632 217.24 91.8379 216.269 96.872 212.577C103.771 207.515 111.906 204.692 119.08 200.087C125.978 195.655 127.658 196.519 130.101 204.372C130.337 205.127 130.374 205.941 130.544 206.719C132.709 216.544 134.919 226.356 137.038 236.194C138.274 241.941 137.615 242.71 132.069 244.833C127.132 246.714 122.078 245.811 118.246 246.054ZM192.674 537.919C192.674 534.754 192.645 533.422 192.674 532.09C192.825 526.172 194.054 525.081 199.799 525.859C200.837 526.069 201.862 526.339 202.868 526.668C208.948 528.243 209.771 529.359 208.352 535.449C207.333 539.827 205.813 544.087 204.643 548.438C202.978 554.655 204.31 556.645 210.669 557.615C217.714 558.691 224.767 559.719 231.817 560.779C237.18 561.585 238.563 563.471 237.236 568.63C235.778 574.291 231.261 578.033 227.539 581.99C224.852 584.849 220.57 582.924 216.943 582.06C214.853 581.709 212.734 581.564 210.615 581.627C199.405 581.229 196.808 578.744 196.026 567.547C195.92 566.222 195.904 564.892 195.979 563.565C196.347 558.794 195.781 553.997 194.314 549.442C193.103 545.727 192.548 541.829 192.672 537.924L192.674 537.919ZM222.815 207.578L222.815 207.23C217.236 207.23 211.631 207.563 206.084 207.137C200.537 206.71 199.325 205.138 199.178 199.476C199.052 194.695 199.113 189.899 199.358 185.123C199.629 179.821 200.177 174.531 200.659 169.242C200.84 167.243 201.714 165.421 203.823 165.195C206.87 164.862 209.458 166.542 211.907 168.089C214.291 169.588 213.375 171.773 212.487 173.751C210.655 177.831 212.111 180.039 216.151 181.665C225.011 185.232 233.389 189.921 242.58 192.759C249.035 194.757 249.907 197.814 245.982 203.25C245.14 204.611 243.956 205.729 242.548 206.492C241.141 207.255 239.558 207.637 237.957 207.6C232.915 207.486 227.862 207.578 222.813 207.578L222.815 207.578ZM115.571 401.228C124.859 400.229 133.763 402.18 142.75 402.837C148.399 403.25 150.784 405.184 151.077 409.581C151.461 415.409 151.353 421.274 151.395 427.124C151.406 428.756 151.12 430.4 149.252 430.975C148.517 431.318 147.683 431.386 146.902 431.164C146.122 430.943 145.448 430.447 145.003 429.769C142.562 425.429 138.342 424.92 134.108 424.388C125.7 423.334 117.308 421.797 108.812 422.13C103.958 422.322 100.601 420.713 98.5473 416.342C97.4199 413.946 96.0992 411.626 95.1584 409.16C93.0934 403.751 94.0426 401.854 99.8444 401.333C105.12 400.851 110.467 401.228 115.576 401.228L115.571 401.228ZM271.979 367.423C280.898 368.204 289.071 368.883 297.235 369.659C299.344 369.864 301.435 370.235 303.486 370.768C305.507 371.407 307.287 372.64 308.596 374.307C309.905 375.973 310.681 377.996 310.823 380.11C310.971 385.178 307.018 385.025 303.699 385.656C294.562 387.393 286.025 391.176 277.055 393.483C273.474 394.405 271.614 396.355 272.452 400.36C272.87 402.348 273.784 404.941 271.619 406.249C268.955 407.857 265.776 409.413 262.668 408.287C259.697 407.214 259.891 404.047 260.062 401.386C260.605 392.931 260.968 384.45 261.926 376.039C262.883 367.628 263.911 367.081 271.984 367.421L271.979 367.423ZM236.106 557.655C230.064 556.781 222.484 555.699 214.908 554.583C208.68 553.665 207.505 552.373 209.037 546.506C211.245 538.053 214.109 529.774 216.355 521.331C217.465 517.168 219.864 515.867 223.872 516.017C231.121 516.288 237.871 518.755 244.783 520.49C251.777 522.248 253.031 523.885 251.658 531.024C250.309 538.028 248.467 544.951 246.514 551.817C245.051 556.964 243.609 557.69 236.111 557.654L236.106 557.655ZM213.741 164.264C207.828 162.752 202.095 160.606 196.642 157.863C191.938 155.467 191.684 154.304 195.341 150.138C204.442 139.768 213.594 129.44 222.915 119.268C231.418 109.986 233.311 110.276 240.202 121.044C240.333 121.273 240.475 121.495 240.628 121.71C243.038 124.707 242.369 127.237 239.093 128.79C232.845 131.751 229.944 137.368 227.168 143.124C224.405 148.852 221.774 154.644 219.008 160.374C217.972 162.554 216.812 164.747 213.746 164.263L213.741 164.264ZM305.952 179.085C307.599 172.246 308.783 166.624 310.339 161.1C311.388 157.373 310.928 155.035 306.643 154.156C302.593 153.323 300.422 150.577 299.752 146.424C298.28 137.283 296.848 128.129 292.364 119.791C290.973 117.205 292.197 115.187 294.738 113.998C302.48 110.366 310.134 113.483 312.702 121.776C316.607 134.389 321.076 146.807 322.988 160.036C324.338 169.387 324.044 172.461 313.426 176.963C310.977 177.808 308.484 178.518 305.957 179.09L305.952 179.085ZM205.455 512.225C205.578 501.496 206.587 500.788 217.431 498.287C226.309 496.24 235.416 497.561 244.269 495.524C246.102 495.017 248.049 495.097 249.835 495.752C251.621 496.407 253.157 497.604 254.229 499.176C259.141 506.784 262.639 515.217 264.554 524.068C265.02 526.197 264.773 528.495 261.791 528.819C259.19 529.101 256.775 528.766 256.75 525.401C256.725 522.07 255.496 519.627 252.202 518.778C242.211 516.203 232.36 513.084 221.894 512.745C217.536 512.605 214.955 513.967 213.291 518.052C212.407 520.225 211.876 524.122 208.379 523.074C205.669 522.263 205.515 518.926 205.46 516.215C205.438 514.891 205.46 513.559 205.46 512.23L205.455 512.225ZM264.818 202.849C261.904 202.849 258.99 202.875 256.076 202.839C254.512 202.819 252.665 202.995 252.162 201.019C251.925 200.106 252.047 199.138 252.503 198.313C252.959 197.489 253.715 196.871 254.613 196.587C255.574 196.148 256.612 195.873 257.593 195.478C269.571 190.415 280.518 183.197 289.891 174.183C293.333 171.019 293.413 168.043 291.306 164.402C289.974 162.109 288.555 159.861 287.429 157.473C286.545 155.596 287.519 154.159 289.498 154.366C292.648 154.723 295.765 155.322 298.823 156.158C306.295 158.129 308.107 160.925 305.404 168.069C302.056 177.286 297.981 186.223 293.22 194.795C292.256 196.695 290.805 198.306 289.015 199.462C287.226 200.618 285.161 201.279 283.033 201.376C276.966 201.778 270.951 203.057 264.823 202.854L264.818 202.849ZM319.722 377.09C328.74 378.47 338.51 379.458 347.965 382.177C349.384 382.557 350.7 383.249 351.816 384.204C352.932 385.159 353.819 386.352 354.413 387.696C358.973 397.858 362.419 408.484 364.688 419.389C365.835 424.718 363.551 427.198 358.159 428.092C355.286 428.568 352.395 428.983 349.499 429.258C348.722 429.456 347.904 429.435 347.138 429.197C346.372 428.959 345.686 428.513 345.158 427.909C344.035 426.22 345.619 425.004 346.447 423.746C353.496 413.088 353.544 413.05 344.92 404.055C342.16 401.194 339.253 398.478 336.21 395.919C330.548 391.12 324.77 386.443 317.781 383.576C315.649 382.702 314.189 381.101 314.985 378.617C315.616 376.658 317.488 377.09 319.727 377.095L319.722 377.09ZM239.598 376.423C239.281 374.578 239.412 372.685 239.979 370.901C240.545 369.116 241.532 367.494 242.855 366.17C247.351 361.674 251.736 357.05 256.405 352.738C260.262 349.059 264.861 346.246 269.894 344.488C276.194 342.389 284.25 348.304 282.96 353.872C282.47 356.865 280.874 359.564 278.488 361.435C276.102 363.306 273.1 364.212 270.077 363.974C268.745 363.959 267.428 363.937 266.104 363.881C262.305 363.714 260.134 365.379 259.686 369.286C259.293 372.707 258.615 376.096 258.197 379.514C257.331 386.575 252.85 390.803 247.015 393.977C244.708 395.231 242.922 395.003 242.384 391.994L239.598 376.423ZM68.1361 397.847C68.6723 393.396 67.6848 388.913 69.0819 384.422C70.4042 380.169 72.6823 378.14 77.1385 378.657C78.7172 378.84 80.3508 378.707 81.8929 379.033C90.1726 380.778 98.4422 382.568 106.687 384.472C108.726 385.037 110.717 385.761 112.642 386.637C113.802 386.989 114.789 387.762 115.41 388.803C116.031 389.845 116.242 391.08 116.001 392.269C115.891 393.609 115.319 394.87 114.382 395.835C113.445 396.8 112.202 397.409 110.865 397.558C109.022 397.799 107.16 397.86 105.305 397.741C100.494 397.574 95.8362 398.705 91.1068 399.239C88.5539 399.526 86.777 400.422 87.8462 403.194C89.2766 406.928 86.9736 407.97 84.2792 408.775C81.7687 409.609 79.193 410.232 76.5789 410.638C69.0452 411.567 68.2526 410.805 68.1361 403.426C68.1127 401.569 68.1409 399.706 68.1409 397.849L68.1361 397.847ZM237.448 303.906C237.448 307.621 237.358 311.341 237.478 315.053C237.647 316.25 237.37 317.467 236.698 318.471C236.027 319.476 235.008 320.198 233.837 320.499C231.074 321.405 228.25 322.115 225.386 322.623C222.202 323.123 221.195 321.624 222.339 318.294C223.801 314.036 225.606 309.891 226.918 305.591C229.548 296.972 228.202 294.509 219.668 292.467C213.769 291.055 207.704 290.302 201.849 288.763C200.509 288.398 199.258 287.761 198.174 286.893C197.09 286.025 196.196 284.943 195.546 283.716C194.896 282.488 194.505 281.14 194.397 279.755C194.289 278.37 194.466 276.978 194.917 275.664C195.916 272.772 197.801 271.057 200.948 272.071C207.273 274.014 213.841 275.054 220.457 275.16C223.769 275.266 227.025 277.068 230.312 278.077C233.726 279.125 235.281 281.408 235.974 284.95C237.166 291.195 237.662 297.553 237.453 303.907L237.448 303.906ZM93.7596 417.209C93.7994 417.876 93.5939 418.534 93.1819 419.06C92.7699 419.585 92.1799 419.942 91.5231 420.062C88.9086 420.747 88.877 423.109 88.1925 425.046C87.1068 428.127 87.4482 431.349 87.3217 434.52C86.8654 445.911 85.9893 447.01 75.185 449.664C74.6721 449.791 74.186 450.039 73.6864 450.198C72.1885 450.829 70.5015 450.839 68.9963 450.226C67.4912 449.613 66.2909 448.427 65.6597 446.93C62.4041 440.561 58.649 434.418 56.6023 427.481C54.8888 421.677 55.1286 420.998 60.7989 418.407C69.3317 414.505 78.6955 413.744 87.6813 411.579C90.857 410.812 93.9345 414.064 93.7647 417.211L93.7596 417.209ZM74.7921 247.271C74.7395 246.472 74.9215 245.675 75.3155 244.978C75.7095 244.281 76.2986 243.714 77.0103 243.346C79.8662 241.423 82.7005 239.46 85.6131 237.624C91.8895 233.666 92.962 234.109 96.056 240.832C97.4482 243.858 97.8728 248.379 101.741 248.898C107.843 249.718 110.684 254.352 114.183 258.089C119.193 263.44 118.845 266.495 113.771 271.578C112.459 272.893 111.178 274.242 109.793 275.478C105.761 279.068 102.487 279.328 98.6489 275.701C90.7522 268.239 82.9003 260.697 77.0719 251.388C76.2442 250.056 74.9452 248.983 74.802 247.273L74.7921 247.271ZM190.547 549.432C182.669 546.894 177.306 541.764 171.706 537.129C169.411 535.231 170.772 532.625 172.039 530.578C178.639 519.987 185.092 509.292 192.071 498.956C195.949 493.492 201.24 489.184 207.378 486.495C211.35 484.64 214.399 486.347 216.037 490.786C217.841 495.682 213.738 495.018 211.23 495.837C210.259 496.27 209.239 496.58 208.192 496.761C203.218 497.044 202.117 500.11 202.306 504.4C202.457 507.852 202.362 511.317 202.322 514.776C202.239 521.999 202.231 522.27 194.943 522.461C190.734 522.573 189.281 524.197 189.405 528.2C189.641 535.044 189.276 541.905 190.552 549.434L190.547 549.432ZM229.847 325.991C236.417 325.583 237.558 326.267 238.968 332.004C239.53 334.045 240.215 336.05 241.02 338.007C243.051 343.379 242.399 345.255 237.44 347.509C226.497 352.487 214.843 355.06 203.135 357.448C199.768 358.134 198.071 356.55 197.669 353.374C197.368 351.006 197.471 348.575 197.038 346.237C195.062 335.556 195.04 335.579 205.841 335.511C208.685 335.493 212.254 336.633 213.981 333.679C217.849 327.07 224.742 327.721 229.839 325.992L229.847 325.991ZM235.248 230.312C231.854 229.248 228.067 231.421 225.836 228.339C223.223 224.73 220.302 221.16 219.555 216.489C218.888 212.292 219.579 211.16 223.937 211.077C229.248 210.977 234.567 211.243 239.879 211.41C243.393 211.531 246.517 211.243 249.444 208.617C252.997 205.428 257.897 204.131 262.101 206.346C267.491 209.19 273.025 211.756 278.36 214.694C281.001 216.149 280.893 218.036 277.942 219.127C264.175 224.444 249.853 228.197 235.246 230.314L235.248 230.312ZM182.849 175.984C192.064 180.574 196.379 187.175 195.889 196.729C195.794 198.577 195.826 200.441 195.903 202.292C196.149 208.161 196.998 209.21 202.514 210.286C204.082 210.527 205.662 210.687 207.246 210.765C210.1 211.093 212.715 212.515 214.54 214.733C216.366 216.951 217.259 219.79 217.032 222.654C216.893 226.86 213.273 229.676 207.491 230.236C204.823 230.3 202.224 229.387 200.182 227.668C191.656 221.944 185.664 213.888 179.58 205.828C178.32 204.295 177.433 202.492 176.986 200.56C176.539 198.628 176.545 196.618 177.003 194.689C178.304 188.271 180.262 182.003 182.847 175.986L182.849 175.984ZM323.551 374.836C320.587 374.2 317.045 374.503 315.248 372.197C310.5 366.087 304.026 366.182 297.346 365.881C292.81 365.676 286.489 367.584 284.422 362.622C282.284 357.491 287.977 353.804 290.635 349.667C291.261 348.647 292.19 347.848 293.292 347.381C294.394 346.914 295.615 346.802 296.783 347.061C313.401 349.043 328.214 356.147 342.87 363.559C345.679 364.981 344.603 366.966 341.984 368.014C336.59 370.179 330.817 371.344 325.732 374.322C325.036 374.606 324.299 374.78 323.549 374.838L323.551 374.836ZM192.537 461.559C192.722 464.522 192.317 466.48 190.817 467.654C183.571 473.316 177.162 480.248 168.003 483.096C166.524 483.556 165.005 484.635 163.571 483.329C162.137 482.024 163.072 480.408 163.466 478.899C165.1 472.526 167.744 466.368 167.258 459.554C166.565 449.854 170.422 441.432 175.113 433.356C177.483 429.278 179.443 429.404 181.801 433.761C185.499 440.49 188.569 447.546 190.97 454.84C191.605 457.052 192.128 459.294 192.537 461.559ZM170.525 489.702C166.329 500.588 159.496 509.377 153.088 518.396C151.756 520.277 149.806 520.43 147.406 520.035C137.1 518.342 127.563 514.197 117.736 511.006C114.019 509.8 113.545 507.417 116.018 504.207C119.381 499.839 123.511 496.843 129.481 496.976C136.389 497.131 143.303 496.809 150.217 496.809C154.101 496.809 157.378 496.109 160.042 492.745C161.204 491.146 162.864 489.979 164.762 489.429C166.66 488.878 168.687 488.975 170.524 489.704L170.525 489.702ZM235.518 493.687C234.307 493.687 233.509 493.729 232.718 493.687C228.122 493.407 227.048 491.952 228.722 487.692C229.918 484.746 231.322 481.888 232.923 479.141C236.958 472.05 241.996 470.676 248.425 475.619C259.098 483.825 269.886 491.939 279.496 501.431C281.316 502.979 282.834 504.851 283.974 506.951C284.625 508.38 285.708 509.82 284.797 511.421C283.604 513.516 281.633 512.565 279.834 512.468C270.38 511.957 262.612 509.649 258.928 499.198C256.843 493.278 251.058 491.159 244.464 492.185C241.34 492.67 238.365 494.14 235.516 493.689L235.518 493.687ZM250.728 578.46C246.384 578.533 241.629 578.561 240.009 575.405C238.226 571.93 241.068 567.879 243.052 564.431C243.342 563.986 243.688 563.579 244.082 563.222C247.304 559.665 249.558 555.341 250.628 550.663C251.664 547.106 252.505 543.479 253.766 540.005C256.472 532.548 259.341 531.179 267.158 533.206C272.71 534.648 273.729 535.729 272.069 540.635C268.5 551.172 264.575 561.59 260.637 572.003C258.853 576.724 255.578 579.447 250.727 578.461L250.728 578.46ZM76.3457 237.674C71.4049 237.596 65.355 225.716 68.3292 221.34C73.6747 213.46 79.4415 205.869 84.1592 197.56C85.2447 196.053 86.5382 194.707 88.001 193.563C88.4335 193.054 89.004 192.681 89.6438 192.489C90.2835 192.297 90.9653 192.295 91.6064 192.482C95.662 193.69 99.6367 195.154 103.506 196.865C107.69 198.949 107.526 201.831 103.362 204.501C100.244 206.499 96.9835 208.274 93.7878 210.151C86.7554 214.281 86.3791 215.198 89.2567 222.75C90.0261 224.769 90.922 226.689 90.1243 228.86C89.3183 231.057 78.8403 237.713 76.3457 237.674ZM268.807 564.665C268.295 561.975 269.541 559.567 270.454 557.141C272.688 551.199 275.145 545.339 277.33 539.379C279.639 533.079 279.698 532.761 273.686 529.584C268.838 527.021 268.524 522.625 267.867 518.225C267.759 517.564 267.865 516.885 268.168 516.288C268.472 515.69 268.958 515.205 269.556 514.903C276.437 511.126 286.865 517.046 287.025 524.998C287.191 533.49 287.093 541.973 286.998 550.461C286.832 565.457 284.389 567.487 269.558 565.159C269.318 565.122 269.116 564.879 268.807 564.665ZM236.189 153.009C235.986 149.238 236.958 147.3 240.92 145.59C246.284 143.277 251.799 141.305 257.293 139.307C257.834 139.033 258.425 138.874 259.03 138.841C259.635 138.808 260.241 138.9 260.808 139.113C261.376 139.325 261.893 139.653 262.327 140.076C262.761 140.499 263.103 141.007 263.331 141.568C266.354 147.785 269.484 153.953 272.274 160.273C272.63 160.925 272.838 161.649 272.882 162.392C272.926 163.134 272.806 163.877 272.528 164.568C272.251 165.258 271.825 165.879 271.279 166.385C270.734 166.891 270.084 167.27 269.375 167.495C262.297 170.687 254.72 172.197 247.251 174.086C246.344 174.387 245.354 174.316 244.499 173.889C243.643 173.462 242.992 172.714 242.687 171.808C240.294 165.623 237.218 159.668 236.182 153.012L236.189 153.009ZM274.234 207.202C278.439 204.549 282.434 204.87 286.299 204.591C291.483 204.224 295.291 202.276 296.975 196.824C298.201 193.616 299.647 190.496 301.304 187.488C301.549 186.733 301.961 186.042 302.509 185.468C303.056 184.893 303.726 184.449 304.468 184.168C307.946 183.16 311.441 182.216 315.048 181.213C315.41 182.032 315.634 182.905 315.714 183.796C314.174 195.022 308.563 204.69 303.767 214.66C303.438 215.403 302.886 216.024 302.187 216.438C301.487 216.851 300.677 217.036 299.867 216.967C290.69 215.869 281.936 213.636 274.227 207.2L274.234 207.202Z" fill="#DAE1B5"/>
<path d="M55.9604 165.786C61.9654 166.041 67.629 168.304 74.0253 166.912C80.4899 165.503 86.4614 163.38 91.1525 159.12C96.6696 154.109 102.656 154.163 108.971 155.623C121.189 158.29 132.747 163.381 142.961 170.595C144.591 171.761 146.553 175.068 148.871 172.805C150.979 170.749 148.233 168.431 147.206 166.467C143.112 158.667 139.472 150.75 138.996 141.765C138.718 139.131 138.614 136.482 138.686 133.835C139.158 127.989 140.323 127.305 146.118 125.786C150.228 124.711 154.596 125.287 158.533 123.277C167.837 118.536 172.994 111.149 173.494 100.629C173.594 98.5092 173.66 96.3876 173.747 94.266C172.015 85.1753 170.34 76.0713 168.525 66.9955C167.62 62.476 166.458 62.0679 161.802 63.928C158.681 65.1736 156.033 67.9246 152.043 67.052C150.618 63.8464 152.751 60.9072 152.903 57.8231C153.832 38.8823 149.147 20.9306 143.619 3.12719C142.441 -0.664642 140.5 -1.02097 138.138 2.12806C132.501 9.6218 125.391 15.6833 118.756 22.1662C98.2034 42.2528 97.8053 65.5683 109.584 87.6832L111.454 91.2001C117.436 98.3508 118.848 107.233 120.75 115.919C120.999 116.532 121.042 117.209 120.873 117.848C120.704 118.487 120.331 119.054 119.812 119.463C119.221 119.766 118.545 119.865 117.892 119.745C117.238 119.624 116.643 119.291 116.198 118.797C111.409 114.755 106.15 111.202 103.251 105.289C101.764 102.258 100.327 99.052 96.996 97.4317C97.1309 101.335 99.9686 104.141 101.121 107.625C102.953 113.145 101.755 115.258 96.1701 116.839C93.1409 117.751 90.0063 118.266 86.8446 118.371C76.0503 118.586 66.9244 113.983 57.9269 108.846C54.986 107.165 52.6681 104.359 49.0495 103.9C48.7825 104.236 48.495 104.556 48.1886 104.857C50.3418 108.246 54.5066 109.039 57.141 111.803C71.529 119.342 86.0485 125.292 102.685 118.537C105.97 117.205 109.639 118.258 113.166 120.536C129.006 130.747 132.941 148.264 141.858 164.732C130.799 159.12 121.151 154.599 110.688 152.562C104.345 151.327 99.1475 148.889 95.5922 143.378C88.8911 132.994 78.8612 128.301 67.0227 126.802C63.6056 126.371 60.1551 126.214 56.7196 125.931C43.3708 126.199 30.6949 130.356 17.7007 132.672C15.8506 133.005 13.5174 133.148 12.9728 135.024C12.2984 137.342 14.4951 138.872 16.0788 140.159C28.4201 150.169 40.7981 160.151 55.9604 165.786ZM139.89 7.4902C140.43 8.02419 140.897 8.62792 141.277 9.28537C146.931 22.9173 148.048 37.4502 149.604 51.8865C150.221 57.6184 148.346 62.809 146.142 68.0097C141.351 79.3086 132.778 86.8056 122.46 92.8089C118.844 94.9138 116.853 93.9913 114.668 90.7257C109.808 83.722 106.625 75.6943 105.364 67.2636C103.779 55.4785 105.417 44.1946 112.924 34.1246C119.172 25.745 127.159 19.1455 134.24 11.6251C135.785 9.9865 136.993 7.65173 139.894 7.4902L139.89 7.4902ZM54.2768 129.483C56.9962 129.483 58.5865 129.472 60.1768 129.483C66.1527 129.411 72.0688 130.679 77.4902 133.194C82.9117 135.708 87.7008 139.406 91.5056 144.014C96.0452 149.285 95.9519 151.861 90.5065 155.588C86.8145 158.155 82.9154 160.411 78.8496 162.333C73.5228 164.806 67.5014 165.351 61.8171 163.873C45.8671 159.988 33.719 149.551 20.9296 140.269C18.0404 138.171 18.7648 135.773 22.7399 134.859C33.5042 132.399 44.0703 128.511 54.2801 129.483L54.2768 129.483ZM170.396 92.7422C170.396 95.017 170.396 96.3444 170.396 97.6716C170.293 112.714 158.933 122.984 144.018 121.505C142.032 121.381 140.136 120.633 138.6 119.367C137.065 118.101 135.969 116.382 135.469 114.456C134.556 111.419 134.001 108.286 133.817 105.12C133.784 99.1435 132.328 92.9221 136.58 87.485C142.802 79.2043 151.125 72.7374 160.686 68.7539C163.92 67.4367 166.161 67.7881 166.551 71.137C167.435 78.7356 171.878 85.7164 170.4 92.7422L170.396 92.7422ZM134.888 138.839C127.75 127.781 124.708 116.975 122.323 105.91C120.758 98.6473 122.505 96.0111 130.445 94.2526C130.18 101.185 129.91 108.396 132.555 114.596C135.76 122.101 135.326 129.478 134.891 138.839L134.888 138.839Z" fill="#90A58F"/>
<path d="M259.783 105.555C260.03 103.556 261.574 101.695 260.449 99.5382C259.94 98.6212 259.433 97.7047 258.929 96.7888C255.563 90.6523 254.659 90.2109 247.732 91.6647C240.571 93.1635 233.41 94.7404 226.25 96.2825C218.766 98.9302 211.171 101.253 204.24 105.29C196.913 109.553 196.826 109.62 201.502 116.484C202.783 117.798 203.517 119.549 203.555 121.383C194.833 120.098 190.106 126.316 185.024 131.76C181.402 135.64 177.935 139.691 174.699 143.896C170.506 149.343 170.403 153.591 174.488 159.143C179.952 166.572 185.798 173.698 193.732 178.948C198.674 168.997 198.146 165.523 190.518 158.554C190.025 158.229 189.606 157.803 189.289 157.304C188.972 156.806 188.765 156.246 188.68 155.662C188.595 155.077 188.634 154.481 188.796 153.913C188.958 153.345 189.238 152.818 189.619 152.366C192.559 147.611 196.098 143.253 200.148 139.4C204.549 135.202 207.047 130.695 204.691 124.177C207.609 123.37 209.127 126.754 211.494 125.625C213.524 124.357 215.31 122.735 216.766 120.835C220.301 117.228 223.668 113.457 227.22 109.868C231.021 106.026 231.125 106.083 234.732 109.693C239.845 114.81 239.837 114.792 246.166 111.401C248.471 110.167 250.561 108.313 253.467 108.654L253.37 108.747C253.925 107.1 255.24 106.962 256.684 107.082L256.559 107.157C256.797 106.51 257.272 105.978 257.888 105.669C258.504 105.359 259.214 105.296 259.875 105.491L259.783 105.555Z" fill="#E26267"/>
<path d="M54.0687 373.541C59.8849 374.195 65.7716 373.777 71.4374 372.309C81.4673 369.388 87.9769 363.195 90.588 352.962C92.8811 343.952 93.6339 343.613 102.578 346.266C108.66 348.206 114.449 350.963 119.789 354.462C121.311 355.411 122.839 357.311 124.666 355.679C126.493 354.048 124.953 352.312 123.94 350.782C118.964 343.251 114.543 335.221 107.454 329.405C99.9903 323.276 96.6563 315.375 95.2025 306.061C92.9027 291.342 85.4474 279.828 72.2834 272.382C66.9629 269.373 60.9845 267.968 55.3625 265.691C39.7089 264.814 24.0553 263.796 8.5033 261.754C7.21771 261.588 5.75054 260.852 4.86295 262.174C3.74055 263.84 4.98634 265.203 6.07044 266.352C16.4734 277.381 25.589 289.575 36.6581 300.008C42.4 305.101 48.7283 309.492 55.5091 313.088C64.135 317.177 73.408 319.729 82.9111 320.63C95.4373 321.761 102.989 329.05 110.055 337.823C112.022 340.264 114.85 342.432 114.869 346.782C109.413 344.095 103.569 342.279 97.5506 341.398C91.9493 340.819 86.6974 338.402 82.6147 334.524C74.9245 326.724 65.4857 324.507 55.1643 324.199C46.1296 324.773 37.3485 327.42 29.5024 331.936C20.385 336.85 11.1112 341.428 2.73318 347.59C1.5192 348.482 -0.469232 348.892 0.100292 350.978C0.353671 351.6 0.762419 352.146 1.28725 352.564C1.81208 352.983 2.4355 353.259 3.09787 353.368C20.6449 358.695 36.2386 368.948 54.0687 373.541ZM11.1612 266.098C17.8006 264.009 22.8314 267.002 28.137 266.9C35.8239 266.75 43.5074 266.677 51.1044 268.454C61.0078 270.772 70.548 273.616 78.2483 280.855C87.9618 289.986 90.663 302.159 93.2841 314.402C93.7837 316.744 92.4681 317.713 90.2166 317.996C85.6105 318.575 81.2009 317.435 76.8578 316.361C66.0335 313.684 55.4773 310.532 46.27 303.583C32.5331 293.222 22.7665 279.388 11.1612 266.098ZM60.8745 370.767C55.4524 370.863 50.4648 369.185 45.4191 367.45C33.5806 363.376 22.7315 357.083 11.1362 352.472C7.14953 350.887 7.06779 349.118 10.5782 346.287C11.8232 345.29 13.1617 344.416 14.5749 343.676C22.1003 339.718 29.549 335.59 37.2226 331.953C52.5231 324.705 70.4267 325.02 82.8812 339.711C88.0436 345.803 88.8762 351.446 84.9994 358.315C79.6089 367.869 70.9577 370.584 60.8745 370.767Z" fill="#90A58F"/>
<path d="M58.5352 570.52C58.6857 579.486 59.8628 588.404 62.0438 597.101C63.8006 604.54 67.2695 611.181 75.1446 613.744C79.3594 615.115 78.9864 618.907 80.6267 621.659C80.7149 618.745 80.7732 615.831 80.8948 612.915C81.2204 604.665 83.4969 596.61 87.5376 589.41C89.1613 586.494 90.7414 583.123 94.8297 582.707C95.3776 582.207 95.9222 581.688 96.4651 581.176C97.2494 578.397 99.4625 576.902 101.647 575.361C105.578 572.622 108.974 569.187 111.667 565.225C116.382 558.154 121.694 551.5 127.544 545.335C128.723 544.104 130.676 543.003 129.442 540.709C120.8 539.791 118.425 540.554 112.184 546.217C96.908 560.074 80.297 570.977 58.5352 570.52Z" fill="#DAE1B5"/>
<path d="M94.8266 582.704C90.7417 583.124 89.1647 586.494 87.5378 589.41C83.4971 596.61 81.2206 604.666 80.895 612.916C80.7734 615.828 80.7151 618.744 80.6268 621.66C81.6093 634.06 84.5452 646.058 87.6376 658.13C95.4527 654.767 108.194 639.364 120.865 618.329C121.641 613.625 123.964 609.362 124.232 604.448C124.732 595.165 123.424 586.409 118.467 578.419C114.61 572.201 115.273 566.579 119.712 560.767C125.553 553.184 132.251 546.301 139.673 540.256C140.882 539.257 142.786 538.611 142.41 536.787C141.989 534.754 139.927 535.112 138.43 535.194C133.136 535.484 127.739 534.668 122.565 536.23C120.013 537.056 117.293 537.219 114.661 536.703C112.029 536.186 109.573 535.007 107.523 533.277C91.8208 520.768 75.3629 521.401 58.2922 529.912C57.797 530.095 57.2832 530.223 56.7601 530.295C46.8883 540.166 37.0233 550.044 27.1648 559.927C25.363 561.742 22.8602 563.032 22.0625 566.966C34.4904 566.799 46.1672 571.37 58.5319 570.516C80.2887 570.972 96.9049 560.075 112.18 546.213C118.422 540.551 120.797 539.787 129.439 540.704C130.673 542.999 128.72 544.1 127.541 545.33C121.691 551.495 116.379 558.149 111.664 565.22C108.971 569.182 105.575 572.618 101.644 575.357C99.466 576.897 97.2463 578.393 96.462 581.172L96.9749 581.682C101.245 581.127 103.529 577.377 106.908 575.364C109.586 573.768 111.309 574.07 113.07 576.183C114.292 577.573 115.39 579.068 116.352 580.649C124.24 594.411 122.95 608.066 115.2 621.282C111.711 627.232 107.714 632.869 103.253 638.13C99.8275 642.161 97.1646 646.862 92.9798 650.258C91.1363 651.756 89.6175 651.858 88.6284 649.468C88.0873 647.983 87.626 646.47 87.2463 644.935C85.0814 637.533 84.4419 629.895 83.511 622.278C82.0722 610.499 84.2472 599.668 91.0932 589.958C92.689 587.845 94.1229 585.613 95.3828 583.284L94.8266 582.704ZM29.8026 563.102C30.2543 562.049 30.8123 561.045 31.4679 560.105C38.9616 552.546 46.3903 544.921 54.0389 537.522C66.1955 525.758 88.6567 523.688 103.225 534.636C111.125 540.571 111.138 542.246 103.688 548.599C103.081 549.117 102.595 549.79 101.949 550.241C93.108 556.429 84.9632 563.948 73.5311 565.21C70.8802 565.26 68.2363 565.499 65.6194 565.925C53.5878 569.067 42.109 566.483 29.8026 563.102Z" fill="#90A58F"/>
<path d="M56.7266 125.918C60.162 126.202 63.6125 126.358 67.0296 126.789C78.8681 128.288 88.898 132.981 95.5991 143.365C99.1545 148.876 104.352 151.314 110.695 152.549C121.158 154.586 130.806 159.107 141.865 164.719C132.948 148.251 129.013 130.734 113.173 120.523C109.646 118.25 105.977 117.192 102.692 118.525C86.0555 125.281 71.5359 119.329 57.148 111.79L56.7266 125.918Z" fill="#DAE1B5"/>
<path d="M55.3199 492.248C58.4223 495.304 59.4313 499.575 61.6212 503.162C66.1291 510.551 75.0133 511.955 81.1631 506.16C83.6061 503.86 81.9076 501.707 80.7102 499.762C75.5762 491.425 70.4155 483.109 65.0566 474.901C62.4321 470.619 60.1775 466.122 58.3172 461.457C56.9151 458.223 56.8187 455.946 60.4606 454.463C63.0518 453.405 63.125 451.578 61.9293 449.319C60.5605 446.749 59.2166 444.156 58.0676 441.482C56.6555 438.201 54.1657 437.449 50.9617 438.005C48.1857 440.018 45.2832 441.885 42.6571 444.08C37.0418 448.768 36.1041 451.863 39.1233 458.696C42.4338 466.19 46.384 473.384 49.9844 480.744C51.8528 484.541 53.5547 488.411 55.3199 492.248Z" fill="#F8B06C"/>
<path d="M55.1719 324.191C65.4966 324.504 74.932 326.721 82.6223 334.516C86.7049 338.394 91.9569 340.811 97.5581 341.39C103.576 342.271 109.42 344.088 114.877 346.774C114.857 342.424 112.029 340.256 110.063 337.815C102.992 329.042 95.4399 321.753 82.9187 320.623C73.4155 319.721 64.1425 317.169 55.5166 313.081L55.1719 324.191Z" fill="#DAE1B5"/>
<path d="M97 97.4214C100.331 99.0434 101.768 102.251 103.255 105.28C106.154 111.193 111.415 114.747 116.202 118.789C116.647 119.282 117.242 119.615 117.896 119.736C118.549 119.856 119.224 119.758 119.816 119.455C120.335 119.046 120.708 118.479 120.877 117.84C121.046 117.2 121.003 116.523 120.754 115.911C118.852 107.225 117.44 98.3423 111.458 91.1916C109.221 93.7562 106.226 92.5855 103.528 92.7504C100.725 92.9169 97.9092 92.8703 95.1016 92.9169C95.2248 93.9061 95.3463 94.8957 95.4662 95.886L95.3764 95.8661C95.7912 95.9246 96.1753 96.1174 96.4703 96.4147C96.7652 96.7121 96.9548 97.0978 97.01 97.5131L97 97.4214Z" fill="#DAE1B5"/>
<path d="M95.4615 95.8914L95.0949 92.9222C83.2532 82.5975 69.3265 80.5308 54.3223 82.5009C47.2628 83.5818 40.0729 83.4845 33.0452 82.2128C29.5645 81.3651 25.9416 81.2821 22.4258 81.9697C27.738 88.3677 32.5239 93.3034 38.6738 96.8588C38.9016 96.5123 39.1694 96.1938 39.4715 95.9097C38.4507 93.6549 36.3741 92.3076 34.8454 90.4908C33.723 89.1586 31.3266 88.1228 32.3957 86.0079C33.4648 83.893 35.6946 84.8422 37.3748 85.4068C41.7199 86.7209 46.3277 86.9088 50.7653 85.953C67.0967 83.0587 82.3524 84.5125 95.4615 95.8914Z" fill="#90A58F"/>
<path d="M40.1914 98.3036C42.127 101.255 44.9251 103.538 48.2047 104.842C48.508 104.541 48.7934 104.222 49.0591 103.887C47.0608 100.925 44.9842 98.074 41.0875 97.4828C40.812 97.7807 40.5122 98.0552 40.1914 98.3036Z" fill="#90A58F"/>
<path d="M38.6797 96.8592C39.1876 97.3404 39.6955 97.8201 40.1984 98.3031C40.5163 98.0549 40.8138 97.7815 41.0877 97.4855C40.5493 96.9603 40.0125 96.4352 39.4774 95.91C39.1753 96.1941 38.9075 96.5126 38.6797 96.8592Z" fill="#90A58F"/>
<path d="M230.994 591.59C230.974 596.762 227.45 598.373 225.274 600.796C223.332 602.96 223.062 604.626 225.092 606.957C229.452 611.968 234.716 613.88 240.706 610.995C252.951 605.1 265.174 598.992 270.304 584.851C271.192 582.403 273.109 580.354 274.281 577.98C275.425 575.67 277.12 573.034 274.141 570.894C272.143 569.462 266.907 570.607 265.397 572.674C264.545 574.016 263.82 575.434 263.232 576.911C261.254 581.09 258.311 583.432 254.073 582.423C248.846 581.177 244.748 582.827 240.596 585.382C238.365 586.754 236.766 587.267 236.874 583.403C236.936 581.285 234.832 581.96 234.058 582.904C230.424 587.342 225.492 586.771 220.803 586.278C213.975 585.562 207.204 584.396 200.436 583.245C195.185 582.354 193.539 580.724 193.001 575.658C192.733 572.212 192.655 568.754 192.769 565.3C192.937 562.633 192.351 559.973 191.077 557.623C188.579 553.487 184.997 553.385 182.533 557.545C180.236 561.42 178.496 565.588 176.02 569.403C174.113 572.339 174.841 575.495 177.301 578.158C186.381 588.227 196.794 597.008 208.253 604.256C211.95 606.543 214.641 605.505 217.382 602.702C221.25 598.746 224.942 594.521 230.994 591.59Z" fill="#FAECE5"/>
<path d="M138.416 444.939C138.416 441.75 138.49 438.559 138.393 435.372C138.218 429.565 136.826 427.612 131.134 426.934C124.095 426.101 117.071 423.89 109.868 426.199C106.946 427.137 104.138 425.48 101.247 425.2C93.8019 424.499 92.5014 425.382 90.9744 432.736C90.774 433.78 90.6471 434.838 90.5946 435.9C89.7598 448.847 88.9388 461.796 88.1317 474.747C87.8836 478.792 90.1501 481.337 94.5297 480.72C107.123 478.947 119.684 476.877 131.259 471.082C132.796 470.323 134.129 469.207 135.146 467.828C136.163 466.448 136.834 464.845 137.104 463.152C138.549 457.104 138.34 451.032 138.416 444.939ZM106.05 464.847C102.212 465.044 100.222 463.71 101.054 460.821C102.803 454.744 103.75 448.403 106.576 442.669C107.272 441.257 108.348 439.448 110.142 440.626C116.551 444.832 122.768 449.342 126.743 456.153C126.994 456.473 127.157 456.853 127.216 457.255C127.275 457.658 127.227 458.069 127.078 458.447C126.929 458.826 126.683 459.159 126.366 459.413C126.048 459.667 125.669 459.834 125.267 459.896C118.906 461.606 112.508 463.192 106.055 464.847L106.05 464.847Z" fill="#F8B06C"/>
<path d="M127.135 375.461C125.953 375.218 124.724 375.451 123.713 376.109C122.702 376.768 121.992 377.798 121.736 378.976C121.331 380.507 121.018 382.06 120.8 383.628C118.322 396.996 118.335 396.866 131.394 398.125C137.694 398.731 143.919 400.087 150.212 400.813C154.598 401.313 156.006 403.741 155.966 407.794C155.906 413.895 155.942 420 156.12 426.1C156.309 432.522 160.808 436.365 166.985 435.637C167.769 435.504 168.504 435.169 169.117 434.663C169.731 434.158 170.201 433.5 170.482 432.756C173.874 426.156 176.799 419.325 179.234 412.315C179.834 410.825 179.952 409.185 179.573 407.624C179.193 406.063 178.336 404.66 177.12 403.611C174.675 401.185 172.457 398.309 169.578 396.578C158.457 389.907 147.634 382.648 135.606 377.626C132.983 376.27 130.086 375.53 127.135 375.461Z" fill="#F8B06C"/>
<path d="M124.258 480.111C118.796 478.809 114.621 481.171 110.248 481.715C103.946 482.503 97.7683 484.288 91.3554 484.205C85.0756 484.123 83.82 482.936 84.2497 476.574C84.626 471.029 85.9999 465.584 85.7485 459.945C85.4021 452.285 82.7509 450.441 75.7184 453.304C72.0315 454.803 69.2822 458.027 65.2106 458.882C63.6553 459.216 63.4869 460.714 63.7684 462.122C63.8868 462.641 64.0781 463.141 64.3363 463.607C72.9841 480.093 81.3871 496.746 95.0108 509.913C101.006 515.698 101.975 515.499 107.722 509.27C115.44 500.896 119.056 490.346 124.258 480.111Z" fill="#F8B06C"/>
<path d="M163.898 452.284C163.898 449.527 164.088 446.326 163.851 443.159C163.526 438.809 162.039 437.57 157.644 438.662C156.422 439.064 155.116 439.141 153.856 438.884C152.595 438.628 151.423 438.047 150.455 437.199C145.638 433.55 144.039 434.594 143.145 440.812C142.018 447.612 141.545 454.504 141.735 461.393C142.033 467.565 140.156 472.098 133.891 474.571C127.064 477.263 126.259 484.277 124.161 490.136C123.398 492.267 125.223 493.395 127.395 493.595C135.403 494.327 143.242 492.632 151.11 491.725C154.417 491.343 156.359 488.286 157.475 485.165C161.676 473.403 164.752 465.482 163.898 452.284Z" fill="#F8B06C"/>
<path d="M176.809 301.361C176.513 307.939 178.668 315.173 178.604 322.651C178.559 327.867 181.414 330.187 186.673 330.664C193.514 331.286 200.463 329.998 207.254 331.973C208.185 332.182 209.16 332.038 209.991 331.569C210.821 331.099 211.448 330.339 211.75 329.434C215.454 321.804 220.19 314.613 222.439 306.353C224.426 299.059 222.724 296.661 215.445 295.494C204.768 293.779 194.498 289.95 183.619 289.013C177.164 288.458 176.981 288.436 176.818 294.909C176.769 296.768 176.809 298.623 176.809 301.361ZM191.189 311.444L191.159 311.444C191.159 309.855 191.116 308.265 191.171 306.678C191.226 305.138 190.913 303.347 192.758 302.57C194.516 301.829 195.707 303.053 196.953 304.048C199.439 306.047 200.931 308.901 203.447 310.953C207.855 314.541 207.723 316.157 202.854 319.166C200.32 320.733 197.888 324.12 194.408 322.237C190.927 320.353 191.231 316.48 191.186 313.034C191.182 312.503 191.189 311.974 191.189 311.446L191.189 311.444Z" fill="#FAECE5"/>
<path d="M118.245 246.055C122.075 245.812 127.133 246.721 132.067 244.826C137.612 242.703 138.272 241.934 137.036 236.187C134.923 226.362 132.706 216.537 130.542 206.711C130.375 205.934 130.335 205.119 130.099 204.365C127.656 196.512 125.975 195.647 119.078 200.08C111.904 204.688 103.769 207.511 96.8696 212.57C91.8355 216.262 91.3577 217.233 93.3593 223.198C95.1312 228.478 97.2393 233.645 99.0561 238.911C100.86 244.138 104.204 246.718 109.895 246.09C112.262 245.835 114.68 246.055 118.245 246.055ZM122.06 219.221C120.265 223.551 117.731 227.895 116.743 232.905C116.618 233.293 116.41 233.65 116.133 233.949C115.856 234.248 115.517 234.484 115.139 234.638C114.761 234.793 114.354 234.862 113.947 234.843C113.539 234.823 113.141 234.715 112.78 234.525C109.636 233.12 106.797 231.114 104.425 228.618C104.09 228.285 103.831 227.884 103.666 227.442C103.501 227 103.433 226.527 103.468 226.056C103.503 225.585 103.639 225.127 103.868 224.714C104.096 224.301 104.411 223.942 104.791 223.662C108.788 220.175 113.466 217.558 118.528 215.977C120.51 215.432 122.209 216.303 122.06 219.221Z" fill="#FAECE5"/>
<path d="M115.575 401.226C110.466 401.226 105.119 400.849 99.8468 401.326C94.045 401.852 93.0959 403.748 95.1608 409.152C96.1017 411.619 97.4221 413.938 98.5495 416.335C100.603 420.706 103.96 422.315 108.814 422.123C117.307 421.79 125.702 423.327 134.11 424.381C138.351 424.913 142.565 425.422 145.006 429.762C145.45 430.44 146.125 430.936 146.905 431.157C147.685 431.379 148.519 431.311 149.254 430.967C151.122 430.393 151.409 428.749 151.397 427.117C151.355 421.267 151.464 415.404 151.079 409.574C150.788 405.177 148.403 403.246 142.753 402.829C133.767 402.178 124.862 400.228 115.575 401.226Z" fill="#F8B06C"/>
<path d="M165.588 308.451C166.676 306.958 167.843 305.525 169.085 304.158C172.99 300.254 174.722 295.881 172.704 290.414C172.283 289.156 172.07 287.837 172.074 286.509C172.013 283.733 173.365 282.591 176.116 283.458C178.601 284.399 181.136 285.2 183.71 285.858C191.388 287.357 193.535 285.319 192.602 277.698C192.44 276.65 192.179 275.619 191.823 274.619C191.537 274.015 191.386 273.357 191.379 272.689C191.373 272.021 191.512 271.36 191.786 270.751C193.153 268.481 195.09 266.508 192.239 263.832C188.937 260.731 185.786 257.159 181.22 256.425C178.659 256.013 176.276 258.329 174.666 260.474C169.045 267.968 161.928 274.036 155.715 280.957C152.218 284.842 147.535 289.059 150.367 294.882C153.463 301.249 157.362 307.538 165.633 308.428L165.588 308.451Z" fill="#FAECE5"/>
<path d="M138.441 209.397C142.533 205.878 146.192 201.534 152.516 202.474C153.19 202.54 153.865 202.36 154.416 201.966C154.967 201.573 155.357 200.993 155.514 200.335C156.389 198.112 157.055 195.813 157.504 193.467C158.528 186.616 157.615 185.141 151.052 182.921C141.74 179.77 132.428 176.608 123.033 173.72C112.295 170.419 103.471 177.217 103.216 188.579C103.014 190.035 103.329 191.515 104.105 192.763C104.882 194.01 106.072 194.946 107.467 195.407C109.767 196.479 112.302 196.947 114.832 196.769C117.363 196.591 119.807 195.771 121.934 194.388C123.481 193.372 124.739 191.89 126.335 190.986C128.323 189.853 129.932 190.365 130.408 192.874C131.053 196.258 131.461 199.702 132.378 203.012C133.231 206.085 134.358 209.264 138.481 209.357L138.441 209.397Z" fill="#FAECE5"/>
<path d="M68.1368 397.852C68.1368 399.712 68.1102 401.571 68.1368 403.427C68.2468 410.808 69.0462 411.569 76.5799 410.64C79.194 410.234 81.7695 409.61 84.28 408.776C86.9744 407.972 89.2759 406.929 87.8471 403.196C86.7847 400.423 88.5549 399.532 91.1078 399.241C95.8371 398.711 100.495 397.575 105.306 397.742C107.161 397.861 109.023 397.8 110.866 397.559C112.203 397.41 113.446 396.801 114.383 395.836C115.32 394.871 115.892 393.61 116.002 392.27C116.243 391.082 116.032 389.846 115.411 388.805C114.79 387.763 113.803 386.991 112.643 386.638C110.718 385.762 108.726 385.038 106.688 384.473C98.4432 382.57 90.1734 380.779 81.8937 379.034C80.3516 378.701 78.718 378.841 77.1393 378.658C72.6831 378.142 70.4049 380.17 69.0827 384.423C67.6855 388.916 68.6731 393.399 68.1368 397.852Z" fill="#F8B06C"/>
<path d="M93.7613 417.218C93.9278 414.07 90.8536 410.818 87.683 411.584C78.6905 413.749 69.3332 414.513 60.8003 418.412C55.1384 421.003 54.8902 421.682 56.6038 427.486C58.6504 434.423 62.4058 440.566 65.6614 446.934C66.2926 448.432 67.4927 449.618 68.9978 450.231C70.503 450.844 72.19 450.834 73.6879 450.203C74.1875 450.037 74.6755 449.795 75.1867 449.669C85.9977 447.004 86.8669 445.915 87.3232 434.525C87.4497 431.361 87.1085 428.132 88.1942 425.051C88.877 423.114 88.9086 420.751 91.5248 420.067C92.181 419.946 92.7704 419.59 93.1823 419.066C93.5942 418.541 93.8002 417.884 93.7613 417.218Z" fill="#F8B06C"/>
<path d="M74.7897 247.275C74.9429 248.984 76.2418 250.056 77.0744 251.386C82.9029 260.702 90.7547 268.244 98.6514 275.699C102.49 279.326 105.764 279.067 109.795 275.476C111.181 274.244 112.46 272.892 113.774 271.576C118.85 266.491 119.196 263.435 114.185 258.088C110.688 254.351 107.845 249.716 101.744 248.897C97.8755 248.377 97.4507 243.856 96.0586 240.83C92.9645 234.108 91.8954 233.67 85.6156 237.623C82.7031 239.455 79.8688 241.422 77.0128 243.345C76.3005 243.713 75.7108 244.281 75.316 244.979C74.9212 245.677 74.7384 246.475 74.7897 247.275Z" fill="#FAECE5"/>
<path d="M138.476 209.363C135.545 215.962 137.419 222.329 139.367 228.712C140.711 232.181 141.51 235.837 141.735 239.551C141.69 246.439 140.04 248.783 133.076 249.166C127.029 249.499 121.219 250.808 114.621 251.556C116.406 256.287 120.127 258.737 122.371 262.2C123.639 264.155 126.116 264.084 128.178 262.983C136.838 258.358 145.41 253.551 154.141 249.056C158.703 246.707 159.915 243.088 159.081 238.478C158.577 234.532 157.569 230.667 156.083 226.976C154.246 223.147 153.084 219.028 152.648 214.803C152.005 207.949 149.983 206.862 143.086 208.598C141.564 208.981 139.983 209.14 138.431 209.401L138.476 209.363Z" fill="#FAECE5"/>
<path d="M190.552 549.437C189.277 541.909 189.641 535.048 189.417 528.205C189.285 524.209 190.749 522.578 194.955 522.467C202.242 522.273 202.251 522.004 202.334 514.781C202.374 511.323 202.469 507.857 202.317 504.405C202.129 500.115 203.23 497.05 208.204 496.766C209.251 496.585 210.271 496.275 211.242 495.842C213.75 495.023 217.853 495.687 216.049 490.791C214.412 486.352 211.363 484.645 207.39 486.5C201.252 489.189 195.961 493.497 192.083 498.961C185.103 509.298 178.651 519.992 172.051 530.583C170.776 532.63 169.415 535.236 171.718 537.134C177.312 541.769 182.674 546.9 190.552 549.437Z" fill="#FAECE5"/>
<path d="M182.854 175.987C180.268 182.006 178.31 188.275 177.008 194.695C176.55 196.624 176.544 198.634 176.991 200.566C177.438 202.498 178.326 204.301 179.585 205.834C185.67 213.894 191.661 221.95 200.188 227.674C202.229 229.393 204.829 230.306 207.496 230.242C213.278 229.682 216.899 226.866 217.037 222.66C217.264 219.796 216.371 216.957 214.545 214.739C212.72 212.521 210.105 211.099 207.252 210.771C205.667 210.693 204.087 210.533 202.519 210.292C197.004 209.213 196.154 208.163 195.908 202.298C195.831 200.446 195.8 198.583 195.894 196.735C196.384 187.178 192.069 180.577 182.854 175.987Z" fill="#E26267"/>
<path d="M192.537 461.562C192.131 459.298 191.61 457.055 190.977 454.843C188.576 447.55 185.506 440.493 181.808 433.764C179.452 429.408 177.49 429.281 175.12 433.359C170.427 441.436 166.572 449.857 167.265 459.557C167.751 466.372 165.1 472.53 163.473 478.903C163.085 480.412 162.141 482.014 163.578 483.332C165.015 484.651 166.531 483.559 168.009 483.099C177.168 480.252 183.571 473.319 190.824 467.657C192.316 466.485 192.72 464.525 192.537 461.562Z" fill="#F8B06C"/>
<path d="M170.528 489.704C168.689 488.974 166.659 488.877 164.759 489.429C162.859 489.981 161.197 491.151 160.036 492.753C157.372 496.117 154.101 496.823 150.211 496.818C143.299 496.807 136.389 497.133 129.475 496.985C123.499 496.852 119.375 499.847 116.012 504.215C113.539 507.426 114.013 509.809 117.73 511.015C127.555 514.205 137.094 518.342 147.4 520.044C149.8 520.439 151.747 520.285 153.082 518.405C159.499 509.379 166.331 500.59 170.528 489.704Z" fill="#F8B06C"/>
<path d="M165.625 308.414C165.804 311.888 162.884 313.36 161.001 315.465C156.765 320.198 156.338 322.193 159.68 327.349C164.257 334.174 168.46 341.243 172.268 348.524C175.307 354.569 183.777 357.06 189.865 354.251C190.566 353.928 191.477 353.472 191.727 352.849C193.59 348.231 193.059 343.508 191.893 338.861C190.864 334.777 187.787 334.09 183.972 333.811C177.512 333.34 175.479 331.222 175.291 324.837C175.124 318.999 173.689 313.444 172.959 307.627C170.237 307.935 167.919 308.196 165.6 308.459L165.625 308.414Z" fill="#FAECE5"/>
<path d="M76.3487 237.673C78.8466 237.713 89.3213 231.057 90.1273 228.847C90.9199 226.682 90.029 224.755 89.2597 222.737C86.3821 215.185 86.7617 214.267 93.7908 210.137C96.9865 208.261 100.247 206.487 103.365 204.487C107.528 201.823 107.694 198.935 103.509 196.852C99.6396 195.14 95.6649 193.676 91.6094 192.469C90.9683 192.282 90.2865 192.284 89.6467 192.476C89.0069 192.668 88.4364 193.041 88.004 193.55C86.5411 194.694 85.2477 196.04 84.1622 197.546C79.4445 205.856 73.671 213.446 68.3321 221.326C65.3663 225.713 71.4078 237.593 76.3487 237.673Z" fill="#FAECE5"/>
<path d="M139.896 7.49097C136.995 7.65749 135.788 9.98889 134.243 11.6275C127.168 19.1479 119.182 25.7474 112.927 34.127C105.42 44.1953 103.781 55.4792 105.367 67.266C106.628 75.6967 109.811 83.7244 114.671 90.7281C116.855 93.9937 118.847 94.9162 122.462 92.8113C132.787 86.808 141.353 79.311 146.144 68.0121C148.349 62.8114 150.224 57.6208 149.606 51.8889C148.048 37.4526 146.93 22.913 141.28 9.28776C140.901 8.62992 140.435 8.02568 139.896 7.49097ZM118.176 64.0371C121.125 57.5326 121.633 52.6831 119.98 47.644C119.094 44.2959 118.935 40.7971 119.513 37.3826C119.53 37.189 119.589 37.0015 119.686 36.8329C119.782 36.6643 119.914 36.5185 120.072 36.4058C120.231 36.2931 120.412 36.216 120.603 36.18C120.794 36.1439 120.99 36.1498 121.179 36.197C121.572 36.2703 121.915 36.863 122.188 37.2777C122.827 38.2502 121.931 40.0472 123.756 40.3769C126.727 39.3994 125.791 34.7148 129.738 34.475C131.656 38.8864 126.266 42.5217 127.981 47.048C131.89 45.5109 134.579 42.9213 137.54 40.7298C137.939 40.3656 138.459 40.1639 139 40.1639C139.54 40.1639 140.06 40.3656 140.459 40.7298C141.791 42.0986 140.709 43.3393 139.626 43.9554C135.365 46.3718 132.632 50.4635 128.937 53.4476C122.714 58.4751 123.536 64.6699 124.774 71.4526C130.695 70.7249 131.976 63.4458 138.95 63.0711C134.664 69.3992 129.741 73.4293 125.277 77.8189C121.871 81.1662 119.502 80.5166 117.45 76.002C115.02 70.6432 114.816 64.6948 113.322 59.0795C113.234 58.8271 113.198 58.5593 113.217 58.2926C113.237 58.026 113.31 57.7661 113.434 57.5289C113.557 57.2917 113.728 57.0821 113.935 56.9132C114.142 56.7443 114.382 56.6196 114.639 56.5466C116.278 56.0354 117.15 56.9846 117.47 58.4284C117.75 59.679 117.806 60.9863 118.176 64.0371Z" fill="#ACBD82"/>
<path d="M54.276 129.488C44.0662 128.516 33.5017 132.404 22.734 134.866C18.7607 135.775 18.0348 138.178 20.924 140.276C33.7133 149.563 45.8615 159.995 61.8115 163.88C67.4957 165.358 73.5171 164.813 78.8439 162.339C82.9098 160.418 86.8089 158.162 90.5009 155.595C95.948 151.868 96.0412 149.292 91.5 144.021C87.6951 139.413 82.9059 135.715 77.4844 133.201C72.0629 130.686 66.147 129.418 60.1712 129.49C58.5858 129.477 56.9954 129.488 54.276 129.488ZM65.2668 156.393C66.4825 150.048 72.9271 153.323 74.9355 149.115C65.1653 143.56 55.9513 150.423 46.5941 150.987C46.2127 146.158 52.3392 148.284 52.589 144.116C48.6323 143.66 44.5959 143.796 41.3053 140.231C45.9548 138.21 50.4344 142.967 54.3761 139.553C55.3436 136.846 49.3802 136.699 51.993 133.289C59.5484 135.731 64.4059 143.878 73.36 143.812C73.3317 140.081 67.6716 140.618 69.3635 136.266C72.2387 136.871 74.8506 138.365 76.8304 140.536C79.3117 142.917 81.475 145.655 84.5708 147.363C85.6931 147.985 86.952 148.826 86.4907 150.443C86.0428 152.01 84.4557 152.005 83.2484 152.294C77.6381 153.64 72.0011 154.871 65.2601 156.393L65.2668 156.393Z" fill="#ACBD82"/>
<path d="M170.399 92.7446C171.877 85.7188 167.435 78.738 166.552 71.1393C166.162 67.7905 163.921 67.4391 160.687 68.7563C151.125 72.7398 142.803 79.2067 136.58 87.4874C132.329 92.9245 133.784 99.1443 133.818 105.123C134.002 108.288 134.557 111.422 135.47 114.458C135.97 116.384 137.066 118.103 138.601 119.369C140.137 120.635 142.033 121.384 144.019 121.507C158.933 122.981 170.294 112.716 170.397 97.674C170.405 96.3468 170.399 95.0194 170.399 92.7446ZM157.603 105.514C153.238 109.307 147.435 110.718 143.265 114.943C139.859 108.014 139.581 106.508 140.024 98.2617C143.022 97.8537 142.372 101.819 144.395 102.505C149.05 96.48 144.191 90.0602 145.521 84.2467C148.399 83.7055 148.271 87.0678 150.421 86.8879C153.511 84.9362 153.616 79.7538 158.655 78.9112C158.77 83.4274 154.659 86.1851 155 89.9019C157.331 91.6671 159.964 87.8638 161.806 91.3808C157.464 96.1268 148.317 96.8262 148.472 106.466C151.449 105.635 154.548 105.326 157.631 105.554C157.863 104.81 158.091 104.68 158.214 105.189C158.232 105.241 157.819 105.402 157.603 105.514Z" fill="#ACBD82"/>
<path d="M39.4752 95.9135C40.0115 96.4397 40.5483 96.9649 41.0856 97.4889C44.9824 98.0801 47.0656 100.931 49.0573 103.893C52.6759 104.353 54.9939 107.159 57.9347 108.839C66.9272 113.977 76.0581 118.58 86.8524 118.365C90.0141 118.26 93.1488 117.745 96.1779 116.833C101.763 115.252 102.959 113.139 101.129 107.619C99.9765 104.135 97.1321 101.329 97.0039 97.4255L97.0138 97.5222L95.3802 95.8753L95.4701 95.8952C82.3627 84.5164 67.1072 83.0625 50.7758 85.9568C46.3382 86.9127 41.7303 86.7247 37.3853 85.4106C35.705 84.8444 33.4686 83.9118 32.4062 86.0117C31.3437 88.1116 33.7385 89.1591 34.8559 90.4946C36.3779 92.3114 38.4544 93.6587 39.4752 95.9135ZM69.8431 97.4989C70.3527 95.5788 67.5234 93.8119 69.5217 91.7952C72.2728 91.7769 72.5193 94.3449 73.8648 95.772C77.9747 100.155 82.1363 104.516 88.9456 103.943L88.9556 103.932C89.5134 100.268 84.4226 98.9677 84.8989 94.558C90.4476 96.5297 91.9432 101.309 94.1646 105.184C96.2979 108.906 94.9156 111.307 90.7058 111.752C86.1962 112.228 81.64 112.251 76.849 112.491C78.003 108.29 82.4028 109.947 84.4677 107.495C80.0598 104.528 75.5434 105.487 71.1338 105.867C69.6167 105.998 68.0814 107.55 66.6276 106.548C64.4045 105.016 67.182 104.03 67.3369 102.731C67.4868 101.459 66.3945 101.144 65.4403 100.64C63.0489 99.3723 59.6584 99.8834 57.9998 96.8093C62.3412 94.373 65.8765 98.1066 69.7433 97.5887L69.8431 97.4989Z" fill="#ACBD82"/>
<path d="M134.893 138.842C135.328 129.482 135.762 122.11 132.562 114.599C129.917 108.4 130.187 101.189 130.452 94.2563C122.512 96.0149 120.765 98.651 122.33 105.913C124.713 116.979 127.761 127.785 134.893 138.842Z" fill="#DAE1B5"/>
<path d="M11.1641 266.101C22.7694 279.391 32.5361 293.225 46.268 303.586C55.4753 310.532 66.0282 313.687 76.8558 316.363C81.1989 317.438 85.6085 318.578 90.2146 317.999C92.4661 317.716 93.7832 316.746 93.2819 314.405C90.6608 302.162 87.9531 289.989 78.2463 280.858C70.551 273.626 61.0106 270.775 51.1022 268.457C43.5052 266.68 35.8216 266.753 28.1347 266.903C22.8342 267.005 17.8035 264.012 11.1641 266.101ZM41.139 291.293C43.7368 288.823 45.695 289.483 47.4869 289.269C52.3161 288.697 54.3146 284.85 52.228 280.404C51.3387 278.515 47.945 276.229 51.1223 274.589C53.2589 273.484 54.6692 276.905 55.785 278.952C56.5493 280.347 57.3037 281.754 58.1713 283.086C61.7599 288.603 65.6833 293.764 72.2578 296.13C74.1213 292.102 68.2395 289.126 71.3469 284.412C76.3744 290.74 78.0931 298.105 81.9049 304.314C83.5219 306.948 81.5851 308.791 78.2662 307.691C73.9731 306.269 69.5519 305.526 65.2172 304.38C63.7784 304.002 61.2354 304.44 61.1105 301.473C64.1663 300.307 67.72 303.996 70.9357 300.334C67.1064 296.747 62.4354 294.182 57.3537 292.876C52.3895 291.591 47.0123 293.549 41.1372 291.299L41.139 291.293ZM37.8967 279.136C45.2639 280.23 46.0131 280.697 48.0414 285.338C44.4577 283.649 40.791 282.695 37.8951 279.128L37.8967 279.136Z" fill="#ACBD82"/>
<path d="M60.8741 370.767C70.9573 370.584 79.6086 367.87 85.0057 358.316C88.8858 351.447 88.0547 345.803 82.8873 339.712C70.4328 325.021 52.5294 324.706 37.2289 331.953C29.5486 335.59 22.0999 339.719 14.5812 343.677C13.168 344.416 11.8295 345.291 10.5845 346.288C7.07409 349.119 7.15562 350.887 11.1423 352.473C22.7376 357.084 33.5869 363.377 45.4254 367.45C50.4645 369.186 55.4519 370.864 60.8741 370.767ZM42.9958 348.892C38.5545 348.393 33.6453 351.86 28.6744 348.591C32.761 343.161 39.0424 346.628 43.3604 344.366C43.4204 340.658 38.5311 341.657 38.7309 337.762C43.3626 338.643 47.8756 340.062 52.1781 341.99C56.8009 343.94 61.4103 345.112 65.9998 341.292C62.2563 337.92 62.2563 337.92 61.5919 334.245C66.6475 337.257 71.9038 339.92 77.3238 342.213C81.7284 343.878 81.9099 346.043 78.2363 348.897C72.2183 353.255 65.9156 357.205 59.3704 360.721C59.1193 360.874 58.8392 360.974 58.5475 361.014C58.2559 361.053 57.9592 361.032 57.6763 360.951C57.3934 360.87 57.1304 360.731 56.904 360.543C56.6776 360.355 56.4929 360.121 56.3613 359.858C60.2713 354.416 68.556 353.95 72.0381 347.337C59.2154 346.065 56.561 346.804 44.9157 354.748C43.5835 355.653 42.0849 356.967 40.6877 355.623C38.9425 353.94 40.9357 352.907 42.0198 351.905C42.8075 351.175 43.6619 350.551 42.9958 348.892Z" fill="#ACBD82"/>
<path d="M96.4635 581.172C95.9206 581.683 95.376 582.196 94.8281 582.702L95.3926 583.284L96.9764 581.681L96.4635 581.172Z" fill="#90A58F"/>
<path d="M29.8047 563.102C42.1111 566.483 53.5899 569.064 65.6231 565.923C68.24 565.497 70.8839 565.258 73.5348 565.209C84.9603 563.946 93.1117 556.428 101.953 550.239C102.599 549.788 103.085 549.115 103.691 548.598C111.142 542.245 111.128 540.569 103.228 534.634C88.6604 523.687 66.201 525.757 54.0429 537.52C46.3942 544.919 38.9637 552.544 31.4716 560.103C30.8154 561.043 30.2568 562.048 29.8047 563.102ZM60.669 539.207C69.2152 539.817 76.6422 545.653 85.2184 542.123C83.8345 538.694 79.4615 539.369 78.9153 535.059C84.5071 536.098 89.972 537.731 95.2167 539.932C99.0718 541.349 99.5264 543.595 96.2441 546.145C92.644 549.223 88.6375 551.793 84.3374 553.78C84.1259 553.866 83.6196 553.239 83.2533 552.947C82.7354 550.358 86.8819 549.783 85.8028 546.689C76.2808 545.602 73.6196 556.426 66.1326 558.816C64.5089 555.335 69.4899 554.591 68.251 551.667C61.9662 551.727 56.4941 555.424 48.8771 555.647C55.3267 549.845 63.3533 550.543 68.7504 546.311C67.1551 542.474 61.6665 544.503 60.669 539.207Z" fill="#ACBD82"/>
<path d="M96.9825 581.681L95.3987 583.283C94.1388 585.613 92.7049 587.844 91.1091 589.958C84.2631 599.668 82.0883 610.499 83.5271 622.278C84.458 629.894 85.0957 637.533 87.2622 644.935C87.6419 646.47 88.1034 647.983 88.6445 649.468C89.6337 651.858 91.1523 651.753 92.9957 650.257C97.1806 646.862 99.8435 642.161 103.269 638.129C107.73 632.869 111.727 627.232 115.216 621.282C122.966 608.066 124.256 594.411 116.368 580.649C115.406 579.067 114.308 577.573 113.086 576.183C111.317 574.069 109.589 573.768 106.924 575.363C103.537 577.377 101.252 581.127 96.9825 581.681ZM112.405 606.709C107.977 605.483 109.217 601.098 106.077 599.646C101.081 607.818 106.864 616.006 105.76 623.923C102.4 623.824 103.9 619.815 100.833 619.668C98.6378 622.098 99.6936 626.472 96.6261 629.268C93.7402 624.581 98.6479 620.561 96.4314 616.487C93.7386 615.77 92.7844 620.449 89.3739 618.804C89.9551 615.851 92.2282 614.307 94.0567 612.584C98.0247 608.637 100.874 603.707 102.315 598.299C103.074 595.841 103.922 593.715 100.461 592.651C98.766 592.129 98.8292 590.704 99.8034 589.513C100.962 588.063 102.244 586.714 103.634 585.483C106.778 582.77 109.474 583.53 109.437 587.553C109.38 593.931 111.424 599.925 112.405 606.709ZM95.7518 598.566C95.1457 598.794 94.5461 598.651 94.4346 598.044C94.4107 597.8 94.4472 597.554 94.5407 597.327C94.6342 597.1 94.7818 596.9 94.9708 596.744C95.2639 596.596 95.8468 597.02 96.3031 597.192L95.7518 598.566Z" fill="#ACBD82"/>
<path d="M95.375 95.8728L97.0086 97.5198C96.9534 97.1046 96.7638 96.7186 96.4689 96.4213C96.1739 96.1239 95.7898 95.9313 95.375 95.8728Z" fill="#90A58F"/>
<path d="M106.057 464.842C112.51 463.187 118.908 461.602 125.271 459.883C125.673 459.821 126.052 459.654 126.369 459.4C126.687 459.146 126.933 458.813 127.082 458.434C127.231 458.056 127.278 457.645 127.22 457.242C127.161 456.84 126.998 456.46 126.746 456.14C122.771 449.329 116.555 444.816 110.145 440.612C108.352 439.435 107.276 441.244 106.58 442.656C103.749 448.398 102.806 454.739 101.058 460.807C100.227 463.705 102.218 465.039 106.057 464.842ZM110.054 459.767C106.658 459.841 106.425 457.815 106.432 455.552C106.445 450.576 108.683 446.964 111.594 447.287C114.62 447.62 119.284 452.439 119.359 455.305C119.422 457.933 115.224 459.863 110.05 459.767L110.054 459.767Z" fill="#DAE1B5"/>
<path d="M122.058 219.222C122.206 216.304 120.508 215.433 118.526 215.978C113.464 217.559 108.785 220.176 104.789 223.663C104.409 223.943 104.094 224.302 103.865 224.715C103.637 225.128 103.501 225.586 103.466 226.057C103.431 226.528 103.499 227 103.664 227.443C103.829 227.885 104.088 228.286 104.423 228.619C106.795 231.115 109.633 233.121 112.777 234.526C113.139 234.716 113.537 234.824 113.944 234.844C114.352 234.863 114.759 234.793 115.136 234.639C115.514 234.485 115.854 234.249 116.131 233.95C116.408 233.65 116.616 233.294 116.741 232.905C117.725 227.896 120.263 223.547 122.058 219.222Z" fill="#DAE1B5"/>
<path d="M118.175 64.039C117.805 60.9865 117.748 59.681 117.468 58.427C117.147 56.9832 116.275 56.034 114.638 56.5452C114.38 56.6182 114.141 56.7428 113.933 56.9117C113.726 57.0806 113.556 57.2901 113.432 57.5273C113.309 57.7645 113.235 58.0243 113.216 58.291C113.197 58.5577 113.232 58.8256 113.32 59.0781C114.819 64.6934 115.019 70.6418 117.449 76.0006C119.497 80.5152 121.866 81.1629 125.275 77.8173C129.74 73.4277 134.663 69.3911 138.949 63.0697C131.975 63.4444 130.694 70.7299 124.772 71.451C123.53 64.6683 122.707 58.4735 128.936 53.446C132.631 50.4618 135.364 46.3703 139.625 43.954C140.714 43.3379 141.79 42.0972 140.458 40.7284C140.059 40.3642 139.538 40.1622 138.998 40.1622C138.458 40.1622 137.937 40.3642 137.538 40.7284C134.577 42.9199 131.888 45.5093 127.98 47.0463C126.264 42.5201 131.655 38.8866 129.737 34.4736C125.79 34.7184 126.726 39.3978 123.755 40.3753C121.923 40.0422 122.826 38.2488 122.186 37.2763C121.913 36.8599 121.57 36.2687 121.177 36.1954C120.989 36.1482 120.792 36.1425 120.601 36.1785C120.41 36.2146 120.229 36.2917 120.071 36.4044C119.913 36.5171 119.781 36.6626 119.684 36.8313C119.588 36.9999 119.529 37.1876 119.512 37.3812C118.934 40.7957 119.093 44.2945 119.978 47.6426C121.632 52.685 121.124 57.5344 118.175 64.039Z" fill="#88A08A"/>
<path d="M65.2668 156.394C72.0079 154.872 77.6449 153.641 83.2519 152.302C84.4592 152.012 86.0463 152.017 86.4942 150.45C86.9555 148.833 85.6964 147.992 84.574 147.371C81.4783 145.656 79.3152 142.918 76.8339 140.544C74.8541 138.373 72.2419 136.879 69.3668 136.274C67.6682 140.625 73.3285 140.089 73.3635 143.819C64.4093 143.886 59.5516 135.739 51.9963 133.296C49.3835 136.707 55.347 136.853 54.3745 139.563C50.4377 142.975 45.958 138.217 41.3086 140.239C44.6025 143.804 41.3769 145.705 45.3336 146.161C45.0821 150.325 46.1995 150.067 46.5825 154.904C55.943 154.34 65.1688 143.568 74.9389 149.123C72.9323 153.325 66.4792 150.049 65.2668 156.394Z" fill="#88A08A"/>
<path d="M157.636 105.551C154.554 105.322 151.455 105.63 148.477 106.462C148.328 96.822 157.47 96.1225 161.811 91.3764C159.969 87.8594 157.335 91.6629 155.005 89.8978C154.672 86.1875 158.775 83.4299 158.661 78.907C153.621 79.7496 153.516 84.9318 150.426 86.8835C148.276 87.0634 148.404 83.7013 145.526 84.2425C144.194 90.056 149.055 96.4756 144.401 102.501C142.378 101.814 143.034 97.8495 140.029 98.2575C139.587 106.504 139.863 108.009 143.27 114.938C147.433 110.714 153.243 109.303 157.608 105.51L157.636 105.551Z" fill="#88A08A"/>
<path d="M157.598 105.52C157.814 105.408 158.229 105.247 158.214 105.187C158.091 104.677 157.862 104.807 157.631 105.553L157.598 105.52Z" fill="#88A08A"/>
<path d="M88.9458 103.941C82.1365 104.514 77.9749 100.153 73.865 95.7699C72.5328 94.3427 72.273 91.7731 69.5219 91.7931C67.5236 93.8097 70.3546 95.5767 69.8433 97.4967C70.6144 97.7898 70.731 98.0678 70.1615 98.2111C70.0782 98.2327 69.8851 97.813 69.7435 97.5965C65.8768 98.1144 62.3414 94.3809 58 96.8172C59.6653 99.8879 63.0491 99.3768 65.4405 100.647C66.3947 101.147 67.487 101.467 67.3371 102.739C67.1822 104.038 64.4047 105.024 66.6278 106.556C68.0816 107.555 69.6252 106.006 71.134 105.875C75.5436 105.495 80.06 104.543 84.468 107.503C82.403 109.948 78.0032 108.291 76.8492 112.499C81.6402 112.263 86.1965 112.236 90.706 111.76C94.9158 111.315 96.2981 108.914 94.1648 105.192C91.9434 101.317 90.4478 96.5325 84.8991 94.5658C84.4228 98.9755 89.5136 100.273 88.9558 103.94C89.7018 104.211 89.82 104.456 89.2888 104.574C89.2221 104.577 89.0624 104.159 88.9458 103.941Z" fill="#88A08A"/>
<path d="M41.1328 291.301C47.0079 293.558 52.3851 291.599 57.3593 292.885C62.441 294.191 67.112 296.755 70.9413 300.342C67.7206 304.006 64.1669 300.319 61.1161 301.481C61.241 304.449 63.7807 304.011 65.2228 304.389C69.5525 305.531 73.9787 306.277 78.2718 307.699C81.5907 308.8 83.5275 306.957 81.9105 304.322C78.0987 298.114 76.3802 290.757 71.3527 284.42C68.2453 289.135 74.1271 292.111 72.2636 296.139C65.6891 293.773 61.7722 288.612 58.1769 283.095C57.3093 281.763 56.5549 280.355 55.7906 278.96C54.6682 276.913 53.2578 273.493 51.1279 274.597C47.9506 276.237 51.3443 278.524 52.2336 280.412C54.3268 284.858 52.3253 288.705 47.4927 289.278C45.6892 289.484 43.7306 288.825 41.1328 291.301Z" fill="#88A08A"/>
<path d="M37.8945 279.124C40.7904 282.691 44.4572 283.645 48.0393 285.326C46.0109 280.685 45.2617 280.218 37.8945 279.124Z" fill="#88A08A"/>
<path d="M42.9971 348.892C43.6632 350.557 42.8105 351.175 42.0212 351.904C40.9387 352.903 38.9455 353.939 40.6891 355.623C42.0812 356.967 43.5882 355.653 44.9171 354.747C56.5624 346.803 59.2201 346.064 72.0394 347.336C68.5573 353.949 60.2727 354.415 56.3626 359.857C56.4942 360.121 56.679 360.354 56.9054 360.542C57.1317 360.73 57.3947 360.869 57.6776 360.95C57.9605 361.031 58.2573 361.052 58.5489 361.013C58.8405 360.973 59.1207 360.874 59.3718 360.72C65.917 357.204 72.2196 353.254 78.2376 348.897C81.9112 346.042 81.7348 343.874 77.3251 342.212C71.9052 339.919 66.6488 337.257 61.5932 334.244C62.2593 337.919 62.2593 337.919 66.0012 341.291C61.4083 345.112 56.799 343.939 52.1795 341.989C47.877 340.061 43.3639 338.642 38.7323 337.761C38.5258 341.656 43.4217 340.657 43.3618 344.365C39.0437 346.627 32.7624 343.16 28.6758 348.59C33.645 351.859 38.5542 348.397 42.9971 348.892Z" fill="#88A08A"/>
<path d="M60.6669 539.199C61.6661 544.495 67.153 542.467 68.7483 546.299C63.3512 550.53 55.3246 549.832 48.875 555.634C56.492 555.411 61.9641 551.714 68.2489 551.654C69.4878 554.578 64.5068 555.318 66.1305 558.803C73.6242 556.413 76.2787 545.589 85.8007 546.676C86.8798 549.771 82.7333 550.34 83.2495 552.935C83.6176 553.231 84.1238 553.859 84.3353 553.767C88.6354 551.78 92.6419 549.211 96.242 546.132C99.5243 543.574 99.0731 541.336 95.2146 539.919C89.9699 537.719 84.505 536.085 78.9132 535.046C79.4594 539.356 83.8324 538.682 85.2163 542.11C76.6335 545.646 69.2131 539.809 60.6669 539.199Z" fill="#88A08A"/>
<path d="M112.398 606.713C111.417 599.928 109.374 593.935 109.43 587.562C109.467 583.539 106.766 582.779 103.627 585.492C102.237 586.723 100.956 588.071 99.7967 589.522C98.8225 590.713 98.7593 592.138 100.455 592.659C103.915 593.723 103.067 595.85 102.308 598.308C100.868 603.716 98.018 608.645 94.05 612.592C92.2182 614.314 89.9484 615.86 89.3672 618.812C92.7777 620.458 93.7319 615.778 96.4247 616.496C98.6412 620.569 93.7335 624.589 96.6194 629.277C99.6869 626.481 98.6311 622.106 100.826 619.677C103.893 619.823 102.393 623.84 105.753 623.931C106.858 616.015 101.076 607.827 106.07 599.655C109.211 601.102 107.97 605.487 112.398 606.713Z" fill="#88A08A"/>
<path d="M95.7423 598.568L96.2934 597.194C95.8371 597.027 95.2544 596.598 94.9613 596.746C94.7723 596.903 94.6247 597.103 94.5312 597.33C94.4377 597.556 94.4012 597.803 94.4251 598.047C94.5366 598.653 95.1362 598.796 95.7423 598.568Z" fill="#88A08A"/>
<path d="M110.048 459.771C115.222 459.867 119.42 457.939 119.354 455.31C119.279 452.444 114.614 447.628 111.588 447.291C108.677 446.968 106.439 450.58 106.426 455.556C106.419 457.824 106.652 459.846 110.048 459.771Z" fill="#F8B06C"/>
<path d="M88.9375 103.944C89.0541 104.163 89.2139 104.581 89.2705 104.567C89.8034 104.449 89.6852 104.204 88.9375 103.933L88.9375 103.944Z" fill="#ACBD82"/>
<path d="M69.7461 97.5922C69.8876 97.8087 70.0791 98.2284 70.164 98.2068C70.7336 98.0635 70.6169 97.7855 69.8459 97.4924L69.7461 97.5922Z" fill="#ACBD82"/>
</svg>
