<svg width="219" height="711" viewBox="0 0 219 711" fill="none" xmlns="http://www.w3.org/2000/svg">
<path d="M225.435 303.057C208.777 283.882 186.893 273.605 163.624 265.607C149.394 260.793 134.302 259.063 119.352 260.532C112.55 261.138 106.727 264.207 100.661 266.843C93.9133 269.773 93.3355 269.587 89.1582 263.049C87.4729 260.184 85.1236 257.766 82.3083 255.999C79.4931 254.232 76.2945 253.168 72.9819 252.896C70.2077 252.619 67.4458 252.203 64.6807 251.851C66.7495 230.293 73.1674 209.405 74.5607 187.742C81.873 195.161 86.9977 204.51 95.3914 211.012C98.7981 213.991 102.67 216.392 106.852 218.121C115.268 221.038 123.045 221.867 131.564 216.46C147.05 206.624 156.314 192.454 163.526 176.343C165.348 172.266 164.288 168.129 163.92 164.003C163.296 157.087 162.832 150.149 161.953 143.266C161.377 138.746 159.229 138.055 155.93 141.226C152.674 144.354 149.888 147.978 146.586 151.05C142.463 154.881 141.318 154.654 139.247 149.532C134.523 137.929 130.644 125.999 127.641 113.837C126.998 111.214 126.932 108.311 124.407 106.356C121.259 106.487 120.924 109.338 119.858 111.307C118.369 114.051 117.357 117.054 115.878 119.803C110.018 130.696 108.122 130.994 99.603 122.327C97.4237 120.11 95.5702 117.576 93.5647 115.193C96.4742 103.513 102.702 93.6053 110.129 84.3506C123.514 67.6747 139.462 56.8059 162.241 61.4015C163.945 61.7617 165.684 61.9341 167.426 61.9161C184.725 61.4276 202.037 62.1186 219.242 63.9839C220.964 64.2318 222.707 64.3009 224.443 64.1904C238.121 62.9204 251.384 65.5841 264.649 68.2854C245.763 73.6874 228.958 84.6834 216.445 99.825C203.793 115.267 194.515 132.793 192.542 153.346C191.778 161.318 189.81 169.201 189.415 177.176C187.72 211.197 196.163 240.675 224.739 262.863C249.502 282.093 276.881 288.533 307.599 288.328C331.703 288.164 354.537 283.278 377.293 276.761C393.166 272.288 407.369 263.239 418.131 250.744C422.543 245.797 425.963 240.048 428.207 233.811C434.72 215.396 440.68 197.006 438.775 176.931C437.336 161.811 430.169 149.153 422.909 136.488C412.281 118.453 398.801 102.259 382.994 88.5357C385.398 88.3954 387.811 88.5276 390.186 88.9299C407.978 94.0303 426.325 97.1593 443.648 103.921C441.277 114.025 440.55 124.445 441.495 134.781C442.591 144.103 444.571 152.678 450.774 160.549C455.926 167.101 461.5 170.01 469.297 169.167C475.198 168.644 481.14 168.851 486.991 169.782C487.178 168.219 487.337 166.651 487.48 165.083C500.728 164.469 510.814 156.935 521.088 149.799C532.439 160.116 538.481 173.466 542.342 187.889C547.949 208.881 546.902 230.423 545.051 251.613C542.219 284.221 537.581 316.669 533.71 349.181C531.447 346.539 529.252 343.777 525.279 346.59C512.343 355.757 499.662 364.724 497.27 382.552C495.525 393.582 495.072 404.778 495.918 415.913C496.001 418.912 497.093 421.795 499.018 424.097C500.943 426.398 503.588 427.983 506.525 428.595C512.924 430.416 519.368 432.079 525.793 433.813C524.195 443.728 523.465 453.764 523.614 463.806C516.019 449.178 503.419 438.73 492.196 427.271C486.744 421.703 486.367 416.923 488.895 410.491C492.59 401.098 490.776 391.89 487.323 382.824C487.039 381.993 486.586 381.231 485.991 380.585C485.396 379.939 484.673 379.423 483.868 379.072C483.245 378.291 482.619 377.511 482.003 376.727C480.878 372.823 477.83 371.53 474.391 370.693C474.262 370.961 474.136 371.227 474.009 371.495C475.602 374.21 478.009 376.354 480.889 377.623C481.502 378.397 482.113 379.17 482.719 379.948C488.116 392.319 485.488 404.412 481.883 417.591C475.675 414.155 470.355 410.936 464.794 408.215C459.945 405.839 458.737 406.486 457.998 412.001C456.745 421.397 455.905 430.848 454.891 440.274C452.113 457.618 450.18 475.066 448.552 492.55C447.481 501.685 446.41 510.818 445.336 519.95C443.639 533.94 441.942 547.93 440.245 561.921C439.606 567.6 438.964 573.279 438.322 578.959C437.882 582.355 437.441 585.75 437 589.146L435.314 602.134C436.274 602.267 437.23 602.419 438.202 602.528L434.97 629.548C415.821 625.752 396.283 626.793 376.959 624.948C348.921 622.269 321.687 614.7 293.607 612.645C307.213 576.883 312.025 540.208 304.834 502.352C301.501 484.817 294.348 468.562 287.518 452.208C287.268 451.375 286.792 450.629 286.143 450.051C285.493 449.474 284.696 449.089 283.84 448.938L283.816 448.962C283.952 444.751 282.511 441.969 277.738 443.273C273.079 444.549 273.488 447.913 274.783 451.586C279.232 463.275 282.479 475.388 284.473 487.735C287.89 512.781 290.985 537.88 287.171 563.259C284.724 579.054 279.169 594.208 270.827 607.843L260.524 606.48C274.295 582.565 281.454 555.416 281.267 527.819C281.46 502.76 277.986 477.807 270.958 453.753C270.043 450.634 270.241 445.889 265.998 445.452C262.419 445.085 261.555 449.407 259.962 451.921C242.448 479.541 226.389 508.207 207.191 534.595C192.127 555.299 176.843 576.206 158.389 594.318C151.815 593.531 145.151 593.174 138.678 591.861C125.44 589.152 112.501 585.995 100.94 577.964C90.0785 570.422 82.5316 560.185 73.9894 550.587C63.9862 539.347 59.599 526.072 57.6146 511.787C55.1318 493.949 52.6649 476.072 51.3447 458.127C49.9171 438.82 47.9183 419.416 51.197 400.056C59.0364 416.503 71.3885 429.058 85.6769 439.925C102.696 452.867 122.796 456.628 143.284 459.646C164.863 462.825 183.217 455.528 199.624 442.716C212.082 432.995 221.463 420.338 229.437 406.661C242.491 384.29 245.297 360.283 241.74 335.054C239.974 322.411 233.613 312.479 225.435 303.057ZM492.162 335.556C498.844 330.422 505.037 324.681 510.662 318.406C523.511 304.434 528.55 287.857 527.083 269.066C526.541 262.123 527.522 255.084 525.714 247.541C518.143 250.443 513.74 258.121 504.993 260.88C499.806 239.48 497.803 217.614 491.865 196.723C490.745 196.818 489.663 197.173 488.703 197.757C487.744 198.342 486.933 199.142 486.335 200.093L483.448 224.23C480.251 224.984 479.466 227.612 478.344 230.248C476.754 233.982 476.104 238.32 472.604 241.021C468.797 239.933 468.229 236.633 466.985 233.87C465.273 230.06 463.603 226.231 461.896 222.417C461.305 221.096 460.356 219.804 458.906 219.85C456.761 219.921 456.27 221.819 456.044 223.557C455.029 231.506 454.128 239.466 453.086 247.409C452.649 250.747 452.814 254.253 451.155 257.594C445.548 257.202 443.404 252.796 440.229 249.824C439.675 249.146 438.901 248.684 438.041 248.519C437.181 248.354 436.291 248.496 435.525 248.92C434.931 249.306 434.49 249.887 434.279 250.563C434.067 251.238 434.098 251.967 434.366 252.622C440.278 272.55 477.56 257.13 489.447 275.039C493.869 281.701 499.972 290.891 507.814 294.086C506.608 304.16 499.717 319.498 491.613 335.955L492.162 335.556ZM338.959 539.376C345.219 551.029 352.268 562.754 363.283 570.424C384.59 585.264 407.132 597.743 433.17 601.832L456.817 404.144C457.063 403.951 457.296 403.74 457.512 403.515C448.225 400.096 439.101 396.313 429.181 394.41C411.76 391.077 395.973 395.002 380.714 402.629C351.535 417.22 336.301 442.602 327.016 472.552C319.449 496.925 327.742 518.526 338.946 539.375L338.959 539.376ZM272.195 357.827C272.812 359.378 274.376 359.407 275.677 359.595C285.176 361.078 294.786 361.731 304.398 361.547C302.082 367.786 297.403 370.766 293.367 374.297C292.122 375.386 290.259 376.385 291.066 378.476C291.874 380.566 293.809 380.123 295.522 380.024C305.902 379.421 316.334 379.709 326.634 377.7C331.849 376.684 332.898 378.111 331.36 383.089C330.471 385.964 327.692 388.318 329.546 393.475C355.207 386.968 376.513 375.931 385.434 348.86C387.382 342.937 386.482 337.187 386.102 331.327C385.865 327.664 382.938 326.131 380.329 324.452C367.011 315.992 351.382 311.906 335.628 312.767C327.663 313.39 319.743 314.498 311.913 316.086C311.237 316.192 310.591 316.439 310.017 316.811C309.442 317.183 308.952 317.671 308.577 318.243C307.735 320.121 309.469 321.247 310.827 322.375C313.172 324.322 316.645 324.79 318.3 328.266C312.927 333.339 305.972 335.76 299.489 338.942C290.614 342.961 282.176 347.884 274.311 353.633C272.97 354.657 271.332 355.692 272.182 357.825L272.195 357.827ZM168.263 515.779C166.868 509.36 164.407 503.172 162.42 496.882C161.871 495.15 160.98 493.485 158.985 493.512C156.99 493.539 156.169 495.226 155.475 496.891C154.146 500.093 152.942 503.365 151.358 506.445C148.49 512.037 145.863 512.354 142.5 506.981C136.927 498.09 129.808 490.433 123.586 482.076C121.982 479.919 120.601 477.381 117.049 476.332C109.384 488.957 115.276 503.043 110.672 515.419C106.561 515.586 103.898 513.114 100.901 511.5C97.634 509.739 94.9259 510.198 95.5262 514.295C97.4879 527.667 99.2309 541.195 106.579 553.035C112.863 563.179 122.292 570.989 133.429 575.273C135.986 576.298 138.724 576.861 141.361 577.695C146.697 579.38 150.468 577.929 153.779 573.131C157.296 568.02 161.994 563.81 165.15 558.287C172.988 544.533 171.379 530.172 168.25 515.777L168.263 515.779Z" fill="#D0E6E0"/>
<path d="M264.661 68.2652C245.776 73.6671 228.97 84.6634 216.458 99.805C203.806 115.247 194.528 132.773 192.555 153.326C191.79 161.298 189.823 169.181 189.427 177.156C187.732 211.177 196.178 240.655 224.751 262.843C249.514 282.073 276.893 288.513 307.611 288.308C331.716 288.144 354.549 283.258 377.306 276.741C393.178 272.268 407.382 263.219 418.144 250.724C422.555 245.777 425.975 240.028 428.219 233.791C434.733 215.376 440.692 196.986 438.787 176.913C437.349 161.793 430.182 149.133 422.921 136.468C412.293 118.433 398.814 102.239 383.006 88.5157C376.864 86.0927 372.535 80.8373 366.654 78.0344C363.28 76.4262 360.113 74.2513 356.258 73.8033C353.797 73.8694 351.418 73.7301 349.902 71.3526C349.261 71.103 348.586 70.9523 347.9 70.9062C343.028 69.9674 337.591 71.2012 333.528 67.1648C332.897 66.9468 332.236 66.8297 331.569 66.8182C326.666 66.1438 321.467 66.9531 317.039 63.9107C317.134 61.5449 317.23 59.1807 317.328 56.8182L313.873 56.306C312.821 59.9174 312.609 64.1678 307.111 63.9235C292.755 63.2878 278.73 65.9933 264.661 68.2652ZM374.572 130.631C374.628 130.163 374.685 129.693 374.693 129.219C373.845 128.142 373.144 126.956 372.608 125.694C369.818 115.646 368.77 105.144 364.717 95.4157C364.44 94.7724 364.34 94.0669 364.428 93.3719C364.776 91.3625 365.913 89.9598 367.918 91.3714C369.514 92.7107 370.944 94.2352 372.179 95.9127C381.764 107.448 389.448 120.438 394.94 134.394C411.389 173.884 409.72 211.756 384.059 247.058C378.16 255.172 371.099 262.598 361.591 266.881C359.44 267.848 356.848 269.172 355.012 266.472C353.605 264.398 355.024 262.422 356.292 260.791C362.376 252.945 365.542 243.849 368.516 234.517C370.634 227.835 371.045 220.724 373.351 214.308C378.976 198.713 377.052 182.767 377.415 166.87C377.699 154.679 374.258 142.812 374.572 130.631ZM338.434 84.1181C339.239 84.3263 339.975 84.74 340.572 85.3185C341.169 85.897 341.606 86.6207 341.84 87.4186C349.469 102.519 352.46 119.026 355.92 135.31C360.914 158.823 363.582 182.422 359.248 206.56C357.405 216.823 354.866 226.933 352.681 237.074C350.446 247.449 347.511 258 341.72 267.27C340.665 268.957 339.804 271.34 337.186 270.618C335.333 270.109 334.748 268.087 334.52 266.413C333.581 259.554 332.644 252.686 332.095 245.793C329.433 212.915 328.053 180.034 332.368 147.171C333.009 143.39 333.368 139.566 333.444 135.732C333.127 118.443 333.129 101.209 338.434 84.1181ZM291.334 138.118C292.532 128.097 293.075 120.063 294.539 112.201C296.164 102.289 298.654 92.5387 301.982 83.0619C302.576 81.4732 302.768 79.3353 305.036 79.578C306.953 79.7831 307.776 81.5257 308.122 83.2994C309.927 92.5087 311.924 101.686 313.431 110.943C316.843 132.51 318.388 154.331 318.049 176.164C317.951 185.165 317.092 194.168 316.661 203.152C316.326 210.146 312.965 217.195 312.65 224.515C312.007 239.433 304.998 252.536 301.018 266.498C300.9 267.188 300.543 267.814 300.01 268.267C299.477 268.72 298.802 268.971 298.103 268.977C297.403 268.996 296.72 268.755 296.187 268.301C295.654 267.846 295.307 267.211 295.214 266.516C294.264 261.747 293.085 257.007 292.454 252.196C290.5 236.035 289.428 219.779 289.243 203.502C288.757 180.937 287.635 158.43 291.342 138.119L291.334 138.118ZM278.731 80.0981C277.777 95.4207 279.223 109.614 277.888 123.511C275.26 150.867 275.121 178.437 270.613 205.634C268.733 216.973 268.095 228.515 266.383 239.886C265.531 245.522 267.65 250.966 266.525 256.525C266.021 259.017 265.48 261.592 262.703 262.166C259.772 262.772 258.189 260.289 257.247 258.154C253.994 251.211 251.478 243.946 249.741 236.478C243.43 206.533 243.608 176.523 248.04 146.343C250.682 127.744 256.78 109.804 266.019 93.4471C268.816 87.8193 273.246 83.1666 278.731 80.0981ZM234.024 255.596C228.258 251.609 223.957 248.162 221.188 242.548C216.951 233.799 213.979 224.491 212.362 214.905C209.46 198.73 210.632 182.456 210.159 166.226C210.275 163.103 210.801 160.01 211.724 157.024C215.873 139.993 224.903 125.004 232.075 109.251C235.341 102.693 239.62 96.6902 244.754 91.464C246.496 89.5664 248.633 87.9312 251.07 89.7769C253.118 91.341 251.74 93.4557 251.014 95.4287C243.8 115.01 240.72 135.669 236.788 155.988C231.696 182.285 232.069 209.032 234.478 235.758C235.014 241.751 237.323 248.028 234.024 255.596Z" fill="#ACBD82"/>
<path d="M51.203 400.05C59.0423 416.497 71.3944 429.052 85.6828 439.919C102.702 452.861 122.802 456.622 143.29 459.64C164.869 462.819 183.223 455.522 199.63 442.71C212.088 432.988 221.469 420.331 229.443 406.655C242.497 384.283 245.303 360.277 241.746 335.048C239.96 322.411 233.605 312.48 225.418 303.057C208.76 283.882 186.877 273.605 163.608 265.607C149.378 260.793 134.286 259.063 119.336 260.531C112.534 261.138 106.71 264.207 100.644 266.842C93.8966 269.772 93.3187 269.587 89.1414 263.048C87.456 260.184 85.1068 257.766 82.2916 255.999C79.4763 254.232 76.2777 253.168 72.9651 252.896C70.1909 252.619 67.429 252.203 64.6639 251.85C58.8151 253.386 52.1444 252.586 45.7772 259.044C52.5411 258.367 56.8697 254.615 61.9025 255.822C74.6823 253.554 80.574 256.198 86.1055 266.394C87.8704 269.65 88.0841 271.907 84.3394 274.046C75.5492 279.055 68.2535 286.11 60.3033 292.275C53.939 303.431 45.8255 313.405 40.2634 325.207C33.7868 338.919 34.1457 352.143 38.6773 365.754C42.5275 377.288 47.0038 388.622 51.203 400.05ZM104.473 279.292C108.534 280.836 112.214 283.238 115.262 286.334C131.765 301.268 146.389 318.155 158.812 336.622C175.43 361.149 187.816 388.288 195.457 416.912C196.334 420.292 200.347 424.875 195.778 427.091C191.742 429.055 188.388 424.545 185.609 421.425C184.445 420.125 183.394 418.731 182.318 417.361C173.912 406.665 165.054 396.287 157.216 385.193C145.795 369.032 133.768 353.17 125.472 335.041C118.379 319.541 111.177 304.071 105.378 288.011C104.485 285.535 102.551 283.068 104.473 279.292ZM81.3932 305.989C81.5174 304.951 81.5836 303.904 81.7766 302.878C82.3928 299.564 81.5604 294.833 85.6065 293.941C90.1399 292.944 90.4861 298.138 91.8888 300.894C100.399 317.61 108.023 334.757 115.976 351.743C126.888 375.031 140.989 396.562 155.951 417.497C160.792 424.274 164.786 431.645 170.288 437.973C171.405 439.259 172.814 441.021 171.56 442.605C169.908 444.692 167.817 443.393 166.025 442.293C164.542 441.381 163.123 440.367 161.648 439.443C145.202 429.153 132.309 414.929 120.269 400.173C108.487 385.982 98.7298 370.226 91.2762 353.354C84.8033 338.348 79.0009 322.956 81.3932 305.989ZM57.0678 334.318C57.0574 327.605 61.0163 321.82 61.7491 315.216C61.7922 314.777 61.9221 314.352 62.1312 313.964C62.3403 313.577 62.6244 313.235 62.967 312.958C63.3097 312.681 63.7038 312.475 64.1268 312.352C64.5498 312.23 64.9932 312.192 65.4308 312.242C67.8386 312.568 67.5791 314.697 67.3844 316.325C67.3535 319.45 67.8807 322.555 68.941 325.494C73.1645 343.867 80.3047 361.16 88.0738 378.25C93.8287 390.514 101 402.063 109.441 412.659C117.061 422.463 126.467 430.871 135.119 439.862C136.521 441.318 138.839 442.505 137.327 444.914C136.277 446.58 134.099 446.172 132.546 445.661C118.039 440.829 103.347 435.749 91.5003 426.022C62.6228 402.262 55.2206 369.901 57.0678 334.318ZM214.909 410.705C213.832 409.677 213.008 409.271 212.962 408.788C211.307 391.857 204.708 376.624 197.049 361.718C189.303 346.962 180.516 332.776 170.754 319.268C158.527 302.028 146.262 284.324 125.321 276.009C124.995 275.89 124.687 275.725 124.409 275.517C123.035 274.427 121.491 273.28 122.515 271.264C122.893 270.673 123.47 270.238 124.142 270.036C124.813 269.834 125.535 269.879 126.177 270.163C129.845 271.162 133.517 272.203 137.09 273.497C159.048 281.446 178.457 293.196 193.305 311.625C204.368 325.358 211.275 341.185 217.068 357.698C221.81 371.582 222.712 386.49 219.679 400.844C218.969 404.488 217.326 407.887 214.909 410.705Z" fill="#ACBD82"/>
<path d="M260.521 606.473C274.292 582.557 281.452 555.408 281.265 527.811C281.457 502.752 277.984 477.8 270.955 453.745C270.04 450.626 270.238 445.882 265.995 445.444C262.416 445.078 261.552 449.4 259.959 451.913C242.445 479.533 226.386 508.2 207.189 534.587C192.124 555.292 176.84 576.198 158.386 594.31C153.349 600.914 148.667 607.804 141.875 612.887C138.69 615.27 139.375 617.904 142.84 619.057C162.615 625.63 182.23 633.002 203.561 632.729C226.462 632.443 245.163 623.088 260.521 606.473ZM233.306 550.967C237.281 552.041 240.733 554.517 243.025 557.938C245.366 561.757 243.477 564.539 240.305 566.626C236.605 569.054 234.59 566.879 233.242 563.598C231.989 560.77 230.886 557.878 229.937 554.935C229.212 552.449 230.449 550.999 233.313 550.968L233.306 550.967ZM202.566 562.206C202.913 560.629 201.681 557.07 205.335 556.254C208.626 555.518 210.012 558.531 211.588 560.739C212.155 561.606 212.654 562.515 213.08 563.459C214.17 565.649 215.477 567.955 213.019 569.998C210.561 572.041 207.708 573.599 204.46 572.426C201.622 571.401 201.883 568.69 202.09 566.242C202.182 565.211 202.329 564.187 202.566 562.206ZM238.175 511.494C243.7 510.996 246.142 512.75 245.8 517.258C245.568 520.339 245.503 523.817 241.173 524.108C237.889 524.329 231.295 518.917 231.535 515.899C231.934 510.963 236.195 511.864 238.182 511.495L238.175 511.494ZM247.416 492.739C248.501 490.599 250.217 488.844 252.333 487.711C254.397 486.329 256.583 485.26 258.844 487.219C259.745 488.017 260.39 489.063 260.696 490.228C261.001 491.392 260.955 492.621 260.561 493.758C260.295 494.931 259.656 495.986 258.74 496.764C257.824 497.543 256.679 498.003 255.479 498.076C250.894 498.709 246.63 495.928 247.421 492.751L247.416 492.739ZM187.958 589.786C189.822 590.563 191.48 591.765 192.799 593.294C194.118 594.824 195.062 596.64 195.557 598.598C196.027 599.736 196.107 600.997 195.784 602.185C195.46 603.373 194.752 604.42 193.77 605.162C192.975 605.845 192.013 606.304 190.983 606.492C189.952 606.68 188.89 606.592 187.906 606.235C185.044 605.233 184.791 602.683 185.177 600.21C185.702 596.887 185.221 593.284 187.965 589.787L187.958 589.786Z" fill="#E26267"/>
<path d="M74.555 187.742C81.8695 195.161 86.992 204.51 95.3879 211.013C98.7946 213.991 102.666 216.393 106.848 218.121C115.264 221.038 123.041 221.867 131.56 216.461C147.046 206.625 156.31 192.454 163.52 176.343C165.346 172.266 164.282 168.129 163.916 164.003C163.293 157.087 162.828 150.149 161.95 143.266C161.374 138.746 159.225 138.056 155.926 141.227C152.67 144.354 149.886 147.979 146.58 151.05C142.459 154.881 141.313 154.654 139.243 149.532C134.52 137.929 130.641 126 127.637 113.837C126.994 111.215 126.928 108.311 124.401 106.356C121.255 106.487 120.921 109.338 119.852 111.308C118.363 114.053 117.351 117.054 115.872 119.803C110.012 130.696 108.117 130.995 99.5973 122.327C97.418 120.11 95.5646 117.576 93.559 115.193C84.8664 110.013 78.6049 101.823 70.0328 95.7283C67.5271 99.2536 69.7741 102.099 70.7852 104.581C74.8723 114.63 76.9624 125.217 79.5852 135.654C81.0727 141.596 79.9937 142.773 74.2087 141.79C70.5005 141.162 66.9026 139.866 62.3111 138.609C63.3761 148.745 71.9211 155.379 73.2947 165.067C68.4219 166.144 64.2626 162.067 59.1692 164.547C62.6449 173.569 70.574 179.415 74.555 187.742ZM101.646 184.387C109.476 188.12 111.489 196.616 120.209 196.439C118.461 190.25 116.718 184.992 115.533 179.612C114.439 174.645 110.162 170.334 111.893 163.085C120.164 174.208 120.093 187.445 126.508 198.069C129.175 195.69 130.921 192.449 131.44 188.912C132.058 186.579 132.81 184.284 133.693 182.037C133.815 181.538 134.114 181.099 134.535 180.803C134.956 180.507 135.469 180.373 135.981 180.427C136.33 180.467 136.664 180.594 136.952 180.795C137.24 180.997 137.475 181.267 137.633 181.58C137.792 181.894 137.869 182.242 137.86 182.594C137.851 182.946 137.755 183.289 137.58 183.594C134.914 189.987 134.228 197.098 130.541 203.1C127.298 208.371 125.876 208.594 120.999 205.001C117.925 202.741 114.773 200.59 111.703 198.323C106.778 195.047 103.205 190.1 101.645 184.394L101.646 184.387Z" fill="#88A08A"/>
<path d="M283.813 448.963C283.95 444.752 282.508 441.97 277.736 443.275C273.077 444.551 273.485 447.915 274.78 451.587C279.229 463.277 282.476 475.389 284.471 487.737C287.887 512.782 290.983 537.882 287.169 563.26C284.721 579.056 279.166 594.209 270.824 607.844C270.361 609.547 269.899 611.25 269.437 612.954L270.272 614.118C271.221 613.705 272.141 613.227 273.026 612.689C276.605 610.202 280.21 609.784 283.186 613.319C285.908 616.549 284.439 619.919 282.235 622.773C279.594 626.391 276.678 629.801 273.512 632.971C268.101 638.104 265.094 637.183 262.083 630.27C261.319 628.915 260.996 627.355 261.16 625.808C261.323 624.261 261.966 622.803 262.997 621.639C262.609 621.249 262.243 620.838 261.9 620.408C250.63 628.704 238.778 635.952 225.077 639.475C202.547 645.27 180.144 642.032 157.879 637.757C152.087 636.644 147.055 633.14 141.865 630.29C136.19 627.174 136.342 627.467 132.55 633.672C130.091 637.689 129.598 640.622 134.484 642.811C162.943 655.569 191.736 666.866 223.938 661.12C236.977 658.818 249.623 654.676 261.498 648.818C273.882 642.688 281.12 631.43 288.765 620.656C290.568 618.117 292.002 615.315 293.606 612.635C307.211 576.874 312.023 540.199 304.832 502.343C301.499 484.808 294.347 468.553 287.517 452.198C287.267 451.365 286.79 450.619 286.141 450.041C285.491 449.464 284.693 449.079 283.837 448.929C283.808 455.714 287.127 461.45 289.6 467.458C291.169 471.266 292.743 475.088 294.113 478.963C294.303 479.353 294.408 479.779 294.421 480.213C294.434 480.647 294.355 481.079 294.189 481.48C294.023 481.881 293.773 482.243 293.457 482.54C293.141 482.838 292.765 483.065 292.355 483.206C291.528 483.487 290.63 483.473 289.812 483.167C288.994 482.861 288.307 482.282 287.867 481.528C287.304 480.674 286.896 479.727 286.663 478.731C284.568 469.682 281.93 460.766 278.765 452.033C278.193 450.492 277.124 448.552 279.089 447.49C280.776 446.582 282.185 448.549 283.813 448.963ZM224.334 647.335C224.507 646.489 224.883 645.697 225.43 645.027C225.976 644.358 226.676 643.831 227.471 643.492C233.065 640.839 238.69 638.268 244.277 635.61C248.43 633.629 250.777 635.457 252.326 639.211C253.851 642.91 255.185 646.792 250.294 648.843C244.592 651.284 238.742 653.366 232.78 655.077C228.433 656.278 223.618 651.484 224.335 647.329L224.334 647.335ZM196.695 657.659C192.884 657.387 189.091 656.896 185.337 656.188C184.141 655.849 183.111 655.082 182.444 654.034C181.776 652.986 181.517 651.73 181.714 650.503C181.816 648.679 182.549 646.573 184.412 646.567C192.687 646.546 200.968 646.844 209.239 647.187C210.252 647.462 211.139 648.079 211.749 648.934C213.362 650.756 215.038 652.675 214.105 655.408C213.306 657.731 211.058 658.166 209.102 658.633C204.921 659.61 200.809 658.188 196.696 657.65L196.695 657.659ZM299.262 582.814C298.696 587.271 297.414 591.606 295.466 595.654C294.861 597.113 293.715 598.282 292.268 598.914C290.82 599.547 289.184 599.594 287.703 599.047C286.925 598.902 286.188 598.59 285.542 598.133C284.896 597.676 284.357 597.085 283.961 596.4C283.565 595.715 283.321 594.953 283.247 594.165C283.174 593.378 283.271 592.583 283.533 591.837C284.359 587.79 285.556 583.827 287.112 580.001C288.718 576.236 288.523 570.334 294.948 570.915C299.414 571.309 300.317 574.238 299.263 582.806L299.262 582.814ZM303.75 544.729L303.771 544.731C303.399 547.848 303.084 550.972 302.638 554.075C302.133 557.598 299.848 558.54 296.603 558.102C293.741 557.715 291.93 556.243 292.4 553.288C293.341 547.37 292.532 541.51 292.414 535.617C292.343 532.08 292.821 528.381 298.082 528.948C302.64 529.439 305.18 531.596 304.73 536.42C304.467 539.187 304.081 541.959 303.751 544.72L303.75 544.729ZM161.734 649.671C153.823 647.263 146.165 644.086 138.872 640.188C138.464 640.031 138.098 639.783 137.801 639.463C137.503 639.143 137.283 638.76 137.157 638.342C137.03 637.924 137 637.482 137.07 637.051C137.14 636.62 137.307 636.211 137.559 635.854C137.738 635.553 137.974 635.29 138.255 635.08C138.535 634.87 138.854 634.718 139.194 634.632C139.533 634.545 139.886 634.527 140.233 634.578C140.579 634.628 140.913 634.746 141.214 634.926C148.435 639.285 156.926 640.103 164.522 643.399C166.403 644.217 168.996 644.429 168.645 647.128C168.192 650.615 165.258 649.761 161.735 649.663L161.734 649.671ZM290.711 498.583C290.9 497.912 291.249 497.298 291.728 496.792C292.207 496.286 292.802 495.905 293.461 495.68C294.283 495.407 295.173 495.422 295.984 495.724C296.796 496.026 297.48 496.596 297.923 497.339C300.732 500.566 301.622 504.696 302.838 508.611C303.778 511.632 304.253 514.953 300.001 516.043C299.097 516.328 298.142 516.418 297.2 516.305C296.259 516.192 295.353 515.879 294.542 515.388C293.731 514.896 293.034 514.238 292.498 513.456C291.962 512.673 291.599 511.786 291.433 510.852C290.909 507.134 290.966 503.344 290.712 498.574L290.711 498.583Z" fill="#90A58F"/>
<path d="M60.3128 292.264C68.2627 286.101 75.5585 279.047 84.3489 274.035C88.0974 271.901 87.8804 269.639 86.1155 266.383C80.584 256.187 74.6809 253.542 61.912 255.811C64.8141 258.785 63.317 262.299 63.0105 265.615C62.185 274.501 61.2174 283.379 60.3128 292.264Z" fill="#D0E6E0"/>
<path d="M117.033 476.326C109.368 488.951 115.261 503.037 110.657 515.412C106.545 515.58 103.882 513.107 100.886 511.493C97.6185 509.733 94.9103 510.191 95.5106 514.288C97.4723 527.66 99.2153 541.189 106.564 553.028C112.848 563.172 122.277 570.982 133.414 575.267C135.971 576.292 138.709 576.854 141.346 577.689C146.682 579.373 150.452 577.923 153.763 573.124C157.283 568.014 161.981 563.804 165.139 558.281C172.995 544.536 171.387 530.175 168.256 515.786C166.861 509.367 164.401 503.18 162.414 496.89C161.867 495.158 160.974 493.492 158.979 493.52C156.984 493.547 156.16 495.234 155.47 496.899C154.14 500.101 152.926 503.372 151.351 506.453C148.484 512.045 145.856 512.362 142.493 506.989C136.92 498.098 129.801 490.441 123.579 482.084C121.966 479.912 120.588 477.375 117.033 476.326ZM141.611 549.27C145.26 547.565 145.12 543.472 147.228 540.898C148.06 539.878 149.222 538.606 150.657 539.804C151.018 540.148 151.297 540.569 151.472 541.036C151.648 541.502 151.715 542.003 151.669 542.499C150.241 548.704 146.498 553.783 143.225 559.06C142.701 559.771 141.918 560.247 141.045 560.384C140.173 560.521 139.281 560.308 138.565 559.791C133.326 557.094 128.001 554.54 122.909 551.59C120.343 550.104 118.851 547.785 121.953 544.88C123.716 546.023 125.543 547.067 127.422 548.008C133.815 550.801 135.498 549.561 135.524 542.758C135.542 539.243 133.055 535.647 135.469 531.72C141.082 536.673 137.786 544.174 141.611 549.27Z" fill="#B0C084"/>
<path d="M234.009 255.6C237.308 248.032 235.007 241.747 234.461 235.761C232.052 209.036 231.679 182.288 236.77 155.992C240.702 135.673 243.781 115.025 250.996 95.4324C251.722 93.4594 253.102 91.3339 251.052 89.7807C248.615 87.9349 246.479 89.5701 244.737 91.4678C239.602 96.6939 235.323 102.696 232.057 109.255C224.897 125.009 215.85 139.996 211.706 157.028C210.783 160.013 210.258 163.107 210.142 166.23C210.618 182.46 209.434 198.733 212.344 214.909C213.962 224.495 216.934 233.802 221.171 242.552C223.942 248.166 228.242 251.619 234.009 255.6ZM225.149 189.74C225.87 188.287 226.601 186.258 228.292 186.254C230.524 186.25 230.37 188.375 230.119 190.014C229.861 191.713 229.306 193.399 227.034 192.821C226.384 192.646 225.827 192.229 225.474 191.656C225.122 191.083 225.002 190.397 225.138 189.739L225.149 189.74Z" fill="#88A08A"/>
<path d="M104.472 279.293C102.549 283.075 104.483 285.535 105.382 288.022C111.185 304.073 118.387 319.543 125.477 335.052C133.771 353.191 145.799 369.042 157.221 385.203C165.061 396.297 173.916 406.675 182.323 417.371C183.399 418.742 184.454 420.136 185.613 421.436C188.395 424.556 191.746 429.065 195.782 427.101C200.343 424.884 196.329 420.301 195.461 416.922C187.821 388.298 175.434 361.159 158.816 336.633C146.394 318.165 131.77 301.278 115.266 286.344C112.218 283.244 108.536 280.839 104.472 279.293ZM133.746 340.264C140.851 340.962 146.351 341.622 151.351 346.571C144.935 346.529 139.531 346.317 133.746 340.264ZM130.572 313.665C129.228 313.941 127.859 314.079 126.487 314.077C125.145 313.929 123.853 313.485 122.704 312.778C121.554 312.07 120.576 311.116 119.84 309.984C119.776 309.684 119.79 309.372 119.881 309.079C119.972 308.785 120.137 308.52 120.359 308.308C123.385 306.665 125.338 309.268 127.625 310.384C128.426 310.785 128.924 311.783 130.572 313.665Z" fill="#88A08A"/>
<path d="M81.3906 305.988C79.0051 322.953 84.8071 338.347 91.2802 353.351C98.7338 370.223 108.491 385.979 120.273 400.171C132.313 414.926 145.206 429.151 161.652 439.441C163.127 440.364 164.547 441.378 166.029 442.29C167.822 443.384 169.919 444.69 171.564 442.603C172.818 441.018 171.409 439.256 170.292 437.97C164.79 431.643 160.796 424.271 155.955 417.495C140.993 396.56 126.891 375.035 115.98 351.74C108.027 334.754 100.403 317.607 91.8928 300.891C90.4901 298.136 90.1445 292.937 85.6105 293.938C81.5644 294.83 82.4056 299.563 81.7806 302.875C81.5876 303.901 81.5211 304.953 81.3906 305.988Z" fill="#88A08A"/>
<path d="M57.0662 334.314C55.2277 369.898 62.621 402.261 91.5008 426.001C103.346 435.739 118.037 440.827 132.547 445.64C134.107 446.159 136.277 446.566 137.327 444.893C138.839 442.493 136.522 441.297 135.12 439.841C126.468 430.85 117.055 422.441 109.441 412.638C101 402.042 93.8292 390.493 88.0743 378.229C80.3052 361.139 73.1651 343.846 68.9415 325.473C67.8812 322.534 67.3539 319.429 67.3848 316.304C67.5803 314.67 67.8348 312.546 65.4313 312.221C64.9937 312.171 64.5503 312.208 64.1273 312.331C63.7043 312.454 63.3102 312.66 62.9675 312.937C62.6249 313.213 62.3408 313.556 62.1317 313.943C61.9226 314.331 61.7927 314.757 61.7496 315.195C61.0137 321.825 57.0558 327.601 57.0662 334.314ZM69.2202 387.868C65.7514 385.46 65.3326 381.778 64.5497 378.178C68.0228 376.067 70.7396 376.766 74.2086 379.063C71.3942 381.309 71.3051 384.719 69.7171 387.519C70.9669 388.906 73.1547 389.418 73.6282 391.709C70.2436 392.511 69.6422 390.295 69.2202 387.868Z" fill="#88A08A"/>
<path d="M214.916 410.704C217.33 407.886 218.972 404.49 219.68 400.847C222.713 386.492 221.812 371.585 217.07 357.7C211.278 341.179 204.37 325.36 193.307 311.627C178.458 293.199 159.05 281.449 137.092 273.5C133.51 272.205 129.847 271.165 126.179 270.165C125.537 269.881 124.815 269.836 124.144 270.038C123.472 270.24 122.894 270.676 122.516 271.266C121.492 273.283 123.037 274.43 124.41 275.52C124.689 275.727 124.996 275.893 125.323 276.012C146.263 284.327 158.529 302.031 170.756 319.271C180.518 332.779 189.305 346.964 197.051 361.72C204.72 376.628 211.314 391.86 212.964 408.791C213.014 409.276 213.838 409.676 214.916 410.704Z" fill="#88A08A"/>
<path d="M202.58 562.204C202.343 564.185 202.19 565.209 202.097 566.24C201.89 568.688 201.629 571.398 204.468 572.424C207.715 573.597 210.577 572.035 213.026 569.996C215.475 567.956 214.178 565.647 213.088 563.457C212.662 562.513 212.163 561.603 211.595 560.737C210.019 558.528 208.634 555.516 205.343 556.252C201.699 557.069 202.931 560.63 202.58 562.204Z" fill="#5F4B4A"/>
<path d="M187.963 589.786C185.224 593.284 185.701 596.887 185.178 600.21C184.792 602.683 185.045 605.228 187.906 606.234C188.891 606.591 189.953 606.68 190.983 606.491C192.014 606.303 192.975 605.844 193.77 605.162C194.752 604.42 195.461 603.372 195.784 602.185C196.108 600.997 196.028 599.736 195.557 598.598C195.063 596.64 194.119 594.824 192.801 593.295C191.483 591.765 189.827 590.564 187.963 589.786Z" fill="#5F4B4A"/>
<path d="M101.639 184.396C103.197 190.103 106.768 195.053 111.692 198.332C114.762 200.598 117.914 202.749 120.988 205.01C125.865 208.603 127.288 208.379 130.53 203.109C134.218 197.106 134.902 190.002 137.569 183.603C137.744 183.298 137.84 182.954 137.849 182.603C137.859 182.251 137.78 181.902 137.622 181.589C137.463 181.275 137.23 181.005 136.941 180.804C136.653 180.602 136.319 180.476 135.97 180.435C135.458 180.382 134.945 180.515 134.524 180.811C134.104 181.107 133.804 181.546 133.682 182.045C132.799 184.292 132.047 186.588 131.429 188.921C130.91 192.457 129.164 195.698 126.497 198.078C120.074 187.452 120.153 174.217 111.882 163.093C110.151 170.343 114.428 174.647 115.522 179.62C116.707 185.001 118.45 190.259 120.198 196.447C111.483 196.625 109.469 188.129 101.639 184.396Z" fill="#FAECE5"/>
<path d="M196.698 657.648C200.81 658.186 204.922 659.608 209.096 658.621C211.06 658.155 213.308 657.722 214.098 655.397C215.034 652.664 213.356 650.744 211.742 648.922C211.133 648.067 210.245 647.45 209.232 647.175C200.961 646.832 192.681 646.534 184.406 646.556C182.544 646.553 181.81 648.663 181.708 650.491C181.51 651.718 181.77 652.975 182.437 654.023C183.105 655.071 184.134 655.837 185.33 656.176C189.087 656.884 192.883 657.376 196.698 657.648Z" fill="#ACBD82"/>
<path d="M161.737 649.66C165.26 649.758 168.194 650.613 168.647 647.123C168.998 644.424 166.413 644.218 164.525 643.394C156.929 640.091 148.438 639.271 141.216 634.921C140.915 634.741 140.582 634.623 140.235 634.572C139.889 634.522 139.536 634.54 139.196 634.627C138.857 634.713 138.537 634.865 138.257 635.075C137.976 635.285 137.74 635.548 137.561 635.849C137.309 636.205 137.142 636.615 137.072 637.046C137.002 637.477 137.032 637.918 137.159 638.336C137.285 638.754 137.506 639.138 137.803 639.458C138.1 639.778 138.466 640.026 138.874 640.183C146.168 644.079 153.825 647.253 161.737 649.66Z" fill="#ACBD82"/>
<path d="M141.612 549.266C137.788 544.17 141.083 536.672 135.483 531.713C133.07 535.646 135.558 539.236 135.54 542.751C135.505 549.562 133.823 550.794 127.437 548.001C125.557 547.061 123.732 546.017 121.968 544.874C118.861 547.782 120.353 550.102 122.924 551.583C128.016 554.534 133.341 557.087 138.58 559.785C139.296 560.301 140.188 560.515 141.06 560.378C141.933 560.241 142.716 559.765 143.24 559.054C146.509 553.776 150.258 548.682 151.684 542.493C151.73 541.997 151.662 541.496 151.487 541.029C151.312 540.562 151.033 540.141 150.672 539.798C149.23 538.599 148.069 539.871 147.244 540.891C145.122 543.469 145.261 547.561 141.612 549.266Z" fill="#FBF4F0"/>
<path d="M133.749 340.263C139.534 346.317 144.939 346.528 151.355 346.57C146.354 341.622 140.854 340.962 133.749 340.263Z" fill="#A5C9BF"/>
<path d="M130.568 313.664C128.921 311.783 128.424 310.77 127.621 310.386C125.337 309.27 123.382 306.667 120.356 308.31C120.133 308.522 119.969 308.787 119.878 309.08C119.787 309.374 119.773 309.686 119.836 309.987C120.572 311.118 121.551 312.072 122.7 312.779C123.849 313.487 125.141 313.931 126.483 314.079C127.855 314.08 129.224 313.941 130.568 313.664Z" fill="#A5C9BF"/>
<path d="M69.7254 387.519C71.3085 384.723 71.3972 381.313 74.2116 379.067C70.7491 376.771 68.0257 376.071 64.5527 378.182C65.3299 381.792 65.7544 385.464 69.2232 387.872L69.7254 387.519Z" fill="#A5C9BF"/>
<path d="M69.2114 387.87C69.6334 390.297 70.2348 392.512 73.6194 391.71C73.1459 389.42 70.9581 388.908 69.7107 387.519L69.2114 387.87Z" fill="#A5C9BF"/>
</svg>
