<svg width="235" height="785" viewBox="0 0 235 785" fill="none" xmlns="http://www.w3.org/2000/svg">
<path d="M511.062 556.458C518.212 661.926 521.786 714.659 490.403 748.401C459.019 782.143 406.013 782.391 300 782.889L260.304 783.075C159.92 783.547 109.728 783.782 78.3963 752.743C47.0646 721.704 46.829 671.513 46.3578 571.129L45.0014 282.193C44.5301 181.809 44.2945 131.617 75.3334 100.285C106.372 68.9535 156.564 68.7179 256.948 68.2466L283.05 68.1241C392.915 67.6083 447.848 67.3504 479.509 100.514C511.171 133.677 508.246 190.978 502.395 305.581C500.072 351.069 499.245 393.545 501.539 422.809C504.095 455.402 507.555 504.722 511.062 556.458Z" fill="#F1E0D0"/>
<g clipPath="url(#clip0_848_7179)">
<path d="M196.477 379.024C127.335 408.759 -2.11956 357.065 21.856 266.806C33.6765 222.271 84.9508 217.848 97.7252 181.902C108.458 151.704 84.3684 123.699 101.614 94.2895C111.083 78.1432 124.47 76.297 141.374 76.4432C143.685 76.4634 146.628 77.1964 149.117 77.1863C150.559 77.168 151.821 76.8869 152.574 76.8976C162.782 76.9181 165.991 76.5454 174.719 74.3086C175.448 74.1183 188.403 75.4828 189.79 75.7926C212.475 81.0843 220.333 108.374 219.052 128.88C217.702 150.783 204.327 171.912 207.985 194.071C210.823 211.133 228.531 224.951 238.876 238.167C278.164 288.379 252.036 355.086 196.408 379.008L196.477 379.024Z" fill="#E8A423"/>
<path d="M174.775 74.2967C166.041 76.5566 162.837 76.9063 152.63 76.8858C151.877 76.8751 150.586 77.1736 149.172 77.1744C146.678 77.2076 143.712 76.469 141.43 76.4313C149.067 59.0883 137.074 47.3529 132.896 32.8196C128.67 18.1775 143.506 28.2329 151.531 26.485C156.682 25.3367 165.19 14.906 169.453 21.3922C176.291 31.7643 178.474 62.172 174.832 74.2617L174.775 74.2967Z" fill="#A75B48"/>
<path d="M112.455 370.758C82.2628 362.026 60.2048 323.054 63.6 292.455C68.0584 252.581 107.463 228.823 117.526 190.372L119.492 189.091L123.137 189.846C121.014 200.181 113.315 209.076 108.135 218.237C88.9521 252.152 58.9445 275.247 70.4393 320.23C74.7586 337.113 86.3394 348.334 100.36 358.535C105.01 361.897 115.533 364.553 112.432 370.752L112.455 370.758Z" fill="#C0812B"/>
<path d="M134.983 351.079C129.087 347.928 122.237 327.487 120.581 320.8C110.129 278.774 142.251 252.971 148.397 214.795C148.855 211.98 146.079 197.395 150.195 197.508C154.07 197.613 153.304 208.689 152.936 211.33C147.691 250.624 103.769 299.52 131.489 338.562C132.926 340.59 139.315 346.345 139.475 346.896C140.192 349.384 137.957 352.696 134.954 351.096L134.983 351.079Z" fill="#C0812B"/>
<path d="M172.482 351.75C169.794 352.687 163.512 352.661 165.279 348.967C165.618 348.269 177.641 345.607 180.125 343.694C203.573 325.771 207.628 283.119 199.45 256.655C198.066 252.178 191.119 244.387 190.694 241.19C190.449 239.376 190.821 237.223 192.775 237.206C195.441 237.166 196.631 240.523 197.694 242.388C214.886 272.412 209.475 338.916 172.482 351.75Z" fill="#C0812B"/>
<path d="M172.667 169.87L171.966 169.945C170.347 170.091 169.07 168.613 169.447 167.047C175.477 142.005 180.416 107.219 154.778 92.7341C153.726 92.1398 153.313 90.8215 153.797 89.7195C154.316 88.577 155.645 88.0195 156.827 88.4747C186.388 99.9311 181.821 142.582 174.733 168.173C174.482 169.112 173.638 169.786 172.667 169.87Z" fill="#C0812B"/>
<path d="M83.2237 219.235C82.0059 223.28 59.9999 233.288 55.1325 241.963C52.9591 245.826 53.9591 255.744 46.7684 253.013C47.5618 245.77 50.5467 241.37 55.1682 236.146C58.0481 232.891 79.9189 213.93 82.4931 215.183C83.6948 216.57 83.7716 217.466 83.2468 219.24L83.2237 219.235Z" fill="#C0812B"/>
<path d="M81.5766 234.51C64.0298 243.105 63.8316 257.999 61.4184 262.049L57.4329 261.089C52.7534 256.33 72.7156 233.351 77.2542 230.496C81.3871 227.908 85.5542 232.567 81.5766 234.51Z" fill="#C0812B"/>
<path d="M191.62 118.984L190.652 118.751C189.259 118.464 188.208 117.26 188.236 115.829C188.306 109.363 185.092 101.959 180.91 97.4666C177.678 93.983 170.186 91.594 171.441 87.899C171.956 86.3657 173.744 85.7237 175.266 86.2852C182.329 88.8389 185.245 97.0726 187.985 103.509C189.229 106.441 196.53 118.533 191.666 118.995L191.62 118.984Z" fill="#C0812B"/>
</g>
<g clipPath="url(#clip1_848_7179)">
<path d="M328.901 355.41C320.38 355.622 314.663 353.508 311.092 351.651C305.704 348.841 244.954 313.943 236.988 254.29C227.224 181.182 286.168 112.451 356.278 104.08C357.708 103.916 363.265 103.391 368.434 103.782C368.322 103.896 368.217 103.993 368.137 104.081C368.213 104.094 368.264 104.117 368.316 104.14C368.333 104.148 368.388 104.254 368.426 104.353C369.139 104.322 369.892 104.431 370.672 104.573C372.086 104.627 373.605 104.954 374.93 105.256C374.958 105.146 374.96 105.003 374.987 104.851C380.103 106.101 385.208 108.251 388.511 109.742C446.761 135.946 471.872 206.068 449.864 264.681C431.313 314.191 382.311 354.128 328.918 355.418L328.901 355.41Z" fill="#FAA21B"/>
<path d="M418.554 301.4C416.854 303.602 415.044 305.775 413.163 307.875C412.557 308.591 411.941 309.282 411.283 309.976C410.009 311.36 408.708 312.712 407.373 314.049C406.48 314.946 405.611 315.791 404.716 316.646C403.53 317.741 402.361 318.843 401.157 319.93C401.15 319.947 401.133 319.94 401.133 319.94C400.421 320.568 399.685 321.206 398.957 321.827C397.524 323.058 396.024 324.26 394.53 325.444C393.775 326.032 393.02 326.62 392.248 327.201C391.493 327.789 390.72 328.37 389.914 328.935C387.578 330.627 385.181 332.272 382.704 333.819C380.244 335.374 377.721 336.839 375.13 338.274C371.293 340.428 367.354 342.352 363.348 344.101C354.258 348.086 340.707 353.64 329.35 354.315C329.35 354.315 329.31 354.358 329.275 354.343C325.655 354.58 322.238 354.271 319.286 353.285C318.466 353.002 317.454 352.552 316.326 351.947C306.222 346.482 285.937 328.39 274.922 311.816C274.526 311.229 274.13 310.642 273.751 310.062C267.885 300.712 263.264 290.642 259.936 280.162C259.287 278.065 258.67 275.942 258.113 273.824C257.839 272.777 257.573 271.714 257.307 270.65C256.057 265.287 255.141 259.866 254.576 254.396C254.22 251.135 254.004 247.834 253.931 244.535C253.875 242.353 253.877 240.135 253.912 237.932C253.961 236.023 254.044 234.129 254.203 232.248C254.228 231.684 254.286 231.093 254.336 230.519C254.472 228.875 254.633 227.221 254.828 225.582C254.878 225.009 254.97 224.433 255.037 223.867C255.561 220.012 256.255 216.192 257.178 212.412C257.449 211.156 257.795 209.872 258.133 208.605L258.156 208.554C268.611 169.84 298.09 135.714 333.203 116.999C333.695 116.725 334.246 116.457 334.812 116.154C335.658 115.73 336.629 115.258 337.609 114.811C338.12 114.587 338.663 114.335 339.165 114.086C340.236 113.618 341.365 113.114 342.494 112.61C343.649 112.138 344.854 111.648 346.067 111.14C346.679 110.919 347.281 110.674 347.901 110.436C355.329 107.601 363.243 105.29 368.197 105.565C370.387 105.677 372.72 106.161 375.11 106.979C385.67 110.448 397.899 119.633 406.677 127.752C408.113 129.049 409.449 130.343 410.647 131.575C411.061 131.985 411.474 132.395 411.828 132.799C411.828 132.799 411.821 132.816 411.838 132.824C412.348 133.339 412.859 133.854 413.301 134.338C414.415 135.574 415.505 136.819 416.536 138.059C417.601 139.314 418.623 140.571 419.597 141.846C420.248 142.691 420.909 143.561 421.536 144.415C423.048 146.465 424.471 148.577 425.829 150.743C429.455 156.446 432.607 162.431 435.528 168.888C456.393 214.665 447.424 264.579 418.523 301.469L418.554 301.4Z" fill="#FAA21B"/>
<path d="M442.383 190.06C439.462 183.603 435.996 164.617 425.244 145.469C420.886 137.715 405.259 125.272 403.822 123.975C395.045 115.855 385.646 110.376 375.086 106.906C372.671 106.098 370.363 105.605 368.173 105.492C363.219 105.218 359.041 107.815 351.596 110.643C350.976 110.881 333.646 116.662 333.154 116.936C298.051 135.676 273.431 144.765 260.727 182.806C249.762 215.601 238.585 256.212 254.922 286.311C266.915 308.394 306.21 346.476 316.306 351.958C317.409 352.572 318.421 353.023 319.265 353.296C322.242 354.272 325.643 354.574 329.255 354.354C329.272 354.362 329.329 354.326 329.329 354.326C340.704 353.659 354.237 348.097 363.328 344.113C367.309 342.372 371.222 340.416 375.077 338.312L375.094 338.319C377.701 336.85 380.206 335.377 382.683 333.83C385.16 332.283 387.557 330.638 389.893 328.946C390.7 328.381 391.472 327.8 392.227 327.212C393 326.631 393.755 326.043 394.51 325.455C396.02 324.278 397.487 323.062 398.936 321.838C399.648 321.209 400.384 320.571 401.112 319.951C401.112 319.951 401.129 319.958 401.137 319.941C402.341 318.854 403.527 317.759 404.696 316.657C405.583 315.819 406.46 314.957 407.337 314.094C408.68 312.74 409.981 311.388 411.262 309.987C411.92 309.294 412.537 308.602 413.143 307.886C415.007 305.778 416.817 303.605 418.533 301.411C447.434 264.522 463.223 235.846 442.358 190.069L442.383 190.06ZM368.394 134.352C367.6 146.798 361.085 170.707 357.99 183.751C347 229.848 331.738 274.927 322.712 321.508C322.414 323.101 320.764 338.391 319.583 337.721C318.412 330.749 322.731 292.015 324.929 282.927C330.071 261.591 336.028 240.412 341.715 219.195C347.536 197.442 356.191 174.958 359.737 152.686C359.965 151.205 362.137 128.649 361.682 123.393C367.212 123.944 368.69 129.533 368.394 134.352Z" fill="#FFC932"/>
</g>
<g clipPath="url(#clip2_848_7179)">
<path d="M204.809 475.887C206.123 476.149 207.644 476.468 208.977 476.994C209.746 477.182 210.479 477.388 211.117 477.707C211.192 477.632 211.267 477.557 211.305 477.557C211.361 477.557 211.417 477.557 211.493 477.576C211.436 477.463 211.38 477.332 211.342 477.182C210.554 475.267 209.465 470.444 215.736 465.621C216.9 464.701 215.341 460.91 211.098 460.009C209.052 463.031 205.86 472.583 204.94 475.492C204.921 475.643 204.865 475.774 204.827 475.887H204.809Z" fill="#65A042"/>
<path d="M145.063 723.115C152.761 726.775 158.844 727.169 162.862 726.925C168.926 726.55 238.619 719.38 270.161 668.126C308.819 605.31 282.928 518.546 222.285 482.381C221.046 481.649 216.183 478.909 211.302 477.163C211.358 477.313 211.414 477.445 211.452 477.557C211.377 477.539 211.32 477.539 211.264 477.539C211.245 477.539 211.151 477.614 211.076 477.689C210.438 477.37 209.706 477.163 208.936 476.976C207.622 476.45 206.101 476.131 204.768 475.868C204.787 475.756 204.843 475.624 204.881 475.474C199.699 474.536 194.16 474.423 190.536 474.442C126.664 474.686 75.2016 528.531 71.4654 591.027C68.2737 643.803 96.7929 700.218 145.045 723.115H145.063Z" fill="#FAA21B"/>
<path d="M211.285 477.538C211.285 477.538 211.398 477.538 211.473 477.557C211.416 477.444 211.36 477.313 211.322 477.163C210.553 476.881 209.764 476.637 209.013 476.431C207.699 476.036 206.328 475.755 204.939 475.492C204.92 475.642 204.864 475.774 204.826 475.886C206.141 476.149 207.661 476.468 208.994 476.994C209.764 477.181 210.496 477.388 211.135 477.707C211.21 477.632 211.285 477.557 211.322 477.557L211.285 477.538Z" fill="#FAA21B"/>
<path d="M85.1312 637.308C85.7883 640.011 86.5581 642.732 87.4218 645.416C87.6846 646.317 87.9662 647.199 88.2854 648.1C88.8862 649.883 89.5246 651.647 90.2005 653.411C90.6511 654.593 91.1017 655.719 91.571 656.864C92.2094 658.347 92.829 659.83 93.4861 661.312C93.4861 661.331 93.5049 661.331 93.5049 661.331C93.8991 662.194 94.3122 663.076 94.7253 663.94C95.5326 665.648 96.415 667.355 97.2974 669.045C97.748 669.889 98.1986 670.734 98.668 671.578C99.1186 672.423 99.588 673.267 100.095 674.112C101.541 676.608 103.061 679.085 104.695 681.506C106.309 683.927 108.018 686.292 109.802 688.657C112.43 692.185 115.246 695.545 118.194 698.773C124.878 706.111 134.998 716.696 145.099 721.932C145.099 721.932 145.117 721.988 145.155 721.988C148.365 723.678 151.613 724.785 154.711 725.085C155.575 725.16 156.683 725.16 157.959 725.066C169.412 724.184 195.303 715.908 212.107 705.248C212.707 704.872 213.308 704.497 213.89 704.122C223.052 697.966 231.37 690.646 238.673 682.426C240.119 680.774 241.546 679.085 242.916 677.377C243.592 676.533 244.268 675.67 244.944 674.806C248.267 670.415 251.309 665.835 254.05 661.068C255.702 658.234 257.242 655.307 258.65 652.322C259.589 650.352 260.49 648.325 261.353 646.298C262.086 644.534 262.78 642.77 263.4 640.987C263.606 640.461 263.794 639.898 263.982 639.354C264.526 637.796 265.052 636.22 265.54 634.643C265.728 634.099 265.878 633.536 266.047 632.992C267.136 629.257 268.056 625.484 268.751 621.656C269.014 620.398 269.22 619.085 269.427 617.79V617.733C275.622 578.115 262.574 534.949 238.11 503.569C237.772 503.118 237.378 502.649 236.983 502.143C236.383 501.411 235.688 500.585 234.974 499.778C234.599 499.365 234.205 498.915 233.848 498.483C233.059 497.62 232.233 496.7 231.407 495.78C230.544 494.879 229.642 493.941 228.741 492.984C228.272 492.533 227.821 492.064 227.352 491.595C221.719 485.984 215.43 480.653 210.792 478.889C208.746 478.101 206.418 477.594 203.902 477.369C192.843 476.243 177.936 479.659 166.615 483.506C164.775 484.107 163.029 484.745 161.433 485.383C160.888 485.589 160.344 485.796 159.856 486.021C159.856 486.021 159.856 486.04 159.837 486.04C159.161 486.303 158.485 486.565 157.884 486.828C156.364 487.504 154.862 488.198 153.416 488.911C151.933 489.624 150.487 490.356 149.079 491.126C148.14 491.633 147.183 492.158 146.263 492.684C144.047 493.941 141.888 495.292 139.766 496.719C134.134 500.453 128.821 504.639 123.526 509.349C85.8447 542.681 73.7348 591.928 85.1312 637.383V637.308Z" fill="#FAA21B"/>
<path d="M104.717 681.507C106.332 683.928 108.041 686.293 109.824 688.657C108.041 686.293 106.351 683.928 104.717 681.507Z" fill="#FFC932"/>
<path d="M85.1391 637.308C85.7963 640.011 86.566 642.732 87.4297 645.416C86.5848 642.732 85.815 640.011 85.1391 637.308Z" fill="#FFC932"/>
<path d="M108.653 525.903C113.947 521.193 124.837 505.259 142.448 492.14C149.582 486.829 168.92 481.818 170.76 481.217C182.082 477.37 192.896 476.187 203.954 477.313C206.489 477.557 208.798 478.045 210.845 478.834C215.482 480.598 218.242 484.67 223.893 490.282C224.363 490.751 237.843 503.082 238.181 503.532C262.626 534.931 281.42 553.248 277.552 593.167C274.229 627.587 267.921 669.233 240.753 690.084C220.814 705.38 169.427 724.185 157.974 725.086C156.717 725.198 155.609 725.198 154.726 725.105C151.61 724.785 148.38 723.678 145.17 722.008C145.151 722.008 145.114 721.952 145.114 721.952C134.994 716.715 124.893 706.13 118.209 698.792C115.28 695.583 112.501 692.205 109.835 688.714H109.817C108.033 686.312 106.343 683.947 104.71 681.526C103.076 679.105 101.556 676.627 100.11 674.131C99.603 673.287 99.1336 672.442 98.683 671.598C98.2136 670.753 97.763 669.908 97.3124 669.064C96.4112 667.375 95.5663 665.667 94.7402 663.959C94.346 663.096 93.9329 662.214 93.5199 661.35C93.5199 661.35 93.5011 661.35 93.5011 661.332C92.844 659.849 92.2056 658.366 91.5861 656.884C91.1167 655.758 90.6661 654.613 90.2155 653.468C89.5396 651.685 88.9012 649.921 88.3004 648.119C87.9813 647.218 87.6996 646.336 87.4368 645.435C86.5919 642.751 85.8221 640.03 85.1462 637.328C73.7498 591.872 70.9899 559.254 108.671 525.922L108.653 525.903ZM198.904 505.109C194.567 516.801 190.793 541.293 188.315 554.468C179.603 601.049 175.21 648.438 164.508 694.663C164.133 696.24 159.42 710.879 160.772 710.747C164.677 704.854 176.487 667.713 178.176 658.516C182.157 636.933 185.33 615.163 188.765 593.467C192.295 571.227 193.534 547.167 199.355 525.378C199.749 523.933 206.94 502.444 209.493 497.827C204.217 496.081 200.594 500.585 198.904 505.109Z" fill="#FFC932"/>
<path d="M160.775 710.729C164.68 704.836 176.49 667.694 178.179 658.498C182.16 636.915 185.333 615.144 188.768 593.449C192.298 571.209 193.537 547.149 199.358 525.359C199.752 523.914 206.943 502.425 209.496 497.808C204.22 496.063 200.597 500.567 198.907 505.09C194.57 516.782 190.796 541.274 188.318 554.449C179.606 601.031 175.213 648.42 164.511 694.645C164.136 696.221 159.423 710.86 160.775 710.729Z" fill="#FFC932"/>
<path d="M109.815 688.695C112.443 692.205 115.259 695.564 118.207 698.774C115.278 695.564 112.499 692.186 109.833 688.695H109.815Z" fill="#FFC932"/>
<path d="M160.775 710.729C164.68 704.836 176.49 667.694 178.179 658.498C182.16 636.915 185.333 615.144 188.768 593.449C192.298 571.209 193.537 547.149 199.358 525.359C199.752 523.914 206.943 502.425 209.496 497.808C204.22 496.063 200.597 500.567 198.907 505.09C194.57 516.782 190.796 541.274 188.318 554.449C179.606 601.031 175.213 648.42 164.511 694.645C164.136 696.221 159.423 710.86 160.775 710.729Z" fill="#FFE469"/>
<path d="M173.408 504.377C179.679 518.696 180.561 504.189 175.417 503.701C174.553 503.626 173.934 503.588 173.408 504.377Z" fill="#FAA21B"/>
<path d="M173.206 517.383C179.833 520.986 174.952 511.565 170.99 511.189C168.587 511.321 171.384 516.369 173.206 517.383Z" fill="#FAA21B"/>
<path d="M172.303 508.975C173.166 507.154 172.378 502.162 169.674 502.368C169.224 502.425 168.867 502.518 168.604 502.706L168.36 502.95C166.914 504.602 169.843 509.312 172.303 508.975Z" fill="#FAA21B"/>
<path d="M166.357 520.217C165.831 522.619 170.3 527.086 172.309 526.617C174.205 526.204 170.356 519.616 167.915 519.56C167.127 519.56 166.864 519.56 166.357 520.217Z" fill="#FAA21B"/>
<path d="M170.132 534.123C170.977 532.34 166.358 527.704 165.269 527.517C159.449 526.522 166.64 535.512 170.132 534.123Z" fill="#FAA21B"/>
<path d="M168.785 516.032C170.1 515.3 166.176 510.589 164.843 510.326C158.29 508.956 164.561 517.758 168.785 516.032Z" fill="#FAA21B"/>
<path d="M158.884 536.094C158.696 539.773 162.545 542.944 166.15 542.944C166.751 540.373 162.095 535.681 159.954 535.888C159.56 535.906 159.109 535.737 158.884 536.094Z" fill="#FAA21B"/>
<path d="M164.388 522.675C165.777 521.643 162.041 516.181 160.407 516.05C159.3 515.975 159.093 516.463 158.436 517.157C156.728 519.522 162.998 523.688 164.388 522.694V522.675Z" fill="#FAA21B"/>
<path d="M163.929 551.765C164.793 549.231 160.137 544.952 158.184 544.708C151.782 543.92 160.794 552.703 163.929 551.765Z" fill="#FAA21B"/>
<path d="M160.856 529.732C162.358 527.892 158.152 523.332 156.876 523.107C150.924 521.999 156.801 530.876 160.856 529.732Z" fill="#FAA21B"/>
<path d="M161.066 557.715C161.461 556.814 155.753 553.643 155.115 553.53C143.775 551.503 155.49 561.638 161.066 557.715Z" fill="#FAA21B"/>
<path d="M154.676 538.102C160.609 538.74 154.019 531.439 151.597 531.496C147.598 531.552 151.484 537.764 154.676 538.102Z" fill="#FAA21B"/>
<path d="M159.748 574.455C160.029 573.517 154.341 570.42 153.345 570.27C142.493 568.637 154.979 578.359 159.748 574.455Z" fill="#FAA21B"/>
<path d="M157.975 565.634C158.088 564.921 152.136 561.58 151.122 561.449C140.909 560.229 152.756 569.894 157.975 565.634Z" fill="#FAA21B"/>
<path d="M143.864 589.001C148.07 594.218 161.719 588.4 150.717 587.03C148.408 586.749 145.366 586.974 143.864 589.001Z" fill="#FAA21B"/>
<path d="M154.245 547.337C155.859 546.098 151.109 540.974 149.382 540.73C142.322 539.792 150.508 548.594 154.245 547.337Z" fill="#FAA21B"/>
<path d="M140.784 596.92C143.657 600.054 149.139 600.918 152.688 598.684C152.688 598.365 147.393 595.475 146.736 595.4C144.764 595.137 142.267 595.869 140.784 596.92Z" fill="#FAA21B"/>
<path d="M139.017 618.992C142.265 621.807 147.147 621.919 150.92 619.855C151.127 618.954 145.25 617.04 144.518 616.983C142.735 616.927 140.144 617.659 139.017 618.992Z" fill="#FAA21B"/>
<path d="M149.61 556.813C150.211 555.744 144.766 552.29 143.658 552.215C136.393 551.559 144.879 560.83 149.61 556.813Z" fill="#FAA21B"/>
<path d="M147.844 570.926C147.844 570.288 143.601 567.736 142.756 567.642C133.537 566.347 141.855 576.726 147.844 570.926Z" fill="#FAA21B"/>
<path d="M144.312 682.032C144.312 682.032 143.28 680.962 143.205 680.925C137.197 679.048 136.971 694.456 144.312 682.032Z" fill="#FAA21B"/>
<path d="M146.957 627.362L145.849 626.705C130.191 627.38 138.734 637.252 146.957 627.362Z" fill="#FAA21B"/>
<path d="M139.017 608.857C139.261 610.358 150.32 612.104 151.371 609.72C151.352 609.307 146.583 606.961 145.832 606.849C144.65 606.661 138.679 606.849 139.017 608.857Z" fill="#FAA21B"/>
<path d="M145.422 663.284L144.971 662.383C131.359 662.627 137.574 673.156 145.422 663.284Z" fill="#FAA21B"/>
<path d="M144.762 577.101C144.762 576.444 140.706 574.736 140.124 574.68C129.479 573.498 139.223 583.782 144.762 577.101Z" fill="#FAA21B"/>
<path d="M145.628 585.021C145.703 584.496 140.934 581.831 140.127 581.737C129.913 580.311 139.883 590.633 145.628 585.021Z" fill="#FAA21B"/>
<path d="M145.848 636.389L145.435 635.526C129.551 635.638 136.122 646.336 145.848 636.389Z" fill="#FAA21B"/>
<path d="M137.255 676.289C139.396 678.898 148.032 671.578 144.972 670.79C142.869 670.246 135.753 674.468 137.255 676.289Z" fill="#FAA21B"/>
<path d="M136.37 702.733C137.422 706.393 143.749 699.317 141.909 698.097C140.688 697.309 135.638 700.124 136.37 702.733Z" fill="#FAA21B"/>
<path d="M134.61 648.964C136.825 652.342 147.039 645.867 144.091 644.779C140.449 644.385 136.431 645.417 134.61 648.964Z" fill="#FAA21B"/>
<path d="M135.933 656.883C136.459 659.811 146.316 656.733 145.414 653.148C143.575 652.21 135.539 654.706 135.933 656.883Z" fill="#FAA21B"/>
<path d="M134.601 697.009C136.911 699.805 143.895 690.872 142.769 690.159C141.548 689.427 132.743 694.682 134.601 697.009Z" fill="#FAA21B"/>
<path d="M141.668 591.628C141.668 591.309 137.556 588.437 137.068 588.343C127.249 586.335 134.458 597.427 141.668 591.628Z" fill="#FAA21B"/>
<path d="M140.348 601.35C140.329 601.143 137.006 599.435 136.611 599.379C126.229 597.727 132.838 609.401 140.348 601.35Z" fill="#FAA21B"/>
<path d="M131.532 691.266C133.09 694.457 140.769 687.55 137.07 686.63C135.061 686.161 130.48 689.07 131.532 691.266Z" fill="#FAA21B"/>
<path d="M138.137 612.385C138.118 612.009 134.87 610.471 134.4 610.377C123.023 608.5 131.002 619.742 138.137 612.385Z" fill="#FAA21B"/>
<path d="M136.371 628.244C136.258 627.718 133.536 626.742 133.085 626.686C122.703 625.522 131.208 636.539 136.371 628.244Z" fill="#FAA21B"/>
<path d="M130.646 684.66C133.143 687.587 139.338 680.887 137.048 680.024C134.156 678.954 128.956 682.689 130.646 684.66Z" fill="#FAA21B"/>
<path d="M130.212 621.619C132.164 625.279 142.246 620.005 136.614 618.748C134.793 618.354 129.367 618.898 130.212 621.619Z" fill="#FAA21B"/>
<path d="M129.987 676.946C132.597 677.866 138.473 672.104 136.145 671.203C132.503 669.814 126.326 675.67 129.987 676.946Z" fill="#FAA21B"/>
<path d="M129.555 639.486C133.873 640.668 139.149 635.826 132.634 635.056C127.997 634.512 125.481 638.341 129.555 639.486Z" fill="#FAA21B"/>
<path d="M125.782 647.613C128.016 651.948 137.798 646.055 132.184 644.779C129.913 644.253 126.045 644.629 125.782 647.613Z" fill="#FAA21B"/>
<path d="M127.995 657.784C129.422 660.862 139.316 654.2 134.397 653.149C131.975 652.623 126.812 655.194 127.995 657.784Z" fill="#FAA21B"/>
<path d="M127.999 667.019C130.74 670.04 137.931 663.227 135.715 662.383C132.88 661.332 126.234 665.067 127.999 667.019Z" fill="#FAA21B"/>
<path d="M184.211 491.371C187.084 492.178 184.624 504.246 182.69 509.2C182.634 509.35 182.578 509.482 182.54 509.613C167.82 545.929 156.555 586.073 151.843 625.148C149.665 643.071 149.928 692.881 141.254 705.38C137.048 711.461 133.012 698.905 131.979 695.696C124.488 672.274 116.602 644.685 128.224 571.866C140.897 492.478 181.301 490.545 184.211 491.371ZM129.557 639.486C133.875 640.669 139.151 635.827 132.636 635.057C127.999 634.513 125.483 638.341 129.557 639.486ZM145.422 653.149C143.582 652.211 135.546 654.707 135.941 656.884C136.466 659.812 146.323 656.734 145.422 653.149ZM145.422 663.284L144.971 662.383C131.359 662.627 137.574 673.156 145.422 663.284ZM144.089 644.779C140.447 644.385 136.429 645.417 134.608 648.964C136.823 652.342 147.037 645.867 144.089 644.779ZM134.401 653.149C131.979 652.624 126.816 655.195 127.999 657.785C129.426 660.863 139.32 654.2 134.401 653.149ZM136.372 628.244C136.26 627.719 133.537 626.743 133.087 626.687C122.704 625.523 131.209 636.54 136.372 628.244ZM136.598 618.748C134.776 618.354 129.351 618.898 130.195 621.619C132.148 625.279 142.23 620.005 136.598 618.748ZM138.137 612.386C138.118 612.01 134.87 610.471 134.401 610.377C123.023 608.501 131.003 619.743 138.137 612.386ZM140.353 601.35C140.334 601.144 137.011 599.436 136.616 599.38C126.234 597.728 132.843 609.402 140.353 601.35ZM141.667 591.628C141.667 591.309 137.555 588.438 137.067 588.344C127.248 586.336 134.457 597.428 141.667 591.628ZM140.127 581.738C129.914 580.311 139.883 590.634 145.628 585.022C145.704 584.497 140.935 581.832 140.127 581.738ZM144.765 577.102C144.765 576.445 140.709 574.737 140.127 574.681C129.482 573.499 139.226 583.784 144.765 577.102ZM147.844 570.928C147.844 570.289 143.601 567.737 142.756 567.643C133.537 566.348 141.855 576.727 147.844 570.928ZM157.982 565.635C158.095 564.922 152.143 561.581 151.13 561.45C140.916 560.23 152.763 569.895 157.982 565.635ZM149.609 556.814C150.21 555.744 144.765 552.291 143.657 552.216C136.391 551.559 144.877 560.831 149.609 556.814ZM154.246 547.336C155.861 546.098 151.111 540.974 149.383 540.73C142.324 539.792 150.51 548.594 154.246 547.336ZM154.678 538.103C160.611 538.741 154.021 531.44 151.599 531.496C147.6 531.553 151.486 537.765 154.678 538.103ZM160.855 529.732C162.357 527.893 158.151 523.332 156.875 523.107C150.923 522 156.8 530.877 160.855 529.732ZM160.404 516.032C159.297 515.957 159.09 516.445 158.433 517.139C156.724 519.504 162.995 523.67 164.385 522.676C165.774 521.643 162.038 516.182 160.404 516.051V516.032ZM164.835 510.326C158.283 508.956 164.554 517.758 168.778 516.032C170.092 515.3 166.168 510.589 164.835 510.326ZM175.424 503.701C174.561 503.626 173.941 503.589 173.415 504.377C179.686 518.697 180.569 504.189 175.424 503.701ZM170.993 511.19C168.59 511.321 171.388 516.37 173.209 517.383C179.836 520.986 174.955 511.565 170.993 511.19ZM167.914 519.56C167.126 519.56 166.863 519.56 166.356 520.217C165.83 522.619 170.299 527.086 172.308 526.617C174.204 526.204 170.355 519.616 167.914 519.56ZM170.13 534.124C170.975 532.341 166.356 527.705 165.267 527.518C159.447 526.523 166.638 535.513 170.13 534.124ZM159.954 535.888C159.559 535.907 159.109 535.738 158.884 536.095C158.696 539.773 162.545 542.945 166.15 542.945C166.75 540.374 162.094 535.682 159.954 535.888ZM163.934 551.766C164.798 549.232 160.142 544.953 158.189 544.709C151.787 543.921 160.799 552.704 163.934 551.766ZM155.11 553.53C143.77 551.503 155.485 561.638 161.061 557.715C161.456 556.814 155.748 553.642 155.11 553.53ZM159.747 574.456C160.029 573.518 154.34 570.421 153.345 570.271C142.493 568.638 154.978 578.36 159.747 574.456ZM150.716 587.03C148.407 586.749 145.366 586.974 143.864 589.001C148.069 594.218 161.719 588.4 150.716 587.03ZM152.688 598.685C152.688 598.366 147.393 595.476 146.736 595.401C144.765 595.138 142.268 595.87 140.784 596.921C143.657 600.055 149.139 600.919 152.688 598.685ZM151.374 609.721C151.355 609.308 146.586 606.962 145.835 606.849C144.652 606.661 138.682 606.849 139.02 608.857C139.264 610.359 150.322 612.104 151.374 609.721ZM144.539 616.984C142.756 616.927 140.165 617.659 139.038 618.992C142.286 621.807 147.168 621.92 150.942 619.855C151.148 618.954 145.272 617.04 144.539 616.984ZM145.854 626.687C130.195 627.362 138.738 637.234 146.961 627.344L145.854 626.687ZM145.422 635.508C129.538 635.62 136.11 646.318 145.835 636.371L145.422 635.508ZM144.971 670.791C142.869 670.247 135.753 674.469 137.255 676.29C139.395 678.899 148.032 671.579 144.971 670.791ZM143.206 680.926C137.198 679.049 136.973 694.457 144.314 682.033C144.295 681.958 143.282 680.963 143.206 680.926ZM136.372 702.734C137.424 706.393 143.751 699.318 141.911 698.098C140.691 697.31 135.64 700.125 136.372 702.734ZM134.608 697.01C136.917 699.806 143.901 690.872 142.775 690.159C141.554 689.427 132.749 694.682 134.608 697.01ZM131.528 691.267C133.087 694.457 140.766 687.551 137.067 686.631C135.058 686.162 130.477 689.071 131.528 691.267ZM130.646 684.66C133.143 687.588 139.339 680.888 137.048 680.025C134.157 678.955 128.956 682.69 130.646 684.66ZM129.989 676.947C132.599 677.866 138.475 672.105 136.147 671.204C132.505 669.815 126.328 675.671 129.989 676.947ZM127.999 667.019C130.74 670.04 137.931 663.228 135.715 662.383C132.88 661.332 126.234 665.067 127.999 667.019ZM132.186 644.779C129.914 644.253 126.046 644.629 125.783 647.613C128.017 651.948 137.799 646.055 132.186 644.779Z" fill="#FAA21B"/>
<path d="M139.017 608.858C139.261 610.36 150.32 612.105 151.371 609.721C151.352 609.309 146.583 606.963 145.832 606.85C144.65 606.662 138.679 606.85 139.017 608.858Z" fill="#FFC932"/>
<path d="M159.877 565.955C159.99 565.242 154.038 561.902 153.024 561.77C142.811 560.55 154.658 570.216 159.877 565.955Z" fill="#FFDA86"/>
<path d="M140.792 596.922C143.665 600.056 149.147 600.919 152.695 598.686C152.695 598.367 147.401 595.476 146.744 595.401C144.772 595.139 142.275 595.871 140.792 596.922Z" fill="#FFC932"/>
<path d="M161.063 557.716C161.457 556.815 155.749 553.643 155.111 553.531C143.771 551.504 155.486 561.638 161.063 557.716Z" fill="#FFC932"/>
<path d="M159.744 574.457C160.025 573.518 154.337 570.422 153.342 570.271C142.49 568.639 154.975 578.36 159.744 574.457Z" fill="#FFC932"/>
<path d="M139.021 618.992C142.269 621.808 147.151 621.92 150.924 619.856C151.131 618.955 145.254 617.041 144.522 616.984C142.738 616.928 140.148 617.66 139.021 618.992Z" fill="#FFC932"/>
<path d="M145.624 585.023C145.699 584.497 140.93 581.832 140.123 581.738C129.909 580.312 139.879 590.634 145.624 585.023Z" fill="#FFDA86"/>
<path d="M143.868 589.002C148.074 594.219 161.723 588.401 150.721 587.031C148.412 586.75 145.37 586.975 143.868 589.002Z" fill="#FFC932"/>
<path d="M145.855 636.39L145.442 635.527C129.559 635.64 136.13 646.337 145.855 636.39Z" fill="#FFDA86"/>
<path d="M141.664 591.629C141.664 591.31 137.552 588.439 137.064 588.345C127.245 586.337 134.454 597.428 141.664 591.629Z" fill="#FFDA86"/>
<path d="M147.848 570.928C147.848 570.29 143.605 567.738 142.76 567.644C133.541 566.349 141.858 576.727 147.848 570.928Z" fill="#FFDA86"/>
<path d="M146.848 562.708C146.848 562.07 142.605 559.517 141.76 559.423C132.541 558.128 140.858 568.507 146.848 562.708Z" fill="#FFDA86"/>
<path d="M140.352 601.351C140.333 601.144 137.01 599.437 136.615 599.38C126.233 597.729 132.842 609.402 140.352 601.351Z" fill="#FFDA86"/>
<path d="M146.961 627.363L145.853 626.706C130.195 627.382 138.737 637.254 146.961 627.363Z" fill="#FFC932"/>
<path d="M138.133 612.386C138.114 612.011 134.866 610.472 134.397 610.378C123.019 608.501 130.998 619.743 138.133 612.386Z" fill="#FFDA86"/>
<path d="M144.762 577.103C144.762 576.447 140.706 574.739 140.124 574.682C129.479 573.5 139.223 583.785 144.762 577.103Z" fill="#FFDA86"/>
<path d="M134.606 648.965C136.821 652.343 147.035 645.868 144.087 644.779C140.445 644.385 136.427 645.418 134.606 648.965Z" fill="#FFC932"/>
<path d="M146.601 579.374C146.639 583.409 158.749 583.465 156.834 580.969C153.98 578.679 150.037 577.365 146.601 579.374Z" fill="#FFC932"/>
<path d="M154.252 547.337C155.867 546.098 151.117 540.975 149.39 540.731C142.33 539.792 150.516 548.595 154.252 547.337Z" fill="#FFDA86"/>
<path d="M149.61 556.815C150.211 555.745 144.766 552.292 143.658 552.217C136.393 551.56 144.879 560.831 149.61 556.815Z" fill="#FFDA86"/>
<path d="M163.929 551.766C164.793 549.232 160.137 544.953 158.184 544.709C151.782 543.921 160.794 552.704 163.929 551.766Z" fill="#FFDA86"/>
<path d="M135.945 656.885C136.471 659.813 146.327 656.735 145.426 653.15C143.586 652.212 135.551 654.708 135.945 656.885Z" fill="#FFC932"/>
<path d="M134.609 697.01C136.919 699.806 143.903 690.873 142.776 690.159C141.556 689.427 132.751 694.682 134.609 697.01Z" fill="#FFDA86"/>
<path d="M154.68 538.103C160.613 538.741 154.023 531.44 151.601 531.496C147.602 531.553 151.488 537.765 154.68 538.103Z" fill="#FFDA86"/>
<path d="M127.999 667.019C130.74 670.041 137.931 663.228 135.715 662.384C132.88 661.333 126.234 665.067 127.999 667.019Z" fill="#FFDA86"/>
<path d="M127.995 657.786C129.422 660.863 139.316 654.201 134.397 653.15C131.975 652.624 126.812 655.196 127.995 657.786Z" fill="#FFDA86"/>
<path d="M129.983 676.947C132.593 677.866 138.47 672.105 136.141 671.204C132.499 669.815 126.322 675.67 129.983 676.947Z" fill="#FFDA86"/>
<path d="M136.371 628.245C136.258 627.72 133.536 626.744 133.085 626.688C122.703 625.524 131.208 636.541 136.371 628.245Z" fill="#FFDA86"/>
<path d="M158.88 536.095C158.692 539.773 162.541 542.945 166.146 542.945C166.747 540.374 162.091 535.682 159.95 535.888C159.556 535.907 159.106 535.738 158.88 536.095Z" fill="#FFDA86"/>
<path d="M129.559 639.487C133.877 640.67 139.153 635.828 132.638 635.058C128.001 634.514 125.485 638.343 129.559 639.487Z" fill="#FFDA86"/>
<path d="M145.426 663.284L144.975 662.384C131.363 662.628 137.578 673.156 145.426 663.284Z" fill="#FFC932"/>
<path d="M160.856 529.732C162.358 527.893 158.152 523.333 156.876 523.107C150.924 522 156.801 530.877 160.856 529.732Z" fill="#FFDA86"/>
<path d="M125.786 647.613C128.02 651.948 137.802 646.055 132.188 644.779C129.916 644.254 126.049 644.629 125.786 647.613Z" fill="#FFDA86"/>
<path d="M137.255 676.29C139.396 678.899 148.032 671.58 144.972 670.791C142.869 670.247 135.753 674.47 137.255 676.29Z" fill="#FFC932"/>
<path d="M164.38 522.676C165.769 521.644 162.033 516.183 160.4 516.051C159.292 515.976 159.085 516.464 158.428 517.159C156.72 519.523 162.991 523.69 164.38 522.695V522.676Z" fill="#FFDA86"/>
<path d="M170.132 534.125C170.977 532.342 166.358 527.706 165.269 527.519C159.449 526.524 166.64 535.514 170.132 534.125Z" fill="#FFDA86"/>
<path d="M130.208 621.62C132.16 625.28 142.243 620.006 136.61 618.748C134.789 618.354 129.363 618.898 130.208 621.62Z" fill="#FFDA86"/>
<path d="M168.778 516.033C170.092 515.301 166.168 510.59 164.835 510.327C158.282 508.957 164.553 517.759 168.778 516.033Z" fill="#FFDA86"/>
<path d="M130.653 684.661C133.15 687.589 139.346 680.889 137.056 680.026C134.164 678.956 128.964 682.691 130.653 684.661Z" fill="#FFDA86"/>
<path d="M166.353 520.218C165.827 522.62 170.296 527.087 172.305 526.618C174.201 526.205 170.352 519.618 167.911 519.561C167.123 519.561 166.86 519.561 166.353 520.218Z" fill="#FFDA86"/>
<path d="M173.213 517.384C179.841 520.987 174.959 511.566 170.998 511.19C168.595 511.322 171.392 516.37 173.213 517.384Z" fill="#FFC932"/>
<path d="M131.532 691.268C133.09 694.458 140.769 687.552 137.07 686.632C135.061 686.163 130.48 689.072 131.532 691.268Z" fill="#FFDA86"/>
<path d="M173.416 504.378C179.687 518.698 180.569 504.19 175.425 503.702C174.561 503.627 173.942 503.59 173.416 504.378Z" fill="#FFC932"/>
<path d="M144.316 682.034C144.316 682.034 143.284 680.964 143.209 680.926C137.201 679.05 136.975 694.458 144.316 682.034Z" fill="#FEC564"/>
<path d="M172.307 508.976C173.17 507.155 172.382 502.163 169.678 502.369C169.227 502.426 168.871 502.52 168.608 502.707L168.364 502.951C166.918 504.603 169.847 509.314 172.307 508.976Z" fill="#FFDA86"/>
<path d="M136.378 702.734C137.429 706.394 143.757 699.319 141.917 698.099C140.696 697.31 135.646 700.126 136.378 702.734Z" fill="#FEC564"/>
<path d="M186.574 699.862C180.303 685.542 179.421 700.049 184.565 700.537C185.429 700.612 186.049 700.65 186.574 699.862Z" fill="#FAA21B"/>
<path d="M186.783 686.874C180.155 683.271 185.037 692.692 188.998 693.067C191.402 692.936 188.604 687.887 186.783 686.874Z" fill="#FAA21B"/>
<path d="M187.658 695.264C186.794 697.084 187.583 702.077 190.286 701.87C190.737 701.814 191.094 701.72 191.356 701.532L191.601 701.288C193.046 699.637 190.117 694.926 187.658 695.264Z" fill="#FAA21B"/>
<path d="M193.614 684.021C194.139 681.619 189.671 677.152 187.662 677.622C185.766 678.035 189.615 684.622 192.055 684.678C192.844 684.678 193.107 684.678 193.614 684.021Z" fill="#FAA21B"/>
<path d="M189.861 670.133C189.016 671.916 193.635 676.552 194.724 676.74C200.544 677.734 193.354 668.744 189.861 670.133Z" fill="#FAA21B"/>
<path d="M191.19 688.207C189.876 688.939 193.8 693.649 195.133 693.912C201.685 695.282 195.414 686.48 191.19 688.207Z" fill="#FAA21B"/>
<path d="M201.107 668.144C201.294 664.466 197.446 661.294 193.841 661.294C193.24 663.865 197.896 668.557 200.036 668.351C200.431 668.332 200.881 668.501 201.107 668.144Z" fill="#FAA21B"/>
<path d="M195.607 681.582C194.218 682.614 197.954 688.075 199.588 688.207C200.695 688.282 200.902 687.794 201.559 687.099C203.267 684.735 196.997 680.568 195.607 681.563V681.582Z" fill="#FAA21B"/>
<path d="M196.038 652.492C195.174 655.026 199.83 659.305 201.783 659.549C208.185 660.337 199.173 651.554 196.038 652.492Z" fill="#FAA21B"/>
<path d="M199.14 674.526C197.638 676.365 201.844 680.925 203.12 681.151C209.072 682.258 203.195 673.381 199.14 674.526Z" fill="#FAA21B"/>
<path d="M198.907 646.542C198.513 647.443 204.22 650.615 204.859 650.728C216.199 652.755 204.483 642.62 198.907 646.542Z" fill="#FAA21B"/>
<path d="M205.317 666.155C199.384 665.517 205.974 672.818 208.396 672.762C212.395 672.705 208.508 666.493 205.317 666.155Z" fill="#FAA21B"/>
<path d="M200.224 629.801C199.943 630.74 205.632 633.837 206.627 633.987C217.479 635.619 204.993 625.898 200.224 629.801Z" fill="#FAA21B"/>
<path d="M201.989 638.623C201.877 639.336 207.828 642.677 208.842 642.808C219.056 644.028 207.209 634.363 201.989 638.623Z" fill="#FAA21B"/>
<path d="M216.113 615.238C211.908 610.021 198.258 615.839 209.26 617.209C211.57 617.49 214.611 617.265 216.113 615.238Z" fill="#FAA21B"/>
<path d="M205.743 656.922C204.129 658.16 208.879 663.284 210.606 663.528C217.665 664.466 209.479 655.664 205.743 656.922Z" fill="#FAA21B"/>
<path d="M219.184 607.318C216.311 604.184 210.829 603.32 207.28 605.554C207.28 605.873 212.575 608.763 213.232 608.838C215.203 609.101 217.7 608.369 219.184 607.318Z" fill="#FAA21B"/>
<path d="M220.957 585.265C217.709 582.45 212.827 582.338 209.054 584.402C208.847 585.303 214.724 587.217 215.456 587.274C217.24 587.33 219.831 586.598 220.957 585.265Z" fill="#FAA21B"/>
<path d="M210.366 647.444C209.765 648.513 215.21 651.967 216.318 652.042C223.584 652.699 215.097 643.427 210.366 647.444Z" fill="#FAA21B"/>
<path d="M212.126 633.33C212.126 633.968 216.37 636.52 217.214 636.614C226.433 637.909 218.116 627.531 212.126 633.33Z" fill="#FAA21B"/>
<path d="M215.654 522.224C215.654 522.224 216.686 523.294 216.761 523.331C222.769 525.208 222.995 509.8 215.654 522.224Z" fill="#FAA21B"/>
<path d="M213.03 576.895L214.137 577.552C229.796 576.876 221.253 567.004 213.03 576.895Z" fill="#FAA21B"/>
<path d="M220.955 595.401C220.711 593.899 209.652 592.154 208.601 594.537C208.62 594.95 213.389 597.296 214.14 597.409C215.322 597.596 221.293 597.409 220.955 595.401Z" fill="#FAA21B"/>
<path d="M214.553 540.973L215.003 541.874C228.615 541.63 222.401 531.102 214.553 540.973Z" fill="#FAA21B"/>
<path d="M215.202 627.137C215.202 627.794 219.257 629.501 219.839 629.558C230.484 630.74 220.74 620.455 215.202 627.137Z" fill="#FAA21B"/>
<path d="M214.346 619.217C214.271 619.742 219.039 622.407 219.847 622.501C230.06 623.928 220.091 613.605 214.346 619.217Z" fill="#FAA21B"/>
<path d="M214.138 567.868L214.551 568.731C230.435 568.619 223.864 557.921 214.138 567.868Z" fill="#FAA21B"/>
<path d="M222.719 527.968C220.579 525.359 211.942 532.678 215.003 533.466C217.106 534.011 224.221 529.788 222.719 527.968Z" fill="#FAA21B"/>
<path d="M223.623 501.506C222.572 497.846 216.245 504.921 218.084 506.141C219.305 506.929 224.355 504.114 223.623 501.506Z" fill="#FAA21B"/>
<path d="M225.383 555.275C223.167 551.897 212.954 558.372 215.901 559.46C219.544 559.854 223.562 558.822 225.383 555.275Z" fill="#FAA21B"/>
<path d="M224.025 547.355C223.499 544.427 213.642 547.505 214.544 551.089C216.384 552.028 224.419 549.532 224.025 547.355Z" fill="#FAA21B"/>
<path d="M225.38 507.248C223.071 504.451 216.086 513.385 217.213 514.098C218.433 514.83 227.239 509.575 225.38 507.248Z" fill="#FAA21B"/>
<path d="M218.325 612.61C218.325 612.93 222.437 615.801 222.925 615.895C232.744 617.903 225.534 606.811 218.325 612.61Z" fill="#FAA21B"/>
<path d="M219.633 602.908C219.652 603.114 222.975 604.822 223.369 604.878C233.752 606.53 227.143 594.856 219.633 602.908Z" fill="#FAA21B"/>
<path d="M228.463 512.991C226.904 509.8 219.225 516.707 222.924 517.627C224.933 518.096 229.514 515.187 228.463 512.991Z" fill="#FAA21B"/>
<path d="M221.856 591.872C221.875 592.247 225.123 593.786 225.592 593.88C236.97 595.757 228.991 584.515 221.856 591.872Z" fill="#FAA21B"/>
<path d="M223.62 575.995C223.733 576.52 226.455 577.496 226.906 577.552C237.288 578.716 228.783 567.699 223.62 575.995Z" fill="#FAA21B"/>
<path d="M229.326 519.597C226.829 516.669 220.633 523.369 222.924 524.233C225.815 525.302 231.016 521.568 229.326 519.597Z" fill="#FAA21B"/>
<path d="M229.767 582.638C227.814 578.978 217.732 584.252 223.365 585.509C225.186 585.903 230.612 585.359 229.767 582.638Z" fill="#FAA21B"/>
<path d="M229.981 527.311C227.372 526.391 221.495 532.153 223.823 533.054C227.466 534.443 233.643 528.587 229.981 527.311Z" fill="#FAA21B"/>
<path d="M230.433 564.752C226.115 563.57 220.839 568.412 227.354 569.182C231.991 569.726 234.507 565.897 230.433 564.752Z" fill="#FAA21B"/>
<path d="M234.211 556.626C231.977 552.29 222.195 558.184 227.809 559.46C230.08 559.985 233.948 559.61 234.211 556.626Z" fill="#FAA21B"/>
<path d="M231.994 546.472C230.568 543.394 220.673 550.056 225.592 551.107C228.014 551.633 233.177 549.062 231.994 546.472Z" fill="#FAA21B"/>
<path d="M231.991 537.22C229.25 534.199 222.059 541.011 224.275 541.856C227.11 542.907 233.756 539.172 231.991 537.22Z" fill="#FAA21B"/>
<path d="M175.763 712.868C172.891 712.061 175.35 699.993 177.284 695.039C177.34 694.888 177.397 694.757 177.434 694.626C192.154 658.31 195.214 628.488 199.927 589.432C202.104 571.509 210.046 511.377 218.72 498.859C222.926 492.778 226.963 505.334 227.995 508.543C235.486 531.965 241.175 547.937 229.535 620.756C216.862 700.143 178.673 713.675 175.744 712.849L175.763 712.868ZM230.436 564.753C226.118 563.57 220.842 568.412 227.357 569.182C231.994 569.726 234.51 565.897 230.436 564.753ZM214.552 551.09C216.392 552.028 224.428 549.532 224.034 547.355C223.508 544.427 213.651 547.505 214.552 551.09ZM214.552 540.974L215.003 541.875C228.615 541.631 222.4 531.102 214.552 540.974ZM215.904 559.46C219.546 559.854 223.564 558.822 225.385 555.275C223.17 551.897 212.956 558.372 215.904 559.46ZM225.592 551.09C228.014 551.615 233.177 549.044 231.994 546.454C230.567 543.376 220.673 550.039 225.592 551.09ZM223.621 575.994C223.733 576.52 226.456 577.496 226.906 577.552C237.289 578.716 228.784 567.699 223.621 575.994ZM223.377 585.51C225.198 585.904 230.624 585.36 229.779 582.638C227.826 578.979 217.744 584.252 223.377 585.51ZM221.856 591.872C221.875 592.247 225.123 593.786 225.592 593.88C236.97 595.757 228.99 584.515 221.856 591.872ZM219.64 602.907C219.659 603.114 222.982 604.822 223.377 604.878C233.759 606.53 227.15 594.856 219.64 602.907ZM218.326 612.61C218.326 612.929 222.438 615.801 222.926 615.895C232.745 617.903 225.536 606.811 218.326 612.61ZM219.847 622.501C230.06 623.927 220.091 613.605 214.346 619.217C214.271 619.742 219.039 622.407 219.847 622.501ZM215.209 627.137C215.209 627.794 219.265 629.501 219.847 629.558C230.492 630.74 220.748 620.455 215.209 627.137ZM212.13 633.33C212.13 633.968 216.373 636.521 217.218 636.614C226.437 637.909 218.12 627.531 212.13 633.33ZM201.992 638.623C201.879 639.336 207.831 642.676 208.845 642.808C219.058 644.028 207.211 634.362 201.992 638.623ZM210.365 647.443C209.765 648.513 215.209 651.966 216.317 652.042C223.583 652.698 215.097 643.427 210.365 647.443ZM205.747 656.921C204.132 658.16 208.882 663.283 210.61 663.527C217.669 664.466 209.483 655.664 205.747 656.921ZM205.315 666.155C199.382 665.517 205.972 672.818 208.394 672.761C212.393 672.705 208.507 666.493 205.315 666.155ZM199.138 674.525C197.636 676.365 201.842 680.925 203.118 681.15C209.07 682.258 203.193 673.381 199.138 674.525ZM199.57 688.207C200.678 688.282 200.884 687.794 201.541 687.1C203.25 684.735 196.979 680.569 195.59 681.563C194.2 682.596 197.936 688.057 199.57 688.188V688.207ZM195.158 693.931C201.71 695.301 195.439 686.499 191.215 688.226C189.901 688.958 193.825 693.669 195.158 693.931ZM184.569 700.556C185.432 700.631 186.052 700.669 186.578 699.881C180.307 685.561 179.424 700.068 184.569 700.556ZM188.999 693.049C191.403 692.918 188.605 687.869 186.784 686.856C180.156 683.252 185.038 692.674 188.999 693.049ZM192.079 684.679C192.867 684.679 193.13 684.679 193.637 684.022C194.163 681.62 189.694 677.153 187.685 677.622C185.789 678.035 189.638 684.622 192.079 684.679ZM189.863 670.134C189.018 671.917 193.637 676.552 194.726 676.74C200.546 677.735 193.355 668.745 189.863 670.134ZM200.02 668.37C200.415 668.351 200.865 668.52 201.091 668.163C201.278 664.485 197.429 661.313 193.825 661.313C193.224 663.884 197.88 668.576 200.02 668.37ZM196.04 652.492C195.176 655.026 199.833 659.305 201.785 659.549C208.188 660.337 199.176 651.554 196.04 652.492ZM204.864 650.728C216.204 652.755 204.489 642.62 198.913 646.543C198.518 647.443 204.226 650.615 204.864 650.728ZM200.227 629.802C199.945 630.74 205.634 633.837 206.629 633.987C217.481 635.62 204.996 625.898 200.227 629.802ZM209.258 617.227C211.567 617.509 214.609 617.284 216.111 615.257C211.905 610.039 198.256 615.857 209.258 617.227ZM207.286 605.554C207.286 605.873 212.581 608.763 213.238 608.838C215.209 609.101 217.706 608.369 219.19 607.318C216.317 604.184 210.835 603.32 207.286 605.554ZM208.601 594.537C208.619 594.95 213.388 597.296 214.139 597.409C215.322 597.596 221.292 597.409 220.955 595.4C220.71 593.899 209.652 592.154 208.601 594.537ZM215.453 587.274C217.237 587.33 219.828 586.598 220.955 585.266C217.706 582.451 212.825 582.338 209.051 584.402C208.845 585.303 214.721 587.218 215.453 587.274ZM214.139 577.552C229.798 576.877 221.255 567.005 213.031 576.895L214.139 577.552ZM214.552 568.731C230.436 568.619 223.865 557.921 214.139 567.868L214.552 568.731ZM215.003 533.467C217.106 534.011 224.221 529.788 222.719 527.968C220.579 525.359 211.943 532.678 215.003 533.467ZM216.768 523.332C222.776 525.209 223.001 509.801 215.66 522.225C215.679 522.3 216.693 523.295 216.768 523.332ZM223.621 501.505C222.569 497.845 216.242 504.921 218.082 506.141C219.302 506.929 224.353 504.114 223.621 501.505ZM225.385 507.248C223.076 504.452 216.092 513.385 217.218 514.098C218.439 514.83 227.244 509.575 225.385 507.248ZM228.465 512.991C226.906 509.801 219.227 516.707 222.926 517.627C224.935 518.096 229.516 515.187 228.465 512.991ZM229.328 519.597C226.831 516.67 220.635 523.37 222.926 524.233C225.817 525.303 231.018 521.568 229.328 519.597ZM229.985 527.311C227.376 526.391 221.499 532.153 223.827 533.054C227.469 534.443 233.646 528.587 229.985 527.311ZM231.994 537.22C229.253 534.199 222.062 541.011 224.278 541.856C227.113 542.907 233.759 539.172 231.994 537.22ZM227.807 559.46C230.079 559.986 233.947 559.61 234.21 556.626C231.975 552.291 222.194 558.184 227.807 559.46Z" fill="#FAA21B"/>
<path d="M220.959 595.401C220.715 593.9 209.656 592.154 208.605 594.538C208.624 594.951 213.393 597.297 214.144 597.409C215.326 597.597 221.297 597.409 220.959 595.401Z" fill="#FFC932"/>
<path d="M201.993 638.623C201.88 639.337 207.832 642.677 208.846 642.809C219.06 644.029 207.213 634.363 201.993 638.623Z" fill="#FFDA86"/>
<path d="M219.195 607.319C216.323 604.185 210.84 603.321 207.292 605.555C207.292 605.874 212.587 608.764 213.244 608.839C215.215 609.102 217.712 608.37 219.195 607.319Z" fill="#FFC932"/>
<path d="M198.915 646.543C198.52 647.444 204.228 650.616 204.866 650.729C216.207 652.756 204.491 642.621 198.915 646.543Z" fill="#FFC932"/>
<path d="M200.232 629.803C199.951 630.741 205.639 633.838 206.634 633.988C217.486 635.621 205.001 625.899 200.232 629.803Z" fill="#FFC932"/>
<path d="M220.957 585.267C217.709 582.452 212.827 582.339 209.054 584.403C208.847 585.304 214.724 587.219 215.456 587.275C217.24 587.331 219.831 586.599 220.957 585.267Z" fill="#FFC932"/>
<path d="M214.35 619.218C214.275 619.744 219.043 622.409 219.851 622.502C230.064 623.929 220.095 613.606 214.35 619.218Z" fill="#FFDA86"/>
<path d="M216.117 615.239C211.912 610.022 198.262 615.84 209.264 617.21C211.574 617.491 214.615 617.266 216.117 615.239Z" fill="#FFC932"/>
<path d="M214.142 567.869L214.555 568.732C230.439 568.62 223.868 557.922 214.142 567.869Z" fill="#FFDA86"/>
<path d="M218.333 612.611C218.333 612.93 222.444 615.802 222.933 615.896C232.752 617.904 225.542 606.812 218.333 612.611Z" fill="#FFDA86"/>
<path d="M212.138 633.331C212.138 633.969 216.381 636.522 217.226 636.616C226.445 637.911 218.127 627.532 212.138 633.331Z" fill="#FFDA86"/>
<path d="M219.645 602.908C219.663 603.115 222.987 604.822 223.381 604.879C233.763 606.53 227.155 594.857 219.645 602.908Z" fill="#FFDA86"/>
<path d="M213.034 576.896L214.141 577.553C229.8 576.877 221.257 567.005 213.034 576.896Z" fill="#FFC932"/>
<path d="M221.86 591.872C221.879 592.248 225.127 593.787 225.596 593.88C236.974 595.757 228.994 584.515 221.86 591.872Z" fill="#FFDA86"/>
<path d="M215.213 627.138C215.213 627.795 219.269 629.503 219.851 629.559C230.496 630.741 220.752 620.457 215.213 627.138Z" fill="#FFDA86"/>
<path d="M225.391 555.275C223.175 551.897 212.962 558.372 215.909 559.461C219.552 559.855 223.569 558.822 225.391 555.275Z" fill="#FFC932"/>
<path d="M205.751 656.922C204.136 658.161 208.886 663.284 210.614 663.528C217.673 664.467 209.487 655.665 205.751 656.922Z" fill="#FFDA86"/>
<path d="M210.37 647.444C209.769 648.514 215.214 651.967 216.322 652.042C223.588 652.699 215.101 643.428 210.37 647.444Z" fill="#FFDA86"/>
<path d="M196.046 652.494C195.182 655.027 199.838 659.306 201.791 659.55C208.193 660.339 199.181 651.555 196.046 652.494Z" fill="#FFDA86"/>
<path d="M224.037 547.356C223.511 544.428 213.654 547.506 214.555 551.091C216.395 552.029 224.431 549.533 224.037 547.356Z" fill="#FFC932"/>
<path d="M225.388 507.249C223.079 504.452 216.094 513.386 217.221 514.099C218.441 514.831 227.247 509.576 225.388 507.249Z" fill="#FFDA86"/>
<path d="M205.324 666.156C199.391 665.518 205.982 672.818 208.403 672.762C212.403 672.706 208.516 666.494 205.324 666.156Z" fill="#FFDA86"/>
<path d="M231.999 537.222C229.258 534.2 222.067 541.013 224.283 541.857C227.118 542.908 233.764 539.173 231.999 537.222Z" fill="#FFDA86"/>
<path d="M231.998 546.474C230.571 543.396 220.677 550.058 225.596 551.109C228.018 551.635 233.181 549.064 231.998 546.474Z" fill="#FFDA86"/>
<path d="M229.997 527.312C227.387 526.392 221.511 532.154 223.839 533.055C227.481 534.443 233.658 528.588 229.997 527.312Z" fill="#FFDA86"/>
<path d="M223.62 575.995C223.733 576.521 226.455 577.497 226.906 577.553C237.288 578.716 228.783 567.7 223.62 575.995Z" fill="#FFDA86"/>
<path d="M201.118 668.146C201.306 664.467 197.457 661.296 193.852 661.296C193.252 663.867 197.908 668.559 200.048 668.352C200.442 668.334 200.893 668.502 201.118 668.146Z" fill="#FFDA86"/>
<path d="M230.441 564.754C226.122 563.571 220.847 568.413 227.362 569.183C231.999 569.727 234.515 565.898 230.441 564.754Z" fill="#FFDA86"/>
<path d="M214.557 540.975L215.007 541.875C228.619 541.631 222.405 531.103 214.557 540.975Z" fill="#FFC932"/>
<path d="M199.144 674.526C197.642 676.365 201.847 680.926 203.124 681.151C209.076 682.258 203.199 673.381 199.144 674.526Z" fill="#FFDA86"/>
<path d="M234.215 556.627C231.981 552.291 222.199 558.185 227.813 559.461C230.084 559.986 233.952 559.611 234.215 556.627Z" fill="#FFDA86"/>
<path d="M222.723 527.969C220.583 525.36 211.946 532.68 215.007 533.468C217.11 534.012 224.225 529.789 222.723 527.969Z" fill="#FFC932"/>
<path d="M195.615 681.583C194.226 682.615 197.962 688.076 199.595 688.208C200.703 688.283 200.91 687.795 201.567 687.101C203.275 684.736 197.004 680.569 195.615 681.564V681.583Z" fill="#FFDA86"/>
<path d="M189.869 670.135C189.024 671.918 193.643 676.554 194.732 676.741C200.552 677.736 193.361 668.746 189.869 670.135Z" fill="#FFDA86"/>
<path d="M229.786 582.639C227.834 578.979 217.752 584.253 223.384 585.511C225.205 585.905 230.631 585.36 229.786 582.639Z" fill="#FFDA86"/>
<path d="M191.202 688.208C189.887 688.94 193.811 693.651 195.144 693.913C201.697 695.283 195.426 686.481 191.202 688.208Z" fill="#FFDA86"/>
<path d="M229.334 519.599C226.837 516.671 220.641 523.371 222.932 524.234C225.823 525.304 231.024 521.569 229.334 519.599Z" fill="#FFDA86"/>
<path d="M193.621 684.022C194.147 681.62 189.679 677.153 187.67 677.622C185.773 678.035 189.622 684.623 192.063 684.679C192.852 684.679 193.114 684.679 193.621 684.022Z" fill="#FFDA86"/>
<path d="M186.791 686.876C180.163 683.272 185.045 692.694 189.006 693.069C191.409 692.938 188.612 687.889 186.791 686.876Z" fill="#FFC932"/>
<path d="M207.102 621.488C199.592 622.201 208.923 627.287 212.397 625.373C214.312 623.928 209.168 621.3 207.102 621.488Z" fill="#FFC932"/>
<path d="M228.466 512.992C226.908 509.801 219.229 516.708 222.928 517.627C224.937 518.096 229.518 515.187 228.466 512.992Z" fill="#FFDA86"/>
<path d="M186.578 699.862C180.307 685.542 179.425 700.05 184.569 700.538C185.433 700.613 186.052 700.65 186.578 699.862Z" fill="#FFC932"/>
<path d="M215.669 522.225C215.669 522.225 216.702 523.295 216.777 523.333C222.785 525.209 223.01 509.801 215.669 522.225Z" fill="#FEC564"/>
<path d="M187.673 695.264C186.81 697.085 187.598 702.077 190.302 701.871C190.752 701.814 191.109 701.72 191.372 701.533L191.616 701.289C193.062 699.637 190.133 694.927 187.673 695.264Z" fill="#FFDA86"/>
<path d="M223.623 501.506C222.572 497.846 216.245 504.922 218.084 506.142C219.305 506.93 224.355 504.115 223.623 501.506Z" fill="#FEC564"/>
</g>
<defs>
<clipPath id="clip0_848_7179">
<rect width="237.412" height="365.751" fill="white" transform="translate(86.0781) rotate(13.5384)"/>
</clipPath>
<clipPath id="clip1_848_7179">
<rect width="217.189" height="266.991" fill="white" transform="translate(304.957 56.7368) rotate(24.0016)"/>
</clipPath>
<clipPath id="clip2_848_7179">
<rect width="217.189" height="266.991" fill="white" transform="matrix(-1 0 0 1 288.43 460.01)"/>
</clipPath>
</defs>
</svg>
