<svg width="415" height="1024" viewBox="0 0 415 1024" fill="none" xmlns="http://www.w3.org/2000/svg">
<path d="M299.458 807.706C304.25 886.644 306.646 926.112 283.09 951.259C259.535 976.405 219.924 976.591 140.702 976.963L15.3285 977.551C-60.0953 977.905 -97.8073 978.082 -121.348 954.761C-144.89 931.44 -145.067 893.728 -145.421 818.304L-147.421 392.132C-147.775 316.708 -147.953 278.996 -124.631 255.455C-101.31 231.914 -63.5982 231.737 11.8257 231.383L127.98 230.837C210.588 230.45 251.893 230.256 275.741 255.635C299.59 281.014 296.77 323.134 291.131 407.376C286.326 479.149 282.986 555.704 286.263 601.4C289.706 649.398 294.872 732.151 299.458 807.706Z" fill="#FFE1C6"/>
<g clip-path="url(#clip0_848_4448)">
<path d="M223.679 788.835C221.381 794.948 202.378 794.236 201.752 791.574C201.466 790.34 205.346 789.727 207.542 785.745C209.816 781.637 208.529 777.134 207.382 772.28C205.695 765.135 204.128 756.397 203.744 751.139C203.015 741.003 206.509 740.735 208.465 724.538C210.279 709.47 207.355 708.878 210.019 702.249C214.498 691.116 225.509 685.88 234.5 681.602C240.814 678.598 255.621 671.559 260.195 676.73C262.251 679.061 258.882 682.256 255.916 696.605C254.167 705.068 254.819 706.297 252.895 708.575C247.378 715.12 235.455 712.642 234.931 715.994C234.738 717.233 236.356 717.603 238.782 722.357C240.38 725.476 240.371 726.662 240.137 727.511C239.622 729.34 237.789 730.316 236.797 730.812C229.389 734.537 224.252 734.123 219.819 736.806C213.095 740.865 211.619 749.871 211.121 752.922C210.06 759.382 211.584 764.514 212.546 767.616C216.66 780.934 225.323 784.454 223.671 788.847L223.679 788.835Z" fill="#7E923C"/>
<path d="M231.063 786.034C230.414 783.753 234.039 782.135 242.138 773.845C250.367 765.429 249.399 764.258 255.259 759.212C259.222 755.797 264.657 751.105 273.107 748.906C281.187 746.805 287.876 748.06 291.782 748.83C295.245 749.518 305.171 751.623 314.141 759.925C316.694 762.289 322.34 767.632 325.029 776.422C326.416 780.967 328.573 788.006 324.629 792.479C321.558 795.966 315.92 797.746 313.827 795.891C311.345 793.688 315.461 787.806 312.385 784.527C310.904 782.949 309.583 783.934 305.419 781.638C304.366 781.064 303.798 780.637 300.162 777.817C294.117 773.138 294.594 773.459 293.876 772.936C286.863 767.821 284.908 769.024 283.302 766.141C281.089 762.164 284.274 758.962 281.917 756.216C279.587 753.506 274.477 754.312 271.69 754.757C266.133 755.634 262.211 758.429 260.38 759.925C254.314 764.906 252.045 771.575 251.021 774.701C248.588 782.155 250.267 784.821 247.507 787.384C242.851 791.7 232.089 789.603 231.059 786.014L231.063 786.034Z" fill="#7E923C"/>
<path d="M199.669 807.518C198.254 811.134 190.661 812.656 188.083 810.042C186.618 808.552 187.032 805.997 187.169 805.012C188.298 797.07 185.416 788.734 181.11 776.217C181.11 776.217 176.682 763.364 163.723 749.06C163.723 749.06 160.137 745.109 153.766 741.112C151.82 739.893 149.783 738.794 147.082 738.59C144.898 738.426 143.127 738.901 141.819 739.342C133.812 742.012 127.197 748.021 127.197 748.021C125.946 749.167 124.685 750.376 114.445 762.383C108.63 769.196 106.472 771.814 102.372 774.753C95.5426 779.638 94.2841 779.958 93.509 779.681C90.2045 778.515 89.2397 771.239 90.3497 765.72C91.1532 761.715 92.4647 761.518 96.0882 753.878C100.094 745.423 99.1784 744.201 101.915 741.397C104.713 738.541 105.479 740.005 113.682 735.319C117.861 732.927 118.779 731.913 124.699 728.541C128.565 726.338 130.538 725.234 131.934 724.94C133.154 724.687 136.581 724.167 145.859 728.432C151.494 731.021 155.66 732.939 160.056 736.856C164.305 740.636 166.425 744.211 170.308 750.977C184.533 775.84 181.826 773.075 186.656 780.394C191.004 786.963 193.723 794.513 197.905 801.184C198.938 802.823 200.533 805.31 199.677 807.507L199.669 807.518Z" fill="#7E923C"/>
<path d="M279.898 793.145C277.874 794.982 271.813 793.031 271.295 790.349C271.144 789.57 271.525 789.083 272.26 787.683C275.396 781.796 274.767 779.236 276.826 778.545C278.261 778.07 280.038 778.809 281.005 779.858C281.894 780.819 282.043 781.976 282.119 782.564C282.341 784.402 281.601 785.272 280.954 787.553C279.908 791.234 280.913 792.215 279.898 793.145Z" fill="#7E923C"/>
<path d="M267.796 785.422C283.923 790.086 301.838 795.262 311.423 810.709C326.389 834.825 310.12 866.289 308.71 868.924C293.693 896.997 258.143 914.929 223.97 907.573C191.985 900.687 151.065 869.283 162.735 835.653C184.268 773.611 252.197 780.917 267.796 785.422Z" fill="#ADC17D"/>
<mask id="mask0_848_4448" style="mask-type:luminance" maskUnits="userSpaceOnUse" x="160" y="782" width="158" height="128">
<path d="M267.792 785.422C283.919 790.086 301.834 795.262 311.419 810.71C326.385 834.825 310.116 866.29 308.706 868.924C293.689 896.997 258.139 914.929 223.966 907.573C191.981 900.687 151.061 869.284 162.731 835.654C184.264 773.611 252.193 780.918 267.792 785.422Z" fill="white"/>
</mask>
<g mask="url(#mask0_848_4448)">
<path opacity="0.32" d="M285.429 800.632C283.152 799.841 268.634 794.824 258.866 802.968C248.465 811.625 251.761 828.246 252.577 832.344C253.279 835.87 265.967 859.522 283.831 864.084C298.71 867.883 306.933 855.671 311.555 841.562C317.583 823.166 300.133 805.718 285.429 800.632Z" fill="white"/>
<path d="M316.515 869.639C314.793 864.715 301.289 865.444 297.247 865.668C291.98 865.951 288.171 866.837 266.114 874.091C254.789 877.822 251.771 878.912 251.907 879.714C252.123 880.961 259.539 879.756 270.81 880.158C292.293 880.929 299.105 886.51 308.128 881.4C313.21 878.527 317.686 872.998 316.515 869.639Z" fill="#7E923C"/>
<path d="M260.642 793.704C266.08 795.543 268.716 807.578 264.753 811.779C262.194 814.49 258.889 811.803 250.943 813.462C244.875 814.727 244.363 816.8 231.383 823.109C225.915 825.766 220.054 828.618 219.49 827.761C218.909 826.866 224.623 822.531 233.013 815.341C252.849 798.335 256.25 792.226 260.644 793.714L260.642 793.704Z" fill="#7E923C"/>
<path d="M154.223 860.095C155.318 858.65 157.971 856.065 179.069 856.682C192.339 857.078 204.701 858.486 218.463 861.702C222.898 862.743 232.768 865.043 232.593 866.33C232.421 867.627 222.318 866.238 206.506 867.467C193.613 868.473 186.135 869.056 176.983 872.556C165.367 876.994 161.893 881.973 157.567 879.962C152.126 877.43 149.808 865.908 154.231 860.083L154.223 860.095Z" fill="#7E923C"/>
<path d="M185.523 905.903C184.763 901.723 197.882 895.614 206.958 892.873C225.005 887.43 242.767 890.582 242.822 892.174C242.85 893.006 237.967 892.536 230.102 895.312C215.87 900.348 214.015 908.228 203.18 910.166C195.222 911.592 186.115 909.163 185.523 905.903Z" fill="#7E923C"/>
</g>
<path d="M233.132 672.43C232.805 672.714 232.342 673.982 231.989 674.342C231.602 674.739 230.595 674.871 230.397 675.356C230.064 676.162 231.086 678.528 228.913 679.321C227.897 679.689 226.395 679.115 225.283 678.837C224.898 678.744 222.46 677.625 222.293 677.604C218.486 677.214 216.086 679.059 213.989 682.012C211.892 684.965 210.619 689.361 208.797 692.703C207.235 695.569 205.035 698.235 203.537 701.171C202.213 699.503 199.601 699.059 198.165 700.872C197.236 702.051 196.906 704.336 197.211 705.791C197.596 707.63 198.856 708.105 199.381 709.868C199.97 711.874 199.703 713.943 200.102 715.524C200.377 716.587 201.601 717.314 201.608 718.139C201.62 720.168 198.902 719.927 198.23 720.948C197.736 721.711 198.588 723.199 197.14 724.106C196.076 724.768 194.596 723.7 193.364 724.73C194.742 728.155 191.294 730.302 192.764 733.73C192.887 734.014 193.407 733.899 193.556 734.096C194.137 734.879 197.655 739.415 198.052 739.628C198.754 740.011 200.951 739.632 201.316 740.403C202.254 742.366 199.344 746.294 199.828 748.676C199.878 748.952 201.783 750.219 202.155 751.203C203.299 754.241 203.61 758.257 204.4 761.421C204.752 762.857 205.611 764.436 205.959 765.904C206.95 770.062 207.316 774.436 208.68 778.516L208.804 773.808C207.589 763.413 207.161 753.641 209.879 743.491C210.584 740.852 212.013 738.214 212.653 735.781C213.815 731.334 213.792 722.611 213.385 717.959C213.17 715.538 211.863 712.897 212.952 710.515L216.423 722.541L217.464 723.271C219.163 718.522 222.228 714.158 224.116 709.548C225.071 707.221 226.641 702.322 226.924 700.005C227.03 699.128 226.525 697.975 226.824 696.981L227.694 699.916C227.458 700.694 226.761 705.454 228.4 704.758C231.836 700.409 236.252 696.962 239.994 692.894C240.702 692.132 243.491 688.155 243.788 688.05C244.171 687.909 244.881 688.668 245.958 688.36C247.761 687.838 250.934 685.527 253.069 684.863C253.466 684.74 257.003 683.873 256.222 685.025C252.317 687.184 248.782 691.491 244.592 692.977C243.557 693.349 242.191 693.189 241.303 693.809C240.007 694.708 237.23 700.153 236.126 701.721C240.551 701.469 245.279 700.018 249.179 702.83C247.352 703.336 245.768 702.542 243.829 702.71C236.504 703.347 231.478 709.17 225.421 712.628L220.131 726.828C225.962 724.034 231.952 723.854 237.735 726.753C238.058 728.083 232.901 727.172 232.474 727.178C217.664 727.573 211.178 741.428 209.552 754.442C209.226 757.032 208.593 762.2 211.429 763.369C210.231 758.912 212.087 751.317 216.063 748.706C217.093 748.029 221.132 746.663 221.618 746.023C222.838 744.423 220.147 742.197 222.06 740.421C224.403 738.26 226.001 739.756 227.314 739.395C227.771 739.271 228.204 738.621 229.025 738.42C233.688 737.287 238.516 737.288 243.031 735.845C243.721 734.362 242.146 731.984 242.255 731.127C242.294 730.834 243.64 729.59 243.784 728.757C243.918 728.028 243.627 727.387 243.724 726.849C243.827 726.238 244.451 725.91 244.447 725.156C244.443 723.503 243.172 723.305 242.796 722.138C241.818 719.111 245.428 717.353 247.974 717.38C249.211 717.39 250.143 718.701 250.965 719.011C256.033 720.948 258.13 713.616 262.232 713.83C263.314 713.889 267.043 715.365 265.114 711.939C264.558 710.958 261.123 711.153 261.696 708.691L264.123 707.107C264.475 706.176 263.456 704.84 264.084 703.97C264.712 703.101 267.241 702.243 268.041 701.424C269.377 700.069 269.562 697.943 268.852 696.224C267.866 693.831 264.572 691.939 265.556 688.984C265.729 688.473 267.102 687.325 267.168 686.844C267.254 686.246 266.888 685.527 266.946 684.833C267.152 682.315 271.145 680.926 271.819 677.333C272.05 676.076 271.413 672.119 270.645 671.207C269.511 669.852 267.744 670.408 266.87 669.923C266.064 669.478 266.064 668.069 265.488 667.653C264.62 667.035 262.128 667.866 261.22 668.378C260.942 668.53 260.988 669.012 260.776 669.132C260.016 669.556 257.82 670.843 257.168 670.961C256.348 671.111 250.326 670.439 249.38 670.121C249.13 670.034 247.404 668.796 247.106 668.727C244.3 668.114 243.764 670.049 241.677 670.755C239.214 671.58 235.085 670.768 233.149 672.468L233.132 672.43Z" fill="#4F783C"/>
<path d="M112.169 731.889C109.866 734.104 106.825 734.166 104.043 735.427C103.346 735.748 100.607 737.521 100.285 738.111C99.7932 741.078 99.1811 744.507 97.2909 746.912C95.6486 748.997 91.6062 751.691 91.896 754.69C92.0673 756.476 93.147 757.25 92.7793 759.327C92.2104 762.544 88.5635 762.472 87.3838 764.911C85.895 768.009 88.4689 772.063 88.0724 775.33C87.8611 777.032 85.4275 779.087 85.3898 779.441C85.1812 781.102 86.295 780.828 86.5842 781.184C88.3122 783.279 87.0344 787.706 90.7549 787.734C91.7457 787.738 97.2602 786.685 97.9833 786.227C98.1666 786.112 99.7387 784.316 99.8295 784.085C100.088 783.487 99.923 782.802 100.183 782.153C101.204 779.63 105.568 779.378 106.408 777.766C107.02 776.583 105.689 774.538 106.237 773.06C106.436 772.524 108.573 770.86 109.186 770.361C109.622 770.006 110.266 770.011 110.676 769.682C111.867 768.71 111.171 766.734 112.59 765.272C114.351 763.451 117.102 763.196 119.31 761.529C119.767 761.181 120.627 760.463 121.037 760.083C121.256 759.88 121.194 759.258 121.574 759.046C123.454 757.99 124.649 761.478 125.446 762.323C127.254 764.24 130.633 759.472 131.93 758.461C135.763 755.457 138.774 755.512 141.253 750.622C142.735 747.709 142.873 746.275 143.526 743.186C144.667 737.784 147.193 738.202 151.507 740.43C156.688 743.102 169.296 756.203 170.308 757.111C170.374 756.405 169.709 755.383 169.445 754.89C165.859 748.243 160.195 742.852 153.666 739.109C151.546 737.891 144.572 734.504 142.406 735.561C141.871 735.821 141.451 736.653 140.85 736.997C140.287 737.324 139.547 737.295 139.031 737.603C137.612 738.443 136.553 740.034 134.789 740.099L136.61 735.91L135.859 735.199C135.2 735.115 128.971 736.951 127.89 737.351C127.039 737.669 124.111 739.079 123.478 739.582C121.969 740.775 122.722 741.434 122.193 742.735C121.161 745.26 119.568 747.56 117.991 749.776C117.286 750.057 117.325 749.539 117.319 748.999C117.313 747.112 118.899 744.834 118.009 742.801C110.351 747.05 103.663 755.186 103.171 764.217L101.647 763.922C100.498 766.979 98.799 769.819 97.2277 772.687C96.9896 773.118 97.3893 773.576 96.429 773.516C95.2381 771.905 97.9406 767.454 97.2823 766.246C96.5783 764.955 93.7449 767.001 93.3596 766.734L93.2573 765.722C94.7063 765.102 95.815 762.552 96.8984 761.886C97.697 761.394 98.7362 761.552 99.3121 761.07C99.8879 760.588 103.034 755.096 104.052 753.788C105.773 751.577 108.819 748.002 110.775 746.014C112.076 744.695 113.506 743.517 115.002 742.429C114.772 741.051 106.926 743.539 105.711 741.738C109.881 740.481 113.547 738.069 117.973 737.714C119.08 737.625 120.075 738.047 121.272 737.778C123.49 737.293 127.095 734.719 129.505 733.822C130.768 733.358 137.138 732.578 135.497 730.794C135.282 730.568 131.514 729.15 130.904 728.883C130.45 728.69 130.001 729.139 130.032 728.133C132.792 727.366 136.631 727.822 139.295 728.889C141.124 729.629 142.087 731.107 143.844 731.737C145.166 732.212 147.077 732.283 148.442 732.719C160.483 736.574 169.542 750.647 175.687 761.156C176.531 762.595 180.128 768.74 180.128 768.74C180.128 768.74 179.534 765.193 179.035 763.906C178.728 763.115 178.021 762.651 177.79 762.111C176.318 758.673 175.071 755.123 173.46 751.762C171.59 747.876 170.912 747.458 169.861 743.076C169.311 740.778 167.156 740.21 165.897 738.448C165.487 737.879 165.512 737.007 165.016 736.577C164.445 736.078 163.672 736.484 163.189 736.296C161.651 735.698 161.925 732.994 160.942 732.581C159.942 732.528 157.905 732.439 157.045 732.033C156.353 731.71 155.41 729.605 154.978 729.418C153.912 728.949 151.208 729.175 149.877 728.365C148.992 727.822 148.282 726.44 147.591 725.841C145.577 724.084 142.506 722.743 142.389 719.682C140.861 719.082 139.756 720.191 138.344 720.396C135.403 720.839 128.855 720.753 126.861 722.983C126.216 723.702 126.079 724.799 125.482 725.448C123.47 727.631 120.997 726.661 118.59 726.895C112.944 727.451 115.111 729.037 112.141 731.904L112.169 731.889Z" fill="#4F783C"/>
<path d="M292.195 767.842C292.178 768.141 291.737 768.691 291.33 768.193C289.7 764.335 287.062 761.221 286.363 756.98L279.316 754.596C278.502 754.611 278.936 754.808 278.885 755.205C278.518 758.017 278.424 760.811 278.949 763.645C279.042 764.159 279.775 766.169 280.04 766.56C281.013 767.985 286.503 770.448 287.855 772.326C288.528 772.714 290.525 773.259 291.053 773.633C292.856 774.908 292.293 777.368 295.143 777.942C296.118 778.143 298.596 777.958 299.508 778.823C300.175 779.457 300.938 782.085 301.627 782.96C302.186 783.675 304.344 784.6 304.922 785.811C305.903 787.899 304.667 790.083 305.495 792.617C305.822 793.63 307.454 794.915 308.363 795.424C315.373 799.346 323.903 801.011 331.622 797.935C332.155 797.725 333.716 795.696 333.905 795.162C334.012 794.857 334.439 792.033 334.398 791.755C334.275 790.685 333.257 789.911 333.263 789.44C333.266 788.388 335.621 787.195 335.54 786.015C335.372 784.249 331.617 783.809 333.375 780.284C333.631 779.778 335.304 777.025 335.328 776.816C335.366 776.35 334.948 774.221 334.787 773.669C334.544 772.896 333.86 773.286 333.548 772.751C329.759 766.223 324.787 760.767 318.84 755.621C299.893 739.201 278.526 737.836 259.346 755.642L257.015 757.699C257.773 757.765 258.734 757.437 259.226 757.113C267.919 751.533 275.684 749.326 285.869 752.742C287.347 753.239 291.724 755.7 292.471 755.768C294.644 755.986 299.799 753.742 300.915 757.245C300.794 757.42 296.424 757.693 297.174 758.843C297.558 759.437 302.693 762.873 303.754 763.711C304.65 764.426 306.349 766.475 307.22 766.776C308.332 767.166 309.504 766.596 310.848 766.913C312.449 767.296 314.708 769.11 316.382 769.674C315.852 771.363 310.833 769.641 311.238 771.701C311.306 772.076 314.858 776.902 315.474 778.158C315.977 779.189 315.948 780.429 316.468 781.213C317.07 782.114 319.099 781.99 320.267 782.911C320.957 783.449 324.052 786.888 323.684 787.618L319.079 785.923L317.68 786.872C315.329 779.103 310.66 773.122 304.977 767.52C304.404 767.512 304.218 767.781 304.11 768.311C303.45 771.36 304.867 775.4 302.892 778.178C302.505 773.073 300.096 768.632 299.08 763.713C298.651 762.872 292.08 758.728 290.674 759.473L292.191 767.822L292.195 767.842Z" fill="#4F783C"/>
<path d="M201.02 830.524C200.901 831.945 192.67 830.408 182.252 833.516C169.917 837.197 162.469 845.021 160.767 843.238C160.2 842.647 160.72 840.848 161.749 837.241C162.871 833.363 163.76 832.467 163.432 830.495C163.144 828.741 162.127 827.578 160.748 826.001C157.732 822.548 155.44 822.516 155.198 820.569C154.962 818.652 156.907 816.38 158.391 816.457C159.483 816.514 159.904 817.816 161.226 819.474C161.226 819.474 163.631 822.487 168.348 824.406C171.182 825.565 172.131 824.832 178.233 825.101C178.583 825.119 183.958 825.377 189.703 826.548C190.753 826.766 201.147 828.919 201.009 830.516L201.02 830.524Z" fill="#7E923C"/>
</g>
<g clip-path="url(#clip1_848_4448)">
<path d="M-59.1546 819.152C-60.6785 816.906 -57.3171 813.846 -51.4853 801.927C-45.5571 789.826 -47.03 788.899 -42.4677 781.311C-39.3842 776.177 -35.1583 769.125 -26.7596 763.703C-18.7282 758.521 -11.0053 757.485 -6.48169 756.922C-2.47023 756.427 9.0776 755.156 21.8081 760.965C25.4312 762.619 33.4864 766.403 39.5632 774.995C42.7019 779.44 47.5718 786.319 44.8883 792.597C42.7998 797.491 37.3086 801.448 34.3678 800.182C30.8785 798.677 33.2442 790.805 28.7235 788.343C26.5471 787.158 25.4637 788.704 20.1139 787.701C18.7625 787.455 17.9919 787.194 13.0273 785.432C4.77583 782.513 5.40974 782.692 4.44193 782.381C-5.01791 779.334 -6.71284 781.343 -9.49272 778.785C-13.3251 775.255 -11.0111 770.631 -14.5585 768.491C-18.0638 766.38 -23.3308 769.089 -26.2017 770.573C-31.9286 773.52 -35.1904 777.966 -36.6443 780.249C-41.4534 787.841 -41.5279 795.906 -41.5204 799.672C-41.4912 808.649 -38.7101 810.945 -40.7912 814.722C-44.3053 821.085 -56.7582 822.666 -59.1655 819.132L-59.1546 819.152Z" fill="#7E923C"/>
<path d="M-3.50564 809.366C-5.04707 812.09 -12.3359 812.143 -13.8612 809.412C-14.3055 808.62 -14.0663 807.953 -13.7683 806.168C-12.471 798.641 -14.0727 796.083 -12.0818 794.594C-10.6925 793.563 -8.49488 793.728 -7.06778 794.523C-5.75623 795.249 -5.17927 796.453 -4.88528 797.066C-3.98503 798.984 -4.47801 800.195 -4.36309 802.908C-4.17999 807.285 -2.73537 807.991 -3.50564 809.366Z" fill="#7E923C"/>
<path d="M-19.4365 805.311C-0.228714 804.597 21.1062 803.798 37.068 817.155C61.9908 838.006 55.5886 878.053 55.0009 881.423C48.7429 917.332 16.5238 949.581 -23.2699 953.841C-60.516 957.827 -116.272 938.362 -115.646 897.612C-114.49 822.431 -38.012 806.008 -19.4365 805.311Z" fill="#ADC17D"/>
<mask id="mask1_848_4448" style="mask-type:luminance" maskUnits="userSpaceOnUse" x="-116" y="804" width="173" height="151">
<path d="M-19.4404 805.312C-0.232621 804.598 21.1023 803.8 37.0641 817.157C61.9869 838.008 55.5847 878.054 54.997 881.424C48.739 917.334 16.5199 949.582 -23.2738 953.842C-60.5199 957.829 -116.276 938.364 -115.65 897.613C-114.494 822.433 -38.0159 806.01 -19.4404 805.312Z" fill="white"/>
</mask>
<g mask="url(#mask1_848_4448)">
<path opacity="0.32" d="M5.19331 815.523C2.43401 815.48 -15.1505 815.232 -22.85 827.591C-31.0522 840.734 -21.5071 857.623 -19.15 861.786C-17.1216 865.368 5.15716 886.533 26.2174 885.085C43.7565 883.878 48.3167 867.651 48.2812 850.653C48.2359 828.489 23.0044 815.778 5.19331 815.523Z" fill="white"/>
<path d="M63.743 879.4C60.1053 874.664 45.6839 880.301 41.3694 881.994C35.745 884.191 31.9209 886.521 10.5416 902.32C-0.433601 910.44 -3.32351 912.706 -2.88841 913.53C-2.20597 914.808 5.42516 910.838 17.8231 907.232C41.4578 900.365 50.8657 903.989 58.8436 895.196C63.3382 890.25 66.2222 882.632 63.743 879.4Z" fill="#7E923C"/>
</g>
<path d="M0.787858 777.445C0.876558 777.776 0.594136 778.532 -0.0267362 778.137C-3.18279 774.527 -7.16764 772.087 -9.4494 767.726L-17.9669 767.663C-18.8463 767.971 -18.304 768.029 -18.2163 768.479C-17.6063 771.668 -16.7071 774.74 -15.1196 777.633C-14.8338 778.158 -13.316 780.081 -12.8878 780.411C-11.3179 781.611 -4.46561 782.32 -2.32254 783.876C-1.45187 784.057 0.915737 783.933 1.62303 784.151C4.04124 784.89 4.31111 787.767 7.6159 787.369C8.74839 787.237 11.3757 786.147 12.6782 786.761C13.6302 787.211 15.4025 789.794 16.4663 790.498C17.3302 791.075 20.0086 791.306 21.0711 792.417C22.8871 794.334 22.3266 797.153 24.1357 799.611C24.8542 800.594 27.0897 801.407 28.2604 801.634C37.2893 803.383 47.1606 802.134 54.4496 796.02C54.9547 795.601 55.9235 792.835 55.937 792.187C55.9447 791.816 55.3953 788.594 55.2515 788.305C54.734 787.186 53.3489 786.71 53.1869 786.196C52.8127 785.051 54.9454 782.908 54.4337 781.655C53.6178 779.796 49.3775 780.663 50.0249 776.201C50.121 775.559 50.9529 771.965 50.9036 771.73C50.7775 771.209 49.5599 769.044 49.1861 768.502C48.6454 767.749 48.0409 768.418 47.5101 767.948C41.0488 762.209 33.6859 758.061 25.3744 754.599C-1.11664 743.543 -24.837 749.724 -39.3033 775.963L-41.1002 779.035C-40.253 778.836 -39.3255 778.135 -38.9066 777.606C-31.4569 768.42 -23.8063 763.235 -11.5072 763.296C-9.72149 763.306 -4.07997 764.411 -3.2429 764.218C-0.80239 763.675 3.99814 759.387 6.46798 762.794C6.39894 763.028 1.74567 764.893 2.97347 765.874C3.60341 766.382 10.4197 768.275 11.8737 768.806C13.1038 769.263 15.6863 770.881 16.7416 770.896C18.0905 770.921 19.1605 769.88 20.7353 769.743C22.613 769.585 25.7199 770.748 27.7424 770.76C27.7717 772.786 21.6979 772.715 22.877 774.809C23.0858 775.193 28.6779 779.166 29.7982 780.31C30.7158 781.251 31.1284 782.61 31.9748 783.275C32.9532 784.039 35.115 783.176 36.7148 783.759C37.6578 784.096 42.2564 786.725 42.1188 787.651L36.504 787.46L35.3225 788.993C29.9798 781.389 22.7579 776.562 14.5699 772.51C13.9439 772.706 13.838 773.065 13.9109 773.68C14.2865 777.232 17.2771 781.116 16.1257 784.845C13.8743 779.434 9.66142 775.469 6.79204 770.485C6.02469 769.725 -2.60642 767.576 -3.86757 768.891L0.776871 777.424L0.787858 777.445Z" fill="#4F783C"/>
</g>
<g clip-path="url(#clip2_848_4448)">
<path d="M236.036 338.874C239.448 344.515 258.172 340.293 258.302 337.535C258.357 336.258 254.394 336.367 251.478 332.822C248.461 329.167 248.905 324.461 249.146 319.432C249.497 312.03 249.436 303.069 248.844 297.78C247.692 287.587 244.176 287.968 239.239 272.258C234.65 257.641 237.443 256.513 233.573 250.428C227.069 240.209 215.174 237.05 205.46 234.469C198.64 232.656 182.644 228.411 179.063 234.388C177.453 237.081 181.388 239.628 186.986 253.318C190.287 261.392 189.867 262.732 192.197 264.638C198.883 270.112 210.255 265.447 211.395 268.676C211.817 269.87 210.279 270.536 208.751 275.703C207.743 279.093 207.972 280.268 208.36 281.067C209.21 282.786 211.21 283.416 212.286 283.725C220.325 286.05 225.347 284.689 230.241 286.532C237.664 289.316 240.796 297.979 241.853 300.914C244.102 307.128 243.539 312.503 243.158 315.759C241.54 329.736 233.595 334.831 236.047 338.884L236.036 338.874Z" fill="#7E923C"/>
<path d="M228.189 337.46C228.411 335.077 224.514 334.142 214.944 327.414C205.222 320.586 205.966 319.244 199.217 315.322C194.653 312.666 188.391 309.015 179.6 308.397C171.193 307.807 164.788 310.289 161.054 311.776C157.745 313.099 148.285 317.025 140.92 326.922C138.824 329.74 134.211 336.087 133.168 345.306C132.632 350.073 131.795 357.457 136.535 361.166C140.229 364.058 146.152 364.781 147.885 362.553C149.941 359.908 144.768 354.833 147.214 351.01C148.392 349.17 149.885 349.903 153.592 346.855C154.531 346.09 155.015 345.561 158.101 342.09C163.234 336.329 162.821 336.736 163.436 336.085C169.449 329.711 171.612 330.543 172.672 327.385C174.132 323.03 170.379 320.441 172.21 317.28C174.02 314.16 179.24 314.014 182.088 313.941C187.765 313.783 192.173 315.83 194.267 316.977C201.208 320.797 204.693 326.995 206.288 329.907C210.081 336.854 208.908 339.809 212.121 341.842C217.54 345.264 227.831 341.193 228.189 337.44L228.189 337.46Z" fill="#7E923C"/>
<path d="M263.315 352.972C265.388 356.297 273.204 356.403 275.279 353.333C276.457 351.584 275.574 349.124 275.255 348.173C272.665 340.501 273.983 331.696 275.94 318.478C275.94 318.478 277.956 304.905 288.169 288.314C288.169 288.314 290.997 283.729 296.579 278.585C298.285 277.016 300.103 275.548 302.745 274.846C304.882 274.279 306.727 274.422 308.107 274.619C316.546 275.786 324.222 280.526 324.222 280.526C325.676 281.432 327.15 282.398 339.533 292.418C346.564 298.103 349.189 300.301 353.801 302.459C361.481 306.043 362.79 306.128 363.507 305.709C366.571 303.941 366.182 296.543 364.06 291.271C362.521 287.446 361.184 287.493 356.175 280.582C350.635 272.934 351.318 271.552 348.084 269.276C344.779 266.959 344.289 268.553 335.283 265.421C330.694 263.82 329.595 262.984 323.097 260.733C318.853 259.262 316.69 258.532 315.251 258.498C313.994 258.474 310.497 258.591 302.08 264.54C296.967 268.152 293.188 270.825 289.55 275.525C286.033 280.062 284.591 284.002 281.99 291.434C272.474 318.737 274.649 315.493 271.209 323.649C268.11 330.972 266.809 338.966 263.893 346.36C263.171 348.178 262.049 350.94 263.305 352.962L263.315 352.972Z" fill="#7E923C"/>
<path d="M181.045 353.552C183.393 355.001 189.046 351.944 189.063 349.186C189.07 348.385 188.602 347.972 187.613 346.719C183.412 341.457 183.562 338.8 181.391 338.496C179.88 338.29 178.253 339.352 177.488 340.572C176.783 341.69 176.849 342.866 176.883 343.464C177.003 345.328 177.898 346.054 178.962 348.198C180.681 351.658 179.865 352.817 181.045 353.552Z" fill="#7E923C"/>
<path d="M191.626 343.649C176.486 351.261 159.666 359.711 153.013 376.813C142.624 403.511 164.588 431.724 166.475 434.077C186.57 459.155 225.163 470.373 257.712 456.751C288.177 444.001 322.972 405.269 305.17 374.057C272.325 316.477 206.271 336.294 191.626 343.649Z" fill="#ADC17D"/>
<mask id="mask2_848_4448" style="mask-type:luminance" maskUnits="userSpaceOnUse" x="150" y="334" width="161" height="129">
<path d="M191.63 343.649C176.49 351.261 159.67 359.711 153.017 376.813C142.628 403.511 164.592 431.723 166.479 434.077C186.574 459.155 225.167 470.372 257.716 456.751C288.181 444.001 322.976 405.269 305.174 374.057C272.329 316.476 206.275 336.293 191.63 343.649Z" fill="white"/>
</mask>
<g mask="url(#mask2_848_4448)">
<path opacity="0.32" d="M176.942 362.004C179.055 360.798 192.533 353.134 203.733 359.408C215.655 366.074 215.459 383.177 215.408 387.394C215.363 391.023 207.149 416.84 190.266 424.672C176.205 431.194 165.786 420.598 158.589 407.452C149.205 390.313 163.293 369.771 176.942 362.004Z" fill="white"/>
<path d="M158.86 436.23C159.657 431.026 173.192 429.251 177.245 428.726C182.523 428.032 186.467 428.207 209.696 431.324C221.625 432.932 224.82 433.454 224.834 434.275C224.85 435.553 217.268 435.729 206.159 438.213C184.984 442.953 179.257 449.751 169.358 446.35C163.784 444.439 158.319 439.781 158.86 436.23Z" fill="#7E923C"/>
<path d="M200.257 350.543C195.201 353.375 194.812 365.805 199.521 369.24C202.563 371.456 205.345 368.179 213.537 368.354C219.792 368.488 220.683 370.45 234.731 374.309C240.648 375.934 246.992 377.679 247.393 376.725C247.804 375.729 241.332 372.485 231.676 366.903C208.847 353.697 204.342 348.264 200.257 350.553L200.257 350.543Z" fill="#7E923C"/>
<path d="M318.137 396.735C316.783 395.505 313.671 393.431 292.85 397.946C279.756 400.794 267.75 404.478 254.689 410.215C250.48 412.069 241.112 416.177 241.523 417.422C241.935 418.677 251.702 415.429 267.62 413.724C280.599 412.336 288.127 411.531 297.857 413.311C310.205 415.566 314.573 419.864 318.494 417.069C323.424 413.549 323.593 401.688 318.127 396.725L318.137 396.735Z" fill="#7E923C"/>
<path d="M295.553 447.981C295.534 443.694 281.386 440.058 271.872 439.017C252.957 436.955 235.915 443.369 236.156 444.959C236.281 445.79 241.04 444.42 249.358 445.72C264.412 448.084 267.711 455.56 278.821 455.479C286.981 455.421 295.569 451.327 295.553 447.981Z" fill="#7E923C"/>
</g>
<path d="M205.12 225.114C205.496 225.335 206.191 226.508 206.608 226.8C207.066 227.123 208.089 227.067 208.375 227.512C208.855 228.25 208.279 230.787 210.581 231.171C211.657 231.349 213.042 230.501 214.094 230.02C214.458 229.856 216.671 228.295 216.833 228.244C220.538 227.152 223.261 228.538 225.888 231.081C228.515 233.624 230.592 237.75 233.018 240.729C235.098 243.285 237.774 245.523 239.804 248.159C240.809 246.259 243.319 245.335 245.079 246.868C246.219 247.866 246.969 250.073 246.936 251.573C246.894 253.469 245.731 254.174 245.537 256.02C245.323 258.119 245.971 260.123 245.867 261.766C245.791 262.871 244.711 263.819 244.857 264.639C245.221 266.655 247.873 265.913 248.729 266.801C249.36 267.467 248.79 269.102 250.395 269.733C251.573 270.194 252.844 268.86 254.257 269.655C253.523 273.308 257.342 274.8 256.517 278.474C256.447 278.778 255.91 278.761 255.8 278.984C255.368 279.868 252.715 285.02 252.362 285.305C251.736 285.815 249.485 285.845 249.266 286.678C248.698 288.799 252.312 292.158 252.273 294.612C252.274 294.895 250.619 296.505 250.431 297.55C249.858 300.776 250.292 304.819 250.094 308.104C250.01 309.595 249.45 311.32 249.376 312.841C249.162 317.151 249.608 321.558 249.01 325.859L248.015 321.211C247.298 310.671 245.915 300.895 241.34 291.327C240.152 288.838 238.246 286.485 237.161 284.189C235.185 279.991 233.594 271.331 233.137 266.639C232.903 264.197 233.711 261.335 232.191 259.173L230.971 271.748L230.073 272.665C227.508 268.267 223.659 264.503 220.933 260.279C219.555 258.146 217.091 253.575 216.381 251.328C216.114 250.478 216.402 249.24 215.921 248.309L215.601 251.382C215.979 252.11 217.551 256.705 215.796 256.318C211.582 252.637 206.562 250.035 202.097 246.69C201.253 246.065 197.75 242.635 197.435 242.585C197.029 242.516 196.466 243.401 195.34 243.294C193.454 243.11 189.877 241.404 187.636 241.14C187.22 241.091 183.549 240.885 184.537 241.884C188.812 243.304 193.116 246.924 197.549 247.623C198.645 247.8 199.971 247.389 200.967 247.841C202.419 248.493 206.182 253.382 207.567 254.734C203.13 255.302 198.17 254.736 194.821 258.249C196.727 258.413 198.151 257.332 200.107 257.14C207.494 256.417 213.558 261.265 220.208 263.576L228.084 276.688C221.781 274.994 215.804 275.924 210.602 279.87C210.527 281.249 215.476 279.392 215.901 279.319C230.67 276.97 239.669 289.52 243.69 302.132C244.493 304.642 246.077 309.653 243.479 311.338C243.843 306.693 240.597 299.5 236.168 297.645C235.021 297.164 230.76 296.555 230.16 296.01C228.653 294.649 230.911 291.942 228.685 290.533C225.96 288.822 224.651 290.602 223.282 290.487C222.805 290.448 222.255 289.883 221.403 289.836C216.567 289.575 211.776 290.469 207.029 289.872C206.07 288.528 207.193 285.877 206.926 285.047C206.833 284.764 205.267 283.777 204.97 282.978C204.703 282.28 204.872 281.59 204.677 281.074C204.462 280.487 203.781 280.277 203.646 279.527C203.345 277.886 204.569 277.455 204.726 276.228C205.137 273.043 201.229 271.966 198.707 272.464C197.482 272.703 196.799 274.176 196.041 274.635C191.371 277.495 187.933 270.608 183.903 271.579C182.84 271.837 179.413 273.992 180.694 270.235C181.064 269.159 184.508 268.717 183.484 266.381L180.782 265.258C180.261 264.398 181.025 262.884 180.241 262.138C179.457 261.391 176.789 261.008 175.843 260.343C174.267 259.246 173.69 257.17 174.077 255.334C174.612 252.776 177.531 250.29 176.008 247.539C175.742 247.064 174.166 246.179 174.012 245.714C173.817 245.137 174.047 244.355 173.861 243.677C173.191 241.216 168.971 240.577 167.637 237.136C167.175 235.932 167.076 231.888 167.669 230.841C168.544 229.286 170.4 229.511 171.178 228.868C171.895 228.277 171.635 226.879 172.129 226.36C172.876 225.586 175.503 225.949 176.498 226.289C176.803 226.389 176.845 226.876 177.079 226.956C177.911 227.236 180.328 228.107 180.997 228.104C181.839 228.1 187.69 226.319 188.569 225.829C188.802 225.696 190.285 224.148 190.568 224.025C193.239 222.898 194.13 224.718 196.331 225.033C198.928 225.396 202.874 223.827 205.11 225.155L205.12 225.114Z" fill="#4F783C"/>
<path d="M336.149 261.737C338.843 263.509 341.872 263.009 344.866 263.745C345.617 263.934 348.664 265.188 349.092 265.713C350.129 268.567 351.37 271.856 353.691 273.893C355.706 275.657 360.216 277.583 360.483 280.613C360.644 282.417 359.715 283.384 360.465 285.377C361.624 288.464 365.23 287.718 366.852 289.92C368.902 292.719 367.098 297.218 368.096 300.386C368.62 302.036 371.415 303.625 371.518 303.969C372.033 305.579 370.877 305.513 370.655 305.919C369.328 308.318 371.415 312.475 367.729 313.191C366.746 313.378 361.079 313.353 360.277 313.033C360.074 312.952 358.182 311.461 358.049 311.249C357.681 310.703 357.719 309.993 357.341 309.397C355.86 307.082 351.484 307.639 350.352 306.195C349.526 305.134 350.468 302.859 349.651 301.495C349.355 300.999 346.926 299.743 346.225 299.361C345.727 299.09 345.089 299.214 344.622 298.963C343.26 298.219 343.585 296.129 341.907 294.941C339.822 293.46 337.045 293.716 334.546 292.471C334.028 292.209 333.042 291.656 332.564 291.355C332.31 291.194 332.256 290.565 331.84 290.425C329.779 289.725 329.238 293.407 328.604 294.394C327.165 296.63 322.929 292.524 321.456 291.76C317.096 289.489 314.119 290.101 310.753 285.707C308.744 283.09 308.343 281.693 307.123 278.749C304.991 273.599 302.562 274.482 298.693 277.49C294.046 281.1 283.959 296.433 283.123 297.522C282.927 296.833 283.398 295.696 283.568 295.158C285.897 287.899 290.52 281.501 296.307 276.579C298.185 274.978 304.479 270.327 306.823 270.975C307.402 271.135 307.973 271.882 308.633 272.112C309.253 272.332 309.982 272.167 310.55 272.377C312.114 272.948 313.458 274.331 315.221 274.069L312.639 270.249L313.253 269.405C313.891 269.199 320.412 269.869 321.559 270.066C322.462 270.224 325.629 271.082 326.35 271.463C328.067 272.368 327.442 273.161 328.208 274.354C329.699 276.669 331.705 278.657 333.68 280.563C334.431 280.712 334.297 280.206 334.203 279.669C333.86 277.795 331.864 275.828 332.371 273.646C340.758 276.446 348.899 283.281 351.058 292.152L352.515 291.577C354.221 294.398 356.432 296.902 358.522 299.457C358.838 299.841 358.526 300.369 359.468 300.132C360.352 298.313 356.846 294.396 357.276 293.076C357.736 291.665 360.926 293.171 361.259 292.835L361.173 291.811C359.621 291.464 358.049 289.139 356.851 288.678C355.967 288.338 354.965 288.687 354.305 288.315C353.644 287.943 349.506 283.076 348.254 281.967C346.137 280.091 342.453 277.107 340.145 275.496C338.609 274.428 336.973 273.523 335.287 272.72C335.26 271.311 343.506 272.328 344.379 270.316C340.008 269.84 335.924 268.125 331.466 268.591C330.352 268.708 329.442 269.31 328.205 269.265C325.914 269.195 321.86 267.307 319.304 266.863C317.965 266.636 311.499 267.041 312.797 264.967C312.968 264.702 316.446 262.598 317.002 262.221C317.416 261.945 317.945 262.308 317.727 261.315C314.847 261.065 311.122 262.227 308.676 263.779C306.998 264.851 306.316 266.497 304.689 267.447C303.465 268.162 301.582 268.586 300.308 269.272C289.073 275.324 282.687 290.965 278.533 302.53C277.963 304.114 275.53 310.877 275.53 310.877C275.53 310.877 275.463 307.248 275.72 305.878C275.879 305.036 276.494 304.445 276.624 303.867C277.448 300.183 278.029 296.43 279.006 292.796C280.142 288.594 280.738 288.054 280.97 283.512C281.091 281.129 283.124 280.167 284.048 278.186C284.349 277.546 284.163 276.685 284.576 276.166C285.05 275.566 285.892 275.825 286.337 275.55C287.752 274.671 286.98 272.039 287.879 271.447C288.861 271.21 290.866 270.744 291.644 270.183C292.271 269.734 292.818 267.471 293.212 267.206C294.182 266.542 296.908 266.266 298.079 265.217C298.856 264.514 299.306 263.011 299.88 262.289C301.553 260.173 304.353 258.274 303.903 255.215C305.308 254.337 306.609 255.233 308.049 255.176C311.049 255.071 317.531 253.774 319.921 255.618C320.694 256.213 321.034 257.275 321.746 257.809C324.147 259.603 326.421 258.183 328.853 257.969C334.558 257.477 332.702 259.452 336.179 261.747L336.149 261.737Z" fill="#4F783C"/>
<path d="M164.162 330.719C164.235 331.012 164.774 331.476 165.086 330.907C165.989 326.777 168.031 323.199 167.94 318.861L174.492 315.192C175.302 315.056 174.908 315.332 175.032 315.716C175.916 318.439 176.527 321.194 176.53 324.103C176.532 324.63 176.177 326.761 175.987 327.197C175.284 328.792 170.292 332.252 169.299 334.365C168.703 334.874 166.821 335.785 166.367 336.254C164.814 337.852 165.828 340.189 163.106 341.286C162.175 341.666 159.683 341.941 158.937 342.968C158.393 343.721 158.122 346.469 157.599 347.465C157.177 348.278 155.207 349.595 154.858 350.904C154.27 353.157 155.901 355.096 155.548 357.764C155.411 358.829 154.03 360.406 153.222 361.079C146.991 366.267 138.835 369.498 130.606 367.873C130.038 367.764 128.114 366.04 127.828 365.544C127.665 365.261 126.72 362.539 126.708 362.255C126.632 361.17 127.5 360.214 127.406 359.748C127.209 358.704 124.651 357.956 124.514 356.771C124.353 354.987 127.998 353.855 125.601 350.683C125.254 350.229 123.084 347.806 123.022 347.603C122.898 347.148 122.919 344.958 122.977 344.38C123.075 343.568 123.826 343.828 124.036 343.24C126.588 336.061 130.513 329.727 135.461 323.521C151.225 303.722 172.175 298.415 194.501 312.535L197.195 314.145C196.456 314.351 195.441 314.204 194.893 313.973C185.234 310.044 177.121 309.29 167.647 314.564C166.271 315.331 162.384 318.582 161.655 318.788C159.539 319.406 154.008 318.134 153.549 321.816C153.701 321.967 158.088 321.43 157.557 322.71C157.286 323.37 152.826 327.729 151.928 328.757C151.172 329.633 149.865 331.98 149.056 332.44C148.025 333.033 146.756 332.684 145.481 333.247C143.964 333.923 142.058 336.142 140.501 337.011C141.339 338.588 146 335.952 145.98 338.07C145.981 338.456 143.35 343.901 142.971 345.261C142.662 346.378 142.921 347.603 142.55 348.477C142.119 349.482 140.083 349.735 139.094 350.865C138.509 351.526 136.074 355.511 136.574 356.168L140.83 353.634L142.395 354.316C143.29 346.172 146.817 339.374 151.419 332.764C151.986 332.65 152.221 332.882 152.426 333.388C153.645 336.292 152.986 340.562 155.46 342.954C154.899 337.817 156.469 332.964 156.567 327.895C156.836 326.981 162.59 321.653 164.123 322.133L164.162 330.698L164.162 330.719Z" fill="#4F783C"/>
<path d="M266.232 376.051C266.613 377.438 274.496 374.391 285.409 375.547C298.33 376.917 307.168 383.304 308.527 381.219C308.98 380.528 308.131 378.839 306.443 375.451C304.612 371.81 303.564 371.085 303.525 369.067C303.486 367.273 304.281 365.932 305.357 364.112C307.711 360.127 309.98 359.671 309.859 357.695C309.739 355.749 307.388 353.854 305.93 354.205C304.857 354.464 304.68 355.833 303.675 357.723C303.675 357.723 301.846 361.158 297.52 363.935C294.923 365.609 293.846 365.057 287.841 366.453C287.496 366.536 282.21 367.786 276.726 370.011C275.725 370.421 265.809 374.481 266.242 376.04L266.232 376.051Z" fill="#7E923C"/>
</g>
<g clip-path="url(#clip3_848_4448)">
<path d="M55.9296 561.847C56.2358 569.318 77.1517 575.36 78.7881 572.69C79.5412 571.451 75.543 569.393 74.5838 564.276C73.5842 558.993 76.599 554.56 79.5878 549.694C83.9839 542.53 88.8226 533.591 91.1261 528.012C95.5547 517.253 91.8524 515.709 95.5352 497.397C98.9677 480.363 102.36 480.769 101.841 472.606C100.965 458.894 90.8707 449.251 82.6294 441.375C76.8431 435.844 63.2683 422.879 56.4411 426.861C53.3687 428.658 55.8865 433.34 53.964 450.005C52.8298 459.834 51.6801 460.936 52.954 464.104C56.6047 473.199 70.457 474.782 69.8246 478.613C69.5901 480.03 67.6978 479.851 63.355 484.151C60.4991 486.969 60.0837 488.261 60.0333 489.268C59.9371 491.441 61.5804 493.16 62.4805 494.056C69.1984 500.762 74.9331 502.155 78.7896 506.663C84.6441 513.488 83.0194 523.809 82.4657 527.304C81.3026 534.709 77.8038 539.743 75.6456 542.77C66.3951 555.774 55.7145 556.494 55.9342 561.863L55.9296 561.847Z" fill="#7E923C"/>
<path d="M48.9046 556.152C50.4285 553.906 47.0671 550.846 41.2353 538.927C35.3071 526.826 36.78 525.899 32.2177 518.311C29.1342 513.177 24.9083 506.125 16.5096 500.703C8.47816 495.521 0.75526 494.485 -3.76831 493.922C-7.77977 493.427 -19.3276 492.156 -32.0581 497.965C-35.6812 499.619 -43.7364 503.403 -49.8132 511.995C-52.9519 516.44 -57.8218 523.319 -55.1383 529.597C-53.0498 534.491 -47.5586 538.448 -44.6178 537.182C-41.1285 535.677 -43.4942 527.805 -38.9735 525.343C-36.7971 524.158 -35.7137 525.704 -30.3639 524.701C-29.0125 524.455 -28.2419 524.194 -23.2773 522.432C-15.0258 519.513 -15.6597 519.692 -14.6919 519.381C-5.23209 516.334 -3.53716 518.343 -0.757278 515.785C3.07515 512.255 0.761115 507.631 4.30854 505.491C7.81378 503.38 13.0808 506.089 15.9517 507.573C21.6786 510.52 24.9404 514.966 26.3943 517.249C31.2034 524.841 31.2779 532.906 31.2704 536.672C31.2412 545.649 28.4601 547.945 30.5412 551.722C34.0553 558.085 46.5082 559.666 48.9155 556.132L48.9046 556.152Z" fill="#7E923C"/>
<path d="M75.3319 590.773C75.5737 595.211 83.2832 599.591 87.0236 597.673C89.1505 596.579 89.6176 593.652 89.8212 592.532C91.4425 583.492 97.5666 575.463 106.738 563.397C106.738 563.397 116.163 551.011 135.383 540.108C135.383 540.108 140.7 537.098 149.061 535.037C151.614 534.411 154.223 533.946 157.233 534.694C159.666 535.298 161.422 536.45 162.685 537.399C170.434 543.174 175.47 552.081 175.47 552.081C176.419 553.776 177.356 555.542 184.183 572.27C188.062 581.764 189.469 585.383 192.872 590.05C198.545 597.811 199.799 598.611 200.741 598.587C204.752 598.505 208.411 590.94 209.184 584.541C209.747 579.899 208.392 579.214 207.192 569.607C205.869 558.978 207.304 557.978 205.334 553.948C203.316 549.839 201.958 551.155 194.721 543.118C191.035 539.018 190.401 537.586 185.174 531.796C181.761 528.014 180.011 526.106 178.599 525.286C177.363 524.574 173.824 522.778 162.207 524.088C155.151 524.882 149.934 525.472 143.748 528.154C137.772 530.74 134.186 533.867 127.536 539.83C103.152 561.76 107.087 559.725 99.2095 565.95C92.1259 571.533 86.4617 578.765 79.5215 584.518C77.8105 585.93 75.1844 588.062 75.3273 590.757L75.3319 590.773Z" fill="#7E923C"/>
<path d="M-6.74436 546.366C-5.20293 549.09 2.08592 549.143 3.61123 546.412C4.05555 545.62 3.81635 544.953 3.51828 543.168C2.22104 535.641 3.82268 533.083 1.83185 531.594C0.442493 530.563 -1.75512 530.728 -3.18222 531.523C-4.49377 532.249 -5.07073 533.453 -5.36472 534.066C-6.26497 535.984 -5.77199 537.195 -5.88691 539.908C-6.07001 544.285 -7.51463 544.991 -6.74436 546.366Z" fill="#7E923C"/>
<path d="M9.18648 542.311C-10.0213 541.597 -31.3562 540.798 -47.318 554.155C-72.2408 575.006 -65.8386 615.053 -65.2509 618.423C-58.9929 654.332 -26.7738 686.581 13.0199 690.841C50.266 694.827 106.022 675.362 105.396 634.612C104.24 559.431 27.762 543.008 9.18648 542.311Z" fill="#ADC17D"/>
<mask id="mask3_848_4448" style="mask-type:luminance" maskUnits="userSpaceOnUse" x="-67" y="541" width="173" height="151">
<path d="M9.19039 542.312C-10.0174 541.598 -31.3523 540.8 -47.3141 554.157C-72.2369 575.008 -65.8347 615.054 -65.247 618.424C-58.989 654.334 -26.7699 686.582 13.0238 690.842C50.2699 694.829 106.026 675.364 105.4 634.613C104.244 559.433 27.7659 543.01 9.19039 542.312Z" fill="white"/>
</mask>
<g mask="url(#mask3_848_4448)">
<path opacity="0.32" d="M-15.4433 552.523C-12.684 552.48 4.90047 552.232 12.6 564.591C20.8022 577.734 11.2571 594.623 8.89995 598.786C6.87165 602.368 -15.4072 623.533 -36.4674 622.085C-54.0065 620.878 -58.5667 604.651 -58.5312 587.653C-58.4859 565.489 -33.2544 552.778 -15.4433 552.523Z" fill="white"/>
<path d="M13.9932 553.882C7.42112 553.931 0.238195 566.071 3.03984 572.06C4.85029 575.925 9.40748 574.19 17.4522 578.843C23.5954 582.396 23.4078 584.833 35.2579 596.349C40.2498 601.199 45.5999 606.402 46.5206 605.673C47.4733 604.908 42.8154 598.145 36.2717 587.318C20.8058 561.713 19.299 553.85 13.9877 553.892L13.9932 553.882Z" fill="#7E923C"/>
<path d="M105.884 664.239C105.211 662.276 103.253 658.513 80.0927 651.616C65.523 647.286 51.5776 644.383 35.4616 642.943C30.2655 642.484 18.7097 641.445 18.4376 642.907C18.16 644.379 29.6425 646.491 46.3933 653.5C60.0503 659.218 67.9717 662.534 76.6675 669.623C87.705 678.615 89.6961 685.275 95.1205 684.641C101.945 683.839 108.598 672.144 105.879 664.223L105.884 664.239Z" fill="#7E923C"/>
<path d="M55.4195 702.817C57.7444 698.545 45.6724 687.197 36.7875 680.961C19.1177 668.569 -1.32452 665.625 -1.95517 667.337C-2.28468 668.231 3.19297 669.471 10.7488 675.311C24.4168 685.892 23.6069 695.125 34.6921 701.119C42.8329 705.523 53.6056 706.15 55.4195 702.817Z" fill="#7E923C"/>
</g>
<path d="M87.4056 431.894C87.6583 432.319 87.7075 433.865 87.9622 434.383C88.2408 434.953 89.2882 435.458 89.3292 436.056C89.4026 437.052 87.4428 439.258 89.5209 440.899C90.4925 441.664 92.3323 441.579 93.6409 441.676C94.0924 441.712 97.1451 441.37 97.3342 441.408C101.613 442.349 103.561 445.216 104.782 449.179C106.002 453.142 105.81 458.378 106.592 462.665C107.262 466.342 108.697 470.029 109.273 473.759C111.31 472.42 114.31 472.874 115.221 475.36C115.808 476.976 115.347 479.578 114.493 481.051C113.415 482.912 111.875 482.977 110.672 484.705C109.312 486.675 108.86 489.021 107.859 490.596C107.179 491.653 105.587 492.004 105.283 492.899C104.543 495.101 107.585 495.814 107.949 497.165C108.213 498.172 106.752 499.485 108.001 500.989C108.92 502.091 110.913 501.461 111.882 503.023C109.156 506.252 112.135 509.823 109.307 513.023C109.071 513.287 108.547 512.976 108.315 513.138C107.402 513.78 101.949 517.449 101.442 517.539C100.541 517.704 98.2881 516.504 97.6152 517.211C95.8908 519.008 97.6457 524.323 96.2651 526.739C96.1112 527.022 93.5865 527.716 92.8285 528.652C90.4949 531.545 88.7159 535.8 86.723 538.956C85.8242 540.391 84.3242 541.8 83.419 543.271C80.8507 547.437 78.8839 552.061 75.9374 556.008L77.4908 550.845C82.5404 539.979 86.5114 529.508 87.1966 517.497C87.3772 514.375 86.7693 510.994 86.9465 508.119C87.2784 502.867 90.4326 493.391 92.5432 488.479C93.6456 485.924 96.0136 483.521 95.6851 480.541L87.5971 492.372L86.2035 492.791C86.0596 487.019 84.2923 481.174 83.8933 475.485C83.6896 472.612 83.7401 466.723 84.2635 464.101C84.4626 463.11 85.426 462.037 85.457 460.85L83.4583 463.729C83.4362 464.659 82.4861 470.085 80.9533 468.74C78.7784 462.779 75.213 457.448 72.6042 451.682C72.1068 450.6 70.5014 445.275 70.2158 445.054C69.8503 444.764 68.8066 445.334 67.7461 444.613C65.9721 443.399 63.3515 439.747 61.268 438.26C60.8814 437.984 57.3464 435.772 57.7819 437.305C61.2532 441.053 63.5519 447.004 67.575 450.123C68.5668 450.898 70.1097 451.214 70.852 452.207C71.939 453.65 73.0053 460.566 73.6423 462.667C68.922 460.805 64.3023 457.531 59.0531 459.191C60.8583 460.396 62.8649 460.1 64.913 460.979C72.6491 464.299 76.0244 472.433 81.3697 478.366L82.0274 495.702C76.6902 490.572 70.2425 488.228 62.9143 489.306C62.086 490.635 68.0193 491.495 68.482 491.655C84.4433 497.397 86.5242 514.788 83.6245 529.52C83.0491 532.454 81.8837 538.299 78.3813 538.553C81.2824 534.136 81.9889 525.214 78.6025 520.949C77.7251 519.843 73.8242 516.908 73.5252 516.039C72.7725 513.862 76.4968 512.407 75.0546 509.789C73.2824 506.599 71.0076 507.652 69.7102 506.789C69.2575 506.49 69.0199 505.628 68.1991 505.115C63.5357 502.211 58.2861 500.48 53.8949 497.291C53.6766 495.431 56.2423 493.411 56.4304 492.44C56.4934 492.108 55.4768 490.272 55.6182 489.314C55.7348 488.475 56.2803 487.881 56.3687 487.262C56.4754 486.561 55.9142 485.98 56.1896 485.162C56.7872 483.366 58.24 483.607 59.0667 482.473C61.2167 479.533 57.9221 476.326 55.1436 475.442C53.7952 475.009 52.3115 476.1 51.3067 476.142C45.1019 476.431 45.4516 467.706 40.9155 466.468C39.7177 466.143 35.1343 466.411 38.4607 463.378C39.417 462.511 43.0815 463.955 43.3413 461.073L41.2705 458.48C41.2226 457.341 42.8091 456.254 42.4382 455.083C42.0673 453.913 39.6256 452.073 39.0491 450.896C38.0829 448.943 38.6441 446.565 40.0328 444.951C41.9632 442.703 46.223 441.827 46.2132 438.261C46.209 437.644 45.1273 435.903 45.2286 435.356C45.35 434.676 46.0056 434.025 46.192 433.249C46.8712 430.438 43.0272 427.495 43.5831 423.347C43.7827 421.897 45.895 417.824 47.0569 417.108C48.7765 416.041 50.4982 417.279 51.6221 417.066C52.658 416.871 53.164 415.34 53.9392 415.094C55.1042 414.733 57.5166 416.53 58.3194 417.412C58.5674 417.678 58.344 418.185 58.5323 418.392C59.2065 419.126 61.1319 421.312 61.7985 421.675C62.6367 422.131 69.4249 423.561 70.5674 423.554C70.8711 423.55 73.1911 422.822 73.5398 422.855C76.8106 423.195 76.6999 425.491 78.7156 427.007C81.0976 428.788 85.8772 429.386 87.3735 431.929L87.4056 431.894Z" fill="#4F783C"/>
<path d="M197.596 539.931C199.304 543.165 202.588 544.324 205.16 546.692C205.803 547.291 208.146 550.202 208.284 550.958C207.754 554.361 207.19 558.309 208.382 561.602C209.42 564.458 212.849 568.837 211.458 571.994C210.631 573.874 209.18 574.328 208.834 576.719C208.299 580.42 212.29 581.65 212.698 584.725C213.205 588.627 208.952 592.112 208.212 595.806C207.831 597.733 209.74 600.84 209.654 601.238C209.285 603.119 208.172 602.421 207.73 602.704C205.1 604.362 204.901 609.634 200.846 608.331C199.767 607.979 194.149 604.856 193.527 604.099C193.369 603.908 192.304 601.391 192.288 601.108C192.222 600.364 192.647 599.679 192.597 598.88C192.392 595.77 187.737 593.931 187.402 591.877C187.161 590.371 189.342 588.626 189.276 586.823C189.253 586.168 187.526 583.592 187.038 582.829C186.691 582.287 185.989 582.062 185.662 581.557C184.715 580.073 186.181 578.174 185.163 576.075C183.901 573.464 181.002 572.201 179.199 569.596C178.827 569.053 178.149 567.965 177.84 567.403C177.675 567.104 177.965 566.451 177.628 566.084C175.963 564.261 173.412 567.625 172.243 568.258C169.59 569.694 167.625 563.297 166.579 561.733C163.488 557.092 160.195 556.072 159.253 549.865C158.687 546.167 159.052 544.559 159.449 540.966C160.146 534.682 157.25 534.232 151.76 535.106C145.169 536.152 126.761 545.875 125.335 546.499C125.517 545.708 126.607 544.835 127.07 544.393C133.353 538.453 141.446 534.624 149.887 532.895C152.629 532.332 161.427 531.151 163.402 533.077C163.89 533.552 164.049 534.607 164.579 535.196C165.074 535.754 165.889 535.988 166.339 536.508C167.581 537.93 168.161 540.039 170.056 540.743L169.579 535.535L170.651 535.032C171.397 535.176 177.512 539.407 178.543 540.23C179.354 540.881 182.032 543.465 182.54 544.239C183.752 546.076 182.697 546.523 182.806 548.127C183.022 551.243 183.929 554.315 184.849 557.29C185.514 557.848 185.658 557.272 185.858 556.687C186.542 554.637 185.634 551.591 187.331 549.7C194.134 557.067 198.487 568.312 195.782 578.307L197.544 578.533C197.698 582.269 198.526 585.966 199.206 589.648C199.31 590.202 198.711 590.557 199.777 590.836C201.649 589.512 200.308 583.703 201.457 582.626C202.685 581.475 205.032 584.716 205.546 584.564L206.021 583.5C204.668 582.305 204.377 579.136 203.438 578.023C202.746 577.202 201.56 577.001 201.106 576.27C200.653 575.539 199.202 568.44 198.565 566.653C197.486 563.631 195.458 558.652 194.044 555.788C193.102 553.888 191.971 552.094 190.734 550.374C191.478 548.959 199.117 554.478 201.084 552.956C197 550.092 193.88 546.156 189.195 544.182C188.024 543.688 186.79 543.79 185.586 543.069C183.347 541.746 180.351 537.654 178.053 535.814C176.847 534.857 170.2 531.723 172.624 530.372C172.939 530.203 177.545 530.013 178.304 529.942C178.866 529.895 179.194 530.544 179.52 529.439C176.795 527.615 172.457 526.734 169.178 526.939C166.924 527.087 165.347 528.349 163.21 528.404C161.603 528.445 159.499 527.837 157.859 527.821C143.385 527.694 128.487 539.745 118.036 548.967C116.602 550.229 110.488 555.62 110.488 555.62C110.488 555.62 112.405 551.977 113.41 550.756C114.027 550.006 114.962 549.755 115.407 549.251C118.24 546.041 120.87 542.629 123.827 539.552C127.254 535.998 128.141 535.787 130.856 531.4C132.279 529.098 134.825 529.253 136.826 527.79C137.476 527.318 137.761 526.361 138.455 526.071C139.254 525.734 139.95 526.452 140.542 526.422C142.429 526.323 143.101 523.285 144.318 523.188C145.424 523.489 147.671 524.123 148.751 523.99C149.619 523.887 151.4 521.937 151.937 521.889C153.264 521.76 156.124 522.976 157.861 522.573C159.018 522.3 160.286 521.052 161.252 520.649C164.072 519.46 167.891 519.104 169.117 515.818C170.993 515.714 171.797 517.316 173.259 518.046C176.297 519.582 183.448 521.837 184.815 524.977C185.259 525.991 185.015 527.232 185.43 528.152C186.835 531.247 189.872 531.08 192.405 532.197C198.344 534.827 195.42 535.775 197.62 539.957L197.596 539.931Z" fill="#4F783C"/>
<path d="M-11.0379 514.445C-11.1266 514.776 -10.8441 515.532 -10.2233 515.137C-7.06721 511.527 -3.08236 509.087 -0.8006 504.726L7.71687 504.663C8.59626 504.971 8.05399 505.029 7.96632 505.479C7.35632 508.668 6.45715 511.74 4.86959 514.633C4.58378 515.158 3.06598 517.081 2.63776 517.411C1.06788 518.611 -5.78439 519.32 -7.92746 520.876C-8.79813 521.057 -11.1657 520.933 -11.873 521.151C-14.2912 521.89 -14.5611 524.767 -17.8659 524.369C-18.9984 524.237 -21.6257 523.147 -22.9282 523.761C-23.8802 524.211 -25.6525 526.794 -26.7163 527.498C-27.5802 528.075 -30.2586 528.306 -31.3211 529.417C-33.1371 531.334 -32.5766 534.153 -34.3857 536.611C-35.1042 537.594 -37.3397 538.407 -38.5104 538.634C-47.5393 540.383 -57.4106 539.134 -64.6996 533.02C-65.2047 532.601 -66.1735 529.835 -66.187 529.187C-66.1947 528.816 -65.6453 525.594 -65.5015 525.305C-64.984 524.186 -63.5989 523.71 -63.4369 523.196C-63.0627 522.051 -65.1954 519.908 -64.6837 518.655C-63.8678 516.796 -59.6275 517.663 -60.2749 513.201C-60.371 512.559 -61.2029 508.965 -61.1536 508.73C-61.0275 508.209 -59.8099 506.044 -59.4361 505.502C-58.8954 504.749 -58.2909 505.418 -57.7601 504.948C-51.2988 499.209 -43.9359 495.061 -35.6244 491.599C-9.13336 480.543 14.587 486.724 29.0533 512.963L30.8502 516.035C30.003 515.836 29.0755 515.135 28.6566 514.606C21.2069 505.42 13.5563 500.235 1.2572 500.296C-0.528512 500.306 -6.17003 501.411 -7.0071 501.218C-9.44761 500.675 -14.2481 496.387 -16.718 499.794C-16.6489 500.028 -11.9957 501.893 -13.2235 502.874C-13.8534 503.382 -20.6697 505.275 -22.1237 505.806C-23.3538 506.263 -25.9363 507.881 -26.9916 507.896C-28.3405 507.921 -29.4105 506.88 -30.9853 506.743C-32.863 506.585 -35.9699 507.748 -37.9924 507.76C-38.0217 509.786 -31.9479 509.715 -33.127 511.809C-33.3358 512.193 -38.9279 516.166 -40.0482 517.31C-40.9658 518.251 -41.3784 519.61 -42.2248 520.275C-43.2032 521.039 -45.365 520.176 -46.9648 520.759C-47.9078 521.096 -52.5064 523.725 -52.3688 524.651L-46.754 524.46L-45.5725 525.993C-40.2298 518.389 -33.0079 513.562 -24.8199 509.51C-24.1939 509.706 -24.088 510.065 -24.1609 510.68C-24.5365 514.232 -27.5271 518.116 -26.3757 521.845C-24.1243 516.434 -19.9114 512.469 -17.042 507.485C-16.2747 506.725 -7.64358 504.576 -6.38243 505.891L-11.0269 514.424L-11.0379 514.445Z" fill="#4F783C"/>
<path d="M65.6103 615.302C65.231 616.889 74.7307 618.171 84.9433 625.287C97.0347 633.713 102.326 644.893 104.816 643.564C105.645 643.125 105.724 640.982 105.899 636.692C106.07 632.072 105.426 630.779 106.489 628.753C107.432 626.949 108.955 626.05 111.019 624.83C115.537 622.158 118.041 622.944 119.002 620.915C119.946 618.915 118.647 615.747 117.005 615.299C115.798 614.969 114.874 616.233 112.841 617.562C112.841 617.562 109.146 619.975 103.328 620.37C99.8313 620.613 99.0631 619.475 92.3323 617.579C91.9449 617.473 86.0081 615.826 79.3416 615.038C78.122 614.898 66.0482 613.511 65.6259 615.297L65.6103 615.302Z" fill="#7E923C"/>
</g>
<g clip-path="url(#clip4_848_4448)">
<path d="M-57.9445 232.434C-58.3455 242.219 -85.7401 250.133 -87.8834 246.636C-88.8698 245.013 -83.6331 242.317 -82.3769 235.615C-81.0676 228.696 -85.0163 222.89 -88.9309 216.516C-94.6887 207.134 -101.026 195.426 -104.043 188.119C-109.844 174.027 -104.994 172.005 -109.818 148.021C-114.314 125.71 -118.756 126.242 -118.077 115.55C-116.929 97.5918 -103.709 84.9616 -92.9146 74.6463C-85.336 67.4013 -67.5563 50.4209 -58.6144 55.6358C-54.5903 57.9893 -57.888 64.1218 -55.3701 85.9491C-53.8846 98.8226 -52.3788 100.266 -54.0473 104.415C-58.8287 116.327 -76.9718 118.4 -76.1436 123.419C-75.8364 125.275 -73.3579 125.04 -67.6699 130.671C-63.9295 134.362 -63.3854 136.055 -63.3193 137.374C-63.1934 140.22 -65.3457 142.471 -66.5246 143.644C-75.3234 152.428 -82.8344 154.253 -87.8854 160.156C-95.5534 169.096 -93.4255 182.614 -92.7002 187.192C-91.1769 196.89 -86.5943 203.483 -83.7676 207.448C-71.6517 224.48 -57.6628 225.423 -57.9506 232.454L-57.9445 232.434Z" fill="#7E923C"/>
<path d="M-48.7456 224.976C-50.7416 222.033 -46.339 218.025 -38.7009 202.415C-30.9363 186.565 -32.8654 185.351 -26.89 175.412C-22.8514 168.688 -17.3165 159.452 -6.31629 152.351C4.20289 145.563 14.318 144.207 20.2427 143.469C25.4967 142.821 40.6215 141.156 57.2953 148.764C62.0407 150.93 72.591 155.887 80.5501 167.141C84.6611 172.962 91.0394 181.972 87.5247 190.194C84.7892 196.604 77.5971 201.787 73.7454 200.128C69.1753 198.158 72.2738 187.847 66.3528 184.623C63.5022 183.071 62.0833 185.095 55.0763 183.782C53.3063 183.46 52.297 183.117 45.7946 180.81C34.9873 176.987 35.8176 177.221 34.55 176.814C22.1599 172.824 19.94 175.455 16.299 172.104C11.2795 167.481 14.3103 161.425 9.66406 158.622C5.07307 155.857 -1.82544 159.405 -5.58554 161.349C-13.0865 165.208 -17.3586 171.031 -19.2628 174.022C-25.5615 183.965 -25.6591 194.528 -25.6493 199.461C-25.6111 211.219 -21.9685 214.226 -24.6942 219.173C-29.2968 227.507 -45.607 229.577 -48.76 224.949L-48.7456 224.976Z" fill="#7E923C"/>
<path d="M24.1389 212.158C22.12 215.726 12.5734 215.795 10.5757 212.219C9.99371 211.181 10.307 210.307 10.6974 207.969C12.3965 198.111 10.2987 194.761 12.9062 192.81C14.7259 191.46 17.6042 191.677 19.4734 192.717C21.1912 193.668 21.9469 195.245 22.3319 196.047C23.511 198.561 22.8653 200.146 23.0159 203.699C23.2557 209.432 25.1478 210.357 24.1389 212.158Z" fill="#7E923C"/>
<path d="M3.2765 206.847C28.4339 205.911 56.3774 204.865 77.2833 222.36C109.926 249.67 101.541 302.12 100.771 306.534C92.5746 353.567 50.3756 395.804 -1.7443 401.384C-50.5274 406.605 -123.554 381.111 -122.735 327.738C-121.219 229.27 -21.0528 207.76 3.2765 206.847Z" fill="#ADC17D"/>
<mask id="mask4_848_4448" style="mask-type:luminance" maskUnits="userSpaceOnUse" x="-123" y="206" width="226" height="197">
<path d="M3.2726 206.849C28.43 205.913 56.3734 204.867 77.2794 222.362C109.922 249.672 101.537 302.122 100.767 306.536C92.5707 353.569 50.3717 395.806 -1.74821 401.386C-50.5313 406.607 -123.558 381.113 -122.739 327.74C-121.223 229.272 -21.0567 207.762 3.2726 206.849Z" fill="white"/>
</mask>
<g mask="url(#mask4_848_4448)">
<path opacity="0.32" d="M35.5326 220.222C31.9186 220.166 8.88733 219.841 -1.19715 236.029C-11.94 253.243 0.561675 275.363 3.64901 280.815C6.30558 285.507 35.4853 313.227 63.069 311.331C86.0408 309.75 92.0135 288.497 91.9671 266.234C91.9077 237.205 58.8608 220.556 35.5326 220.222Z" fill="white"/>
<path d="M112.221 303.885C107.456 297.682 88.5679 305.065 82.917 307.283C75.5504 310.161 70.5417 313.212 42.5403 333.904C28.1654 344.539 24.3804 347.508 24.9503 348.587C25.8441 350.26 35.839 345.061 52.0772 340.338C83.0328 331.343 95.3548 336.09 105.804 324.574C111.691 318.095 115.468 308.119 112.221 303.885Z" fill="#7E923C"/>
<path d="M-3.02359 222.002C5.5842 222.066 14.9921 237.966 11.3226 245.81C8.95136 250.873 2.98257 248.6 -7.55399 254.695C-15.6001 259.348 -15.3543 262.541 -30.8751 277.623C-37.4132 283.976 -44.4206 290.79 -45.6263 289.835C-46.8742 288.833 -40.7736 279.975 -32.2029 265.795C-11.9463 232.259 -9.97281 221.961 -3.01639 222.015L-3.02359 222.002Z" fill="#7E923C"/>
<path d="M-57.2805 417.07C-60.3257 411.475 -44.5143 396.611 -32.8772 388.443C-9.7343 372.213 17.04 368.357 17.866 370.6C18.2976 371.771 11.1232 373.395 1.22699 381.044C-16.6747 394.902 -15.614 406.995 -30.1328 414.845C-40.7953 420.614 -54.9049 421.435 -57.2805 417.07Z" fill="#7E923C"/>
</g>
<path d="M-99.1762 62.2277C-99.5072 62.7851 -99.5716 64.809 -99.9052 65.4878C-100.27 66.235 -101.642 66.8959 -101.696 67.6795C-101.792 68.9834 -99.2249 71.8728 -101.947 74.0228C-103.219 75.024 -105.629 74.9123 -107.343 75.0393C-107.934 75.0869 -111.932 74.6396 -112.18 74.6887C-117.784 75.9214 -120.336 79.676 -121.935 84.8667C-123.533 90.0573 -123.281 96.9154 -124.306 102.531C-125.183 107.346 -127.063 112.176 -127.817 117.061C-130.485 115.307 -134.414 115.902 -135.608 119.158C-136.377 121.274 -135.773 124.683 -134.655 126.612C-133.242 129.049 -131.224 129.134 -129.65 131.397C-127.868 133.977 -127.276 137.05 -125.965 139.113C-125.074 140.497 -122.989 140.957 -122.591 142.13C-121.622 145.014 -125.606 145.948 -126.083 147.716C-126.428 149.036 -124.515 150.755 -126.152 152.726C-127.355 154.169 -129.965 153.343 -131.235 155.389C-127.664 159.618 -131.565 164.296 -127.861 168.487C-127.553 168.833 -126.866 168.425 -126.562 168.637C-125.367 169.478 -118.225 174.284 -117.56 174.402C-116.38 174.617 -113.43 173.046 -112.548 173.972C-110.29 176.326 -112.588 183.286 -110.78 186.451C-110.578 186.822 -107.272 187.731 -106.279 188.957C-103.222 192.746 -100.892 198.318 -98.2822 202.453C-97.1049 204.333 -95.1403 206.178 -93.9547 208.105C-90.5909 213.561 -88.0149 219.617 -84.1557 224.786L-86.1902 218.024C-92.804 203.792 -98.005 190.078 -98.9025 174.346C-99.139 170.257 -98.3428 165.829 -98.5749 162.064C-99.0095 155.185 -103.141 142.774 -105.905 136.34C-107.349 132.994 -110.451 129.847 -110.02 125.944L-99.4269 141.439L-97.6018 141.988C-97.4132 134.427 -95.0985 126.772 -94.5759 119.321C-94.3092 115.558 -94.3753 107.845 -95.0607 104.412C-95.3215 103.113 -96.5834 101.708 -96.624 100.153L-94.0062 103.923C-93.9773 105.142 -92.7328 112.249 -90.7252 110.487C-87.8767 102.679 -83.2069 95.697 -79.7901 88.1452C-79.1385 86.7275 -77.0359 79.7538 -76.6618 79.4645C-76.1831 79.0839 -74.8161 79.8316 -73.4271 78.887C-71.1036 77.2967 -67.6713 72.514 -64.9425 70.566C-64.4361 70.2047 -59.8061 67.3076 -60.3765 69.3154C-64.923 74.2245 -67.9338 82.0183 -73.2031 86.1033C-74.5021 87.1189 -76.5228 87.5329 -77.4951 88.8336C-78.9187 90.7228 -80.3153 99.7812 -81.1496 102.533C-74.9673 100.094 -68.9166 95.8065 -62.0415 97.9799C-64.4059 99.5582 -67.034 99.1711 -69.7165 100.322C-79.8488 104.671 -84.2697 115.324 -91.2707 123.095L-92.132 145.801C-85.1416 139.082 -76.6967 136.012 -67.0986 137.423C-66.0138 139.165 -73.785 140.291 -74.3909 140.5C-95.2962 148.02 -98.0218 170.798 -94.2239 190.094C-93.4703 193.936 -91.9438 201.592 -87.3566 201.925C-91.1563 196.14 -92.0817 184.453 -87.6463 178.868C-86.4972 177.419 -81.388 173.576 -80.9963 172.437C-80.0105 169.585 -84.8883 167.68 -82.9994 164.251C-80.6782 160.073 -77.6989 161.452 -75.9995 160.322C-75.4066 159.93 -75.0955 158.801 -74.0204 158.13C-67.9125 154.326 -61.0368 152.058 -55.2855 147.882C-54.9996 145.446 -58.36 142.8 -58.6064 141.528C-58.6889 141.093 -57.3574 138.688 -57.5425 137.435C-57.6953 136.335 -58.4097 135.558 -58.5255 134.746C-58.6653 133.828 -57.9303 133.068 -58.291 131.995C-59.0737 129.644 -60.9765 129.959 -62.0592 128.474C-64.8752 124.623 -60.5602 120.423 -56.921 119.265C-55.1549 118.698 -53.2116 120.127 -51.8956 120.182C-43.7688 120.56 -44.2269 109.133 -38.2857 107.511C-36.7168 107.086 -30.7138 107.437 -35.0705 103.464C-36.323 102.328 -41.1226 104.22 -41.4628 100.445L-38.7506 97.0486C-38.6879 95.5571 -40.7659 94.1334 -40.2801 92.6002C-39.7943 91.0671 -36.5962 88.6579 -35.8412 87.1154C-34.5757 84.5578 -35.3107 81.443 -37.1296 79.3296C-39.658 76.3851 -45.2372 75.2381 -45.2244 70.5676C-45.2189 69.7587 -43.8021 67.4789 -43.9348 66.7624C-44.0938 65.8717 -44.9524 65.0188 -45.1966 64.0029C-46.0862 60.3207 -41.0515 56.4662 -41.7796 51.033C-42.041 49.135 -44.8075 43.7997 -46.3294 42.862C-48.5817 41.4645 -50.8367 43.0862 -52.3087 42.8071C-53.6654 42.5511 -54.3282 40.5457 -55.3435 40.2239C-56.8694 39.7513 -60.029 42.1052 -61.0805 43.2605C-61.4053 43.6087 -61.1127 44.2724 -61.3593 44.5438C-62.2424 45.5045 -64.7642 48.3686 -65.6372 48.8437C-66.7351 49.4412 -75.626 51.3139 -77.1223 51.3053C-77.5201 51.2989 -80.5587 50.3465 -81.0155 50.3894C-85.2994 50.8349 -85.1544 53.8421 -87.7944 55.8276C-90.9143 58.1599 -97.1744 58.9437 -99.1342 62.2734L-99.1762 62.2277Z" fill="#4F783C"/>
<path d="M29.7638 170.349C29.8799 170.783 29.51 171.773 28.6968 171.255C24.5632 166.527 19.344 163.332 16.3555 157.62L5.19972 157.537C4.04794 157.941 4.75817 158.017 4.87301 158.606C5.67195 162.783 6.84964 166.806 8.92896 170.595C9.3033 171.283 11.2912 173.801 11.8521 174.233C13.9082 175.806 22.883 176.734 25.6899 178.773C26.8303 179.009 29.9312 178.848 30.8576 179.132C34.0249 180.1 34.3784 183.868 38.7068 183.347C40.1901 183.174 43.6312 181.747 45.3371 182.551C46.5841 183.141 48.9054 186.524 50.2987 187.446C51.4301 188.201 54.9382 188.504 56.3298 189.958C58.7083 192.47 57.9742 196.162 60.3436 199.381C61.2847 200.669 64.2127 201.733 65.746 202.03C77.5716 204.321 90.5005 202.686 100.047 194.678C100.709 194.13 101.978 190.507 101.995 189.657C102.005 189.172 101.286 184.951 101.098 184.574C100.42 183.108 98.6056 182.484 98.3935 181.811C97.9034 180.311 100.697 177.505 100.026 175.864C98.9578 173.428 93.4041 174.565 94.2521 168.719C94.3779 167.879 95.4676 163.171 95.4029 162.864C95.2377 162.182 93.6431 159.347 93.1534 158.636C92.4452 157.65 91.6535 158.526 90.9582 157.91C82.4956 150.394 72.852 144.961 61.9661 140.427C27.2693 125.946 -3.7984 134.041 -22.7457 168.408L-25.0991 172.432C-23.9896 172.171 -22.7748 171.253 -22.2261 170.56C-12.4688 158.529 -2.44843 151.738 13.6603 151.818C15.9991 151.831 23.3881 153.279 24.4845 153.025C27.6809 152.314 33.9684 146.697 37.2033 151.161C37.1129 151.467 31.0183 153.91 32.6264 155.195C33.4514 155.86 42.3791 158.34 44.2834 159.035C45.8946 159.632 49.2771 161.752 50.6592 161.771C52.4259 161.804 53.8274 160.442 55.89 160.262C58.3492 160.055 62.4186 161.578 65.0675 161.594C65.1059 164.248 57.1508 164.154 58.695 166.897C58.9686 167.399 66.2928 172.603 67.7601 174.102C68.962 175.334 69.5024 177.114 70.6109 177.985C71.8924 178.985 74.7238 177.856 76.8192 178.619C78.0543 179.061 84.0773 182.504 83.8971 183.716L76.543 183.467L74.9955 185.475C67.9979 175.516 58.539 169.193 47.8148 163.885C46.9949 164.143 46.8562 164.613 46.9516 165.418C47.4437 170.071 51.3606 175.157 49.8525 180.042C46.9037 172.954 41.3859 167.761 37.6277 161.234C36.6227 160.238 25.3181 157.423 23.6663 159.145L29.7494 170.322L29.7638 170.349Z" fill="#4F783C"/>
</g>
<defs>
<clipPath id="clip0_848_4448">
<rect width="248.055" height="238.013" fill="white" transform="matrix(-0.983891 0.17877 0.17877 0.983891 314.062 656)"/>
</clipPath>
<clipPath id="clip1_848_4448">
<rect width="284" height="272.502" fill="white" transform="matrix(-0.878343 0.478031 0.478031 0.878343 -15.5586 648)"/>
</clipPath>
<clipPath id="clip2_848_4448">
<rect width="250.386" height="240.249" fill="white" transform="translate(194.781 178) rotate(28.5569)"/>
</clipPath>
<clipPath id="clip3_848_4448">
<rect width="284" height="272.502" fill="white" transform="translate(5.30859 385) rotate(28.5569)"/>
</clipPath>
<clipPath id="clip4_848_4448">
<rect width="371.969" height="356.91" fill="white" transform="matrix(-0.878343 0.478031 0.478031 0.878343 8.35547 0.808838)"/>
</clipPath>
</defs>
</svg>
