<svg width="370" height="655" viewBox="0 0 370 655" fill="none" xmlns="http://www.w3.org/2000/svg">
<path d="M-28.3921 651.818L77.5342 652.275C77.5342 652.275 106.806 620.141 99.1812 617.303C91.5807 614.464 66.9993 636.28 66.9993 636.28C66.9993 636.28 102.693 596.353 86.3133 594.405C69.9337 592.432 56.4644 629.088 56.4644 629.088C56.4644 629.088 60.5533 581.753 52.3515 578.723C44.1496 575.668 41.8166 610.568 41.8166 610.568C41.8166 610.568 40.0607 588.103 26.5914 588.103C13.1221 588.103 23.0798 623.652 23.0798 623.652C23.0798 623.652 9.61047 595.728 2.00994 598.566C-5.59059 601.404 2.00994 630.844 2.00994 630.844C2.00994 630.844 -10.882 612.997 -21.3929 614.825C-31.9278 616.653 -10.2808 646.093 -10.2808 646.093C-10.2808 646.093 -20.2384 632.792 -28.4162 632.792C-36.594 632.792 -28.4162 651.818 -28.4162 651.818H-28.3921Z" fill="#ADC17D"/>
<path d="M114.888 522.801C119.001 533.697 130.57 541.321 141.827 534.972C142.235 542.837 142.043 550.798 142.404 558.639C143.029 572.806 144.809 587.237 144.761 601.26C144.713 614.488 149.451 649.172 149.451 649.172C149.451 649.172 124.196 649.99 110.751 649.124C102.453 648.595 78.1602 643.928 78.1602 643.928C78.1602 643.928 82.8744 611.506 83.1149 608.548C83.4276 583.629 83.7403 558.711 84.0289 533.769C86.7468 534.707 88.9837 536.824 91.9662 537.208C101.01 538.411 110.15 531.171 112.723 522.753H114.888V522.801Z" fill="#712D38"/>
<path d="M117.794 2.47751C109.087 1.323 97.8551 13.6137 92.1787 20.6611C89.7735 23.6195 92.0103 25.255 92.0103 25.255C92.0103 25.255 85.0832 31.8935 84.53 35.1646C84.2173 36.9445 85.7326 37.0407 85.7326 37.0407L79.0221 45.5071C77.7954 48.3453 79.1423 49.9808 79.1423 49.9808C79.1423 49.9808 74.2116 54.6229 72.8647 57.0522C71.2773 59.9144 73.8749 60.2031 73.8749 60.2031C73.8749 60.2031 68.3428 68.7657 67.9339 69.4872C66.2503 72.3254 69.6898 74.2255 69.6898 74.2255C69.6898 74.2255 57.0623 88.1999 55.3786 94.4054C54.176 98.8551 57.6876 97.0993 57.6876 97.0993C57.6876 97.0993 48.7402 101.549 49.8226 104.147C50.7365 106.311 56.4129 104.844 57.0863 106.792C57.8801 109.053 50.6644 112.397 43.2323 119.324C36.4254 125.673 29.1857 135.294 31.3504 138.469C33.3467 141.38 42.4145 137.748 43.2323 139.792C44.1222 142.029 33.6354 147.296 34.6456 150.351C35.4393 152.732 42.5347 151.77 43.0158 153.863C43.4968 156.027 36.3774 158.481 36.8584 160.91C37.2432 162.882 42.2461 162.257 43.0158 164.422C43.9298 166.947 38.1091 170.387 30.244 178.492C26.4197 182.461 20.9839 188.113 22.3308 190.374C23.4372 192.25 28.5603 190.567 28.9211 191.697C29.354 193.02 22.2827 195.449 15.2835 201.053C9.87172 205.359 2.89651 212.863 4.72449 216.904C5.71063 219.093 8.50069 218.587 9.0058 220.536C9.6071 222.821 5.47009 226.164 -2.87605 232.754C-11.0057 239.176 -13.9882 241.509 -13.435 242.977C-12.5931 245.237 -4.29512 243.313 -3.52544 245.622C-2.75577 247.907 -10.6449 251.034 -10.1158 254.522C-9.56255 258.226 -0.302414 257.865 0.779938 262.122C1.23694 263.95 -0.0859833 265.465 -6.4839 273.018C-13.5793 281.388 -15.4794 283.721 -14.7338 285.549C-13.6274 288.243 -7.87891 286.944 -7.13329 289.181C-6.74844 290.311 -7.51814 292.717 -20.6748 301.4C-31.354 308.471 -36.0442 310.323 -39.8204 316.577C-40.8546 318.308 -43.3801 322.493 -41.7927 325.163C-39.7723 328.579 -32.7971 326.51 -31.8831 328.795C-31.2818 330.335 -33.6871 333.293 -45.4246 341.663C-57.9318 350.587 -62.8144 352.679 -64.2334 358.5C-64.955 361.386 -64.9069 365.571 -62.9106 366.75C-61.0105 367.88 -58.2204 365.691 -57.3064 366.75C-56.4406 367.736 -58.6534 369.949 -59.6154 374.014C-60.5054 377.718 -60.3851 383.129 -57.6431 384.909C-55.743 386.16 -53.8189 384.813 -53.0251 385.895C-52.1833 387.05 -53.5783 389.527 -58.3166 396.454C-63.2714 403.694 -64.7867 405.426 -64.2575 407.687C-63.4878 410.982 -59.423 410.741 -58.6534 413.291C-57.1381 418.27 -70.92 424.692 -85.0627 437.704C-89.6086 441.889 -106.301 457.259 -102.549 466.086C-101.058 469.621 -97.113 470.127 -96.9446 473.35C-96.7281 477.27 -102.38 480.012 -109.163 484.245C-119.289 490.571 -135.164 500.457 -136.559 512.627C-136.703 513.95 -137.16 517.798 -134.899 519.891C-131.532 523.018 -125.014 519.434 -123.667 521.55C-122.272 523.763 -129.391 527.876 -130.594 535.741C-131.339 540.576 -129.776 546.541 -125.976 549.595C-123.33 551.736 -118.832 553.059 -105.507 549.259C-83.2829 542.909 -69.1161 531.58 -66.2298 534.731C-64.9791 536.102 -67.3362 538.628 -65.8931 541.995C-63.6802 547.166 -55.1177 548.104 -53.6745 548.272C-34.8416 550.341 -21.9736 529.632 -13.411 534.418C-9.70692 536.487 -11.1501 540.912 -5.81044 544.328C-0.951874 547.431 4.72449 546.613 8.71718 545.987C24.2309 543.534 30.8213 533.095 36.1128 536.078C38.9029 537.665 37.4116 540.792 41.0676 544.977C44.9159 549.403 51.3378 551.423 56.5813 551.255C69.0885 550.822 75.5104 537.81 81.6678 540.696C84.049 541.802 83.592 543.991 87.3923 546.3C87.8492 546.589 92.6357 549.427 97.3018 548.489C106.418 546.661 108.703 531.604 113.032 532.326C114.644 532.59 114.499 534.683 117.434 538.7C119.286 541.249 123.134 546.517 127.993 547.383C135.016 548.657 138.84 539.806 145.695 541.562C148.365 542.235 148.341 543.703 151.973 546.084C156.855 549.259 163.83 551.111 169.459 550.052C180.33 548.008 181.846 535.958 190.793 535.861C193.896 535.837 194.762 537.257 200.366 540.263C203.252 541.802 224.587 553.203 232.933 546.757C238.465 542.476 235.122 532.735 239.523 531.243C242.457 530.233 244.766 534.322 251.838 539.06C252.415 539.445 263.648 546.781 278.56 547.743C283.755 548.08 291.837 548.609 294.843 544.111C297.128 540.72 294.819 536.992 296.816 535.525C299.63 533.48 305.451 539.734 315.841 544.424C326.496 549.259 335.66 549.595 340.158 549.716C347.518 549.908 358.823 550.197 362.166 543.895C364.427 539.614 362.118 534.034 361.733 533.12C358.943 526.673 352.328 524.052 352.93 522.897C353.507 521.791 358.967 525.11 363.489 522.681C365.605 521.526 367.097 519.362 367.457 517.51C368.371 512.795 361.083 508.971 351.847 502.116C349.827 500.625 324.356 481.527 327.434 474.721C327.988 473.518 328.926 473.783 330.393 472.075C334.337 467.529 332.606 459.952 332.052 457.547C327.795 439.003 288.133 416.394 289.816 413.315C290.298 412.425 293.881 413.988 295.108 412.329C296.142 410.91 294.819 408.144 291.813 403.429C285.006 392.726 279.931 388.301 281.254 385.943C282.048 384.524 284.164 385.679 286.858 383.634C289.311 381.782 291.043 378.199 290.49 375.048C289.624 370.237 283.611 368.217 284.212 366.798C284.814 365.379 290.658 367.856 292.799 365.475C294.699 363.382 292.631 358.668 292.15 357.562C285.223 341.735 259.15 333.918 260.136 330.84C260.593 329.421 266.005 331.104 267.736 328.531C270.046 325.043 263.527 316.913 261.459 314.34C250.9 301.183 238.008 295.194 239.355 291.899C239.884 290.576 242.193 291.033 242.987 289.253C244.117 286.728 240.678 283 238.032 280.017C234.833 276.433 222.855 262.916 224.178 261.208C225.068 260.078 230.936 265.417 235.41 263.18C238.176 261.809 239.764 257.841 239.379 254.594C238.802 249.855 233.991 247.138 234.761 246.007C235.458 244.949 239.427 247.619 241.688 246.007C243.42 244.78 243.516 241.485 243.011 239.417C240.533 229.195 218.862 227.439 219.247 223.254C219.343 222.195 221.917 222.556 223.216 220.608C225.26 217.505 222.013 212.045 221.243 210.698C214.412 199.129 200.607 195.377 201.448 192.876C201.857 191.649 205.321 192.346 206.066 190.567C206.86 188.715 203.974 185.804 202.434 184.289C191.9 173.922 182.976 166.202 183.962 164.494C184.251 163.989 185.093 164.494 185.935 163.676C187.378 162.305 186.969 159.034 185.935 156.749C185.117 154.921 184.155 154.272 184.443 153.791C185.021 152.804 188.701 155.354 191.539 153.959C194.185 152.66 195.531 148.162 194.353 145.204C193.463 142.991 191.25 141.933 191.539 141.404C191.924 140.706 195.652 142.799 196.662 141.74C197.792 140.538 194.906 136.136 194.353 135.294C188.941 127.02 182.303 124.182 183.12 121.609C183.553 120.262 185.405 120.791 186.416 119.131C188.292 116.053 184.467 109.991 181.292 106.432C176.53 101.092 170.637 98.4222 171.239 97.0271C171.503 96.3777 172.826 96.7866 173.548 95.8726C174.774 94.3333 172.946 90.9178 172.056 89.4266C166.837 80.6235 157.721 77.0878 158.515 74.899C158.876 73.9369 160.68 74.5382 161.642 73.0951C163.013 71.0266 161.064 67.1542 159.501 65.0135C157.048 61.6462 153.729 60.0587 154.065 59.4093C154.33 58.8802 156.446 59.8663 157.024 59.0726C157.625 58.2789 156.254 56.1623 155.051 54.7913C152.069 51.3999 148.245 50.4378 148.461 49.6681C148.629 49.0909 150.746 49.7162 151.419 48.682C152.213 47.5034 150.457 45.0501 150.097 44.545C147.138 40.408 142.544 39.3016 142.833 38.2673C143.001 37.6179 144.877 38.0028 145.479 36.9445C146.056 35.9102 144.998 34.2747 144.324 33.3126C140.5 27.8767 135.377 24.9664 135.737 24.2449C136.002 23.7398 138.527 24.8702 139.033 24.0765C139.514 23.3549 137.95 21.575 137.541 21.1181C127.006 9.0919 121.715 3.07882 117.915 2.57372L117.794 2.47751Z" fill="#ADC17D"/>
<path opacity="0.5" d="M91.0214 141.692C92.5848 143.304 86.0667 147.73 84.7919 148.595C78.5142 152.829 66.3678 158.986 64.155 147.537C60.7155 149.846 56.9875 151.891 52.9467 152.949C51.8162 153.262 47.0057 154.753 46.6449 153.069C46.6208 151.65 47.7754 151.842 48.6413 151.578C51.4795 150.736 53.8847 150.447 56.771 149.197C59.2965 148.114 64.8766 143.665 66.1994 143.424C68.8211 142.967 65.2855 146.695 65.3817 147.152C65.5741 148.259 68.5566 151.602 70.0237 151.939C75.7482 153.286 84.4311 145.589 88.6884 142.534C89.4821 141.957 89.867 141.428 91.0455 141.692H91.0214Z" fill="#3B461D"/>
<path opacity="0.5" d="M27.3807 370.021C27.4769 371.103 27.525 371.728 26.7794 372.642C25.3122 374.422 17.5914 380.099 15.2823 381.59C7.72993 386.545 -8.67379 395.131 -15.5046 385.751C-15.8654 385.246 -20.0505 377.308 -16.3946 379.642C-15.1679 380.435 -14.1577 385.51 -10.9828 387.074C-3.18986 390.97 13.1657 380.652 19.4915 375.841C20.5498 375.023 26.3705 368.962 27.3807 370.021Z" fill="#3B461D"/>
<path opacity="0.5" d="M242.919 380.604L245.18 381.398C237.7 394.795 220.839 385.078 211.723 378.656C209.607 377.164 203.016 372.282 201.645 370.622C200.996 369.828 200.611 369.371 200.804 368.241C202.126 366.966 207.851 372.979 209.294 374.062C217.4 380.147 235.343 393.087 242.919 380.58V380.604Z" fill="#3B461D"/>
<path opacity="0.5" d="M201.442 375.913C202.284 375.432 203.847 376.13 203.679 377.236C196.968 389.864 185.375 387.386 174.937 380.988C173.109 379.858 162.55 371.849 162.862 370.309C162.983 369.66 163.824 369.299 164.618 369.708C165.556 370.189 169.068 373.821 170.511 374.903C177.751 380.411 190.619 389.07 198.724 380.459C199.542 379.569 201.25 376.034 201.466 375.913H201.442Z" fill="#3B461D"/>
<path opacity="0.5" d="M61.2469 371.777C61.5114 372.955 60.9823 373.34 60.405 374.134C57.3263 378.343 43.3038 386.256 38.1566 387.507C31.0853 389.239 23.3645 388.036 23.3164 379.377H25.0482C27.7661 392.678 45.3243 382.696 52.107 378.102C53.3818 377.237 60.4051 370.935 61.2709 371.801L61.2469 371.777Z" fill="#3B461D"/>
<path opacity="0.5" d="M29.7148 256.734L31.9517 256.831C35.4152 269.771 52.3481 258.851 58.8662 254.065C60.3815 252.934 63.5083 249.495 64.735 248.845C65.5287 248.436 66.3705 248.821 66.4908 249.447C66.8034 250.914 58.5054 257.023 56.9901 258.033C48.8845 263.445 32.9138 271.286 29.7148 256.734Z" fill="#3B461D"/>
<path opacity="0.5" d="M57.7305 380.532C60.4965 380.003 60.0395 382.937 61.0015 384.572C66.3171 393.52 75.1924 391.018 82.4322 386.28C84.2842 385.078 87.868 381.494 89.263 380.844C90.4175 380.291 90.8264 380.435 91.5961 381.422C86.3286 386.521 78.0066 393.279 70.2858 392.822C64.1284 392.462 57.6343 386.954 57.7545 380.532H57.7305Z" fill="#3B461D"/>
<path opacity="0.5" d="M116.324 383.827C114.352 381.927 111.514 378.102 110.191 375.673C109.662 374.711 106.92 370.43 108.844 370.021C110.239 369.732 112.379 375.264 113.317 376.611C116.613 381.397 123.155 388.781 129.721 386.809C131.525 386.28 133.281 382.528 134.195 381.951C135.109 381.373 136.504 381.903 136.528 382.552C136.528 382.889 133.594 386.713 133.016 387.194C127.412 391.884 120.75 388.084 116.324 383.803V383.827Z" fill="#3B461D"/>
<path opacity="0.5" d="M173.647 248.557C175.306 248.22 177.086 251.058 178.337 252.044C186.563 258.539 197.507 265.153 204.602 253.247C206.743 254.594 203.712 258.202 202.51 259.308C195.101 266.067 183.436 259.236 177.183 253.8C176.22 252.958 173.984 250.938 173.358 250.024C172.877 249.278 172.733 248.749 173.671 248.557H173.647Z" fill="#3B461D"/>
<path opacity="0.5" d="M242.531 371.2C250.54 377.453 258.357 383.033 267.954 386.641C269.229 387.122 274.713 387.7 274.352 389.576C274.04 391.115 268.964 389.311 267.93 388.998C258.237 386.088 249.987 379.329 241.93 373.533L242.531 371.2Z" fill="#3B461D"/>
<path opacity="0.5" d="M62.4258 256.157C65.1437 255.628 64.3741 257.937 65.3121 259.404C68.6313 264.575 79.2384 259.091 83.1589 256.758C84.8907 255.724 90.9278 250.553 91.4329 250.408C92.4672 250.12 92.7558 250.432 93.3571 251.202C88.258 256.734 75.7989 265.224 68.1022 263.613C65.1197 262.988 61.7042 259.428 62.4258 256.157Z" fill="#3B461D"/>
<path opacity="0.5" d="M275.773 452.111C283.061 459.639 289.724 465.244 298.166 471.449C299.561 472.483 299.008 474.167 297.324 473.494C294.197 472.219 285.971 465.171 283.109 462.598C281.69 461.323 273.296 453.241 272.887 452.376C272.478 451.51 272.574 450.235 273.488 450.043C274.547 449.826 275.172 451.51 275.773 452.135V452.111Z" fill="#3B461D"/>
<path opacity="0.5" d="M89.8672 257.312C92.3686 256.807 91.9838 258.971 92.8978 260.414C99.0792 270.396 108.46 262.699 114.954 257.552L116.734 258.779C108.989 267.245 92.537 273.018 89.8913 257.312H89.8672Z" fill="#3B461D"/>
<path opacity="0.5" d="M131.795 249.23C134.609 256.446 144.495 269.122 150.868 257.889C154.717 259.188 149.329 263.59 147.333 264.287C138.554 267.414 128.355 250.193 129.558 249.134L131.795 249.23Z" fill="#3B461D"/>
<path opacity="0.5" d="M33.2292 250.889C33.4938 252.693 31.7861 253.896 30.5834 254.954C25.9895 258.995 14.276 264.431 8.23883 264.743C7.15648 264.792 6.57925 265.176 5.78553 263.998C5.76147 262.555 6.91595 262.771 7.78184 262.507C15.0216 260.342 19.1827 259.717 25.9414 255.555C27.1199 254.834 32.4114 250.072 33.2292 250.865V250.889Z" fill="#3B461D"/>
<path opacity="0.5" d="M146.461 83.8947C149.853 92.6016 156.828 99.1438 164.573 104.026C165.655 108.5 156.347 100.924 155.529 100.202C150.695 95.8968 147.039 90.485 144.152 84.7365L146.461 83.8706V83.8947Z" fill="#3B461D"/>
<path opacity="0.5" d="M167.487 489.729C168.064 492.952 181.629 513.589 180.354 514.816C180.018 515.152 178.286 514.792 178.118 513.854L165.418 491.485L165.755 489.97L167.487 489.705V489.729Z" fill="#3B461D"/>
<path opacity="0.5" d="M187.953 417.308L190.214 418.27C192.788 424.451 196.276 430.272 198.969 436.381C199.306 437.175 202.625 443.621 200.509 443.597C200.148 443.597 199.234 442.13 198.945 441.673C196.516 437.872 189.854 424.283 188.41 420.074C188.098 419.136 187.785 418.342 187.953 417.332V417.308Z" fill="#3B461D"/>
<path opacity="0.5" d="M131.023 455.864C132.178 455.623 132.346 457.042 132.659 457.74C134.174 461.275 135.184 467.433 136.411 471.498C137.277 474.336 139.177 477.944 139.802 480.373C140.476 482.922 138.864 483.716 137.445 480.974C134.895 476.019 131.312 463.656 130.518 458.076C130.422 457.403 129.796 456.104 131.023 455.864Z" fill="#3B461D"/>
<path opacity="0.5" d="M42.5625 508.418C43.8132 505.748 55.4545 482.994 56.8496 483.307C57.8357 483.523 57.7635 484.798 57.4749 485.664C56.4647 488.743 51.0529 497.233 49.0807 500.625C47.5173 503.342 45.7374 505.94 44.3183 508.73L42.5625 508.393V508.418Z" fill="#3B461D"/>
<path opacity="0.5" d="M33.1996 448.239L30.8906 447.397C35.3162 440.278 37.962 430.849 42.4357 423.922C42.7965 423.345 43.0611 422.383 43.9992 422.575L44.6245 424.355L33.1756 448.263L33.1996 448.239Z" fill="#3B461D"/>
<path opacity="0.5" d="M103.001 482.73C104.108 482.465 104.469 483.764 104.421 484.702C104.276 488.574 100.091 501.009 98.4555 505.074C97.5896 507.215 94.4388 512.795 95.2325 507.119C95.5933 504.521 98.4074 498.556 99.3454 495.453C99.9227 493.601 102.208 482.946 103.001 482.754V482.73Z" fill="#3B461D"/>
<path opacity="0.5" d="M88.1196 76.8711C89.25 77.9053 80.5671 93.2748 79.2443 95.1509C77.8011 97.1953 75.6605 100.779 72.9426 100.803C72.2451 100.106 76.8631 94.6939 77.6327 93.5153C80.9038 88.4403 84.1028 82.7399 85.8587 76.9433L88.1196 76.8711Z" fill="#3B461D"/>
<path opacity="0.5" d="M137.954 116.365C138.988 117.4 140.985 118.867 142.332 119.564L142.404 120.959L140.961 121.825C135.958 117.688 126.722 108.284 125.134 102.006C124.87 100.948 124.87 100.948 125.76 100.226C126.698 100.034 126.962 100.996 127.323 101.573C130.859 107.057 133.168 111.579 137.93 116.389L137.954 116.365Z" fill="#3B461D"/>
<path opacity="0.5" d="M108.938 142.943C109.972 142.655 110.261 142.967 110.862 143.737C107.11 147.97 96.912 154.969 91.38 152.732C89.4799 151.963 85.415 148.235 88.9748 146.96C91.5243 154.897 101.193 148.74 105.811 145.685C106.846 145.012 108.193 143.16 108.938 142.967V142.943Z" fill="#3B461D"/>
<path opacity="0.5" d="M88.0369 448.215L86.3532 448.263C86.233 444.799 88.085 441.625 88.9749 438.353C90.2016 433.904 90.8991 428.877 92.1258 424.572C92.3904 423.682 92.1979 422.527 93.617 422.575C95.3007 422.936 93.8335 427.265 93.617 428.42C92.3663 435.179 90.1295 441.697 88.0129 448.215H88.0369Z" fill="#3B461D"/>
<path opacity="0.5" d="M215.95 493.241C219.317 500.673 224.753 507.143 230.285 513.06C231.031 513.589 230.093 514.743 229.684 514.816C228 515.176 219.029 503.126 217.706 501.106C217.129 500.216 213.761 494.972 213.689 494.612C213.425 493.457 215.036 492.952 215.95 493.241Z" fill="#3B461D"/>
<path opacity="0.5" d="M150.007 406.219L151.474 405.642C152.413 405.666 154.914 418.39 155.443 420.362C156.237 423.272 157.68 426.279 158.377 429.117C159.075 431.955 157.415 432.124 156.165 429.574C155.034 427.289 149.262 407.157 150.031 406.219H150.007Z" fill="#3B461D"/>
<path opacity="0.5" d="M-4.32452 522.248C-5.74361 523.499 -7.06648 522.561 -6.2006 520.684C0.0770535 515.008 4.14189 507.648 8.9764 500.841L10.2752 502.284C7.82191 506.301 5.36862 510.462 2.5064 514.214C0.894894 516.307 -2.49655 520.636 -4.32452 522.248Z" fill="#3B461D"/>
<path opacity="0.5" d="M286.62 516.572C285.322 517.87 278.058 510.775 276.975 509.572C275.677 508.129 268.437 498.604 269.688 497.306C270.265 496.704 271.395 497.57 271.924 498.268C274.57 501.707 276.422 505.892 279.669 509.212C280.679 510.246 287.991 515.176 286.62 516.572Z" fill="#3B461D"/>
<path opacity="0.5" d="M222.397 448.263C222.397 448.263 223.937 447.566 224.418 448.263C225.861 450.38 227.208 455.214 228.699 458.004C229.974 460.361 235.867 467.673 236.155 468.66C236.444 469.718 236.372 469.766 235.506 470.439C234.231 470.704 228.651 462.213 227.737 460.698C226.823 459.183 221.7 449.057 222.373 448.263H222.397Z" fill="#3B461D"/>
<path opacity="0.5" d="M107.955 147.537C110.312 147.633 110.167 150.952 111.731 152.227C113.679 153.814 117.046 153.622 119.283 152.732C121.207 151.962 125.777 147.681 126.355 147.537C127.076 147.368 127.942 148.258 127.798 148.98C124.479 152.323 119.596 156.244 114.665 155.714C110.985 155.33 106.752 151.409 107.955 147.537Z" fill="#3B461D"/>
<path opacity="0.5" d="M144.738 385.198C151.689 387.29 160.853 392.365 165.23 383.514L167.491 384.332C164.701 390.561 158.52 391.475 152.386 390.08C151.304 389.84 142.765 387.17 144.714 385.198H144.738Z" fill="#3B461D"/>
<path opacity="0.5" d="M232.696 314.171C233.586 316.191 243.664 322.373 243.423 323.575C243.183 324.778 242.028 324.297 241.259 324.008C238.324 322.854 227.092 312.656 224.999 309.89C223.869 308.374 223.917 306.402 225.601 307.532C227.934 309.048 229.954 312.776 232.672 314.195L232.696 314.171Z" fill="#3B461D"/>
<path opacity="0.5" d="M99.2034 50.0045C100.574 50.9185 96.6057 58.2785 95.812 59.7457C93.6954 63.6422 91.1699 67.4665 87.8267 70.449C85.5417 68.6451 89.5343 65.7829 90.6888 63.9789C93.4548 59.7217 96.2449 54.9834 97.4716 50.0286C97.9526 50.1008 98.9869 49.8843 99.2034 50.0286V50.0045Z" fill="#3B461D"/>
<path opacity="0.5" d="M138.305 141.692C139.388 145.275 144.294 152.251 148.383 151.529C150.668 151.12 151.39 147.873 152.592 148.114C155.118 148.619 151.823 152.154 150.861 152.78C146.627 155.546 143.092 152.419 140.35 149.292C138.955 147.705 134.264 142.149 138.305 141.692Z" fill="#3B461D"/>
<path opacity="0.5" d="M59.8049 159.804C60.5746 159.611 61.1278 160.333 61.1518 161.127C61.1999 163.82 54.5135 176.64 52.4209 178.709C50.6892 180.392 49.1016 179.43 49.8713 177.915C50.9296 175.822 53.7678 173.032 55.1628 170.363C55.9325 168.895 59.1315 159.996 59.8049 159.828V159.804Z" fill="#3B461D"/>
<path opacity="0.5" d="M99.2062 119.492C98.172 127.886 89.2966 134.044 82.2734 126.78C81.3594 124.519 87.4206 127.453 87.9738 127.525C90.4993 127.934 92.9045 126.972 94.5401 125.024C95.3097 124.086 97.6188 117.905 99.2062 119.468V119.492Z" fill="#3B461D"/>
<path opacity="0.5" d="M124.609 44.7612C125.764 44.5206 127.64 49.0665 128.506 50.197C129.251 51.2072 130.117 52.0731 131.007 52.9389C132.234 54.1175 137.742 57.6772 138.03 58.1583C138.608 59.0723 138.078 60.4914 137.429 60.4914C136.058 60.5154 127.856 53.0111 126.63 51.4477C125.932 50.5337 122.084 45.2903 124.585 44.7612H124.609Z" fill="#3B461D"/>
<path opacity="0.5" d="M72.0489 330.311L73.3237 331.754C70.269 336.564 67.8638 342.818 64.6408 347.436C63.4623 349.143 61.8989 349.961 62.0672 347.195L72.0489 330.311Z" fill="#3B461D"/>
<path opacity="0.5" d="M64.8273 116.654L66.1983 116.582L67.0882 118.025C62.7588 122.595 56.8179 131.734 49.5781 127.958C49.8908 125.577 51.6948 127.261 53.2341 126.996C57.0584 126.371 63.0715 120.141 64.8273 116.654Z" fill="#3B461D"/>
<path opacity="0.5" d="M159.33 353.063C158.031 353.232 157.815 353.088 157.069 352.101C155.698 350.273 153.413 345.776 152.211 343.515C151.489 342.144 148.723 337.622 148.458 336.732C147.833 334.519 149.661 334.495 151.032 336.491C152.884 339.161 157.646 347.387 158.849 350.273C159.234 351.212 159.426 352.005 159.306 353.015L159.33 353.063Z" fill="#3B461D"/>
<path opacity="0.5" d="M166.257 284.25C167.123 284.804 173.954 300.534 174.507 302.843C173.185 303.035 172.992 302.867 172.246 301.881C170.9 300.125 165.969 289.758 165.127 287.401C164.622 286.006 163.9 282.759 166.257 284.25Z" fill="#3B461D"/>
<path opacity="0.5" d="M55.9763 306.354L53.6914 305.512C56.5777 300.485 58.6221 293.823 61.7249 289.037C62.0857 288.459 62.3502 287.497 63.2883 287.69L63.9136 289.469L55.9763 306.354Z" fill="#3B461D"/>
<path opacity="0.5" d="M106.2 330.311C106.898 330.984 102.255 345.824 101.245 347.821C99.9224 350.37 98.383 350.154 99.0324 347.388C100.307 341.976 103.65 336.227 103.915 330.359H106.224L106.2 330.311Z" fill="#3B461D"/>
<path opacity="0.5" d="M128.981 330.31C127.707 324.995 124.435 318.886 123.834 313.498C123.521 310.732 125.061 309.842 126.143 312.993C127.971 318.26 128.524 324.37 131.29 329.445L128.981 330.31Z" fill="#3B461D"/>
<path opacity="0.5" d="M175.98 259.067C178.578 261.665 173.743 265.056 171.266 265.441C168.981 265.802 159.24 264.623 158.759 262.266C158.182 259.5 164.002 262.579 165.181 262.868C170.761 264.215 172.276 263.373 175.98 259.091V259.067Z" fill="#3B461D"/>
<path opacity="0.5" d="M19.8085 218.179C19.6401 217.096 19.8085 216.447 20.3617 215.533C21.4441 213.657 25.9178 209.375 27.6496 207.066C28.5876 205.816 29.718 201.967 31.7625 202.448C32.7486 202.665 32.46 203.29 32.1714 203.988C31.3296 206.032 27.7458 210.77 26.2064 212.647C25.4127 213.609 20.7946 219.237 19.8085 218.203V218.179Z" fill="#3B461D"/>
<path opacity="0.5" d="M94.486 306.306L92.7783 306.354C92.7062 305.512 92.7783 304.695 92.9226 303.877C93.4999 300.63 95.7126 292.885 96.7709 289.614C97.0114 288.892 97.1318 287.425 98.3344 287.665C99.5851 288.483 99.0319 288.988 98.9597 289.999C98.8394 291.875 95.2316 305.825 94.486 306.306Z" fill="#3B461D"/>
<path opacity="0.5" d="M39.65 343.154C40.5399 344.044 35.032 351.813 34.0699 353.04C33.2762 354.026 28.61 360.135 27.4074 358.933C27.215 355.95 30.1734 354.531 31.7128 352.463C33.2521 350.394 36.0903 345.199 37.2929 344.02C38.0626 343.275 38.5195 342.986 39.65 343.179V343.154Z" fill="#3B461D"/>
<path opacity="0.5" d="M184.321 337.43C184.61 337.598 187.063 342.216 187.688 343.082C189.636 345.776 192.306 348.278 194.086 350.707C194.663 351.501 195.193 351.885 194.928 353.064C193.846 353.16 193.22 353.208 192.306 352.463C190.647 351.116 183.359 341.11 182.806 339.186C182.373 337.743 182.661 336.444 184.297 337.406L184.321 337.43Z" fill="#3B461D"/>
<path opacity="0.5" d="M190.862 305.777C191.728 308.808 193.244 312.247 194.855 314.941C196.106 317.058 200.435 320.232 198.174 322.108C196.37 322.205 191.007 312.776 190.189 310.828C189.275 308.711 187.11 305.416 190.862 305.753V305.777Z" fill="#3B461D"/>
<path opacity="0.5" d="M137.732 276C140.98 275.543 140.354 280.257 140.931 282.446C141.677 285.284 143.697 289.686 144.034 292.211C144.443 295.242 143.024 295.218 141.797 292.693C140.883 290.816 137.035 276.77 137.732 276.024V276Z" fill="#3B461D"/>
<path opacity="0.5" d="M124.386 85.5541C121.74 81.7058 118.661 78.0258 116.617 73.7685C115.751 71.9405 114.356 69.8239 116.425 68.7175C119.599 74.2496 122.389 79.9259 126.623 84.7604L124.362 85.5541H124.386Z" fill="#3B461D"/>
<path opacity="0.5" d="M25.624 304.021C26.0088 303.684 27.5963 304.141 27.933 304.887C27.5722 307.413 20.3325 320.786 18.3362 320.377C15.522 319.775 20.9338 314.388 21.6554 313.185C22.858 311.165 24.1568 308.351 25.167 306.162C25.5037 305.464 25.5519 304.093 25.624 304.021Z" fill="#3B461D"/>
<path opacity="0.5" d="M249.865 419.039C249.529 416.417 241.712 403.261 242.842 402.13L244.863 402.732C245.945 407.398 250.828 413.05 251.934 417.283C252.367 418.919 251.333 419.232 249.889 419.039H249.865Z" fill="#3B461D"/>
<path opacity="0.5" d="M204.885 218.178C204.669 218.443 203.394 218.587 202.841 218.25C201.037 217.12 193.075 208.1 192.137 206.128C191.728 205.286 191.247 204.637 191.464 203.602C192.931 203.314 192.931 203.795 193.701 204.565C195.336 206.176 197.092 209.303 198.752 211.203C199.569 212.141 205.583 217.36 204.885 218.202V218.178Z" fill="#3B461D"/>
<path opacity="0.5" d="M222.684 340.244C223.526 340.076 227.446 346.642 228.505 347.845C230.261 349.817 232.401 351.332 234.374 353.088L233.772 354.844C231.728 355.253 223.093 344.79 222.251 342.409C221.866 341.279 221.457 341.134 222.684 340.244Z" fill="#3B461D"/>
<path opacity="0.5" d="M-9.96999 360.664C-11.0764 359.558 -4.87093 354.844 -3.83668 353.665C-2.12897 351.741 -0.974433 349.552 0.396549 347.412C1.38269 345.872 2.99417 346.546 2.39286 348.229C1.57508 350.538 -7.92554 362.733 -9.96999 360.688V360.664Z" fill="#3B461D"/>
<path opacity="0.5" d="M148.244 170.29C148.244 172.816 154.569 185.563 153.511 186.646C152.549 186.718 152.164 186.862 151.491 186.044C151.01 185.443 146.055 172.407 146.007 171.637C145.935 170.314 147.258 170.146 148.244 170.29Z" fill="#3B461D"/>
<path opacity="0.5" d="M75.8458 190.735C75.0762 190.903 74.3786 190.494 74.1622 189.749C73.8735 188.811 78.227 177.169 79.0688 175.558C80.4158 172.96 81.9792 173.321 81.2817 176.015C80.055 180.729 77.0244 185.876 75.8458 190.735Z" fill="#3B461D"/>
<path opacity="0.5" d="M107.956 214.09C108.51 214.619 105.383 227.679 104.757 229.291C103.723 231.912 101.823 231.503 102.376 228.665C103.242 224.095 105.744 219.044 105.647 214.09H107.956Z" fill="#3B461D"/>
<path opacity="0.5" d="M84.0235 214.089C85.7071 213.993 85.9476 215.196 85.659 216.567C85.3704 217.938 81.1132 227.222 80.2232 228.689C79.8384 229.339 79.5017 230.613 78.4674 230.421C77.1686 229.507 77.7217 229.339 78.0585 228.256C79.4535 223.542 82.7487 218.9 84.0235 214.065V214.089Z" fill="#3B461D"/>
<path opacity="0.5" d="M143.579 233.957C142.593 234.077 142.28 234.029 141.559 233.356C140.957 232.802 134.848 218.756 135.425 218.179C136.748 217.986 136.916 218.179 137.686 219.141C138.48 220.175 144.18 233.404 143.603 233.957H143.579Z" fill="#3B461D"/>
<path opacity="0.5" d="M119.935 197.181C120.776 197.782 121.041 198.311 121.354 199.249C122.027 201.318 123.903 209.472 124.168 211.612C124.312 212.863 124.697 213.777 123.422 214.667C122.075 214.619 119.261 202.136 119.093 200.284C118.997 199.057 118.708 198.023 119.911 197.157L119.935 197.181Z" fill="#3B461D"/>
<path opacity="0.5" d="M121.399 134.067C120.725 131.879 113.173 119.468 114.376 118.313C115.314 118.241 115.723 118.169 116.42 118.89C116.997 119.492 119.691 126.082 120.485 127.669C121.471 129.594 126.017 134.356 121.399 134.067Z" fill="#3B461D"/>
<path opacity="0.5" d="M131.885 177.891C130.634 178.011 130.297 178.084 129.672 176.881C128.686 174.957 127.17 166.202 127.002 163.748C126.81 160.646 128.229 160.742 129.143 163.388L131.861 177.891H131.885Z" fill="#3B461D"/>
<path opacity="0.5" d="M168.111 141.692C168.905 140.898 176.121 146.96 177.492 147.777C178.598 148.451 182.422 149.269 182.134 150.712C181.701 152.9 175.712 149.22 174.822 148.691C173.74 148.042 166.692 143.111 168.135 141.668L168.111 141.692Z" fill="#3B461D"/>
<path opacity="0.5" d="M159.048 219.934C160.298 219.67 163.089 226.501 163.882 227.92C164.676 229.339 166.36 230.782 167.009 232.394C167.755 234.222 166.071 234.462 164.652 232.995C163.497 231.816 158.471 223.254 158.254 221.835C158.134 221.065 158.302 220.079 159.048 219.934Z" fill="#3B461D"/>
<path opacity="0.5" d="M105.62 177.314C105.764 182.774 104.201 188.113 102.758 193.308L100.954 193.645C100.425 193.14 103.191 180.489 103.672 179.142C104.032 178.156 104.249 177.073 105.62 177.29V177.314Z" fill="#3B461D"/>
<path opacity="0.5" d="M173.83 128.343C174.167 128.896 174.431 130.772 173.06 130.58C170.318 130.195 159.038 121.536 161.082 119.492C162.549 119.203 162.549 119.684 163.319 120.454C164.906 122.017 165.869 123.749 167.889 125.216C169.14 126.13 173.637 128.055 173.83 128.343Z" fill="#3B461D"/>
<path opacity="0.5" d="M103.177 101.838C102.672 102.126 102.071 101.934 101.541 101.958C101.469 99.1437 103.057 96.6182 103.73 93.9244C104.019 92.7939 103.923 86.3479 105.919 86.7808C106.881 86.9973 106.785 88.5367 106.761 89.3063C106.689 91.1824 104.524 101.044 103.177 101.814V101.838Z" fill="#3B461D"/>
<path opacity="0.5" d="M61.2736 225.226C64.4244 225.057 63.318 226.548 62.5243 228.521C61.8508 230.204 56.7758 239.561 55.1402 239.224C54.4908 239.08 54.1781 238.286 54.5389 237.468C56.1504 233.836 60.6001 229.796 61.2976 225.226H61.2736Z" fill="#3B461D"/>
<path opacity="0.5" d="M169.843 207.09C169.266 207.692 168.135 206.826 167.606 206.128C165.995 204.012 162.988 197.445 162.507 194.848C162.363 194.054 162.074 192.731 163.132 192.491C164.648 192.178 165.658 197.493 166.235 198.72C166.861 200.091 170.613 206.273 169.843 207.09Z" fill="#3B461D"/>
<path opacity="0.5" d="M169.673 153.189C165.536 156.604 155.41 152.66 157.599 150.447C161.135 151.024 163.588 153.285 167.364 151.746C168.519 151.265 169.745 149.076 170.708 149.268C172.608 149.653 170.275 152.66 169.649 153.165L169.673 153.189Z" fill="#3B461D"/>
<path opacity="0.5" d="M58.3371 194.824C59.3233 195.858 53.3342 209.375 51.6265 209.399C49.101 209.471 53.9596 201.919 54.3685 201.053C55.3787 198.888 55.4028 194.415 58.3371 194.824Z" fill="#3B461D"/>
<path opacity="0.5" d="M186.703 222.941C187.256 225.538 189.084 228.232 190.623 230.397C191.754 231.984 194.063 232.874 193.774 235.111C191.73 237.156 184.225 225.707 184.418 223.157L186.679 222.941H186.703Z" fill="#3B461D"/>
<path opacity="0.5" d="M38.4689 228.112C39.6475 229.291 33.1774 241.148 29.7139 240.379C28.8961 239.561 33.7306 234.366 34.5003 233.187C35.1497 232.201 36.8815 226.549 38.4689 228.112Z" fill="#3B461D"/>
<path opacity="0.5" d="M214.238 280.642C214.046 278.357 207.936 269.097 209.548 267.822C210.366 267.173 211.063 268.664 211.4 269.169C212.097 270.203 216.571 279.223 216.523 279.8C216.475 280.45 214.936 280.907 214.238 280.642Z" fill="#3B461D"/>
<path opacity="0.5" d="M23.2976 273.667C23.7786 274.1 18.7036 284.803 18.0783 285.573C17.6453 286.126 16.3946 286.054 16.2984 285.934C15.7692 285.405 20.1227 275.062 20.9164 274.028C21.4696 273.282 22.5039 273.763 23.2976 273.667Z" fill="#3B461D"/>
<path opacity="0.5" d="M178.021 176.713C177.804 176.905 176.217 176.857 175.639 176.328C175.303 176.039 170.925 169.545 170.733 169.088C170.276 167.91 170.252 167.573 171.31 166.779C172.537 167.669 178.959 175.847 178.021 176.689V176.713Z" fill="#3B461D"/>
<path d="M270.41 652.274C269.52 651 267.187 649.605 261.366 649.484C254.03 649.34 250.495 650.807 248.955 651.793C251.12 649.845 255.425 645.443 249.316 645.443C245.203 645.443 240.176 647.368 236.352 649.196C237.025 646.742 236.833 644.145 233.73 642.99C228.535 641.042 224.999 646.309 223.724 648.618C225.12 645.684 228.463 637.41 223.195 635.462C216.749 633.057 209.149 643.327 209.149 643.327C209.149 643.327 218.168 626.803 214.416 625.408C210.664 624.013 197.58 635.678 197.58 635.678C197.58 635.678 204.459 617.543 197.58 617.543C190.701 617.543 184.591 636.761 184.591 636.761C184.591 636.761 180.19 616.749 171.699 613.574C163.209 610.399 174.922 635.919 173.166 636.568C173.166 636.568 164.075 602.63 155.296 603.737C151.351 604.218 153.78 612.516 157.653 621.511C155.368 619.106 152.794 617.519 150.028 617.519C138.555 617.519 153.78 638.781 152.746 639.599C151.351 640.705 147.671 624.277 135.958 626.105C127.539 627.404 136.896 644.313 130.81 644.313C126.697 644.313 121.67 646.237 117.846 648.065C118.52 645.612 118.327 643.014 115.224 641.86C110.029 639.911 106.493 645.179 105.219 647.488C106.614 644.554 109.957 636.28 104.69 634.331C98.2435 631.926 90.643 642.196 90.643 642.196C90.643 642.196 99.6626 625.672 95.9105 624.277C92.1583 622.882 79.0739 634.548 79.0739 634.548C79.0739 634.548 85.9528 616.412 79.0739 616.412C72.1949 616.412 66.0856 635.63 66.0856 635.63C66.0856 635.63 61.684 615.619 53.1936 612.444C44.7031 609.269 54.6608 631.084 52.9049 631.734C52.9049 631.734 45.569 601.5 36.7899 602.606C32.8454 603.087 35.2746 611.385 39.147 620.381C36.862 617.976 34.2885 616.388 31.5225 616.388C20.0495 616.388 35.9721 638.444 35.9721 639.767C35.9721 641.09 29.1653 623.147 17.4519 624.999C13.4351 625.624 12.93 633.826 13.8681 639.19C12.9541 633.898 -5.87887 622.401 -11.5552 627.813C-14.201 630.339 0.422832 644.722 -3.13691 643.904C-3.13691 643.904 -11.3147 635.486 -14.1769 637.939C-15.9568 639.454 -15.0188 643.423 -13.2148 646.045C-12.1325 645.347 -22.3788 641.258 -25.6499 642.653C-30.3161 644.65 -19.1558 648.835 -19.1558 648.835C-19.1558 648.835 -32.8415 646.309 -36.6899 648.089C-39.961 649.605 -41.3079 650.976 -40.8509 651.986C-40.8028 652.082 -40.7307 652.13 -40.6345 652.178H270.386L270.41 652.274Z" fill="#7E923D"/>
</svg>
