<svg width="307" height="1240" viewBox="0 0 307 1240" fill="none" xmlns="http://www.w3.org/2000/svg">
<path d="M-337.375 164.386C-335.923 138.192 -330.66 112.35 -321.752 87.6754C-314.271 66.0148 -290.599 54.3937 -270.156 56.0855C-220.939 60.1596 -171.623 63.0996 -122.443 67.5446C-87.1562 70.7329 -51.7529 70.3542 -16.4619 71.3374C18.0797 72.3013 52.8712 69.7617 87.5285 68.3807C123.124 66.9726 159.175 65.9524 194.662 74.2738C209.135 77.6651 224.524 77.1925 239.509 78.3427C267.629 80.5309 281.494 92.0415 289.75 119.364C293.317 130.597 295.325 142.266 295.716 154.046C295.983 169.524 298.138 184.929 296.668 200.536C293.599 233.118 293.423 266.093 288.479 298.355C280.564 349.89 280.622 402.092 273.582 453.541C262.95 531.233 258.03 609.388 254.279 687.496C251.681 741.576 248.375 795.586 244.36 849.524C242.216 872.939 238.507 896.183 233.256 919.102C230.946 930.08 230.284 941.311 228.377 952.387C225.459 969.34 216.888 984.81 216.526 1002.21C216.417 1007.37 213.175 1009.79 208.854 1011.32C196.649 1015.65 185.782 1022.62 174.326 1028.45C157.171 1037.18 138.225 1038.64 119.544 1038.02C86.9023 1036.91 54.3443 1034.55 22.6295 1025.24C13.5336 1022.57 3.48176 1023.07 -6.14463 1022.31C-26.9871 1020.65 -47.2985 1015.91 -67.7469 1011.92C-93.5466 1007.77 -119.261 1002.94 -145.463 1002.12C-147.607 1002.12 -149.744 1001.89 -151.841 1001.45C-181.97 994.097 -213.233 994.77 -243.527 988.496C-249.757 987.202 -256.056 986.305 -262.307 984.973C-273.034 982.685 -284.121 979.528 -295.216 983.798L-299.26 983.521C-304.564 977.937 -312.325 981.559 -318.291 978.457C-317.582 976.433 -316.395 974.61 -314.83 973.145C-313.264 971.679 -311.367 970.615 -309.301 970.042C-301.979 966.802 -294.443 964.066 -286.748 961.855C-277.738 960.127 -269.503 955.6 -263.216 948.92C-259.246 944.262 -261.5 940.883 -266.087 938.959C-268.596 938.045 -271.322 937.9 -273.914 938.543C-285.351 941.302 -296.694 944.288 -305.788 952.605C-311.627 957.944 -317.948 962.755 -324.127 967.863C-325.013 966.637 -325.486 965.161 -325.478 963.649C-325.47 962.136 -324.982 960.665 -324.084 959.448C-318.113 946.092 -307.059 937.535 -295.212 930.264C-289.111 925.97 -283.775 920.68 -279.429 914.615C-276.469 911.08 -275.029 906.528 -278.847 903.12C-282.193 900.144 -285.808 902.907 -288.905 905.176C-296.203 910.526 -301.813 918.01 -310.252 921.918L-310.165 922.015C-311.281 911.247 -306.186 903.937 -297.863 897.63C-291.539 892.836 -284.632 888.297 -280.727 880.92C-279.547 878.652 -277.388 876.101 -280.232 873.793C-282.59 871.881 -285.215 872.889 -287.65 874.333C-292.852 877.427 -296.456 883.041 -303.837 885.328C-303.077 877.095 -298.751 872.579 -294.442 867.852C-287.067 860.05 -281.531 850.696 -278.242 840.476C-277.666 839.243 -277.454 837.871 -277.632 836.522C-277.811 835.172 -278.372 833.902 -279.249 832.862C-282.474 830.117 -284.942 833.353 -287.666 834.828C-295.785 839.231 -297.403 849.053 -304.672 856.305C-305.148 849.198 -307.033 844.265 -307.338 838.78C-307.616 828.588 -310.004 818.563 -314.35 809.34C-316.161 805.745 -316.134 799.609 -321.431 799.888C-326.84 800.174 -328.322 806.04 -330.247 810.336C-331.844 813.887 -330.438 817.615 -329.994 821.342C-328.163 836.851 -322.425 851.357 -318.966 866.436L-318.93 866.408C-325.815 865.945 -328.109 859.556 -332.525 855.904C-334.142 854.57 -335.835 852.726 -338.178 853.829C-339.37 854.466 -340.29 855.515 -340.766 856.78C-341.242 858.046 -341.24 859.441 -340.762 860.706C-338.736 870.191 -334.202 878.959 -327.633 886.095C-320.92 893.28 -316.5 901.343 -321.012 914.738C-327.519 896.403 -338.031 883.717 -348.859 871.175C-353.814 865.415 -359.172 861.982 -366.891 863.035C-367.892 856.734 -369.756 850.624 -368.97 844.022C-363.844 800.972 -365.644 757.589 -362.575 714.441C-361.805 705.408 -360.78 696.393 -360.298 687.338C-357.521 635.175 -348.429 583.628 -345.252 531.511C-336.667 551.012 -329.363 570.97 -318.793 589.769C-306.542 611.566 -288.267 619.3 -265.112 621.819C-249.275 623.542 -234.192 620.022 -218.865 618.282C-177.612 613.599 -142.132 595.848 -111.169 568.72C-101.734 560.755 -93.7208 551.244 -87.4709 540.595C-82.7966 533.359 -80.3171 524.924 -80.3317 516.31C-81.4041 494.882 -86.5029 473.849 -95.3612 454.309C-99.9668 442.82 -107.599 432.795 -117.447 425.297C-127.569 418.268 -137.31 410.706 -146.63 402.644C-160.881 389.842 -176.379 377.343 -184.184 359.556C-194.728 335.571 -204.642 311.232 -213.054 286.34C-219.42 266.405 -228.21 247.327 -239.225 229.535C-253.776 206.891 -273.828 193.38 -301.668 194.102C-308.448 194.266 -316.021 199.279 -321.713 195.581C-327.813 191.624 -329.493 183.107 -332.409 176.218C-334.098 172.303 -335.73 168.348 -337.375 164.386ZM94.5744 536.544C102.64 536.735 110.683 535.619 118.393 533.24C122.107 531.738 125.088 528.845 126.702 525.177C128.316 521.51 128.436 517.357 127.035 513.603C123.509 505.769 117.342 509.457 111.844 511.161C104.693 513.54 98.0738 517.286 92.3538 522.192C83.7856 529.208 75.7628 530.625 64.8695 526.021C50.8369 520.087 35.0032 518.812 21.0469 525.837C-4.03464 538.464 -26.8431 554.443 -41.6674 579.374C-55.5665 602.269 -68.2253 625.894 -79.589 650.148C-93.6542 680.88 -112.046 707.798 -139.216 728.588C-155.971 741.999 -170.81 757.643 -183.319 775.082C-198.048 794.675 -209.516 816.211 -210.086 841.031C-211.21 890.235 -189.422 928.952 -150.135 957.253C-126.268 974.452 -97.7147 980.851 -68.9424 985.193C-62.5626 986.122 -56.0619 985.774 -49.8176 984.17C-28.9939 979.156 -9.34269 970.145 8.04434 957.637C40.9927 934.022 63.5014 903.218 79.0911 866.54C86.7903 848.422 88.6134 829.188 88.7907 809.901C89.3695 776.615 96.6683 743.79 110.249 713.396C119.353 692.848 126.679 671.556 132.145 649.757C136.054 633.599 139.807 616.375 134.757 600.551C127.21 576.875 118.95 552.65 94.5734 536.557L94.5744 536.544ZM143.806 151.376C144.06 150.326 144.315 149.278 144.571 148.231C151.955 145.175 159.181 141.748 166.22 137.963C169.39 135.924 171.642 132.731 172.499 129.06C173.355 125.389 172.75 121.529 170.809 118.297C167.225 113.482 161.054 113.698 153.82 119.087C146.831 124.113 140.808 130.36 136.042 137.529C134.532 140.417 131.992 142.633 128.926 143.738C125.86 144.843 122.491 144.757 119.485 143.496C102.2 137.661 84.1376 135.25 66.4524 131.233C53.3911 128.135 39.8547 127.587 26.5858 129.619C4.89179 133.352 -16.1015 140.389 -35.662 150.486C-48.2177 156.53 -59.7502 164.502 -69.8404 174.113C-91.5119 195.171 -102.344 221.644 -110.326 249.614C-114.436 262.554 -113.426 276.577 -107.504 288.794C-95.4189 312.809 -78.0965 333.805 -56.8147 350.233C-28.7303 372.547 3.62058 386.795 37.3954 397.823C82.3247 412.491 127.707 424.357 175.763 416.027C212.649 409.632 241.16 392.637 253.497 355.243C266.275 316.549 264.991 277.239 256.029 238.169C252.173 221.381 239.399 209.78 226.457 199.063C225.461 197.92 224.116 197.136 222.631 196.832C221.145 196.528 219.601 196.721 218.236 197.381C209.002 200.805 208.196 199.925 210.188 190.405C210.97 186.672 209.281 185.666 207.333 184.173C203.512 181.251 199.605 178.429 195.612 175.709C179.627 165.113 162.171 156.923 143.804 151.403L143.806 151.376Z" fill="#DAE1B5"/>
<path d="M94.563 536.556C118.943 552.649 127.2 576.874 134.75 600.55C139.8 616.375 136.037 633.597 132.138 649.756C126.671 671.556 119.346 692.847 110.242 713.395C96.6612 743.789 89.3623 776.615 88.7835 809.9C88.6062 829.187 86.7831 848.421 79.084 866.54C63.4945 903.214 40.9859 934.021 8.03761 957.636C-9.34941 970.144 -29.001 979.156 -49.8248 984.169C-56.0691 985.773 -62.5697 986.121 -68.9495 985.193C-97.7218 980.851 -126.276 974.451 -150.142 957.252C-189.43 928.951 -211.21 890.235 -210.093 841.031C-209.523 816.207 -198.055 794.675 -183.326 775.081C-170.817 757.642 -155.978 741.999 -139.223 728.587C-112.052 707.797 -93.6613 680.879 -79.5962 650.147C-68.2325 625.894 -55.5736 602.268 -41.6745 579.373C-26.8512 554.456 -4.04278 538.477 21.0397 525.837C34.9965 518.805 50.8265 520.086 64.8623 526.02C75.7557 530.624 83.7784 529.207 92.3466 522.191C98.0667 517.285 104.686 513.539 111.837 511.161C117.335 509.456 123.502 505.768 127.027 513.602C128.429 517.356 128.31 521.509 126.696 525.177C125.082 528.844 122.1 531.737 118.386 533.24C110.676 535.623 102.631 536.743 94.563 536.556ZM70.6645 764.499C71.2652 757.18 80.0041 751.16 74.525 742.93C71.5825 749.867 67.2881 756.426 70.6645 764.499Z" fill="#7C9E7F"/>
<path d="M143.795 151.402C162.169 156.93 179.631 165.129 195.621 175.737C199.598 178.458 203.505 181.28 207.341 184.201C209.29 185.695 210.979 186.7 210.196 190.433C208.204 199.954 209.011 200.832 218.245 197.408C219.61 196.749 221.154 196.556 222.639 196.86C224.125 197.164 225.469 197.948 226.465 199.091C239.408 209.808 252.183 221.402 256.038 238.198C265.001 277.257 266.284 316.577 253.506 355.271C241.162 392.664 212.657 409.66 175.771 416.055C127.709 424.385 82.3266 412.518 37.4041 397.851C3.62925 386.823 -28.7121 372.583 -56.806 350.261C-78.0878 333.833 -95.4102 312.837 -107.495 288.821C-113.417 276.604 -114.427 262.581 -110.318 249.642C-102.336 221.672 -91.5032 195.199 -69.8317 174.14C-59.7416 164.53 -48.2091 156.558 -35.6534 150.514C-16.0929 140.417 4.90044 133.38 26.5945 129.647C39.8634 127.615 53.3998 128.163 66.4611 131.261C84.1458 135.284 102.208 137.689 119.494 143.525C122.5 144.785 125.869 144.871 128.935 143.766C132.001 142.661 134.541 140.445 136.051 137.557C140.817 130.389 146.84 124.141 153.829 119.115C161.066 113.726 167.234 113.51 170.818 118.325C172.758 121.557 173.364 125.417 172.507 129.088C171.651 132.758 169.399 135.952 166.228 137.991C159.19 141.776 151.965 145.203 144.58 148.259C144.311 149.298 144.049 150.346 143.795 151.402ZM42.1014 307.83C41.8283 306.113 40.9096 304.564 39.5333 303.501C38.1569 302.438 36.4266 301.941 34.696 302.111C30.3222 302.065 27.3887 304.003 27.8964 308.671C27.893 309.603 28.0771 310.526 28.4379 311.386C28.7987 312.245 29.3286 313.023 29.9963 313.674C30.6641 314.324 31.4562 314.833 32.3249 315.171C33.1935 315.509 34.1213 315.668 35.0529 315.64C39.3423 315.555 41.7365 312.998 42.1024 307.817L42.1014 307.83ZM46.9175 208.707C46.9228 207.848 46.748 206.997 46.4045 206.21C46.0609 205.423 45.5562 204.716 44.9229 204.136C44.2895 203.556 43.5414 203.114 42.7271 202.841C41.9128 202.567 41.0502 202.468 40.195 202.548C39.2614 202.428 38.3126 202.519 37.419 202.815C36.5254 203.111 35.7098 203.604 35.0323 204.257C34.3547 204.911 33.833 205.708 33.505 206.59C33.1771 207.472 33.0514 208.417 33.1377 209.354C33.0728 210.293 33.1969 211.235 33.5032 212.125C33.8095 213.014 34.2917 213.833 34.9207 214.533C35.5496 215.232 36.3126 215.799 37.1646 216.198C38.0167 216.596 38.94 216.82 39.8802 216.855C44.3794 217.069 46.2222 213.746 46.9185 208.693L46.9175 208.707ZM95.1096 295.161C95.6112 291.266 94.2739 288.364 90.7275 287.569C86.34 286.586 83.6664 288.914 83.0583 293.329C82.6583 294.898 82.8969 296.56 83.7214 297.953C84.5459 299.346 85.8891 300.355 87.4564 300.758C91.8685 301.817 94.2505 299.023 95.114 295.152L95.1096 295.161ZM16.759 329.612C16.0041 327.158 14.8103 324.186 11.1194 324.013C9.28066 323.834 7.44462 324.383 6.00672 325.543C4.56883 326.703 3.64387 328.381 3.43048 330.216C2.817 333.898 5.63331 335.847 8.97704 336.337C13.3774 336.971 15.56 334.324 16.7635 329.603L16.759 329.612ZM51.9628 169.412C51.8114 167.58 50.9628 165.876 49.5918 164.652C48.2208 163.428 46.4322 162.777 44.5952 162.834C41.24 162.676 40.2553 165.423 40.4054 168.128C40.6345 172.203 42.7084 175.167 47.1997 174.814C50.0967 174.574 51.3885 172.126 51.956 169.414L51.9628 169.412ZM89.79 324.985C90.2011 321.8 88.743 319.519 85.7799 319.296C84.8581 319.171 83.9205 319.231 83.0224 319.474C82.1244 319.717 81.2839 320.137 80.5506 320.709C79.8173 321.282 79.2059 321.995 78.7524 322.807C78.299 323.619 78.0125 324.514 77.9101 325.439C77.771 326.087 77.7771 326.757 77.9277 327.403C78.0782 328.048 78.3697 328.653 78.7811 329.172C79.1925 329.692 79.7138 330.115 80.3075 330.409C80.9013 330.704 81.5526 330.864 82.2153 330.877C83.1127 331.1 84.0492 331.116 84.9537 330.924C85.8582 330.732 86.7073 330.336 87.4365 329.768C88.1657 329.199 88.7556 328.472 89.1624 327.642C89.5691 326.811 89.782 325.899 89.7842 324.974L89.79 324.985ZM-18.737 183.073C-18.3793 179.928 -19.3134 177.305 -22.599 177.25C-24.2367 177.246 -25.8264 177.804 -27.1015 178.832C-28.3766 179.86 -29.2596 181.294 -29.6027 182.896C-29.8798 183.517 -30.0161 184.192 -30.002 184.872C-29.9878 185.552 -29.8238 186.22 -29.5211 186.829C-29.2184 187.438 -28.7846 187.972 -28.2512 188.394C-27.7177 188.816 -27.0976 189.115 -26.4352 189.269C-21.9071 190.084 -19.7133 187.013 -18.7395 183.063L-18.737 183.073ZM98.349 203.26C98.5629 199.653 96.8833 197.679 93.9901 197.421C89.5987 197.027 87.2367 199.866 86.4398 203.792C85.8777 206.521 86.7573 209.466 89.8223 209.902C94.89 210.617 97.1838 207.159 98.3465 203.25L98.349 203.26ZM-55.565 285.163C-53.9149 284.801 -52.4285 283.909 -51.3324 282.624C-50.2364 281.339 -49.5911 279.73 -49.4944 278.044C-49.4265 274.274 -52.3261 272.713 -55.8364 272.826C-56.6216 272.795 -57.4041 272.929 -58.1344 273.219C-58.8646 273.509 -59.5264 273.949 -60.0762 274.511C-60.626 275.072 -61.0517 275.743 -61.3265 276.479C-61.6013 277.215 -61.7191 278 -61.6717 278.785C-61.8623 282.306 -60.541 284.843 -55.5675 285.153L-55.565 285.163ZM144.817 219.007C145.633 218.99 146.436 218.795 147.169 218.435C147.902 218.076 148.549 217.562 149.063 216.927C149.577 216.293 149.946 215.554 150.146 214.762C150.345 213.97 150.37 213.144 150.217 212.342C150.218 211.67 150.075 211.005 149.797 210.393C149.52 209.781 149.114 209.235 148.608 208.793C148.101 208.351 147.506 208.022 146.862 207.83C146.218 207.638 145.54 207.585 144.874 207.677C141.487 207.938 138.327 209.263 138.427 213.213C138.519 217.002 141.548 218.414 144.814 218.997L144.817 219.007ZM129.103 182.683C129.294 182.002 129.327 181.287 129.2 180.591C129.072 179.896 128.786 179.239 128.366 178.671C127.945 178.103 127.4 177.638 126.772 177.313C126.144 176.988 125.451 176.811 124.744 176.796C121.251 176.277 118.243 177.267 117.805 181.396C117.714 182.064 117.757 182.743 117.93 183.395C118.103 184.047 118.404 184.658 118.814 185.193C119.225 185.729 119.737 186.177 120.322 186.513C120.906 186.849 121.552 187.066 122.221 187.152C122.969 187.348 123.749 187.385 124.512 187.261C125.275 187.137 126.004 186.855 126.651 186.434C127.299 186.012 127.851 185.46 128.273 184.812C128.695 184.164 128.976 183.435 129.1 182.672L129.103 182.683ZM-14.3474 239.964C-14.1744 239.19 -14.1809 238.386 -14.3667 237.614C-14.5526 236.843 -14.9126 236.124 -15.4193 235.513C-15.9259 234.902 -16.5658 234.415 -17.2897 234.09C-18.0136 233.765 -18.8024 233.61 -19.5956 233.637C-20.9335 233.467 -22.2844 233.832 -23.3548 234.653C-24.4252 235.473 -25.1285 236.682 -25.3124 238.018C-25.5435 238.785 -25.6131 239.592 -25.5163 240.387C-25.4195 241.182 -25.1585 241.948 -24.75 242.637C-24.3415 243.326 -23.7941 243.922 -23.143 244.388C-22.4919 244.854 -21.7512 245.18 -20.9675 245.345C-17.0633 246.218 -15.4446 243.228 -14.3499 239.954L-14.3474 239.964ZM27.376 272.732C25.8175 272.523 24.2373 272.907 22.9485 273.808C21.6598 274.709 20.7564 276.061 20.4174 277.596C20.2058 278.366 20.1808 279.175 20.3448 279.957C20.5088 280.738 20.8571 281.469 21.3605 282.088C21.8638 282.708 22.5078 283.199 23.2389 283.519C23.9701 283.84 24.7674 283.982 25.5643 283.933C26.3574 283.972 27.1504 283.854 27.8975 283.585C28.6446 283.316 29.331 282.901 29.9166 282.365C30.5022 281.828 30.9752 281.181 31.3088 280.461C31.6424 279.74 31.8299 278.96 31.8599 278.167C32.2904 275.037 30.5423 273.3 27.374 272.715L27.376 272.732ZM71.596 165.567C73.17 165.691 74.7355 165.243 76.0054 164.304C77.2754 163.366 78.1642 162.001 78.5087 160.46C78.6548 159.814 78.6612 159.144 78.527 158.495C78.3927 157.846 78.1213 157.233 77.7307 156.697C77.3401 156.162 76.8392 155.716 76.2622 155.39C75.6851 155.064 75.0451 154.865 74.3849 154.807C73.6071 154.649 72.8048 154.656 72.0298 154.827C71.2548 154.999 70.5242 155.331 69.8857 155.803C69.2473 156.274 68.7151 156.875 68.3233 157.565C67.9314 158.255 67.6888 159.02 67.6111 159.81C66.9253 162.886 68.685 164.651 71.594 165.55L71.596 165.567ZM197.03 217.272C196.687 214.216 195.114 212.078 192.265 211.948C191.361 211.791 190.432 211.853 189.557 212.128C188.682 212.403 187.885 212.884 187.233 213.53C186.581 214.176 186.094 214.969 185.811 215.842C185.528 216.715 185.458 217.643 185.607 218.548C185.613 219.203 185.76 219.848 186.038 220.44C186.317 221.032 186.721 221.557 187.221 221.979C187.722 222.4 188.308 222.708 188.939 222.882C189.57 223.055 190.231 223.091 190.876 222.985C192.42 222.93 193.891 222.32 195.021 221.268C196.151 220.215 196.864 218.791 197.028 217.255L197.03 217.272ZM71.1651 230.369C71.3089 229.704 71.3066 229.015 71.1582 228.351C71.0097 227.686 70.7185 227.062 70.3051 226.521C69.8918 225.98 69.366 225.536 68.7639 225.218C68.1618 224.901 67.4979 224.718 66.8182 224.682C62.8663 224.533 61.2782 227.605 61.512 231.169C61.4565 231.84 61.5541 232.515 61.7973 233.142C62.0404 233.77 62.4231 234.334 62.9161 234.793C63.4091 235.251 63.9998 235.592 64.6436 235.789C65.2873 235.986 65.9673 236.035 66.6325 235.931C69.8185 235.564 70.9097 233.185 71.1623 230.362L71.1651 230.369ZM131.314 329.319C131.385 328.537 131.266 327.75 130.968 327.023C130.671 326.297 130.202 325.653 129.603 325.145C129.004 324.638 128.292 324.282 127.526 324.108C126.76 323.934 125.964 323.947 125.205 324.146C122.604 324.523 119.782 325.688 120.083 329.037C120.115 329.833 120.308 330.614 120.651 331.333C120.994 332.051 121.48 332.693 122.078 333.219C122.676 333.745 123.375 334.144 124.132 334.392C124.889 334.64 125.688 334.733 126.481 334.663C127.16 334.661 127.831 334.518 128.451 334.241C129.072 333.965 129.627 333.562 130.082 333.058C130.537 332.554 130.881 331.96 131.093 331.315C131.305 330.67 131.379 329.988 131.311 329.312L131.314 329.319ZM80.5327 345.155C81.823 344.972 83.0034 344.329 83.8575 343.344C84.7117 342.36 85.1819 341.101 85.1814 339.797C85.2676 339.148 85.2042 338.487 84.9966 337.865C84.789 337.244 84.4426 336.678 83.9833 336.211C83.5239 335.743 82.9639 335.387 82.346 335.168C81.7281 334.95 81.0684 334.876 80.4174 334.951C79.7617 334.926 79.1087 335.045 78.5034 335.298C77.8982 335.551 77.355 335.933 76.9121 336.417C76.4691 336.901 76.1369 337.476 75.9383 338.101C75.7397 338.726 75.6798 339.388 75.7622 340.039C75.7127 340.693 75.7994 341.352 76.0169 341.971C76.2344 342.591 76.578 343.158 77.026 343.638C77.4739 344.119 78.0164 344.5 78.6194 344.76C79.2225 345.02 79.8729 345.152 80.5295 345.148L80.5327 345.155ZM123.295 259.347C123.496 258.713 123.545 258.041 123.437 257.386C123.33 256.73 123.069 256.109 122.676 255.573C122.284 255.037 121.77 254.602 121.177 254.302C120.584 254.002 119.928 253.847 119.264 253.848C118.188 253.787 117.128 254.135 116.296 254.821C115.465 255.508 114.924 256.483 114.78 257.551C114.177 260.331 114.697 263.135 117.943 263.763C121.054 264.347 122.662 262.212 123.292 259.34L123.295 259.347ZM197.469 304.851C197.183 302.26 195.834 300.398 193.563 300.338C192.899 300.238 192.22 300.294 191.581 300.502C190.942 300.709 190.361 301.062 189.881 301.533C189.402 302.003 189.039 302.579 188.82 303.214C188.602 303.849 188.534 304.526 188.622 305.192C188.612 306.276 189.011 307.324 189.738 308.127C190.466 308.93 191.469 309.431 192.548 309.528C193.194 309.613 193.851 309.552 194.47 309.35C195.089 309.148 195.655 308.81 196.127 308.361C196.598 307.911 196.963 307.363 197.195 306.754C197.427 306.146 197.519 305.493 197.466 304.844L197.469 304.851ZM151.483 301.875C149.236 301.706 147.329 302.212 146.719 304.688C146.546 305.179 146.474 305.699 146.505 306.217C146.536 306.736 146.67 307.243 146.9 307.709C147.13 308.176 147.45 308.592 147.842 308.933C148.234 309.274 148.69 309.533 149.184 309.695C149.772 309.988 150.424 310.13 151.081 310.109C151.738 310.088 152.38 309.904 152.948 309.574C153.517 309.244 153.994 308.779 154.338 308.219C154.682 307.658 154.882 307.022 154.919 306.366C155.042 305.316 154.751 304.26 154.109 303.421C153.467 302.582 152.524 302.025 151.48 301.868L151.483 301.875ZM145.906 382.489C143.52 383.464 141.013 384.562 141.467 387.795C141.814 390.259 143.75 391.017 146.032 390.626C147.06 390.48 147.999 389.964 148.675 389.176C149.35 388.388 149.716 387.381 149.704 386.343C149.88 383.831 148.293 382.726 145.904 382.482L145.906 382.489Z" fill="#ACBD82"/>
<path d="M70.6676 764.499C67.2912 756.427 71.5856 749.868 74.5281 742.931C80.0239 751.162 71.2684 757.181 70.6676 764.499Z" fill="#B1CC6C"/>
<path d="M42.1069 307.817C41.7409 312.998 39.3467 315.556 35.0596 315.611C34.1279 315.639 33.2002 315.479 32.3316 315.141C31.4629 314.803 30.6708 314.294 30.003 313.643C29.3353 312.993 28.8054 312.215 28.4446 311.356C28.0838 310.496 27.8997 309.573 27.9031 308.641C27.3942 303.99 30.3309 302.053 34.7027 302.082C36.4356 301.912 38.1679 302.412 39.5444 303.478C40.9209 304.544 41.8376 306.097 42.1069 307.817Z" fill="#FAECE5"/>
<path d="M46.925 208.693C46.2286 213.746 44.3859 217.069 39.8876 216.842C38.9475 216.806 38.0241 216.583 37.1721 216.184C36.3201 215.785 35.5571 215.219 34.9281 214.519C34.2991 213.819 33.8169 213.001 33.5107 212.111C33.2044 211.222 33.0802 210.28 33.1451 209.341C33.0589 208.404 33.1845 207.459 33.5124 206.577C33.8404 205.695 34.3622 204.897 35.0397 204.244C35.7173 203.59 36.5329 203.097 37.4265 202.802C38.3201 202.506 39.2689 202.415 40.2025 202.535C41.0577 202.454 41.9202 202.554 42.7345 202.828C43.5488 203.101 44.2969 203.542 44.9303 204.122C45.5637 204.703 46.0683 205.409 46.4119 206.196C46.7555 206.984 46.9303 207.834 46.925 208.693Z" fill="#FAECE5"/>
<path d="M95.1197 295.152C94.2596 299.023 91.8775 301.818 87.4661 300.749C85.8988 300.345 84.5556 299.336 83.7311 297.944C82.9066 296.551 82.6684 294.888 83.0685 293.32C83.6766 288.904 86.3497 286.576 90.7373 287.559C94.2837 288.354 95.618 291.257 95.1197 295.152Z" fill="#FAECE5"/>
<path d="M16.7626 329.602C15.5692 334.324 13.3867 336.972 8.96709 336.326C5.63676 335.837 2.81334 333.887 3.42013 330.206C3.63351 328.37 4.55891 326.692 5.9968 325.532C7.4347 324.372 9.2703 323.823 11.1091 324.002C14.8133 324.176 15.9976 327.147 16.7626 329.602Z" fill="#FAECE5"/>
<path d="M51.9622 169.414C51.3942 172.132 50.1021 174.581 47.1992 174.81C42.7092 175.146 40.6344 172.199 40.4054 168.124C40.2552 165.419 41.2361 162.671 44.5947 162.83C46.4327 162.773 48.2222 163.425 49.5932 164.651C50.9643 165.876 51.8124 167.581 51.9622 169.414Z" fill="#FAECE5"/>
<path d="M89.7947 324.974C89.7891 325.896 89.5743 326.804 89.1671 327.631C88.76 328.457 88.171 329.181 87.444 329.747C86.7171 330.314 85.8709 330.708 84.9697 330.9C84.0685 331.092 83.1356 331.078 82.2408 330.858C81.5781 330.845 80.9264 330.685 80.3326 330.39C79.7389 330.096 79.218 329.673 78.8066 329.153C78.3952 328.634 78.1037 328.029 77.9532 327.384C77.8026 326.738 77.7965 326.068 77.9356 325.42C78.038 324.495 78.3245 323.6 78.7779 322.788C79.2314 321.976 79.8428 321.263 80.5761 320.69C81.3094 320.118 82.1499 319.698 83.048 319.455C83.946 319.212 84.8836 319.152 85.8054 319.277C88.7472 319.515 90.2059 321.79 89.7947 324.974Z" fill="#FAECE5"/>
<path d="M98.3394 203.25C97.1767 207.159 94.8832 210.617 89.8028 209.891C86.7378 209.456 85.8582 206.51 86.4203 203.782C87.2273 199.856 89.5889 197.016 93.9703 197.409C96.8735 197.668 98.5533 199.643 98.3394 203.25Z" fill="#FAECE5"/>
<path d="M144.818 218.995C141.552 218.413 138.525 216.983 138.428 213.208C138.328 209.258 141.502 207.934 144.875 207.673C145.541 207.581 146.219 207.633 146.863 207.825C147.507 208.018 148.102 208.346 148.609 208.788C149.115 209.23 149.521 209.776 149.798 210.388C150.076 211 150.219 211.665 150.218 212.337C150.369 213.139 150.344 213.964 150.144 214.755C149.945 215.546 149.575 216.284 149.061 216.918C148.547 217.551 147.901 218.065 147.169 218.424C146.436 218.783 145.634 218.978 144.818 218.995Z" fill="#EADEC2"/>
<path d="M129.105 182.673C128.98 183.435 128.697 184.163 128.275 184.81C127.852 185.456 127.3 186.008 126.652 186.429C126.004 186.849 125.275 187.13 124.513 187.253C123.75 187.376 122.97 187.338 122.223 187.142C121.554 187.056 120.909 186.84 120.324 186.503C119.739 186.167 119.227 185.718 118.816 185.183C118.406 184.648 118.105 184.037 117.932 183.385C117.759 182.734 117.717 182.054 117.807 181.386C118.246 177.257 121.254 176.257 124.746 176.786C125.453 176.801 126.147 176.978 126.775 177.303C127.402 177.628 127.947 178.093 128.368 178.661C128.789 179.229 129.074 179.886 129.201 180.581C129.329 181.277 129.296 181.992 129.105 182.673Z" fill="#FAECE5"/>
<path d="M27.3669 272.715C30.536 273.29 32.2835 275.037 31.8518 278.136C31.8218 278.929 31.6344 279.709 31.3008 280.43C30.9672 281.151 30.4941 281.798 29.9085 282.334C29.3229 282.871 28.6366 283.285 27.8895 283.555C27.1423 283.824 26.3489 283.942 25.5558 283.902C24.759 283.951 23.962 283.81 23.2309 283.489C22.4997 283.168 21.8558 282.677 21.3524 282.058C20.849 281.438 20.5008 280.707 20.3367 279.926C20.1727 279.144 20.1977 278.335 20.4094 277.565C20.7512 276.033 21.6557 274.684 22.9439 273.786C24.2322 272.888 25.8105 272.505 27.3669 272.715Z" fill="#EADEC2"/>
<path d="M71.5955 165.55C68.686 164.658 66.9267 162.886 67.6172 159.793C67.6948 159.003 67.9375 158.238 68.3293 157.548C68.7212 156.858 69.2537 156.257 69.8922 155.786C70.5307 155.314 71.2609 154.982 72.0359 154.81C72.8108 154.639 73.6131 154.632 74.3909 154.79C75.0511 154.848 75.6912 155.047 76.2682 155.373C76.8453 155.699 77.3462 156.145 77.7368 156.68C78.1274 157.216 78.3988 157.829 78.533 158.478C78.6673 159.127 78.6613 159.797 78.5151 160.444C78.1704 161.985 77.2802 163.351 76.0089 164.289C74.7376 165.227 73.1705 165.675 71.5955 165.55Z" fill="#EADEC2"/>
<path d="M197.027 217.255C196.856 218.785 196.141 220.203 195.011 221.249C193.882 222.295 192.414 222.9 190.875 222.954C190.229 223.06 189.568 223.025 188.937 222.851C188.306 222.677 187.72 222.369 187.22 221.948C186.719 221.526 186.316 221.002 186.037 220.409C185.758 219.817 185.611 219.172 185.605 218.518C185.456 217.612 185.526 216.684 185.809 215.811C186.092 214.938 186.58 214.145 187.231 213.499C187.883 212.853 188.68 212.372 189.556 212.097C190.431 211.822 191.359 211.76 192.263 211.917C195.112 212.047 196.685 214.192 197.027 217.255Z" fill="#EADEC2"/>
<path d="M71.1627 230.362C70.9101 233.185 69.8185 235.564 66.6303 235.917C65.9651 236.021 65.285 235.972 64.6413 235.775C63.9975 235.578 63.4072 235.237 62.9142 234.779C62.4213 234.32 62.0386 233.756 61.7954 233.128C61.5522 232.5 61.4547 231.825 61.5102 231.154C61.2763 227.591 62.8641 224.522 66.8163 224.668C67.4967 224.703 68.1611 224.887 68.7637 225.205C69.3663 225.523 69.8925 225.968 70.306 226.51C70.7194 227.051 71.0101 227.676 71.158 228.342C71.3059 229.007 71.3076 229.696 71.1627 230.362Z" fill="#EADEC2"/>
<path d="M131.308 329.311C131.377 329.988 131.304 330.671 131.093 331.318C130.881 331.965 130.537 332.56 130.081 333.065C129.626 333.57 129.069 333.974 128.448 334.251C127.827 334.528 127.154 334.671 126.474 334.672C125.68 334.742 124.881 334.649 124.125 334.401C123.368 334.153 122.669 333.754 122.071 333.228C121.473 332.702 120.987 332.06 120.644 331.341C120.301 330.622 120.108 329.842 120.075 329.046C119.775 325.696 122.597 324.521 125.197 324.154C125.956 323.956 126.75 323.943 127.514 324.116C128.279 324.289 128.99 324.643 129.589 325.149C130.188 325.654 130.657 326.296 130.956 327.021C131.255 327.745 131.376 328.53 131.308 329.311Z" fill="#EADEC2"/>
<path d="M80.5348 345.148C79.8773 345.152 79.2261 345.02 78.6222 344.76C78.0183 344.5 77.4748 344.118 77.0264 343.637C76.578 343.156 76.2344 342.587 76.0172 341.966C75.7999 341.346 75.7138 340.687 75.7644 340.032C75.6819 339.381 75.7422 338.719 75.9408 338.094C76.1395 337.469 76.4717 336.894 76.9146 336.41C77.3575 335.926 77.9007 335.544 78.506 335.291C79.1112 335.038 79.7642 334.919 80.4199 334.944C81.0709 334.869 81.7306 334.943 82.3485 335.161C82.9664 335.38 83.526 335.736 83.9854 336.203C84.4448 336.671 84.7915 337.237 84.9991 337.858C85.2067 338.48 85.2697 339.141 85.1835 339.79C85.1841 341.094 84.7142 342.353 83.8601 343.337C83.006 344.322 81.8251 344.965 80.5348 345.148Z" fill="#EADEC2"/>
<path d="M123.303 259.336C122.669 262.211 121.061 264.346 117.948 263.742C114.702 263.114 114.183 260.31 114.785 257.531C114.929 256.462 115.471 255.487 116.302 254.801C117.133 254.114 118.193 253.767 119.269 253.827C119.935 253.826 120.592 253.981 121.186 254.282C121.78 254.582 122.294 255.019 122.687 255.556C123.08 256.093 123.341 256.715 123.448 257.372C123.555 258.029 123.506 258.702 123.303 259.336Z" fill="#FAECE5"/>
<path d="M197.478 304.844C197.53 305.493 197.437 306.146 197.205 306.754C196.973 307.362 196.607 307.911 196.135 308.36C195.664 308.809 195.097 309.147 194.478 309.348C193.859 309.55 193.202 309.61 192.557 309.525C191.477 309.427 190.474 308.927 189.746 308.124C189.019 307.32 188.62 306.273 188.63 305.189C188.542 304.523 188.61 303.846 188.829 303.211C189.047 302.576 189.41 302 189.889 301.529C190.368 301.059 190.951 300.706 191.59 300.499C192.228 300.291 192.906 300.235 193.571 300.335C195.843 300.391 197.191 302.253 197.478 304.844Z" fill="#FAECE5"/>
<path d="M151.481 301.868C152.525 302.025 153.467 302.581 154.108 303.419C154.75 304.257 155.042 305.311 154.922 306.359C154.884 307.015 154.684 307.652 154.34 308.212C153.996 308.772 153.519 309.238 152.95 309.568C152.382 309.898 151.74 310.082 151.083 310.103C150.426 310.124 149.774 309.982 149.186 309.689C148.692 309.527 148.236 309.267 147.844 308.926C147.452 308.585 147.132 308.17 146.902 307.703C146.672 307.237 146.538 306.73 146.507 306.211C146.476 305.692 146.548 305.173 146.721 304.682C147.331 302.206 149.238 301.693 151.481 301.868Z" fill="#FAECE5"/>
<path d="M145.908 382.481C148.297 382.728 149.884 383.831 149.706 386.336C149.718 387.374 149.352 388.38 148.676 389.168C148 389.956 147.061 390.472 146.034 390.619C143.752 391.01 141.816 390.251 141.469 387.787C141.015 384.554 143.522 383.457 145.908 382.481Z" fill="#EADEC2"/>
</svg>
