<svg width="329" height="1437" viewBox="0 0 329 1437" fill="none" xmlns="http://www.w3.org/2000/svg">
<path d="M217.671 234.764C252.745 234.491 287.819 234.221 322.893 233.954C332.766 231.945 342.807 230.879 352.881 230.771C367.408 230.063 381.885 228.114 396.341 226.378C419.686 223.573 442.939 218.635 466.327 217.956C512.504 216.615 558.755 217.171 604.964 217.751C627.58 218.037 642.104 230.548 648.63 252.669C640.969 250.766 633.236 249.132 625.667 246.904C619.3 245.043 616.403 247.257 614.702 253.476C604.886 289.367 593.872 324.957 584.99 361.074C559.937 463.05 545.084 566.871 530.518 670.717C529.83 678.03 529.655 685.382 529.995 692.719C529.995 694.873 530.246 697.317 532.779 698.378C534.078 698.955 535.539 699.058 536.907 698.671C538.274 698.283 539.463 697.429 540.267 696.256C542.771 693.214 544.992 689.935 547.249 686.705C556.789 672.042 565.457 656.83 573.208 641.147C601.979 587.383 632.38 534.475 658.573 479.342C660.486 475.309 663.086 471.606 665.364 467.751L665.601 580.39C661.473 584.564 662.771 589.884 662.704 594.829C662.513 608.921 662.396 623.019 662.503 637.111C662.902 691.735 655.655 746.327 659.726 800.852C662.616 839.558 662.577 878.314 664.755 917.028C667.15 959.576 669.085 1002.58 662.87 1045.22C662.576 1048.59 662.484 1051.97 662.594 1055.35C662.58 1058.6 662.565 1061.85 662.548 1065.09C663.044 1071.34 660.012 1076.88 659.011 1082.83C657.572 1081.15 656.069 1079.52 654.717 1077.77C652.949 1075.46 651.081 1073.04 648.014 1075.67C645.277 1078.02 646.373 1080.74 648.206 1083.13C650.6 1086.26 653.433 1089.09 655.52 1092.41C663.122 1104.46 661.562 1108.91 650.657 1117.73C611.476 1149.45 539.209 1116.48 533.019 1069.81C534.664 1070.19 536.316 1070.54 537.95 1070.97C567.025 1078.57 570.665 1080.5 578.004 1045.55C586.918 1003.08 592.91 960.139 600.776 917.502C605.623 894.353 609.03 870.925 610.977 847.354C613.761 799.384 622.618 752.383 630.562 705.208C634.492 681.863 639.586 658.691 638.507 634.819C638.238 628.859 640.353 621.205 632.494 618.902C624.287 616.497 620.821 623.928 616.658 629.061C615.725 630.474 614.92 631.968 614.253 633.525C594.217 670.856 576.329 709.301 560.676 748.672C529.015 827.196 497.305 905.674 458.955 981.283C452.212 994.95 446.216 1008.97 440.994 1023.29C436.523 1035.15 438.847 1039.29 450.597 1044.04C456.798 1046.55 463.769 1047.14 469.217 1051.53C462.238 1057.59 457.385 1066.58 445.783 1065.83C441.16 1065.53 432.066 1062.42 432.813 1071.06C433.453 1078.49 440.753 1073.21 445.193 1073.04C448.104 1072.93 451.071 1073.04 451.584 1076.74C452.058 1080.16 449.6 1081.6 446.869 1082.76C441.619 1084.81 436.073 1086 430.443 1086.29C427.38 1086.54 425.158 1088.32 425.965 1091.9C426.09 1092.45 426.322 1092.97 426.649 1093.42C426.976 1093.88 427.39 1094.27 427.869 1094.57C428.347 1094.86 428.879 1095.06 429.435 1095.15C429.99 1095.24 430.558 1095.22 431.104 1095.08C433.317 1094.69 435.501 1094.15 437.644 1093.47C445.992 1091.5 449.087 1095.28 448.574 1103.3C448.053 1110.64 449.529 1117.99 452.843 1124.56C458.213 1135.33 457.052 1145.09 447.948 1153.69C443.672 1157.73 439.324 1162.18 440.651 1169.64C448.811 1168.26 450.431 1161.51 454.265 1157.03C457.053 1153.77 459.769 1148.56 465.107 1152.12C471.159 1156.16 467.668 1161.27 464.753 1165.3C461.134 1170.29 456.646 1174.65 452.705 1179.42C451.011 1181.48 448.44 1184.09 451.828 1186.5C454.527 1188.4 457.258 1186.71 459.161 1184.46C461.7 1181.47 463.851 1178.13 466.419 1175.16C468.226 1173.06 470.508 1170.54 473.543 1172.06C477.278 1173.93 476.655 1177.72 475.665 1180.93C474.89 1183.64 473.672 1186.2 472.061 1188.51C469.096 1192.59 465.694 1196.36 462.439 1200.23C459.369 1203.89 456.387 1208.63 460.947 1211.96C465.4 1215.2 467.027 1209.34 469.539 1206.65C474.625 1201.19 476.149 1192.38 485.25 1189.27C491.773 1205.58 498.603 1220.95 500.255 1237.99C487.712 1240.2 475.661 1235.84 463.596 1234.15C451.248 1232.42 438.988 1232.56 426.725 1231.49C393.264 1228.57 359.598 1227.68 326.427 1221.78C316.052 1205.94 307.765 1188.68 292.987 1176.41C299.244 1167.8 308.009 1167.94 314.843 1164.35C317.471 1162.97 319.996 1161.34 319.243 1158.06C318.203 1153.53 314.599 1153.94 311.182 1154.9C304.129 1156.88 297.115 1159 290.079 1161.05C285.372 1162.42 279.058 1166.03 277.204 1159.02C275.468 1152.45 283.016 1152.14 287.356 1150.46C292.071 1148.64 297.09 1147.63 301.918 1146.08C303.036 1145.85 304.022 1145.2 304.665 1144.26C305.308 1143.31 305.557 1142.16 305.36 1141.03C304.726 1137.42 301.96 1136.76 298.993 1137.57C295.194 1138.6 291.565 1140.29 287.77 1141.32C280.695 1143.24 273.621 1145.08 266.458 1146.56C265.091 1146.99 263.615 1146.91 262.302 1146.33C260.989 1145.76 259.929 1144.73 259.317 1143.43C258.951 1142.66 258.756 1141.82 258.743 1140.96C258.731 1140.1 258.902 1139.25 259.245 1138.47C259.588 1137.69 260.096 1136.99 260.733 1136.41C261.37 1135.84 262.122 1135.41 262.939 1135.16C267.618 1133.21 272.405 1131.53 277.275 1130.13C281.014 1128.91 284.876 1128.05 288.555 1126.68C289.251 1126.54 289.905 1126.24 290.467 1125.8C291.029 1125.37 291.484 1124.81 291.797 1124.17C292.11 1123.54 292.273 1122.83 292.273 1122.12C292.273 1121.41 292.111 1120.71 291.798 1120.07C290.758 1117.71 288.509 1117.53 286.097 1118.18C276.302 1120.81 266.441 1123.2 256.689 1125.96C252.404 1127.48 247.753 1127.62 243.383 1126.37C239.014 1125.11 235.144 1122.53 232.311 1118.98C220.992 1106.24 212.471 1091.59 203.459 1077.29C200 1071.8 202.295 1068.8 208.531 1068.71C215.305 1068.63 222.085 1068.84 228.859 1068.68C230 1068.78 231.137 1068.45 232.044 1067.75C232.951 1067.05 233.559 1066.03 233.747 1064.9C234.274 1061.35 232.003 1059.76 228.958 1059.4C225.592 1059.01 222.201 1058.87 218.814 1058.98C211.294 1059.2 204.439 1056.18 197.301 1054.63C196.305 1054.49 195.348 1054.15 194.491 1053.63C193.635 1053.1 192.897 1052.4 192.326 1051.58C191.755 1050.75 191.363 1049.81 191.175 1048.82C190.987 1047.84 191.007 1046.82 191.235 1045.84C192.112 1041.5 196.024 1041.72 199.37 1041.63C203.887 1041.51 208.411 1041.63 212.931 1041.59C216.44 1041.55 220.235 1041.08 220.741 1036.89C221.335 1031.96 217.607 1029.93 213.423 1029.31C209.499 1028.82 205.549 1028.58 201.595 1028.58C194.755 1028.74 188.096 1026.38 182.88 1021.95C190.016 1018.57 197.518 1016.02 205.238 1014.37C222.527 1009.51 223.56 1007.73 219.387 990.816C211.711 959.598 202.376 928.881 192.151 898.388C177.648 855.079 159.524 813.097 146.168 769.35C126.258 704.196 110.914 637.458 81.1665 575.615C77.8558 568.735 78.1211 555.736 66.5901 558.47C56.619 560.833 58.7165 572.202 58.8898 580.461C59.7635 622.199 61.0474 663.909 61.8786 705.636C62.4445 733.848 61.6135 762.113 62.9682 790.279C65.4866 842.628 68.8467 894.953 72.444 947.246C74.5273 977.591 77.4667 1007.89 82.401 1037.94C83.975 1047.51 86.6244 1049.65 96.1038 1047.91C105.498 1046.19 114.709 1043.49 124.001 1041.22C122.895 1047.34 122.942 1053.61 124.139 1059.71C127.22 1070.62 123.785 1079.45 116.637 1087.57C111.08 1093.91 105.88 1100.56 100.55 1107.1C98.0741 1110.14 94.6183 1113.43 99.0574 1117.13C103.496 1120.83 106.011 1116.9 108.561 1113.83C113.34 1108.09 115.455 1099.82 123.417 1096.86C127.871 1102.26 124.185 1105.7 122.109 1109.57C117.864 1117.49 113.705 1125.48 109.81 1133.58C109.545 1134.08 109.393 1134.62 109.365 1135.18C109.338 1135.75 109.436 1136.31 109.651 1136.82C109.867 1137.34 110.195 1137.81 110.612 1138.18C111.03 1138.56 111.525 1138.84 112.063 1139C113.931 1139.69 115.247 1138.47 116.52 1137.34C121.472 1132.86 121.309 1124.53 128.748 1121.21C135.529 1127.2 133.569 1134.3 131.224 1141.19C129.063 1147.55 126.254 1153.73 123.884 1160.04C123.377 1161.07 123.254 1162.24 123.538 1163.35C123.821 1164.45 124.493 1165.42 125.43 1166.08C128.26 1167.8 130.58 1166.52 132.586 1164C135.649 1160.17 135.062 1154.1 142.451 1150.04C154.431 1172.13 165.442 1194.68 180.142 1214.89C158.888 1212.89 137.665 1210.38 116.371 1209.04C100.051 1208.01 83.6391 1208.52 67.2693 1208.22C47.037 1207.86 41.3953 1202.95 33.7304 1183.85C28.4628 1169.57 25.6036 1154.5 25.2695 1139.28C24.2084 1118.47 21.6865 1097.81 20.7704 1076.98C13.9756 922.405 20.6749 767.712 16.9397 613.14C16.02 575.014 16.6142 536.597 11.3864 498.538C9.17213 482.423 10.3003 466.064 8.42568 449.708C3.74961 408.943 -1.67626 368.114 0.491988 326.818C1.10277 308.255 4.38839 289.878 10.2473 272.254C14.9163 258.969 23.4054 251.12 35.7641 243.214C49.764 234.258 62.9397 234.994 77.0953 234.856C96.7864 234.662 116.555 233.59 136.087 237.449C135.542 251.473 133.285 265.378 129.367 278.854C127.375 286.891 122.317 289.925 114.405 288.687C108.859 287.821 103.362 286.565 97.7804 285.939C94.3954 285.557 90.4408 286.024 89.5954 290.092C88.7076 294.368 92.6127 295.447 95.69 296.784C102.117 299.578 109.205 297.647 115.678 299.522C120.676 300.968 125.809 303.876 124.74 309.942C123.57 316.592 117.698 316.422 112.566 315.138C107.185 313.458 101.578 312.613 95.9411 312.63C92.128 312.846 87.0454 311.824 86.391 317.101C85.6836 322.849 90.8265 322.778 94.6289 322.704C101.414 322.782 108.111 324.246 114.309 327.009C117.262 328.118 119.701 330.279 121.159 333.076C122.616 335.873 122.99 339.11 122.208 342.165C121.072 349.696 115.508 350.368 109.524 349.947C105.03 349.78 100.56 349.212 96.1675 348.249C91.2915 346.847 86.2146 346.275 81.1488 346.555C78.9098 346.732 76.6143 347.432 76.1544 350.166C75.9924 350.85 75.9841 351.561 76.1298 352.249C76.2756 352.936 76.5717 353.582 76.9973 354.141C77.4228 354.701 77.9671 355.158 78.5907 355.482C79.2144 355.806 79.902 355.987 80.6041 356.013C88.881 357.573 97.2852 358.549 105.452 360.53C113.995 362.603 121.341 366.607 122.919 376.578C126.456 398.911 135.175 419.809 140.898 441.534C134.849 446.04 127.368 446.903 120.613 449.594C116.149 451.363 113.273 453.524 114.705 459.689C118.653 476.668 120.934 494.028 125.274 510.879C137.065 556.684 149.275 602.384 161.905 647.977C169.665 676.182 174.504 705.109 185.016 732.66C208.206 793.406 237.341 851.326 267.099 908.978C269.85 914.542 273.003 919.898 276.532 925.004C281.64 932.121 288.063 931.467 292.265 923.777C295.107 918.193 296.185 911.878 295.357 905.667C293.206 882.708 292.587 859.444 288.314 836.877C277.116 777.758 264.506 718.914 256.947 659.155C253.056 628.484 248.812 597.853 245.215 567.151C242.325 542.575 240.825 517.822 237.32 493.345C235.489 482.808 234.668 472.12 234.869 461.426C235.445 449.421 232.205 437.947 231.42 426.172C230.91 418.507 226.259 416.717 219.857 417.541C211.502 418.62 203.197 420.095 194.871 421.4C194.946 415.752 194.682 410.105 194.078 404.489C191.68 389.778 198.493 380.858 211.159 374.947C215.743 372.774 220.153 370.255 224.353 367.41C224.951 367.024 225.457 366.51 225.832 365.905C226.208 365.3 226.444 364.619 226.523 363.911C226.603 363.203 226.524 362.486 226.292 361.813C226.061 361.139 225.682 360.526 225.184 360.017C224.627 359.014 223.714 358.256 222.625 357.894C221.536 357.532 220.351 357.593 219.305 358.065C214.834 360.42 210.777 363.554 206.331 365.963C203.095 367.732 199.221 371.241 196.024 366.384C193.24 362.161 196.625 358.892 199.37 356.126C205.892 349.512 214.353 346.222 222.825 342.993C225.629 341.932 228.042 340.241 227.126 336.828C225.976 332.537 222.39 332.682 218.927 333.142C213.158 333.902 208.789 340.354 200.689 337.56C204.785 327.797 212.174 323.214 220.667 319.942C224.377 318.527 229.439 317.614 226.959 312.323C224.643 307.371 220.32 310.268 216.702 311.725C213.189 313.14 210.024 316.348 203.724 313.161C206.21 286.69 210.875 260.469 217.671 234.764ZM397.795 621.58L389.823 621.226C396.165 561.028 386.101 502.068 376.229 443.111C373.622 427.548 374.815 425.38 390.024 419.501C395.825 417.262 403.596 417.877 406.889 410.018C399.734 404.358 393.583 409.133 387.343 410.237C384 410.828 380.223 411.486 378.5 407.627C377.54 405.855 377.235 403.801 377.639 401.826C378.044 399.852 379.132 398.083 380.711 396.831C383.543 395.033 386.581 393.581 389.759 392.506C394.927 390.249 400.225 388.261 405.265 385.757C405.769 385.488 406.211 385.118 406.562 384.669C406.914 384.22 407.167 383.702 407.306 383.149C407.446 382.596 407.468 382.019 407.371 381.457C407.274 380.895 407.06 380.36 406.744 379.885C406.281 379.217 405.674 378.66 404.968 378.257C404.261 377.853 403.474 377.613 402.662 377.554C400.498 377.639 398.354 379.397 396.239 379.323C391.266 379.149 384.775 387.218 381.797 379.132C379.321 372.411 387.074 368.754 392.005 365.309C394.559 364.132 397.292 363.393 400.091 363.123C404.463 362.016 408.841 360.944 413.178 359.766C413.738 359.697 414.276 359.508 414.755 359.211C415.235 358.913 415.643 358.515 415.954 358.044C416.264 357.573 416.468 357.04 416.552 356.483C416.636 355.925 416.597 355.356 416.439 354.814C416.282 353.675 415.696 352.639 414.802 351.917C413.908 351.194 412.772 350.838 411.625 350.923C407.237 351.913 402.904 353.134 398.644 354.581C386.045 358.206 383.017 355.691 384.902 343.014C385.645 338.009 386.979 333.075 387.467 328.052C387.764 324.975 388.507 320.893 382.002 320.539C376.268 336.103 374.754 353.042 371.214 369.352C368.605 383.188 367.095 397.209 366.697 411.284C364.613 448.958 373.732 485.153 378.702 521.932C381.743 541.959 383.254 562.189 383.222 582.445C382.985 595.232 381.051 608.238 380.251 621.177L367.019 621.141C365.151 596.82 357.659 573.687 351.94 550.19C343.383 517.507 337.407 484.201 334.067 450.581C330.398 411.122 335.196 371.334 348.141 333.878C349.673 330.222 350.388 326.276 350.235 322.316C350.083 318.356 349.066 314.477 347.257 310.95C335.272 341.446 327.503 373.433 324.163 406.028C313.863 403.333 311.574 395.54 306.771 390.281C305.148 388.512 303.071 387.451 300.942 389.195C300.499 389.556 300.136 390.006 299.876 390.515C299.617 391.024 299.465 391.581 299.432 392.152C299.398 392.723 299.484 393.294 299.683 393.83C299.882 394.365 300.19 394.854 300.588 395.264C305.777 401.214 311.2 406.976 316.682 412.656C321.577 417.721 325.525 422.851 320.764 430.99C314.705 429.798 311.033 425.1 306.332 422.376C303.365 420.657 300.319 417.984 297.705 421.981C295.643 425.125 298.767 426.759 301.016 428.528C306.322 432.73 311.274 437.402 316.724 441.392C320.865 444.397 323.903 448.68 325.369 453.581C326.126 455.11 326.435 456.822 326.259 458.519C326.083 460.216 325.43 461.829 324.375 463.17C321.454 466.215 318.252 464.348 315.066 463.113C310.142 461.207 305.936 457.026 300.326 456.86C298.01 464.182 302.236 466.353 306.516 467.864C321.984 473.325 330.922 483.074 330.714 500.462C331.064 507.225 332.278 513.915 334.329 520.369C335.581 525.321 338.039 530.474 336.125 535.246C332.836 543.445 326.607 536.798 321.694 537.138C319.388 537.297 317.167 538.093 316.859 540.881C316.694 542.001 316.971 543.141 317.63 544.061C318.29 544.981 319.282 545.609 320.396 545.811C324.722 547.074 329.048 548.386 333.448 549.327C335.952 549.81 338.285 550.941 340.214 552.607C342.144 554.274 343.603 556.418 344.445 558.824C347.395 565.966 344.753 569.906 337.264 568.99C333.94 568.583 330.71 567.299 327.382 567.009C324.63 566.769 321.369 567.119 321.171 570.925C321.197 572.062 321.612 573.155 322.347 574.023C323.082 574.891 324.093 575.48 325.21 575.693C330.59 577.337 336.055 578.724 341.502 580.139C346.252 581.374 350.585 583.676 349.705 589.137C348.643 595.777 343.09 593.605 338.81 593.089C337.158 592.891 335.627 591.854 333.957 591.621C330.204 591.094 325.252 589.212 323.929 594.45C322.515 600.081 327.576 600.269 331.481 600.817C333.717 601.128 335.949 601.492 338.202 601.722C349.952 602.918 356.712 608.772 356.496 621.177C351.417 621.226 346.334 621.265 341.254 621.332C326.635 621.523 323.477 623.497 323.834 637.504C324.803 675.351 319.423 712.923 319.809 750.731C320.81 848.32 317.573 945.951 322.971 1043.51C324.248 1066.56 327.665 1089.49 327.159 1112.67C327.37 1119.42 328.236 1126.14 329.745 1132.73C330.961 1139.62 334.827 1141.46 340.331 1137.57C344.195 1135.18 347.532 1132.02 350.142 1128.3C352.751 1124.58 354.578 1120.37 355.512 1115.92C359.545 1091.36 368.306 1068.07 374.114 1044.01C393.922 961.95 411.254 879.411 424.882 796.091C432.685 748.372 440.718 700.681 449.271 653.092C454.265 625.301 454.821 625.4 427.291 623.844C428.225 611.131 434.365 600.145 439.48 588.957C446.597 573.394 449.879 572.237 467.36 576.223C471.201 577.104 475.085 577.79 478.915 578.699C481.795 579.407 484.723 579.983 485.526 576.153C486.259 572.661 483.867 570.847 480.794 570.642C474.593 570.245 468.514 568.729 462.853 566.167C461.529 565.661 460.432 564.694 459.762 563.444C459.093 562.194 458.897 560.745 459.21 559.362C459.28 557.94 459.864 556.592 460.854 555.568C461.843 554.544 463.171 553.916 464.59 553.798C468.506 553.444 472.46 553.557 476.397 553.423C483.309 553.19 490.446 555.029 498.398 552.062C493.025 543.247 481.494 547.078 476.383 538.543C483.514 535.762 491.451 535.888 498.49 538.896C501.249 539.805 504.393 539.582 505.373 536.12C506.636 531.673 503.58 530.556 499.961 529.537C484.129 525.084 483.623 523.878 491.119 509.443C492.94 505.944 495.009 502.581 497.312 499.38C510.135 482.127 518.617 462.041 522.04 440.819C524.771 422.833 523.522 404.832 523.207 386.825C523.286 386.12 523.215 385.406 522.999 384.73C522.782 384.054 522.426 383.432 521.952 382.903C521.479 382.374 520.899 381.952 520.251 381.663C519.603 381.374 518.901 381.225 518.192 381.226C517.479 381.22 516.775 381.372 516.128 381.67C515.482 381.969 514.909 382.407 514.452 382.953C513.995 383.499 513.664 384.14 513.484 384.829C513.304 385.518 513.278 386.238 513.409 386.938C513.632 390.829 514.587 394.681 515.093 398.568C516.936 412.823 517.414 426.897 509.897 440.83C502.685 433.685 500.909 424.99 496.169 418.054C494.401 415.458 491.989 413.725 489.138 415.225C485.986 416.883 486.81 419.918 488.317 422.507C494.154 433.447 499.247 444.768 503.562 456.393C505.019 459.902 508.196 464.355 503.332 466.608C498.95 468.642 496.629 463.637 494.489 460.539C491.306 455.919 488.865 450.766 485.516 446.281C483.645 443.776 480.67 440.73 477.151 444.119C476.67 444.646 476.299 445.263 476.059 445.934C475.819 446.605 475.714 447.317 475.751 448.029C475.788 448.741 475.966 449.438 476.274 450.081C476.582 450.724 477.015 451.299 477.547 451.774C482.662 458.52 486.923 465.874 490.231 473.668C491.935 476.615 492.861 479.946 492.923 483.349C492.985 486.753 492.18 490.116 490.584 493.122C482.152 508.403 474.42 524.249 462.797 537.404C441.035 562.652 424.628 592.057 414.572 623.837L407.851 623.642C413.698 590.45 421.816 557.555 424.058 523.895C424.914 511.063 430.457 504.491 440.867 499.291C445.235 497.109 452.483 496.695 451.581 487.75C445.568 487.081 440.729 490.226 435.508 491.64C432.392 492.468 428.434 493.6 426.863 489.32C425.65 486.041 428.547 484.173 430.906 482.755C439.119 477.821 447.492 473.152 455.708 468.221C456.359 467.942 456.938 467.519 457.402 466.985C457.867 466.45 458.204 465.818 458.39 465.134C458.576 464.451 458.605 463.735 458.475 463.039C458.345 462.343 458.059 461.685 457.64 461.115C456.037 458.664 453.611 459.608 451.609 460.577C446.561 463.025 441.705 465.883 436.566 468.115C435.512 468.584 434.328 468.674 433.216 468.37C432.103 468.067 431.13 467.388 430.461 466.449C429.942 465.434 429.799 464.269 430.058 463.159C430.317 462.049 430.961 461.067 431.875 460.386C434.535 457.481 437.521 454.892 440.775 452.672C445.108 450.115 450.053 448.625 454.569 446.365C456.518 445.392 458.524 443.751 457.87 441.085C456.922 437.215 453.767 437.71 451.149 438.52C446.441 439.974 442.108 442.903 436.82 441.877C436.82 427.658 439.752 422.776 451.05 418.832C455.295 417.35 459.727 416.494 463.95 414.998C466.016 414.27 468.23 412.759 467.36 410.046C466.564 407.57 464.155 407.397 461.849 407.436C455.404 407.535 450.431 414.404 442.09 412.112C447.587 395.717 452.783 380.299 457.905 364.856C459.243 361.147 460.323 357.349 461.138 353.491C461.274 352.939 461.292 352.365 461.188 351.806C461.085 351.246 460.863 350.716 460.539 350.249C460.214 349.782 459.793 349.39 459.305 349.099C458.817 348.808 458.272 348.624 457.707 348.56C456.916 348.566 456.137 348.752 455.429 349.103C454.721 349.454 454.102 349.962 453.618 350.587C451.635 353.334 450.146 356.407 449.221 359.667C442.444 391.501 424.504 420.038 422.216 453.326C420.985 471.217 415.095 488.956 415.194 506.737C415.459 546.094 406.182 583.68 397.795 621.58Z" fill="#DAE1B5"/>
<path d="M665.613 580.385L665.38 467.749C679.302 437.493 693.57 407.339 711.925 379.505C725.012 359.641 735.326 338.284 747.427 317.906C750.262 312.383 752.75 306.688 754.876 300.854C757.578 294.643 754.925 290.897 749.004 289.479C741.249 287.957 733.726 285.425 726.628 281.948C729.324 269.37 737.685 264.39 749.924 264.401C755.007 264.401 760.1 264.22 765.169 263.828C768.242 263.587 770.542 261.988 769.997 258.416C769.573 255.618 767.079 255.346 764.889 255.002C758.593 254.016 751.802 257.188 744.94 253.191C748.279 245.551 754.105 244.953 760.468 244.327C765.692 243.814 774.814 247.323 775.356 241.119C776.134 232.142 765.848 237.091 760.999 234.498C760.171 234.059 759.729 232.899 758.993 231.919C763.213 218.39 769.053 206.834 786.257 207.124C791.524 207.212 799.942 207.782 799.514 200.824C799.129 194.546 791.23 198.292 786.636 197.8C783.364 197.447 779.424 198.416 778.186 194.178C776.771 189.329 780.209 186.531 783.944 185.187C790.29 182.905 796.953 181.522 803.444 179.63C806.256 178.809 808.955 177.423 807.561 173.783C807.091 172.746 806.249 171.922 805.201 171.474C804.154 171.027 802.977 170.987 801.902 171.364C796.341 172.404 790.583 175.87 785.048 170.861C788.645 163.012 795.981 164.116 801.187 161.34C804.756 159.437 812.319 160.487 810.508 154.29C808.668 147.99 802.783 152.801 799.033 153.632C785.154 156.709 785.196 156.939 784.984 142.702C784.934 139.314 784.984 135.922 784.938 132.53C784.584 102.638 773.707 78.7654 746.217 64.1924C742.636 62.4603 739.501 59.9293 737.053 56.7944C734.605 53.6594 732.909 50.0045 732.097 46.1109C731.165 42.2682 729.853 38.5277 728.181 34.9443C726.89 31.9872 725.68 27.3891 721.645 28.5492C715.317 30.3673 720.127 34.9725 720.421 38.3575C720.75 40.0197 721.252 41.6428 721.92 43.1999C722.911 46.3833 724.977 49.9838 721.79 52.5871C718.058 55.6396 714.298 52.3079 710.75 51.123C705.954 49.5206 704.716 44.8411 702.661 40.8229C700.231 36.069 698.643 30.4024 693.111 28.1917C687.894 32.4716 691.565 35.9735 692.432 39.4222C693.387 43.2317 695.452 47.731 690.776 49.9205C685.379 52.446 682.52 48.5054 680.674 43.9071C678.46 38.3963 678.198 31.4706 670.646 29.7409C668.043 33.2073 669.776 36.3449 670.53 39.6096C672.917 49.9486 672.74 49.5632 661.878 52.2231C654.86 53.9422 646.884 52.7042 639.845 57.4722C654.995 57.4722 669.002 56.9485 682.956 57.5923C703.825 58.5579 724.651 60.4646 743.352 71.2917C749.959 75.1189 756.276 79.25 759.354 88.0114C749.206 88.832 740.122 81.2558 730.127 88.3301C742.153 99.4649 760.457 93.3984 771.589 105.754C764.214 109.793 758.99 105.004 753.489 105.782C750.331 106.231 745.743 104.961 745.591 109.673C745.456 113.684 749.659 114.717 752.994 114.978C760.353 115.237 767.6 116.857 774.369 119.757C775.418 120.206 776.271 121.017 776.771 122.043C777.271 123.068 777.385 124.24 777.092 125.342C776.502 128.123 774.489 128.759 772.048 128.257C768.182 127.461 764.366 126.407 760.496 125.632C755.297 124.596 747.869 120.111 746.036 127.755C744.477 134.267 753.228 133.446 757.426 134.74C779.611 141.571 780.499 142.497 777.482 164.979C777.041 167.767 776.401 170.52 775.568 173.217C769.04 197.255 758.165 219.893 743.479 240.012C734.332 252.207 726.229 265.152 719.257 278.708C714.664 278.933 710.114 277.738 706.223 275.288C706.607 273.085 707.331 270.955 708.37 268.974C732.712 236.648 735.662 199.388 733.696 160.911C733.153 153.552 730.737 146.453 726.678 140.29C716.717 123.769 702.636 110.118 685.814 100.675C668.62 91.0218 649.778 87.587 630.677 85.8538C621.661 85.0297 615.736 82.9746 613.324 73.4739C612.199 69.049 611.007 63.4426 603.979 62.2542C601.719 68.3981 605.503 73.2194 606.642 78.3659C607.286 81.2805 607.587 84.0604 603.774 85.0118C602.459 85.568 600.999 85.6845 599.613 85.3435C598.227 85.0024 596.987 84.2225 596.081 83.1198C594.451 80.1839 593.146 77.0786 592.19 73.8595C590.821 70.1278 592.504 64.7728 586.817 62.8522C582.618 68.5646 585.377 74.2626 584.924 79.6319C584.649 82.8931 585.384 87.0601 580.786 87.5624C576.704 88.0045 575.604 84.3469 574.066 81.2342C571.052 75.115 571.805 66.7851 563.38 61.9286C559.977 69.4945 563.9 74.9845 565.601 80.3538C567.858 87.4882 566.125 91.0816 558.576 92.1003C554.127 92.7016 548.259 90.9966 546.154 97.9082C556.32 97.9082 566.468 100.031 575.254 97.4876C597.057 91.1597 618.541 91.5555 640.535 95.0714C667.622 98.9326 692.55 112.016 711.115 132.116C717.029 138.073 721.454 145.342 724.029 153.333C726.604 161.323 727.256 169.808 725.932 178.098C719.646 177.101 716.473 171.481 710.015 172.835C708.695 182.601 720.523 184.38 721.425 192.18L719.243 194.776C715.197 194.84 710.779 188.214 707.489 193.944C704.95 198.366 710.612 200.174 713.523 202.515C715.271 203.93 717.018 205.345 718.649 206.873C723.105 211.071 726.207 216.748 722.023 221.665C717.778 226.67 714.691 219.896 711.196 218.015C710.704 217.749 710.319 217.307 709.827 217.035C707.737 215.907 705.374 215.295 704.044 217.697C703.739 218.451 703.608 219.264 703.66 220.076C703.712 220.887 703.946 221.677 704.345 222.386C705.843 224.759 707.761 226.84 710.004 228.527C717.581 233.939 716.388 240.38 713.396 247.78C709.763 256.753 703.492 264.05 698.894 272.377C693.065 272.479 688.222 269.395 683.026 267.464C686.136 254.903 689.11 242.311 692.389 229.793C696.28 214.916 699.053 199.569 695.856 184.642C693.297 171.936 694.91 158.744 700.454 147.028C701.893 143.626 703.991 140.088 700.047 136.816C690.345 141.061 695.657 153.621 686.326 157.884C676.044 146.696 689.269 133.786 685.089 121.416C678.163 125.151 678.12 131.433 675.644 136.205C675.26 137.263 674.549 138.172 673.615 138.799C672.68 139.427 671.57 139.741 670.445 139.696C669.734 139.651 669.041 139.459 668.408 139.132C667.775 138.805 667.217 138.35 666.769 137.797C666.321 137.244 665.993 136.603 665.805 135.916C665.617 135.229 665.573 134.511 665.677 133.807C666.221 129.382 667.916 125.105 668.581 120.684C669.115 117.147 670.961 112.69 665.351 111.172C661.549 113.1 662.016 116.977 660.81 119.969C656.236 131.32 656.084 131.543 645.016 127.525C639.791 125.449 634.386 123.859 628.869 122.774C603.832 118.393 578.216 118.485 553.211 123.047C543.254 124.907 532.253 124.868 523.902 132.795C524.74 133.784 525.853 134.5 527.1 134.852C528.347 135.204 529.671 135.177 530.902 134.772C544.835 132.342 545.553 133.286 540.594 146.798C538.609 152.207 534.605 157.463 539.784 166.189C543.675 156.752 546.989 149.321 549.818 141.719C550.932 137.319 553.523 133.434 557.158 130.715C558.29 129.854 559.676 129.393 561.098 129.402C562.52 129.411 563.9 129.89 565.021 130.765C567.221 132.558 566.082 134.787 565.548 136.93C564.101 142.855 558.41 148.287 562.973 156.122C568.756 152.489 568.106 146.717 570.047 142.433C571.224 138.683 573.122 135.198 575.636 132.176C576.699 130.844 578.145 129.869 579.779 129.383C581.413 128.896 583.157 128.922 584.776 129.456C588.875 131.069 588.242 134.67 587.842 138.034C587.11 144.153 582.081 150.035 585.915 156.667C586.777 156.567 587.624 156.362 588.437 156.055C591.097 154.287 590.938 151.22 591.801 148.602C598.762 127.507 602.235 125.233 623.465 130.323C628.626 131.557 634.971 130.934 638.766 136.187C635.098 138.514 629.793 133.906 626.245 139.342C630.529 149.908 644.122 154.923 644.967 167.756C637.302 173.256 626.602 165.701 619.631 175.184C629.591 178.721 638.681 176.369 647.485 177.306C651.097 177.695 654.27 179.202 654.047 183.368C653.835 187.259 650.184 186.803 647.584 186.998C642.53 187.373 637.447 187.351 632.375 187.581C629.407 187.723 626.1 188.745 626.008 191.872C625.895 196.368 629.92 196.824 633.333 196.601C639.495 196.212 645.621 195.253 651.783 194.882C652.628 194.784 653.484 194.857 654.3 195.095C655.116 195.334 655.877 195.733 656.536 196.27C657.196 196.807 657.741 197.471 658.139 198.222C658.538 198.973 658.782 199.797 658.857 200.644C659.396 202.278 659.3 204.055 658.588 205.621C657.876 207.188 656.601 208.429 655.016 209.098C651.232 210.072 647.357 210.647 643.453 210.813C638.957 211.361 633.737 209.313 629.779 213.498C631.193 215.298 631.759 216.745 632.488 216.833C636.934 217.367 641.419 217.611 645.894 217.926C657.892 218.772 658.999 219.769 659.091 232.266C659.147 240.143 658.567 248.027 658.27 255.908C654.801 255.802 651.439 254.682 648.6 252.686C642.081 230.561 627.547 218.05 604.93 217.763C558.722 217.183 512.47 216.628 466.293 217.969C442.906 218.648 419.649 223.586 396.308 226.391C381.848 228.127 367.374 230.087 352.847 230.784C342.773 230.892 332.732 231.958 322.859 233.967C322.941 211.927 322.941 189.887 323.128 167.855C323.309 148.734 325.67 129.695 330.164 111.109C335.89 87.297 347.888 67.4469 369.408 54.1402C378.01 48.8345 385.679 41.9972 394.277 36.6597C406.279 29.207 418.549 23.6925 433.734 23.6961C453.407 23.6961 472.14 15.7555 491.566 12.6145C507.097 10.1031 522.859 8.91788 538.256 6.53032C561.77 2.88355 585.628 6.66496 608.86 1.10461C613.889 0.307849 618.992 0.0918214 624.07 0.460832C676.642 0.418387 729.218 0.22036 781.79 0.513941C808.207 0.994419 834.573 3.03656 860.749 6.62963C869.195 7.36493 877.679 7.55519 886.149 7.19914C936.995 6.91971 965.585 32.62 982.542 77.0356C990.639 98.2407 993.274 120.26 995.594 142.879C1002.87 213.763 1001.35 284.753 1001.89 355.754C1002.25 400.7 993.73 444.051 980.53 486.705C979.034 491.551 976.575 496.163 975.578 501.087C969.108 532.847 947.094 550.741 920.399 565.43C885.028 584.884 847.647 587.131 808.902 581.242C807.248 580.868 805.56 580.673 803.865 580.661C776.162 582.501 748.817 574.829 721.164 577.266C702.682 578.879 684.271 581.556 665.613 580.385Z" fill="#D0E6E0"/>
<path d="M182.858 1021.92C188.082 1026.34 194.742 1028.7 201.584 1028.55C205.537 1028.54 209.488 1028.79 213.412 1029.27C217.596 1029.89 221.324 1031.93 220.73 1036.85C220.224 1041.05 216.429 1041.51 212.92 1041.55C208.399 1041.61 203.875 1041.48 199.359 1041.6C196.02 1041.69 192.108 1041.47 191.223 1045.81C190.996 1046.79 190.976 1047.8 191.164 1048.79C191.352 1049.77 191.744 1050.71 192.315 1051.54C192.886 1052.37 193.624 1053.06 194.48 1053.59C195.337 1054.11 196.294 1054.46 197.289 1054.59C204.427 1056.15 211.282 1059.17 218.802 1058.94C222.189 1058.83 225.58 1058.98 228.947 1059.37C231.992 1059.72 234.252 1061.31 233.736 1064.87C233.548 1066 232.939 1067.01 232.033 1067.71C231.126 1068.41 229.988 1068.75 228.848 1068.64C222.074 1068.8 215.293 1068.59 208.52 1068.68C202.284 1068.76 199.988 1071.77 203.447 1077.25C212.46 1091.56 220.967 1106.2 232.3 1118.94C235.132 1122.49 239.003 1125.08 243.372 1126.33C247.741 1127.58 252.392 1127.44 256.678 1125.93C266.429 1123.16 276.291 1120.77 286.085 1118.14C288.497 1117.5 290.747 1117.67 291.787 1120.04C292.099 1120.67 292.262 1121.38 292.261 1122.09C292.261 1122.8 292.098 1123.5 291.785 1124.14C291.472 1124.77 291.017 1125.33 290.456 1125.77C289.894 1126.2 289.239 1126.5 288.543 1126.65C284.865 1128.01 281.002 1128.88 277.264 1130.09C272.394 1131.49 267.607 1133.17 262.928 1135.12C262.111 1135.38 261.359 1135.81 260.722 1136.38C260.084 1136.95 259.577 1137.65 259.234 1138.43C258.891 1139.22 258.719 1140.07 258.732 1140.92C258.744 1141.78 258.94 1142.62 259.306 1143.4C259.917 1144.69 260.978 1145.72 262.29 1146.3C263.603 1146.87 265.08 1146.95 266.447 1146.52C273.61 1145.05 280.702 1143.21 287.758 1141.29C291.557 1140.25 295.186 1138.56 298.982 1137.53C301.956 1136.72 304.722 1137.39 305.348 1141C305.546 1142.12 305.297 1143.28 304.654 1144.22C304.011 1145.16 303.025 1145.82 301.907 1146.04C297.079 1147.58 292.059 1148.6 287.344 1150.42C283.004 1152.1 275.456 1152.41 277.193 1158.98C279.046 1165.99 285.36 1162.38 290.068 1161.01C297.103 1158.97 304.117 1156.85 311.17 1154.86C314.587 1153.9 318.192 1153.49 319.232 1158.03C319.985 1161.3 317.463 1162.94 314.831 1164.32C307.998 1167.9 299.233 1167.76 292.975 1176.37C307.753 1188.64 316.041 1205.91 326.415 1221.75C338.226 1262.83 340.758 1304.87 339.191 1347.31C338.756 1359.13 337.508 1370.91 336.518 1382.68C336.263 1385.71 334.646 1388.42 331.417 1388.26C328.188 1388.1 326.751 1385.31 327.006 1382.19C327.841 1372.1 328.976 1362.03 329.726 1351.92C330.042 1347.42 330.026 1342.9 329.68 1338.4C329.28 1332.84 326.55 1330.08 320.657 1332.22C317.474 1333.38 314.29 1334.52 311.082 1335.59C307.333 1336.84 302.745 1338.7 300.743 1333.98C298.543 1328.78 303.364 1327.56 307.152 1326.27C310.938 1325.15 314.653 1323.81 318.28 1322.25C323.084 1320.4 326.972 1316.74 329.111 1312.06C330.073 1310.3 330.486 1308.3 330.296 1306.31C330.107 1304.32 329.324 1302.43 328.049 1300.89C325.057 1297.95 321.846 1300.44 318.906 1302.06C315.064 1304.41 311.063 1306.49 306.933 1308.29C303.23 1309.71 298.702 1310.25 296.562 1305.76C294.192 1300.81 298.306 1298.63 301.903 1296.99C305.999 1295.13 310.474 1294.08 314.517 1292.12C318.088 1290.49 321.396 1288.33 324.332 1285.73C325.822 1284.36 326.801 1282.53 327.107 1280.54C327.413 1278.55 327.028 1276.51 326.016 1274.76C323.324 1269.99 319.295 1272.39 315.733 1274.12C312.772 1275.76 309.708 1277.21 306.561 1278.45C303.237 1279.56 298.716 1283.55 296.658 1277.62C294.921 1272.58 300.12 1271.35 303.52 1269.67C327.3 1257.92 328.987 1253.69 319.277 1229.46C318.216 1226.86 316.837 1224.38 315.606 1221.85C310.712 1211.68 303.844 1202.59 295.402 1195.1C265.595 1166.74 237.302 1136.83 210.642 1105.49C209.199 1103.74 206.801 1100.84 205.51 1102.28C198.984 1109.62 190.562 1105.11 183.187 1106.62C180.223 1107.22 177.626 1108.23 177.503 1111.64C177.488 1113.06 177.913 1114.45 178.718 1115.62C179.523 1116.8 180.669 1117.69 182.002 1118.19C186.247 1120.19 190.877 1119.22 195.344 1119.55C201.102 1119.98 207.455 1117.71 212.778 1122.17C208.353 1132.34 198.075 1127.26 191.779 1132.09C191.644 1138.87 196.023 1143.44 200.201 1147.83C207.581 1155.59 215.17 1163.15 222.965 1170.51C238.15 1184.9 252.865 1199.64 262.471 1218.59C264.626 1233.57 271.293 1247.33 273.56 1262.4C277.029 1285.27 278.742 1308.38 278.686 1331.52C278.708 1334.3 278.266 1337.07 277.377 1339.7C276.982 1340.39 276.422 1340.97 275.746 1341.39C275.07 1341.81 274.3 1342.05 273.507 1342.09C272.163 1341.97 269.97 1340.32 269.868 1339.18C269.234 1333.58 268.998 1327.94 269.16 1322.31C270.566 1296.33 268.041 1270.29 261.669 1245.07C259.228 1235.84 257.137 1226.37 251.347 1218.38C243.554 1202.72 232.399 1188.96 218.678 1178.1C172.045 1140.52 150.659 1091.32 150.578 1032.11L156.591 1030.85C160.864 1034.01 160.404 1038.61 160.369 1043.1C160.117 1048.15 160.132 1053.21 160.415 1058.26C163.973 1094.15 168.412 1098.29 199.868 1095.61C200.303 1095.57 200.703 1095.06 201.166 1094.74C202.167 1090.89 198.771 1088.72 197.59 1085.72C189.639 1065.43 177.022 1047.02 173.184 1025.08C176.055 1023.15 179.404 1022.06 182.858 1021.92Z" fill="#90A58F"/>
<path d="M217.685 234.765C210.902 260.445 206.247 286.642 203.766 313.087C210.066 316.271 213.232 313.087 216.744 311.651C220.359 310.194 224.681 307.3 227.002 312.249C229.478 317.554 224.42 318.439 220.709 319.868C212.22 323.14 204.827 327.724 200.731 337.486C208.831 340.28 213.2 333.829 218.969 333.068C222.432 332.608 226.018 332.463 227.168 336.754C228.084 340.167 225.672 341.851 222.867 342.919C214.395 346.145 205.935 349.438 199.412 356.052C196.667 358.833 193.282 362.101 196.066 366.31C199.25 371.167 203.14 367.64 206.373 365.889C210.819 363.48 214.862 360.346 219.347 357.991C220.394 357.519 221.579 357.458 222.667 357.82C223.756 358.182 224.67 358.94 225.226 359.943C225.724 360.452 226.103 361.065 226.335 361.739C226.566 362.412 226.645 363.129 226.566 363.837C226.486 364.545 226.25 365.226 225.875 365.831C225.499 366.436 224.994 366.95 224.395 367.336C220.195 370.181 215.785 372.701 211.201 374.873C198.535 380.784 191.722 389.704 194.121 404.415C194.725 410.03 194.988 415.676 194.909 421.323C193.585 422.68 191.939 423.681 190.124 424.233C188.309 424.785 186.384 424.869 184.528 424.478C181.988 379.558 186.008 334.507 196.462 290.747C199.066 279.828 197.523 271.264 188.263 263.797C184.164 260.486 174.044 257.894 178.922 250.816C182.487 245.641 188.507 252.839 193.102 255.39C195.656 256.805 198.365 258.495 200.328 255.319C201.02 254.06 201.228 252.593 200.914 251.191C200.599 249.79 199.783 248.552 198.62 247.71C193.06 243.01 187.252 238.595 181.543 234.068C181.25 231.884 180.958 229.702 180.666 227.521L180.51 227.747C187.747 227.022 193.35 230.93 199.235 234.192C201.711 235.568 204.686 236.314 206.794 233.431C207.6 232.257 207.989 230.846 207.899 229.424C207.808 228.002 207.244 226.652 206.295 225.589C202.215 220.894 197.297 216.997 191.793 214.097C188.737 212.13 186.116 209.63 188.497 205.962C190.237 203.267 193.261 203.839 196.087 205.092C201.039 207.274 205.507 213.492 211.155 210.521C217.299 207.292 215.718 199.397 216.815 193.642C224.837 150.999 233.793 108.436 231.833 64.5973C231.328 53.3351 232.014 42.0234 228.756 30.9947C228.058 28.2557 227.736 25.4342 227.801 22.6083C227.766 19.2869 227.578 15.2264 232.014 14.664C236.449 14.1016 237.468 17.8154 237.829 21.2676C238.703 29.6435 238.317 38.2458 242.802 46.5615C251.079 44.5454 254.52 36.4136 260.926 32.2468C263.621 30.496 266.639 27.4788 269.631 31.5111C270.151 32.1968 270.508 32.9915 270.676 33.8353C270.844 34.6792 270.818 35.55 270.6 36.3824C270.383 37.2148 269.979 37.9869 269.419 38.6406C268.86 39.2942 268.16 39.8126 267.371 40.1561C259.765 45.027 252.869 50.9247 246.877 57.6824C242.243 62.5247 239.449 67.5861 243.453 74.7523C251.747 73.8291 256.742 66.893 263.582 63.4337C266.15 62.1391 268.98 60.5437 271.11 63.4583C271.655 64.1268 272.029 64.9183 272.199 65.764C272.37 66.6097 272.331 67.4844 272.087 68.3119C271.843 69.1394 271.401 69.895 270.799 70.5131C270.198 71.1312 269.454 71.593 268.634 71.8589C243.785 82.824 236.011 102.986 237.595 128.347C237.892 133.087 232.459 138.87 238.076 142.269C242.926 145.201 247.457 140.175 251.871 137.911C253.364 137.144 254.637 135.955 256.095 135.099C259.101 133.331 262.461 131.597 264.555 135.927C266.051 139.015 263.774 141.126 261.213 142.708C255.932 145.962 250.601 149.138 245.423 152.555C242.591 154.395 239.937 156.495 237.496 158.83C235.02 161.228 232.764 164.623 234.829 167.786C237.178 171.386 240.906 169.508 243.824 167.754C248.164 165.144 252.274 162.155 256.607 159.537C257.499 158.809 258.642 158.462 259.788 158.57C260.934 158.679 261.991 159.234 262.73 160.117C263.217 160.635 263.569 161.265 263.756 161.951C263.943 162.636 263.96 163.357 263.804 164.051C263.648 164.744 263.324 165.389 262.861 165.928C262.398 166.468 261.811 166.886 261.149 167.146C255.872 170.393 250.269 173.116 245.013 176.395C233.676 183.469 224.543 191.821 223.319 206.641C222.527 216.11 218.145 225.091 217.685 234.765Z" fill="#90A58F"/>
<path d="M180.151 1214.85C165.433 1194.64 154.44 1172.08 142.459 1150C135.078 1154.07 135.658 1160.12 132.594 1163.96C130.589 1166.47 128.265 1167.76 125.439 1166.03C124.502 1165.38 123.83 1164.41 123.547 1163.3C123.263 1162.19 123.386 1161.02 123.893 1160C126.263 1153.68 129.071 1147.52 131.233 1141.14C133.571 1134.25 135.53 1127.16 128.757 1121.17C121.329 1124.49 121.488 1132.82 116.529 1137.29C115.27 1138.43 113.94 1139.64 112.072 1138.95C111.534 1138.79 111.038 1138.51 110.621 1138.14C110.204 1137.76 109.876 1137.3 109.66 1136.78C109.444 1136.26 109.347 1135.7 109.374 1135.14C109.402 1134.58 109.553 1134.03 109.819 1133.54C113.71 1125.43 117.859 1117.45 122.117 1109.52C124.194 1105.66 127.879 1102.22 123.426 1096.81C115.468 1099.79 113.353 1108.05 108.57 1113.79C106.02 1116.85 103.502 1120.78 99.0661 1117.09C94.6305 1113.39 98.0757 1110.1 100.559 1107.05C105.889 1100.51 111.089 1093.86 116.645 1087.53C123.78 1079.39 127.229 1070.58 124.148 1059.66C122.952 1053.57 122.902 1047.3 123.999 1041.18C126.261 1039.41 129.072 1038.47 131.947 1038.55C133.91 1048.63 132.952 1058.83 132.789 1068.97C132.166 1108.3 147.075 1142.56 166.604 1175.43C171.69 1184 178.694 1188.63 188.888 1187.69C197.493 1186.89 205.544 1190.36 213.98 1190.93C217.482 1191.17 221.129 1192.15 220.311 1196.76C219.537 1201.15 215.519 1200.97 212.211 1200.84C204.911 1200.55 197.957 1197.13 190.479 1198.28C188.332 1198.62 185.764 1198.61 185.496 1201.65C185.383 1202.78 185.683 1203.92 186.341 1204.84C186.998 1205.77 187.969 1206.43 189.075 1206.7C198.21 1209.62 207.721 1211.19 217.308 1211.37C223.972 1211.26 231.223 1210.37 234.973 1218.16C226.866 1225.23 217.775 1220.33 209.102 1220.19C205.357 1220.12 200.404 1217.54 199.198 1223.02C198.052 1228.2 202.223 1231.38 206.835 1232.46C213.407 1233.98 220.159 1234.75 226.852 1235.72C230.201 1236.21 233.611 1236.28 236.943 1236.83C240.954 1237.5 245.315 1238.56 244.056 1244C243.069 1248.28 239.231 1247.93 235.772 1247.34C231.936 1246.46 228.053 1245.79 224.142 1245.35C217.871 1245 215.985 1248.18 218.603 1253.81C220.265 1257.39 222.366 1260.75 224.11 1264.29C232.816 1282.05 237.662 1301.46 238.33 1321.23C239.826 1357.04 233.788 1391.98 227.06 1426.85C226.39 1429.58 225.35 1432.2 223.969 1434.65C223.587 1435.4 222.122 1435.61 219.788 1436.71C215.459 1429.83 218.267 1423.02 220.014 1416.41C225.788 1396.92 228.588 1376.67 228.319 1356.35C227.909 1346.32 226.356 1345.32 217.206 1348.98C213.548 1350.44 210.132 1352.46 206.506 1354.04C202.781 1355.67 198.576 1357.33 196.74 1351.87C195.325 1347.65 198.831 1345.93 202.046 1344.66C207.288 1342.61 212.7 1340.95 217.846 1338.69C220.952 1337.4 223.802 1335.56 226.257 1333.27C227.506 1332.08 228.359 1330.55 228.702 1328.86C229.044 1327.18 228.859 1325.43 228.171 1323.85C226.141 1319.36 222.398 1321.54 219.515 1322.68C213.251 1325.16 207.231 1328.26 200.967 1330.73C200.446 1330.97 199.878 1331.07 199.308 1331.05C198.739 1331.02 198.183 1330.86 197.685 1330.59C197.187 1330.31 196.761 1329.92 196.44 1329.45C196.12 1328.97 195.914 1328.43 195.838 1327.87C195.741 1327.08 195.83 1326.28 196.097 1325.53C196.364 1324.79 196.802 1324.11 197.377 1323.56C200.684 1321.48 204.401 1320.07 207.864 1318.21C213.405 1315.47 218.793 1312.43 224.004 1309.11C225.938 1307.84 227.316 1305.89 227.857 1303.64C228.398 1301.4 228.062 1299.03 226.915 1297.02C224.114 1291.23 219.657 1293.53 215.352 1295.23C210.107 1297.29 204.741 1299.08 199.435 1301.01C196.606 1302.03 193.663 1302.42 192.142 1299.31C190.479 1295.9 193.143 1294.36 195.782 1293.03C199.352 1291.4 202.834 1289.58 206.212 1287.58C220.577 1278.39 221.454 1276.24 212.544 1262.31C202.244 1246.19 190.996 1230.64 180.151 1214.85Z" fill="#90A58F"/>
<path d="M140.953 441.497C135.219 419.769 126.5 398.871 122.963 376.538C121.385 366.567 114.039 362.563 105.496 360.49C97.3293 358.509 88.925 357.533 80.6482 355.973C79.946 355.947 79.2582 355.766 78.6346 355.442C78.0109 355.119 77.4668 354.661 77.0413 354.102C76.6158 353.543 76.3194 352.896 76.1736 352.209C76.0279 351.521 76.0364 350.81 76.1985 350.127C76.6583 347.393 78.9538 346.692 81.1928 346.515C86.2586 346.235 91.3355 346.808 96.2116 348.21C100.604 349.173 105.074 349.741 109.568 349.907C115.553 350.346 121.116 349.674 122.252 342.125C123.034 339.07 122.66 335.833 121.202 333.036C119.745 330.239 117.306 328.079 114.353 326.969C108.155 324.207 101.458 322.742 94.6729 322.664C90.8705 322.739 85.7203 322.81 86.4348 317.062C87.0892 311.784 92.1721 312.817 95.9851 312.591C101.622 312.573 107.229 313.418 112.61 315.098C117.742 316.382 123.614 316.552 124.784 309.902C125.846 303.836 120.72 300.929 115.722 299.482C109.249 297.608 102.161 299.539 95.734 296.744C92.6567 295.407 88.7517 294.329 89.6395 290.052C90.4848 285.985 94.4394 285.517 97.8245 285.899C103.395 286.526 108.892 287.782 114.449 288.648C122.361 289.886 127.419 286.851 129.411 278.815C133.329 265.338 135.586 251.433 136.131 237.409C137.663 227.993 139.668 218.627 140.627 209.155C142.565 190.033 141.84 189.372 123.716 184.936C117.703 183.461 111.69 181.908 105.808 179.984C105.11 179.825 104.46 179.5 103.914 179.038C103.368 178.575 102.941 177.988 102.669 177.325C102.398 176.663 102.289 175.945 102.354 175.232C102.418 174.519 102.653 173.831 103.038 173.228C104.22 171.074 106.55 171.152 108.973 171.906C116.511 174.258 124.126 176.366 131.71 178.566C136.347 179.91 140.96 180.557 142.894 174.721C144.985 168.428 143.05 163.264 136.588 161.153C132.226 160.043 127.76 159.386 123.263 159.193C118.782 158.715 114.219 158.79 109.794 158.029C107.173 157.58 104.036 156.437 104.87 152.614C105.472 149.865 108.054 149.562 110.243 149.763C118.113 150.492 125.951 151.567 133.818 152.334C134.511 152.495 135.229 152.519 135.93 152.402C136.632 152.286 137.304 152.032 137.908 151.656C138.511 151.28 139.035 150.789 139.449 150.21C139.863 149.632 140.158 148.977 140.319 148.284C141.08 144.807 138.551 143.18 135.668 142.491C129.655 141.041 123.465 140.132 117.519 138.416C114.053 137.419 107.856 137.542 108.708 132.633C109.805 126.323 115.945 129.407 119.967 129.686C123.285 129.916 126.468 131.618 129.793 132.162C139.559 133.733 142.215 131.497 140.832 121.197C139.358 112.292 137.401 103.474 134.968 94.782C133.609 89.3101 131.537 84.008 130.263 78.5113C129.556 75.4376 128.382 71.0516 132.948 70.1815C137.256 69.3573 138.218 73.6122 138.979 76.8062C146.315 107.505 155.175 137.889 152.897 170.144C151.836 185.375 150.17 200.503 148.196 215.599C146.901 222.825 146.47 230.18 146.913 237.508C145.012 240.958 143.86 244.769 143.531 248.693C141.965 267.649 139.09 286.473 134.925 305.032C128.058 338.617 130.125 373.417 140.921 405.953C144.479 416.564 147.853 427.253 151.309 437.904C150.042 439.348 148.421 440.439 146.606 441.069C144.79 441.699 142.842 441.847 140.953 441.497Z" fill="#90A58F"/>
<path d="M234.944 1218.15C231.195 1210.37 223.944 1211.25 217.28 1211.36C207.692 1211.18 198.182 1209.61 189.047 1206.7C187.941 1206.43 186.97 1205.77 186.312 1204.84C185.655 1203.91 185.355 1202.77 185.467 1201.64C185.736 1198.61 188.297 1198.61 190.451 1198.28C197.928 1197.12 204.882 1200.54 212.183 1200.83C215.49 1200.96 219.508 1201.14 220.283 1196.75C221.1 1192.15 217.453 1191.16 213.952 1190.93C205.516 1190.35 197.465 1186.88 188.859 1187.68C178.672 1188.63 171.669 1183.99 166.575 1175.43C147.047 1142.53 132.138 1108.28 132.761 1068.96C132.923 1058.84 133.882 1048.64 131.926 1038.54C137.734 1035.32 144.063 1033.15 150.623 1032.12C150.704 1091.32 172.09 1140.53 218.723 1178.11C232.444 1188.97 243.599 1202.72 251.392 1218.39L234.944 1218.15Z" fill="#DAE1B5"/>
<path d="M166.637 237.377C174.567 213.731 177.333 189.024 180.159 164.512C182.794 141.666 184.591 118.643 181.574 95.4427C180.424 82.5579 177.518 69.8912 172.936 57.7939C171.458 54.2921 171.797 50.6593 175.961 49.676C179.264 48.8979 180.559 52.1165 181.422 54.8401C186.41 70.397 189.591 86.4768 190.901 102.761C191.177 106.298 189.776 111.409 195.291 112.35C199.16 113.012 201.003 109.418 203.157 106.871C205.941 103.578 207.165 98.5344 214.911 98.1382C213.111 113.663 196.727 120.514 193.876 135.112C201.891 137.754 204.784 130.672 209.439 127.683C212.159 125.95 214.823 125.332 216.623 128.296C217.925 130.439 216.415 132.646 214.526 134.057C211.371 136.417 207.936 138.419 204.884 140.898C198.619 145.766 193.671 152.121 190.488 159.387C188.758 163.493 185.5 168.732 189.646 171.813C194.403 175.35 197.208 169.181 200.512 166.578C201.835 165.517 202.903 164.169 204.236 163.147C206.56 161.378 209.04 159.963 211.615 162.768C214.798 166.238 212.793 168.866 210.101 171.293C209.243 172.025 208.32 172.677 207.342 173.238C186.777 185.699 180.814 205.337 180.499 227.756L180.654 227.529C176.247 229.835 177.383 233.925 177.404 237.653C169.696 253.4 167.369 270.654 163.924 287.526C163.167 291.226 160.585 299.032 170.107 297.43C173.099 296.92 175.766 296.432 176.852 300.022C177.208 301.399 177.076 302.857 176.477 304.147C175.878 305.437 174.851 306.48 173.569 307.097C167.227 311.398 160.79 315.547 161.713 324.69C162.997 324.88 164.306 324.799 165.557 324.452C166.807 324.106 167.972 323.501 168.975 322.678C171.221 321.295 173.775 318.529 176.198 321.687C178.847 325.136 176.396 328.072 173.739 330.265C170.284 333.123 166.279 335.348 163.004 338.376C159.414 341.697 154.084 345.835 158.523 350.922C162.06 354.968 164.833 348.262 168.366 347.483C169.153 347.223 170.002 347.226 170.787 347.491C171.572 347.756 172.249 348.268 172.717 348.951C172.793 350.651 172.381 352.338 171.528 353.81C170.676 355.283 169.419 356.48 167.906 357.26C156.839 365.293 155.498 376.474 156.634 388.843C157.939 403.087 164.062 415.838 168.526 429.106C166.736 434.016 162.845 435.07 158.194 434.716C157.315 429.731 156.126 424.806 154.632 419.97C147.951 401.359 145.152 381.578 146.404 361.844C147.904 337.161 150.905 312.591 155.392 288.272C158.31 271.174 162.838 254.337 166.637 237.377Z" fill="#90A58F"/>
<path d="M262.532 1218.59C252.925 1199.64 238.21 1184.9 223.026 1170.51C215.244 1163.14 207.655 1155.58 200.261 1147.83C196.08 1143.43 191.704 1138.87 191.839 1132.09C198.135 1127.25 208.414 1132.34 212.839 1122.16C207.533 1117.7 201.166 1119.97 195.404 1119.55C190.937 1119.22 186.317 1120.19 182.062 1118.19C180.73 1117.69 179.583 1116.79 178.778 1115.62C177.973 1114.45 177.548 1113.05 177.563 1111.63C177.687 1108.22 180.283 1107.22 183.247 1106.62C190.622 1105.12 199.044 1109.61 205.57 1102.28C206.861 1100.83 209.259 1103.74 210.702 1105.49C237.363 1136.82 265.655 1166.73 295.462 1195.09C303.905 1202.58 310.772 1211.68 315.666 1221.85C297.966 1220.55 280.016 1223.41 262.532 1218.59Z" fill="#DAE1B5"/>
<path d="M166.61 237.37C162.811 254.348 158.284 271.166 155.383 288.279C150.897 312.598 147.895 337.168 146.396 361.851C145.143 381.585 147.943 401.366 154.623 419.977C156.115 424.812 157.297 429.737 158.16 434.723C157.292 435.704 156.228 436.495 155.038 437.043C153.847 437.591 152.556 437.885 151.245 437.906C147.789 427.256 144.415 416.574 140.857 405.956C130.061 373.419 127.994 338.62 134.861 305.035C139.026 286.476 141.901 267.651 143.467 248.695C143.796 244.771 144.948 240.96 146.848 237.511C153.439 237.459 160.027 237.412 166.61 237.37Z" fill="#DAE1B5"/>
<path d="M427.331 623.843C454.861 625.399 454.305 625.301 449.311 653.092C440.758 700.68 432.725 748.371 424.923 796.09C411.294 879.411 393.962 961.96 374.154 1044.01C368.346 1068.06 359.585 1091.36 355.553 1115.92C354.618 1120.36 352.791 1124.58 350.182 1128.3C347.572 1132.02 344.235 1135.18 340.371 1137.57C334.868 1141.46 331.002 1139.62 329.785 1132.72C328.276 1126.14 327.41 1119.42 327.199 1112.67C327.705 1089.48 324.288 1066.56 323.011 1043.51C317.614 945.951 320.85 848.319 319.849 750.73C319.463 712.922 324.843 675.35 323.874 637.503C323.52 623.496 326.676 621.523 341.295 621.332C346.374 621.265 351.457 621.226 356.54 621.176L367.055 621.144L380.291 621.179L389.842 621.211L397.814 621.565C399.126 622.838 400.775 623.709 402.566 624.077C404.357 624.445 406.215 624.294 407.923 623.641L414.644 623.843C418.811 624.869 423.164 624.869 427.331 623.843ZM379.386 735.878V736.532C385.551 736.532 391.716 736.652 397.874 736.465C399.972 736.401 402.473 736.27 403.003 733.299C403.112 732.749 403.111 732.184 403 731.635C402.889 731.085 402.67 730.563 402.356 730.099C402.043 729.635 401.64 729.237 401.172 728.929C400.704 728.621 400.179 728.409 399.629 728.305C385.834 724.835 371.838 726.087 357.891 727.244C357.333 727.307 356.794 727.485 356.309 727.768C355.825 728.052 355.405 728.433 355.076 728.889C354.748 729.344 354.518 729.863 354.402 730.413C354.286 730.962 354.287 731.53 354.403 732.079C354.587 733.195 355.182 734.201 356.071 734.9C356.96 735.6 358.079 735.94 359.206 735.856C365.941 735.941 372.665 735.878 379.386 735.878ZM362.475 886.205V886.11C356.837 886.11 351.198 886.014 345.564 886.166C344.726 886.114 343.895 886.349 343.207 886.831C342.52 887.313 342.016 888.014 341.779 888.819C341.603 889.358 341.543 889.929 341.603 890.493C341.663 891.057 341.841 891.602 342.126 892.092C342.412 892.582 342.797 893.007 343.258 893.338C343.719 893.668 344.244 893.898 344.8 894.012C355.781 896.573 367.172 896.849 378.264 894.822C379.395 894.656 380.428 894.089 381.174 893.224C381.92 892.358 382.329 891.253 382.325 890.11C382.291 889.546 382.143 888.995 381.889 888.49C381.636 887.986 381.282 887.538 380.85 887.174C380.418 886.81 379.916 886.538 379.376 886.373C378.835 886.209 378.267 886.157 377.706 886.219C372.63 886.163 367.554 886.198 362.475 886.198V886.205ZM397.846 807.179C398.964 807.179 400.089 807.268 401.199 807.179C404.177 806.903 406.979 805.764 407.255 802.553C407.548 799.178 404.779 797.53 401.861 797.547C393.482 797.47 385.139 796.444 376.991 794.488C376.464 794.306 375.906 794.236 375.35 794.282C374.795 794.328 374.255 794.489 373.766 794.756C373.276 795.022 372.847 795.387 372.507 795.828C372.166 796.269 371.922 796.776 371.788 797.317C371.553 798.429 371.758 799.589 372.36 800.553C372.962 801.517 373.915 802.21 375.018 802.485C382.335 805.25 390.045 806.832 397.86 807.172L397.846 807.179ZM342.54 953.931C352.974 957.521 363.278 960.715 374.374 959.993C374.935 959.927 375.488 959.801 376.022 959.618C378.41 958.911 380.093 957.273 379.616 954.84C379.35 953.485 377.603 951.401 376.499 951.384C365.251 951.217 353.745 948.002 342.554 953.923L342.54 953.931ZM372.025 750.45C363.858 745.964 354.574 743.916 345.277 744.547C344.712 744.526 344.148 744.617 343.618 744.815C343.089 745.013 342.603 745.314 342.19 745.701C341.777 746.087 341.444 746.551 341.211 747.066C340.978 747.582 340.848 748.138 340.831 748.704C340.809 749.266 340.901 749.827 341.102 750.353C341.302 750.879 341.607 751.359 341.998 751.764C342.389 752.17 342.858 752.491 343.376 752.71C343.895 752.93 344.453 753.042 345.016 753.04C354.11 753.609 363.317 754.978 372.039 750.444L372.025 750.45ZM348.68 821.055C357.576 826.29 366.528 826.035 379.046 822.254C374.411 819.762 369.268 818.358 364.009 818.149C358.75 817.94 353.513 818.932 348.694 821.048L348.68 821.055ZM359.999 996.291C359.617 992.492 356.794 991.148 353.243 991.042C350.113 990.943 345.815 989.938 345.274 994.476C344.772 998.562 348.624 999.757 351.888 1000.33C355.153 1000.91 358.658 1001.06 360.02 996.284L359.999 996.291ZM335.285 905.518C344.262 911.998 351.991 909.462 359.27 909.582C360.685 909.603 361.608 908.924 361.361 907.559C361.194 906.664 360.328 905.175 359.794 905.182C352.539 905.267 345.157 902.996 335.313 905.511L335.285 905.518ZM347.357 1024.69C352.663 1028.93 357.01 1030.45 362.11 1025.07C360.986 1021.86 358.722 1021.7 356.504 1021.59C354.847 1021.33 353.152 1021.48 351.564 1022.02C349.976 1022.56 348.54 1023.47 347.378 1024.68L347.357 1024.69Z" fill="#F8B06C"/>
<path d="M150.638 1032.13C144.078 1033.16 137.749 1035.33 131.941 1038.55C129.063 1038.48 126.25 1039.41 123.986 1041.19C114.704 1043.45 105.494 1046.14 96.0992 1047.87C86.6197 1049.61 83.9703 1047.47 82.3963 1037.9C77.462 1007.84 74.5226 977.552 72.4393 947.207C68.842 894.914 65.4819 842.593 62.9635 790.241C61.6088 762.074 62.4399 733.809 61.8739 705.597C61.0427 663.859 59.7517 622.15 58.8852 580.422C58.7118 572.163 56.6143 560.795 66.5855 558.432C78.1165 555.698 77.8511 568.69 81.1618 575.576C110.909 637.419 126.253 704.158 146.164 769.311C159.534 813.058 177.644 855.04 192.146 898.349C202.365 928.842 211.699 959.541 219.382 990.777C223.545 1007.7 222.512 1009.47 205.233 1014.33C197.513 1015.99 190.011 1018.53 182.875 1021.91C179.437 1022.07 176.108 1023.17 173.254 1025.09C167.273 1025.34 161.499 1027.35 156.655 1030.87L150.638 1032.13ZM153.74 920.583C149.471 915.985 146.471 915.695 143.978 916.841C132.077 921.693 119.913 925.876 107.545 929.369C103.884 930.785 100.381 932.58 97.0931 934.725C95.1831 935.846 93.3367 937.508 93.8779 940.073C94.028 940.766 94.3388 941.415 94.7855 941.967C95.2322 942.518 95.8022 942.957 96.4495 943.248C97.0969 943.538 97.8036 943.673 98.5126 943.641C99.2215 943.609 99.9129 943.41 100.531 943.062C117.994 936.143 136.305 931.053 153.74 920.583ZM152.576 945.729C152.205 941.703 149.825 940.119 146.832 940.331C133.235 941.297 120.93 946.85 108.49 951.773C107.989 952.043 107.551 952.417 107.208 952.87C106.864 953.324 106.623 953.846 106.499 954.401C106.376 954.956 106.373 955.531 106.492 956.087C106.611 956.644 106.848 957.168 107.188 957.624C107.842 958.784 110.371 960.1 111.326 959.697C123.749 954.338 137.2 952.909 150.015 949.124C151.236 948.763 151.929 946.631 152.576 945.729ZM107.722 819.988C117.417 817.795 127.742 815.577 137.989 813.037C139.086 812.764 140.05 812.109 140.707 811.19C141.365 810.271 141.674 809.148 141.579 808.022C141.546 807.455 141.388 806.904 141.116 806.406C140.845 805.909 140.466 805.477 140.008 805.143C139.55 804.809 139.023 804.581 138.466 804.474C137.909 804.368 137.336 804.386 136.787 804.527C125.766 805.633 114.865 807.71 104.21 810.734C103.106 810.983 102.139 811.645 101.508 812.585C100.877 813.524 100.63 814.67 100.818 815.786C101.497 818.764 103.867 820.274 107.722 819.988ZM94.9213 776.835C102.095 774.415 108.953 772.173 115.751 769.76C116.838 769.479 117.771 768.783 118.35 767.821C118.929 766.86 119.109 765.71 118.85 764.618C118.761 763.92 118.51 763.254 118.116 762.672C117.722 762.09 117.196 761.609 116.582 761.267C115.968 760.926 115.282 760.734 114.58 760.706C113.878 760.679 113.179 760.817 112.54 761.109C105.674 763.21 98.5078 764.699 92.6044 769.184C91.6299 769.726 90.9041 770.625 90.5795 771.692C90.2549 772.759 90.3568 773.911 90.8641 774.904C91.522 776.032 93.6408 776.28 94.9213 776.839V776.835Z" fill="#F38160"/>
<path d="M151.271 437.906C152.582 437.885 153.873 437.591 155.064 437.042C156.255 436.494 157.318 435.704 158.186 434.723C162.852 435.076 166.743 434.015 168.522 429.099C174.134 428.79 179.604 427.218 184.524 424.5C186.38 424.891 188.305 424.807 190.119 424.255C191.934 423.704 193.581 422.703 194.905 421.345C203.235 420.044 211.53 418.569 219.895 417.49C226.297 416.666 230.948 418.455 231.458 426.12C232.243 437.895 235.483 449.37 234.906 461.375C234.706 472.068 235.527 482.756 237.358 493.293C240.863 517.77 242.363 542.523 245.253 567.099C248.864 597.801 253.105 628.433 256.985 659.103C264.544 718.863 277.147 777.706 288.352 836.826C292.625 859.392 293.244 882.656 295.395 905.616C296.223 911.826 295.145 918.142 292.303 923.726C288.101 931.415 281.692 932.07 276.57 924.953C273.041 919.847 269.888 914.491 267.137 908.926C237.379 851.271 208.244 793.355 185.054 732.608C174.542 705.057 169.703 676.131 161.943 647.926C149.395 602.318 137.185 556.619 125.312 510.827C120.972 493.976 118.691 476.606 114.743 459.638C113.329 453.473 116.187 451.322 120.65 449.543C127.406 446.852 134.887 446.006 140.936 441.482C142.821 441.83 144.764 441.683 146.575 441.056C148.386 440.43 150.004 439.344 151.271 437.906ZM166.789 539.421C177.074 536.057 189.292 537.189 200.275 532.542C207.483 529.489 214.497 525.959 221.455 522.362C222.108 522.087 222.692 521.67 223.163 521.141C223.635 520.612 223.982 519.985 224.18 519.305C224.378 518.624 224.422 517.909 224.308 517.209C224.193 516.51 223.924 515.845 223.52 515.263C222.911 514.295 221.955 513.595 220.847 513.307C219.74 513.019 218.564 513.165 217.56 513.714C200.282 522.305 181.354 525.17 162.884 529.613C159.983 530.32 157.27 531.753 157.822 535.078C158.54 539.383 162.374 539.28 166.789 539.407V539.421ZM174.369 510.958C188.92 514.849 201.76 512.419 214.547 508.818C215.615 508.486 216.606 507.946 217.465 507.23C218.935 506.374 220.038 505.005 220.56 503.386C221.082 501.767 220.988 500.012 220.295 498.458C218.813 495.561 215.65 495.72 212.92 496.856C203.506 500.4 193.661 502.672 183.646 503.611C181.559 503.812 179.573 504.611 177.928 505.911C176.282 507.212 175.047 508.959 174.369 510.944V510.958ZM223.382 621.037C223.272 620.483 223.047 619.959 222.721 619.498C222.395 619.038 221.975 618.651 221.49 618.364C221.004 618.076 220.464 617.894 219.903 617.829C219.342 617.764 218.774 617.818 218.236 617.988C205.032 620.751 192.075 624.591 179.497 629.469C176.823 630.459 174.429 632.653 175.798 635.925C176.319 636.943 177.187 637.741 178.246 638.175C179.305 638.609 180.484 638.65 181.57 638.291C194.884 634.099 208.134 629.696 221.345 625.204C222.142 624.883 222.791 624.277 223.168 623.505C223.544 622.733 223.621 621.848 223.382 621.023V621.037ZM203.373 717.384C219.29 721.954 230.609 717.448 241.722 712.223C242.792 711.817 243.657 711.002 244.128 709.958C244.598 708.915 244.635 707.727 244.23 706.656C243.615 705.008 242.32 703.65 240.424 704.233C228.982 707.774 216.011 706.886 203.373 717.384ZM190.548 653.225C197.777 651.909 203.865 651.042 209.811 649.585C210.922 649.347 211.896 648.683 212.523 647.735C213.151 646.788 213.382 645.632 213.167 644.516C212.644 641.552 210.094 641.439 208.031 641.425C201.859 640.935 195.654 641.809 189.858 643.985C186.791 645.365 183.098 646.522 184.655 650.978C185.903 654.53 188.991 653.638 190.558 653.231L190.548 653.225ZM262.033 795.898C261.449 792.689 259.38 790.967 257.226 791.575C249.716 793.698 241.818 795.445 236.615 802.049C235.6 803.333 235.964 805.901 237.874 806.184C246.151 807.418 253.055 803.354 259.928 799.636C261.113 799.014 261.498 796.931 262.043 795.908L262.033 795.898ZM185.482 550.934C194.427 554.609 204.453 554.647 213.425 551.041C213.962 550.898 214.465 550.65 214.905 550.31C215.344 549.97 215.711 549.545 215.984 549.061C216.256 548.577 216.429 548.044 216.492 547.492C216.555 546.94 216.507 546.381 216.351 545.848C215.971 544.811 215.213 543.955 214.229 543.452C213.246 542.949 212.109 542.836 211.045 543.135C202.082 543.956 193.384 546.614 185.493 550.942L185.482 550.934ZM231.242 723.546V723.609C229.035 723.609 226.821 723.486 224.624 723.641C221.681 723.843 218.908 725.056 218.703 728.215C218.494 731.508 221.211 732.962 224.15 733.057C228.007 733.178 231.868 733.035 235.706 732.629C238.578 732.325 241.252 730.931 240.82 727.511C240.389 724.091 237.4 723.684 234.553 723.553C233.463 723.503 232.356 723.546 231.253 723.546H231.242ZM261.881 827.183C261.806 824.728 260.929 822.858 258.397 822.398C257.604 822.172 256.774 822.106 255.955 822.202C255.136 822.299 254.345 822.557 253.626 822.961C252.908 823.365 252.276 823.907 251.769 824.557C251.261 825.206 250.887 825.95 250.668 826.745C249.96 829.012 251.464 830.862 254.078 831.198C257.625 831.633 260.628 831.011 261.891 827.176L261.881 827.183Z" fill="#F8B06C"/>
<path d="M367.044 621.152L356.528 621.184C356.741 608.765 349.981 602.911 338.231 601.73C335.988 601.5 333.757 601.136 331.51 600.825C327.62 600.28 322.533 600.092 323.959 594.458C325.282 589.233 330.233 591.115 333.986 591.628C335.642 591.862 337.17 592.898 338.839 593.096C343.119 593.613 348.662 595.784 349.734 589.145C350.614 583.687 346.281 581.381 341.531 580.147C336.084 578.732 330.619 577.345 325.239 575.7C324.122 575.488 323.111 574.898 322.376 574.031C321.641 573.163 321.226 572.069 321.2 570.932C321.415 567.126 324.659 566.776 327.411 567.017C330.739 567.307 333.969 568.591 337.293 568.997C344.782 569.914 347.424 565.974 344.474 558.832C343.632 556.425 342.173 554.282 340.244 552.615C338.314 550.948 335.981 549.817 333.477 549.335C329.077 548.394 324.751 547.082 320.425 545.819C319.311 545.616 318.319 544.989 317.659 544.069C316.999 543.149 316.723 542.009 316.888 540.888C317.196 538.101 319.417 537.305 321.723 537.146C326.636 536.792 332.865 543.453 336.155 535.254C338.068 530.482 335.61 525.332 334.358 520.376C332.308 513.922 331.093 507.233 330.743 500.47C330.966 483.081 322.013 473.333 306.545 467.871C302.265 466.361 298.056 464.189 300.355 456.868C305.965 457.034 310.171 461.214 315.094 463.121C318.278 464.355 321.483 466.223 324.404 463.178C325.459 461.836 326.112 460.224 326.288 458.527C326.464 456.83 326.155 455.118 325.398 453.589C323.932 448.687 320.894 444.404 316.754 441.4C311.299 437.41 306.351 432.737 301.045 428.535C298.81 426.767 295.672 425.133 297.734 421.988C300.352 417.991 303.394 420.665 306.361 422.384C311.062 425.108 314.734 429.812 320.793 430.997C325.564 422.862 321.606 417.729 316.711 412.664C311.221 406.983 305.806 401.221 300.617 395.272C300.219 394.862 299.911 394.373 299.712 393.837C299.513 393.301 299.428 392.73 299.461 392.16C299.494 391.589 299.646 391.031 299.905 390.522C300.165 390.013 300.528 389.564 300.971 389.202C303.093 387.434 305.177 388.516 306.8 390.288C311.603 395.548 313.874 403.34 324.192 406.036C327.532 373.441 335.301 341.453 347.286 310.958C349.095 314.484 350.112 318.363 350.264 322.324C350.417 326.284 349.702 330.23 348.17 333.885C335.225 371.341 330.427 411.13 334.096 450.589C337.436 484.209 343.412 517.514 351.969 550.198C357.685 573.699 365.177 596.831 367.044 621.152Z" fill="#90A58F"/>
<path d="M156.645 1030.86C161.489 1027.34 167.263 1025.34 173.244 1025.08C177.075 1047.02 189.692 1065.44 197.65 1085.73C198.832 1088.74 202.227 1090.9 201.226 1094.74C200.763 1095.07 200.363 1095.58 199.928 1095.62C168.473 1098.3 164.033 1094.16 160.475 1058.27C160.193 1053.22 160.177 1048.16 160.429 1043.11C160.457 1038.62 160.914 1034.02 156.645 1030.86Z" fill="#DAE1B5"/>
<path d="M184.53 424.5C179.61 427.218 174.14 428.789 168.528 429.098C164.057 415.845 157.952 403.094 156.647 388.85C155.511 376.47 156.852 365.299 167.919 357.266C169.431 356.486 170.688 355.289 171.541 353.817C172.394 352.344 172.806 350.658 172.73 348.958C172.262 348.275 171.584 347.762 170.8 347.497C170.015 347.233 169.165 347.23 168.379 347.49C164.842 348.268 162.069 354.974 158.535 350.928C154.096 345.842 159.427 341.703 163.017 338.382C166.292 335.354 170.296 333.129 173.752 330.271C176.408 328.078 178.86 325.142 176.21 321.694C173.787 318.535 171.234 321.301 168.987 322.684C167.984 323.508 166.82 324.112 165.569 324.459C164.319 324.805 163.01 324.886 161.726 324.697C160.803 315.553 167.24 311.404 173.582 307.103C174.864 306.486 175.891 305.444 176.49 304.154C177.088 302.863 177.221 301.406 176.865 300.029C175.775 296.439 173.112 296.927 170.119 297.436C160.597 299.053 163.18 291.246 163.937 287.532C167.382 270.653 169.709 253.399 177.416 237.659L181.544 234.079C187.253 238.607 193.061 243.021 198.622 247.722C199.785 248.564 200.601 249.802 200.915 251.203C201.23 252.604 201.022 254.072 200.33 255.33C198.367 258.514 195.657 256.816 193.103 255.401C188.505 252.851 182.492 245.653 178.923 250.828C174.046 257.902 184.165 260.498 188.265 263.809C197.511 271.276 199.067 279.839 196.464 290.758C186.009 334.522 181.989 379.576 184.53 424.5Z" fill="#DAE1B5"/>
<path d="M181.532 234.087L177.404 237.666C177.383 233.935 176.248 229.846 180.655 227.54C180.94 229.721 181.233 231.903 181.532 234.087Z" fill="#FBF4F0"/>
<path d="M153.743 920.573C136.308 931.043 117.997 936.136 100.534 943.051C99.9159 943.4 99.2245 943.599 98.5156 943.631C97.8066 943.663 97.0999 943.528 96.4525 943.238C95.8052 942.947 95.2352 942.508 94.7885 941.957C94.3417 941.405 94.031 940.756 93.8809 940.063C93.3397 937.498 95.186 935.836 97.0961 934.715C100.384 932.57 103.887 930.775 107.548 929.359C119.916 925.866 132.08 921.683 143.981 916.831C146.474 915.685 149.474 915.971 153.743 920.573Z" fill="#F8B06C"/>
<path d="M152.597 945.725C151.95 946.627 151.257 948.76 150.036 949.121C137.222 952.905 123.77 954.334 111.348 959.693C110.385 960.107 107.864 958.781 107.209 957.621C106.87 957.164 106.632 956.64 106.513 956.084C106.394 955.528 106.397 954.953 106.52 954.397C106.644 953.842 106.886 953.32 107.229 952.867C107.573 952.413 108.01 952.039 108.511 951.77C120.951 946.846 133.271 941.293 146.853 940.328C149.846 940.115 152.226 941.7 152.597 945.725Z" fill="#F8B06C"/>
<path d="M107.731 819.993C103.876 820.279 101.52 818.769 100.827 815.791C100.639 814.675 100.886 813.529 101.517 812.589C102.148 811.65 103.115 810.988 104.219 810.739C114.874 807.715 125.775 805.638 136.796 804.532C137.345 804.391 137.919 804.372 138.476 804.479C139.032 804.586 139.559 804.814 140.017 805.148C140.475 805.482 140.854 805.913 141.126 806.411C141.397 806.909 141.555 807.46 141.589 808.026C141.684 809.153 141.375 810.276 140.717 811.195C140.059 812.114 139.095 812.769 137.999 813.042C127.752 815.582 117.423 817.8 107.731 819.993Z" fill="#F8B06C"/>
<path d="M94.9188 776.831C93.6384 776.272 91.5195 776.024 90.8616 774.91C90.3544 773.917 90.2525 772.766 90.5771 771.699C90.9017 770.632 91.6275 769.733 92.6019 769.191C98.5054 764.706 105.672 763.216 112.537 761.115C113.176 760.823 113.875 760.685 114.577 760.712C115.28 760.74 115.966 760.932 116.58 761.274C117.194 761.615 117.719 762.097 118.113 762.679C118.507 763.261 118.759 763.927 118.847 764.624C119.106 765.717 118.927 766.867 118.348 767.828C117.768 768.79 116.835 769.486 115.749 769.767C108.95 772.169 102.092 774.412 94.9188 776.831Z" fill="#F8B06C"/>
<path d="M166.804 539.407C162.39 539.28 158.556 539.382 157.838 535.063C157.286 531.738 159.999 530.295 162.899 529.598C181.37 525.156 200.297 522.291 217.576 513.699C218.58 513.15 219.755 513.005 220.863 513.293C221.97 513.581 222.926 514.28 223.536 515.248C223.94 515.83 224.209 516.495 224.323 517.195C224.437 517.894 224.394 518.61 224.196 519.29C223.998 519.971 223.65 520.598 223.179 521.127C222.707 521.656 222.124 522.073 221.47 522.347C214.513 525.945 207.499 529.474 200.29 532.527C189.307 537.175 177.09 536.043 166.804 539.407Z" fill="#9CA184"/>
<path d="M174.34 510.936C175.017 508.946 176.253 507.195 177.902 505.891C179.55 504.588 181.54 503.788 183.632 503.589C193.647 502.65 203.492 500.378 212.905 496.833C215.636 495.698 218.798 495.538 220.28 498.435C220.973 499.989 221.068 501.744 220.545 503.363C220.023 504.982 218.921 506.352 217.45 507.207C216.592 507.924 215.6 508.463 214.532 508.795C201.731 512.396 188.892 514.841 174.34 510.936Z" fill="#9CA184"/>
<path d="M223.37 621.016C223.603 621.837 223.525 622.715 223.15 623.483C222.776 624.25 222.131 624.851 221.34 625.172C208.128 629.682 194.878 634.085 181.565 638.259C180.478 638.619 179.299 638.578 178.241 638.144C177.182 637.71 176.313 636.912 175.792 635.893C174.423 632.614 176.818 630.428 179.492 629.438C192.069 624.573 205.022 620.744 218.223 617.992C218.76 617.821 219.326 617.765 219.886 617.828C220.446 617.891 220.986 618.071 221.471 618.356C221.957 618.641 222.377 619.026 222.704 619.484C223.031 619.942 223.258 620.464 223.37 621.016Z" fill="#9CA184"/>
<path d="M203.352 717.379C215.979 706.874 228.95 707.762 240.403 704.228C242.299 703.645 243.586 705.003 244.209 706.651C244.613 707.722 244.576 708.91 244.106 709.953C243.636 710.997 242.771 711.812 241.701 712.218C230.587 717.45 219.269 721.956 203.352 717.379Z" fill="#9CA184"/>
<path d="M190.551 653.229C188.984 653.636 185.896 654.527 184.658 650.983C183.102 646.526 186.78 645.37 189.861 643.99C195.658 641.814 201.863 640.939 208.035 641.429C210.097 641.429 212.633 641.556 213.171 644.52C213.386 645.636 213.154 646.792 212.527 647.74C211.899 648.688 210.926 649.352 209.814 649.589C203.868 651.047 197.781 651.913 190.551 653.229Z" fill="#9CA184"/>
<path d="M262.034 795.911C261.49 796.937 261.104 799.02 259.912 799.65C253.04 803.353 246.135 807.431 237.858 806.197C235.948 805.914 235.584 803.346 236.599 802.062C241.802 795.458 249.687 793.721 257.21 791.589C259.382 790.977 261.451 792.699 262.034 795.911Z" fill="#9CA184"/>
<path d="M185.473 550.946C193.363 546.628 202.057 543.979 211.014 543.164C212.078 542.865 213.215 542.978 214.199 543.481C215.182 543.984 215.94 544.84 216.32 545.877C216.476 546.41 216.525 546.969 216.462 547.521C216.398 548.073 216.225 548.606 215.953 549.09C215.68 549.574 215.313 549.999 214.874 550.339C214.435 550.678 213.932 550.927 213.395 551.069C204.426 554.664 194.409 554.62 185.473 550.946Z" fill="#88A08A"/>
<path d="M231.234 723.545C232.338 723.545 233.445 723.503 234.545 723.545C237.393 723.676 240.381 724.101 240.813 727.503C241.245 730.906 238.57 732.317 235.698 732.622C231.861 733.028 228 733.171 224.143 733.05C221.203 732.954 218.483 731.5 218.695 728.207C218.9 725.024 221.674 723.835 224.616 723.634C226.813 723.478 229.027 723.602 231.234 723.602V723.545Z" fill="#9CA184"/>
<path d="M261.874 827.175C260.611 831.01 257.608 831.643 254.071 831.19C251.457 830.836 249.947 829.004 250.661 826.737C250.88 825.942 251.254 825.198 251.762 824.549C252.27 823.899 252.901 823.357 253.62 822.953C254.338 822.548 255.13 822.291 255.949 822.194C256.767 822.097 257.597 822.164 258.39 822.39C260.923 822.849 261.8 824.721 261.874 827.175Z" fill="#9CA184"/>
</svg>
