<svg width="1920" height="911" viewBox="0 0 1920 911" fill="none" xmlns="http://www.w3.org/2000/svg">
<path d="M-528.515 41.9346L-479.707 32.7107C-431.064 23.3493 -333.449 4.9015 -236.532 1.19715C-139.448 -2.50496 -42.8998 8.80927 54.0164 17.5568C150.766 26.3021 248.05 32.483 344.769 43.5288C441.654 54.5769 538.144 70.2214 635.26 64.0834C732.21 57.9433 829.953 30.0229 926.737 36.1971C1023.69 42.5089 1119.84 83.0527 1216.86 84.3576C1313.71 85.6601 1411.58 47.7259 1508.57 39.2853C1605.71 30.9822 1702.13 52.0396 1799.08 58.3514C1895.86 64.6609 1993.34 55.9564 2090.42 40.2083C2187.67 24.3272 2284.68 1.26945 2381.6 9.74635C2478.35 18.3563 2575.18 58.3679 2623.43 78.5067L2671.84 98.5125L2666.69 481.475L2618.15 471.077C2569.77 460.817 2472.68 440.021 2375.89 433.982C2278.94 427.941 2182.12 436.655 2085.01 442.522C1988.07 448.391 1890.65 451.683 1793.71 457.553C1696.59 463.42 1599.78 472.133 1502.73 473.264C1405.85 474.398 1308.56 468.217 1211.91 452.164C1115.09 436.244 1018.74 410.586 921.783 404.545C824.997 398.506 727.447 412.082 630.303 432.702C532.993 453.184 435.921 480.842 338.875 481.703C241.995 482.701 144.973 457.033 48.2197 448.559C-48.6984 439.947 -145.516 448.66 -242.532 447.355C-339.382 446.053 -436.597 434.729 -485.04 429.205L-533.647 423.544L-528.515 41.9346Z" fill="#FFF2EC"/>
<rect width="1920" height="486" transform="translate(0 204)" fill="#FFF2EC"/>
<path d="M2598 844.326L2548.62 849.897C2499.41 855.572 2400.64 866.714 2302.39 872.39C2203.96 877.96 2105.88 877.96 2007.45 874.282C1909.2 870.603 1810.43 863.245 1712.18 867.134C1613.75 870.918 1515.67 886.054 1417.24 895.514C1318.99 904.973 1220.22 908.757 1121.97 908.757C1023.54 908.757 925.457 904.973 827.032 895.514C728.777 886.054 630.014 870.918 531.758 867.134C433.333 863.245 335.247 870.603 236.822 880.063C138.567 889.522 39.8037 901.084 -58.4519 906.865C-156.876 912.646 -254.963 912.646 -353.387 905.078C-451.643 897.616 -550.406 882.48 -599.618 875.017L-649 867.45V673H-599.618C-550.406 673 -451.643 673 -353.387 673C-254.963 673 -156.876 673 -58.4519 673C39.8037 673 138.567 673 236.822 673C335.247 673 433.333 673 531.758 673C630.014 673 728.777 673 827.032 673C925.457 673 1023.54 673 1121.97 673C1220.22 673 1318.99 673 1417.24 673C1515.67 673 1613.75 673 1712.18 673C1810.43 673 1909.2 673 2007.45 673C2105.88 673 2203.96 673 2302.39 673C2400.64 673 2499.41 673 2548.62 673H2598V844.326Z" fill="#FFF2EC"/>
</svg>
