<svg width="1920" height="579" viewBox="0 0 1920 579" fill="none" xmlns="http://www.w3.org/2000/svg">
<g clip-path="url(#clip0_237_2620)">
<path d="M2448.51 541.065L2399.71 550.289C2351.06 559.651 2253.45 578.098 2156.53 581.803C2059.45 585.505 1962.9 574.191 1865.98 565.443C1769.23 556.698 1671.95 550.517 1575.23 539.471C1478.35 528.423 1381.86 512.779 1284.74 518.917C1187.79 525.057 1090.05 552.977 993.263 546.803C896.314 540.491 800.159 499.947 703.143 498.642C606.293 497.34 508.415 535.274 411.435 543.715C314.289 552.018 217.872 530.96 120.923 524.649C24.1408 518.339 -73.3437 527.044 -170.423 542.792C-267.67 558.673 -364.68 581.731 -461.6 573.254C-558.352 564.644 -655.181 524.632 -703.427 504.493L-751.842 484.488L-746.691 101.525L-698.147 111.923C-649.769 122.183 -552.681 142.979 -455.895 149.018C-358.942 155.059 -262.125 146.345 -165.012 140.478C-68.0656 134.609 29.3461 131.317 126.292 125.447C223.405 119.58 320.222 110.867 417.271 109.736C514.154 108.602 611.438 114.783 708.089 130.836C804.909 146.756 901.264 172.414 998.217 178.455C1095 184.494 1192.55 170.918 1289.7 150.298C1387.01 129.816 1484.08 102.158 1581.12 101.297C1678.01 100.299 1775.03 125.967 1871.78 134.441C1968.7 143.053 2065.52 134.34 2162.53 135.645C2259.38 136.947 2356.6 148.271 2405.04 153.795L2453.65 159.456L2448.51 541.065Z" fill="#FFF2EC"/>
</g>
<rect width="1920" height="164" transform="translate(0 215)" fill="#FFF2EC"/>
<path d="M2932 66.6741L2882.62 61.1033C2833.41 55.4275 2734.64 44.2861 2636.39 38.6102C2537.96 33.0395 2439.88 33.0395 2341.45 36.7183C2243.2 40.3971 2144.43 47.7546 2046.18 43.8656C1947.75 40.0818 1849.67 24.9462 1751.24 15.4865C1652.99 6.02678 1554.22 2.24289 1455.97 2.24289C1357.54 2.24289 1259.46 6.02678 1161.03 15.4865C1062.78 24.9462 964.014 40.0818 865.758 43.8656C767.333 47.7546 669.247 40.3971 570.822 30.9374C472.567 21.4776 373.804 9.91577 275.548 4.13484C177.124 -1.6461 79.0371 -1.6461 -19.3875 5.92166C-117.643 13.3843 -216.406 28.5199 -265.618 35.9825L-315 43.5503V238H-265.618C-216.406 238 -117.643 238 -19.3875 238C79.0371 238 177.124 238 275.548 238C373.804 238 472.567 238 570.822 238C669.247 238 767.333 238 865.758 238C964.014 238 1062.78 238 1161.03 238C1259.46 238 1357.54 238 1455.97 238C1554.22 238 1652.99 238 1751.24 238C1849.67 238 1947.75 238 2046.18 238C2144.43 238 2243.2 238 2341.45 238C2439.88 238 2537.96 238 2636.39 238C2734.64 238 2833.41 238 2882.62 238H2932V66.6741Z" fill="#FFF2EC"/>
<defs>
<clipPath id="clip0_237_2620">
<rect width="1920" height="200" fill="white" transform="translate(0 379)"/>
</clipPath>
</defs>
</svg>
