<svg width="370" height="116" viewBox="0 0 370 116" fill="none" xmlns="http://www.w3.org/2000/svg">
<g clip-path="url(#clip0_946_4069)">
<path d="M25.3473 61.7304C23.1936 67.9362 16.1933 68.9979 15.1494 69.156C13.938 69.3382 9.92499 69.9471 7.81102 67.5834C6.68554 66.3266 6.07061 64.1992 6.77081 63.4172C7.03966 63.1187 7.30212 63.2403 8.55067 62.745C9.62352 62.3208 10.2785 62.0604 10.3679 61.6028C10.4063 61.4186 10.3866 61.0106 9.06249 59.9843C7.04548 58.4161 6.15274 58.6489 5.54491 57.6915C4.64059 56.2799 5.61746 54.2765 5.68836 54.1346C6.45432 52.612 8.0382 51.7966 9.39654 51.6527C11.9317 51.386 14.0167 53.4211 14.2988 53.038C14.4656 52.8112 13.6265 52.1987 13.1044 50.752C12.8751 50.124 12.4825 49.0403 12.8962 48.1671C13.4501 46.9965 15.1779 46.7866 15.6129 46.7315C18.7696 46.3511 21.8906 49.0311 23.4785 51.2207C24.0319 51.9862 27.1584 56.4956 25.3457 61.7168L25.3473 61.7304Z" fill="#FCC195"/>
<path opacity="0.3" d="M25.3473 61.7304C23.1936 67.9362 16.1933 68.9979 15.1494 69.156C13.938 69.3382 9.92499 69.9471 7.81102 67.5834C6.68554 66.3266 6.07061 64.1992 6.77081 63.4172C7.03966 63.1187 7.30212 63.2403 8.55067 62.745C9.62352 62.3208 10.2785 62.0604 10.3679 61.6028C10.4063 61.4186 10.3866 61.0106 9.06249 59.9843C7.04548 58.4161 6.15274 58.6489 5.54491 57.6915C4.64059 56.2799 5.61746 54.2765 5.68836 54.1346C6.45432 52.612 8.0382 51.7966 9.39654 51.6527C11.9317 51.386 14.0167 53.4211 14.2988 53.038C14.4656 52.8112 13.6265 52.1987 13.1044 50.752C12.8751 50.124 12.4825 49.0403 12.8962 48.1671C13.4501 46.9965 15.1779 46.7866 15.6129 46.7315C18.7696 46.3511 21.8906 49.0311 23.4785 51.2207C24.0319 51.9862 27.1584 56.4956 25.3457 61.7168L25.3473 61.7304Z" fill="#A75B48"/>
<path d="M101.227 43.5297C102.789 42.8044 102.643 39.0138 102.47 34.5533C102.436 33.6261 102.283 30.7673 101.285 27.1632C100.556 24.5282 99.7098 22.7042 98.7281 20.5871C97.5517 18.0593 96.5083 15.8065 94.607 13.2154C92.2185 9.95249 91.9896 10.9517 89.5475 7.58441C88.3438 5.93102 87.3304 4.21404 85.1005 3.03014C84.3457 2.62915 83.2597 2.06842 82.593 2.50538C81.7338 3.06612 82.146 4.91283 82.5486 7.74712C83.2466 12.6491 82.659 11.7078 83.2892 15.5114C83.2892 15.5114 84.1539 20.7398 85.8986 25.3497C89.5201 34.9137 98.2507 44.9125 101.231 43.5292L101.227 43.5297Z" fill="#FCC195"/>
<path opacity="0.3" d="M101.23 43.5293C102.793 42.8039 102.647 39.0133 102.474 34.5528C102.44 33.6256 102.287 30.7669 101.289 27.1627C100.56 24.5277 99.7137 22.7037 98.732 20.5866C97.5556 18.0588 96.5122 15.806 94.6109 13.2149C92.2224 9.952 91.9935 10.9512 89.5514 7.58392C88.3477 5.93053 87.3344 4.21355 85.1044 3.02965C84.3497 2.62866 83.2636 2.06793 82.5969 2.50489C81.7377 3.06563 82.1499 4.91235 82.5526 7.74663C83.2505 12.6486 82.6629 11.7073 83.2931 15.5109C83.2931 15.5109 84.1578 20.7393 85.9025 25.3492C89.524 34.9132 98.2546 44.912 101.235 43.5287L101.23 43.5293Z" fill="#A75B48"/>
<path d="M85.2477 66.1612C86.5185 66.7281 86.8489 67.3167 89.9395 71.1203C94.306 76.486 96.4892 79.1689 97.4755 79.6629C98.1199 79.9845 99.7056 80.69 100.42 82.285C100.568 82.6135 100.954 83.4768 100.662 84.3727C100.029 86.3269 96.7782 86.5292 96.586 86.5377C95.3151 86.6023 94.3809 86.2406 92.7804 85.6059C90.8851 84.8488 89.5398 83.9955 88.9577 83.6159C87.6131 82.7302 84.9996 81.0147 82.4989 78.0138C81.1521 76.3954 75.739 69.8974 77.7253 66.924C78.9477 65.0949 82.7058 65.0227 85.2381 66.1577L85.2477 66.1612Z" fill="#FCC195"/>
<path opacity="0.3" d="M85.2477 66.1612C86.5185 66.7281 86.8489 67.3167 89.9395 71.1203C94.306 76.486 96.4892 79.1689 97.4755 79.6629C98.1199 79.9845 99.7056 80.69 100.42 82.285C100.568 82.6135 100.954 83.4768 100.662 84.3727C100.029 86.3269 96.7782 86.5292 96.586 86.5377C95.3151 86.6023 94.3809 86.2406 92.7804 85.6059C90.8851 84.8488 89.5398 83.9955 88.9577 83.6159C87.6131 82.7302 84.9996 81.0147 82.4989 78.0138C81.1521 76.3954 75.739 69.8974 77.7253 66.924C78.9477 65.0949 82.7058 65.0227 85.2381 66.1577L85.2477 66.1612Z" fill="#A75B48"/>
<path d="M48.8678 71.1366C52.1409 71.5218 55.2953 74.0135 56.1692 76.747C56.4728 77.6982 56.4236 78.423 57.0913 80.134C57.7729 81.8849 58.2182 83.0271 59.3215 83.8947C60.6983 84.9794 61.8332 84.654 62.5059 85.8528C62.5696 85.9653 63.056 86.8676 62.724 87.7313C62.2935 88.8553 60.7615 89.1669 59.9521 89.3254C57.977 89.7023 56.4198 89.2423 53.8307 88.4505C50.0536 87.2895 48.1648 86.7067 47.913 86.5977C45.0096 85.3168 38.903 82.6285 38.8474 78.5462C38.795 74.7678 43.9406 70.5655 48.8633 71.1371L48.8678 71.1366Z" fill="#FCC195"/>
<path opacity="0.3" d="M48.8678 71.1366C52.1409 71.5218 55.2953 74.0135 56.1692 76.747C56.4728 77.6982 56.4236 78.423 57.0913 80.134C57.7729 81.8849 58.2182 83.0271 59.3215 83.8947C60.6983 84.9794 61.8332 84.654 62.5059 85.8528C62.5696 85.9653 63.056 86.8676 62.724 87.7313C62.2935 88.8553 60.7615 89.1669 59.9521 89.3254C57.977 89.7023 56.4198 89.2423 53.8307 88.4505C50.0536 87.2895 48.1648 86.7067 47.913 86.5977C45.0096 85.3168 38.903 82.6285 38.8474 78.5462C38.795 74.7678 43.9406 70.5655 48.8633 71.1371L48.8678 71.1366Z" fill="#A75B48"/>
<path d="M49.2443 90.5825C47.3651 91.4691 45.485 90.8023 42.1686 89.5694C39.1116 88.4309 36.3482 87.4057 33.567 84.8799C32.0915 83.5392 32.4284 83.4309 28.7166 79.386C26.0895 76.5242 25.9954 76.6642 25.1608 75.5764C24.6844 74.9587 23.215 72.9582 21.4426 67.199C20.4163 63.8656 19.5213 60.9502 19.1387 56.8228C18.6346 51.3728 18.3357 48.1254 20.1224 44.7788C20.6285 43.8304 22.3889 41.842 25.9097 37.8653C27.951 35.5632 28.9711 34.4075 29.4849 33.9607C32.6137 31.2418 35.932 30.4324 40.4911 29.3775C45.4039 28.2401 48.8842 27.4396 53.3612 28.2519C55.48 28.6374 57.8033 29.6353 62.356 31.6143C66.7873 33.5383 69.0558 34.3812 71.4559 35.8819C75.5853 38.454 75.3208 39.3836 78.0283 40.4429C80.981 41.5936 83.5289 41.3576 87.7918 40.9594C94.3252 40.3529 95.2507 38.9363 99.1767 39.6375C101.999 40.1441 104.196 41.3549 105.699 42.1853C107.07 42.9434 106.746 42.9211 111.909 46.7884C115.288 49.3185 116.5 50.132 117.459 52.0166C117.865 52.8177 118.437 53.936 118.399 55.397C118.346 57.7126 116.82 58.9454 114.397 61.9189C110.556 66.6287 111.481 67.1068 109.031 69.332C107.359 70.8537 106.346 71.1603 101.46 73.5162C93.5685 77.3228 94.5567 77.3186 91.0818 78.7593C85.4704 81.0888 80.8251 81.9555 77.7849 82.5067C70.6365 83.7977 67.0605 84.448 62.7041 83.5249C56.0188 82.1115 53.1095 81.3338 53.1095 81.3338C52.7301 81.235 51.3613 81.0113 48.6241 80.5685C46.2758 80.1866 45.408 80.08 44.7884 80.6451C44.1186 81.253 43.887 82.5061 44.3611 83.2623C44.9202 84.1562 46.0723 83.7413 48.1621 84.4713C49.1209 84.8071 51.517 85.6398 51.7732 87.1727C51.9933 88.4747 50.6051 89.9451 49.2402 90.5876L49.2443 90.5825Z" fill="#FCC195"/>
<mask id="mask0_946_4069" style="mask-type:luminance" maskUnits="userSpaceOnUse" x="18" y="27" width="101" height="64">
<path d="M49.2443 90.5825C47.3651 91.4691 45.485 90.8023 42.1686 89.5694C39.1116 88.4309 36.3482 87.4057 33.567 84.8799C32.0915 83.5392 32.4284 83.4309 28.7166 79.386C26.0895 76.5242 25.9954 76.6642 25.1608 75.5764C24.6844 74.9587 23.215 72.9582 21.4426 67.199C20.4163 63.8656 19.5213 60.9502 19.1387 56.8228C18.6346 51.3728 18.3357 48.1254 20.1224 44.7788C20.6285 43.8304 22.3889 41.842 25.9097 37.8653C27.951 35.5632 28.9711 34.4075 29.4849 33.9607C32.6137 31.2418 35.932 30.4324 40.4911 29.3775C45.4039 28.2401 48.8842 27.4396 53.3612 28.2519C55.48 28.6374 57.8033 29.6353 62.356 31.6143C66.7873 33.5383 69.0558 34.3812 71.4559 35.8819C75.5853 38.454 75.3208 39.3836 78.0283 40.4429C80.981 41.5936 83.5289 41.3576 87.7918 40.9594C94.3252 40.3529 95.2507 38.9363 99.1767 39.6375C101.999 40.1441 104.196 41.3549 105.699 42.1853C107.07 42.9434 106.746 42.9211 111.909 46.7884C115.288 49.3185 116.5 50.132 117.459 52.0166C117.865 52.8177 118.437 53.936 118.399 55.397C118.346 57.7126 116.82 58.9454 114.397 61.9189C110.556 66.6287 111.481 67.1068 109.031 69.332C107.359 70.8537 106.346 71.1603 101.46 73.5162C93.5685 77.3228 94.5567 77.3186 91.0818 78.7593C85.4704 81.0888 80.8251 81.9555 77.7849 82.5067C70.6365 83.7977 67.0605 84.448 62.7041 83.5249C56.0188 82.1115 53.1095 81.3338 53.1095 81.3338C52.7301 81.235 51.3613 81.0113 48.6241 80.5685C46.2758 80.1866 45.408 80.08 44.7884 80.6451C44.1186 81.253 43.887 82.5061 44.3611 83.2623C44.9202 84.1562 46.0723 83.7413 48.1621 84.4713C49.1209 84.8071 51.517 85.6398 51.7732 87.1727C51.9933 88.4747 50.6051 89.9451 49.2402 90.5876L49.2443 90.5825Z" fill="white"/>
</mask>
<g mask="url(#mask0_946_4069)">
<path d="M121.46 55.0141C118.271 52.6232 112.093 51.8977 107.086 52.894C103.674 53.5759 101.206 54.9734 99.4826 55.971C96.0523 57.955 93.9541 60.084 89.9006 64.2655C84.8942 69.4288 84.9572 70.2881 81.9114 72.5732C78.2058 75.3544 74.7545 76.6034 73.0933 77.1881C71.4894 77.7523 66.1288 79.5087 58.1917 79.1166C47.0952 78.5658 45.4357 74.5314 39.9281 76.0514C33.7474 77.7555 28.0998 84.9616 28.8944 90.696C30.2609 100.563 50.453 104.354 58.3135 105.829C71.5287 108.31 100.423 113.736 116.066 95.9335C127.358 83.0797 129.313 60.9015 121.464 55.0136L121.46 55.0141Z" fill="#F1F1F1"/>
<path d="M47.1044 45.7851C49.581 46.4794 51.0853 49.3747 52.1324 51.3828C53.9022 54.7821 53.9576 57.8733 54.0144 60.7386C54.0652 63.4339 54.3617 68.1659 52.7928 71.962C51.5966 74.8483 50.527 75.0232 46.5605 78.9641C45.1005 80.4105 44.7179 81.3538 45.0115 82.0204C45.8647 83.9818 50.5525 82.1745 53.0843 84.6509C54.999 86.526 55.2605 90.4415 53.6898 92.6383C50.7689 96.7113 42.0606 94.1131 39.5363 93.3644C37.6309 92.7974 34.1196 91.7069 30.7619 88.5336C29.8315 87.6505 27.0717 84.8733 25.7472 80.9521C23.0967 73.0962 27.8185 65.4029 31.3017 59.7158C32.8019 57.269 40.9104 44.0473 47.1039 45.7805L47.1044 45.7851Z" fill="#FCC195"/>
<path d="M50.4826 49.3476C50.3017 50.1661 51.3634 50.9924 51.8872 51.5032C54.0117 53.5614 54.6629 57.6252 54.7395 60.82C54.8063 63.7717 54.1828 66.006 53.9328 66.8233C53.4486 68.3961 52.8096 69.5859 51.5274 71.9704C50.06 74.6992 49.3259 76.0613 48.5234 76.952C46.821 78.846 44.5427 79.0275 44.1214 81.1416C44.1042 81.2312 43.8933 82.3067 44.1537 82.4101C44.4242 82.5216 45.0171 81.4893 45.5782 80.7373C47.0627 78.7488 48.4069 78.6019 49.9203 77.3383C51.1615 76.3045 51.914 74.4286 53.4236 70.6762C54.6578 67.6011 55.2794 66.0631 55.517 63.8321C55.7859 61.3162 55.4539 59.368 55.1142 57.393C54.6757 54.8441 54.0837 53.3502 53.4117 51.6811C52.2383 48.7842 51.6362 48.5499 51.316 48.564C50.9362 48.5805 50.5714 48.9639 50.4836 49.3567L50.4826 49.3476Z" fill="#F1F1F1"/>
<path d="M112.478 58.8137C112.551 59.045 112.882 60.0805 113.842 60.4254C113.957 60.4673 114.013 60.4747 114.963 60.4935C116.512 60.5257 116.874 60.5159 117.091 60.2464C117.236 60.0682 117.302 59.8024 117.21 59.684C117.178 59.6463 117.107 59.59 116.433 59.6912C116.275 59.7142 115.991 59.761 115.669 59.803C115.293 59.8513 115.183 59.8548 115.12 59.7838C115.02 59.6756 115.1 59.4542 115.148 59.315C115.469 58.4387 115.63 57.996 115.645 57.9712C116.365 56.6061 115.945 55.5993 116.654 55.2127C116.788 55.1418 117 55.0665 117.18 55.0272C117.569 54.9313 117.848 54.9588 118.101 54.9617C118.534 54.9713 119.654 54.9934 119.826 54.5724C119.894 54.4032 119.802 54.1695 119.661 54.0614C119.47 53.9177 119.216 54.0301 118.726 54.17C117.92 54.3972 117.367 54.5444 116.893 54.3413C116.767 54.2868 116.632 54.155 116.358 53.8964C116.115 53.6619 115.807 53.3427 115.287 52.6701C114.713 51.9209 114.554 51.6259 114.189 51.5714C114.049 51.5509 113.796 51.5525 113.72 51.6904C113.655 51.804 113.739 51.9695 113.834 52.1197C114.142 52.628 114.525 52.9569 114.638 53.059C115.35 53.6907 115.71 54.0177 115.831 54.4601C115.889 54.6838 115.881 54.8507 115.867 55.1334C115.839 55.6807 115.684 56.049 115.42 56.7066C114.991 57.7659 114.773 58.3029 114.753 58.4112C114.617 59.1784 114.764 59.7329 114.459 59.879C114.29 59.9632 114.072 59.8686 114.014 59.8477C113.864 59.7821 113.731 59.6639 113.527 59.2912C113.176 58.6451 113.226 58.3673 112.933 58.1755C112.793 58.0856 112.573 58.0144 112.46 58.1059C112.296 58.2356 112.425 58.64 112.483 58.8178L112.478 58.8137Z" fill="#020202"/>
</g>
<path d="M94.6983 44.9425C93.3433 45.6299 92.0572 43.6634 83.5309 38.7116C82.1455 37.909 80.9013 37.2146 78.6271 35.8468C73.41 32.7003 72.4498 31.7977 71.8874 31.2315C70.4166 29.7335 69.6611 28.4153 68.154 25.7738C66.7107 23.2447 66.0803 21.5386 65.0554 18.7719C63.809 15.4041 63.8781 14.7323 64.2083 14.2883C65.0033 13.2141 67.219 13.6022 69.4005 14.0127C73.453 14.7729 76.3765 16.2266 77.0406 16.5598C82.9227 19.5322 86.1179 21.148 89.4179 24.7752C90.7777 26.2676 93.1729 28.9535 94.6371 33.1673C96.0758 37.3195 96.9046 43.8243 94.6978 44.9379L94.6983 44.9425Z" fill="#FCC195"/>
<path d="M77.1748 71.1913C78.0858 71.9476 77.9075 72.1942 80.1527 75.9254C83.0035 80.6743 84.4329 83.0436 86.0797 84.2353C88.0773 85.6766 89.7925 85.9523 90.1647 87.5732C90.3887 88.552 90.03 89.6217 89.4242 90.3051C87.753 92.1909 84.117 91.1749 82.9428 90.8456C81.7924 90.5228 80.1647 89.8913 77.1687 87.4964C74.7103 85.5324 71.5859 82.9819 68.9458 78.5036C66.9644 75.1427 65.4985 72.6578 66.4876 70.9572C67.9056 68.5154 73.9129 68.4862 77.1799 71.1954L77.1748 71.1913Z" fill="#FCC195"/>
<path d="M91.6822 35.6119C90.2764 33.1291 90.5804 31.8262 88.3422 28.6703C86.2362 25.7019 83.9522 24.0126 82.1945 22.737C81.4111 22.1688 79.7896 21.2738 76.551 19.4833C73.9561 18.0467 71.0743 17.4272 69.5282 17.1826C69.0971 17.1128 68.7999 17.6037 69.0616 17.9559C69.968 19.1874 70.3519 23.1671 71.5388 24.2002C74.358 26.657 74.2331 26.8882 77.4241 30.6064C79.1579 32.627 79.3004 31.5963 83.018 35.2949C84.8588 37.1279 86.9776 38.5828 87.2298 38.3783C87.3308 38.2975 87.0412 37.506 86.4578 35.9281C86.244 35.3536 86.0588 34.8681 86.2616 34.674C86.4067 34.5373 86.7016 34.5814 86.8979 34.6877C87.2707 34.8887 87.2673 35.2947 87.5323 35.9139C87.895 36.7799 88.491 37.3976 88.5644 37.3568C88.5815 37.3456 88.5757 37.2955 88.3377 36.6317C87.9635 35.5873 87.907 35.497 87.8516 35.4159C87.631 35.1004 87.4891 35.0662 87.3998 34.7723C87.3915 34.741 87.2477 34.2552 87.4644 34.101C87.6343 33.9799 87.9242 34.1398 87.9631 34.1583C88.2874 34.3373 88.3425 34.6536 88.5262 35.0472C88.8629 35.7686 89.432 36.3525 89.5623 36.2867C89.68 36.2315 89.503 35.6574 89.4794 35.5726C89.4121 35.3499 89.2504 34.9077 88.7432 34.183C88.3854 33.676 88.2238 33.5519 88.2686 33.3438C88.3253 33.0791 88.6808 32.8534 88.9414 32.92C89.1738 32.9806 89.253 33.2664 89.5005 34.0121C89.8244 34.9794 89.9919 35.4716 90.1529 35.6696C90.6839 36.3224 91.6746 36.5762 91.8721 36.3366C92.0049 36.1736 91.7809 35.7894 91.6822 35.6119Z" fill="#F05964"/>
<path d="M96.1696 49.0214C95.0405 48.9221 94.1271 50.6 94.6233 51.8239C94.8231 52.317 95.3633 52.8904 95.8394 52.7521C97.0493 52.3996 97.3592 49.1276 96.165 49.022L96.1696 49.0214Z" fill="#020202"/>
</g>
<g clip-path="url(#clip1_946_4069)">
<path d="M221.251 60.0676C221.758 60.378 222.369 60.4759 222.951 60.3492C223.452 60.4498 223.953 60.5504 224.46 60.6497C225.306 61.0933 226.264 60.9362 227.151 61.1475L228.3 61.3872C229.1 61.8759 230.049 61.7337 230.907 61.98C231.773 62.2313 232.148 62.7729 231.912 63.6647C231.78 64.1719 231.607 64.6678 231.448 65.1675C230.472 68.228 229.529 71.3048 228.502 74.3528C226.691 79.7345 224.618 85.0227 222.519 90.2998C221.334 93.2856 220.354 96.3436 219.191 99.3444C217.807 102.922 215.646 106.082 214.115 109.562C213.634 110.659 213.198 111.77 212.73 112.864C212.531 113.424 212.258 113.956 211.918 114.444C211.224 115.307 210.28 115.101 209.88 114.003C209.541 113.009 209.416 111.953 209.511 110.907C209.975 103.835 210.179 96.7569 210.789 89.6845C211.578 80.5303 213.389 71.5148 214.133 62.3631C214.18 61.9185 214.263 61.4764 214.388 61.0454C214.939 58.9731 215.086 58.898 217.166 59.3241C217.896 59.4694 218.638 59.541 219.374 59.6463C219.999 59.7867 220.629 59.9296 221.255 60.0701L221.251 60.0676ZM213.568 82.0591L213.447 82.6386C215.792 83.0407 218.139 83.4552 220.487 83.8272C220.633 83.8595 220.785 83.8419 220.912 83.7643C221.043 83.6892 221.136 83.5668 221.181 83.4181C221.295 82.9047 220.889 82.824 220.519 82.762C219.867 82.6528 219.199 82.6086 218.556 82.4457C216.927 82.0167 215.237 81.8824 213.568 82.0591ZM219.362 69.6801C221.367 71.5922 223.989 71.3408 226.31 72.0788C226.382 72.0937 226.459 72.0911 226.53 72.0735C226.604 72.0522 226.67 72.0259 226.732 71.9809C226.791 71.9334 226.842 71.8809 226.877 71.8122C226.916 71.7459 226.934 71.6772 226.942 71.6011C226.957 71.5299 226.958 71.4549 226.943 71.38C226.928 71.3051 226.898 71.2365 226.854 71.1803C226.813 71.1204 226.756 71.0668 226.694 71.0306C226.631 70.9945 226.561 70.9696 226.485 70.9622C224.113 70.5202 221.74 70.1045 219.365 69.6763L219.362 69.6801ZM218.146 96.7294L218.304 96.1099C216.588 95.5585 214.872 95.001 213.152 94.4572C212.888 94.3738 212.556 94.2718 212.368 94.5954C212.127 95.014 212.412 95.3171 212.721 95.4954C214.415 96.46 216.272 96.6353 218.142 96.7269L218.146 96.7294ZM221.328 78.2768C219.865 77.0871 216.17 76.5605 214.341 77.1981C216.552 78.101 218.949 78.473 221.33 78.2831L221.328 78.2768ZM222.05 67.8664L221.868 68.3674C223.521 68.8988 225.17 69.4439 226.831 69.9541C227.205 70.0673 227.569 69.9582 227.63 69.4687C227.641 69.395 227.636 69.3213 227.621 69.2464C227.603 69.1752 227.571 69.1103 227.526 69.048C227.481 68.9856 227.426 68.9382 227.363 68.902C227.3 68.8596 227.227 68.8385 227.154 68.8273C225.415 68.7256 223.81 67.8308 222.054 67.8689L222.05 67.8664ZM218.412 79.9871C218.282 79.7437 218.082 79.5404 217.841 79.407C217.6 79.2737 217.323 79.209 217.048 79.2256C216.148 79.1304 214.788 77.9556 214.48 79.1835C214.238 80.1415 216.022 80.1008 216.935 80.4108C217.194 80.5179 217.48 80.5351 217.747 80.4586C218.014 80.3821 218.251 80.2208 218.413 79.9933L218.412 79.9871ZM215.092 93.5734C216.138 94.5775 217.352 95.0445 219.284 94.9125C217.785 93.7428 216.456 93.6106 215.095 93.5759L215.092 93.5734ZM215.954 98.5862C216.302 98.672 216.661 98.7266 217.018 98.7424C217.196 98.7422 217.512 98.552 217.524 98.4197C217.591 97.7503 217.046 97.5935 216.558 97.4579C216.036 97.3162 215.447 96.876 215.017 97.5957C214.945 97.7207 215.054 98.0527 215.185 98.1725C215.421 98.3458 215.68 98.4854 215.951 98.59L215.954 98.5862ZM214.214 102.82C213.767 102.809 213.071 102.287 212.756 103.078C212.551 103.596 213.148 103.804 213.577 103.916C214.109 104.059 214.795 104.515 215.114 103.711C215.332 103.164 214.731 103.018 214.216 102.816L214.214 102.82ZM213.04 106.414C213.367 106.442 213.703 106.401 213.808 106.097C213.963 105.644 213.616 105.451 213.238 105.361C212.948 105.293 212.596 105.27 212.504 105.619C212.399 106.036 212.669 106.297 213.04 106.414Z" fill="#FAAA63"/>
<path d="M224.456 60.6531C223.951 60.55 223.45 60.4494 222.949 60.3488C222.434 58.6273 221.858 56.9246 221.417 55.1819C220.894 53.1145 221.115 51.2449 222.804 49.6321C224.488 47.9295 226.071 46.127 227.541 44.2336C228.36 43.2374 228.409 42.4644 227.56 41.4888C226.901 40.7315 226.079 40.0169 225.988 38.8694C227.004 38.5286 227.127 39.4488 227.575 39.8491C227.848 40.0961 228.035 40.4418 228.299 40.7037C228.649 41.0555 228.979 41.6483 229.582 41.1569C229.706 41.0668 229.807 40.9556 229.885 40.8231C229.962 40.6907 230.012 40.5508 230.033 40.3971C230.051 40.2473 230.04 40.0937 229.997 39.9464C229.952 39.8028 229.882 39.6643 229.785 39.5508C229.353 38.9393 228.842 38.383 228.417 37.7703C228.095 37.3024 227.565 36.8958 227.779 36.1027C228.927 36.0277 229.082 37.1527 229.688 37.6802C230.451 38.345 230.822 38.2996 231.092 37.3165C231.902 34.3836 231.173 31.6658 229.759 29.1087C228.165 26.2208 226.48 23.3968 223.927 21.1955C223.412 20.7503 222.737 20.269 222.747 19.0265C224.913 20.3053 226.106 22.3744 228.024 23.6773C229.111 22.6371 228.874 20.9278 230.119 19.9337C230.469 22.2535 227.827 24.2657 229.872 26.5986C231.009 25.6033 230.634 23.8992 231.953 23.0298C232.794 25.3191 229.915 27.0543 231.338 29.4341C232.27 28.8699 232.532 27.9568 232.913 27.1235C233.084 26.7124 233.292 26.3101 233.523 25.929C233.588 25.8477 233.672 25.779 233.767 25.7339C233.862 25.6888 233.965 25.6712 234.07 25.6761C234.14 25.701 234.209 25.7359 234.261 25.7871C234.314 25.8382 234.359 25.9006 234.386 25.973C234.414 26.0454 234.425 26.1178 234.42 26.1902C234.413 26.2664 234.392 26.3389 234.356 26.4013C233.906 27.4271 233.468 28.4603 232.962 29.4648C232.298 30.8779 232.052 32.4503 232.254 34.0011C232.517 37.3774 231.292 40.4557 229.345 43.2276C228.634 44.2411 227.693 45.1188 227.228 46.2319C227.701 46.9032 228.283 46.5329 228.757 46.6648C229.087 46.7543 229.297 46.9427 229.266 47.2899C229.232 47.6508 228.953 47.7685 228.634 47.7776C227.888 47.7846 227.141 47.7692 226.395 47.7863C226.244 47.7777 226.095 47.8303 225.978 47.9253C225.858 48.0241 225.784 48.1591 225.76 48.3102C226.049 49.2002 227.965 48.5388 227.526 49.7768C227.217 50.6475 226.077 49.6298 225.304 49.7755C224.941 49.8421 224.559 49.8313 224.192 49.8953C224.043 49.9155 223.903 49.9793 223.786 50.0744C223.672 50.1719 223.588 50.2994 223.542 50.4418C223.396 50.9289 223.805 51.0384 224.119 51.2316C224.718 51.5918 226.069 51.4954 225.811 52.2974C225.458 53.398 224.434 52.425 223.712 52.3072C222.467 52.1063 222.166 52.2739 222.243 53.4926C222.36 55.3656 222.99 57.0932 223.86 59.1752C225.248 55.4699 227.593 53.0335 230.459 51.0573C231.4 50.4069 231.555 49.5151 231.407 48.4863C231.256 47.4288 231.026 46.3676 231.636 44.9783C232.316 46.3387 231.878 47.6641 232.796 48.8369C233.632 47.8308 233.28 46.8234 233.222 45.8707C233.165 44.9404 232.725 44.0156 233.141 42.8213C234.569 44.1871 233.677 46.0974 234.785 47.6834C235.741 45.2697 234.635 42.9982 235.262 40.6087C236.623 42.0495 235.317 44.0302 236.827 45.3859C238.604 42.7129 239.807 39.7008 240.346 36.5334C240.878 33.4484 240.449 30.297 241.089 26.8135C242.337 28.719 241.419 30.4558 241.792 32.1312C243.098 32.2322 244.14 31.4056 245.312 31.0334C245.663 30.9206 246.121 30.8252 246.257 31.3046C246.401 31.7952 245.94 31.9106 245.591 31.9971C244.441 32.3356 243.335 32.8113 242.308 33.4206C242.168 33.4844 242.06 33.5907 242 33.7294C241.936 33.8656 241.932 34.0192 241.977 34.1627C242.099 34.531 242.427 34.4782 242.724 34.4703C243.713 34.4468 244.62 33.5791 245.856 34.126C245.106 35.1083 244.079 35.107 243.223 35.4351C242.804 35.5941 242.372 35.7232 241.962 35.8997C241.82 35.9511 241.7 36.0499 241.625 36.1786C241.548 36.311 241.523 36.4622 241.553 36.612C241.638 36.9653 241.958 36.9624 242.272 36.9546C243.195 36.9249 244.096 36.2371 245.201 36.8265C244.538 37.7588 243.575 37.6862 242.777 37.8207C242.179 37.8825 241.616 38.1354 241.175 38.5392C240.729 38.9406 240.425 39.4791 240.306 40.0649C239.244 44.0846 236.824 47.6175 233.461 50.0637C233.047 50.3614 232.334 50.7256 232.598 51.2148C233.056 52.0709 232.945 53.2136 233.759 53.8196C234.305 54.2261 234.804 53.7523 234.848 53.1654C234.864 52.3536 234.837 51.5407 234.756 50.7354C235.026 50.785 235.244 50.7736 235.265 50.831C236.151 53.1989 236.165 53.2026 238.508 52.02C239.823 51.3042 241.072 50.4749 242.236 49.5296C243.486 48.5767 243.881 47.5036 243.238 46.022C242.935 45.323 242.513 44.593 242.767 43.5837C243.801 44.1845 243.787 45.1647 244.141 45.9249C244.275 46.2194 244.483 46.4602 244.807 46.3787C245.004 46.2773 245.157 46.1135 245.239 45.9087C245.391 45.5663 245.465 45.1941 245.459 44.822C245.452 44.4499 245.364 44.0778 245.199 43.7409C244.891 42.9195 244.449 42.1283 244.462 41.0444C245.697 41.2765 245.454 42.5206 246.236 43.1166C247.718 41.4092 247.509 38.9506 248.791 37.1048C249.16 38.1671 249.213 38.1857 247.944 41.6624C247.356 43.2615 247.063 44.9701 246.059 46.4322C245.123 47.7894 244.032 49.0156 242.935 50.3892C243.621 51.3812 244.94 51.5284 245.78 52.2655C245.258 52.9616 244.828 52.6649 244.456 52.5092C243.908 52.275 243.391 51.9634 242.855 51.7042C242.125 51.3542 241.287 51.1915 240.9 52.0261C240.47 52.9569 241.474 53.0407 242.014 53.3186C242.542 53.589 243.122 53.7582 243.669 54.0086C243.719 54.031 243.764 54.0609 243.804 54.0983C243.844 54.1357 243.871 54.1857 243.888 54.2406C243.908 54.2918 243.916 54.3454 243.911 54.4016C243.906 54.4578 243.893 54.5091 243.868 54.5628C243.85 54.6152 243.817 54.664 243.776 54.7015C243.739 54.7415 243.69 54.774 243.636 54.7978C243.585 54.8178 243.527 54.8329 243.472 54.8342C243.413 54.833 243.359 54.8243 243.309 54.8019C242.35 54.3909 241.389 53.9736 240.449 53.5163C240.013 53.302 239.534 53.1939 239.047 53.1945C238.56 53.195 238.08 53.3141 237.65 53.5307C236.121 54.1467 234.658 54.9151 233.289 55.8269C232.136 56.6499 232.174 56.9832 233.491 57.6374C233.959 57.8679 234.477 58.0009 234.943 58.2352C235.206 58.3673 235.403 58.6168 235.198 58.9567C235.14 59.0529 235.051 59.1292 234.945 59.1668C234.839 59.2043 234.724 59.1982 234.615 59.1584C234.132 58.9666 233.654 58.7573 233.193 58.5156C232.695 58.184 232.133 57.9561 231.543 57.8506C231.436 57.8332 231.326 57.8521 231.228 57.9009C231.132 57.9559 231.054 58.0334 231.005 58.1309C230.871 58.3983 231.051 58.5666 231.216 58.6926C231.765 59.0853 232.4 59.3506 233.068 59.4598C233.444 59.5368 233.887 59.6849 233.771 60.1433C233.62 60.7192 233.108 60.6111 232.671 60.4879C232.313 60.3847 231.955 60.2552 231.608 60.127C230.253 59.6331 229.147 60.0568 228.291 61.3981C227.908 61.3161 227.522 61.2379 227.142 61.1584C228.423 59.4362 229.576 57.5643 231.26 56.2188C232.444 55.2759 232.794 54.3352 232.278 52.9646C232.122 52.3954 232 51.8223 231.928 51.2392C228.385 53.6957 225.415 56.365 224.455 60.6631L224.456 60.6531Z" fill="#8CA68D"/>
<path d="M219.874 58.3444C216.997 54.9547 216.377 51.2603 218.19 47.7618C218.635 46.9871 219.143 46.2485 219.711 45.5561C221.442 43.2952 222.965 40.8909 224.27 38.3682C226.61 33.6953 225.728 28.9235 221.855 25.5524C220.433 24.2178 218.768 23.1694 216.949 22.4572C216.37 22.2617 215.568 21.371 215.215 22.0882C214.759 23.0178 216.095 22.9926 216.576 23.4641C217.125 23.9967 218.139 23.9356 218.453 24.8044C217.498 25.737 215.933 25.2205 215.057 26.4066C216.222 27.0946 219.85 25.9005 219.944 25.9042C220.199 25.9114 220.289 26.0686 220.276 26.3084C220.226 26.5133 217.462 27.3355 217.451 28.101C217.906 28.6524 218.417 28.3547 218.896 28.213C219.613 28.0037 220.317 27.7582 221.029 27.5339C221.652 27.3371 222.304 27.2515 222.467 28.063C222.626 28.872 221.848 28.7168 221.408 28.8671C220.547 29.1603 219.458 28.9117 218.788 29.9689C219.836 30.5796 220.763 29.958 221.668 29.8896C224.076 29.7008 224.051 29.7059 224.468 32.1355C225.045 35.5202 223.624 38.274 221.843 40.9121C220.813 42.4442 220.612 42.397 219.348 41.1184C218.603 40.3687 218.14 39.2766 216.92 38.8171C216.657 39.8963 217.425 40.3101 217.814 40.8716C218.371 41.6689 219.029 42.3875 219.599 43.1723C220.002 43.7213 219.696 44.1562 219.241 44.5076C218.743 44.8903 218.394 44.561 218.11 44.2154C217.735 43.7551 217.429 43.2322 217.061 42.7605C216.73 42.3401 216.614 41.6197 215.857 41.7167C215.484 42.1229 215.706 42.4648 215.9 42.7668C216.382 43.5205 216.885 44.2605 217.406 44.9904C217.823 45.5819 218.189 46.2521 217.504 46.7698C216.751 47.3401 216.579 46.3712 216.169 46.0445C215.514 45.5332 215.359 44.4083 214.104 44.3847C214.122 45.7321 215.146 46.3965 215.748 47.2625C216.242 47.975 216.618 48.6139 216.294 49.5234C215.906 50.7413 215.849 52.0389 216.125 53.2823C216.347 54.5333 216.247 54.5859 215.012 54.4187C214.27 54.3146 213.502 53.9658 212.682 54.6535C213.951 55.7785 215.954 54.8235 216.876 56.4371C216.281 56.8036 215.751 56.7056 215.234 56.7349C214.779 56.7616 214.153 56.4426 214.002 57.2619C214.783 57.8193 215.68 57.8045 216.578 57.8285C217.873 57.8571 218.924 58.3017 219.372 59.6437C219.998 59.7841 220.624 59.9245 221.25 60.0649C221.059 59.2784 220.349 58.8983 219.874 58.3444Z" fill="#8CA68D"/>
<path d="M213.571 82.065C215.244 81.8908 216.936 82.0213 218.562 82.4541C219.199 82.6182 219.87 82.6587 220.526 82.7704C220.895 82.8324 221.299 82.9169 221.184 83.4303C221.145 83.5714 221.046 83.6951 220.915 83.7702C220.784 83.8453 220.633 83.8692 220.487 83.8369C218.138 83.4586 215.794 83.0466 213.446 82.6421L213.568 82.0687L213.571 82.065Z" fill="#9AA181"/>
<path d="M219.369 69.6824C221.743 70.1043 224.12 70.5225 226.489 70.9682C226.566 70.9756 226.636 71.0005 226.698 71.0367C226.762 71.0791 226.817 71.1265 226.858 71.1864C226.899 71.2463 226.929 71.3149 226.944 71.3898C226.962 71.461 226.961 71.5359 226.943 71.6108C226.936 71.687 226.917 71.7557 226.879 71.822C226.843 71.8844 226.795 71.9394 226.733 71.9845C226.674 72.032 226.605 72.062 226.531 72.0771C226.456 72.0921 226.384 72.0935 226.311 72.0823C223.986 71.3419 221.361 71.597 219.36 69.6874L219.369 69.6824Z" fill="#9AA181"/>
<path d="M218.148 96.7293C216.276 96.6414 214.42 96.4561 212.725 95.5014C212.413 95.327 212.128 95.0238 212.371 94.6015C212.558 94.2716 212.888 94.3774 213.156 94.4633C214.878 95.0033 216.591 95.5584 218.307 96.1159L218.146 96.733L218.148 96.7293Z" fill="#9AA181"/>
<path d="M221.335 78.279C218.953 78.4689 216.56 78.0994 214.347 77.2002C216.18 76.5651 219.871 77.0893 221.335 78.279Z" fill="#9AA181"/>
<path d="M222.047 67.8702C223.802 67.832 225.41 68.7231 227.15 68.8311C227.224 68.8423 227.294 68.8671 227.36 68.9058C227.422 68.9419 227.481 68.9918 227.522 69.0517C227.568 69.1141 227.6 69.179 227.618 69.2502C227.633 69.3251 227.638 69.3987 227.627 69.4724C227.568 69.9583 227.201 70.071 226.828 69.9578C225.167 69.4477 223.518 68.9025 221.865 68.3711L222.047 67.8702Z" fill="#9AA181"/>
<path d="M218.414 79.9867C218.252 80.2142 218.015 80.3755 217.748 80.452C217.481 80.5285 217.195 80.5113 216.934 80.4079C216.023 80.0942 214.239 80.1349 214.479 79.1806C214.787 77.9527 216.149 79.1238 217.049 79.219C217.326 79.2087 217.598 79.2708 217.843 79.4067C218.084 79.54 218.284 79.7434 218.414 79.9867Z" fill="#9AA181"/>
<path d="M215.093 93.5797C216.457 93.6107 217.786 93.7428 219.282 94.9163C217.354 95.0507 216.133 94.5851 215.093 93.5797Z" fill="#9AA181"/>
<path d="M215.958 98.5885C215.687 98.4839 215.428 98.3444 215.194 98.1773C215.062 98.0575 214.953 97.7255 215.026 97.6005C215.453 96.8845 216.044 97.321 216.566 97.4627C217.057 97.5946 217.599 97.7551 217.533 98.4245C217.519 98.5506 217.203 98.7408 217.026 98.7472C216.668 98.7251 216.313 98.6731 215.962 98.591L215.958 98.5885Z" fill="#9AA181"/>
<path d="M214.214 102.82C214.727 103.015 215.329 103.167 215.112 103.714C214.795 104.515 214.109 104.059 213.575 103.919C213.146 103.808 212.549 103.6 212.753 103.081C213.066 102.294 213.764 102.813 214.211 102.824L214.214 102.82Z" fill="#9AA181"/>
<path d="M213.046 106.417C212.678 106.296 212.403 106.043 212.511 105.628C212.602 105.272 212.955 105.302 213.245 105.37C213.626 105.456 213.97 105.646 213.815 106.106C213.713 106.406 213.377 106.447 213.05 106.419L213.046 106.417Z" fill="#9AA181"/>
</g>
<g clip-path="url(#clip2_946_4069)">
<path d="M294.663 48.2774C294.663 48.2774 295.653 47.3454 295.315 47.0376C294.976 46.7298 294.007 47.8346 293.192 48.4587C292.378 49.0828 291.559 49.2979 291.559 49.2979C291.559 49.2979 291.684 48.8846 292.57 48.3533C293.455 47.8262 293.798 47.5141 293.606 47.4045C293.414 47.2906 292.557 47.4424 291.96 48.1087C291.96 48.1087 293.104 46.9153 292.708 46.4599C292.344 46.0466 291.701 47.0629 291.475 47.6575C291.534 47.4424 291.316 46.928 291.103 46.9364C290.443 46.9701 290.744 48.1509 290.706 48.7666C290.685 49.066 290.556 49.3485 290.422 49.5593C289.892 49.7491 289.257 50.0865 288.713 50.4828C289.098 49.5551 289.511 48.6569 289.946 47.8304C290.786 46.2322 291.442 44.9924 291.918 44.0984C292.189 44.0689 292.507 44.052 292.825 44.0942C293.627 44.1912 294.692 44.6593 294.738 44.1279C294.771 43.7526 294.283 43.6936 293.99 43.6936C294.805 43.643 296.681 43.3773 296.221 43.002C295.72 42.593 293.936 43.2424 293.936 43.2424C294.922 42.9135 295.298 42.2683 295.193 42.0911C295.089 41.9183 294.617 42.1207 293.748 42.7068C292.967 43.2339 292.432 43.2972 292.336 43.3014C292.348 43.2803 292.357 43.2592 292.369 43.2424C292.511 43.0779 292.958 42.6056 293.748 42.1924C294.73 41.6821 296.359 41.155 296.033 40.8219C295.707 40.4887 294.295 41.0749 294.295 41.0749C294.972 40.4297 296.255 39.0297 295.223 39.0423C294.345 39.0507 293.664 40.4676 293.476 40.8935C293.551 40.6827 293.635 40.2188 293.234 39.7592C292.691 39.1351 291.847 39.7508 292.444 40.3917C293.042 41.0327 291.943 42.8249 291.943 42.8249C291.943 42.8249 291.646 42.555 291.726 42.1924C291.805 41.8297 292.628 40.8851 291.872 40.8682C291.112 40.8472 291.124 41.9562 291.124 41.9562C291.124 41.9562 290.815 40.5815 290.013 40.8261C289.457 40.9947 290.126 41.6863 290.585 42.0954C289.829 41.6357 289.052 42.0448 289.946 42.3695C290.247 42.4791 290.493 42.6267 290.694 42.7827C291.074 43.0821 291.27 43.487 291.258 43.9002C291.003 44.208 290.723 44.5749 290.422 44.9966C290.101 44.7436 289.737 44.9797 289.553 45.14C290.034 44.6508 290.999 43.4279 290.364 43.4406C289.666 43.4574 289.106 44.8743 289.106 44.8743C289.44 44.1068 289.094 43.4785 288.864 43.4237C288.638 43.3689 288.517 43.7653 288.496 44.634C288.471 45.5026 288.183 45.7472 288.183 45.7472C288.183 45.7472 287.857 45.1779 288.024 44.3008C288.191 43.4237 288.759 42.1628 288.246 42.1333C287.732 42.0996 287.356 43.2677 287.356 43.2677C287.205 42.4707 286.75 40.8429 286.094 41.4291C285.538 41.9267 286.395 43.2297 286.662 43.6092C286.516 43.4321 286.148 43.0821 285.467 43.0062C284.548 42.905 284.561 43.7779 285.534 43.858C286.508 43.9424 287.439 45.7177 287.439 45.7177C287.439 45.7177 287.001 45.7093 286.721 45.431C286.441 45.1484 286.106 44.0773 285.601 44.4906C285.095 44.9038 286.111 45.6165 286.111 45.6165C286.111 45.6165 284.653 44.8954 284.36 45.5026C284.155 45.9243 285.221 46.0002 285.889 46.0045C284.978 46.1268 284.853 46.831 285.726 46.54C286.019 46.443 286.315 46.4009 286.587 46.3882C287.084 46.3671 287.56 46.5105 287.928 46.7635C287.97 47.2063 288.007 47.7123 288.024 48.2774C288.032 48.4882 288.02 48.7919 287.999 49.1208C286.946 51.2335 285.806 53.966 284.665 57.4703C284.419 54.257 284.047 48.7666 284.047 43.9339C284.139 43.8538 284.168 43.7568 284.114 43.6303C284.097 43.5882 284.072 43.5544 284.047 43.5249C284.047 42.9177 284.059 42.3231 284.076 41.7454C284.289 40.8345 284.607 39.5947 284.765 39.2152C284.928 38.823 285.087 38.4688 285.242 38.1483C285.914 37.9164 286.725 37.9164 287.368 38.1863C287.682 38.3212 288.003 38.5025 288.283 38.7556C289.115 39.5062 289.436 38.57 288.45 38.0092C289.244 38.2959 290.548 38.6712 290.585 38.0513C290.644 37.1573 288.45 37.423 288.45 37.423C288.45 37.423 290.121 36.976 289.8 36.2338C289.478 35.4916 288.375 36.6977 287.857 36.9254C287.339 37.1531 286.817 36.9718 286.817 36.9718C286.817 36.9718 289.098 35.1459 290.301 35.4706C291.504 35.7953 292.102 34.7073 290.949 34.429C290.101 34.2224 289.432 34.5007 289.14 34.6609C289.712 34.3025 291.584 33.0416 291.262 32.1687C290.882 31.144 289.261 32.991 288.551 33.9272C288.551 33.9272 288.885 32.291 288.258 32.1054C287.631 31.9199 287.46 33.7543 287.072 34.9308C286.683 36.1115 285.948 36.8031 285.948 36.8031C285.948 36.8031 285.747 36.2423 286.294 35.1416C286.846 34.041 286.971 33.4886 286.666 33.4591C286.361 33.4296 285.53 34.0663 285.417 35.1796C285.417 35.1796 285.643 33.6025 285.137 33.0037C285.192 32.7127 285.246 32.4386 285.296 32.1856C285.647 32.038 286.123 31.882 286.629 31.8356C287.661 31.7344 289.181 32.0506 289.01 31.3338C288.889 30.8277 288.258 30.891 287.899 30.9753C288.885 30.6759 291.082 29.7861 290.355 29.4277C289.557 29.0313 287.636 30.3976 287.636 30.3976C288.713 29.6807 288.893 28.7193 288.688 28.5211C288.484 28.3186 287.991 28.7235 287.172 29.7482C286.353 30.7729 285.664 30.9458 285.664 30.9458C285.664 30.9458 285.956 30.0223 286.946 29.0693C287.932 28.1162 289.716 26.9524 289.169 26.6066C288.622 26.2608 287.134 27.4331 287.134 27.4331C287.69 26.3873 288.663 24.1734 287.393 24.4812C286.315 24.7469 286.09 26.809 286.048 27.4247C286.048 27.1253 285.952 26.4843 285.254 25.9951C284.31 25.3288 283.537 26.3789 284.552 27.0578C285.572 27.7367 284.995 30.4145 284.995 30.4145C284.995 30.4145 284.511 30.1446 284.448 29.6428C284.389 29.1409 284.995 27.6608 284.047 27.8506C283.103 28.0403 283.596 29.4994 283.596 29.4994C283.596 29.4994 282.618 27.7704 281.732 28.3229C281.118 28.7066 282.246 29.4277 282.994 29.8325C281.858 29.4403 281.08 30.2036 282.325 30.3765C282.426 30.3892 282.522 30.4102 282.614 30.4271C282.058 30.988 282.146 32.5693 282.146 32.5693C282.129 31.4603 281.36 30.7729 281.055 30.7855C280.75 30.7982 280.83 31.3506 281.281 32.4765C281.732 33.6025 281.519 34.0242 281.519 34.0242C281.519 34.0242 280.813 33.4085 280.529 32.2151C280.245 31.0217 280.232 29.1958 279.597 29.3391C278.958 29.4825 279.15 31.1271 279.15 31.1271C278.528 30.153 277.078 28.2217 276.614 29.2126C276.217 30.056 277.968 31.4223 278.503 31.8187C278.227 31.6416 277.588 31.3253 276.731 31.4729C275.566 31.6795 276.067 32.7928 277.287 32.5482C278.507 32.3036 280.613 34.2603 280.613 34.2603C280.613 34.2603 280.078 34.4079 279.585 34.1464C279.092 33.885 278.102 32.6241 277.717 33.3368C277.333 34.0537 278.954 34.6019 278.954 34.6019C278.954 34.6019 276.802 34.2013 276.781 35.091C276.769 35.7109 278.093 35.42 278.904 35.188C277.876 35.6772 278.114 36.626 279.004 35.9386C279.305 35.7067 279.635 35.5465 279.961 35.4326C280.642 35.1965 281.411 35.2428 282.05 35.5338C282.346 36.0314 282.664 36.588 283.002 37.2164C283.111 37.4188 283.194 37.6296 283.274 37.8531C283.153 38.6881 283.04 39.6032 282.94 40.6068C282.927 40.6068 282.915 40.6068 282.898 40.6068C282.129 40.6869 281.707 41.1044 281.54 41.3195C281.849 40.864 282.831 39.2995 282.209 38.6923C281.473 37.9796 280.943 39.9363 280.759 40.902C280.759 40.902 280.345 39.4851 279.764 39.5188C279.184 39.5526 279.81 41.0791 279.99 42.146C280.17 43.2129 279.794 43.8918 279.794 43.8918C279.794 43.8918 279.468 43.5924 279.451 42.5424C279.434 41.4923 279.305 41.0116 279.05 41.0749C278.791 41.1381 278.39 41.893 278.762 42.8249C278.762 42.8249 278.148 41.1002 277.354 41.0749C276.635 41.0496 277.713 42.5381 278.248 43.1369C278.035 42.9388 277.621 42.6478 277.254 42.9598C277.174 43.0273 277.137 43.0948 277.132 43.158C276.861 42.6984 276.606 42.2936 276.368 41.9351C276.234 41.3279 276.456 40.6996 276.982 40.2694C277.212 40.0839 277.492 39.9068 277.834 39.7761C278.849 39.3965 277.976 38.8905 277.116 39.4387C277.642 38.9538 278.407 38.123 277.78 37.9122C276.873 37.6085 276.51 39.2658 276.51 39.2658C276.51 39.2658 276.535 37.929 275.674 37.9417C274.814 37.9543 275.737 39.1056 275.825 39.5441C275.912 39.9869 275.57 40.3074 275.57 40.3074C275.57 40.3074 274.346 38.1272 275.031 37.3555C275.716 36.5838 274.768 35.8332 274.141 36.5796C273.681 37.132 273.773 37.6929 273.857 37.9501C273.652 37.4314 272.896 35.7109 271.902 35.6898C270.736 35.6645 272.169 37.3724 272.929 38.161C272.929 38.161 271.338 37.4399 270.966 37.8363C270.594 38.2327 272.432 38.8947 273.535 39.5188C274.638 40.1471 275.144 40.8809 275.144 40.8809C275.144 40.8809 274.509 40.864 273.531 40.1429C272.553 39.4218 272.023 39.1688 271.902 39.3797C271.78 39.5905 272.198 40.3749 273.314 40.7839C273.314 40.7839 271.3 39.9785 270.728 40.4676C270.205 40.9146 272.324 41.2562 273.247 41.3279C272.917 41.3279 272.361 41.3869 272.395 41.8423C272.445 42.4875 273.652 41.9351 274.563 41.8255C274.956 41.7791 275.348 41.8044 275.67 41.855C276.163 42.905 276.802 44.3599 277.538 46.287C277.909 47.2569 278.256 48.231 278.582 49.1925C278.123 48.8888 277.646 48.6316 277.224 48.4672C277.078 48.2141 276.932 47.8683 276.915 47.5057C276.878 46.7593 277.233 45.3382 276.485 45.2876C276.242 45.2707 275.996 45.8906 276.054 46.1521C275.808 45.431 275.085 44.1954 274.672 44.6888C274.216 45.2328 275.499 46.6918 275.499 46.6918C274.83 45.878 273.861 45.6882 273.644 45.8189C273.427 45.9539 273.811 46.3292 274.805 46.9786C275.804 47.628 275.937 48.1298 275.937 48.1298C275.937 48.1298 275.01 47.8599 274.095 47.0924C273.18 46.3249 272.098 44.9797 271.709 45.3466C271.321 45.7135 272.432 46.8521 272.432 46.8521C271.396 46.3882 269.19 45.5533 269.433 46.4768C269.637 47.2611 271.735 47.5563 272.361 47.628C272.052 47.6111 271.396 47.6364 270.849 48.1045C270.109 48.737 271.137 49.3569 271.893 48.6738C272.649 47.9906 275.357 48.5726 275.357 48.5726C275.357 48.5726 275.052 48.9015 274.534 48.9141C274.016 48.9268 272.541 48.3955 272.679 49.0828C272.817 49.7702 274.337 49.5087 274.337 49.5087C274.337 49.5087 272.512 50.0991 273.021 50.7654C273.376 51.2292 274.183 50.4702 274.642 49.9642C274.17 50.7485 274.906 51.3558 275.156 50.4786C275.24 50.1834 275.39 49.9262 275.561 49.7111C275.871 49.3232 276.389 49.0491 276.944 48.9479C277.646 49.2684 278.344 49.7828 278.946 50.2973C280.638 55.5432 281.624 60.2197 281.891 61.2951C281.954 61.5396 283.905 61.2402 283.867 60.9957C283.838 60.8017 283.825 60.6794 283.804 60.5698C284.297 60.4685 284.874 60.245 284.874 60.0806C285.187 60.1396 285.555 60.1438 285.584 60.03C285.814 59.2035 286.808 55.3281 288.266 51.5582C288.893 51.0057 289.77 50.3184 290.648 49.9557C291.137 50.0485 291.592 50.2762 291.864 50.6009C292.014 50.7822 292.144 50.9931 292.219 51.2377C292.432 51.9672 293.088 51.4738 292.678 50.816C293.079 51.2377 293.79 51.8744 294.103 51.4949C294.558 50.9467 292.95 50.4449 292.95 50.4449C292.95 50.4449 294.291 50.6726 294.42 50.1075C294.55 49.5425 293.238 49.9642 292.783 49.9515C292.327 49.9389 292.056 49.6648 292.056 49.6648C292.056 49.6648 294.45 49.2051 295.114 49.7786C295.778 50.3521 296.689 49.8461 296.042 49.319C295.565 48.931 294.985 48.9015 294.709 48.9141C295.264 48.8593 297.119 48.6358 297.307 47.9864C297.529 47.2232 295.569 47.8937 294.654 48.269L294.663 48.2774ZM282.66 44.284C282.576 44.2587 282.484 44.2334 282.384 44.2207C282.472 44.2207 282.568 44.2207 282.664 44.2207C282.664 44.2418 282.664 44.2671 282.664 44.2882L282.66 44.284ZM282.706 43.508C282.384 43.6219 282.137 43.7484 282.137 43.7484C282.137 43.7484 282.509 43.4785 282.727 43.1496C282.718 43.2677 282.71 43.3857 282.702 43.508H282.706ZM284.573 36.6302C284.853 37.0899 284.916 37.6085 284.92 37.9417C284.648 38.4098 284.398 38.9327 284.197 39.5062C284.247 38.7935 284.318 38.1314 284.402 37.5326C284.448 37.2037 284.498 36.8875 284.544 36.5838C284.552 36.6007 284.565 36.6134 284.573 36.6302ZM282.376 35.3103C282.434 34.9856 282.572 34.4922 282.885 34.0579C283.403 33.341 284.59 32.5609 283.83 32.2446C283.295 32.0211 282.981 32.4597 282.844 32.738C283.044 32.2067 283.328 31.1904 283.278 30.6295C283.332 30.6506 283.387 30.6759 283.441 30.7012C284.03 30.9795 284.444 31.4476 284.615 31.9832C284.394 32.6157 284.16 33.3916 283.934 34.3404C283.767 34.2434 283.604 34.1928 283.512 34.2434C283.123 34.4585 283.341 34.9308 283.692 35.4326C283.591 35.9218 283.495 36.4489 283.403 37.014C283.073 36.3899 282.722 35.8164 282.371 35.3061L282.376 35.3103ZM282.814 41.6315C282.814 41.6315 282.835 41.6315 282.848 41.6315C282.827 41.8972 282.802 42.1671 282.781 42.4454C282.768 42.4285 282.752 42.4116 282.731 42.3948C282.163 41.8887 281.774 43.1833 281.452 43.5207C281.131 43.858 280.633 43.8623 280.633 43.8623C280.633 43.8623 281.707 41.7243 282.81 41.6357L282.814 41.6315ZM277.295 43.4321C277.596 43.6894 278.252 43.9466 278.678 44.2418C279.05 44.499 279.317 44.8322 279.489 45.0852C279.342 45.7135 279.23 46.4177 279.196 47.181C278.511 45.6629 277.868 44.4273 277.295 43.4363V43.4321ZM280.036 49.1292C279.973 48.3912 279.919 47.4551 279.94 46.9491C279.969 46.2617 280.015 45.6545 280.069 45.1189C280.487 44.8153 281.03 44.655 281.59 44.6803C281.899 44.6972 282.234 44.752 282.564 44.8743C282.589 44.8828 282.61 44.8912 282.63 44.8954C282.48 48.0497 282.447 51.8238 282.601 56.3359C281.72 53.498 280.855 51.1196 280.036 49.1334V49.1292ZM288.45 46.7382C288.601 46.5316 288.843 46.2575 289.173 46.0466C289.411 45.8948 289.729 45.7599 289.996 45.6249C289.578 46.2617 289.123 47.0123 288.647 47.8894C288.605 47.4804 288.534 47.0924 288.45 46.7382Z" fill="#82A088"/>
<path d="M287.912 105.042C287.573 103.351 287.761 100.825 288.141 95.8447C288.179 95.3344 288.237 94.8157 288.313 94.2928C288.668 94.7778 288.948 95.3302 289.144 95.9248C289.228 96.1314 289.32 96.414 289.616 96.2495C289.671 96.22 289.716 96.182 289.758 96.1314C289.796 96.0808 289.829 96.026 289.85 95.9627C289.871 95.8995 289.879 95.8362 289.875 95.773C289.871 95.7097 289.854 95.6507 289.829 95.6001C289.612 95.0224 289.353 94.47 289.119 93.9007C288.906 93.3736 288.751 92.8464 288.664 92.3109C288.964 90.8603 289.366 89.3801 289.813 87.9253C290.143 89.4307 289.554 91.0163 290.055 92.3615C290.519 91.9862 290.519 91.5771 290.56 91.1765C290.778 89.5151 290.736 87.8536 290.443 86.2638C290.431 86.2132 290.418 86.1584 290.406 86.1036C292.01 81.3595 293.936 77.0498 294.421 74.819C294.813 73.0142 294.722 71.3063 294.429 69.8346C295.248 70.8973 295.666 72.1961 295.703 73.769C295.703 73.7775 295.703 73.7859 295.703 73.7943C295.804 74.2118 295.749 74.7136 296.054 75.0678C296.13 75.1564 296.276 75.1311 296.322 75.0257C296.831 73.8365 296.288 72.8076 296.284 71.7322C296.284 71.7154 296.284 71.6943 296.276 71.6774C295.837 70.522 294.839 68.7213 293.857 67.7978C293.314 66.2713 292.666 65.2171 292.47 64.9177C291.605 63.5556 289.445 60.1525 285.522 59.4694C283.328 59.0857 281.574 59.7266 280.859 60.0007C275.98 61.8562 274.308 67.1484 273.874 68.5274C273.247 70.5178 273.042 72.5039 273.368 76.8896C273.368 76.9022 273.368 76.9149 273.368 76.9275C272.529 78.5552 272.011 80.3432 271.668 82.2999C272.462 81.6631 272.721 80.8239 272.988 80.0227C273.185 79.4324 273.302 78.8209 273.469 78.2221C273.636 80.3432 273.845 82.5318 274.25 84.9776C274.003 85.9222 273.648 86.8373 273.231 87.7482C272.884 88.5072 272.299 89.0681 271.852 89.7428C271.718 89.941 271.576 90.2066 271.843 90.3753C271.919 90.4217 272.015 90.4301 272.102 90.4006C272.194 90.3711 272.274 90.3163 272.336 90.2319C272.938 89.4855 273.444 88.6548 273.836 87.765C274.024 87.3265 274.104 86.7783 274.521 86.4999C274.705 87.453 274.923 88.4482 275.177 89.4897C275.47 91.7205 275.929 93.9007 276.556 96.0049C276.69 96.3676 276.711 96.7766 276.619 97.1814C276.364 98.0923 276.439 98.9821 276.414 99.8803C276.832 100.108 277.25 100.395 277.266 99.4291C277.266 99.2224 277.471 98.4339 277.738 97.6706C281.143 106.476 284.661 108.871 285.589 109.448C286.103 109.769 287.728 110.781 288.467 110.241C289.299 109.634 288.396 107.479 287.916 105.054L287.912 105.042ZM282.455 97.5736C282.514 97.5736 282.568 97.5821 282.618 97.6031C283.295 97.8098 284.03 97.8013 284.741 97.5736C284.795 97.5525 284.853 97.5525 284.908 97.561C284.962 97.5736 285.012 97.5947 285.058 97.6284C285.1 97.6664 285.133 97.7128 285.154 97.7676C285.175 97.8224 285.183 97.8857 285.183 97.9489C285.183 98.0501 285.15 98.1556 285.087 98.2357C285.025 98.32 284.937 98.3748 284.845 98.3917C284.039 98.5604 283.224 98.7586 282.476 98.4971C282.23 98.3495 281.887 98.3116 282.037 97.8941C282.063 97.8351 282.096 97.7802 282.142 97.7296C282.184 97.6833 282.234 97.6453 282.288 97.62C282.342 97.5947 282.397 97.5778 282.455 97.5778V97.5736ZM285.864 89.0175C285.814 89.1102 285.743 89.1861 285.664 89.2452C285.58 89.3 285.493 89.3295 285.397 89.3337C284.009 89.3717 282.618 89.7849 281.235 89.7259C281.102 89.7301 280.972 89.7132 280.847 89.6753C280.646 89.5994 280.412 89.5108 280.508 89.1777C280.542 89.0807 280.604 88.9964 280.684 88.9373C280.763 88.8783 280.855 88.8572 280.943 88.8699C282.418 88.9205 283.897 88.5578 285.376 88.444C285.735 88.4187 285.998 88.5199 285.864 89.0132V89.0175ZM286.784 71.0238C288.208 70.8551 289.65 70.387 291.045 70.7497C291.133 70.7708 291.204 70.8298 291.25 70.9099C291.296 70.9901 291.317 71.0913 291.304 71.1925C291.304 71.2304 291.304 71.2684 291.287 71.3063C291.275 71.3443 291.258 71.378 291.233 71.4075C291.208 71.4371 291.179 71.4624 291.149 71.4792C291.116 71.4961 291.087 71.5087 291.049 71.5087C289.662 71.5889 288.275 71.6732 286.884 71.7491C286.825 71.7407 286.767 71.728 286.717 71.7027C286.675 71.6184 286.571 71.5003 286.579 71.378C286.587 71.2557 286.708 71.028 286.784 71.0238ZM290.406 72.8413C290.297 72.9088 290.18 73.0268 290.059 73.0437C289.478 73.1196 288.893 73.1744 288.309 73.2293C288.008 73.2546 287.77 73.1323 287.778 72.7654C287.786 72.3563 288.108 72.2383 288.359 72.2804C288.927 72.3437 289.508 72.3606 290.088 72.3353C290.343 72.3353 290.481 72.4997 290.402 72.8455L290.406 72.8413ZM285.217 74.0684C285.351 74.0347 285.488 74.022 285.622 74.0178C287.314 74.06 289.019 73.9546 290.723 73.71C291.053 73.6678 291.367 73.6847 291.333 74.1865C291.292 74.3383 291.204 74.469 291.087 74.566C290.97 74.6588 290.832 74.7052 290.694 74.6967C288.86 74.7853 287.026 74.8654 285.192 74.9413C285.079 74.954 284.97 74.9118 284.887 74.8317C284.807 74.7516 284.761 74.6335 284.761 74.5112C284.745 74.1696 284.991 74.1106 285.217 74.0642V74.0684ZM277.287 79.7402C277.22 79.4534 277.446 79.2848 277.68 79.2131C279.426 78.648 281.168 78.6354 282.906 78.6902C283.182 78.6986 283.241 78.9348 283.128 79.2257C283.065 79.3354 282.978 79.4281 282.873 79.4914C282.769 79.5546 282.656 79.5884 282.547 79.5842C282.1 79.6095 281.653 79.6306 281.206 79.6179C280.091 79.5968 278.983 79.542 277.855 79.8962C277.659 79.9553 277.358 80.0565 277.287 79.7444V79.7402ZM277.697 81.0474C278.662 80.5288 279.698 80.2715 280.717 80.2926C280.805 80.3011 280.889 80.3474 280.943 80.4191C280.997 80.4908 281.022 80.592 281.018 80.689C281.018 80.7396 281.01 80.7902 280.993 80.8408C280.976 80.8914 280.951 80.9378 280.918 80.9758C280.889 81.0137 280.851 81.0474 280.805 81.077C280.763 81.1023 280.717 81.1191 280.676 81.1234C279.777 81.2035 278.883 81.4438 278.023 81.836C277.918 81.8908 277.772 81.8276 277.659 81.8191C277.459 81.5493 277.358 81.2077 277.692 81.0474H277.697ZM277.191 83.4595C276.928 83.3119 276.761 83.236 276.782 82.9957C276.807 82.7427 276.991 82.6752 277.17 82.6204C277.258 82.5908 277.35 82.5782 277.438 82.5908C279.209 82.9324 281.056 82.8902 282.886 82.4643C283.107 82.4179 283.37 82.4095 283.362 82.7553C283.354 82.8818 283.303 83.0041 283.22 83.1011C283.136 83.1981 283.028 83.2613 282.915 83.274C281.762 83.5987 280.588 83.7378 279.435 83.683C278.641 83.6366 277.86 83.5312 277.191 83.4638V83.4595ZM277.893 90.7759C277.789 90.7127 277.667 90.6241 277.805 90.2825C277.956 90.0042 278.315 90.0759 278.561 90.1771C280.266 90.8813 282.083 90.8139 283.926 90.6199C284.16 90.5946 284.415 90.5988 284.423 90.9066C284.436 91.1934 284.223 91.3621 283.976 91.3958C281.858 91.7205 279.761 91.8934 277.897 90.7717L277.893 90.7759ZM284.924 99.9815C284.874 100.041 284.812 100.083 284.745 100.116C284.678 100.142 284.611 100.154 284.54 100.15C283.659 100.112 282.781 100.015 281.9 99.9309C281.549 99.8971 281.206 99.8339 280.976 99.8044C280.575 99.6104 280.279 99.4248 280.391 99.0158C280.487 98.6531 280.851 98.6278 281.085 98.708C282.255 99.1001 283.437 99.3785 284.72 99.2098C284.766 99.2098 284.812 99.2098 284.849 99.2267C284.891 99.2393 284.929 99.2646 284.962 99.2983C284.995 99.3279 285.021 99.37 285.037 99.4164C285.054 99.4586 285.062 99.5092 285.062 99.5598C285.066 99.6357 285.058 99.7116 285.033 99.7875C285.008 99.8634 284.97 99.9309 284.916 99.9857L284.924 99.9815Z" fill="#FFF5F0"/>
<path d="M285.037 99.7832C285.012 99.8591 284.975 99.9266 284.92 99.9814C284.87 100.04 284.808 100.083 284.741 100.116C284.674 100.142 284.607 100.154 284.536 100.15C283.655 100.112 282.777 100.015 281.896 99.9308C281.545 99.897 281.202 99.8338 280.972 99.8043C280.571 99.6103 280.275 99.4247 280.387 99.0157C280.484 98.653 280.847 98.6277 281.081 98.7079C282.251 99.1 283.433 99.3784 284.716 99.2097C284.762 99.2097 284.808 99.2097 284.845 99.2265C284.887 99.2392 284.925 99.2645 284.958 99.2982C284.991 99.3277 285.017 99.3699 285.033 99.4163C285.05 99.4585 285.058 99.5091 285.058 99.5597C285.063 99.6356 285.054 99.7115 285.029 99.7874L285.037 99.7832Z" fill="#9AA181"/>
<path d="M285.087 98.2358C285.024 98.3202 284.936 98.375 284.844 98.3918C284.038 98.5605 283.223 98.7587 282.476 98.4973C282.229 98.3497 281.886 98.3117 282.037 97.8942C282.062 97.8352 282.095 97.7804 282.141 97.7298C282.183 97.6834 282.233 97.6455 282.288 97.6202C282.342 97.5948 282.396 97.578 282.455 97.578C282.513 97.578 282.567 97.5864 282.618 97.6075C283.294 97.8141 284.03 97.8057 284.74 97.578C284.794 97.5569 284.853 97.5569 284.907 97.5653C284.961 97.578 285.012 97.5991 285.057 97.6328C285.099 97.6708 285.133 97.7171 285.154 97.772C285.174 97.8268 285.183 97.89 285.183 97.9533C285.183 98.0545 285.149 98.1599 285.087 98.24V98.2358Z" fill="#9AA181"/>
<path d="M291.233 71.4035C291.208 71.433 291.178 71.4583 291.149 71.4752C291.116 71.4921 291.087 71.5047 291.049 71.5047C289.662 71.5848 288.275 71.6692 286.884 71.7451C286.825 71.7366 286.767 71.724 286.716 71.6987C286.675 71.6143 286.57 71.4963 286.579 71.374C286.587 71.2517 286.708 71.024 286.783 71.0198C288.208 70.8511 289.649 70.383 291.045 70.7457C291.133 70.7667 291.204 70.8258 291.249 70.9059C291.295 70.986 291.316 71.0872 291.304 71.1884C291.304 71.2264 291.304 71.2643 291.287 71.3023C291.275 71.3402 291.258 71.374 291.233 71.4035Z" fill="#9AA181"/>
<path d="M290.405 72.8414C290.297 72.9088 290.18 73.0269 290.059 73.0438C289.478 73.1197 288.893 73.1745 288.308 73.2293C288.007 73.2546 287.769 73.1323 287.778 72.7655C287.786 72.3564 288.108 72.2383 288.358 72.2805C288.926 72.3438 289.507 72.3606 290.088 72.3353C290.343 72.3353 290.481 72.4998 290.401 72.8456L290.405 72.8414Z" fill="#9AA181"/>
<path d="M291.084 74.5704C290.967 74.6632 290.829 74.7095 290.691 74.7011C288.857 74.7897 287.023 74.8698 285.189 74.9457C285.076 74.9583 284.968 74.9162 284.884 74.8361C284.805 74.7559 284.759 74.6379 284.759 74.5156C284.742 74.174 284.988 74.115 285.214 74.0686C285.348 74.0348 285.486 74.0222 285.619 74.018C287.311 74.0601 289.016 73.9547 290.72 73.7101C291.051 73.668 291.364 73.6848 291.33 74.1866C291.289 74.3385 291.201 74.4692 291.084 74.5662V74.5704Z" fill="#9AA181"/>
<path d="M283.13 79.2215C283.067 79.3311 282.98 79.4239 282.875 79.4872C282.771 79.5504 282.658 79.5842 282.549 79.58C282.102 79.6053 281.655 79.6263 281.208 79.6137C280.093 79.5926 278.985 79.5378 277.857 79.892C277.661 79.951 277.36 80.0522 277.289 79.7402C277.222 79.4534 277.448 79.2848 277.682 79.2131C279.428 78.648 281.171 78.6354 282.909 78.6902C283.184 78.6986 283.243 78.9348 283.13 79.2257V79.2215Z" fill="#9AA181"/>
<path d="M280.995 80.8448C280.978 80.8954 280.953 80.9418 280.92 80.9798C280.891 81.0177 280.853 81.0514 280.807 81.081C280.765 81.1063 280.719 81.1231 280.678 81.1273C279.779 81.2075 278.885 81.4478 278.025 81.84C277.92 81.8948 277.774 81.8316 277.661 81.8231C277.461 81.5533 277.36 81.2117 277.695 81.0514C278.66 80.5328 279.696 80.2755 280.715 80.2966C280.803 80.305 280.886 80.3514 280.941 80.4231C280.995 80.4948 281.02 80.596 281.016 80.693C281.016 80.7436 281.008 80.7942 280.991 80.8448H280.995Z" fill="#9AA181"/>
<path d="M283.221 83.097C283.138 83.194 283.029 83.2573 282.916 83.2699C281.763 83.5946 280.589 83.7338 279.436 83.679C278.642 83.6326 277.861 83.5272 277.192 83.4597C276.929 83.3121 276.762 83.2362 276.783 82.9958C276.808 82.7428 276.992 82.6754 277.172 82.6205C277.259 82.591 277.351 82.5784 277.439 82.591C279.21 82.9326 281.057 82.8904 282.887 82.4645C283.108 82.4181 283.372 82.4097 283.363 82.7555C283.355 82.882 283.305 83.0043 283.221 83.1013V83.097Z" fill="#9AA181"/>
<path d="M285.863 89.0175C285.813 89.1103 285.742 89.1862 285.662 89.2452C285.579 89.3 285.491 89.3296 285.395 89.3338C284.008 89.3717 282.616 89.785 281.234 89.7259C281.1 89.7302 280.97 89.7133 280.845 89.6753C280.645 89.5994 280.411 89.5109 280.507 89.1777C280.54 89.0807 280.603 88.9964 280.682 88.9374C280.761 88.8783 280.853 88.8573 280.941 88.8699C282.416 88.9205 283.895 88.5579 285.374 88.444C285.733 88.4187 285.996 88.5199 285.863 89.0133V89.0175Z" fill="#9AA181"/>
<path d="M283.974 91.4002C281.856 91.7249 279.759 91.8978 277.896 90.7761C277.791 90.7128 277.67 90.6243 277.808 90.2827C277.958 90.0044 278.318 90.0761 278.564 90.1773C280.269 90.8815 282.086 90.814 283.929 90.6201C284.162 90.5948 284.417 90.599 284.426 90.9068C284.438 91.1936 284.225 91.3623 283.979 91.396L283.974 91.4002Z" fill="#9AA181"/>
</g>
<g clip-path="url(#clip3_946_4069)">
<path d="M170.965 78.1309C169.474 76.0559 167.362 74.506 164.934 73.7127C163.785 73.3234 162.602 73.0516 161.43 72.7284C159.164 72.7064 156.887 72.8753 154.654 72.3428C152.407 72.7431 150.126 72.9745 147.937 73.6576C144.565 74.7043 141.921 76.6582 140.621 80.0444C138.748 84.9328 139.394 93.9346 146.112 97.0306C149.079 99.6272 153.461 100.259 155.723 104.391C156.619 101.467 158.687 100.197 160.799 98.9698C161.107 98.7899 161.419 98.6209 161.739 98.4593C165.382 96.6303 168.306 93.9162 170.983 90.9119C172.404 89.3731 173.194 87.3568 173.205 85.2633C173.234 82.7071 172.452 80.2097 170.965 78.1309ZM166.227 82.5786C165.963 82.5419 165.698 82.4978 165.441 82.4537C165.268 82.4243 165.096 82.3949 164.923 82.3692C165.103 82.2591 165.268 82.1636 165.43 82.0864C165.977 81.822 166.48 81.7228 167.23 81.7449C167.369 81.7522 167.512 81.7559 167.67 81.7743C167.766 81.7816 167.865 81.789 167.971 81.8036C168.214 81.8294 168.482 81.8624 168.779 81.9028C168.901 81.9212 169.022 81.9395 169.154 81.9579C169.004 82.0644 168.853 82.1599 168.706 82.2407C168.633 82.2774 168.559 82.3141 168.482 82.3472C167.714 82.6814 166.973 82.6667 166.238 82.5749L166.227 82.5786ZM162.224 80.3713H162.231C162.558 80.1766 163.002 80.0187 163.524 79.8938C163.994 79.7837 164.523 79.7029 165.088 79.6514C166.003 79.5706 166.998 79.578 167.953 79.6735C168.21 79.7029 168.464 79.7322 168.71 79.7726C168.86 79.7983 169.011 79.8241 169.154 79.8534C169.25 79.8718 169.341 79.8902 169.437 79.9122C168.298 80.6651 165.099 80.8708 162.238 80.3676L162.224 80.3713ZM146.769 77.6755L155.308 77.3156C155.224 77.4478 155.128 77.569 155.025 77.6792C154.989 77.7159 154.952 77.7527 154.915 77.7857C154.838 77.8555 154.761 77.9143 154.673 77.9693C154.585 78.0244 154.496 78.0759 154.405 78.1163C154.335 78.1456 154.265 78.175 154.195 78.2044C153.879 78.3109 153.541 78.3366 153.215 78.2925C151.066 78.2228 148.896 79.2548 146.773 78.2632L146.78 77.6755H146.769ZM152.036 79.5119C152.15 79.5266 152.267 79.5413 152.381 79.5596C152.407 79.5596 152.432 79.5706 152.458 79.5743C152.484 79.5853 152.506 79.5927 152.528 79.6037C152.554 79.6184 152.572 79.6331 152.594 79.6514C152.612 79.6735 152.631 79.6955 152.645 79.7212C152.711 79.8314 152.752 80.004 152.763 80.2758C149.468 80.2354 146.163 80.7643 143.045 79.1593C146.038 79.7322 149.064 79.1593 152.036 79.5082V79.5119ZM142.986 90.7614C143.038 90.732 143.089 90.7026 143.137 90.6769C143.24 90.6255 143.342 90.5851 143.442 90.552C143.489 90.5373 143.544 90.5226 143.596 90.5079C143.699 90.4822 143.801 90.4639 143.901 90.4528C144.385 90.4014 144.87 90.4896 145.355 90.5851C145.546 90.6218 145.737 90.6622 145.928 90.6952C146.071 90.7173 146.211 90.7393 146.358 90.754C146.405 90.754 146.453 90.7614 146.501 90.765C147.313 90.8128 148.128 90.7246 148.936 90.8017C149.38 90.8421 149.821 90.9303 150.254 91.1213C147.775 91.9697 145.384 91.3637 142.982 90.7614H142.986ZM150.247 93.0972C150.056 93.167 149.858 93.2257 149.652 93.2735C148.209 93.5967 146.486 93.3359 145.186 92.5867H145.179C145.179 92.5867 145.179 92.5867 145.186 92.5867C147.059 92.4324 148.947 92.5169 150.794 92.8511C150.622 92.9466 150.434 93.0274 150.243 93.0972H150.247ZM146.461 88.8479C146.442 88.8405 146.461 88.723 146.461 88.6349C146.483 88.5614 146.519 88.499 146.574 88.4475C146.593 88.4292 146.615 88.4145 146.637 88.3998C146.648 88.3925 146.659 88.3888 146.666 88.3814C146.743 88.341 146.831 88.33 146.923 88.3484C149.652 88.7854 152.432 88.8185 155.172 88.4439C155.411 88.4108 155.653 88.3961 155.804 88.5687C155.833 88.6055 155.863 88.6569 155.888 88.712C155.899 88.7377 155.907 88.7597 155.91 88.7891C155.921 88.8332 155.921 88.8773 155.91 88.9177C155.903 88.9874 155.877 89.0572 155.837 89.116C155.797 89.1747 155.741 89.2225 155.675 89.2555C155.613 89.2849 155.543 89.3033 155.47 89.2996C152.447 89.542 149.413 90.0011 146.461 88.8515V88.8479ZM161.831 96.8801C161.801 96.9462 161.765 97.0049 161.717 97.0527C161.691 97.0821 161.662 97.1004 161.632 97.1225C161.603 97.1408 161.574 97.1555 161.541 97.1702C161.474 97.1959 161.405 97.2069 161.335 97.2033C161.082 97.2143 160.828 97.2326 160.575 97.262C160.49 97.273 160.409 97.2804 160.321 97.2914C160.068 97.3208 159.814 97.3538 159.561 97.3869C159.473 97.3979 159.392 97.4126 159.304 97.4199C159.062 97.4493 158.812 97.4824 158.566 97.5081C157.416 97.633 156.256 97.6623 155.077 97.2363C154.834 97.1482 154.592 97.0417 154.349 96.9094C154.911 96.1676 155.51 96.3953 156.035 96.3879C157.152 96.3806 158.276 96.4357 159.385 96.3181C159.748 96.2777 160.116 96.2227 160.479 96.1382C160.755 96.0831 161.034 96.0794 161.309 96.1235C161.456 96.1345 161.588 96.1933 161.688 96.2924C161.794 96.3953 161.853 96.5275 161.871 96.6707C161.871 96.7442 161.86 96.814 161.834 96.8801H161.831ZM164.46 94.4487C164.486 94.6911 164.387 94.8307 164.225 94.9225C164.104 94.9886 163.95 95.0254 163.792 95.0511C163.763 95.0584 163.73 95.0621 163.696 95.0657C163.572 95.0841 163.443 95.1025 163.333 95.1282C163.127 95.1759 162.922 95.22 162.72 95.2604C162.514 95.3008 162.305 95.3339 162.103 95.3669C161.14 95.5101 160.156 95.5175 159.12 95.2384C158.944 95.1906 158.764 95.1319 158.584 95.0694C158.198 94.9299 157.802 94.7462 157.398 94.5148C158.514 94.0741 159.197 94.3092 159.87 94.3532C160.49 94.3936 161.115 94.3936 161.735 94.3532C162.249 94.3202 162.764 94.2614 163.274 94.177C163.561 94.1329 163.954 93.9346 164.211 94.0264C164.255 94.0374 164.295 94.0594 164.328 94.0962C164.365 94.1292 164.394 94.1733 164.416 94.232C164.442 94.2871 164.457 94.3532 164.464 94.4304C164.464 94.4377 164.464 94.4451 164.464 94.4524L164.46 94.4487ZM169.654 89.8028C169.654 89.8211 169.643 89.8395 169.639 89.8579C169.635 89.8689 169.628 89.8799 169.624 89.8872C169.606 89.924 169.587 89.9607 169.558 89.9938C169.521 90.0342 169.47 90.0635 169.422 90.0819C169.095 90.2068 168.765 90.3206 168.434 90.4161C167.391 90.7136 166.322 90.8164 165.162 90.4014C164.916 90.3096 164.662 90.1958 164.405 90.0562C165.261 89.6485 166.113 89.5787 166.943 89.5457C167.149 89.5347 167.354 89.531 167.556 89.5236C168.17 89.4979 168.761 89.4575 169.33 89.2702C169.341 89.2702 169.356 89.2702 169.371 89.2813C169.382 89.2886 169.389 89.2923 169.4 89.3033C169.411 89.3143 169.426 89.3217 169.433 89.3327C169.496 89.3914 169.565 89.4833 169.606 89.5494C169.635 89.5971 169.65 89.6485 169.654 89.6999C169.654 89.733 169.654 89.7697 169.654 89.8028ZM158.804 83.6767C162.415 83.842 166.043 83.9852 169.679 83.9962C169.698 83.9962 169.716 84.0073 169.738 84.0256C169.749 84.0366 169.76 84.044 169.767 84.055C169.819 84.1101 169.87 84.1982 169.922 84.2533C168.287 85.1568 161.504 84.9181 158.804 83.6804V83.6767Z" fill="#F05964"/>
<path d="M164.746 57.8433C164.636 57.9094 164.522 57.9755 164.419 58.0489C164.526 57.9792 164.636 57.9094 164.746 57.8433ZM141.501 63.7526C141.299 63.8224 141.105 63.9069 140.91 63.995C141.105 63.9069 141.303 63.8261 141.501 63.7526Z" fill="#ADC17D"/>
<path d="M179.225 60.5499C178.02 58.2691 175.952 57.4869 173.466 58.5887C170.693 59.7566 168.306 61.7031 166.609 64.1932C164.897 66.7457 162.907 69.0779 161.059 71.5129C160.358 72.4384 159.311 72.7836 158.477 72.3686C157.368 71.814 157.644 70.8224 157.849 69.9336C158.066 69.0375 161.787 64.5274 163.336 64.0206C165.404 63.3595 167.178 62.019 168.394 60.2193C169.698 58.2948 169.646 57.3326 167.92 55.7387C167.017 54.8976 167.152 54.4018 167.92 53.6856C168.544 53.1053 169.117 52.4553 169.683 51.8125C170.491 50.9054 171.112 49.844 171.505 48.6944C172.122 46.8801 171.828 45.2604 170.531 43.9309C169.929 43.2588 169.143 42.7887 168.265 42.5684C167.395 42.348 166.473 42.3994 165.625 42.7042C163.406 43.347 161.496 44.7793 160.262 46.7332C158.657 49.3151 157.475 52.1614 157.39 55.1694C157.265 59.9439 156.637 64.7037 156.821 69.4929C156.854 70.367 157.398 71.759 156.513 72.0234C155.271 72.398 155.209 70.8041 154.797 70.0107C153.563 67.6492 153.181 65.2069 154.382 62.6433C155.227 60.8253 155.844 58.9119 156.215 56.947C156.652 54.703 156.582 52.5287 155.04 50.6409C153.82 49.1462 152.487 48.9368 150.926 50.0643C149.421 51.1441 148.818 52.716 148.719 54.5046C148.524 58.0341 149.997 61.0347 151.804 63.9031C152.333 64.7478 152.906 65.4897 152.451 66.6906C151.334 66.0699 150.335 65.4786 149.7 64.5164C147.61 61.3395 144.389 60.1275 140.922 59.2938C139.861 59.0698 138.762 59.18 137.774 59.6133C136.985 59.8741 136.291 60.3699 135.802 61.0384C135.306 61.7068 135.031 62.5111 135.009 63.3411C134.906 65.3134 135.688 66.6209 137.44 67.4582C138.997 68.2038 140.632 68.1597 142.27 67.8843C144.312 67.5427 146.336 67.0983 148.378 66.7971C149.487 66.6319 150.695 66.3564 151.635 67.304C153.046 68.7327 154.269 70.2899 154.658 72.3429C156.891 72.8755 159.172 72.7065 161.434 72.7285C163.425 69.1036 165.25 68.112 169.187 68.538C169.396 68.56 169.609 68.5931 169.819 68.6372C172.72 69.2395 175.339 68.4462 177.763 66.9257C179.988 65.5227 180.525 63.0032 179.228 60.5462L179.225 60.5499ZM152.594 60.2267C152.594 60.5756 152.594 60.9208 152.594 61.2661C152.594 61.3909 152.575 61.5195 152.495 61.6076C152.447 61.659 152.381 61.6994 152.285 61.7141C151.823 60.8988 151.635 59.415 151.749 57.777C151.76 57.5934 151.778 57.4061 151.797 57.2224C151.797 57.1967 151.804 57.1747 151.808 57.1526C151.826 56.9727 151.852 56.7964 151.878 56.6164C151.878 56.587 151.885 56.5577 151.889 56.5283C151.918 56.3373 151.955 56.1463 151.991 55.9553C152.014 55.8525 152.036 55.7497 152.058 55.6468C152.105 55.4412 152.153 55.2355 152.208 55.0335C152.238 54.9343 152.263 54.8315 152.296 54.7323C152.355 54.534 152.421 54.332 152.491 54.141C152.524 54.0419 152.561 53.9464 152.597 53.8509C152.597 56.2234 152.597 58.2544 152.597 60.2304L152.594 60.2267ZM147.312 64.8065C145.318 64.1859 143.225 64.2226 140.724 64.094C140.79 64.061 140.849 64.0279 140.915 63.9985C141.109 63.9104 141.304 63.8259 141.506 63.7561C142.949 63.2383 144.529 63.2163 145.803 63.5835C146.126 63.6753 146.431 63.7965 146.706 63.9398C147.055 64.1197 147.364 64.3364 147.617 64.5825C147.511 64.6633 147.386 64.8322 147.312 64.8102V64.8065ZM162.866 60.7666C162.18 61.5782 161.383 62.4009 160.622 63.0363C160.795 62.6213 160.971 62.2393 161.155 61.8794C161.225 61.7362 161.302 61.5966 161.375 61.4607C161.449 61.3248 161.522 61.1926 161.599 61.0641C161.636 60.998 161.676 60.9355 161.713 60.8731C161.827 60.6894 161.945 60.5095 162.066 60.3369C162.745 59.3673 163.505 58.6401 164.42 58.0451C164.526 57.9753 164.637 57.9055 164.747 57.8394C164.64 58.4014 163.869 59.5766 162.866 60.7666ZM159.557 54.6515C160.92 52.0586 162.517 49.5906 164.328 47.2878C164.497 47.0821 164.677 46.8911 164.872 46.7001C164.934 46.6377 164.997 46.5753 165.066 46.5165C165.103 46.4798 165.147 46.4504 165.191 46.4284C165.243 46.4063 165.294 46.3953 165.345 46.3916C165.401 46.3916 165.452 46.399 165.5 46.421C165.551 46.4394 165.595 46.4688 165.636 46.5055C165.716 46.5753 165.768 46.6708 165.786 46.7773C165.801 46.8838 165.775 46.994 165.72 47.0858C165.661 47.2143 165.584 47.3355 165.492 47.4457C165.154 47.7799 164.839 48.1215 164.53 48.4777C164.38 48.654 164.229 48.834 164.086 49.0139C163.652 49.5575 163.248 50.1231 162.87 50.7034C161.596 52.6389 160.571 54.725 159.462 56.7597C159.451 56.7817 159.436 56.8001 159.425 56.8221C159.418 56.8331 159.414 56.8405 159.407 56.8515C159.396 56.8698 159.377 56.8919 159.363 56.9102C159.26 57.0314 159.094 57.1233 158.705 57.0865C158.797 56.2198 159.083 55.3897 159.55 54.6552L159.557 54.6515ZM157.464 66.9808C157.692 65.1738 157.585 63.3154 158.114 61.5378C158.301 60.9061 158.514 60.3369 159.476 60.1826C159.036 62.2393 161.103 64.7661 159.087 67.0432C158.375 67.8439 156.95 71.0501 157.464 66.9808ZM167.387 66.0369C169.65 64.6302 171.868 63.1244 174.972 62.8967C174.031 63.7378 168.39 66.0957 167.387 66.0369Z" fill="#ADC17D"/>
<path d="M143.039 79.1665C146.15 79.7615 149.294 79.1224 152.379 79.5558C152.592 79.5852 152.739 79.7358 152.757 80.283C149.463 80.2426 146.161 80.7715 143.039 79.1665Z" fill="#FEEDE5"/>
<path d="M158.801 83.6768C162.411 83.842 166.04 83.9853 169.676 83.9963C169.756 83.9963 169.837 84.1616 169.922 84.2534C168.287 85.1569 161.504 84.9181 158.804 83.6768H158.801Z" fill="#FEEDE5"/>
<path d="M146.769 77.6758L155.308 77.3159C155.092 77.6648 154.776 77.9439 154.401 78.1166C154.027 78.2892 153.608 78.3479 153.204 78.2892C151.055 78.2194 148.885 79.2514 146.766 78.2635V77.6758H146.769Z" fill="#FDD7C7"/>
<path d="M146.456 88.6348C146.481 88.5357 146.544 88.4512 146.632 88.3998C146.72 88.3484 146.819 88.3263 146.922 88.3484C149.651 88.7854 152.431 88.8185 155.171 88.4475C155.461 88.4071 155.762 88.3961 155.883 88.7119C155.909 88.7781 155.92 88.8515 155.909 88.9213C155.902 88.9911 155.876 89.0609 155.836 89.1196C155.795 89.1784 155.736 89.2261 155.674 89.2555C155.612 89.2886 155.538 89.3033 155.468 89.2996C152.449 89.542 149.412 89.9974 146.463 88.8515C146.441 88.8442 146.463 88.7266 146.463 88.6348H146.456Z" fill="#FDD7C7"/>
<path d="M154.34 96.9131C154.905 96.1675 155.504 96.3915 156.033 96.3879C157.517 96.3805 159.004 96.4723 160.47 96.1381C160.745 96.083 161.028 96.0793 161.307 96.1234C161.447 96.1344 161.582 96.1932 161.685 96.2924C161.788 96.3915 161.854 96.5274 161.865 96.667C161.865 96.7368 161.854 96.8102 161.828 96.8763C161.803 96.9424 161.766 97.0012 161.715 97.0526C161.66 97.104 161.604 97.1408 161.538 97.1701C161.472 97.1959 161.402 97.2069 161.329 97.2069C159.045 97.306 156.727 98.1765 154.344 96.9131H154.34Z" fill="#FDD7C7"/>
<path d="M157.391 94.5113C158.503 94.0669 159.19 94.3056 159.862 94.3497C161.001 94.4194 162.139 94.3607 163.267 94.177C163.7 94.1109 164.376 93.6849 164.461 94.4452C164.53 95.0585 163.796 95.0218 163.329 95.1319C161.442 95.5653 159.576 95.771 157.391 94.5113Z" fill="#FDD7C7"/>
<path d="M150.26 91.1212C147.785 91.9696 145.386 91.3636 142.984 90.7649C144.152 90.0671 145.339 90.7025 146.506 90.7649C147.766 90.8347 149.041 90.5923 150.26 91.1212Z" fill="#FEEDE5"/>
<path d="M162.223 80.3751C163.585 79.5671 166.953 79.3504 169.436 79.916C168.29 80.6726 165.091 80.8746 162.223 80.3751Z" fill="#FEEDE5"/>
<path d="M164.402 90.0565C166.117 89.2412 167.81 89.7737 169.331 89.2743C169.39 89.2559 169.54 89.4359 169.606 89.5497C169.632 89.5975 169.65 89.6489 169.654 89.7003C169.661 89.7554 169.654 89.8068 169.636 89.8582C169.617 89.9096 169.588 89.9537 169.551 89.9941C169.515 90.0345 169.47 90.0639 169.419 90.0822C167.832 90.6772 166.238 91.0592 164.398 90.0492L164.402 90.0565Z" fill="#FDD7C7"/>
<path d="M145.18 92.5868C147.056 92.4326 148.941 92.5207 150.795 92.8512C149.223 93.7107 146.851 93.5491 145.18 92.5868Z" fill="#FDD7C7"/>
<path d="M169.141 81.9616C167.661 83.0194 166.276 82.564 164.906 82.373C166.078 81.6568 166.761 81.6054 169.141 81.9616Z" fill="#FEEDE5"/>
<path d="M165.788 46.7697C165.803 46.8762 165.777 46.9863 165.722 47.0782C165.663 47.2067 165.586 47.3279 165.494 47.4381C165.156 47.7723 164.84 48.1139 164.532 48.4701C164.381 48.6464 164.231 48.8264 164.088 49.0063C163.654 49.5499 163.25 50.1155 162.872 50.6958C161.597 52.6313 160.573 54.7174 159.46 56.752C159.449 56.7741 159.438 56.7924 159.427 56.8145C159.42 56.8255 159.416 56.8328 159.409 56.8439C159.394 56.8622 159.379 56.8843 159.364 56.9026C159.262 57.0238 159.096 57.1156 158.707 57.0789C158.799 56.2122 159.085 55.3821 159.552 54.6476C160.914 52.0547 162.512 49.5866 164.323 47.2838C164.492 47.0782 164.671 46.8872 164.866 46.6962C164.929 46.6301 164.995 46.5713 165.061 46.5126C165.098 46.4758 165.142 46.4465 165.186 46.4244C165.237 46.4024 165.289 46.3914 165.34 46.3877C165.395 46.3877 165.446 46.395 165.494 46.4171C165.546 46.4354 165.59 46.4648 165.63 46.5015C165.711 46.5713 165.762 46.6668 165.781 46.7733L165.788 46.7697Z" fill="#FEEDE5"/>
<path d="M174.971 62.8931C174.031 63.7341 168.389 66.092 167.387 66.0332C169.649 64.6266 171.867 63.1208 174.971 62.8931Z" fill="#FFF5F0"/>
<path d="M147.616 64.5789C147.51 64.6597 147.385 64.8287 147.311 64.8066C145.317 64.1859 143.224 64.2227 140.723 64.0941C140.789 64.0611 140.848 64.028 140.914 63.9986C141.108 63.9105 141.303 63.826 141.505 63.7562C142.948 63.2384 144.528 63.2164 145.802 63.5836C146.125 63.6791 146.43 63.8003 146.705 63.9399C147.054 64.1198 147.363 64.3365 147.616 64.5826V64.5789Z" fill="#FEEDE5"/>
<path d="M152.592 60.2264C152.592 60.5716 152.592 60.9205 152.592 61.2658C152.592 61.387 152.574 61.5155 152.497 61.6073C152.449 61.6587 152.383 61.6991 152.287 61.7138C151.825 60.8985 151.637 59.4147 151.751 57.7767C151.762 57.5931 151.781 57.4094 151.799 57.2221C151.799 57.1964 151.806 57.1744 151.81 57.1523C151.828 56.9761 151.854 56.7961 151.88 56.6161C151.88 56.5867 151.887 56.5574 151.891 56.528C151.92 56.337 151.957 56.146 151.994 55.955C152.016 55.8522 152.038 55.7494 152.06 55.6465C152.107 55.4409 152.159 55.2352 152.21 55.0332C152.24 54.934 152.265 54.8312 152.298 54.732C152.361 54.5337 152.423 54.3317 152.493 54.1407C152.526 54.0416 152.563 53.9461 152.6 53.8506C152.6 56.2231 152.6 58.2541 152.6 60.2301L152.592 60.2264Z" fill="#FEEDE5"/>
<path d="M164.746 57.8394C164.639 58.4086 163.868 59.5802 162.869 60.7665C162.182 61.5782 161.385 62.4008 160.625 63.0362C160.798 62.6212 160.974 62.2392 161.158 61.8793C161.231 61.7361 161.304 61.5965 161.378 61.4606C161.451 61.3247 161.528 61.1925 161.602 61.064C161.639 60.9979 161.679 60.9354 161.716 60.873C161.83 60.6894 161.947 60.5094 162.068 60.3368C162.748 59.3672 163.508 58.64 164.423 58.045C164.529 57.9752 164.639 57.9055 164.749 57.8394H164.746Z" fill="#FEEDE5"/>
</g>
<g clip-path="url(#clip4_946_4069)">
<path d="M330.623 24.4631C331.353 25.004 331.495 25.7517 331.762 26.445C333.615 31.2617 337.06 45.8316 337.462 48.3615C338.217 47.0076 341.26 29.9949 342.468 24.1219C342.625 23.3742 342.625 22.5938 342.72 21.8352C342.757 21.5375 342.83 21.1855 343.195 21.1455C343.716 21.0838 343.804 21.5194 343.881 21.8933C343.921 22.1945 343.939 22.4994 343.943 22.808C344.351 29.4069 342.998 46.1474 342.786 47.9659C342.662 49.5738 341.91 51.0112 341.458 52.5902C342.585 51.9296 342.957 50.7572 343.512 49.6936C344.078 48.612 344.738 47.5811 345.351 46.5248C346.001 45.4032 346.654 44.2817 347.304 43.1637C348.033 42.0929 348.767 41.0221 349.5 39.9477C349.683 39.6864 349.975 39.4432 350.256 39.5702C350.686 39.7553 350.639 40.1873 350.464 40.5503C349.971 41.5013 349.635 42.5248 349.46 43.5811C348.617 45.7336 347.8 47.8896 346.931 50.0239C345.585 53.1383 343.877 56.082 341.848 58.8043C339.856 61.6101 339.071 66.8225 338.947 67.0185C337.345 68.3216 335.513 67.8969 334.05 67.0185C334.429 65.2617 333.229 64.0602 332.557 62.5067C330.787 58.4232 328.39 48.9423 328.218 48.5103C327.999 47.6501 327.291 46.474 328.379 46.0639C329.247 45.7372 329.546 47.0729 329.97 47.7553C330.919 49.2798 331.809 50.8406 332.721 52.3869L333.203 52.1945C332.064 48.0566 331.772 43.7699 330.769 39.6029C330.342 34.5684 329.853 29.5339 330.627 24.4668L330.623 24.4631Z" fill="#82A088"/>
<path d="M338.944 67.0183C339.05 70.4448 345.516 75.4248 343.648 84.6372C342.819 88.7098 335.258 90.8114 330.31 88.4811C328.595 87.6716 327.003 86.2524 325.759 84.0019C323.081 79.1744 327.095 72.3794 330.39 71.1707C332.371 70.4448 334.046 67.0146 334.046 67.0146H338.944V67.0183Z" fill="#FEEDE5"/>
<path d="M335.266 85.8279C336.274 84.0021 336.847 81.9658 336.941 79.8824C337.033 78.4595 336.96 77.033 336.901 75.6065C336.89 75.3742 337.23 75.3234 337.288 75.5484C338.117 78.7608 337.66 82.0021 336.777 85.4323C339.04 84.0965 340.014 82.3796 339.865 80.0747C339.792 78.3651 339.54 76.6628 339.095 75.0076C338.985 74.6301 338.854 74.1619 339.427 74.0893C339.81 74.0384 339.945 74.4486 340.007 74.7608C340.375 76.6337 340.821 78.5067 340.788 80.4268C340.737 83.6029 338.963 85.6791 336.244 87.0766C335.956 87.2472 335.635 87.3452 335.299 87.3742C334.967 87.3996 334.635 87.3452 334.321 87.2217C332.909 86.6591 331.544 85.9949 330.227 85.2326C328.329 84.0239 327.603 82.1219 327.84 79.9295C328.056 77.9441 328.946 76.2453 330.249 74.6664C330.442 74.4305 330.844 74.5684 330.833 74.8733C330.822 75.1383 330.639 75.356 330.526 75.5666C329.869 76.7825 329.048 77.9114 328.753 79.3016C328.508 80.3179 328.614 81.3887 329.059 82.3361C329.504 83.2835 330.256 84.0566 331.198 84.5248C331.599 84.3034 331.438 83.9513 331.344 83.6755C330.512 81.1092 331.311 78.739 332.194 76.3724C332.27 76.1909 332.365 76.0167 332.478 75.857C332.508 75.7952 332.544 75.7408 332.595 75.7009C332.646 75.6573 332.701 75.6246 332.767 75.6065C332.829 75.5884 332.894 75.5847 332.957 75.5956C333.022 75.6029 333.084 75.6283 333.139 75.6609C333.201 75.7335 333.241 75.817 333.263 75.9041C333.285 75.9949 333.285 76.0893 333.263 76.18C333.088 76.6737 332.818 77.1383 332.643 77.6355C331.979 79.5158 331.417 81.4178 332.168 83.4141C332.438 84.1364 332.712 84.8697 333.778 85.2871C333.635 82.9495 333.759 80.6011 334.146 78.2925C334.219 77.9041 334.241 77.5085 334.347 77.131C334.38 77.0439 334.438 76.9713 334.507 76.9096C334.58 76.8515 334.664 76.808 334.756 76.7898C334.821 76.7825 334.887 76.7898 334.949 76.8188C335.011 76.8442 335.066 76.8842 335.11 76.935C335.153 76.9858 335.186 77.0439 335.204 77.1056C335.223 77.1709 335.226 77.2399 335.212 77.3052C335.044 78.6773 334.825 80.0421 334.683 81.4141C334.54 82.8261 334.285 84.2599 335.274 85.8388L335.266 85.8279Z" fill="#F05964"/>
</g>
<g clip-path="url(#clip5_946_4069)">
<path d="M383.458 44.8745C382.926 44.3114 382.202 43.9652 381.431 43.8981C380.983 43.8464 380.54 43.7689 380.108 43.6656C379.644 43.5416 379.249 43.2678 379.379 42.7253C379.488 42.2603 379.926 42.2603 380.322 42.2965C380.832 42.3481 381.343 42.4205 381.853 42.4618C382.234 42.4928 382.671 42.5703 382.827 42.095C382.864 41.9865 382.88 41.8728 382.869 41.7643C382.859 41.6507 382.827 41.5422 382.775 41.444C382.718 41.3459 382.645 41.258 382.557 41.1857C382.468 41.1185 382.364 41.0669 382.254 41.0359C381.468 40.7724 380.733 40.3488 379.884 40.2764C379.499 40.2454 379.123 40.1886 378.748 40.1008C378.41 40.0233 378.175 39.8166 378.28 39.424C378.316 39.3 378.399 39.1915 378.509 39.1295C378.623 39.0623 378.754 39.0417 378.879 39.0675C379.644 39.1347 380.405 39.2432 381.176 39.3207C381.879 39.393 382.176 39.083 381.858 38.4269C381.025 36.7116 380.249 34.9654 379.134 33.3948C378.863 32.9609 378.457 32.625 377.983 32.4287C377.503 32.2324 376.977 32.1911 376.477 32.3047C375.341 32.4907 374.201 32.6354 373.06 32.8007C372.778 32.842 372.528 32.7955 372.44 32.5165C372.414 32.4391 372.403 32.3616 372.414 32.2789C372.424 32.1962 372.45 32.1239 372.492 32.0567C372.533 31.9896 372.596 31.9327 372.664 31.8914C372.731 31.8501 372.81 31.8243 372.893 31.8191C373.325 31.7158 373.773 31.6641 374.211 31.5763C374.779 31.4833 375.341 31.3541 375.894 31.194C375.987 31.1733 376.081 31.1371 376.159 31.0803C376.237 31.0235 376.305 30.9511 376.352 30.8685C376.399 30.7858 376.43 30.6928 376.441 30.5947C376.451 30.4965 376.441 30.4035 376.404 30.3105C376.352 30.1555 376.248 30.0315 376.107 29.9489C375.967 29.8662 375.8 29.8404 375.638 29.8714C374.81 29.9437 373.987 30.0625 373.169 30.1865C372.726 30.2537 372.294 30.3983 371.856 30.4655C371.512 30.5172 371.205 30.4087 371.184 29.9954C371.174 29.8662 371.221 29.7422 371.304 29.644C371.387 29.5459 371.507 29.4839 371.637 29.4736C372.2 29.3599 372.784 29.3134 373.336 29.1687C373.846 29.0344 374.701 29.0964 374.591 28.3421C374.471 27.5362 373.711 27.8565 373.164 27.9495C372.341 28.089 371.523 28.2388 370.705 28.368C370.309 28.4299 369.897 28.43 369.835 27.9133C369.793 27.5362 370.101 27.3863 370.413 27.2675C371.231 26.9524 372.216 27.0815 373.034 26.1981C371.523 24.6378 370.809 22.6023 369.845 20.6959C369.012 15.948 369.267 11.2156 369.986 6.48321C370.184 5.16579 370.476 3.86387 370.741 2.56194C370.809 2.22613 371.023 1.94714 371.387 2.00397C371.752 2.0608 371.877 2.39145 371.804 2.7376C371.58 3.8587 371.325 4.96947 371.111 6.09057C371.017 6.59171 370.96 7.09801 370.939 7.60432C370.919 8.22945 371.184 8.57559 371.882 8.41027C372.257 8.32244 372.632 8.23461 373.008 8.15712C373.445 8.06412 373.987 7.9143 374.154 8.4671C374.336 9.07673 373.773 9.15423 373.336 9.24722C372.893 9.32472 372.455 9.42805 372.028 9.5572C371.46 9.70186 370.981 10.0635 370.679 10.5595C370.549 10.7455 370.476 10.9625 370.471 11.1846C370.471 11.4119 370.533 11.6289 370.658 11.8201C370.96 12.1869 371.351 11.9492 371.705 11.8046C372.169 11.5876 372.643 11.4068 373.133 11.2569C373.57 11.1484 374.086 11.1433 374.268 11.6702C374.471 12.254 373.982 12.4452 373.555 12.5847C373.065 12.7397 372.549 12.8017 372.07 12.9722C371.643 13.1117 371.247 13.308 370.882 13.5611C370.695 13.6955 370.564 13.8866 370.502 14.1036C370.444 14.3206 370.46 14.5582 370.554 14.7649C370.793 15.3332 371.283 15.1162 371.705 14.9664C372.059 14.8217 372.424 14.6977 372.794 14.5996C373.185 14.5169 373.747 14.1294 373.898 14.8166C374.034 15.4055 373.429 15.4727 373.023 15.6174C370.189 16.63 369.944 17.0846 370.731 19.9158C370.82 20.2206 370.939 20.5151 371.049 20.8147C371.471 22.0133 372.127 23.1189 372.987 24.0644C375.987 27.6137 378.795 31.3231 381.405 35.1669C381.546 35.3787 381.775 35.7352 381.942 35.5905C382.77 34.8517 383.666 35.4665 384.515 35.389C384.854 35.358 385.161 35.2806 385.219 34.8982C385.234 34.7381 385.208 34.5779 385.13 34.4384C385.057 34.2989 384.937 34.1801 384.791 34.1078C384.338 33.8288 383.807 33.8805 383.302 33.7875C382.656 33.6686 381.911 33.8391 381.369 33.2708C381.999 32.1911 383.093 32.8885 383.864 32.4287C383.968 31.6744 383.531 31.1061 383.114 30.5585C382.379 29.5975 381.624 28.6521 380.837 27.7325C379.311 25.9294 377.837 24.0954 376.998 21.8532C376.946 20.1483 376.368 18.526 376.305 16.8108C376.206 14.2069 376.305 11.5979 376.613 9.01474C376.644 8.70475 376.732 8.39994 376.863 8.11579C376.915 8.04346 376.988 7.98663 377.071 7.95046C377.149 7.9143 377.243 7.89363 377.331 7.8988C377.482 7.9298 377.706 8.14162 377.706 8.27078C377.706 8.90624 377.66 9.53654 377.571 10.1668C377.081 13.0548 377.029 15.9997 377.425 18.9032C377.581 19.9674 377.696 21.0524 378.248 22.0185C378.926 23.868 380.014 25.5523 381.421 26.942C386.203 31.7416 387.985 37.5176 387.235 44.1409L386.537 44.2029C386.094 43.7947 386.203 43.2884 386.271 42.7821C386.365 42.219 386.427 41.6559 386.458 41.0876C386.516 37.0268 386.068 36.505 382.484 36.4068C382.432 36.4068 382.379 36.4585 382.327 36.4895C382.166 36.908 382.52 37.1921 382.614 37.5434C383.249 39.9148 384.437 42.1363 384.593 44.6368C384.244 44.8177 383.854 44.8952 383.463 44.8693L383.458 44.8745Z" fill="#8CA68D"/>
</g>
<defs>
<clipPath id="clip0_946_4069">
<rect width="112.659" height="88.8948" fill="white" transform="translate(0 11.9941) rotate(-6.62322)"/>
</clipPath>
<clipPath id="clip1_946_4069">
<rect width="48.4058" height="90.247" fill="white" transform="translate(220.969 13.4253) rotate(33.6271)"/>
</clipPath>
<clipPath id="clip2_946_4069">
<rect width="27.9125" height="85.9411" fill="white" transform="translate(269.422 24.4434)"/>
</clipPath>
<clipPath id="clip3_946_4069">
<rect width="44.9171" height="61.951" fill="white" transform="translate(135 42.4399)"/>
</clipPath>
<clipPath id="clip4_946_4069">
<rect width="25.7089" height="68.3122" fill="white" transform="translate(324.879 21.1382)"/>
</clipPath>
<clipPath id="clip5_946_4069">
<rect width="25.7089" height="99.5301" fill="white" transform="translate(369.316 -2)"/>
</clipPath>
</defs>
</svg>
