<svg width="126" height="127" viewBox="0 0 126 127" fill="none" xmlns="http://www.w3.org/2000/svg">
<g clip-path="url(#clip0_968_4539)">
<path d="M86.2824 68.3889C99.5327 75.7357 102.182 90.1534 103.103 95.1901C103.829 99.1557 106.673 117.777 93.8935 131.389C81.5261 144.556 58.1457 149.182 47.0351 138.99C38.8877 131.513 40.1662 118.664 41.4284 105.989C42.7068 93.1452 44.6624 73.5393 59.4513 66.5874C71.9649 60.7067 85.2802 67.8317 86.2878 68.3889L86.2824 68.3889Z" fill="#D9C9BC"/>
</g>
<path d="M20.7989 44.7282C25.5498 50.1112 29.3309 54.3905 35.2194 55.3264C37.37 55.6672 39.8564 55.5699 41.0266 57.3227C41.3082 57.7555 42.0829 59.1513 39.8185 66.1248C38.7784 69.3383 38.123 70.5502 37.0179 73.5203C36.7145 74.3426 36.0699 76.1279 34.2172 82.7227C32.4458 89.047 31.4382 92.623 30.8477 95.3442C30.7611 95.7554 30.6798 96.1503 30.604 96.529C29.2497 103.751 28.5779 107.365 30.2085 109.924C32.7383 113.895 38.5509 115.053 42.8251 114.323C43.8976 114.144 48.6756 113.338 51.032 109.529C51.4762 108.804 51.7579 108.112 51.9042 107.419C52.5434 104.53 51.1079 101.555 51.2379 95.9285C51.2812 94.0242 51.5304 86.6287 55.8425 79.9257C57.3972 77.5129 61.9638 70.4203 70.0625 69.3275C79.0495 68.1103 85.9347 75.1433 87.2836 76.5228C90.561 79.8716 92.5382 84.957 96.4982 95.1224C97.5816 97.914 98.3617 100.121 99.0171 101.928C100.545 106.143 101.384 108.182 103.909 110.319C105.946 112.045 110.713 116.108 116.52 114.717C120.242 113.825 123.497 110.92 124.732 107.317C125.783 104.265 125.036 101.674 123.958 98.0114C123.952 97.9843 123.936 97.9465 123.931 97.9194C122.419 92.7853 119.667 88.9713 117.322 85.7198C115.577 83.2962 115.626 83.729 114.521 82.1222C110.924 76.8799 110.799 72.8765 108.107 62.7219C106.428 56.3489 106.417 57.6852 105.507 53.7196C103.335 44.2684 104.575 41.8176 103.107 36.5212C100.799 28.2114 94.6726 23.1369 91.2923 20.3236C83.2207 13.6206 74.7971 11.9111 70.6692 11.1212C64.1849 9.88774 59.0494 10.2448 49.4394 10.9211C38.085 11.7217 37.5108 13.1013 32.0124 12.1167C25.1489 10.894 18.9788 8.41081 14.3904 10.1204C10.3763 11.6135 12.5973 11.6785 12.1911 12.5224C6.81725 23.6562 18.8921 42.5642 20.7989 44.7228L20.7989 44.7282Z" fill="#383737"/>
<path d="M16.4756 10.7749C16.611 10.7749 16.741 10.6938 16.8006 10.5639C17.4398 9.11945 17.7865 7.59383 17.8353 6.03033C17.8894 4.08814 17.4615 2.12971 16.6002 0.366052C16.5135 0.192931 16.2968 0.117191 16.1234 0.203751C15.9501 0.290311 15.8743 0.501302 15.9609 0.679832C16.7735 2.34071 17.1798 4.18552 17.1256 6.0141C17.0823 7.48563 16.7573 8.92469 16.156 10.2826C16.0747 10.4611 16.156 10.6721 16.3347 10.7479C16.3835 10.7695 16.4322 10.7803 16.4756 10.7803L16.4756 10.7749Z" fill="#47261C"/>
<path d="M16.4798 11.8731L16.4852 11.8731C16.6802 11.8731 16.8373 11.7108 16.8319 11.516C16.794 9.1789 16.2793 6.93916 15.2934 4.87253C14.7029 3.62823 13.9446 2.45426 13.0399 1.3939C12.9153 1.24242 12.6878 1.22619 12.5415 1.35603C12.3952 1.48046 12.3736 1.70768 12.5036 1.85375C13.3649 2.86542 14.0908 3.98529 14.6542 5.17549C15.5968 7.15556 16.0897 9.29251 16.1222 11.5268C16.1222 11.7216 16.2848 11.8731 16.4744 11.8731L16.4798 11.8731Z" fill="#47261C"/>
<path d="M2.84091 21.6004C2.84091 21.6004 2.86258 21.6004 2.87342 21.6004C4.99152 21.4381 6.91461 20.6916 8.44225 19.4418C9.67194 18.4356 10.6254 17.1372 11.2808 15.5845C11.3675 15.3789 11.27 15.1409 11.0641 15.0543C10.8583 14.9678 10.6199 15.0651 10.5333 15.2707C9.93197 16.7044 9.0598 17.8946 7.93303 18.8143C6.53541 19.9558 4.76942 20.6375 2.81924 20.7889C2.59714 20.8052 2.42921 20.9999 2.44546 21.2271C2.46171 21.4381 2.64047 21.6004 2.85174 21.6004L2.84091 21.6004Z" fill="#47261C"/>
<path d="M4.06895 17.5807C4.53483 17.5807 4.98988 17.5591 5.43951 17.5158C7.89348 17.2886 10.1037 16.4717 12.0213 15.0867C12.2001 14.9569 12.2434 14.7026 12.108 14.5186C11.978 14.3347 11.7234 14.2968 11.5392 14.4267C9.74613 15.7251 7.66595 16.4933 5.36366 16.7043C3.97145 16.8341 2.50883 16.753 1.01911 16.4608C0.797009 16.4176 0.585737 16.5636 0.5424 16.78C0.499064 17.0018 0.645324 17.2128 0.86201 17.2561C1.94544 17.4671 3.01804 17.5699 4.06355 17.5699L4.06895 17.5807Z" fill="#47261C"/>
<path d="M55.1125 16.2335C56.9381 17.5102 56.1959 21.1999 53.8936 22.4063C52.9673 22.8932 51.4288 23.0717 50.8871 22.2602C49.5057 20.199 53.1786 14.8864 55.1125 16.2389L55.1125 16.2335Z" fill="white"/>
<mask id="mask0_968_4539" style="mask-type:alpha" maskUnits="userSpaceOnUse" x="50" y="16" width="7" height="7">
<path d="M55.1125 16.2335C56.9381 17.5102 56.1959 21.1999 53.8936 22.4063C52.9673 22.8932 51.4288 23.0717 50.8871 22.2602C49.5057 20.199 53.1786 14.8864 55.1125 16.2389L55.1125 16.2335Z" fill="white"/>
</mask>
<g mask="url(#mask0_968_4539)">
<circle cx="52" cy="19" r="2" fill="black"/>
</g>
<path d="M44.7401 51.1768C45.699 51.1768 46.9124 50.9983 48.1475 50.3437C50.5473 49.0724 51.4303 46.9029 51.6958 46.0265C51.8095 45.6532 51.5983 45.2583 51.2245 45.1393C50.8453 45.0257 50.4552 45.2367 50.3361 45.6099C50.1681 46.1618 49.4585 48.039 47.4758 49.094C45.764 49.9975 44.0955 49.7702 43.4563 49.6296C43.0717 49.543 42.6925 49.7865 42.6112 50.1652C42.5245 50.5493 42.7683 50.928 43.1475 51.0091C43.478 51.0849 44.0359 51.1768 44.7293 51.1768L44.7401 51.1768Z" fill="#F7A6B1"/>
<path d="M12.0879 7.32877C11.9145 7.38287 10.1431 7.95092 9.28178 9.73081C8.44754 11.462 9.04884 13.1662 9.48221 14.3997C9.921 15.6385 10.5711 17.4942 12.0879 18.1326C14.9048 19.3228 20.1215 16.0335 19.8994 12.3979C19.7477 9.92557 17.1366 8.21601 15.4953 7.59927C14.7802 7.33418 13.5451 6.89056 12.0933 7.33418L12.0879 7.32877Z" fill="#F7A6B1"/>
<path d="M84.8617 38.3443C87.3535 38.3443 89.6829 37.1271 90.9289 35.0334C92.3482 32.6476 92.1802 29.4719 90.5334 27.6433C89.5312 26.5343 87.9765 25.8634 86.2647 25.8147C84.1303 25.7444 82.0122 26.6154 80.4033 28.1897C80.2625 28.325 80.2625 28.5522 80.3979 28.6929C80.5334 28.8335 80.7609 28.8335 80.9017 28.6929C82.3752 27.2538 84.2983 26.4585 86.243 26.5235C87.7598 26.5721 89.1304 27.151 90.0079 28.1194C91.4543 29.7262 91.5898 32.5394 90.3221 34.6709C88.8974 37.0622 85.8801 38.1766 82.9927 37.3813C82.8086 37.3272 82.6081 37.4409 82.554 37.6302C82.4998 37.8196 82.6135 38.0143 82.8031 38.063C83.4911 38.2524 84.1845 38.3443 84.8617 38.3443Z" fill="#A19287"/>
<defs>
<clipPath id="clip0_968_4539">
<rect width="64" height="63" fill="white" transform="matrix(-1 1.25958e-08 1.25958e-08 1 104 64)"/>
</clipPath>
</defs>
</svg>
