<svg width="475" height="400" viewBox="0 0 475 400" fill="none" xmlns="http://www.w3.org/2000/svg">
<g clip-path="url(#clip0_848_9039)">
<path d="M18.7487 367.767C26.1425 369.859 171.371 405.008 224.681 377.259C234.777 372.006 339.716 387.219 359.979 393.51C390.038 402.837 437.578 402.409 421.808 390.254C411.427 382.251 410.262 368.511 426.626 367.87C451.47 366.903 516.168 330.399 436.453 325.423C346.816 319.829 242.67 333.949 242.67 333.949C242.67 333.949 236.694 325.661 216.082 328.363C201.485 330.28 198.822 335.866 198.822 335.866C198.822 335.866 177.489 322.079 147.422 322.452C147.121 322.452 146.812 322.452 146.511 322.475C113.33 323.228 76.2109 327.776 60.3773 329.076C15.8324 332.728 -25.0592 355.358 18.7566 367.775L18.7487 367.767Z" fill="#7E923E"/>
<path d="M343.039 195.951C343.039 195.951 344.513 201.727 345.749 201.561C346.986 201.394 349.862 195.246 349.862 195.246L348.158 193.043L343.047 195.951H343.039Z" fill="#D79A70"/>
<path d="M326.699 177.711C328.062 195.159 329.868 201.458 331.232 218.906C331.493 222.25 331.319 236.734 331.58 240.078C331.794 242.772 332.999 245.291 334.964 247.146C341.502 253.318 350.655 257.747 357.193 263.92C366.98 273.159 375.586 294.679 386.015 311.327C382.6 315.693 380.095 313.545 376.688 317.911C363.699 303.704 322.34 264.617 318.52 262.169C314.257 259.435 311.23 255.133 310.112 250.188C305.08 228.034 300.056 205.879 295.023 183.725L326.699 177.711Z" fill="#62919D"/>
<path d="M226.268 281.589L269.284 260.314C269.442 260.021 282.827 236.409 282.986 236.116C283.406 235.331 299.104 205.119 299.524 204.334C304.295 200.586 309.066 196.838 313.836 193.083C315.231 191.989 315.469 189.969 314.375 188.582C313.282 187.187 311.269 186.95 309.874 188.043L294.516 200.111C294.334 200.452 284.008 221.576 281.448 225.696C271.59 241.504 264.798 255.093 264.616 255.473C250.883 262.264 237.157 269.054 223.423 275.837C219.619 277.723 222.464 283.467 226.268 281.589Z" fill="#313B23"/>
<path d="M335.636 160.667L337.768 167.561C340.058 173.186 341.889 184.985 337.039 197.068C331.547 210.752 327.593 214.167 321.847 228.517C318.598 236.639 311.181 246.401 308.011 254.491C307.099 256.804 306.83 259.308 307.155 261.78C308.066 268.65 309.786 282.786 308.716 288.895C307.282 297.088 303.779 326.548 303.731 327.657C300.688 327.657 294.341 327.665 291.297 327.665C289.514 315.693 289.324 305.487 287.026 293.982C284.443 281.059 285.203 267.517 283.761 255.117C283.515 253.017 283.587 250.885 283.896 248.794C286.305 232.431 288.714 216.077 291.123 199.715C292.89 187.718 294.658 175.722 296.425 163.718C316.665 162.157 315.389 162.22 335.62 160.659L335.636 160.667Z" fill="#82B1C1"/>
<path d="M269.276 239.103L216.83 229.024L137.273 281.748L269.276 239.103Z" fill="#271819"/>
<path d="M240.102 334.725C246.664 325.035 234.547 294.077 233.144 290.583L230.164 291.779C234.293 302.072 245.087 334.591 234.063 334.591C219.268 334.591 184.233 299.235 183.876 298.879L181.594 301.129C193.053 312.753 231.012 348.156 240.094 334.733L240.102 334.725Z" fill="#313B23"/>
<path d="M351.026 123.181C353.166 127.546 357.707 154.724 356.771 163.813C355.852 172.774 354.212 178.923 356.787 181.728C354.449 186.585 349.639 188.986 344.845 191.855C344.282 191.506 343.569 191.371 342.602 191.609L340.193 193.748C340.193 193.748 338.323 187.465 340.193 181.72C342.063 175.976 342.333 141.223 334.915 132.134C327.497 123.046 351.026 123.181 351.026 123.181Z" fill="#FBBB8E"/>
<path d="M351.025 123.181C351.025 123.181 327.496 123.046 334.922 132.134C335.896 133.331 336.736 134.963 337.458 136.92C341.317 136.461 348.758 135.597 353.965 135.185C352.919 129.456 351.809 124.781 351.025 123.181Z" fill="#D79A70"/>
<path d="M151.045 242.914C130.457 256.685 134.086 280.369 150.697 289.053C164.24 296.137 179.527 298.673 191.105 286.074C205.884 269.997 207.105 255.465 200.107 244.562C188.22 226.053 169.47 224.5 151.053 242.914H151.045Z" fill="#E5893C"/>
<path d="M177.086 264.292C186.358 273.785 191.176 281.811 186.587 285.995C183.322 288.974 159.342 267.493 157.171 261.416C155.974 258.064 154.865 253.215 156.038 251.789C157.908 249.507 169.858 256.891 177.086 264.292Z" fill="#FAAA63"/>
<path d="M161.221 246.448C160.959 248.54 185.97 256.495 188.379 266.828C189.908 273.396 193.498 276.13 195.131 275.829C197.056 275.48 197.754 269.752 197.476 265.869C197.112 260.703 194.901 256.939 193.823 255.331C190.471 250.315 186.049 248.12 182.372 246.298C179.178 244.713 173.956 242.201 167.244 242.772C166.594 242.827 161.459 244.531 161.221 246.448Z" fill="#FAAA63"/>
<path d="M148.651 253.128C150.672 253.31 150.157 259.205 153.873 266.891C154.967 269.157 156.496 276.32 162.828 278.824C189.55 289.394 163.026 295.733 154.127 287.556C147.779 281.732 144.594 275.488 144.078 274.038C142.921 270.742 141.36 262.985 142.858 257.771C143.555 255.354 146.963 252.977 148.643 253.128H148.651Z" fill="#FAAA63"/>
<path d="M161.642 241.124C161.864 241.488 168.869 233.588 182.46 241.163C198.151 249.911 194.918 255.283 200.703 257.589C202.193 258.183 193.063 222.36 164.661 234.674C162.212 235.735 161.23 240.442 161.642 241.124Z" fill="#FAAA63"/>
<path d="M157.946 244.42C157.597 243.413 156.25 243.54 154.047 242.605C152.359 241.884 152.589 241.575 148.943 239.174C146.653 237.669 146.257 235.292 144.133 236.639C143.824 236.837 144.577 237.914 145.457 239.19C146.923 241.322 147.842 242.106 149.427 244.222C151.202 246.599 151.345 247.344 151.361 247.851C151.424 249.546 149.72 250.418 150.1 251.076C150.441 251.662 152.105 251.67 153.159 250.917C154.166 250.204 153.857 249.356 155.045 248.318C155.886 247.589 156.242 247.827 156.94 247.106C157.51 246.512 158.247 245.331 157.938 244.42H157.946Z" fill="#A75B48"/>
<path d="M231.654 266.344C216.264 272.176 188.48 259.633 194.59 240.149C197.601 230.53 208.847 230.062 211.985 222.337C214.616 215.839 209.631 209.492 213.681 203.233C215.908 199.794 218.848 199.517 222.541 199.715C223.04 199.739 223.682 199.929 224.229 199.952C224.538 199.96 224.823 199.913 224.989 199.921C227.216 200.024 227.929 199.976 229.855 199.564C230.014 199.533 232.835 199.952 233.128 200.032C238.033 201.41 239.484 207.448 239.008 211.909C238.501 216.679 235.379 221.164 235.965 226.045C236.417 229.801 240.157 232.986 242.289 235.973C250.388 247.32 244.032 261.638 231.654 266.329V266.344Z" fill="#E8A423"/>
<path d="M229.847 199.572C227.921 199.976 227.208 200.024 224.981 199.929C224.815 199.921 224.529 199.968 224.22 199.96C223.674 199.944 223.032 199.754 222.532 199.723C224.363 196.006 221.859 193.328 221.082 190.119C220.306 186.878 223.444 189.224 225.211 188.915C226.344 188.717 228.31 186.522 229.181 187.972C230.576 190.301 230.758 196.965 229.847 199.572Z" fill="#A75B48"/>
<path d="M213.379 263.737C206.865 261.535 202.419 252.819 203.465 246.163C204.82 237.494 213.656 232.685 216.232 224.381L216.676 224.119L217.468 224.317C216.905 226.552 215.138 228.422 213.918 230.371C209.401 237.59 202.625 242.352 204.701 252.288C205.478 256.02 207.903 258.579 210.867 260.94C211.849 261.725 214.124 262.398 213.387 263.73L213.379 263.737Z" fill="#C0812B"/>
<path d="M218.493 259.649C217.24 258.904 215.933 254.372 215.64 252.898C213.761 243.619 221.028 238.287 222.74 230.007C222.867 229.397 222.407 226.18 223.303 226.251C224.151 226.314 223.873 228.723 223.77 229.294C222.249 237.827 212.177 248.088 217.859 256.876C218.152 257.335 219.491 258.651 219.523 258.769C219.657 259.316 219.134 260.021 218.493 259.641V259.649Z" fill="#C0812B"/>
<path d="M226.677 260.164C226.083 260.338 224.704 260.275 225.132 259.483C225.211 259.332 227.866 258.865 228.428 258.476C233.722 254.784 235.022 245.505 233.484 239.65C233.223 238.659 231.781 236.892 231.717 236.187C231.678 235.791 231.781 235.323 232.209 235.331C232.787 235.347 233.017 236.092 233.239 236.512C236.702 243.239 234.879 257.708 226.677 260.164Z" fill="#C0812B"/>
<path d="M228.47 220.427H228.311C227.955 220.451 227.693 220.118 227.788 219.777C229.349 214.365 230.76 206.814 225.3 203.399C225.078 203.257 224.999 202.971 225.118 202.734C225.244 202.488 225.538 202.385 225.791 202.496C232.139 205.285 230.736 214.556 228.937 220.078C228.874 220.284 228.684 220.419 228.47 220.435V220.427Z" fill="#C0812B"/>
<path d="M208.449 230.347C208.14 231.219 203.243 233.192 202.094 235.038C201.579 235.862 201.705 238.041 200.16 237.375C200.406 235.807 201.095 234.872 202.157 233.77C202.815 233.089 207.776 229.159 208.331 229.452C208.576 229.769 208.592 229.967 208.457 230.347H208.449Z" fill="#C0812B"/>
<path d="M207.944 233.675C204.029 235.387 203.839 238.636 203.276 239.499L202.413 239.254C201.438 238.168 206.018 233.343 207.041 232.764C207.968 232.233 208.832 233.295 207.944 233.683V233.675Z" fill="#C0812B"/>
<path d="M233.095 209.5L232.881 209.445C232.58 209.366 232.366 209.088 232.382 208.779C232.461 207.369 231.827 205.721 230.955 204.699C230.282 203.906 228.665 203.312 228.982 202.52C229.109 202.195 229.505 202.068 229.83 202.203C231.352 202.829 231.906 204.651 232.437 206.085C232.683 206.743 234.157 209.453 233.095 209.5Z" fill="#C0812B"/>
<path d="M210.4 236.464C207.975 234.523 204.995 233.398 201.889 233.255C200.415 233.176 198.941 233.247 197.459 233.247C194.796 233.961 192.181 234.904 189.384 235.014C186.879 236.219 184.28 237.241 181.942 238.754C178.329 241.084 175.872 244.238 175.46 248.635C174.865 254.982 178.566 265.322 187.458 266.749C191.785 268.817 197.134 268.127 201.136 272.232C201.231 268.516 203.236 266.344 205.312 264.213C205.613 263.904 205.922 263.603 206.247 263.31C209.917 259.974 212.46 255.838 214.616 251.44C215.781 249.174 216.042 246.551 215.369 244.087C214.568 241.084 212.833 238.406 210.408 236.457L210.4 236.464ZM206.303 243.223C205.978 243.271 205.661 243.303 205.336 243.334C205.122 243.358 204.908 243.382 204.702 243.406C204.876 243.215 205.043 243.057 205.201 242.906C205.756 242.423 206.311 242.138 207.198 241.916C207.365 241.876 207.539 241.837 207.721 241.805C207.832 241.781 207.951 241.757 208.078 241.742C208.371 241.694 208.696 241.647 209.053 241.591C209.203 241.575 209.354 241.551 209.512 241.536C209.37 241.71 209.227 241.868 209.076 242.011C209.005 242.082 208.926 242.146 208.847 242.209C208.054 242.851 207.182 243.081 206.295 243.207L206.303 243.223ZM200.89 241.948C201.207 241.607 201.683 241.282 202.245 240.965C202.761 240.68 203.355 240.41 203.997 240.173C205.043 239.777 206.208 239.46 207.365 239.262C207.674 239.214 207.983 239.166 208.284 239.127C208.466 239.103 208.649 239.087 208.831 239.079C208.95 239.071 209.061 239.063 209.18 239.056C208.086 240.315 204.409 241.599 200.89 241.94V241.948ZM181.887 243.841L191.777 240.624C191.721 240.807 191.65 240.981 191.563 241.147C191.531 241.203 191.499 241.258 191.468 241.306C191.396 241.409 191.333 241.512 191.246 241.599C191.167 241.694 191.072 241.781 190.976 241.86C190.905 241.916 190.834 241.971 190.755 242.027C190.422 242.257 190.033 242.399 189.629 242.447C187.085 243.065 184.882 244.982 182.069 244.523L181.887 243.833V243.841ZM188.662 244.277C188.805 244.261 188.948 244.238 189.082 244.222C189.114 244.222 189.146 244.222 189.178 244.222C189.209 244.222 189.241 244.222 189.265 244.238C189.296 244.245 189.328 244.261 189.36 244.277C189.391 244.293 189.415 244.317 189.447 244.341C189.558 244.451 189.669 244.642 189.764 244.951C185.889 245.981 182.188 247.684 178.004 246.821C181.697 246.512 185.065 244.856 188.662 244.285V244.277ZM181.736 260.418C181.784 260.362 181.839 260.315 181.887 260.267C181.99 260.172 182.093 260.093 182.204 260.021C182.259 259.99 182.315 259.958 182.37 259.918C182.481 259.855 182.592 259.8 182.711 259.752C183.266 259.53 183.86 259.475 184.462 259.435C184.7 259.419 184.938 259.403 185.176 259.38C185.35 259.356 185.524 259.34 185.699 259.308C185.754 259.3 185.81 259.284 185.865 259.269C186.832 259.055 187.759 258.69 188.734 258.516C189.265 258.421 189.819 258.381 190.382 258.46C187.759 260.267 184.748 260.338 181.736 260.418ZM191.016 260.782C190.818 260.925 190.604 261.059 190.382 261.186C188.797 262.042 186.689 262.295 184.922 261.844C184.922 261.844 184.922 261.844 184.93 261.844C187.077 261.051 189.312 260.536 191.595 260.315C191.42 260.481 191.23 260.639 191.032 260.782H191.016ZM185.183 257.042C185.183 257.042 185.136 256.899 185.112 256.796C185.112 256.701 185.136 256.614 185.183 256.535C185.199 256.511 185.223 256.48 185.239 256.464C185.247 256.456 185.263 256.44 185.271 256.432C185.35 256.361 185.453 256.313 185.564 256.305C188.908 255.925 192.181 255.053 195.264 253.722C195.533 253.603 195.811 253.508 196.04 253.659C196.088 253.69 196.135 253.738 196.183 253.801C196.199 253.825 196.223 253.857 196.231 253.889C196.254 253.936 196.27 253.984 196.278 254.039C196.294 254.126 196.278 254.213 196.254 254.293C196.223 254.372 196.175 254.443 196.112 254.507C196.048 254.562 195.969 254.602 195.89 254.625C192.427 255.901 189.019 257.43 185.183 257.05V257.042ZM205.827 261.424C205.819 261.511 205.796 261.59 205.748 261.662C205.724 261.701 205.701 261.741 205.669 261.765C205.645 261.796 205.613 261.82 205.574 261.852C205.502 261.899 205.423 261.939 205.344 261.963C205.051 262.058 204.758 262.161 204.472 262.28C204.377 262.319 204.282 262.359 204.187 262.398C203.902 262.517 203.616 262.636 203.331 262.763C203.236 262.803 203.141 262.85 203.038 262.89C202.76 263.009 202.483 263.12 202.198 263.238C200.89 263.761 199.543 264.173 198.022 264.062C197.712 264.039 197.388 263.991 197.063 263.92C197.483 262.866 198.259 262.937 198.869 262.755C200.177 262.383 201.508 262.074 202.768 261.574C203.181 261.408 203.593 261.226 203.989 261.004C204.29 260.845 204.623 260.75 204.956 260.711C205.13 260.671 205.304 260.703 205.455 260.782C205.613 260.869 205.724 261.004 205.788 261.162C205.812 261.25 205.819 261.337 205.812 261.424H205.827ZM208.118 257.716C208.229 257.993 208.157 258.191 207.999 258.349C207.88 258.468 207.713 258.556 207.531 258.643C207.499 258.659 207.46 258.674 207.42 258.69C207.278 258.754 207.135 258.817 207.016 258.88C206.786 258.999 206.564 259.126 206.342 259.237C206.113 259.348 205.883 259.459 205.653 259.562C204.567 260.045 203.418 260.378 202.111 260.386C201.889 260.386 201.659 260.386 201.421 260.362C200.922 260.322 200.399 260.235 199.852 260.101C201.017 259.221 201.897 259.269 202.697 259.102C203.442 258.944 204.171 258.746 204.884 258.492C205.479 258.286 206.057 258.048 206.628 257.779C206.953 257.636 207.341 257.272 207.674 257.296C207.729 257.296 207.785 257.311 207.832 257.335C207.888 257.367 207.935 257.407 207.983 257.462C208.03 257.518 208.07 257.589 208.102 257.676C208.102 257.676 208.11 257.692 208.11 257.7L208.118 257.716ZM212.69 250.569C212.69 250.569 212.69 250.616 212.69 250.64C212.69 250.656 212.69 250.664 212.69 250.679C212.682 250.727 212.674 250.775 212.651 250.822C212.619 250.878 212.571 250.933 212.524 250.973C212.183 251.226 211.826 251.464 211.478 251.686C210.352 252.375 209.132 252.843 207.634 252.74C207.317 252.716 206.984 252.668 206.636 252.581C207.507 251.82 208.482 251.464 209.449 251.155C209.687 251.076 209.924 251.004 210.162 250.933C210.867 250.703 211.557 250.465 212.159 250.053C212.167 250.053 212.191 250.046 212.207 250.053C212.223 250.053 212.231 250.061 212.246 250.069C212.262 250.069 212.278 250.085 212.294 250.093C212.389 250.141 212.5 250.228 212.571 250.291C212.619 250.339 212.651 250.394 212.674 250.45C212.69 250.489 212.698 250.529 212.706 250.569H212.69ZM197.966 246.939C202.253 245.949 206.556 244.935 210.82 243.754C210.844 243.754 210.867 243.754 210.899 243.77C210.915 243.77 210.931 243.786 210.947 243.794C211.026 243.841 211.113 243.929 211.192 243.976C209.576 245.569 201.54 247.51 197.974 246.939H197.966Z" fill="#F05964"/>
<path d="M196.477 214.714C196.366 214.825 196.263 214.944 196.16 215.063C196.263 214.944 196.366 214.833 196.477 214.714ZM171.157 229.246C170.943 229.397 170.745 229.555 170.547 229.721C170.745 229.555 170.951 229.397 171.157 229.246Z" fill="#ADC17D"/>
<path d="M214.331 213.145C212.176 210.863 209.497 210.626 206.938 212.733C204.069 215.007 201.906 218.074 200.733 221.544C199.56 225.094 197.991 228.477 196.62 231.94C196.105 233.255 194.987 234 193.87 233.786C192.388 233.501 192.388 232.241 192.34 231.14C192.301 230.023 195.185 223.517 196.834 222.416C199.037 220.966 200.685 218.811 201.517 216.307C202.413 213.621 202.04 212.511 199.496 211.212C198.157 210.522 198.157 209.897 198.823 208.803C199.362 207.916 199.821 206.973 200.281 206.03C200.931 204.699 201.311 203.257 201.398 201.783C201.533 199.453 200.653 197.647 198.696 196.514C197.769 195.927 196.691 195.626 195.597 195.658C194.504 195.689 193.442 196.046 192.546 196.68C190.153 198.162 188.386 200.467 187.578 203.154C186.539 206.703 186.08 210.427 186.967 213.985C188.378 219.627 189.202 225.411 190.985 230.965C191.31 231.98 192.404 233.43 191.453 234.032C190.121 234.88 189.527 233.026 188.782 232.233C186.563 229.864 185.319 227.13 185.89 223.731C186.286 221.322 186.381 218.882 186.175 216.457C185.953 213.684 185.161 211.156 182.736 209.453C180.818 208.098 179.185 208.288 177.719 210.118C176.309 211.877 176.118 213.922 176.586 216.045C177.513 220.245 180.223 223.28 183.282 226.053C184.178 226.869 185.097 227.55 184.955 229.111C183.441 228.747 182.078 228.382 181.016 227.463C177.529 224.421 173.353 224.056 169.01 224.215C167.694 224.294 166.442 224.785 165.42 225.617C164.58 226.18 163.93 226.988 163.574 227.931C163.209 228.874 163.146 229.904 163.399 230.886C163.922 233.232 165.27 234.507 167.599 234.919C169.668 235.284 171.57 234.697 173.4 233.842C175.683 232.772 177.909 231.591 180.208 230.569C181.452 230.015 182.783 229.294 184.194 230.094C186.318 231.306 188.259 232.732 189.384 235.014C192.174 234.903 194.797 233.968 197.46 233.247C198.609 228.343 200.424 226.592 205.178 225.799C205.432 225.76 205.694 225.728 205.947 225.712C209.545 225.466 212.358 223.684 214.704 221.108C216.859 218.739 216.661 215.609 214.331 213.153V213.145ZM183.005 221.481C183.124 221.893 183.235 222.297 183.346 222.701C183.385 222.844 183.409 223.002 183.346 223.129C183.306 223.208 183.243 223.272 183.132 223.319C182.324 222.511 181.618 220.839 181.214 218.882C181.167 218.668 181.127 218.438 181.087 218.216C181.087 218.185 181.087 218.161 181.079 218.137C181.04 217.923 181.016 217.709 180.984 217.487C180.984 217.448 180.968 217.416 180.968 217.376C180.945 217.139 180.921 216.909 180.897 216.671C180.889 216.544 180.881 216.418 180.873 216.291C180.857 216.029 180.85 215.776 180.85 215.522C180.85 215.396 180.85 215.269 180.85 215.142C180.85 214.888 180.865 214.635 180.881 214.389C180.881 214.262 180.897 214.136 180.913 214.017C181.69 216.798 182.355 219.175 182.997 221.497L183.005 221.481ZM178.314 228.58C175.778 228.501 173.329 229.23 170.357 229.904C170.421 229.84 170.484 229.785 170.547 229.729C170.746 229.563 170.944 229.397 171.158 229.254C172.679 228.176 174.526 227.63 176.142 227.645C176.554 227.645 176.951 227.693 177.323 227.764C177.791 227.859 178.226 228.01 178.599 228.216C178.504 228.343 178.409 228.588 178.314 228.58ZM195.225 218.755C194.686 219.936 194.02 221.156 193.339 222.154C193.402 221.616 193.489 221.108 193.585 220.625C193.624 220.435 193.664 220.245 193.703 220.063C193.743 219.88 193.791 219.698 193.838 219.524C193.862 219.437 193.886 219.349 193.909 219.262C193.981 219.009 194.06 218.755 194.147 218.517C194.623 217.155 195.28 216.061 196.16 215.063C196.263 214.944 196.366 214.833 196.477 214.714C196.54 215.403 196.017 217.036 195.225 218.755ZM189.345 212.67C190.09 209.183 191.16 205.768 192.531 202.472C192.665 202.179 192.808 201.894 192.974 201.608C193.03 201.513 193.085 201.418 193.141 201.331C193.172 201.276 193.212 201.228 193.26 201.188C193.315 201.149 193.371 201.117 193.426 201.093C193.489 201.078 193.553 201.07 193.616 201.078C193.688 201.078 193.743 201.101 193.806 201.133C193.925 201.188 194.02 201.284 194.076 201.402C194.131 201.521 194.139 201.656 194.1 201.783C194.076 201.957 194.02 202.123 193.949 202.274C193.664 202.773 193.402 203.28 193.157 203.795C193.038 204.049 192.919 204.31 192.808 204.572C192.475 205.348 192.19 206.149 191.936 206.949C191.08 209.635 190.557 212.416 189.923 215.166C189.923 215.197 189.907 215.221 189.9 215.253C189.9 215.269 189.892 215.277 189.892 215.293C189.884 215.316 189.876 215.348 189.86 215.372C189.781 215.546 189.614 215.712 189.147 215.792C188.972 214.746 189.036 213.676 189.345 212.662V212.67ZM190.93 227.804C190.605 225.609 189.868 223.47 189.915 221.211C189.931 220.411 189.995 219.674 191.072 219.175C191.231 221.734 194.48 224.016 192.855 227.344C192.285 228.517 191.659 232.74 190.93 227.804ZM202.254 223.454C204.449 221.069 206.549 218.573 210.116 217.289C209.291 218.581 203.451 223.192 202.254 223.454Z" fill="#ADC17D"/>
<path d="M178.004 246.805C181.847 246.48 185.326 244.705 189.083 244.206C189.336 244.174 189.566 244.301 189.764 244.935C185.889 245.965 182.188 247.668 178.004 246.805Z" fill="#FEEDE5"/>
<path d="M197.969 246.94C202.256 245.949 206.559 244.935 210.823 243.754C210.918 243.73 211.068 243.897 211.195 243.976C209.578 245.569 201.543 247.51 197.969 246.94Z" fill="#FEEDE5"/>
<path d="M181.887 243.841L191.785 240.624C191.642 241.108 191.365 241.535 190.984 241.86C190.604 242.185 190.128 242.391 189.637 242.455C187.093 243.081 184.89 244.99 182.077 244.531L181.887 243.841Z" fill="#FDD7C7"/>
<path d="M185.113 256.788C185.113 256.662 185.153 256.543 185.24 256.456C185.327 256.368 185.438 256.313 185.565 256.297C188.909 255.917 192.182 255.045 195.265 253.714C195.59 253.571 195.938 253.46 196.184 253.793C196.24 253.865 196.271 253.944 196.287 254.031C196.303 254.118 196.287 254.205 196.263 254.285C196.232 254.364 196.184 254.443 196.121 254.498C196.057 254.554 195.978 254.601 195.899 254.617C192.436 255.893 189.028 257.422 185.193 257.042C185.161 257.042 185.145 256.899 185.121 256.788H185.113Z" fill="#FDD7C7"/>
<path d="M197.063 263.92C197.483 262.866 198.259 262.929 198.877 262.755C200.613 262.256 202.388 261.883 203.997 261.012C204.298 260.861 204.631 260.758 204.971 260.719C205.138 260.687 205.32 260.711 205.471 260.79C205.621 260.869 205.74 261.012 205.804 261.17C205.827 261.257 205.835 261.337 205.827 261.424C205.819 261.511 205.796 261.59 205.748 261.669C205.701 261.749 205.645 261.812 205.574 261.868C205.502 261.923 205.423 261.955 205.344 261.979C202.697 262.842 200.264 264.617 197.055 263.92H197.063Z" fill="#FDD7C7"/>
<path d="M199.852 260.101C201.016 259.213 201.896 259.269 202.697 259.102C204.052 258.809 205.375 258.365 206.635 257.787C207.119 257.565 207.776 256.844 208.125 257.708C208.41 258.405 207.539 258.603 207.023 258.88C204.955 260.005 202.831 260.853 199.859 260.101H199.852Z" fill="#FDD7C7"/>
<path d="M190.384 258.46C187.761 260.267 184.75 260.338 181.738 260.418C182.879 259.221 184.472 259.57 185.867 259.269C187.365 258.944 188.783 258.239 190.384 258.453V258.46Z" fill="#FEEDE5"/>
<path d="M200.891 241.948C202.222 240.553 206.105 239.198 209.196 239.048C208.102 240.307 204.417 241.599 200.891 241.948Z" fill="#FEEDE5"/>
<path d="M206.621 252.581C208.365 251.068 210.528 251.131 212.145 250.053C212.208 250.014 212.446 250.18 212.557 250.283C212.604 250.331 212.644 250.386 212.66 250.45C212.684 250.513 212.692 250.576 212.692 250.64C212.692 250.703 212.668 250.766 212.636 250.83C212.604 250.885 212.565 250.941 212.509 250.98C210.845 252.201 209.102 253.167 206.613 252.589L206.621 252.581Z" fill="#FDD7C7"/>
<path d="M184.906 261.844C187.054 261.051 189.297 260.536 191.579 260.314C190.018 261.836 187.189 262.422 184.906 261.844Z" fill="#FDD7C7"/>
<path d="M209.521 241.543C208.135 243.271 206.36 243.192 204.695 243.413C205.836 242.193 206.621 241.908 209.521 241.543Z" fill="#FEEDE5"/>
<path d="M194.075 201.386C194.131 201.505 194.139 201.64 194.099 201.767C194.075 201.941 194.02 202.107 193.949 202.258C193.663 202.757 193.402 203.264 193.156 203.779C193.037 204.033 192.918 204.294 192.807 204.556C192.475 205.332 192.189 206.133 191.936 206.933C191.08 209.619 190.557 212.4 189.923 215.15C189.923 215.181 189.907 215.205 189.907 215.237C189.907 215.253 189.899 215.261 189.899 215.277C189.883 215.3 189.883 215.332 189.867 215.356C189.788 215.53 189.622 215.696 189.154 215.776C188.98 214.73 189.043 213.66 189.352 212.646C190.097 209.159 191.167 205.744 192.538 202.448C192.673 202.155 192.815 201.87 192.982 201.585C193.029 201.489 193.093 201.394 193.148 201.307C193.18 201.252 193.219 201.204 193.267 201.165C193.323 201.125 193.378 201.093 193.433 201.069C193.497 201.054 193.56 201.046 193.624 201.054C193.695 201.054 193.75 201.077 193.814 201.109C193.933 201.165 194.028 201.26 194.083 201.379L194.075 201.386Z" fill="#FEEDE5"/>
<path d="M210.115 217.289C209.291 218.581 203.451 223.192 202.254 223.454C204.449 221.069 206.549 218.573 210.115 217.289Z" fill="#FFF2EC"/>
<path d="M178.597 228.208C178.502 228.335 178.407 228.58 178.312 228.573C175.776 228.493 173.327 229.222 170.355 229.896C170.419 229.832 170.482 229.777 170.546 229.721C170.744 229.555 170.942 229.389 171.156 229.246C172.677 228.168 174.524 227.622 176.141 227.638C176.553 227.638 176.949 227.685 177.321 227.756C177.789 227.851 178.225 228.002 178.597 228.208Z" fill="#FEEDE5"/>
<path d="M183.003 221.481C183.114 221.885 183.225 222.297 183.344 222.701C183.384 222.844 183.407 223.002 183.344 223.129C183.304 223.208 183.241 223.272 183.13 223.319C182.322 222.511 181.616 220.839 181.212 218.882C181.165 218.668 181.125 218.438 181.085 218.216C181.085 218.185 181.085 218.161 181.077 218.137C181.038 217.923 181.014 217.709 180.982 217.487C180.982 217.448 180.967 217.416 180.967 217.376C180.943 217.139 180.919 216.909 180.895 216.671C180.887 216.544 180.879 216.418 180.871 216.291C180.856 216.029 180.856 215.776 180.848 215.522C180.848 215.396 180.848 215.269 180.848 215.142C180.848 214.888 180.864 214.635 180.879 214.389C180.879 214.262 180.895 214.136 180.911 214.017C181.688 216.798 182.353 219.175 182.995 221.497L183.003 221.481Z" fill="#FEEDE5"/>
<path d="M196.478 214.706C196.533 215.411 196.018 217.036 195.234 218.747C194.695 219.928 194.029 221.148 193.348 222.146C193.411 221.608 193.498 221.1 193.593 220.617C193.633 220.427 193.673 220.237 193.712 220.054C193.752 219.872 193.799 219.69 193.847 219.516C193.871 219.429 193.894 219.341 193.918 219.254C193.99 219.001 194.069 218.747 194.156 218.509C194.631 217.147 195.289 216.053 196.169 215.055C196.272 214.936 196.375 214.825 196.486 214.706H196.478Z" fill="#FEEDE5"/>
<path d="M274.926 206.973C274.529 207.599 274.133 208.233 273.737 208.859C273.048 209.96 272.009 211.053 272.057 212.313C272.104 213.494 273.571 214.064 274.276 215.015C277.168 218.89 277.263 223.089 275.504 227.432C274.086 230.775 272.255 233.937 270.06 236.837C267.366 240.529 264.909 244.372 262.555 248.271C260.812 251.163 260.598 254.618 260.202 257.922C259.988 260.053 259.892 262.192 259.908 264.332C259.829 266.479 259.171 268.571 258.006 270.378C256.12 273.595 253.648 276.423 250.716 278.721C249.495 279.585 248.045 280.076 246.555 280.139C244.416 280.322 242.26 280.139 240.184 279.593C233.234 277.921 227.155 274.664 222.353 269.276C220.57 267.279 218.557 265.489 217.218 263.072C215.253 259.53 214.516 256.163 216.386 252.24C217.994 248.857 220.095 245.814 222.004 242.645C224.524 239.903 227.615 237.748 231.062 236.338C234.581 234.888 237.212 232.233 239.431 229.167C244.138 222.654 249.495 216.735 256.081 212.084C259.377 209.754 263.031 208.637 267.112 210.451C269.426 211.481 269.68 211.267 270.345 208.803C270.607 207.821 270.773 206.806 270.86 205.792C271.051 203.677 271.138 203.589 273.436 203.851C275.298 204.065 275.354 204.152 275.068 206.173C275.021 206.442 274.965 206.711 274.91 206.981L274.926 206.973Z" fill="#FAAA63"/>
<path d="M226.773 250.814C223.215 254.269 220.275 258.801 220.259 260.877C220.346 260.877 220.489 260.925 220.521 260.877C222.835 257.779 224.428 254.182 227.051 251.282C227.772 250.941 228.35 250.355 228.683 249.626C231.061 247.55 233.39 245.418 235.823 243.422C240.142 239.872 244.287 236.132 247.56 231.568C252.228 225.063 257.608 219.365 264.828 215.649C265.232 215.443 265.755 215.245 265.747 214.461C259.067 217.559 253.488 221.79 249.232 227.598C244.675 233.953 239.255 239.634 233.113 244.475C231.378 245.822 229.595 247.233 228.366 249.15L226.765 250.814H226.773ZM229.182 269.419C230.229 269.609 230.633 269.363 230.934 269.007C233.636 265.806 236.727 262.961 239.215 259.578C242.187 255.529 244.865 251.226 248.194 247.486C254.565 240.3 260.136 232.511 265.953 224.904C267.118 223.216 268.093 221.41 268.854 219.5C269.068 219.144 269.147 218.724 269.099 218.312C269.044 217.9 268.854 217.519 268.552 217.234C267.538 219.738 266.793 222.131 265.295 224.12C259.479 231.845 253.939 239.793 247.378 246.94C246.466 248.001 245.618 249.111 244.834 250.26C240.887 255.664 237.186 261.258 232.297 265.917C231.259 266.907 230.371 268.064 229.175 269.411L229.182 269.419ZM263.663 213.137C262.26 212.931 261.27 213.375 260.263 213.716C256.047 215.126 252.798 217.892 250.143 221.299C246.371 226.164 241.886 230.379 237.931 235.07C236.663 236.56 235.158 237.835 233.486 238.85C227.122 242.677 222.549 248.287 218.167 254.095C217.66 254.76 216.836 255.45 217.264 256.511C218.262 256.654 218.365 255.854 218.682 255.347C222.423 249.491 226.876 244.341 232.812 240.553C235.269 239.04 237.488 237.162 239.389 234.991C243.304 230.387 247.639 226.164 251.356 221.378C253.67 218.304 256.848 216.006 260.485 214.762C261.444 214.429 262.672 214.389 263.655 213.13L263.663 213.137ZM224.903 264.467C225.482 264.372 225.759 264.411 225.822 264.316C227.304 261.939 229.404 260.077 231.1 257.882C234.904 252.954 238.676 247.986 242.559 243.128C248.947 235.03 256.023 227.511 263.71 220.641C264.867 219.619 266.143 218.526 266.603 216.838C266.389 216.806 266.167 216.822 265.969 216.909C265.763 216.988 265.597 217.131 265.462 217.305C261.706 221.568 257.442 225.316 253.345 229.222C249.826 232.574 247.172 236.655 243.883 240.205C242.163 242.035 240.554 243.968 239.088 245.997C235.364 251.218 231.346 256.234 227.067 261.004C226.219 261.955 225.307 262.858 224.903 264.467ZM270.557 218.32C270.748 218.335 270.874 218.644 270.938 218.811C271.405 219.991 270.676 221.315 270.32 221.956C268.41 225.419 267.459 227.146 267.538 227.028C263.79 232.479 264.622 231.504 263.449 233.057C261.634 235.466 260.041 237.265 257.537 240.086C255.199 242.724 255.136 242.669 254.399 243.667C254.034 244.158 252.323 246.528 250.746 250.426C249.105 254.483 249.715 255.006 248.146 257.898C247.14 259.744 246.649 259.974 245.087 262.51C243.138 265.655 243.566 266.036 242.195 268.001C240.087 271.035 237.123 273.254 236.719 272.921C236.505 272.747 236.98 271.844 237.028 271.764C237.543 270.806 238.209 270.671 239.144 269.839C239.366 269.641 239.897 268.928 240.974 267.486C241.91 266.234 242.314 265.631 242.496 265.354C242.615 265.172 243.059 264.498 243.423 263.857C244.303 262.311 244.707 260.98 244.897 260.394C245.769 257.747 246.482 257.747 248.424 253.54C249.644 250.886 249.383 250.838 250.524 248.548C251.72 246.131 252.917 244.364 253.456 243.588C254.914 241.504 255.334 241.369 258.995 236.94C259.97 235.759 260.549 235.062 261.357 234.016C262.102 233.057 263.607 231.084 265.43 228.343C267.491 225.253 268.521 223.708 268.965 222.487C269.686 220.491 270.05 218.304 270.565 218.335L270.557 218.32Z" fill="#FFF2EC"/>
<path d="M229.184 269.419C230.38 268.072 231.26 266.915 232.306 265.924C237.195 261.273 240.904 255.679 244.843 250.267C245.627 249.111 246.475 248.001 247.387 246.947C253.948 239.792 259.48 231.845 265.297 224.12C266.794 222.131 267.539 219.738 268.554 217.234C268.847 217.519 269.045 217.907 269.1 218.311C269.156 218.724 269.069 219.143 268.855 219.5C268.094 221.402 267.119 223.216 265.954 224.896C260.138 232.503 254.574 240.3 248.195 247.478C244.875 251.218 242.196 255.521 239.216 259.57C236.728 262.953 233.629 265.798 230.935 268.999C230.634 269.355 230.222 269.601 229.184 269.411V269.419Z" fill="#FFF2EC"/>
<path d="M263.655 213.129C262.673 214.389 261.444 214.429 260.477 214.754C256.84 215.998 253.662 218.304 251.348 221.37C247.631 226.156 243.297 230.379 239.382 234.991C237.472 237.162 235.253 239.032 232.796 240.545C226.861 244.333 222.415 249.483 218.674 255.339C218.357 255.838 218.254 256.638 217.256 256.503C216.828 255.442 217.652 254.752 218.151 254.087C222.534 248.286 227.114 242.677 233.47 238.842C235.15 237.835 236.648 236.56 237.916 235.062C241.878 230.379 246.356 226.156 250.136 221.299C252.782 217.884 256.04 215.118 260.248 213.708C261.254 213.367 262.245 212.923 263.647 213.129H263.655Z" fill="#FFF2EC"/>
<path d="M273.506 222.448C273.379 226.893 271.675 230.807 269.171 234.325C265.613 239.349 261.341 244.404 258.005 249.546C256.943 251.195 257.688 253.453 257.212 255.354C255.382 262.549 251.34 268.555 247.061 274.435C246.57 275.108 246.15 276.098 245.008 275.995C244.588 275.076 245.325 274.751 245.706 274.3C250.231 269.023 253.868 263.27 255.77 256.495C256.507 253.706 256.127 250.584 257.648 248.128C260.921 243.049 265.248 238.128 268.751 233.192C271.017 230.086 272.301 226.378 272.436 222.535C272.468 221.521 272.151 220.332 273.07 219.025C273.68 220.308 273.537 221.386 273.506 222.448Z" fill="#FFF2EC"/>
<path d="M224.906 264.467C225.311 262.866 226.222 261.955 227.07 261.004C231.357 256.226 235.367 251.218 239.092 245.997C240.566 243.96 242.166 242.027 243.886 240.197C247.167 236.647 249.83 232.566 253.348 229.214C257.445 225.308 261.709 221.552 265.465 217.297C265.592 217.123 265.766 216.98 265.964 216.901C266.17 216.822 266.384 216.798 266.598 216.83C266.139 218.525 264.871 219.611 263.714 220.641C256.019 227.511 248.942 235.03 242.555 243.128C238.672 247.985 234.899 252.946 231.096 257.882C229.4 260.077 227.3 261.939 225.818 264.316C225.754 264.411 225.477 264.379 224.898 264.474L224.906 264.467Z" fill="#FFF2EC"/>
<path d="M228.375 249.142C229.611 247.233 231.386 245.83 233.13 244.475C239.264 239.626 244.692 233.945 249.249 227.59C253.504 221.774 259.083 217.551 265.764 214.453C265.764 215.237 265.241 215.435 264.845 215.641C257.625 219.365 252.244 225.062 247.577 231.56C244.296 236.132 240.159 239.864 235.84 243.421C233.407 245.426 231.077 247.558 228.7 249.626L228.383 249.15L228.375 249.142Z" fill="#FFF2EC"/>
<path d="M250.73 288.134C251.617 287.77 252.331 287.088 252.719 286.217C254.383 282.548 258.845 272.699 258.987 272.374C259.693 270.813 267.221 254.197 271.841 244.016C273.188 241.036 270.359 237.875 267.245 238.881C258.013 241.876 244.136 246.559 236.156 247.882C225.783 249.61 195.035 259.617 195.035 259.617C189.052 260.94 160.982 273.381 139.039 280.512C135.94 281.518 135.504 285.726 138.326 287.35C141.741 289.323 152.408 296.145 152.519 296.208C154.254 297.215 176.856 309.584 184.329 313.894C185.343 314.48 186.563 314.56 187.641 314.108C196.247 310.558 204.862 307.016 213.468 303.467C225.878 298.348 238.296 293.237 250.714 288.118L250.73 288.134Z" fill="#A89BBC"/>
<path d="M113.371 334.075C113.371 352.894 133.682 368.163 154.057 368.163C174.431 368.163 187.15 352.894 187.15 334.075C187.15 315.257 167.854 298.578 147.479 298.578C127.105 298.578 113.371 315.257 113.371 334.075Z" fill="#493E43"/>
<path d="M124.387 334.012C124.387 346.492 138.778 355.176 152.29 355.176C165.801 355.176 174.725 346.555 174.725 334.075C174.725 321.596 165.318 309.964 151.814 309.964C138.31 309.964 124.395 321.532 124.395 334.012H124.387Z" fill="#A5A378"/>
<path d="M138.816 334.488C138.816 339.448 144.887 343.053 150.26 343.053C155.633 343.053 161.267 338.806 161.267 333.846C161.267 328.886 156.211 323.101 150.846 323.101C145.473 323.101 138.816 329.527 138.816 334.488Z" fill="#DCE3BA"/>
<path d="M261.532 333.663C262.11 333.521 262.253 333.299 262.348 333.085C265.653 325.764 254.606 304.108 245.231 289.283L249.629 287.263C259.82 303.593 276.319 334.899 262.713 338.338C252.228 341.001 221.084 319.884 204.664 307.967L209.68 305.661C229.144 319.607 254.415 335.47 261.532 333.679V333.663Z" fill="#4A5938"/>
<path d="M112.683 352.229C125.743 346.325 135.863 342.902 148.78 336.92C155.476 333.814 165.192 327.618 172.015 324.71C172.015 324.71 208.659 310.138 226.862 300.82C238.369 294.925 249.876 289.038 262.46 283.341C268.039 280.821 277.683 277.596 283.262 275.068C283.476 274.68 283.801 274.11 284.198 273.412C284.198 273.412 289.642 265.782 293.842 259.285C309.184 235.553 312.528 223.937 316.935 219.666C329.923 207.068 353.166 191.514 360.132 186.411C361.487 185.421 361.995 183.551 361.147 182.101C360.164 180.437 358.001 180.017 356.479 181.134C354.942 182.259 318.718 208.819 312.402 215.134C305.475 222.059 302.068 228.636 298.232 235.878C291.647 248.326 290.767 256.487 280.465 266.97C280.465 266.97 278.817 270.053 275.417 271.566C256.049 280.187 234.407 288.657 215.316 297.294C191.811 307.928 169.384 318.569 145.879 329.202C133.35 334.868 122.581 340.723 110.044 346.389C108.451 347.126 107.746 349.027 112.691 352.236L112.683 352.229Z" fill="#4A5938"/>
<path d="M287.898 63.8168C287.898 63.8168 306.988 56.1626 320.627 66.186C330.113 73.1587 326.277 81.7955 336.27 151.539C337.277 158.552 338.109 164.486 338.727 168.892C324.304 171.19 309.881 173.488 295.458 175.785C290.212 176.617 287.858 171.919 287.272 166.642C286.154 156.586 288.452 150.24 283.46 140.961C275.361 125.93 275.266 111.723 275.916 93.8314C276.169 86.9221 277.358 79.149 277.73 77.0413C278.99 69.8467 283.682 66.6059 287.898 63.8089V63.8168Z" fill="#A7B96C"/>
<path d="M319.342 64.7993C315.879 63.5633 310.023 66.8674 308.803 70.338C307.788 73.2301 306.029 76.6135 307.083 80.6862C307.939 83.9903 311.521 87.0885 312.598 93.7602C313.716 100.693 317.385 104.077 319.715 109.077C321.442 112.777 322.98 116.089 325.088 123.188C332.664 119.449 340.24 115.701 347.808 111.961C346.92 111.168 339.947 84.1884 339.947 84.1884C338.576 78.8638 335.548 70.5915 319.335 64.8073L319.342 64.7993Z" fill="#BED473"/>
<path d="M348.8 109.584C347.508 109.409 346.201 109.528 344.965 109.948C341.929 110.962 339.94 116.786 335.907 116.786C333.149 116.786 327.689 117.499 325.541 119.377C323.489 121.176 321.175 121.77 322.902 123.886C323.964 125.185 325.081 126.501 325.779 127.198C327.443 128.862 326.167 133.434 327.942 133.101C330.605 132.594 331.493 133.196 331.691 133.957C331.913 134.797 332.816 135.248 333.624 134.939L355.172 126.794C355.172 126.794 364.61 123.704 355.449 118.355C351.701 116.176 357.509 114.441 355.203 112.135C353.84 110.772 350.686 109.837 348.808 109.584H348.8Z" fill="#D6E378"/>
<path d="M284.496 32.4314L285.423 62.8343C285.471 64.4903 285.899 70.8847 287.27 71.8276C290.44 74.0066 299.03 70.2587 303.46 66.4078C307.319 63.0482 298.23 31.5043 298.23 31.5043C298.23 31.5043 290.17 30.9417 284.504 32.4314H284.496Z" fill="#FBBB8E"/>
<path d="M298.222 31.5043C298.222 31.5043 298.539 32.7008 299.03 34.6738C298.895 37.5263 298.547 41.9397 297.651 45.2359C296.447 49.6415 290.899 57.1293 285.273 57.8583L284.496 32.4314C290.162 30.9417 298.222 31.5043 298.222 31.5043Z" fill="#D79A70"/>
<path d="M278.688 11.0375C278.688 11.0375 273.909 12.3449 272.134 20.1813C270.431 27.7246 273.426 35.0777 274.092 38.5562C275.36 45.1724 281.517 50.7427 284.79 51.6381C290.116 53.104 296.218 47.4069 298.088 41.0838C299.467 36.4327 299.38 29.2301 299.38 29.2301C299.38 29.2301 298.167 0.340602 278.688 11.0296V11.0375Z" fill="#FBBB8E"/>
<path d="M302.019 30.2523C305.125 26.0369 309.848 20.2289 308.58 12.8996C307.304 5.57025 298.445 6.10113 298.445 6.10113C298.445 6.10113 297.161 -2.67031 284.949 1.75107C284.949 1.75107 282.476 -0.562629 275.249 0.134649C268.022 0.831927 272.808 6.41015 268.6 5.96643C264.392 5.51478 257.902 13.7236 264.875 17.1387C271.849 20.5538 272.935 19.9754 276.897 15.6966C280.86 11.4258 283.031 10.3323 285.29 11.1643C287.548 11.9884 287.025 16.9248 290.361 17.2814C293.698 17.6379 296.305 26.2747 296.305 26.2747C296.305 26.2747 298.825 25.2842 299.015 31.4329C299.205 37.5896 298.579 41.4088 302.352 41.8129C306.124 42.217 298.92 34.4756 302.027 30.2602L302.019 30.2523Z" fill="#753C30"/>
<path d="M297.693 19.0801C299.634 18.7394 304.397 19.9438 300.807 26.3064C297.217 32.677 293.485 26.4015 293.778 23.6679C294.071 20.9263 296.211 19.3416 297.693 19.0801Z" fill="#FBBB8E"/>
<path d="M356.896 181.855C359.638 184.596 360.946 195.579 359.076 197.449C357.206 199.319 357.713 194.018 357.713 194.018C357.713 194.018 357.982 196.886 356.904 197.956C355.827 199.033 351.833 200.697 351.833 200.697C351.833 200.697 346.555 201.569 345.754 201.569C344.954 201.569 349.027 190.008 342.616 191.609L339.494 193.748C339.494 193.748 338.345 187.465 340.215 181.72C340.294 181.475 340.373 181.158 340.445 180.817C345.643 179.85 350.168 176.839 355.43 176.079C355.343 178.67 355.676 180.619 356.912 181.855H356.896Z" fill="#FBBB8E"/>
<path d="M274.212 28.4298C273.57 28.5962 273.396 29.7055 273.911 30.276C274.117 30.5057 274.529 30.7197 274.767 30.5454C275.369 30.1175 274.893 28.2475 274.212 28.4218V28.4298Z" fill="#010101"/>
<path d="M281.385 27.3602C280.656 27.5503 280.449 28.8102 281.036 29.4679C281.274 29.7293 281.741 29.967 282.011 29.7769C282.692 29.2856 282.153 27.1621 281.385 27.3602Z" fill="#010101"/>
<path d="M283.302 44.6179C282.937 44.919 282.422 45.228 281.749 45.3706C280.441 45.64 279.419 45.0854 279.046 44.8397C278.888 44.7367 278.84 44.5149 278.951 44.3564C279.062 44.1979 279.276 44.1504 279.434 44.2613C279.672 44.4198 280.528 44.9111 281.614 44.6892C282.549 44.499 283.112 43.8889 283.31 43.6354C283.429 43.4848 283.65 43.4531 283.801 43.572C283.952 43.6908 283.983 43.9127 283.864 44.0632C283.761 44.1979 283.579 44.4039 283.318 44.6258L283.302 44.6179Z" fill="#010101"/>
<path d="M283.966 291.296C284.322 293.111 284.822 299.457 285.519 302.793C287.682 313.118 289.053 314.742 289.783 319.124C291.367 328.616 290.591 332.015 288.713 334.876C286.7 337.958 277.547 338.22 272.499 338.64C266.745 339.115 267.466 345.684 267.466 345.684L293.428 345.589L295.005 344.162L295.837 345.494L303.461 344.012C303.461 344.012 302.581 342.023 304.293 329.092C304.499 327.515 307.875 318.815 308.35 314.94C309.04 309.298 310.181 305.677 310.355 299.64C310.45 296.351 310.831 290.282 310.759 288.19C302.652 289.489 292.065 290.012 283.958 291.304L283.966 291.296Z" fill="#E8A423"/>
<path d="M282.309 291.724L282.405 290.773C282.492 289.854 284.758 288.214 285.67 288.063L304.919 286.051C306.012 285.876 311.472 285.575 311.805 286.629L312.003 287.271C312.32 288.277 311.655 290.171 310.609 290.337L284.251 293.546C283.165 293.721 282.199 292.817 282.309 291.724Z" fill="#559069"/>
<path d="M304.182 343.972C303.271 342.982 298.809 344.408 297.47 344.551C296.709 344.63 296.559 344.503 296.036 343.94C295.751 343.639 294.855 343.085 294.594 343.148C294.229 343.235 293.92 344.036 293.698 344.337C293.413 344.717 292.89 344.836 292.414 344.852C287.398 345.01 274.647 345.89 267.863 345.232C266.976 345.145 266.239 346.706 267.119 346.856C272.024 347.696 288.642 348.378 293.73 346.325C294.086 346.183 294.483 345.256 294.863 345.303C295.148 345.343 295.22 346.143 295.481 346.278C296.67 346.904 300.846 346.08 300.846 346.08C301.789 346.048 303.937 345.343 304.103 344.416C304.103 344.416 304.262 344.043 304.182 343.956V343.972Z" fill="#FFF2EC"/>
<path d="M276.59 343.235C276.574 342.855 278.73 342.831 281.527 341.841C285.909 340.288 291.805 336.389 293.224 330.795C293.549 329.496 294.262 327.435 293.438 320.28C292.479 311.921 290.022 297.904 290.545 297.865C291.045 297.817 291.528 298.918 291.829 299.687C293.929 305.043 294.722 313.205 294.722 313.205C295.356 319.678 296.806 329.733 294.508 334.155C292.828 337.395 287.819 340.945 286.028 341.849C283.976 342.879 276.606 343.608 276.59 343.243V343.235Z" fill="#FFF2EC"/>
<path d="M344.973 291.851C345.512 293.507 377.25 317.61 374.833 320.336C372.234 323.268 366.354 324.409 359.626 325.019C351.954 325.716 352.961 331.58 352.961 331.58L381.466 330.003L383.099 327.649L385.254 328.909L392.228 320.257C392.228 320.257 367.923 277.422 367.756 275.488C356.963 277.049 355.758 290.282 344.965 291.843L344.973 291.851Z" fill="#E8A423"/>
<path d="M343.4 293.118L343.028 292.31C342.671 291.534 343.479 288.554 346.499 286.526L360.779 276.455C361.778 275.647 366.517 272.232 367.357 272.858L367.872 273.238C368.672 273.84 368.926 275.734 367.975 276.503L346.221 293.364C345.223 294.172 343.828 294.053 343.4 293.126V293.118Z" fill="#559069"/>
<path d="M392.772 319.488C391.496 318.656 389.198 323.545 387.93 324.813C386.099 326.643 385.584 327.729 384.871 327.238C384.483 326.976 383.262 326.501 382.914 326.572C382.43 326.667 382.042 327.42 381.749 327.705C381.376 328.07 380.703 329.345 380.069 329.385C373.372 329.757 362.365 331.302 353.283 331.001C352.094 330.962 351.159 332.435 352.332 332.538C358.918 333.093 375.132 332.808 381.868 330.692C382.335 330.542 382.977 328.442 383.484 328.474C383.865 328.497 384.641 329.496 384.982 329.615C386.591 330.138 390.22 326.509 391.694 324.631C392.978 322.998 394.064 321.208 393.826 320.352C393.731 320.027 393.414 319.924 392.764 319.496L392.772 319.488Z" fill="#FFF2EC"/>
<path d="M358.888 328.6C358.848 328.252 361.733 328.133 365.434 327.095C371.234 325.463 377.661 324.955 377.59 319.48C377.495 311.969 357.422 299.307 358.111 299.243C358.769 299.18 357.192 295.963 365.188 302.793C369.515 306.486 381.687 317.737 378.755 321.921C376.607 324.987 373.81 325.986 371.448 326.889C368.738 327.935 358.919 328.933 358.88 328.6H358.888Z" fill="#FFF2EC"/>
<path d="M258.703 255.861C259.242 256.17 256.508 258.991 254.289 264.72C252.15 270.243 252.546 273.198 249.162 275.916C248.734 276.257 248.71 276.225 245.604 277.881C236.72 282.619 233.495 284.711 229.659 284.275C229.461 284.252 227.535 284.03 227.527 283.657C227.512 283.293 229.342 283.016 230.372 282.794C234.541 281.922 235.008 280.179 240.762 277.255C245.469 274.87 246.515 275.346 248.306 273.444C249.503 272.168 250.01 270.869 251.008 268.278C252.554 264.276 252.007 263.5 253.283 261.146C255.05 257.89 258.172 255.552 258.695 255.861H258.703Z" fill="#FFF2EC"/>
<path d="M286.646 65.8848C284.261 69.5455 286.004 71.2412 285.331 83.5941C284.633 96.4145 284.285 102.817 282.05 107.595C280.679 110.526 278.785 124.765 280.314 128.513C280.98 130.145 288.16 126.833 296.948 129.076C301.109 130.137 302.947 130.145 304.374 129.076C305.784 128.014 305.618 123.632 305.665 122.547C306.149 111.446 304.485 103.53 304.485 103.53C301.489 89.2754 301.386 89.2674 301.339 87.5322C301.14 80.4643 302.686 74.0937 303.177 72.1841C305.293 63.9832 307.734 61.8913 306.458 60.1164C304.057 56.7806 291.433 58.5555 286.646 65.8848Z" fill="#62919D"/>
<path d="M292.273 68.0242C287.772 70.322 287.534 71.6373 284.475 72.2792C280.204 73.1745 279.919 63.8722 280.085 61.3446C280.529 54.4431 285.205 55.6158 285.205 55.6158C285.529 56.0357 289.611 56.1071 293.613 54.3322C296.783 52.9218 302.179 47.6209 302.211 47.3435C303.122 47.3118 304.517 46.8602 306.665 48.231C308.725 49.5463 314.122 59.3161 313.448 61.5189C312.695 64.0069 299.342 64.411 292.265 68.0242H292.273Z" fill="#62919D"/>
</g>
<defs>
<clipPath id="clip0_848_9039">
<rect width="475" height="400" fill="white"/>
</clipPath>
</defs>
</svg>
