<svg width="509" height="358" viewBox="0 0 509 358" fill="none" xmlns="http://www.w3.org/2000/svg">
<g clipPath="url(#clip0_848_8476)">
<path d="M47.8501 332.497C54.8618 334.459 45.3749 335.577 55.5158 338.433C60.5324 339.849 91.4518 337.771 105.045 336.893C139.739 334.65 135.194 342.862 170.658 343.127C184.044 343.226 187.463 334.865 201.371 335.428C212.596 335.883 228.184 339.426 237.828 339.054C255.842 338.367 242.903 351.562 264.807 351.165C299.775 350.528 288.516 356.935 313.707 357.796C324.883 358.177 323.981 337.009 343.89 341.339C373.427 347.763 420.149 347.465 404.644 339.095C394.445 333.582 393.303 324.12 409.379 323.681C433.792 323.019 499 321.165 505.118 319.873C524.936 315.701 466.458 289.633 388.121 286.205C300.032 282.348 228.606 300.32 228.606 300.32C228.606 300.32 222.737 294.616 202.48 296.47C188.134 297.787 185.518 301.636 185.518 301.636C185.518 301.636 164.557 292.141 135.004 292.397C134.706 292.397 134.408 292.397 134.11 292.414C101.502 292.936 70.3256 305.974 55.2757 308.896C34.4392 312.944 4.52148 315.635 1.30951 322.605C-3.56641 333.118 39.9609 330.295 47.8584 332.497H47.8501Z" fill="#A75B48"/>
<path d="M361.512 106.889C356.363 127.428 345.949 144.232 345.949 144.232L344.301 140.789C344.301 140.789 349.045 121.616 348.862 105.656C353.002 104.927 357.306 106.252 361.512 106.889Z" fill="#FCC195"/>
<path d="M346.933 106.881C346.85 99.6374 347.048 94.1158 344.921 89.0909C344.673 88.5031 343.257 81.5163 340.31 77.1039C336.85 71.9217 336.626 73.1883 335.583 67.3107C335.583 67.3107 334.706 58.0722 334.664 54.4049C334.548 45.2988 334.937 35.8036 339.399 34.6694C346.543 32.8565 368.589 65.9282 363.233 98.6192C362.769 101.426 362.181 104.19 361.502 106.897C357.305 106.252 351.072 106.161 346.933 106.889V106.881Z" fill="#C4639D"/>
<path d="M363.929 97.6007C363.929 97.6007 347.232 93.8092 345.154 97.5013C345.394 99.0245 346.338 100.647 345.709 102.352C345.08 104.058 345.452 104.323 345.634 105.879C345.816 107.435 348.267 107.328 349.086 107.51C349.906 107.692 361.793 108.197 362.663 107.328C363.532 106.458 363.441 106.069 363.441 104.248C363.441 102.427 365.775 97.8656 363.921 97.6089L363.929 97.6007Z" fill="#CA92A4"/>
<path d="M426.035 85.5229C426.035 85.5229 441.697 95.6556 437.293 116.782C437.211 117.171 432.525 143.661 415.911 168.082C410.679 175.773 410.298 186.493 410 188.389C408.526 197.677 419.23 224.855 409.619 253.837C411.035 249.574 400.778 252.297 396.349 251.536C396.332 251.42 394.809 241.089 394.784 240.973C394.71 240.468 390.993 215.285 390.885 214.598C390.86 214.408 387.715 193.149 387.69 192.95C393.923 163.778 400.149 134.613 406.382 105.441L426.035 85.5229Z" fill="#282640"/>
<path d="M422.798 85.5229L424.222 88.3624C427.061 94.0413 430.34 99.5464 431.167 105.838C434.653 132.386 412.591 159.357 408.237 168.72C402.963 180.044 396.945 182.553 393.559 189.556C390.389 196.121 386.498 207.396 381.821 216.85C378.733 237.223 379.188 244.656 376.1 265.029L359.792 265.998L354.56 198.108C354.461 193.199 355.496 188.331 357.59 183.894L392.119 110.556L422.806 85.5229H422.798Z" fill="#3C3D5F"/>
<path d="M342.963 26.3664L338.484 26.0601L322.921 31.8631L328.509 48.2293C328.509 48.2293 334.643 35.7208 342.954 42.6994C351.266 49.678 342.954 26.3746 342.954 26.3746L342.963 26.3664Z" fill="#D79A70"/>
<path d="M301.529 13.4602C311.223 8.21172 326.969 22.2103 326.969 22.2103C326.969 22.2103 331.414 32.8479 330.33 41.0517C329.253 49.2637 326.083 52.9062 322.134 53.7257C317.415 54.7026 312.101 47.575 311.356 48.32C310.76 48.9161 310.18 49.2886 309.675 49.5287C308.872 49.9095 307.912 49.6446 307.382 48.9243C307.034 48.4525 306.579 47.8233 306.041 47.07C304.385 44.7604 301.952 41.2835 299.51 37.5582C295.205 30.9605 291.836 18.7169 301.529 13.4684V13.4602Z" fill="#FCC195"/>
<mask id="mask0_848_8476" style="mask-type:luminance" maskUnits="userSpaceOnUse" x="295" y="12" width="36" height="42">
<path d="M301.529 13.4602C311.223 8.21172 326.969 22.2103 326.969 22.2103C326.969 22.2103 331.414 32.8479 330.33 41.0517C329.253 49.2637 326.083 52.9062 322.134 53.7257C317.415 54.7026 312.101 47.575 311.356 48.32C310.76 48.9161 310.18 49.2886 309.675 49.5287C308.872 49.9095 307.912 49.6446 307.382 48.9243C307.034 48.4525 306.579 47.8233 306.041 47.07C304.385 44.7604 301.952 41.2835 299.51 37.5582C295.205 30.9605 291.836 18.7169 301.529 13.4684V13.4602Z" fill="white"/>
</mask>
<g mask="url(#mask0_848_8476)">
<path d="M316.404 51.6068C316.677 51.433 317 51.1598 317.24 50.7459C317.703 49.9429 317.563 49.1564 317.48 48.8501C317.447 48.7177 317.314 48.6432 317.182 48.6763C317.049 48.7094 316.975 48.8419 317.008 48.9743C317.058 49.1647 317.198 49.8353 316.818 50.4975C316.486 51.0687 315.965 51.3088 315.75 51.3833C315.625 51.4247 315.559 51.5654 315.601 51.6896C315.642 51.8138 315.783 51.88 315.907 51.8386C316.015 51.7972 316.197 51.7227 316.395 51.5985L316.404 51.6068Z" fill="#010101"/>
</g>
<path d="M301.527 13.4606C311.221 8.21221 326.966 22.2108 326.966 22.2108C326.966 22.2108 330.269 30.1166 330.484 37.5587C324.069 42.385 313.969 45.6632 306.039 47.0705C304.383 44.7608 301.949 41.284 299.507 37.5587C295.202 30.9609 291.833 18.7174 301.527 13.4689V13.4606Z" fill="#D79A70"/>
<path d="M345.686 25.7205C341.837 24.3049 336.29 29.1643 335.62 33.2124C335.222 35.5882 335.123 38.585 335.686 42.2357C336.895 50.0256 335.86 58.0224 345.016 65.9447C351.108 71.218 351.986 77.8903 359.726 86.8639C363.385 91.1024 363.037 90.1422 367.872 95.6555C372.334 100.755 375.811 105.209 382.467 113.76C383.394 114.952 384.255 116.061 385.033 117.071C386.912 119.505 390.232 120.317 393.013 118.992C395.935 117.593 395.422 115.598 398.957 113.396C400.571 112.394 415.439 107.734 419.139 104.778C427.12 98.4039 427.889 94.4551 428.452 86.599C428.883 80.5724 420.729 77.1204 413.013 63.2874C404.843 48.6348 394.47 42.8317 382.177 36.532C372.276 31.4657 364.527 30.1494 359.047 27.9143C354.577 26.093 349.196 27.0119 345.678 25.7205H345.686Z" fill="#DA7BB0"/>
<path d="M285.537 17.4176C299.544 11.9042 314.453 6.25846 329.569 7.36775C337.161 7.93067 342.98 9.11447 344.653 13.1874C345.596 15.497 343.626 17.161 342.732 21.5236C340.704 31.3748 327.988 37.6663 322.723 39.9925C310.405 45.4313 299.395 44.2723 294.892 43.8419C286.729 43.0637 284.635 41.6647 280.405 40.2491C275.38 38.5769 268.583 24.0899 285.537 17.4259V17.4176Z" fill="#E5893C"/>
<path d="M333.962 17.5335C333.855 18.8746 331.446 28.3201 317.381 28.3863C308.598 28.4277 292.968 31.0271 290.609 25.4144C288.25 19.8017 294.185 1.366 300.915 1.89581C305.444 2.25177 310.808 2.40906 316.015 0.223591C321.222 -1.96188 334.393 12.1857 333.954 17.5335H333.962Z" fill="#FAAA63"/>
<path d="M311.239 265.186C312.431 265.186 313.515 264.475 313.846 263.382L370.155 75.5309C370.544 74.2229 369.7 72.8818 368.268 72.5176C366.836 72.1616 365.354 72.9315 364.965 74.2312L308.656 262.09C308.267 263.398 309.111 264.739 310.543 265.104C310.775 265.162 311.007 265.186 311.239 265.195V265.186Z" fill="#753C30"/>
<path d="M346.421 146.874C346.421 146.874 340.527 139.042 341.363 136.683C342.199 134.324 346.57 139.357 346.57 139.357C346.57 139.357 341.677 135.723 342.472 133.289C343.267 130.855 347.398 135.69 347.398 135.69C347.398 135.69 342.936 130.516 343.954 129.539C344.972 128.554 350.635 134.398 350.601 135.814C350.577 137.221 349.881 137.453 349.832 139.903C349.782 142.354 346.413 146.89 346.413 146.89L346.421 146.874Z" fill="#FCC195"/>
<path d="M344.229 144.531C345.099 144.473 347.193 146.327 346.018 147.511C344.834 148.695 341.349 144.704 344.229 144.531Z" fill="#FCC195"/>
<path d="M372.613 126.699C366.769 136.468 363.408 144.522 359.981 149.746C352.638 160.955 348.523 163.703 348.697 169.208C349.095 181.841 347.903 180.682 349.906 183.463C350.85 184.771 350.436 188.149 348.697 189.846C347.787 190.732 346.934 190.947 346.934 190.947C345.22 191.427 344.169 190.194 344.169 192.826C344.169 196.262 333.416 198.099 333.416 198.099C333.416 198.099 335.907 189.242 332.621 188.927C326.636 188.348 331.644 181.7 332.621 178.604C333.523 175.765 356.098 122.395 356.098 122.395L372.613 126.691V126.699Z" fill="#FCC195"/>
<path d="M337.198 43.8004C338.589 48.9826 338.638 53.2873 344.085 60.299C348.763 66.3173 351.296 72.1535 353.432 81.6819C353.705 82.8988 352.521 90.5396 353.299 97.4189C353.87 102.502 352.107 117.841 352.107 117.841L379.897 119.356C379.897 119.356 380.32 113.81 380.974 101.07C381.321 94.3062 384.848 85.1505 383.78 78.1139C382.919 72.4433 386.777 62.7163 377.637 53.7675C371.437 47.6995 368.299 47.5256 362.67 42.4345C353.134 33.792 343.928 30.4144 339.392 34.6695C337.604 36.3417 336.304 40.5222 337.181 43.8087L337.198 43.8004Z" fill="#E892BE"/>
<path d="M378.644 117.56C378.644 117.56 366.127 117.56 361.284 116.889C356.441 116.219 351.251 114.331 349.943 116.889C348.635 119.447 348.503 120.929 348.503 124.969C348.503 129.009 346.822 129.878 348.503 131.567C350.183 133.247 360.208 131.029 366.135 133.587C372.054 136.145 376.227 136.948 378.652 134.53C381.078 132.105 379.389 125.847 381.475 123.76C382.452 122.784 382.386 121.351 382.03 120.11C381.599 118.603 380.217 117.56 378.644 117.568V117.56Z" fill="#F2C1D1"/>
<path d="M332.703 264.334C331.42 262.372 324.616 261.147 322.356 260.534C315.079 258.572 307.033 254.896 302.794 254.077C301.229 253.779 292.289 250.923 292.206 250.906C291.875 250.815 289.789 250.294 287.752 251.585C286.478 252.396 285.534 253.713 285.244 255.327C285.219 255.476 281.386 270.65 281.088 271.751C280.02 275.774 279.209 287.985 279.201 288.034C279.06 289.467 277.976 303.258 286.883 310.427C287.165 310.651 313.092 321.802 329.641 285.7C333.771 276.685 333.581 269.408 333.937 268.382C334.02 268.133 334.417 266.95 332.695 264.334H332.703Z" fill="#E5E5E5"/>
<mask id="mask1_848_8476" style="mask-type:luminance" maskUnits="userSpaceOnUse" x="279" y="250" width="56" height="63">
<path d="M332.7 264.334C331.416 262.372 324.612 261.147 322.352 260.534C315.075 258.572 307.029 254.896 302.79 254.077C301.226 253.779 292.285 250.923 292.202 250.906C291.871 250.815 289.785 250.294 287.748 251.585C286.474 252.396 285.53 253.713 285.24 255.327C285.215 255.476 281.382 270.65 281.084 271.751C280.017 275.774 279.205 287.985 279.197 288.034C279.056 289.467 277.972 303.258 286.879 310.427C287.161 310.651 313.088 321.802 329.637 285.7C333.767 276.685 333.577 269.408 333.933 268.382C334.016 268.133 334.413 266.95 332.691 264.334H332.7Z" fill="white"/>
</mask>
<g mask="url(#mask1_848_8476)">
<path opacity="0.23" d="M297.546 329.145C296.33 328.102 323.035 299.301 317.39 280.7C316.843 278.912 315.154 273.333 310.204 270.303C306.164 267.836 302.58 268.655 297.546 268.448C288.2 268.059 274.773 264.16 273.034 257.943C271.296 251.718 280.891 241.767 291.131 238.1C310.047 231.328 337.216 243.854 343.665 262.033C354.874 293.664 299.111 330.486 297.555 329.153L297.546 329.145Z" fill="#A19287"/>
</g>
<path d="M318.328 7.44211C311.689 0.927097 311.416 6.58117 304.33 4.81789L303.775 4.67716C300.488 4.25497 299.834 8.8163 298.328 10.7783C297.417 11.9703 296.01 15.6542 294.288 19.4539C293.816 20.4887 293.601 21.3579 293.477 23.9159C293.477 24.0566 293.477 24.3795 293.675 24.6692C294.247 25.4971 295.397 23.6841 295.397 23.6841C295.977 20.7039 296.225 20.1493 297.583 16.4406C298.469 14.0233 298.642 12.5167 301.838 7.04475C302.103 6.58945 302.657 5.63744 303.477 5.63744C303.767 5.63744 303.949 5.83612 304.131 5.76162C307.459 6.36593 308.419 6.00169 311.664 4.76822C312.566 4.55299 313.535 4.71855 314.404 5.03313C315.845 5.55466 317.161 6.43216 318.328 7.44211Z" fill="#FEEDE5"/>
<path d="M135.282 176.998C134.719 176.94 134.289 176.509 134.198 175.963C133.809 173.537 132.162 167.759 125.233 168.289C117.832 168.852 117.898 174.125 117.898 174.125C117.898 174.125 118.643 167.469 110.332 170.069C105.762 171.501 105.481 173.802 106.151 175.59C106.491 176.493 105.588 177.37 104.628 177.163C101.449 176.476 96.9291 176.369 95.8033 180.806C94.6195 185.508 98.3944 186.51 101.019 186.659C101.937 186.708 102.5 187.644 102.078 188.438C101.06 190.351 100.274 193.381 103.469 195.748C105.911 197.553 107.873 197.569 109.239 197.106C110.042 196.833 110.919 197.395 110.911 198.223C110.911 200.243 112.004 202.669 117.327 202.727C126.449 202.826 125.605 196.94 125.605 196.94C125.605 196.94 125.589 203.356 130.845 202.545C137.418 201.526 138.13 193.554 134.844 190.392C134.215 189.788 134.322 188.794 135.109 188.397C137.112 187.379 139.678 185.375 139.215 181.865C138.701 177.958 136.557 177.139 135.282 176.998Z" fill="#753C30"/>
<path d="M152.688 235.807C161.761 245.725 170.221 252.38 176.372 256.668C187.837 264.657 196.844 268.316 201.77 278.407C205.42 285.882 204.543 292.273 203.641 294.335C202.333 297.331 199.526 289.094 192.597 282.166C184.94 274.508 181.074 273.945 159.915 260.534C156.181 258.167 150.726 254.599 144.26 249.93C144.426 248.258 144.947 245.195 152.679 235.807H152.688Z" fill="#FCC195"/>
<path d="M133.868 202.164C133.868 202.164 137.213 213.323 137.585 213.977C139.903 218.083 143.893 224.938 153.173 234.466C153.852 235.161 153.786 236.262 153.049 236.891C149.341 240.103 146.683 245.724 145.599 250.534C145.425 251.312 144.44 251.544 143.951 250.915C138.496 244.019 117.842 216.494 116.666 210.012C115.333 202.652 121.376 199.225 133.868 202.156V202.164Z" fill="#C4639D"/>
<path d="M125.066 219.557C125.066 219.557 144.073 218.282 145.943 230.252C146.622 234.59 144.818 235.7 140.289 250.004C140.289 250.004 133.154 272.554 127.715 277.985C126.564 279.136 125.413 279.798 124.975 279.715C122.864 279.326 121.059 279.028 118.89 278.896C117.392 278.805 116.332 277.397 116.688 275.94C117.292 273.49 117.135 271.453 118.311 268.672C121.009 262.314 121.382 257.273 122.019 248.564C122.077 247.827 122.077 247.695 121.97 247.529C119.751 243.837 89.6015 258.324 74.9158 253.423C59.2119 248.191 79.891 219.557 125.066 219.557Z" fill="#448595"/>
<path d="M81.3664 201.791C93.1133 196.063 100.63 193.521 104.413 192.52C113.95 189.995 125.018 194.995 129.761 198.488C129.761 198.488 131.988 213.82 129.745 218.869C127.501 223.919 123.014 240.178 114.604 248.589C109.86 253.34 91.4494 254.955 76.3084 255.468C68.7586 245.584 55.2153 246.213 46.5313 236.544C45.2317 235.095 46.4982 231.933 49.793 227.197C54.9752 219.755 60.919 214.507 69.6112 208.844C71.002 207.934 75.4391 204.672 81.3581 201.783L81.3664 201.791Z" fill="#DA7BB0"/>
<path d="M49.735 229.814C58.212 238.448 68.4771 240.956 75.6875 250.402C63.9986 250.799 54.2633 250.534 54.2633 250.534L37.715 246.999C37.715 246.999 38.2365 241.146 47.4088 229.954C47.9966 229.234 49.0811 229.16 49.735 229.822V229.814Z" fill="#448595"/>
<path d="M55.4175 233.464C60.2934 230.087 67.4045 230.02 75.6331 228.373C87.4048 226.014 91.5688 224.747 96.6268 224.441C103.986 223.994 116.197 224.35 131.445 230.178L100.203 255.965C100.319 255.965 100.385 255.989 100.418 256.039C100.882 256.834 89.524 260.956 76.6596 270.104C70.8979 274.202 60.6577 277.016 54.7718 277.529C51.3446 277.828 45.9223 275.924 41.2533 271.718C36.6258 267.546 33.6539 260.253 34.9288 254.491C36.6424 246.792 40.6159 243.084 42.553 241.105C46.1872 237.372 49.6476 237.471 55.4175 233.472V233.464Z" fill="#82B1C1"/>
<path d="M137.107 266.445C136.61 267.969 122.454 284.36 124.673 286.868C127.057 289.567 132.463 290.61 138.646 291.173C145.699 291.81 144.772 297.199 144.772 297.199L118.572 295.75L117.073 293.59L115.095 294.749L106.378 292.017C106.378 292.017 116.229 272.257 119.192 259.674C119.598 257.944 122.115 255.857 124.342 256.652C126.9 257.571 131.022 266.528 137.107 266.445Z" fill="#E8A423"/>
<path d="M108.651 292.174C110.331 293.854 114.785 293.647 115.439 293.2C115.795 292.96 116.912 292.522 117.235 292.588C117.674 292.679 118.038 293.366 118.303 293.631C118.643 293.962 119.264 295.146 119.851 295.171C126.01 295.51 136.126 296.934 144.471 296.652C145.564 296.619 146.425 297.969 145.34 298.06C139.289 298.573 124.388 298.308 118.196 296.363C117.765 296.23 117.169 294.293 116.706 294.318C116.35 294.343 115.646 295.262 115.331 295.361C113.858 295.841 107.161 295.113 105.795 293.383C104.619 291.884 107.484 290.99 108.651 292.157V292.174Z" fill="#FFF5F0"/>
<path d="M139.324 294.459C139.357 294.136 136.708 294.028 133.306 293.068C127.974 291.57 122.072 291.106 122.13 286.073C122.221 279.169 133.355 266.586 132.718 266.52C132.114 266.462 133.67 262.67 127.767 270.328C123.959 275.278 118.355 284.467 121.045 288.308C123.016 291.123 125.59 292.041 127.759 292.878C130.251 293.838 139.274 294.757 139.307 294.45L139.324 294.459Z" fill="#FFF5F0"/>
<path d="M143.844 218.075C143.844 218.075 135.889 214.681 127.909 216.899C127.909 216.899 124.688 209.912 127.114 203.621C129.076 198.546 129.763 198.497 129.763 198.497L140.889 203.538L146.055 207.628L143.836 218.075H143.844Z" fill="#FCC195"/>
<path d="M146.062 207.628L143.844 218.075C143.844 218.075 141.427 217.04 137.917 216.485C135.905 211.841 136.559 211.071 136.559 205.955C136.559 204.888 137.014 203.563 137.826 202.147L140.889 203.538L146.054 207.628H146.062Z" fill="#D79A70"/>
<path d="M163.749 191.982C163.749 191.982 166.059 195.699 166.059 200.575C166.059 205.451 160.802 209.681 160.802 212.247C160.802 214.383 160.653 215.542 161.1 216.883C161.332 217.578 160.992 218.356 160.289 218.588C159.775 218.754 158.799 218.63 157.838 218.356C157.838 218.356 153.567 223.05 150.578 224.772C149.924 225.153 145.148 225.84 142.201 218.919C139.254 211.999 140.023 211.866 140.023 205.972C140.023 200.078 152.209 186.353 163.749 191.998V191.982Z" fill="#FCC195"/>
<mask id="mask2_848_8476" style="mask-type:luminance" maskUnits="userSpaceOnUse" x="139" y="190" width="28" height="35">
<path d="M163.745 191.982C163.745 191.982 166.055 195.699 166.055 200.575C166.055 205.451 160.798 209.681 160.798 212.247C160.798 214.383 160.649 215.542 161.096 216.883C161.328 217.579 160.988 218.357 160.285 218.589C159.771 218.754 158.795 218.63 157.834 218.357C157.834 218.357 153.563 223.051 150.574 224.773C149.92 225.153 145.144 225.84 142.197 218.92C139.25 211.999 140.019 211.867 140.019 205.973C140.019 200.078 152.205 186.353 163.745 191.999V191.982Z" fill="white"/>
</mask>
<g mask="url(#mask2_848_8476)">
<path d="M152.313 220.087C152.395 220.401 152.561 220.79 152.892 221.138C153.521 221.817 154.316 221.908 154.631 221.924C154.763 221.924 154.879 221.825 154.879 221.693C154.879 221.56 154.78 221.444 154.647 221.444C154.448 221.444 153.77 221.37 153.248 220.815C152.801 220.335 152.727 219.764 152.71 219.54C152.71 219.408 152.594 219.3 152.453 219.309C152.321 219.309 152.213 219.424 152.222 219.565C152.222 219.681 152.246 219.871 152.304 220.103L152.313 220.087Z" fill="#010101"/>
</g>
<path d="M165.659 196.982C165.659 196.982 169.847 193.124 165.998 189.275C163.771 187.04 163.365 183.19 159.648 181.518C157.057 180.351 149.946 177.569 144.185 177.66C141.254 177.71 135.31 179.374 133.1 182.859C132.595 183.654 132.338 184.622 132.338 185.823C132.338 190.566 127.926 197.338 131.519 200.922C132.934 202.338 135.161 206.568 136.337 207.057C139.706 208.472 142.943 206.759 144.392 206.461C148.638 205.608 147.471 203.522 154.317 198.05C156.205 196.543 161.089 195.037 163.622 195.434C164.624 195.591 165.17 196.171 165.65 196.974L165.659 196.982Z" fill="#753C30"/>
<path d="M77.4865 283.374C76.2034 282.373 81.5429 274.467 84.225 269.218C93.7534 250.584 100.227 247.223 106.585 240.923C114.052 233.522 120.765 228.44 127.794 228.564C130.906 228.622 132.703 231.039 134.516 233.994C139.656 242.364 123.241 257.397 105.492 273.846C100.285 278.664 93.3312 285.883 93.3312 285.883C90.9305 287.927 89.0182 288.614 87.4536 289.376C86.3608 289.906 85.0611 289.732 84.1671 288.896C82.9667 287.778 81.1041 286.197 77.4865 283.374Z" fill="#86C2D3"/>
<path d="M195.45 279.939C195.483 280.502 201.576 292.621 199.266 293.888C196.957 295.154 193.935 286.073 193.935 286.073C193.935 286.073 189.2 284.26 188.96 280.344C188.72 276.429 195.458 279.939 195.458 279.939H195.45Z" fill="#FCC195"/>
<path d="M252.812 319.004C252.812 319.004 251.603 314.799 241.371 318.466C231.139 322.133 224.947 325.974 230.874 327.415C236.793 328.863 245.411 326.165 245.411 326.165C245.411 326.165 254.029 323.126 252.812 318.996V319.004Z" fill="#702C37"/>
<path d="M150.799 204.093C150.799 204.093 153.374 197.553 150.203 198.496C147.032 199.44 145.575 203.463 146.056 204.771C146.544 206.071 149.632 206.353 150.799 204.093Z" fill="#FCC195"/>
<path d="M49.0521 229.698L50.3849 230.824C54.7889 226.974 58.5639 223.812 66.1219 218.539C71.718 214.64 74.4913 212.421 78.0261 210.161C86.5114 204.739 89.4336 202.139 95.3194 200.293C100.535 198.662 105.742 198.265 111.396 198.994C113.631 199.283 118.184 201.833 119.972 205.624C124.848 215.948 107.878 231.577 107.878 231.577L114.5 233.067C114.5 233.067 127.381 213.704 123.292 204.971C119.194 196.237 111.487 192.272 97.5546 195.525C92.4634 196.717 85.6587 201.974 81.652 204.383C77.8937 206.651 75.7495 207.62 70.4432 211.817C66.1302 215.236 61.1135 218.009 57.2476 221.188C53.9859 223.87 52.6366 225.517 49.0355 229.673L49.0521 229.698Z" fill="#448595"/>
<path d="M134.143 244.317C134.524 244.946 134.905 245.559 135.277 246.171L123.357 258.564C122.065 257.297 120.766 256.014 119.482 254.706C123.646 250.484 128.729 247.057 134.143 244.309V244.317Z" fill="#F1605C"/>
<path d="M256.098 271.487L250.543 304.732H248.15L250.543 270.311L256.098 271.487Z" fill="#E5893C"/>
<path d="M253.611 286.412L255.184 277.008L250.117 276.602L248.164 304.732H249.182L251.044 286.412C251.044 286.412 251.607 285.717 253.611 286.412Z" fill="#DB7527"/>
<path d="M262.656 276.602L241.737 273.365L240.744 283.316L261.017 286.114L262.656 276.602Z" fill="#82B1C1"/>
<path d="M262.656 276.602L241.737 273.365L240.744 283.316L242.672 274.839L262.656 276.602Z" fill="#D6E1F3"/>
<path d="M375.627 308.217C376.298 309.6 375.892 311.139 374.783 312.373C371.985 315.486 365.354 322.1 359.551 322.1C351.96 322.1 351.207 320.486 339.443 320.486C331.612 320.486 316.876 319.608 307.911 319.02C303.449 318.731 300.461 315.668 301.603 312.596C302.274 310.783 303.317 308.747 304.914 306.76C309.467 301.106 313.979 301.644 322.539 298.954C331.099 296.263 339.824 300.303 352.349 303.532C363.309 306.355 373.31 303.416 375.636 308.225L375.627 308.217Z" fill="#702C37"/>
<path d="M303.484 305.229C303.484 305.229 292.714 299.037 287.333 302C281.952 304.964 271.993 309.666 271.993 314.31C271.993 318.954 280.47 321.512 283.301 318.689C286.124 315.867 283.028 310.535 291.646 310.535C300.264 310.535 303.492 305.229 303.492 305.229H303.484Z" fill="#702C37"/>
<path d="M294.357 326.512C293.935 326.471 293.529 326.462 293.107 326.496C290.681 326.703 281.517 327.423 273.612 327.423C264.406 327.423 255.888 330.213 259.298 320.527C262.709 310.833 255.548 310.03 271.567 310.03C287.585 310.03 297.13 307.34 297.13 311.379C297.13 313.424 298.62 317.522 300.086 321.065C301.302 323.996 298.231 326.926 294.357 326.52V326.512Z" fill="#702C37"/>
<path d="M325.593 330.453C325.129 330.411 324.666 330.403 324.202 330.436C321.512 330.643 311.321 331.363 302.538 331.363C292.314 331.363 282.844 334.153 286.627 324.467C290.41 314.774 282.463 313.971 300.261 313.971C318.06 313.971 328.672 311.28 328.672 315.32C328.672 317.365 330.328 321.471 331.959 325.014C333.308 327.944 329.898 330.875 325.593 330.469V330.453Z" fill="#702C37"/>
<path d="M202.788 244.276C202.159 244.748 202.035 245.402 201.803 246.006C200.197 250.203 197.366 265.088 197.018 267.29C196.364 266.106 193.575 249.094 192.523 243.978C192.391 243.324 192.391 242.645 192.308 241.983C192.275 241.726 192.217 241.42 191.894 241.379C191.439 241.329 191.364 241.701 191.298 242.032C191.265 242.297 191.248 242.562 191.248 242.827C190.893 248.581 192.068 263.167 192.25 264.748C192.358 266.147 194.071 271.048 194.46 272.43C193.484 271.859 191.911 268.291 191.431 267.364C190.942 266.42 190.363 265.526 189.833 264.607C189.27 263.631 188.707 262.654 188.144 261.677C187.507 260.741 187.06 258.705 186.431 257.77C186.273 257.538 186.017 257.331 185.777 257.438C185.404 257.604 185.445 257.976 185.594 258.291C186.017 259.119 186.315 260.013 186.464 260.932C187.192 262.803 187.904 264.682 188.657 266.545C189.825 269.26 191.306 271.826 193.061 274.194C194.792 276.636 195.47 281.181 195.578 281.346C196.969 282.48 198.55 282.108 199.825 281.346C199.494 279.815 200.537 278.772 201.116 277.414C202.648 273.854 204.726 265.593 204.875 265.22C205.065 264.475 205.678 263.448 204.734 263.084C203.98 262.794 203.724 263.962 203.351 264.558C202.532 265.882 201.754 267.248 200.967 268.598L200.553 268.432C201.538 264.823 201.795 261.089 202.664 257.463C203.037 253.076 203.459 248.688 202.788 244.276Z" fill="#82A088"/>
<path d="M195.575 281.354C195.484 284.343 189.88 288.681 191.502 296.702C192.222 300.254 198.77 302.083 203.067 300.047C204.557 299.343 205.931 298.101 207.016 296.148C209.334 291.942 205.857 286.023 203.001 284.972C201.279 284.343 199.83 281.354 199.83 281.354H195.583H195.575Z" fill="#FEEDE5"/>
<path d="M198.753 297.745C197.875 296.156 197.387 294.384 197.304 292.563C197.221 291.321 197.288 290.079 197.337 288.838C197.346 288.631 197.056 288.589 196.998 288.788C196.278 291.586 196.675 294.409 197.437 297.406C195.475 296.238 194.63 294.748 194.763 292.737C194.821 291.247 195.044 289.765 195.425 288.324C195.516 287.993 195.632 287.588 195.135 287.521C194.804 287.48 194.688 287.836 194.63 288.109C194.307 289.74 193.927 291.371 193.951 293.043C194.001 295.808 195.533 297.621 197.892 298.838C198.14 298.987 198.422 299.07 198.711 299.094C199.001 299.119 199.291 299.07 199.556 298.962C200.781 298.474 201.965 297.894 203.107 297.232C204.755 296.18 205.384 294.525 205.177 292.613C204.986 290.882 204.216 289.401 203.091 288.026C202.925 287.819 202.577 287.944 202.586 288.208C202.594 288.44 202.751 288.631 202.851 288.813C203.422 289.872 204.134 290.858 204.39 292.066C204.606 292.952 204.506 293.887 204.125 294.707C203.736 295.535 203.091 296.205 202.271 296.611C201.923 296.421 202.064 296.114 202.147 295.866C202.867 293.631 202.172 291.569 201.41 289.5C201.344 289.343 201.261 289.194 201.162 289.053C201.137 288.995 201.104 288.954 201.062 288.92C201.021 288.879 200.971 288.854 200.913 288.838C200.856 288.821 200.806 288.821 200.748 288.829C200.69 288.829 200.64 288.854 200.591 288.887C200.533 288.945 200.5 289.02 200.483 289.103C200.466 289.177 200.466 289.268 200.483 289.343C200.632 289.773 200.872 290.179 201.021 290.609C201.601 292.248 202.081 293.904 201.435 295.642C201.203 296.272 200.963 296.909 200.044 297.273C200.168 295.237 200.061 293.192 199.721 291.18C199.663 290.841 199.639 290.502 199.548 290.17C199.514 290.096 199.473 290.03 199.407 289.98C199.349 289.93 199.274 289.889 199.192 289.872C199.134 289.872 199.076 289.872 199.026 289.897C198.968 289.922 198.927 289.955 198.885 289.997C198.844 290.038 198.819 290.088 198.802 290.146C198.786 290.204 198.786 290.261 198.802 290.319C198.952 291.512 199.134 292.704 199.258 293.904C199.382 295.137 199.605 296.387 198.745 297.762L198.753 297.745Z" fill="#F05964"/>
<path d="M155.226 277.894C154.597 278.366 154.473 279.02 154.241 279.624C152.635 283.821 149.646 296.52 149.299 298.722C148.645 297.538 146.004 282.72 144.961 277.604C144.828 276.95 144.828 276.271 144.746 275.609C144.712 275.352 144.655 275.046 144.332 275.005C143.876 274.955 143.802 275.328 143.736 275.659C143.703 275.924 143.686 276.189 143.686 276.453C143.33 282.207 144.506 296.793 144.688 298.374C144.795 299.773 145.449 301.023 145.838 302.406C144.861 301.835 144.539 300.808 144.058 299.881C143.57 298.937 142.991 298.043 142.461 297.124C141.898 296.147 141.335 295.171 140.772 294.194C140.135 293.258 139.505 292.323 138.868 291.396C138.711 291.164 138.454 290.957 138.214 291.065C137.842 291.23 137.883 291.603 138.032 291.917C138.454 292.745 138.752 293.639 138.901 294.558C139.63 296.429 140.342 298.308 141.095 300.171C142.262 302.886 143.744 305.452 145.499 307.82C147.229 310.262 147.908 314.807 148.016 314.972C149.406 316.106 150.987 315.734 152.262 314.972C151.931 313.441 152.974 312.398 153.554 311.04C155.085 307.48 157.163 299.219 157.312 298.846C157.502 298.101 158.115 297.075 157.171 296.71C156.418 296.421 156.161 297.588 155.789 298.184C154.969 299.508 154.191 300.874 153.405 302.224L152.991 302.058C153.976 298.449 154.233 294.715 155.102 291.089C155.474 286.702 155.896 282.314 155.226 277.902V277.894Z" fill="#82A088"/>
<path d="M150.516 317.985C151.054 317.24 152.188 316.818 153.355 316.777C152.693 315.866 152.263 314.98 152.263 314.98H148.016C147.991 316.024 147.271 317.24 146.427 318.731C146.667 318.747 146.89 318.772 147.114 318.797C147.983 318.449 149.167 318.168 150.516 317.985Z" fill="#FEEDE5"/>
<path d="M231.929 275.882C231.3 276.354 231.176 277.008 230.944 277.612C229.338 281.809 226.349 294.508 226.002 296.71C225.348 295.527 222.707 280.708 221.664 275.592C221.531 274.938 221.532 274.26 221.449 273.597C221.416 273.341 221.358 273.034 221.035 272.993C220.58 272.943 220.505 273.316 220.439 273.647C220.406 273.912 220.389 274.177 220.389 274.442C220.033 280.195 221.209 294.781 221.391 296.363C221.498 297.762 222.152 299.012 222.541 300.394C221.565 299.823 221.242 298.796 220.762 297.869C220.273 296.926 219.694 296.031 219.164 295.113C218.601 294.136 218.038 293.159 217.475 292.182C216.838 291.247 216.209 290.311 215.571 289.384C215.414 289.152 215.157 288.945 214.917 289.053C214.545 289.218 214.586 289.591 214.735 289.906C215.157 290.733 215.455 291.627 215.604 292.546C216.333 294.417 217.045 296.296 217.798 298.159C218.965 300.874 220.447 303.441 222.202 305.808C223.932 308.25 224.611 312.795 224.719 312.961C226.109 314.095 227.691 313.722 228.965 312.961C228.634 311.429 229.677 310.386 230.257 309.028C231.788 305.469 233.866 297.207 234.015 296.834C234.206 296.089 234.818 295.063 233.874 294.699C233.121 294.409 232.864 295.576 232.492 296.172C231.672 297.497 230.894 298.863 230.108 300.212L229.694 300.046C230.679 296.437 230.936 292.704 231.805 289.078C232.177 284.69 232.6 280.303 231.929 275.89V275.882Z" fill="#82A088"/>
<path d="M224.303 314.484C225.677 314.244 227.299 314.55 228.127 315.427C228.607 315.452 229.054 315.494 229.493 315.552C229.758 315.386 230.073 315.245 230.379 315.154C229.518 314.111 228.955 312.944 228.955 312.944L224.708 312.96C224.692 313.424 224.543 313.929 224.303 314.475V314.484Z" fill="#FEEDE5"/>
<path d="M134.143 244.317C136.775 248.663 139.383 252.554 141.875 255.426C153.795 269.168 181.404 280.236 184.773 281.362C188.134 282.48 192.48 287.811 194.309 291.876C196.131 295.94 201.462 300.518 198.655 300.518C195.849 300.518 190.808 294.26 190.808 295.94C190.808 297.621 197.968 305.038 199.583 306.652C201.197 308.267 205.601 310.096 205.858 310.609C206.983 312.869 203.151 311.636 200.063 309.955C196.975 308.275 190.948 302.803 190.948 302.803C192.207 306.445 203.656 314.715 201.834 314.715C200.013 314.715 191.371 308.689 188.846 306.164C186.321 303.639 184.64 295.369 180.435 291.164C176.23 286.958 159.408 283.871 148.191 278.812C143.141 276.528 139.838 273.2 134.664 268.97C128.133 263.63 123.083 258.589 119.49 254.706C121.32 252.91 123.588 250.915 134.151 244.309L134.143 244.317Z" fill="#FCC195"/>
<path d="M201.768 278.407C201.768 278.407 208.606 287.099 210.973 289.334C213.349 291.569 208.399 305.775 207.091 304.542C205.783 303.308 207.405 295.849 207.405 296.743C207.405 297.637 202.364 308.234 201.147 304.616C200.659 303.159 204.458 294.831 204.458 294.831C204.458 294.831 201.412 299.492 199.856 298.027C198.299 296.561 203.647 287.546 203.647 284.864C203.647 282.182 201.76 278.407 201.76 278.407H201.768Z" fill="#EEB38C"/>
<path d="M107.882 204.788C110.689 205.74 113.371 210.12 118.321 217.711C120.184 220.558 125.449 226.03 126.285 227.405C128.86 231.627 130.126 235.393 134.265 242.289C134.944 243.423 134.638 244.888 133.553 245.642C130.979 247.43 128.23 249.466 125.515 251.917C122.8 254.367 120.167 256.933 118.147 258.945C117.229 259.855 115.763 259.864 114.828 258.97C112.841 257.066 110.2 254.549 108.545 250.766C103.644 239.59 95.6801 231.676 94.3308 226.635C92.195 218.638 93.3043 211.179 93.95 209.838C96.2513 205.037 102.998 203.124 107.882 204.788Z" fill="#E892BE"/>
<path d="M221.405 320.155C222.109 320.27 222.87 320.337 223.657 320.378C223.922 320.403 224.203 320.419 224.468 320.419C225.014 320.436 225.561 320.444 226.124 320.444C226.24 320.444 226.364 320.444 226.471 320.428C228.359 320.403 230.221 320.229 231.745 319.923C231.968 319.881 232.167 319.84 232.365 319.782C233.45 319.525 234.294 319.194 234.783 318.797C235.23 318.416 235.37 317.994 235.089 317.506C235.9 315.717 232.755 314.401 230.362 315.154C230.056 315.237 229.741 315.378 229.476 315.552C229.038 315.494 228.591 315.452 228.11 315.428C227.283 314.558 225.668 314.244 224.286 314.484C223.64 315.974 222.332 317.804 221.388 320.146L221.405 320.155Z" fill="#702C37"/>
<path d="M217.049 317.928C217.049 319.053 218.895 319.782 221.403 320.146C222.347 317.795 223.655 315.974 224.301 314.484C223.398 314.641 222.587 315.022 222.165 315.626C219.127 316.048 217.049 316.918 217.049 317.928Z" fill="#702C37"/>
<path d="M144.264 322.415H144.612C145.498 322.398 146.284 322.357 146.988 322.257C147.286 322.241 147.567 322.199 147.832 322.141V322.117C147.832 322.117 147.874 322.133 147.907 322.133C148.37 322.274 148.892 322.373 149.438 322.473C149.554 322.489 149.662 322.514 149.786 322.514C150.754 322.671 151.822 322.771 152.923 322.795C153.18 322.812 153.428 322.812 153.693 322.812C154.297 322.829 154.902 322.829 155.506 322.795C155.804 322.795 156.086 322.779 156.367 322.771C157.336 322.713 158.279 322.613 159.14 322.473C162.12 322.026 164.198 321.14 163.453 319.873C164.364 317.878 160.266 316.429 157.857 317.92C157.418 317.862 156.955 317.837 156.491 317.795C155.804 317.067 154.554 316.727 153.354 316.785C152.187 316.827 151.052 317.249 150.514 317.994C149.165 318.176 147.981 318.458 147.112 318.805C146.888 318.78 146.665 318.747 146.425 318.739C145.779 318.681 145.051 318.656 144.256 318.656C135.415 318.656 135.332 322.423 144.256 322.423L144.264 322.415Z" fill="#702C37"/>
<path d="M147.835 322.116V322.142C147.835 322.142 147.877 322.142 147.91 322.125C147.885 322.125 147.852 322.125 147.835 322.108V322.116Z" fill="#3F2F4C"/>
<path d="M354.766 236.544C355.238 238.34 355.892 244.632 356.803 247.943C359.642 258.183 357.788 277.753 355.329 280.593C352.68 283.648 346.869 284.657 340.238 285.071C332.68 285.543 333.474 291.876 333.474 291.876L361.521 291.214L363.599 289.798L364.692 291.115L372.987 290.452C372.987 290.452 373.558 287.671 375.801 274.848C376.075 273.283 378.897 263.357 379.527 259.516C380.437 253.92 380.992 249.657 381.215 243.672C381.34 240.41 381.133 235.609 381.033 233.522C370.379 234.806 365.412 235.261 354.766 236.544Z" fill="#A19287"/>
<path d="M352.586 236.974L352.71 236.03C352.826 235.12 355.806 233.489 356.998 233.348L376.601 232.189C378.034 232.015 382.893 231.833 383.323 232.876L383.588 233.514C384.002 234.515 383.125 236.386 381.759 236.552L355.144 238.787C353.712 238.961 352.454 238.067 352.594 236.974H352.586Z" fill="#786E8B"/>
<path d="M373.848 289.632C372.648 288.655 368.575 290.054 366.82 290.187C365.818 290.27 365.62 290.137 364.933 289.582C364.56 289.284 363.376 288.738 363.037 288.796C362.565 288.879 362.151 289.674 361.861 289.972C361.489 290.352 360.802 290.468 360.173 290.485C353.583 290.642 342.722 291.9 333.815 291.246C332.647 291.164 331.679 292.712 332.829 292.861C339.278 293.697 355.214 293.978 361.903 291.95C362.366 291.809 362.896 290.89 363.385 290.94C363.757 290.982 363.856 291.776 364.196 291.909C365.752 292.53 371.249 291.718 371.249 291.718C372.491 291.685 373.525 291.006 373.749 290.087C373.749 290.087 373.964 289.715 373.857 289.632H373.848Z" fill="#FFF5F0"/>
<path d="M339.394 288.888C339.369 288.515 342.2 288.49 345.876 287.505C351.629 285.965 357.631 283.747 359.063 278.076C362.01 266.404 359.121 243.349 359.8 243.299C360.454 243.258 361.091 244.342 361.489 245.104C364.245 250.418 363.426 276.636 360.412 281.015C358.202 284.227 354.137 286.603 351.786 287.489C349.088 288.515 339.41 289.235 339.386 288.871L339.394 288.888Z" fill="#FFF5F0"/>
<path d="M112.296 269.177C111.767 270.808 86.7827 289.285 89.1586 291.967C91.7083 294.848 97.4949 295.966 104.101 296.57C111.642 297.257 110.649 303.019 110.649 303.019L82.6353 301.471L81.0376 299.161L78.9183 300.395L72.0639 291.893C72.0639 291.893 90.6818 257.563 90.8474 255.659C101.452 257.19 101.7 267.646 112.305 269.177H112.296Z" fill="#E8A423"/>
<path d="M111.977 271.014L112.341 270.22C112.689 269.458 111.257 266.817 110.437 266.163L96.4054 256.263C95.4203 255.468 91.8937 253.1 91.0742 253.713L90.5692 254.094C89.7828 254.681 89.5262 256.544 90.4699 257.297L109.204 271.255C110.189 272.049 111.555 271.925 111.977 271.014Z" fill="#559069"/>
<path d="M71.5361 291.123C72.7861 290.303 75.0461 295.104 76.2961 296.354C78.0925 298.151 78.5975 299.227 79.3012 298.739C79.682 298.482 80.8823 298.018 81.2217 298.085C81.6936 298.176 82.0827 298.921 82.3641 299.202C82.7284 299.558 83.3989 300.816 84.0198 300.85C90.601 301.214 101.421 302.737 110.345 302.439C111.512 302.398 112.439 303.846 111.28 303.946C104.815 304.492 88.8709 304.211 82.2565 302.133C81.8012 301.992 81.1638 299.922 80.6671 299.947C80.2946 299.972 79.5329 300.957 79.1935 301.065C77.6124 301.578 74.0527 298.018 72.5958 296.164C71.3375 294.566 70.2695 292.803 70.5013 291.959C70.5924 291.636 70.907 291.537 71.5444 291.123H71.5361Z" fill="#FFF5F0"/>
<path d="M104.827 300.088C104.868 299.748 102.037 299.633 98.3945 298.606C92.6908 297 86.3827 296.503 86.4489 291.122C86.5483 283.738 106.267 271.296 105.588 271.23C104.943 271.172 106.491 268.009 98.6263 274.723C94.3795 278.349 82.4174 289.409 85.2982 293.523C87.4092 296.536 90.1576 297.513 92.4838 298.407C95.1494 299.434 104.802 300.419 104.835 300.088H104.827Z" fill="#FFF5F0"/>
<path d="M389.724 229.797C390.113 231.469 390.659 237.305 391.421 240.377C393.78 249.88 395.287 251.37 396.082 255.402C397.812 264.143 396.968 267.264 394.915 269.897C392.712 272.736 387.878 273.664 382.365 274.053C376.073 274.491 376.735 280.369 376.735 280.369L400.072 279.756L401.794 278.448L402.704 279.674L409.6 279.061C409.6 279.061 410.08 276.478 411.943 264.574C412.166 263.117 414.517 253.912 415.039 250.344C415.792 245.153 416.256 241.196 416.446 235.633C416.554 232.603 416.38 228.15 416.297 226.212C407.44 227.404 398.582 228.597 389.716 229.797H389.724Z" fill="#A19287"/>
<path d="M387.911 230.195L388.01 229.317C388.11 228.473 390.585 226.958 391.578 226.825L412.605 224.971C413.797 224.814 417.837 224.64 418.193 225.608L418.417 226.205C418.764 227.132 418.036 228.87 416.893 229.027L390.03 231.875C388.838 232.032 387.787 231.205 387.903 230.195H387.911Z" fill="#786E8B"/>
<path d="M410.322 278.291C409.32 277.381 405.934 278.68 404.469 278.813C403.633 278.887 403.476 278.771 402.896 278.258C402.59 277.985 401.605 277.472 401.315 277.53C400.918 277.612 400.578 278.349 400.338 278.622C400.024 278.97 399.452 279.086 398.939 279.094C393.459 279.235 384.419 280.411 377.01 279.806C376.041 279.723 375.23 281.164 376.19 281.305C381.555 282.083 394.808 282.339 400.371 280.46C400.76 280.328 401.191 279.475 401.605 279.525C401.919 279.558 402.002 280.303 402.275 280.427C403.575 281.007 408.145 280.245 408.145 280.245C409.171 280.212 410.04 279.583 410.223 278.73C410.223 278.73 410.396 278.391 410.314 278.308L410.322 278.291Z" fill="#FFF5F0"/>
<path d="M381.664 277.604C381.64 277.256 383.999 277.232 387.054 276.321C391.838 274.889 398.287 271.304 399.827 266.155C400.183 264.955 400.961 263.059 400.059 256.478C399.007 248.787 396.325 235.89 396.896 235.848C397.435 235.807 397.973 236.817 398.304 237.529C400.597 242.454 401.466 249.971 401.466 249.971C402.153 255.932 403.743 265.178 401.234 269.251C399.396 272.231 393.933 275.501 391.971 276.329C389.727 277.281 381.673 277.944 381.656 277.612L381.664 277.604Z" fill="#FFF5F0"/>
<path d="M159.289 206.146C159.803 206.601 159.447 207.694 158.71 207.984C158.412 208.1 157.94 208.1 157.799 207.835C157.452 207.164 158.751 205.674 159.289 206.146Z" fill="#010101"/>
</g>
<defs>
<clipPath id="clip0_848_8476">
<rect width="508.08" height="357.804" fill="white" transform="matrix(-1 0 0 1 509 0)"/>
</clipPath>
</defs>
</svg>
