<svg width="192" height="75" viewBox="0 0 192 75" fill="none" xmlns="http://www.w3.org/2000/svg">
<path d="M18.968 55.0178C21.8066 57.6958 17.9659 59.216 22.0667 63.122C24.0927 65.048 36.6009 62.224 42.0938 61.023C56.1243 57.9609 54.2879 69.1596 68.627 69.5221C74.0388 69.6573 75.4201 58.253 81.0486 59.0159C85.5881 59.638 94.7648 72.1189 98.6651 71.6158C105.951 70.6798 103.979 58.8157 112.836 58.2693C126.981 57.4037 122.425 66.1408 132.609 67.3148C137.127 67.8396 137.289 59.73 145.523 58.7183C155.242 57.5119 156.872 65.3401 163.248 64.0147C166.445 63.3493 165.258 56.3163 171.759 55.7157C181.629 54.8069 185.605 58.3775 188.081 56.6138C196.093 50.9171 186.201 38.0575 176.163 27.3186C166.851 17.3479 157.663 5.57577 146.959 3.01143C145.897 2.75175 144.819 2.58404 143.725 2.52453C137.755 2.17829 130.626 3.06011 127.008 4.52082C125.063 5.30527 123.411 6.12219 122.013 6.92828C116.959 9.83886 115.29 12.5168 115.29 12.5168C115.29 12.5168 108.828 3.23864 99.2664 4.52082C92.5546 5.41888 92.0616 11.121 92.0616 11.121C92.0616 11.121 89.6889 3.33603 81.4928 5.86791C75.691 7.66945 74.6347 12.9172 74.6347 12.9172C74.6347 12.9172 66.1568 -0.039815 54.2066 0.317246C54.0874 0.322656 53.9628 0.322652 53.8436 0.338882C40.6583 1.04759 28.0472 18.8303 21.9637 22.8229C13.5401 28.3411 1.43813 32.0145 0.138016 41.5199C-1.83383 55.8618 15.7719 52.0153 18.9626 55.0124L18.968 55.0178Z" fill="#A75B48"/>
<path fill-rule="evenodd" clip-rule="evenodd" d="M53.8647 0.338217C53.9519 0.326713 54.0419 0.323701 54.1305 0.320737C54.1613 0.319706 54.1919 0.31868 54.2222 0.317305C66.1724 -0.0397559 74.6503 12.9172 74.6503 12.9172C74.6503 12.9172 74.745 12.4468 75.0334 11.7392C75.0071 11.9673 74.9698 12.1936 74.9198 12.4194C74.7736 13.1119 74.4919 13.8043 74.0477 14.5293C71.6912 18.3379 66.9133 19.144 65.8407 19.3226C61.5665 20.0529 55.7539 18.8952 53.2241 14.9242C51.5936 12.3653 52.2653 8.7514 53.6196 1.52904C53.6954 1.15034 53.7767 0.755408 53.8634 0.344247C53.8638 0.342237 53.8642 0.340227 53.8647 0.338217ZM122.032 6.92637C122.032 6.92699 122.033 6.92761 122.033 6.92823C123.56 11.1426 124.4 13.1822 126.924 15.3192L126.947 15.3386C128.997 17.0752 133.75 21.1027 139.536 19.7175C143.257 18.8248 146.513 15.9197 147.748 12.3166C148.799 9.26535 148.051 6.67396 146.973 3.01138C146.973 3.01131 146.973 3.01123 146.973 3.01115C145.912 2.75166 144.834 2.58407 143.741 2.52459C137.771 2.17835 130.642 3.06017 127.023 4.52088C125.08 5.30469 123.429 6.12092 122.032 6.92637Z" fill="#383737"/>
<path d="M58.9234 25.1328C58.6796 25.2626 57.4391 23.5639 56.4856 21.7623C55.5756 20.0474 54.698 18.3432 54.9851 16.2766C55.0664 15.6815 55.2668 14.2208 56.1877 13.9232C56.8107 13.7231 57.6449 14.0909 58.0241 14.6752C58.49 15.3893 58.0783 16.0926 57.8995 17.8401C57.8995 17.8401 57.7695 19.1493 57.9158 20.8156C58.1595 23.4773 59.1509 25.0137 58.9234 25.1328Z" fill="#47261C"/>
<path d="M65.9063 25.6793C65.6842 25.847 64.9258 25.1653 63.7015 23.5369C62.5314 21.9897 61.3992 20.4424 61.3559 18.3595C61.3397 17.759 61.3072 16.2875 62.1739 15.8493C62.7589 15.5518 63.6365 15.7844 64.1078 16.3037C64.6766 16.9313 64.3841 17.6941 64.487 19.4524C64.487 19.4524 64.5629 20.767 64.9746 22.3846C65.6355 24.976 66.123 25.5278 65.9171 25.6847L65.9063 25.6793Z" fill="#47261C"/>
<path d="M71.7472 24.2618C71.5414 24.4457 70.7938 23.8831 69.4179 22.3791C68.1069 20.9454 66.5035 17.9699 67.2564 16.9204C67.6356 16.3848 69.0224 16.2982 69.4937 16.8176C70.2684 17.6724 70.0029 19.5388 70.5663 21.1077C71.471 23.6234 71.9369 24.0886 71.7472 24.2618Z" fill="#47261C"/>
<path d="M142.092 25.533C142.336 25.6629 143.577 23.9641 144.53 22.1626C145.44 20.4476 146.318 18.7435 146.031 16.6768C145.949 16.0817 145.749 14.621 144.828 14.3235C144.205 14.1233 143.371 14.4912 142.991 15.0755C142.526 15.7896 142.937 16.4929 143.116 18.2403C143.116 18.2403 143.246 19.5496 143.1 21.2158C142.856 23.8776 141.865 25.414 142.092 25.533Z" fill="#47261C"/>
<path d="M135.104 26.0796C135.327 26.2473 136.085 25.5656 137.309 23.9372C138.479 22.3899 139.611 20.8427 139.655 18.7598C139.671 18.1593 139.704 16.6878 138.837 16.2496C138.252 15.952 137.374 16.1846 136.903 16.704C136.334 17.3316 136.627 18.0944 136.524 19.8526C136.524 19.8526 136.448 21.1673 136.036 22.7849C135.375 25.3763 134.888 25.9281 135.094 26.085L135.104 26.0796Z" fill="#47261C"/>
<path d="M129.265 24.662C129.471 24.846 130.219 24.2833 131.595 22.7794C132.906 21.3457 134.509 18.3702 133.756 17.3207C133.377 16.7851 131.99 16.6985 131.519 17.2179C130.744 18.0726 131.01 19.9391 130.446 21.508C129.542 24.0237 129.076 24.4889 129.265 24.662Z" fill="#47261C"/>
<path d="M172.462 64.6205C172.43 64.6421 171.644 65.0966 171.46 65.9189C171.254 66.8602 172.061 67.2227 172.061 68.4183C172.061 69.5544 171.33 69.8682 171.563 70.6202C171.861 71.5886 173.324 71.8915 173.464 71.9186C175.648 72.346 177.392 70.2144 177.468 70.117C177.863 69.6193 178.378 68.9701 178.367 68.1153C178.34 65.7566 174.288 63.5926 172.457 64.6151L172.462 64.6205Z" fill="#A75B48"/>
<path d="M113.585 67.8232C113.433 67.8341 111.819 67.991 111.082 69.3218C110.335 70.6635 111.082 72.1296 111.283 72.5191C111.348 72.6436 112.242 74.3369 114.186 74.721C114.658 74.813 115.822 75.0456 116.792 74.3207C117.935 73.4605 117.903 71.9348 117.892 71.7184C117.81 69.6518 115.687 67.6501 113.585 67.8178L113.585 67.8232Z" fill="#A75B48"/>
<path d="M38.6936 68.9216C37.7673 68.8296 36.478 69.1921 35.9904 70.22C35.2971 71.6969 36.8518 73.2821 36.9926 73.4173C37.8377 74.2559 39.452 75.0187 40.595 74.3154C41.4022 73.8176 41.5647 72.8438 41.5972 72.6166C41.8193 70.999 40.465 69.0893 38.6936 68.9162L38.6936 68.9216Z" fill="#A75B48"/>
<path d="M12.3591 59.7245C12.3212 59.5622 12.1966 59.2592 10.3548 58.3233C8.5238 57.3928 8.20418 57.4685 8.0525 57.5226C7.18576 57.8256 6.9474 59.1131 6.8499 59.6217C6.76864 60.0653 6.53027 61.3421 7.34826 62.4241C7.47828 62.5918 8.23126 63.5872 9.24969 63.5223C9.99726 63.4736 10.4577 62.8839 11.3515 61.7208C12.1045 60.7416 12.4837 60.2546 12.3537 59.7191L12.3591 59.7245Z" fill="#A75B48"/>
<path d="M122.254 16.5689C118.879 18.3272 115.471 18.7275 112.037 17.3209C111.279 17.0342 110.71 16.623 109.859 15.9847C108.142 14.7241 106.419 13.7395 104.475 12.7657C100.769 10.8506 97.8223 12.6034 94.8592 14.6105C93.8245 15.2002 92.7898 15.2759 91.7768 14.8215C91.0672 14.3617 89.6262 13.5934 88.6403 13.5826C84.8591 13.2526 81.17 15.4491 78.8786 18.2785C78.624 18.6031 79.079 19.0467 79.3932 18.7654C80.8667 17.4724 82.546 16.5635 84.3824 16.0225C85.9642 15.4978 87.9794 15.3246 89.377 16.0983C89.6804 16.2714 90.0054 16.5743 90.5525 16.926C92.156 17.9755 94.4745 17.9106 96.0672 17.0883C97.8494 16.2822 99.1333 15.0704 100.932 15.0379C101.706 15.0379 102.319 15.2543 103.039 15.6438C104.615 16.5203 106.381 17.5049 107.855 18.6464C108.667 19.2902 109.735 20.0422 110.753 20.4371C114.805 22.3036 120.471 21.0268 122.725 17.0829C122.915 16.7745 122.552 16.3904 122.237 16.5689L122.254 16.5689Z" fill="#8A3625"/>
<path d="M98.4798 27.919C97.1039 29.1579 95.6683 30.1696 94.1028 30.6565C92.3855 31.257 90.7441 31.0406 88.859 31.3706C85.7549 32.0469 82.1905 33.4102 80.9933 36.64C80.5599 37.7598 80.7224 38.7769 80.1753 39.7074C80.1103 39.821 80.0561 39.913 79.9803 39.9996C79.1244 40.7137 77.7592 41.3629 76.73 41.9905L74.3139 43.37C73.2793 44.0192 71.9954 44.5115 71.0907 45.5448C70.549 46.259 70.2294 47.157 70.1698 47.9902C70.159 50.8196 69.5468 53.2487 68.1384 55.7156C67.9271 56.0727 68.4526 56.4568 68.718 56.1214C69.9477 54.6607 70.912 52.9457 71.4808 51.0522C72.0171 49.6023 71.7029 47.9956 72.6888 46.8757C75.0182 45.4853 78.0518 44.3276 80.457 42.948C80.9608 42.6667 81.8004 42.196 82.2663 41.5739C82.8947 40.8057 83.3118 39.6317 83.4527 38.739C83.6314 37.1864 84.4711 36.1747 85.8795 35.5471C87.8839 34.4814 89.7907 34.1189 92.0822 33.7835C95.105 33.3507 97.9381 31.0406 99.0541 28.3302C99.2112 27.9893 98.7507 27.6539 98.4798 27.919Z" fill="#8A3625"/>
<path d="M32.2323 21.1458C31.5281 23.5533 30.6938 24.9057 28.8791 26.3124C27.021 27.7947 25.0654 29.6016 23.5649 31.414C22.4381 32.6908 21.2517 34.357 20.97 36.1207C20.775 37.0296 20.7913 38.0196 20.8184 38.7391C21.0134 40.9518 18.9765 42.0555 17.2539 43.0076C14.5453 44.4521 11.5388 45.3989 8.42933 45.9615C8.01763 46.0264 8.06096 46.6756 8.49434 46.6648C12.6764 46.6323 19.8162 45.269 22.4327 41.6227C23.4619 40.2107 23.1261 38.1386 23.4619 36.6509C23.7761 35.2389 24.632 34.2921 25.6179 33.2047C27.2052 31.3545 28.8086 29.9479 30.6992 28.4493C32.8986 26.8588 34.0904 23.5316 32.9419 21.0863C32.8173 20.7617 32.3135 20.7996 32.2323 21.135L32.2323 21.1458Z" fill="#8A3625"/>
<path d="M142.023 49.4346C139.731 51.9665 137.608 54.5417 135.403 57.0303C134.341 58.1988 133.073 59.6704 132.478 59.5351C131.952 59.5676 131.432 59.2484 130.901 58.9616C128.079 57.2413 125.061 55.3099 122.163 53.6869C118.073 51.5391 113.1 52.8483 109.249 54.7905C108.88 54.9745 109.103 55.5696 109.503 55.4505C111.129 55.0123 112.759 54.6877 114.373 54.5254C115.988 54.3956 117.591 54.4335 119.048 54.8717C120.609 55.2341 121.838 56.3378 123.16 57.1926C124.406 58.0041 126.085 59.1618 127.31 59.9787C129.341 61.3096 132.017 63.4033 134.514 61.764C135.782 60.9309 136.584 59.7948 137.44 58.6857C139.493 55.9266 141.297 52.989 142.618 49.8133C142.776 49.4563 142.277 49.1371 142.017 49.4346L142.023 49.4346Z" fill="#8A3625"/>
<path d="M159.994 18.9491C158.092 24.6026 163.824 30.678 168.071 33.7347C169.262 34.5462 170.021 35.0331 170.021 36.3802C169.051 40.9192 170.85 42.4989 174.257 45.139C176.137 46.6538 178.217 47.9901 180.395 49.0342C180.774 49.2127 181.11 48.6771 180.758 48.4229C177.8 46.221 174.523 43.5593 172.399 40.5675C171.37 38.8417 172.914 36.9699 172.339 34.9736C172.02 33.4967 170.779 32.3822 169.625 31.5923C166.706 29.3796 164.165 26.3717 162.675 23.0499C162.052 21.7569 161.511 20.4044 160.703 18.9059C160.563 18.6083 160.091 18.6408 159.994 18.9546L159.994 18.9491Z" fill="#8A3625"/>
</svg>
