<svg width="92" height="82" viewBox="0 0 92 82" fill="none" xmlns="http://www.w3.org/2000/svg">
<g clip-path="url(#clip0_402_6766)">
<path fill-rule="evenodd" clip-rule="evenodd" d="M47.268 64.6237L44.5753 63.4015C41.3103 62.0115 37.7608 61.4207 34.2216 61.6782C31.0454 61.8648 27.4411 62.6733 24.89 64.3476C24.251 64.7673 23.1329 65.6917 22.8008 66.254C23.4205 66.5179 25.0116 66.7669 25.7597 66.9524C28.375 67.6018 31.3322 69.1575 33.3589 70.5902C36.2364 72.625 38.455 75.0615 42.6277 76.3006C46.6577 77.4971 51.7755 77.4251 55.8187 76.2719C58.3147 75.5599 61.2885 73.9742 63.0885 72.3046C63.5585 71.8688 64.6174 70.8885 64.8928 70.3476C64.0609 70.6284 63.2736 71.1984 61.5261 71.7329C57.1858 73.0602 53.2973 73.1152 48.8821 72.1664C46.4352 71.6025 44.0531 70.7872 41.7738 69.7336C41.2035 69.4751 35.8269 66.8304 35.3981 66.4794C38.479 66.673 42.1222 69.7427 50.2654 70.4229C53.2727 70.6736 56.1536 70.6997 58.9648 70.0205C61.1169 69.5005 64.0113 68.1675 65.2868 66.9855C63.5973 66.6186 63.2804 66.7466 61.1382 66.1266C53.4937 63.9131 48.3682 58.8193 45.5035 51.4519C45.2585 50.8217 45.0531 50.2375 44.8395 49.5719C44.6814 49.0799 44.4702 47.9659 44.2651 47.605C42.8274 54.8717 44.624 59.2201 47.2676 64.6223" fill="#77A75D"/>
<path fill-rule="evenodd" clip-rule="evenodd" d="M21.6523 33.1215C21.8439 34.3663 23.5895 36.933 24.2257 37.6175C25.3385 38.9186 26.7005 39.9837 28.2315 40.7501C30.9975 42.0973 34.0913 42.6249 37.1475 42.2707C38.3493 42.1017 39.018 41.8084 40.0263 41.5347C39.9898 40.8998 39.9878 40.2634 40.0202 39.6283L29.0073 36.6599L29.6455 34.6789L40.3568 38.7289C40.6003 38.1633 40.9644 37.6576 41.4235 37.2472C41.1316 36.5613 40.3422 35.7351 39.8803 35.2462C38.1513 33.4104 35.6036 32.0244 33.0589 31.2574C30.9998 30.6417 28.8195 30.5501 26.716 30.9908C24.4653 31.4412 23.4243 32.1014 21.6527 33.1222" fill="#E51B21"/>
<path fill-rule="evenodd" clip-rule="evenodd" d="M47.5013 43.8672C47.6638 44.3797 53.8422 51.6076 54.6143 52.795L52.9492 54.0114C52.5886 53.7593 47.0756 44.8916 46.661 44.4997C46.3815 44.5919 46.1717 44.721 45.8541 44.8274C45.5618 44.9254 45.2428 44.9586 44.9553 45.0427L44.8853 45.3492C44.5052 49.3991 47.0816 53.609 48.9836 55.7451C50.7069 57.6829 54.5062 60.0343 58.5264 59.9688C59.5151 57.2656 59.1569 53.3961 58.0983 50.873C56.6038 47.312 52.7234 43.3103 48.5474 42.3956C48.2712 42.9347 47.9184 43.4309 47.5 43.8688" fill="#E51B21"/>
<path fill-rule="evenodd" clip-rule="evenodd" d="M30.3478 59.9638C32.2674 60.0337 34.6671 59.2522 36.0758 58.5754C39.2138 57.0674 41.5138 54.2858 42.8691 51.0988C43.4513 49.7293 44.315 46.7985 43.9453 45.0262C42.8266 44.8853 42.758 44.6498 42.2082 44.5028L35.969 54.0199C35.4135 53.7587 34.7959 53.0779 34.2725 52.8603C34.4637 52.3071 40.7938 44.8839 41.3993 43.8929C41.2155 43.6672 41.0138 43.4969 40.8124 43.2148C40.6482 42.9843 40.4694 42.5978 40.3008 42.4038C36.7391 43.1316 33.6342 46.2315 32.0748 48.5021C30.9496 50.1628 30.2105 52.0543 29.9117 54.0378C29.6128 56.0214 29.7619 58.0467 30.3478 59.9651" fill="#E51B21"/>
<path fill-rule="evenodd" clip-rule="evenodd" d="M47.457 37.2292C47.6395 37.4658 47.8439 37.6094 48.0446 37.8902C48.2039 38.1699 48.3785 38.4406 48.5677 38.7011L59.2306 34.6464L59.8692 36.6511L48.8566 39.6415C48.8889 40.2719 48.8857 40.9036 48.8468 41.5337C49.7671 41.8455 50.7091 42.0891 51.6652 42.2625C54.7229 42.6285 57.8215 42.1138 60.5967 40.7788C62.133 40.0206 63.4989 38.9573 64.6109 37.654C65.2545 36.9326 67.0626 34.3889 67.2089 33.1303C61.7962 29.6537 56.2274 30.0554 50.9738 33.5574C49.9669 34.2284 47.8929 36.1476 47.457 37.2303" fill="#E51B21"/>
<path fill-rule="evenodd" clip-rule="evenodd" d="M39.0993 26.9816C39.1014 29.8365 39.5873 32.4481 40.9182 34.8421C41.1994 35.3489 41.8444 36.3997 42.2076 36.6562C42.7484 36.3727 43.3346 36.1861 43.9397 36.1048C43.9153 34.2734 43.7981 32.217 43.6673 30.3971C43.5997 29.4473 43.5916 28.5093 43.5268 27.5635C43.4277 26.6022 43.3916 25.6355 43.4186 24.6694H45.4551C45.5227 25.0908 45.1402 32.2085 45.0733 33.1695C45.0098 34.0852 44.9243 35.1968 44.9419 36.1044C45.8265 36.2001 46.1164 36.5052 46.7361 36.6606C46.7834 36.5744 47.5568 35.5297 47.9525 34.8478C48.3388 34.1618 48.6586 33.4404 48.9074 32.6934C50.2434 28.8752 50.09 24.3914 48.1252 20.8499C47.3008 19.4189 46.2495 18.1312 45.0125 17.0371C44.8398 16.902 44.6506 16.7533 44.4864 16.606C43.4727 16.9716 41.4213 19.647 40.7959 20.7664C39.7104 22.6598 39.1259 24.7987 39.0977 26.981" fill="#E51B21"/>
<path fill-rule="evenodd" clip-rule="evenodd" d="M67.0786 16.7505L66.8789 16.9495C66.9847 17.2067 69.4148 19.4216 69.5168 19.456C70.0777 19.0394 68.9424 19.0468 69.9156 17.9494L71.6371 16.1372C71.8436 15.9088 72.0308 15.7676 72.2426 15.5436C72.4545 15.3195 72.5238 15.0942 72.9522 15.058C74.1095 14.961 74.8501 15.8443 73.9689 16.7759C73.4827 17.2898 71.2394 19.6875 70.9924 19.8064C70.6434 19.9754 70.4079 19.7615 70.1402 19.729L69.9578 19.9862C70.1869 20.1613 70.4036 20.352 70.6065 20.5569C71.0181 20.9303 72.1423 22.1615 72.6059 22.3954C72.815 22.1132 72.7596 22.2203 72.6133 21.873C72.3396 21.2239 73.0613 20.8421 73.6151 20.2362L74.9617 18.8279C75.7895 17.9808 76.7113 16.9445 75.83 15.6855C75.2894 14.9114 74.4163 14.5971 73.137 14.6255C73.3087 14.2724 75.8334 11.9078 75.977 11.5084C75.5296 10.9948 74.862 10.4691 74.2261 9.79938C73.9155 9.47365 73.5942 9.53345 73.7959 10.0058C74.1744 10.8925 73.2441 11.3469 72.5876 12.0714C72.3815 12.2988 72.2196 12.4735 72.0132 12.6999C71.6415 13.1107 71.2438 13.477 70.8704 13.8872L69.7257 15.0736C69.1778 15.7028 68.594 16.2997 67.9771 16.8613C67.6135 17.06 67.3854 16.8445 67.0779 16.7505" fill="#77A75D"/>
<path fill-rule="evenodd" clip-rule="evenodd" d="M6.49362 24.215L6.76393 24.3974C7.5073 23.6656 7.68266 23.3838 8.15166 25.2888C8.28682 25.8355 8.48955 26.5052 8.5693 27.0438L2.94912 23.7375C2.68387 24.2211 1.61951 25.8778 1.51172 26.2234L1.79487 26.3667C2.43146 26.0399 1.90638 25.5419 4.04558 26.8499C4.76462 27.2891 5.51339 27.7159 6.2652 28.1623C7.01701 28.6086 7.73538 29.0313 8.48685 29.4753C9.72929 30.2095 10.3115 30.3238 10.0668 31.2905L10.3372 31.4222C11.0129 30.3994 11.6318 29.3402 12.1912 28.2494C11.583 27.9713 11.8137 28.5927 11.2001 28.5434C10.9504 28.5231 9.89891 27.8521 9.62961 27.6987C9.2265 27.4669 9.20521 27.4939 9.09506 26.9553C9.81106 26.9242 12.0138 26.5782 12.4324 26.8735C12.4726 27.2009 12.3649 27.2543 12.305 27.5534L12.5456 27.6547C13.2131 26.6717 13.8206 25.6493 14.3648 24.5931C13.8796 24.3464 14.4483 24.5691 13.1234 24.6904C11.8965 24.8029 9.68333 25.0587 8.65141 25.0844C8.57504 24.5329 8.42941 23.9126 8.31655 23.3652C8.1351 22.4867 8.44157 21.8984 8.39055 21.5906L8.15605 21.4652L6.49362 24.215Z" fill="#77A75D"/>
<path fill-rule="evenodd" clip-rule="evenodd" d="M81.6311 47.4228C82.4619 47.4147 81.3344 46.6119 83.0441 46.6595C83.3993 46.6693 83.7537 46.6788 84.1075 46.6852C84.6322 46.6947 84.6687 46.7349 84.9022 47.0468C84.0584 47.6898 83.1695 48.2713 82.2423 48.7869C81.5942 48.8545 82.2761 48.0503 81.5392 48.1574L81.4297 51.682C81.9862 51.7208 81.6324 51.6266 82.0318 51.3336L84.9813 49.3367C85.3729 49.0352 85.7884 48.7663 86.2237 48.5325C86.6758 49.0299 87.6537 50.0554 87.8973 50.6713C88.0953 51.1718 87.9098 51.4715 88.4143 51.4181L88.5373 48.178C87.8682 48.1838 88.3089 48.4852 87.9027 49.0015C87.4506 49.264 86.294 47.7175 85.9429 47.3978C85.7202 47.2139 85.5317 46.9921 85.3861 46.7427L91.8736 46.9086L91.9351 44.7842C91.9751 44.5396 91.9555 44.2889 91.878 44.0534C91.3796 44.0534 91.6307 43.9834 91.48 44.3872C91.4596 44.4768 91.4115 44.5578 91.3424 44.6184C91.2734 44.6791 91.187 44.7164 91.0955 44.7251C90.7312 44.8153 84.739 44.5899 83.8943 44.566C83.2523 44.548 82.3572 44.6514 82.1092 44.1676C81.9065 43.7702 82.2065 43.7537 81.7037 43.779C81.5824 44.9099 81.5358 46.0476 81.5642 47.1846L81.6108 47.3647C81.6163 47.3839 81.6237 47.4025 81.6331 47.4201" fill="#77A75D"/>
<path fill-rule="evenodd" clip-rule="evenodd" d="M10.8401 76.3674L10.5424 76.1258L8.28125 78.465L8.57251 78.7793C9.5889 78.4482 9.36758 79.1135 10.4397 80.5789C10.7357 80.9646 11.1051 81.2879 11.5267 81.5302C11.9482 81.7724 12.4136 81.9288 12.8959 81.9903C14.7249 82.145 16.5579 80.3238 15.7504 77.6007C15.2165 75.8004 14.2272 74.2404 15.3574 73.2551C16.7333 72.0562 18.3207 73.3297 18.5907 74.8966C18.8685 76.5093 17.9061 77.4645 17.8075 78.0187L18.0342 78.2035C18.313 78.0809 20.3995 75.9413 20.7093 75.5852L20.4099 75.2733C19.7575 75.5859 19.6574 75.1425 19.3733 74.6857C19.141 74.2903 18.8831 73.9105 18.6012 73.5487C18.0639 72.8999 17.4365 72.1742 16.3931 71.8731C14.4211 71.3041 12.1285 72.8479 12.4836 75.5139C12.7218 77.2993 14.7742 80.3292 12.6641 81.0215C11.3311 81.4608 9.95281 79.8514 10.3373 77.8518C10.4387 77.3247 10.8185 76.6749 10.8401 76.365" fill="#77A75D"/>
<path fill-rule="evenodd" clip-rule="evenodd" d="M1.48634 41.6544L0.456778 41.531C0.41792 41.8642 -0.0453314 44.1551 0.0975975 44.4345C0.874752 44.5143 -0.00377035 43.601 1.61339 43.8361C2.28208 43.9338 6.0996 44.392 6.39018 44.7116C6.68956 45.0414 6.40269 45.4854 6.80951 45.455C6.99907 45.3719 6.92912 45.5536 7.01022 45.138C7.03826 44.9954 7.05583 44.7812 7.07949 44.6248C7.17443 43.9966 7.53193 42.1919 7.4238 41.8541C6.74058 41.7865 7.40623 42.5778 5.97491 42.3636L2.42028 41.823C1.88505 41.7334 1.53027 41.1536 1.4931 40.6174C1.39173 39.1644 3.37888 39.8311 4.40844 39.9875C5.00313 40.0777 5.59107 40.1666 6.18103 40.2551C7.6583 40.4771 6.94602 40.9336 7.37481 41.1901C7.71506 41.1854 7.54375 41.3563 7.6485 40.9593L8.08776 37.9345C8.0391 37.4182 8.23069 38.3477 8.03741 37.749C8.03097 37.7279 8.02164 37.7077 8.00971 37.6892C7.47246 37.6105 7.98504 38.2619 6.95109 38.2366C4.65341 38.1805 1.19406 36.3515 0.628766 39.2411C0.540043 39.6832 0.572843 40.1411 0.723675 40.5661C0.874507 40.991 1.13773 41.3671 1.48533 41.6544" fill="#77A75D"/>
<path fill-rule="evenodd" clip-rule="evenodd" d="M12.6072 16.1018L12.8191 16.24C13.1093 16.1177 13.407 15.6091 13.8432 16.0656L15.0211 18.1386C15.2368 18.4907 15.4269 18.8578 15.5902 19.2371C14.3372 18.8589 13.1099 18.4008 11.9156 17.8656C11.8118 17.3851 12.0544 17.2662 12.172 16.9553L11.9693 16.8107C11.0607 17.6993 10.2123 18.6475 9.42969 19.649L9.65878 19.8179C10.1622 19.5071 10.2386 19.5848 10.9032 19.7841C11.748 20.0389 16.8022 21.7585 17.0326 21.9923C17.2545 22.3243 17.4476 22.6748 17.6097 23.0397C17.7892 23.4428 17.9838 23.9581 17.552 24.2595C17.0766 24.1974 17.0904 23.7774 16.5001 23.8649C15.2391 24.0514 15.6797 26.2115 17.1293 25.7821C17.4588 25.6644 17.7521 25.4631 17.9805 25.1979C18.2088 24.9327 18.3644 24.6127 18.4318 24.2693C18.5126 23.5935 17.9781 22.665 17.7182 22.1531C17.082 20.9029 16.4342 19.6581 15.7811 18.439L14.3345 15.6436C14.0642 15.0803 14.1859 15.0692 14.3427 14.5715L14.1017 14.3623L13.3246 15.1945C13.1019 15.4649 12.7056 15.7913 12.6062 16.1028" fill="#77A75D"/>
<path fill-rule="evenodd" clip-rule="evenodd" d="M12.6793 67.1784C12.9497 68.1971 12.5482 68.1583 11.2862 69.0432L4.91016 73.3912C5.13991 73.8113 5.39963 74.2142 5.68731 74.5968C5.97283 75.0081 6.25463 75.4477 6.50772 75.7906L6.80472 75.6524C6.69085 74.9408 6.65909 74.833 7.16526 74.4597L13.4639 70.1596C14.1735 69.7045 14.3691 69.9511 14.7246 70.1867L14.9844 70.0258C14.6773 69.4 13.3477 67.7234 12.9909 67.0304L12.6793 67.1784Z" fill="#77A75D"/>
<path fill-rule="evenodd" clip-rule="evenodd" d="M19.9062 9.97343L20.582 11.447C20.6919 11.694 20.7064 11.7768 20.8909 11.92L21.1477 11.7717C21.1477 10.905 20.8236 10.4634 21.4643 9.8376C21.8989 9.44709 22.3926 9.12777 22.927 8.8915C22.9402 10.1153 22.8594 11.4102 22.8213 12.6421C22.7875 13.7315 22.5607 15.3399 22.8479 16.2687C23.3697 16.1883 27.1135 13.9349 28.0045 13.5656L27.0922 11.3044L26.7486 11.4531C26.7148 12.6218 27.2064 13.7099 24.9077 14.6691C24.7347 12.8107 25.2963 8.54719 24.9007 7.323C24.5033 7.4024 20.5756 9.60749 19.9079 9.97343" fill="#77A75D"/>
<path fill-rule="evenodd" clip-rule="evenodd" d="M55.7135 6.48402C56.5288 6.76887 56.1237 5.88223 57.234 5.55313C57.7314 5.4058 58.9928 5.73255 59.3415 5.94711L54.5309 10.1938C54.2748 10.4063 54.0436 10.4979 53.9453 10.9432C54.1369 11.0909 58.9826 12.7273 59.4712 12.8199L60.4339 10.6083L59.9912 10.4793C59.6827 11.0212 59.1955 11.4392 58.613 11.6619C58.0609 11.8261 56.8427 11.6166 56.4869 11.2848L60.5417 7.6582C60.7596 7.45547 60.9549 7.29091 61.2114 7.05641C61.5263 6.76853 61.7121 6.81279 61.8091 6.27926L56.5525 4.47119C56.3683 4.64757 55.7845 6.16471 55.7135 6.48571" fill="#77A75D"/>
<path fill-rule="evenodd" clip-rule="evenodd" d="M43.9672 4.93438C44.8684 4.94114 44.2037 4.24643 45.1262 3.6139C45.6479 3.25539 46.5913 3.30574 47.2887 3.3277C47.0128 3.87539 46.6979 4.40251 46.3463 4.90499L44.4027 8.04739C44.1284 8.50896 43.5833 9.14116 43.5742 9.72639L49.3458 9.91696C49.5093 9.57028 49.6752 7.9636 49.6837 7.49561C49.0988 7.47703 49.2731 7.60307 49.0048 8.12612C48.3892 9.32564 47.5472 9.44188 46.1395 9.34558C46.2007 9.09047 48.6169 5.18578 48.9599 4.62217C49.2187 4.19676 49.8242 3.43954 49.7391 2.91885L44.1885 2.76477C43.9858 3.23444 43.9794 4.35591 43.9665 4.93337" fill="#77A75D"/>
<path fill-rule="evenodd" clip-rule="evenodd" d="M73.0742 23.1662C73.1969 23.4872 74.4315 25.1398 74.7826 25.6328L75.4145 26.4295L75.5959 26.3133C75.6067 25.6912 74.836 25.6936 75.8101 24.8333C76.1622 24.5228 76.6819 24.2076 77.1215 23.8832C77.5408 23.5747 78.0132 23.2256 78.4447 22.9452C78.9475 22.6188 79.6571 22.4191 80.0723 22.9526C80.1629 23.6402 79.5178 24.2052 80.3274 24.7539C81.8074 25.7568 83.48 22.2988 79.5165 22.1522C79.7915 21.909 80.0791 21.6805 80.3781 21.4676C79.8717 20.6661 79.3228 19.8923 78.7339 19.1493C77.9531 19.4686 79.3506 19.6149 77.9362 20.6698C77.4053 21.0655 76.884 21.4257 76.3656 21.7849C75.8115 22.1694 75.352 22.5218 74.7978 22.8999C73.429 23.8406 73.5871 22.6343 73.0746 23.1621" fill="#77A75D"/>
<path fill-rule="evenodd" clip-rule="evenodd" d="M77.7734 63.415L78.0282 63.5343C78.2576 63.2907 78.3377 63.0109 78.5648 62.9018C78.7223 62.8547 78.8878 62.8406 79.0509 62.8603C79.2141 62.8801 79.3715 62.9331 79.5133 63.0163L82.679 64.5149C83.0169 64.7487 83.6315 65.6299 82.8905 65.8952C82.682 65.9695 81.666 65.9945 81.7123 66.9686C81.7744 68.2746 83.892 68.3287 84.0711 66.6568C84.1573 65.8529 83.7957 65.4424 83.5862 64.8473L84.6036 65.2805L85.8048 62.6612L85.523 62.5307C85.0131 62.9156 85.1023 63.2167 83.839 62.6456C83.2598 62.3838 80.0272 61.0025 79.818 60.6646C79.5102 60.1706 80.014 60.0172 79.5166 59.7719C79.3335 59.8506 79.4808 59.7414 79.3673 59.8972L77.7734 63.415Z" fill="#77A75D"/>
<path fill-rule="evenodd" clip-rule="evenodd" d="M3.26416 30.2314C3.04588 30.7487 3.61861 30.4879 3.19996 31.1421C2.67555 31.9618 1.98354 32.9403 2.46098 34.1561C2.89619 35.2657 4.29575 36.077 5.77234 34.9859C6.68465 34.3122 7.99297 32.3713 8.89988 33.512C9.39827 34.1388 8.87555 35.0032 8.5059 35.3863C7.90985 36.004 7.32023 35.8891 6.38393 35.9205L6.27817 36.3321L8.64342 37.1539L8.76844 36.8045C8.24471 36.0912 8.51198 36.4027 9.24419 35.2076C10.8688 32.5561 8.11394 30.7011 6.34879 31.7462C5.84401 32.1055 5.38313 32.5227 4.97559 32.9893C2.81307 35.1518 2.05653 31.8496 4.37853 31.3336C4.97626 31.2005 5.20569 31.4837 5.33375 30.938C5.1986 30.8312 3.4875 30.1439 3.26416 30.2314Z" fill="#77A75D"/>
<path fill-rule="evenodd" clip-rule="evenodd" d="M69.4844 74.1641C69.6243 74.8398 71.5793 79.3598 71.9429 80.5502C72.1149 81.1149 71.8871 81.1284 71.8341 81.5065L72.0182 81.6714C72.6119 81.2054 73.1598 80.6838 73.6543 80.1137L73.4942 79.9174C72.8143 80.1174 72.6454 80.8043 71.9635 79.0432C71.6318 78.3027 71.3427 77.5438 71.0978 76.7702C71.7114 76.9608 74.1247 78.0687 74.4876 78.4181C74.5605 78.877 74.3568 78.9537 74.1628 79.197L74.3629 79.4599C74.6349 79.3196 76.3406 77.5967 76.8048 77.1936C76.9957 77.0274 77.0596 77.0355 77.1089 76.7935C76.6119 76.4171 76.915 76.9747 76.1666 76.7516L69.7773 73.9221L69.4844 74.1641Z" fill="#77A75D"/>
<path fill-rule="evenodd" clip-rule="evenodd" d="M1.30196 56.7845L1.5145 56.7345C1.57701 56.5949 1.54389 56.7307 1.54829 56.5392C1.54829 56.4425 1.527 56.3516 1.53274 56.2378C1.52296 56.1469 1.54441 56.0555 1.59354 55.9785C1.64267 55.9014 1.71657 55.8434 1.80306 55.814C2.26361 55.6005 4.6863 56.0479 5.43237 56.1306C5.30381 56.3055 5.14088 56.4522 4.95357 56.5618L3.49286 57.643C3.16889 57.8955 2.82035 58.1148 2.45249 58.2975C1.79461 58.4783 2.14433 57.5599 1.58444 57.7008C1.43239 57.814 1.66182 58.4442 1.69899 58.5868L2.194 60.4989C2.25144 60.7338 2.29773 61.2274 2.50283 61.3849C3.02961 61.2595 2.50114 61.0206 3.03096 60.5739C4.71063 59.1636 6.76265 57.7184 8.56295 56.4239L8.48219 55.9847C6.81435 55.6589 4.81639 55.494 3.10969 55.2697C2.69374 55.2149 1.55808 55.1345 1.25702 54.8642C1.01712 54.6473 1.13842 54.4777 0.831951 54.5534C0.58191 54.6152 0.805258 55.1018 0.936698 55.6062C1.03165 55.9705 1.09652 56.5429 1.30264 56.7845" fill="#77A75D"/>
<path fill-rule="evenodd" clip-rule="evenodd" d="M32.0936 5.02632C32.4954 5.52032 32.3342 6.1238 32.2748 6.84858C32.2187 7.53484 32.1832 8.21637 32.1038 8.89148C31.7767 8.61644 29.8595 6.33363 29.7696 5.85652C29.8034 5.53384 30.2089 5.50782 30.4032 5.29123L30.3224 5.02294L27.0388 6.02074C26.6313 6.14103 26.7272 6.04406 26.7455 6.37215C27.129 6.6597 26.9692 5.94404 28.2613 7.50916L29.5405 8.9844C29.9686 9.51456 30.3515 9.97477 30.7772 10.5049C31.1645 11.0333 31.5835 11.5376 32.0321 12.015L32.4241 11.9072C32.5903 10.5715 32.6488 9.1172 32.7573 7.76799C32.7961 7.28007 32.9063 5.09863 33.0982 4.73472C33.3506 4.25592 33.5459 4.66072 33.4334 4.08191L31.5017 4.62727C31.2597 4.71242 31.2367 4.64011 31.2705 4.85805C31.3317 5.25068 31.4324 4.88812 32.0936 5.027" fill="#77A75D"/>
<path fill-rule="evenodd" clip-rule="evenodd" d="M7.57495 61.3521C5.69863 61.6352 4.04295 63.002 4.07066 65.0625C4.096 66.9442 5.88143 68.6932 7.90676 68.4137C9.63441 68.1772 11.4408 66.7243 11.4171 64.7087C11.3931 62.6743 9.77396 61.0199 7.57495 61.3521ZM5.9561 66.8027C5.18199 66.856 4.57851 66.3989 4.78665 65.5835C5.05697 64.5256 8.73291 63.0237 9.54486 62.9017C9.71004 62.8631 9.88246 62.8688 10.0447 62.9182C10.207 62.9675 10.3534 63.0588 10.4692 63.1828C10.5849 63.3068 10.6659 63.4591 10.7041 63.6243C10.7422 63.7896 10.736 63.962 10.6863 64.1242C10.3774 65.2892 6.66196 66.754 5.9561 66.8027Z" fill="#77A75D"/>
<path fill-rule="evenodd" clip-rule="evenodd" d="M79.6331 67.5559C78.8596 67.0491 77.9436 66.622 76.7657 66.8781C75.0587 67.2498 73.4294 69.0021 74.1663 71.1845C74.6691 72.674 76.4701 74.3006 78.589 73.8911C81.2573 73.3761 82.7397 69.5887 79.6331 67.5559ZM79.7432 72.6395C79.1012 72.7851 78.2771 72.234 77.9017 71.9718C77.0837 71.3994 75.6341 70.4429 75.1023 69.6836C75.003 69.5569 74.9367 69.4076 74.9094 69.2489C74.8821 69.0903 74.8947 68.9273 74.946 68.7748C74.9973 68.6222 75.0857 68.4847 75.2033 68.3748C75.3209 68.2648 75.4639 68.1858 75.6196 68.1449C76.292 67.9583 77.1158 68.4905 77.5 68.7713C78.3616 69.4015 79.802 70.2989 80.2707 71.0882C80.6552 71.738 80.4427 72.4804 79.7432 72.6395Z" fill="#77A75D"/>
<path fill-rule="evenodd" clip-rule="evenodd" d="M90.8424 37.4797C90.7542 37.0496 90.8451 36.8178 90.4254 36.8975L90.3822 37.0867C90.3146 37.9497 90.7059 38.019 89.2478 38.3369C88.5402 38.5297 87.8212 38.6781 87.0951 38.7813C87.3519 38.2095 87.7013 37.9558 87.5759 37.0154C87.1627 33.9136 81.5189 33.9957 80.4295 36.8725C80.1878 37.5199 80.2079 38.236 80.4856 38.8688C80.6091 39.1104 80.7751 39.3279 80.9755 39.5108C81.2053 39.6756 81.4226 39.8572 81.6256 40.0541L80.7424 40.2764C81.1216 40.9788 81.4397 41.7125 81.6932 42.4694C81.8368 42.9221 81.7074 43.0752 82.1663 42.9894C82.2305 42.3677 82.0541 42.1947 82.6373 41.9733C83.0496 41.8487 83.4692 41.7493 83.8936 41.6757C85.9392 41.2232 89.6509 40.3112 91.3803 40.0443C91.3573 39.5932 90.9721 38.1109 90.8424 37.4797ZM85.9429 39.0637L83.3337 39.6314C82.5359 39.8064 82.2893 39.8835 81.7034 39.3455C81.2813 38.958 81.0793 38.4295 81.5587 37.9301C82.0919 37.375 83.7341 36.9891 84.7562 36.8509C85.3729 36.7674 86.1416 36.7576 86.5471 37.1168C87.1259 37.6311 86.8481 38.858 85.9436 39.0637H85.9429Z" fill="#77A75D"/>
<path fill-rule="evenodd" clip-rule="evenodd" d="M5.33372 46.1466L5.15295 46.4744C5.31919 46.6862 5.80778 46.9927 6.05985 47.4472C6.18123 47.6791 6.24876 47.9354 6.25742 48.197C6.26608 48.4586 6.21564 48.7188 6.10986 48.9582C5.8213 49.6573 4.58225 50.1946 3.50808 50.0939L3.29014 46.3166C1.44457 46.3973 -0.148937 47.3451 0.0156171 49.311C0.336616 53.1515 6.1396 53.2775 7.23944 50.1557C7.8446 48.4348 6.71672 46.7224 5.33372 46.1466ZM0.504211 49.237C0.540028 48.2074 1.96357 48.2385 2.86473 48.2145L2.97691 50.25C2.03825 50.2689 0.463664 50.3932 0.504211 49.237Z" fill="#77A75D"/>
<path fill-rule="evenodd" clip-rule="evenodd" d="M10.7221 16.8785C10.9956 16.7157 11.2103 16.4702 11.3351 16.1774C11.428 15.8493 11.4864 15.3364 11.5506 14.9789C11.6611 14.3623 12.0622 12.9651 11.3739 12.7326C11.2016 12.6723 11.0135 12.6755 10.8433 12.7416C10.6732 12.8078 10.5323 12.9326 10.4461 13.0935C10.1717 13.6253 10.6279 15.9625 10.7221 16.8779" fill="#77A75D"/>
<path fill-rule="evenodd" clip-rule="evenodd" d="M88.4156 56.1013C88.1192 57.0714 88.3449 57.2502 88.7832 58.5477C89.0025 59.1978 89.3661 60.5568 90.2415 59.8972C91.1079 59.2447 89.7573 57.9111 89.0873 56.9727C88.8867 56.665 88.6621 56.3737 88.4156 56.1013Z" fill="#77A75D"/>
<path fill-rule="evenodd" clip-rule="evenodd" d="M83.6857 26.9786C83.0072 26.4319 81.9577 26.145 81.3231 27.0225C80.7423 27.8257 81.9033 29.1063 82.7669 28.3281C83.0693 28.0555 83.1271 27.38 83.6454 27.7182C84.2537 28.1163 84.675 29.4337 83.6552 29.9233C83.2552 30.1336 82.8391 30.3116 82.4108 30.4558C81.7313 29.7801 79.9215 27.2144 78.1533 27.9517C77.9368 28.0291 77.7409 28.1549 77.5805 28.3195C77.42 28.4842 77.2994 28.6833 77.2276 28.9017C77.1559 29.1202 77.1351 29.3521 77.1667 29.5798C77.1983 29.8075 77.2815 30.025 77.41 30.2156C77.8127 30.9818 78.4913 31.5664 79.3086 31.8513C79.145 32.0845 78.9143 32.173 78.7913 32.5488C78.705 32.8954 78.7533 33.2618 78.9264 33.5743C79.1383 34.0064 79.7566 34.643 80.4236 34.6217L80.5324 34.3747C80.4145 34.2365 80.3669 34.2734 80.225 34.1456C80.2486 33.6287 80.7156 33.5783 81.1741 33.3739C81.9357 33.036 84.228 32.0561 84.5983 31.7125C85.9739 30.4329 84.549 27.6746 83.6857 26.9786ZM80.1574 31.5175C79.6235 31.7172 78.7291 31.086 78.8244 30.5376C79.0437 29.2776 81.291 29.4753 81.9242 30.7282C81.3147 30.9414 80.7355 31.2999 80.1574 31.5175Z" fill="#77A75D"/>
<path fill-rule="evenodd" clip-rule="evenodd" d="M86.4322 53.7522C84.8218 53.4383 84.7505 55.5799 85.9456 55.6782C86.2733 55.7049 87.5905 54.8649 87.1931 56.5635C86.8454 58.0502 85.2975 57.3541 84.5552 57.194C84.3315 55.8796 84.5075 53.0609 82.6552 52.601C81.5513 52.3273 80.9049 52.9764 80.7356 53.8451C80.492 55.0973 80.8471 55.5346 81.2191 56.4469C80.4386 56.4844 80.0804 56.7551 79.9155 57.4768C79.7804 58.0627 79.9909 58.9973 80.4318 59.2744L80.7022 59.1707C80.6954 59.0693 80.3666 58.4442 81.1752 58.5962C81.5131 58.6601 81.9186 58.7652 82.2686 58.8459C82.9829 59.0102 83.6932 59.1588 84.4021 59.3241C85.2441 59.52 85.8486 59.6447 86.4676 59.0875C88.0223 57.6839 88.2923 54.1151 86.4322 53.7522ZM82.0733 56.6408C81.5246 56.4658 81.281 55.3737 81.6574 55.0548C82.244 54.5577 83.9551 54.8446 84.0314 57.0679C83.372 56.9593 82.7186 56.8171 82.0737 56.6419L82.0733 56.6408Z" fill="#77A75D"/>
<path fill-rule="evenodd" clip-rule="evenodd" d="M42.6872 8.78095C41.9212 9.56182 41.9706 8.02339 41.8506 6.92254C41.778 6.25655 41.6614 4.52687 41.4113 4.03929C40.499 2.25184 36.3041 2.82727 35.7743 4.51234C35.7062 4.73539 35.6928 4.97153 35.7351 5.20086C35.7773 5.43019 35.8741 5.64601 36.0172 5.83013C36.6531 6.51605 37.9827 5.91561 37.6996 4.92423C37.5725 4.47957 36.9768 4.30352 37.2576 3.88352C37.5658 3.42264 39.2228 3.22159 39.4276 4.32515C39.5157 4.82127 39.5622 5.32389 39.5665 5.82776C38.1068 6.43597 35.7875 7.31821 35.8692 9.03167C35.9182 10.0541 36.6802 10.6819 37.8013 10.4846C39.0285 10.268 39.3184 9.75374 39.9665 9.2121C40.3277 9.8247 40.4815 10.2133 41.4908 10.0835C41.7933 10.0335 42.0796 9.9125 42.3263 9.73042C42.573 9.54834 42.773 9.31038 42.9099 9.03606L42.6872 8.78095ZM39.8608 8.52111C39.7766 8.88164 38.9103 9.61081 38.4193 9.15196C37.5533 8.34101 38.2247 6.75291 39.66 6.34203C39.6911 6.72791 39.9185 8.27411 39.8608 8.52111Z" fill="#77A75D"/>
<path fill-rule="evenodd" clip-rule="evenodd" d="M63.8173 8.2478C62.7202 8.81445 62.8688 10.5833 64.2505 10.4019C65.6159 10.2225 64.4421 8.69585 65.3787 8.68774C65.6642 8.70058 65.9413 8.78833 66.1822 8.94217C67.4132 9.72575 66.4907 10.7131 65.9984 11.6301C64.8215 11.5206 62.0697 10.4475 61.0682 12.0694C60.9486 12.2391 60.8653 12.4317 60.8236 12.6351C60.7819 12.8385 60.7828 13.0483 60.8261 13.2514C60.8693 13.4544 60.9541 13.6463 61.0751 13.8151C61.1961 13.9838 61.3506 14.1257 61.5291 14.2319C62.509 14.8313 63.1118 14.7354 64.2897 14.607C64.1393 15.4422 64.3093 15.7345 64.7789 16.0697C65.0247 16.2381 65.3046 16.3503 65.5986 16.3982C65.8927 16.4462 66.1937 16.4287 66.4802 16.3471C66.7908 16.2613 66.763 16.3174 66.7651 16.0947C66.7691 15.6453 66.7245 15.9555 66.461 15.8653C65.8886 15.6686 66.5012 15.0256 67.1094 13.9437C67.3797 13.4656 68.4248 11.7849 68.4914 11.2936C68.7529 9.37569 65.3956 7.43281 63.8173 8.2478ZM64.8678 13.6078C64.6627 13.9795 64.6603 14.0758 64.1812 14.1363C63.8163 14.1819 63.379 14.1478 63.1868 13.916C62.7343 13.3709 63.279 11.546 65.7115 12.0994C65.4564 12.5999 65.1486 13.1006 64.8678 13.6078Z" fill="#77A75D"/>
<path fill-rule="evenodd" clip-rule="evenodd" d="M36.6383 0.40295C35.5006 0.850321 36.1335 2.63676 37.361 2.13905C38.3636 1.73357 37.8057 -0.0555712 36.6383 0.40295Z" fill="#77A75D"/>
<path fill-rule="evenodd" clip-rule="evenodd" d="M39.619 0.0525447C38.4238 0.449231 39.0202 2.22047 40.1748 1.84507C41.3078 1.47677 40.7661 -0.328261 39.619 0.0542342" fill="#77A75D"/>
</g>
<defs>
<clipPath id="clip0_402_6766">
<rect width="91.9469" height="82" fill="white"/>
</clipPath>
</defs>
</svg>
