<svg width="92" height="82" viewBox="0 0 92 82" fill="none" xmlns="http://www.w3.org/2000/svg">
<path fill-rule="evenodd" clip-rule="evenodd" d="M47.268 64.6232L44.5753 63.401C41.3103 62.011 37.7608 61.4202 34.2216 61.6778C31.0454 61.8643 27.4411 62.6728 24.89 64.3471C24.251 64.7668 23.1329 65.6912 22.8008 66.2535C23.4205 66.5174 25.0116 66.7664 25.7597 66.9519C28.375 67.6014 31.3322 69.157 33.3589 70.5897C36.2364 72.6245 38.455 75.061 42.6277 76.3001C46.6577 77.4966 51.7755 77.4246 55.8187 76.2714C58.3147 75.5594 61.2885 73.9737 63.0885 72.3042C63.5585 71.8683 64.6174 70.888 64.8928 70.3471C64.0609 70.6279 63.2736 71.1979 61.5261 71.7324C57.1858 73.0597 53.2973 73.1148 48.8821 72.166C46.4352 71.602 44.0531 70.7867 41.7738 69.7331C41.2035 69.4746 35.8269 66.8299 35.3981 66.4789C38.479 66.6725 42.1222 69.7422 50.2654 70.4224C53.2727 70.6731 56.1536 70.6992 58.9648 70.02C61.1169 69.5 64.0113 68.167 65.2868 66.985C63.5973 66.6181 63.2804 66.7461 61.1382 66.1261C53.4937 63.9126 48.3682 58.8188 45.5035 51.4514C45.2585 50.8212 45.0531 50.237 44.8395 49.5714C44.6814 49.0794 44.4702 47.9654 44.2651 47.6045C42.8274 54.8712 44.624 59.2196 47.2676 64.6218" fill="#236C36"/>
<path fill-rule="evenodd" clip-rule="evenodd" d="M21.6523 33.1208C21.8439 34.3656 23.5895 36.9322 24.2257 37.6168C25.3385 38.9179 26.7005 39.983 28.2315 40.7494C30.9975 42.0966 34.0913 42.6242 37.1475 42.2699C38.3493 42.101 39.018 41.8077 40.0263 41.534C39.9898 40.8991 39.9878 40.2627 40.0202 39.6276L29.0073 36.6592L29.6455 34.6781L40.3568 38.7281C40.6003 38.1625 40.9644 37.6569 41.4235 37.2465C41.1316 36.5605 40.3422 35.7344 39.8803 35.2455C38.1513 33.4097 35.6036 32.0236 33.0589 31.2566C30.9998 30.641 28.8195 30.5493 26.716 30.99C24.4653 31.4404 23.4243 32.1007 21.6527 33.1215" fill="#E51B21"/>
<path fill-rule="evenodd" clip-rule="evenodd" d="M47.5013 43.867C47.6638 44.3796 53.8422 51.6075 54.6143 52.7948L52.9492 54.0113C52.5886 53.7592 47.0756 44.8915 46.661 44.4996C46.3815 44.5918 46.1717 44.7209 45.8541 44.8273C45.5618 44.9253 45.2428 44.9584 44.9553 45.0426L44.8853 45.349C44.5052 49.399 47.0816 53.6088 48.9836 55.745C50.7069 57.6828 54.5062 60.0342 58.5264 59.9687C59.5151 57.2655 59.1569 53.396 58.0983 50.8729C56.6038 47.3119 52.7234 43.3102 48.5474 42.3955C48.2712 42.9345 47.9184 43.4308 47.5 43.8687" fill="#E51B21"/>
<path fill-rule="evenodd" clip-rule="evenodd" d="M30.3478 59.9633C32.2674 60.0332 34.6671 59.2517 36.0758 58.5749C39.2138 57.0669 41.5138 54.2853 42.8691 51.0983C43.4513 49.7289 44.315 46.798 43.9453 45.0257C42.8266 44.8848 42.758 44.6493 42.2082 44.5023L35.969 54.0194C35.4135 53.7582 34.7959 53.0774 34.2725 52.8598C34.4637 52.3066 40.7938 44.8835 41.3993 43.8924C41.2155 43.6667 41.0138 43.4964 40.8124 43.2143C40.6482 42.9838 40.4694 42.5973 40.3008 42.4033C36.7391 43.1311 33.6342 46.231 32.0748 48.5016C30.9496 50.1623 30.2105 52.0538 29.9117 54.0373C29.6128 56.0209 29.7619 58.0462 30.3478 59.9646" fill="#E51B21"/>
<path fill-rule="evenodd" clip-rule="evenodd" d="M47.457 37.2284C47.6395 37.4649 47.8439 37.6085 48.0446 37.8893C48.2039 38.1691 48.3785 38.4398 48.5677 38.7002L59.2306 34.6455L59.8692 36.6502L48.8566 39.6406C48.8889 40.271 48.8857 40.9028 48.8468 41.5328C49.7671 41.8447 50.7091 42.0883 51.6652 42.2616C54.7229 42.6277 57.8215 42.1129 60.5967 40.778C62.133 40.0197 63.4989 38.9565 64.6109 37.6531C65.2545 36.9317 67.0626 34.3881 67.2089 33.1294C61.7962 29.6528 56.2274 30.0546 50.9738 33.5565C49.9669 34.2276 47.8929 36.1468 47.457 37.2294" fill="#E51B21"/>
<path fill-rule="evenodd" clip-rule="evenodd" d="M39.0993 26.9812C39.1014 29.836 39.5873 32.4476 40.9182 34.8416C41.1994 35.3484 41.8444 36.3993 42.2076 36.6557C42.7484 36.3723 43.3346 36.1856 43.9397 36.1043C43.9153 34.2729 43.7981 32.2165 43.6673 30.3966C43.5997 29.4468 43.5916 28.5088 43.5268 27.563C43.4277 26.6017 43.3916 25.635 43.4186 24.669H45.4551C45.5227 25.0903 45.1402 32.208 45.0733 33.169C45.0098 34.0847 44.9243 35.1964 44.9419 36.1039C45.8265 36.1996 46.1164 36.5047 46.7361 36.6601C46.7834 36.5739 47.5568 35.5292 47.9525 34.8473C48.3388 34.1613 48.6586 33.4399 48.9074 32.6929C50.2434 28.8747 50.09 24.3909 48.1252 20.8494C47.3008 19.4184 46.2495 18.1307 45.0125 17.0366C44.8398 16.9015 44.6506 16.7528 44.4864 16.6055C43.4727 16.9711 41.4213 19.6465 40.7959 20.7659C39.7104 22.6593 39.1259 24.7982 39.0977 26.9805" fill="#E51B21"/>
<path fill-rule="evenodd" clip-rule="evenodd" d="M67.0786 16.7503L66.8789 16.9493C66.9847 17.2064 69.4148 19.4213 69.5168 19.4558C70.0777 19.0392 68.9424 19.0466 69.9156 17.9491L71.6371 16.137C71.8436 15.9086 72.0308 15.7673 72.2426 15.5433C72.4545 15.3193 72.5238 15.0939 72.9522 15.0578C74.1095 14.9608 74.8501 15.844 73.9689 16.7756C73.4827 17.2896 71.2394 19.6872 70.9924 19.8062C70.6434 19.9751 70.4079 19.7612 70.1402 19.7288L69.9578 19.9859C70.1869 20.1611 70.4036 20.3518 70.6065 20.5566C71.0181 20.93 72.1423 22.1613 72.6059 22.3951C72.815 22.113 72.7596 22.2201 72.6133 21.8727C72.3396 21.2236 73.0613 20.8418 73.6151 20.236L74.9617 18.8276C75.7895 17.9805 76.7113 16.9442 75.83 15.6852C75.2894 14.9111 74.4163 14.5969 73.137 14.6253C73.3087 14.2722 75.8334 11.9076 75.977 11.5082C75.5296 10.9946 74.862 10.4688 74.2261 9.79913C73.9155 9.4734 73.5942 9.53321 73.7959 10.0056C74.1744 10.8922 73.2441 11.3467 72.5876 12.0711C72.3815 12.2985 72.2196 12.4732 72.0132 12.6996C71.6415 13.1105 71.2438 13.4768 70.8704 13.887L69.7257 15.0733C69.1778 15.7025 68.594 16.2995 67.9771 16.8611C67.6135 17.0598 67.3854 16.8442 67.0779 16.7503" fill="#251716"/>
<path fill-rule="evenodd" clip-rule="evenodd" d="M6.49362 24.2146L6.76393 24.3971C7.5073 23.6652 7.68266 23.3834 8.15166 25.2884C8.28682 25.8352 8.48955 26.5049 8.5693 27.0435L2.94912 23.7372C2.68387 24.2207 1.61951 25.8774 1.51172 26.2231L1.79487 26.3663C2.43146 26.0396 1.90638 25.5415 4.04558 26.8495C4.76462 27.2888 5.51339 27.7155 6.2652 28.1619C7.01701 28.6082 7.73538 29.0309 8.48685 29.4749C9.72929 30.2092 10.3115 30.3234 10.0668 31.2901L10.3372 31.4219C11.0129 30.3991 11.6318 29.3399 12.1912 28.2491C11.583 27.971 11.8137 28.5924 11.2001 28.543C10.9504 28.5228 9.89891 27.8517 9.62961 27.6983C9.2265 27.4665 9.20521 27.4935 9.09506 26.9549C9.81106 26.9238 12.0138 26.5778 12.4324 26.8732C12.4726 27.2006 12.3649 27.254 12.305 27.553L12.5456 27.6544C13.2131 26.6713 13.8206 25.6489 14.3648 24.5927C13.8796 24.3461 14.4483 24.5687 13.1234 24.69C11.8965 24.8026 9.68333 25.0583 8.65141 25.084C8.57504 24.5326 8.42941 23.9122 8.31655 23.3648C8.1351 22.4863 8.44157 21.898 8.39055 21.5902L8.15605 21.4648L6.49362 24.2146Z" fill="#251716"/>
<path fill-rule="evenodd" clip-rule="evenodd" d="M81.6311 47.423C82.4619 47.4149 81.3344 46.612 83.0441 46.6597C83.3993 46.6695 83.7537 46.6789 84.1075 46.6853C84.6322 46.6948 84.6687 46.735 84.9022 47.0469C84.0584 47.6899 83.1695 48.2715 82.2423 48.787C81.5942 48.8546 82.2761 48.0504 81.5392 48.1575L81.4297 51.6821C81.9862 51.721 81.6324 51.6267 82.0318 51.3337L84.9813 49.3368C85.3729 49.0354 85.7884 48.7664 86.2237 48.5326C86.6758 49.03 87.6537 50.0555 87.8973 50.6715C88.0953 51.1719 87.9098 51.4716 88.4143 51.4182L88.5373 48.1782C87.8682 48.1839 88.3089 48.4853 87.9027 49.0016C87.4506 49.2641 86.294 47.7176 85.9429 47.398C85.7202 47.214 85.5317 46.9922 85.3861 46.7428L91.8736 46.9087L91.9351 44.7844C91.9751 44.5397 91.9555 44.289 91.878 44.0535C91.3796 44.0535 91.6307 43.9836 91.48 44.3873C91.4596 44.477 91.4115 44.5579 91.3424 44.6186C91.2734 44.6792 91.187 44.7166 91.0955 44.7252C90.7312 44.8154 84.739 44.5901 83.8943 44.5661C83.2523 44.5482 82.3572 44.6516 82.1092 44.1677C81.9065 43.7703 82.2065 43.7538 81.7037 43.7791C81.5824 44.91 81.5358 46.0477 81.5642 47.1847L81.6108 47.3648C81.6163 47.3841 81.6237 47.4026 81.6331 47.4203" fill="#251716"/>
<path fill-rule="evenodd" clip-rule="evenodd" d="M10.8401 76.3667L10.5424 76.1251L8.28125 78.4643L8.57251 78.7786C9.5889 78.4474 9.36758 79.1127 10.4397 80.5782C10.7357 80.9639 11.1051 81.2872 11.5267 81.5294C11.9482 81.7717 12.4136 81.9281 12.8959 81.9896C14.7249 82.1443 16.5579 80.3231 15.7504 77.6C15.2165 75.7997 14.2272 74.2396 15.3574 73.2543C16.7333 72.0555 18.3207 73.329 18.5907 74.8958C18.8685 76.5086 17.9061 77.4638 17.8075 78.018L18.0342 78.2028C18.313 78.0801 20.3995 75.9406 20.7093 75.5844L20.4099 75.2726C19.7575 75.5851 19.6574 75.1418 19.3733 74.685C19.141 74.2895 18.8831 73.9097 18.6012 73.548C18.0639 72.8992 17.4365 72.1734 16.3931 71.8724C14.4211 71.3033 12.1285 72.8472 12.4836 75.5132C12.7218 77.2986 14.7742 80.3285 12.6641 81.0208C11.3311 81.4601 9.95281 79.8507 10.3373 77.851C10.4387 77.3239 10.8185 76.6742 10.8401 76.3643" fill="#251716"/>
<path fill-rule="evenodd" clip-rule="evenodd" d="M1.48634 41.6542L0.456778 41.5309C0.41792 41.8641 -0.0453314 44.155 0.0975975 44.4344C0.874752 44.5142 -0.00377035 43.6008 1.61339 43.836C2.28208 43.9337 6.0996 44.3918 6.39018 44.7115C6.68956 45.0413 6.40269 45.4853 6.80951 45.4549C6.99907 45.3717 6.92912 45.5535 7.01022 45.1379C7.03826 44.9953 7.05583 44.7811 7.07949 44.6247C7.17443 43.9965 7.53193 42.1918 7.4238 41.8539C6.74058 41.7864 7.40623 42.5777 5.97491 42.3635L2.42028 41.8228C1.88505 41.7333 1.53027 41.1535 1.4931 40.6172C1.39173 39.1643 3.37888 39.831 4.40844 39.9874C5.00313 40.0776 5.59107 40.1665 6.18103 40.255C7.6583 40.477 6.94602 40.9335 7.37481 41.19C7.71506 41.1852 7.54375 41.3562 7.6485 40.9592L8.08776 37.9344C8.0391 37.4181 8.23069 38.3476 8.03741 37.7489C8.03097 37.7278 8.02164 37.7076 8.00971 37.6891C7.47246 37.6103 7.98504 38.2618 6.95109 38.2364C4.65341 38.1804 1.19406 36.3513 0.628766 39.241C0.540043 39.6831 0.572843 40.141 0.723675 40.5659C0.874507 40.9909 1.13773 41.367 1.48533 41.6542" fill="#251716"/>
<path fill-rule="evenodd" clip-rule="evenodd" d="M12.6072 16.1018L12.8191 16.24C13.1093 16.1177 13.407 15.6091 13.8432 16.0656L15.0211 18.1386C15.2368 18.4907 15.4269 18.8578 15.5902 19.2371C14.3372 18.8589 13.1099 18.4008 11.9156 17.8656C11.8118 17.3851 12.0544 17.2662 12.172 16.9553L11.9693 16.8107C11.0607 17.6993 10.2123 18.6475 9.42969 19.649L9.65878 19.8179C10.1622 19.5071 10.2386 19.5848 10.9032 19.7841C11.748 20.0389 16.8022 21.7585 17.0326 21.9923C17.2545 22.3243 17.4476 22.6748 17.6097 23.0397C17.7892 23.4428 17.9838 23.9581 17.552 24.2595C17.0766 24.1974 17.0904 23.7774 16.5001 23.8649C15.2391 24.0514 15.6797 26.2115 17.1293 25.7821C17.4588 25.6644 17.7521 25.4631 17.9805 25.1979C18.2088 24.9327 18.3644 24.6127 18.4318 24.2693C18.5126 23.5935 17.9781 22.665 17.7182 22.1531C17.082 20.9029 16.4342 19.6581 15.7811 18.439L14.3345 15.6436C14.0642 15.0803 14.1859 15.0692 14.3427 14.5715L14.1017 14.3623L13.3246 15.1945C13.1019 15.4649 12.7056 15.7913 12.6062 16.1028" fill="#251716"/>
<path fill-rule="evenodd" clip-rule="evenodd" d="M12.6793 67.1783C12.9497 68.197 12.5482 68.1582 11.2862 69.0431L4.91016 73.3911C5.13991 73.8111 5.39963 74.214 5.68731 74.5967C5.97283 75.0079 6.25463 75.4475 6.50772 75.7905L6.80472 75.6523C6.69085 74.9407 6.65909 74.8329 7.16526 74.4595L13.4639 70.1595C14.1735 69.7044 14.3691 69.951 14.7246 70.1865L14.9844 70.0257C14.6773 69.3999 13.3477 67.7233 12.9909 67.0303L12.6793 67.1783Z" fill="#251716"/>
<path fill-rule="evenodd" clip-rule="evenodd" d="M19.9062 9.9727L20.582 11.4463C20.6919 11.6933 20.7064 11.776 20.8909 11.9193L21.1477 11.771C21.1477 10.9043 20.8236 10.4626 21.4643 9.83687C21.8989 9.44635 22.3926 9.12704 22.927 8.89077C22.9402 10.1146 22.8594 11.4094 22.8213 12.6414C22.7875 13.7308 22.5607 15.3391 22.8479 16.268C23.3697 16.1876 27.1135 13.9342 28.0045 13.5648L27.0922 11.3037L26.7486 11.4523C26.7148 12.6211 27.2064 13.7091 24.9077 14.6684C24.7347 12.81 25.2963 8.54645 24.9007 7.32227C24.5033 7.40167 20.5756 9.60676 19.9079 9.9727" fill="#251716"/>
<path fill-rule="evenodd" clip-rule="evenodd" d="M55.7135 6.48353C56.5288 6.76838 56.1237 5.88175 57.234 5.55264C57.7314 5.40532 58.9928 5.73206 59.3415 5.94662L54.5309 10.1933C54.2748 10.4058 54.0436 10.4974 53.9453 10.9427C54.1369 11.0904 58.9826 12.7268 59.4712 12.8194L60.4339 10.6079L59.9912 10.4788C59.6827 11.0207 59.1955 11.4387 58.613 11.6614C58.0609 11.8256 56.8427 11.6161 56.4869 11.2843L60.5417 7.65771C60.7596 7.45498 60.9549 7.29042 61.2114 7.05592C61.5263 6.76804 61.7121 6.8123 61.8091 6.27877L56.5525 4.4707C56.3683 4.64708 55.7845 6.16422 55.7135 6.48522" fill="#251716"/>
<path fill-rule="evenodd" clip-rule="evenodd" d="M43.9672 4.93426C44.8684 4.94102 44.2037 4.24631 45.1262 3.61377C45.6479 3.25527 46.5913 3.30562 47.2887 3.32758C47.0128 3.87527 46.6979 4.40239 46.3463 4.90486L44.4027 8.04727C44.1284 8.50883 43.5833 9.14103 43.5742 9.72626L49.3458 9.91684C49.5093 9.57016 49.6752 7.96347 49.6837 7.49549C49.0988 7.47691 49.2731 7.60294 49.0048 8.126C48.3892 9.32552 47.5472 9.44176 46.1395 9.34546C46.2007 9.09035 48.6169 5.18565 48.9599 4.62205C49.2187 4.19664 49.8242 3.43942 49.7391 2.91873L44.1885 2.76465C43.9858 3.23432 43.9794 4.35579 43.9665 4.93325" fill="#251716"/>
<path fill-rule="evenodd" clip-rule="evenodd" d="M73.0742 23.1663C73.1969 23.4873 74.4315 25.1399 74.7826 25.6329L75.4145 26.4297L75.5959 26.3134C75.6067 25.6914 74.836 25.6937 75.8101 24.8335C76.1622 24.5229 76.6819 24.2077 77.1215 23.8833C77.5408 23.5748 78.0132 23.2258 78.4447 22.9453C78.9475 22.6189 79.6571 22.4192 80.0723 22.9527C80.1629 23.6404 79.5178 24.2053 80.3274 24.754C81.8074 25.7569 83.48 22.2989 79.5165 22.1523C79.7915 21.9092 80.0791 21.6807 80.3781 21.4677C79.8717 20.6662 79.3228 19.8924 78.7339 19.1494C77.9531 19.4687 79.3506 19.615 77.9362 20.6699C77.4053 21.0656 76.884 21.4258 76.3656 21.785C75.8115 22.1695 75.352 22.5219 74.7978 22.9C73.429 23.8407 73.5871 22.6344 73.0746 23.1622" fill="#251716"/>
<path fill-rule="evenodd" clip-rule="evenodd" d="M77.7734 63.4146L78.0282 63.5339C78.2576 63.2903 78.3377 63.0105 78.5648 62.9014C78.7223 62.8544 78.8878 62.8403 79.0509 62.86C79.2141 62.8797 79.3715 62.9328 79.5133 63.0159L82.679 64.5145C83.0169 64.7483 83.6315 65.6295 82.8905 65.8948C82.682 65.9691 81.666 65.9941 81.7123 66.9683C81.7744 68.2742 83.892 68.3283 84.0711 66.6564C84.1573 65.8525 83.7957 65.442 83.5862 64.847L84.6036 65.2802L85.8048 62.6608L85.523 62.5304C85.0131 62.9152 85.1023 63.2163 83.839 62.6453C83.2598 62.3834 80.0272 61.0021 79.818 60.6642C79.5102 60.1702 80.014 60.0168 79.5166 59.7715C79.3335 59.8502 79.4808 59.7411 79.3673 59.8968L77.7734 63.4146Z" fill="#251716"/>
<path fill-rule="evenodd" clip-rule="evenodd" d="M3.26416 30.2313C3.04588 30.7486 3.61861 30.4878 3.19996 31.1419C2.67555 31.9617 1.98354 32.9402 2.46098 34.1559C2.89619 35.2656 4.29575 36.0769 5.77234 34.9858C6.68465 34.312 7.99297 32.3712 8.89988 33.5119C9.39827 34.1387 8.87555 35.003 8.5059 35.3862C7.90985 36.0039 7.32023 35.889 6.38393 35.9204L6.27817 36.332L8.64342 37.1537L8.76844 36.8043C8.24471 36.0911 8.51198 36.4026 9.24419 35.2075C10.8688 32.556 8.11394 30.701 6.34879 31.7461C5.84401 32.1053 5.38313 32.5226 4.97559 32.9892C2.81307 35.1517 2.05653 31.8495 4.37853 31.3335C4.97626 31.2004 5.20569 31.4835 5.33375 30.9378C5.1986 30.8311 3.4875 30.1438 3.26416 30.2313Z" fill="#251716"/>
<path fill-rule="evenodd" clip-rule="evenodd" d="M69.4844 74.1638C69.6243 74.8396 71.5793 79.3596 71.9429 80.55C72.1149 81.1146 71.8871 81.1281 71.8341 81.5062L72.0182 81.6711C72.6119 81.2052 73.1598 80.6836 73.6543 80.1134L73.4942 79.9171C72.8143 80.1171 72.6454 80.8041 71.9635 79.043C71.6318 78.3025 71.3427 77.5436 71.0978 76.77C71.7114 76.9605 74.1247 78.0685 74.4876 78.4179C74.5605 78.8767 74.3568 78.9534 74.1628 79.1967L74.3629 79.4596C74.6349 79.3194 76.3406 77.5965 76.8048 77.1934C76.9957 77.0271 77.0596 77.0352 77.1089 76.7933C76.6119 76.4169 76.915 76.9744 76.1666 76.7514L69.7773 73.9219L69.4844 74.1638Z" fill="#251716"/>
<path fill-rule="evenodd" clip-rule="evenodd" d="M1.30196 56.7846L1.5145 56.7346C1.57701 56.595 1.54389 56.7309 1.54829 56.5393C1.54829 56.4426 1.527 56.3517 1.53274 56.2379C1.52296 56.147 1.54441 56.0556 1.59354 55.9786C1.64267 55.9016 1.71657 55.8436 1.80306 55.8142C2.26361 55.6006 4.6863 56.048 5.43237 56.1308C5.30381 56.3056 5.14088 56.4523 4.95357 56.5619L3.49286 57.6432C3.16889 57.8957 2.82035 58.1149 2.45249 58.2977C1.79461 58.4784 2.14433 57.56 1.58444 57.7009C1.43239 57.8141 1.66182 58.4443 1.69899 58.5869L2.194 60.499C2.25144 60.7339 2.29773 61.2275 2.50283 61.385C3.02961 61.2596 2.50114 61.0208 3.03096 60.5741C4.71063 59.1637 6.76265 57.7185 8.56295 56.4241L8.48219 55.9848C6.81435 55.6591 4.81639 55.4942 3.10969 55.2698C2.69374 55.2151 1.55808 55.1347 1.25702 54.8643C1.01712 54.6474 1.13842 54.4778 0.831951 54.5535C0.58191 54.6153 0.805258 55.1019 0.936698 55.6064C1.03165 55.9706 1.09652 56.543 1.30264 56.7846" fill="#251716"/>
<path fill-rule="evenodd" clip-rule="evenodd" d="M32.0936 5.02644C32.4954 5.52044 32.3342 6.12392 32.2748 6.8487C32.2187 7.53496 32.1832 8.21649 32.1038 8.8916C31.7767 8.61656 29.8595 6.33375 29.7696 5.85665C29.8034 5.53396 30.2089 5.50794 30.4032 5.29135L30.3224 5.02306L27.0388 6.02086C26.6313 6.14115 26.7272 6.04418 26.7455 6.37227C27.129 6.65982 26.9692 5.94416 28.2613 7.50928L29.5405 8.98452C29.9686 9.51468 30.3515 9.97489 30.7772 10.505C31.1645 11.0334 31.5835 11.5377 32.0321 12.0151L32.4241 11.9073C32.5903 10.5716 32.6488 9.11732 32.7573 7.76811C32.7961 7.28019 32.9063 5.09875 33.0982 4.73484C33.3506 4.25605 33.5459 4.66084 33.4334 4.08203L31.5017 4.62739C31.2597 4.71254 31.2367 4.64023 31.2705 4.85817C31.3317 5.2508 31.4324 4.88824 32.0936 5.02712" fill="#251716"/>
<path fill-rule="evenodd" clip-rule="evenodd" d="M7.57495 61.3512C5.69863 61.6344 4.04295 63.0012 4.07066 65.0616C4.096 66.9434 5.88143 68.6923 7.90676 68.4129C9.63441 68.1763 11.4408 66.7234 11.4171 64.7079C11.3931 62.6734 9.77396 61.0191 7.57495 61.3512ZM5.9561 66.8018C5.18199 66.8552 4.57851 66.398 4.78665 65.5827C5.05697 64.5247 8.73291 63.0228 9.54486 62.9008C9.71004 62.8623 9.88246 62.868 10.0447 62.9173C10.207 62.9667 10.3534 63.0579 10.4692 63.1819C10.5849 63.3059 10.6659 63.4582 10.7041 63.6235C10.7422 63.7888 10.736 63.9612 10.6863 64.1233C10.3774 65.2884 6.66196 66.7531 5.9561 66.8018Z" fill="#251716"/>
<path fill-rule="evenodd" clip-rule="evenodd" d="M79.6331 67.5552C78.8596 67.0483 77.9436 66.6212 76.7657 66.8774C75.0587 67.249 73.4294 69.0014 74.1663 71.1838C74.6691 72.6732 76.4701 74.2999 78.589 73.8903C81.2573 73.3754 82.7397 69.5879 79.6331 67.5552ZM79.7432 72.6388C79.1012 72.7844 78.2771 72.2333 77.9017 71.9711C77.0837 71.3987 75.6341 70.4421 75.1023 69.6829C75.003 69.5562 74.9367 69.4068 74.9094 69.2482C74.8821 69.0895 74.8947 68.9266 74.946 68.774C74.9973 68.6214 75.0857 68.484 75.2033 68.3741C75.3209 68.2641 75.4639 68.1851 75.6196 68.1441C76.292 67.9576 77.1158 68.4898 77.5 68.7706C78.3616 69.4007 79.802 70.2982 80.2707 71.0875C80.6552 71.7373 80.4427 72.4796 79.7432 72.6388Z" fill="#251716"/>
<path fill-rule="evenodd" clip-rule="evenodd" d="M90.8424 37.479C90.7542 37.0488 90.8451 36.817 90.4254 36.8968L90.3822 37.086C90.3146 37.949 90.7059 38.0182 89.2478 38.3362C88.5402 38.529 87.8212 38.6774 87.0951 38.7805C87.3519 38.2088 87.7013 37.9551 87.5759 37.0147C87.1627 33.9128 81.5189 33.9949 80.4295 36.8718C80.1878 37.5192 80.2079 38.2353 80.4856 38.868C80.6091 39.1097 80.7751 39.3271 80.9755 39.51C81.2053 39.6749 81.4226 39.8565 81.6256 40.0534L80.7424 40.2757C81.1216 40.9781 81.4397 41.7118 81.6932 42.4686C81.8368 42.9214 81.7074 43.0745 82.1663 42.9887C82.2305 42.3669 82.0541 42.1939 82.6373 41.9726C83.0496 41.848 83.4692 41.7486 83.8936 41.6749C85.9392 41.2225 89.6509 40.3105 91.3803 40.0436C91.3573 39.5925 90.9721 38.1102 90.8424 37.479ZM85.9429 39.063L83.3337 39.6307C82.5359 39.8057 82.2893 39.8827 81.7034 39.3448C81.2813 38.9573 81.0793 38.4288 81.5587 37.9294C82.0919 37.3742 83.7341 36.9883 84.7562 36.8501C85.3729 36.7667 86.1416 36.7569 86.5471 37.1161C87.1259 37.6303 86.8481 38.8572 85.9436 39.063H85.9429Z" fill="#251716"/>
<path fill-rule="evenodd" clip-rule="evenodd" d="M5.33372 46.1465L5.15295 46.4742C5.31919 46.6861 5.80778 46.9926 6.05985 47.447C6.18123 47.6789 6.24876 47.9352 6.25742 48.1969C6.26608 48.4585 6.21564 48.7187 6.10986 48.9581C5.8213 49.6572 4.58225 50.1944 3.50808 50.0938L3.29014 46.3164C1.44457 46.3972 -0.148937 47.345 0.0156171 49.3109C0.336616 53.1514 6.1396 53.2774 7.23944 50.1556C7.8446 48.4347 6.71672 46.7223 5.33372 46.1465ZM0.504211 49.2369C0.540028 48.2073 1.96357 48.2384 2.86473 48.2144L2.97691 50.2499C2.03825 50.2688 0.463664 50.3931 0.504211 49.2369Z" fill="#251716"/>
<path fill-rule="evenodd" clip-rule="evenodd" d="M10.7221 16.8784C10.9956 16.7156 11.2103 16.4701 11.3351 16.1773C11.428 15.8492 11.4864 15.3363 11.5506 14.9788C11.6611 14.3621 12.0622 12.9649 11.3739 12.7325C11.2016 12.6721 11.0135 12.6754 10.8433 12.7415C10.6732 12.8077 10.5323 12.9325 10.4461 13.0933C10.1717 13.6252 10.6279 15.9624 10.7221 16.8778" fill="#251716"/>
<path fill-rule="evenodd" clip-rule="evenodd" d="M88.4156 56.1006C88.1192 57.0707 88.3449 57.2494 88.7832 58.5469C89.0025 59.197 89.3661 60.556 90.2415 59.8965C91.1079 59.244 89.7573 57.9103 89.0873 56.972C88.8867 56.6643 88.6621 56.3729 88.4156 56.1006Z" fill="#251716"/>
<path fill-rule="evenodd" clip-rule="evenodd" d="M83.6857 26.9779C83.0072 26.4311 81.9577 26.1443 81.3231 27.0218C80.7423 27.825 81.9033 29.1056 82.7669 28.3274C83.0693 28.0547 83.1271 27.3793 83.6454 27.7175C84.2537 28.1155 84.675 29.433 83.6552 29.9226C83.2552 30.1328 82.8391 30.3109 82.4108 30.4551C81.7313 29.7793 79.9215 27.2137 78.1533 27.951C77.9368 28.0283 77.7409 28.1542 77.5805 28.3188C77.42 28.4835 77.2994 28.6826 77.2276 28.901C77.1559 29.1194 77.1351 29.3513 77.1667 29.5791C77.1983 29.8068 77.2815 30.0242 77.41 30.2149C77.8127 30.981 78.4913 31.5657 79.3086 31.8506C79.145 32.0838 78.9143 32.1723 78.7913 32.548C78.705 32.8946 78.7533 33.2611 78.9264 33.5735C79.1383 34.0057 79.7566 34.6423 80.4236 34.621L80.5324 34.374C80.4145 34.2358 80.3669 34.2726 80.225 34.1449C80.2486 33.6279 80.7156 33.5776 81.1741 33.3732C81.9357 33.0353 84.228 32.0554 84.5983 31.7117C85.9739 30.4321 84.549 27.6739 83.6857 26.9779ZM80.1574 31.5168C79.6235 31.7165 78.7291 31.0853 78.8244 30.5369C79.0437 29.2769 81.291 29.4745 81.9242 30.7275C81.3147 30.9407 80.7355 31.2992 80.1574 31.5168Z" fill="#251716"/>
<path fill-rule="evenodd" clip-rule="evenodd" d="M86.4322 53.7517C84.8218 53.4378 84.7505 55.5794 85.9456 55.6777C86.2733 55.7044 87.5905 54.8644 87.1931 56.563C86.8454 58.0497 85.2975 57.3536 84.5552 57.1935C84.3315 55.8791 84.5075 53.0604 82.6552 52.6005C81.5513 52.3268 80.9049 52.9759 80.7356 53.8446C80.492 55.0969 80.8471 55.5341 81.2191 56.4464C80.4386 56.4839 80.0804 56.7546 79.9155 57.4763C79.7804 58.0622 79.9909 58.9968 80.4318 59.2739L80.7022 59.1702C80.6954 59.0688 80.3666 58.4437 81.1752 58.5957C81.5131 58.6596 81.9186 58.7647 82.2686 58.8454C82.9829 59.0097 83.6932 59.1583 84.4021 59.3236C85.2441 59.5195 85.8486 59.6442 86.4676 59.087C88.0223 57.6834 88.2923 54.1146 86.4322 53.7517ZM82.0733 56.6404C81.5246 56.4653 81.281 55.3733 81.6574 55.0543C82.244 54.5572 83.9551 54.8441 84.0314 57.0675C83.372 56.9588 82.7186 56.8166 82.0737 56.6414L82.0733 56.6404Z" fill="#251716"/>
<path fill-rule="evenodd" clip-rule="evenodd" d="M42.6872 8.78083C41.9212 9.5617 41.9706 8.02327 41.8506 6.92241C41.778 6.25643 41.6614 4.52675 41.4113 4.03917C40.499 2.25171 36.3041 2.82715 35.7743 4.51222C35.7062 4.73527 35.6928 4.9714 35.7351 5.20074C35.7773 5.43007 35.8741 5.64589 36.0172 5.83C36.6531 6.51593 37.9827 5.91549 37.6996 4.92411C37.5725 4.47945 36.9768 4.3034 37.2576 3.8834C37.5658 3.42251 39.2228 3.22147 39.4276 4.32503C39.5157 4.82115 39.5622 5.32377 39.5665 5.82764C38.1068 6.43585 35.7875 7.31809 35.8692 9.03154C35.9182 10.054 36.6802 10.6818 37.8013 10.4845C39.0285 10.2679 39.3184 9.75362 39.9665 9.21198C40.3277 9.82458 40.4815 10.2132 41.4908 10.0834C41.7933 10.0334 42.0796 9.91238 42.3263 9.7303C42.573 9.54822 42.773 9.31026 42.9099 9.03594L42.6872 8.78083ZM39.8608 8.52099C39.7766 8.88152 38.9103 9.61069 38.4193 9.15183C37.5533 8.34089 38.2247 6.75279 39.66 6.34191C39.6911 6.72779 39.9185 8.27399 39.8608 8.52099Z" fill="#251716"/>
<path fill-rule="evenodd" clip-rule="evenodd" d="M63.8173 8.24744C62.7202 8.81408 62.8688 10.583 64.2505 10.4015C65.6159 10.2221 64.4421 8.69548 65.3787 8.68737C65.6642 8.70021 65.9413 8.78796 66.1822 8.94181C67.4132 9.72538 66.4907 10.7127 65.9984 11.6297C64.8215 11.5203 62.0697 10.4471 61.0682 12.069C60.9486 12.2387 60.8653 12.4313 60.8236 12.6347C60.7819 12.8381 60.7828 13.0479 60.8261 13.251C60.8693 13.4541 60.9541 13.646 61.0751 13.8147C61.1961 13.9835 61.3506 14.1254 61.5291 14.2315C62.509 14.831 63.1118 14.735 64.2897 14.6066C64.1393 15.4419 64.3093 15.7341 64.7789 16.0693C65.0247 16.2377 65.3046 16.3499 65.5986 16.3979C65.8927 16.4458 66.1937 16.4283 66.4802 16.3467C66.7908 16.2609 66.763 16.317 66.7651 16.0943C66.7691 15.6449 66.7245 15.9551 66.461 15.8649C65.8886 15.6683 66.5012 15.0252 67.1094 13.9433C67.3797 13.4652 68.4248 11.7845 68.4914 11.2932C68.7529 9.37532 65.3956 7.43244 63.8173 8.24744ZM64.8678 13.6074C64.6627 13.9791 64.6603 14.0754 64.1812 14.1359C63.8163 14.1815 63.379 14.1474 63.1868 13.9156C62.7343 13.3706 63.279 11.5456 65.7115 12.0991C65.4564 12.5995 65.1486 13.1003 64.8678 13.6074Z" fill="#251716"/>
<path fill-rule="evenodd" clip-rule="evenodd" d="M36.6383 0.402706C35.5006 0.850077 36.1335 2.63652 37.361 2.1388C38.3636 1.73333 37.8057 -0.0558153 36.6383 0.402706Z" fill="#251716"/>
<path fill-rule="evenodd" clip-rule="evenodd" d="M39.619 0.0521785C38.4238 0.448865 39.0202 2.2201 40.1748 1.8447C41.3078 1.4764 40.7661 -0.328627 39.619 0.053868" fill="#251716"/>
</svg>
