<svg width="157" height="140" viewBox="0 0 157 140" fill="none" xmlns="http://www.w3.org/2000/svg">
<g clip-path="url(#clip0_739_1429)">
<path fill-rule="evenodd" clip-rule="evenodd" d="M80.7108 110.333L76.1135 108.246C70.5391 105.873 64.4789 104.864 58.4364 105.304C53.0136 105.622 46.8599 107.003 42.5044 109.861C41.4135 110.578 39.5046 112.156 38.9375 113.116C39.9955 113.567 42.7121 113.992 43.9893 114.309C48.4545 115.417 53.5034 118.073 56.9636 120.519C61.8764 123.993 65.6643 128.153 72.7883 130.269C79.6689 132.312 88.4065 132.189 95.3096 130.22C99.5711 129.004 104.648 126.297 107.721 123.447C108.524 122.702 110.332 121.029 110.802 120.105C109.382 120.585 108.038 121.558 105.054 122.47C97.6437 124.736 91.0048 124.83 83.4666 123.211C79.289 122.248 75.222 120.856 71.3305 119.057C70.3567 118.616 61.1772 114.1 60.4452 113.501C65.7052 113.831 71.9253 119.073 85.8284 120.234C90.9627 120.662 95.8813 120.706 100.681 119.547C104.355 118.659 109.297 116.383 111.475 114.365C108.59 113.739 108.049 113.957 104.392 112.899C91.34 109.119 82.5891 100.423 77.6982 87.8443C77.28 86.7684 76.9292 85.7709 76.5646 84.6344C76.2947 83.7945 75.9341 81.8925 75.5839 81.2764C73.1293 93.683 76.1966 101.107 80.7102 110.33" fill="#6B9156"/>
<path fill-rule="evenodd" clip-rule="evenodd" d="M36.9766 56.5484C37.3037 58.6737 40.2839 63.0558 41.3702 64.2245C43.2701 66.4459 45.5954 68.2644 48.2092 69.5729C52.9317 71.873 58.2137 72.7738 63.4316 72.1689C65.4836 71.8805 66.6253 71.3797 68.3467 70.9124C68.2844 69.8285 68.281 68.7419 68.3364 67.6576L49.5337 62.5896L50.6235 59.2073L68.9109 66.1219C69.3268 65.1563 69.9483 64.293 70.7322 63.5923C70.2338 62.4212 68.8861 61.0107 68.0975 60.1759C65.1456 57.0417 60.7958 54.6753 56.4512 53.3657C52.9357 52.3146 49.2132 52.1582 45.6219 52.9105C41.7792 53.6795 40.0018 54.8068 36.9771 56.5496" fill="#E51B21"/>
<path fill-rule="evenodd" clip-rule="evenodd" d="M81.1088 74.8947C81.3862 75.7698 91.9347 88.1101 93.2529 90.1373L90.41 92.2141C89.7944 91.7837 80.3819 76.6438 79.674 75.9746C79.1969 76.1321 78.8387 76.3525 78.2964 76.5342C77.7974 76.7015 77.2528 76.758 76.7619 76.9017L76.6425 77.4249C75.9935 84.3395 80.3923 91.527 83.6396 95.1741C86.5817 98.4826 93.0683 102.497 99.9321 102.385C101.62 97.7701 101.009 91.1636 99.2012 86.8559C96.6496 80.7761 90.0246 73.944 82.8948 72.3823C82.4231 73.3026 81.8208 74.1498 81.1064 74.8976" fill="#E51B21"/>
<path fill-rule="evenodd" clip-rule="evenodd" d="M51.821 102.377C55.0983 102.496 59.1954 101.162 61.6004 100.006C66.958 97.4318 70.8849 92.6829 73.1988 87.2416C74.1928 84.9035 75.6674 79.8995 75.0362 76.8737C73.1261 76.6332 73.009 76.2311 72.0704 75.9801L61.4181 92.2288C60.4697 91.7829 59.4152 90.6205 58.5216 90.249C58.8481 89.3046 69.6556 76.6309 70.6894 74.9388C70.3755 74.5535 70.0311 74.2627 69.6873 73.781C69.4069 73.3876 69.1017 72.7276 68.8139 72.3965C62.7329 73.6391 57.4318 78.9315 54.7695 82.8082C52.8484 85.6435 51.5865 88.8729 51.0763 92.2594C50.5661 95.646 50.8206 99.1038 51.821 102.379" fill="#E51B21"/>
<path fill-rule="evenodd" clip-rule="evenodd" d="M81.0312 63.5622C81.3428 63.966 81.6918 64.2112 82.0345 64.6906C82.3064 65.1682 82.6045 65.6304 82.9275 66.0751L101.132 59.1524L102.223 62.5751L83.4207 67.6806C83.476 68.7569 83.4704 69.8355 83.404 70.9112C84.9752 71.4436 86.5835 71.8595 88.2158 72.1555C93.4363 72.7805 98.7267 71.9016 103.465 69.6224C106.088 68.3279 108.42 66.5126 110.318 64.2873C111.417 63.0557 114.504 58.7128 114.754 56.5639C105.513 50.6283 96.005 51.3142 87.0355 57.2931C85.3164 58.4388 81.7754 61.7155 81.0312 63.5639" fill="#E51B21"/>
<path fill-rule="evenodd" clip-rule="evenodd" d="M66.7646 46.0662C66.7681 50.9403 67.5976 55.3991 69.87 59.4864C70.35 60.3517 71.4513 62.1458 72.0714 62.5837C72.9947 62.0997 73.9955 61.7811 75.0286 61.6422C74.987 58.5155 74.7868 55.0045 74.5636 51.8974C74.4482 50.2757 74.4344 48.6743 74.3236 47.0596C74.1545 45.4183 74.0929 43.7678 74.139 42.1185H77.6159C77.7313 42.8379 77.0783 54.9901 76.964 56.6308C76.8556 58.1941 76.7096 60.0921 76.7396 61.6416C78.2499 61.8049 78.7449 62.3258 79.8029 62.5912C79.8837 62.4441 81.2042 60.6603 81.8797 59.4962C82.5394 58.325 83.0853 57.0933 83.51 55.8179C85.791 49.2991 85.5291 41.6437 82.1745 35.5973C80.7671 33.1541 78.9723 30.9556 76.8602 29.0877C76.5654 28.8569 76.2423 28.6031 75.962 28.3516C74.2313 28.9758 70.729 33.5436 69.6612 35.4548C67.8079 38.6873 66.8099 42.3392 66.7617 46.065" fill="#E51B21"/>
<path fill-rule="evenodd" clip-rule="evenodd" d="M114.532 28.5991L114.191 28.9389C114.372 29.3779 118.521 33.1594 118.695 33.2183C119.653 32.507 117.714 32.5197 119.376 30.6459L122.315 27.5521C122.668 27.1621 122.987 26.9209 123.349 26.5385C123.711 26.156 123.829 25.7712 124.56 25.7095C126.536 25.5439 127.801 27.0519 126.296 28.6424C125.466 29.5198 121.636 33.6134 121.214 33.8165C120.619 34.105 120.216 33.7398 119.76 33.6844L119.448 34.1234C119.839 34.4224 120.209 34.748 120.556 35.0978C121.258 35.7353 123.178 37.8374 123.969 38.2367C124.326 37.755 124.232 37.9378 123.982 37.3448C123.515 36.2366 124.747 35.5847 125.692 34.5503L127.991 32.1458C129.405 30.6996 130.978 28.9302 129.474 26.7808C128.551 25.4591 127.06 24.9226 124.876 24.971C125.169 24.3682 129.48 20.3311 129.725 19.6492C128.961 18.7724 127.821 17.8747 126.735 16.7313C126.205 16.1752 125.657 16.2773 126.001 17.0838C126.647 18.5976 125.059 19.3735 123.938 20.6103C123.586 20.9986 123.31 21.2968 122.957 21.6833C122.323 22.3848 121.644 23.0102 121.006 23.7105L119.052 25.736C118.116 26.8103 117.12 27.8294 116.066 28.7883C115.446 29.1275 115.056 28.7595 114.531 28.5991" fill="white"/>
<path fill-rule="evenodd" clip-rule="evenodd" d="M11.0916 41.3427L11.5531 41.6542C12.8223 40.4047 13.1217 39.9235 13.9224 43.176C14.1532 44.1095 14.4993 45.2529 14.6355 46.1724L5.04003 40.5275C4.58717 41.3531 2.76997 44.1816 2.58594 44.7717L3.06937 45.0163C4.15623 44.4585 3.25975 43.6081 6.91204 45.8413C8.13967 46.5912 9.41806 47.3199 10.7016 48.0819C11.9852 48.844 13.2117 49.5657 14.4947 50.3237C16.6159 51.5773 17.6099 51.7723 17.1922 53.4228L17.6538 53.6478C18.8074 51.9015 19.8641 50.0931 20.8192 48.2308C19.7808 47.756 20.1748 48.8169 19.1271 48.7327C18.7008 48.698 16.9055 47.5523 16.4457 47.2904C15.7575 46.8947 15.7212 46.9408 15.5331 46.0213C16.7555 45.9682 20.5163 45.3775 21.2311 45.8817C21.2997 46.4407 21.1157 46.5318 21.0136 47.0424L21.4243 47.2154C22.5638 45.5371 23.6011 43.7915 24.5303 41.9882C23.7019 41.5671 24.6728 41.9473 22.4108 42.1544C20.3161 42.3465 16.5375 42.7832 14.7756 42.827C14.6453 41.8855 14.3966 40.8264 14.2039 39.8918C13.8942 38.3919 14.4174 37.3875 14.3303 36.862L13.9299 36.6479L11.0916 41.3427Z" fill="white"/>
<path fill-rule="evenodd" clip-rule="evenodd" d="M139.375 80.9657C140.794 80.9518 138.869 79.5811 141.788 79.6625C142.394 79.6792 142.999 79.6954 143.603 79.7063C144.499 79.7225 144.561 79.7911 144.96 80.3236C143.519 81.4215 142.002 82.4143 140.419 83.2946C139.312 83.41 140.476 82.037 139.218 82.2198L139.031 88.2374C139.981 88.3037 139.377 88.1428 140.059 87.6426L145.095 84.2332C145.763 83.7186 146.473 83.2594 147.216 82.8602C147.988 83.7094 149.658 85.4602 150.074 86.5119C150.412 87.3663 150.095 87.878 150.956 87.7868L151.166 82.255C150.024 82.2648 150.776 82.7794 150.083 83.6609C149.311 84.1092 147.336 81.4687 146.737 80.923C146.357 80.6089 146.035 80.2303 145.786 79.8044L156.862 80.0877L156.967 76.4607C157.036 76.043 157.002 75.615 156.87 75.2129C156.019 75.2129 156.448 75.0935 156.19 75.7829C156.156 75.9359 156.073 76.0741 155.955 76.1777C155.838 76.2812 155.69 76.345 155.534 76.3598C154.912 76.5138 144.681 76.129 143.239 76.0881C142.143 76.0575 140.615 76.234 140.191 75.4079C139.845 74.7295 140.358 74.7012 139.499 74.7445C139.292 76.6753 139.212 78.6177 139.261 80.559L139.34 80.8665C139.35 80.8992 139.363 80.931 139.379 80.9611" fill="white"/>
<path fill-rule="evenodd" clip-rule="evenodd" d="M18.5133 130.384L18.0051 129.972L14.1445 133.965L14.6418 134.502C16.3771 133.937 15.9992 135.072 17.8297 137.574C18.335 138.233 18.9658 138.785 19.6855 139.199C20.4052 139.612 21.1997 139.879 22.0231 139.984C25.1458 140.248 28.2755 137.139 26.8967 132.49C25.9852 129.416 24.2961 126.753 26.2258 125.07C28.5749 123.023 31.2851 125.198 31.7461 127.873C32.2203 130.626 30.5773 132.257 30.4088 133.203L30.7959 133.519C31.2718 133.309 34.8341 129.657 35.3632 129.049L34.852 128.516C33.7381 129.05 33.5673 128.293 33.0821 127.513C32.6855 126.838 32.2452 126.189 31.7639 125.572C30.8467 124.464 29.7754 123.225 27.994 122.711C24.6272 121.739 20.713 124.375 21.3193 128.927C21.726 131.975 25.2301 137.148 21.6274 138.33C19.3515 139.08 16.9984 136.332 17.6549 132.918C17.828 132.018 18.4764 130.909 18.5133 130.38" fill="white"/>
<path fill-rule="evenodd" clip-rule="evenodd" d="M2.54261 71.1172L0.784819 70.9067C0.718477 71.4755 -0.0724407 75.3868 0.171584 75.8639C1.49843 76.0001 -0.00148292 74.4407 2.75952 74.8422C3.90118 75.009 10.4189 75.7912 10.915 76.337C11.4262 76.9 10.9364 77.658 11.6309 77.6061C11.9546 77.4642 11.8352 77.7746 11.9736 77.065C12.0215 76.8215 12.0515 76.4558 12.0919 76.1887C12.254 75.1163 12.8643 72.0351 12.6797 71.4582C11.5133 71.3428 12.6497 72.6939 10.206 72.3281L4.13713 71.4051C3.22334 71.2522 2.6176 70.2623 2.55414 69.3468C2.38108 66.8661 5.77377 68.0043 7.53156 68.2714C8.54689 68.4255 9.55068 68.5772 10.5579 68.7283C13.0801 69.1074 11.864 69.8867 12.5961 70.3246C13.177 70.3165 12.8845 70.6084 13.0634 69.9306L13.8133 64.7663C13.7303 63.8848 14.0574 65.4718 13.7274 64.4495C13.7164 64.4135 13.7004 64.3791 13.6801 64.3474C12.7628 64.213 13.638 65.3253 11.8727 65.282C7.94981 65.1862 2.0436 62.0635 1.07846 66.9971C0.92698 67.7519 0.982979 68.5337 1.2405 69.2592C1.49801 69.9847 1.94742 70.6268 2.54088 71.1172" fill="white"/>
<path fill-rule="evenodd" clip-rule="evenodd" d="M21.5306 27.4908L21.8923 27.7268C22.3878 27.5179 22.8961 26.6497 23.6408 27.4291L25.6519 30.9683C26.02 31.5695 26.3446 32.1963 26.6233 32.8438C24.4842 32.1982 22.3887 31.416 20.3497 30.5022C20.1726 29.6819 20.5868 29.4788 20.7875 28.9481L20.4414 28.7011C18.8901 30.2184 17.4416 31.8372 16.1055 33.547L16.4966 33.8355C17.3562 33.3047 17.4865 33.4374 18.6213 33.7778C20.0635 34.2128 28.6927 37.1486 29.0861 37.5478C29.465 38.1147 29.7946 38.713 30.0714 39.3361C30.3778 40.0244 30.71 40.9041 29.9728 41.4187C29.1611 41.3126 29.1847 40.5955 28.1769 40.7449C26.024 41.0633 26.7762 44.7514 29.2511 44.0182C29.8137 43.8172 30.3145 43.4735 30.7044 43.0207C31.0943 42.568 31.3598 42.0217 31.475 41.4354C31.6129 40.2817 30.7002 38.6964 30.2566 37.8224C29.1703 35.6879 28.0644 33.5626 26.9493 31.4812L24.4796 26.7086C24.0181 25.7469 24.2258 25.7279 24.4935 24.8781L24.0821 24.521L22.7553 25.9419C22.3751 26.4034 21.6984 26.9607 21.5288 27.4926" fill="white"/>
<path fill-rule="evenodd" clip-rule="evenodd" d="M21.6512 114.695C22.1127 116.434 21.4273 116.368 19.2727 117.878L8.38672 125.302C8.77898 126.019 9.22241 126.707 9.71357 127.36C10.201 128.062 10.6822 128.813 11.1143 129.398L11.6213 129.162C11.4269 127.947 11.3727 127.763 12.2369 127.126L22.9907 119.784C24.2022 119.007 24.5362 119.429 25.1431 119.831L25.5867 119.556C25.0623 118.488 22.7923 115.625 22.1831 114.442L21.6512 114.695Z" fill="white"/>
<path fill-rule="evenodd" clip-rule="evenodd" d="M33.9922 17.0281L35.146 19.5439C35.3335 19.9656 35.3583 20.1069 35.6732 20.3515L36.1117 20.0983C36.1117 18.6186 35.5584 17.8646 36.6522 16.7962C37.3943 16.1294 38.2372 15.5843 39.1496 15.1809C39.1721 17.2704 39.0342 19.481 38.969 21.5843C38.9113 23.4442 38.5242 26.1902 39.0146 27.7761C39.9053 27.6388 46.2973 23.7915 47.8185 23.161L46.2609 19.3004L45.6742 19.5543C45.6165 21.5497 46.4559 23.4073 42.5313 25.0451C42.236 21.8722 43.1948 14.593 42.5192 12.5029C41.8408 12.6385 35.135 16.4033 33.9951 17.0281" fill="white"/>
<path fill-rule="evenodd" clip-rule="evenodd" d="M95.1243 11.0703C96.5164 11.5566 95.8247 10.0429 97.7204 9.48099C98.5695 9.22947 100.723 9.78732 101.318 10.1536L93.1052 17.404C92.6679 17.7669 92.2733 17.9232 92.1055 18.6836C92.4326 18.9357 100.706 21.7295 101.54 21.8876L103.184 18.1119L102.428 17.8915C101.901 18.8167 101.069 19.5304 100.075 19.9106C99.132 20.191 97.0523 19.8333 96.4448 19.2668L103.368 13.075C103.74 12.7289 104.073 12.4479 104.511 12.0476C105.049 11.5561 105.366 11.6316 105.531 10.7207L96.5568 7.63379C96.2424 7.93493 95.2455 10.5252 95.1243 11.0732" fill="white"/>
<path fill-rule="evenodd" clip-rule="evenodd" d="M75.0733 8.42443C76.6118 8.43597 75.4771 7.24988 77.052 6.16994C77.9427 5.55786 79.5534 5.64382 80.7441 5.68132C80.2731 6.61639 79.7354 7.51636 79.1352 8.37424L75.8169 13.7393C75.3485 14.5274 74.4179 15.6067 74.4023 16.6059L84.2562 16.9313C84.5354 16.3394 84.8187 13.5963 84.8331 12.7973C83.8345 12.7655 84.1322 12.9807 83.6741 13.8737C82.623 15.9217 81.1854 16.1202 78.7821 15.9557C78.8865 15.5202 83.0119 8.85364 83.5974 7.89139C84.0393 7.16508 85.0731 5.87227 84.9277 4.98328L75.4511 4.72021C75.105 5.52209 75.094 7.4368 75.0721 8.4227" fill="white"/>
<path fill-rule="evenodd" clip-rule="evenodd" d="M124.77 39.5519C124.979 40.1 127.087 42.9216 127.686 43.7632L128.765 45.1235L129.075 44.9251C129.093 43.863 127.777 43.8671 129.441 42.3983C130.042 41.8681 130.929 41.3299 131.68 40.7761C132.395 40.2494 133.202 39.6535 133.939 39.1746C134.797 38.6174 136.009 38.2764 136.718 39.1873C136.872 40.3613 135.771 41.3259 137.153 42.2627C139.68 43.9749 142.535 38.071 135.769 37.8207C136.238 37.4056 136.729 37.0155 137.24 36.6519C136.375 35.2836 135.438 33.9623 134.432 32.6938C133.099 33.239 135.485 33.4888 133.07 35.2899C132.164 35.9654 131.274 36.5804 130.389 37.1936C129.443 37.8501 128.658 38.4518 127.712 39.0973C125.375 40.7034 125.645 38.6439 124.77 39.545" fill="white"/>
<path fill-rule="evenodd" clip-rule="evenodd" d="M132.789 108.27L133.224 108.473C133.616 108.058 133.752 107.58 134.14 107.394C134.409 107.313 134.692 107.289 134.97 107.323C135.249 107.356 135.517 107.447 135.759 107.589L141.164 110.148C141.741 110.547 142.791 112.051 141.525 112.504C141.17 112.631 139.435 112.674 139.514 114.337C139.62 116.567 143.235 116.659 143.541 113.805C143.688 112.432 143.071 111.731 142.713 110.715L144.45 111.455L146.501 106.983L146.02 106.76C145.15 107.417 145.302 107.931 143.145 106.956C142.156 106.509 136.637 104.151 136.28 103.574C135.754 102.731 136.614 102.469 135.765 102.05C135.453 102.184 135.704 101.998 135.51 102.264L132.789 108.27Z" fill="white"/>
<path fill-rule="evenodd" clip-rule="evenodd" d="M5.57838 51.6147C5.20571 52.4979 6.18354 52.0525 5.46877 53.1694C4.57344 54.5689 3.39196 56.2396 4.20711 58.3153C4.95015 60.2098 7.33963 61.5949 9.86064 59.7321C11.4183 58.5818 13.652 55.2681 15.2003 57.2157C16.0513 58.2858 15.1588 59.7615 14.5277 60.4157C13.5101 61.4703 12.5034 61.2741 10.9048 61.3278L10.7242 62.0304L14.7625 63.4334L14.9759 62.8369C14.0818 61.6191 14.5381 62.151 15.7882 60.1105C18.5619 55.5837 13.8585 52.4165 10.8448 54.2009C9.98302 54.8142 9.19614 55.5265 8.50034 56.3233C4.80823 60.0154 3.51657 54.3774 7.48097 53.4965C8.50149 53.2692 8.8932 53.7526 9.11184 52.8209C8.88108 52.6387 5.95971 51.4653 5.57838 51.6147Z" fill="white"/>
<path fill-rule="evenodd" clip-rule="evenodd" d="M118.637 126.622C118.876 127.776 122.213 135.493 122.834 137.525C123.128 138.489 122.739 138.512 122.648 139.158L122.963 139.439C123.976 138.644 124.912 137.753 125.756 136.78L125.483 136.445C124.322 136.786 124.034 137.959 122.869 134.952C122.303 133.688 121.81 132.392 121.391 131.072C122.439 131.397 126.559 133.289 127.179 133.885C127.303 134.669 126.955 134.799 126.624 135.215L126.966 135.664C127.43 135.424 130.342 132.483 131.135 131.794C131.461 131.511 131.57 131.524 131.654 131.111C130.806 130.469 131.323 131.421 130.045 131.04L119.137 126.209L118.637 126.622Z" fill="white"/>
<path fill-rule="evenodd" clip-rule="evenodd" d="M2.2301 96.9494L2.59297 96.864C2.69969 96.6257 2.64315 96.8576 2.65065 96.5306C2.65065 96.3656 2.61431 96.2104 2.62412 96.016C2.60742 95.8609 2.64403 95.7048 2.72792 95.5733C2.8118 95.4418 2.93797 95.3428 3.08563 95.2925C3.87193 94.9279 8.00824 95.6918 9.28202 95.8331C9.06252 96.1316 8.78435 96.3821 8.46456 96.5692L5.97066 98.4153C5.41755 98.8464 4.82247 99.2207 4.19442 99.5327C3.07121 99.8413 3.66829 98.2733 2.71238 98.5139C2.45278 98.7072 2.84449 99.7831 2.90795 100.027L3.75309 103.291C3.85117 103.692 3.9302 104.535 4.28037 104.804C5.17975 104.59 4.27749 104.182 5.18205 103.419C8.04978 101.011 11.5532 98.5439 14.6269 96.3338L14.489 95.5839C11.6415 95.0277 8.23034 94.7462 5.31647 94.3632C4.60632 94.2697 2.66738 94.1324 2.15337 93.6709C1.74378 93.3005 1.95089 93.0109 1.42765 93.1402C1.00075 93.2457 1.38207 94.0765 1.60648 94.9378C1.76859 95.5596 1.87935 96.5369 2.23125 96.9494" fill="white"/>
<path fill-rule="evenodd" clip-rule="evenodd" d="M54.7989 8.58165C55.4848 9.42506 55.2096 10.4554 55.1081 11.6928C55.0123 12.8645 54.9518 14.0281 54.8162 15.1807C54.2578 14.7111 50.9845 10.8136 50.831 9.99907C50.8887 9.44814 51.581 9.40372 51.9127 9.03393L51.7748 8.57588L46.1686 10.2794C45.4729 10.4848 45.6367 10.3192 45.6679 10.8794C46.3226 11.3703 46.0498 10.1485 48.2558 12.8206L50.4399 15.3393C51.1708 16.2445 51.8244 17.0302 52.5513 17.9354C53.2125 18.8375 53.928 19.6984 54.6939 20.5135L55.3631 20.3295C55.6469 18.049 55.7467 15.5661 55.9319 13.2625C55.9982 12.4295 56.1863 8.7051 56.514 8.08379C56.9449 7.26634 57.2784 7.95745 57.0863 6.96924L53.7882 7.90034C53.3751 8.04572 53.3359 7.92226 53.3936 8.29436C53.498 8.9647 53.6699 8.3457 54.7989 8.5828" fill="white"/>
<path fill-rule="evenodd" clip-rule="evenodd" d="M12.9366 104.748C9.73317 105.231 6.90641 107.565 6.95371 111.082C6.99698 114.295 10.0453 117.281 13.5032 116.804C16.4528 116.4 19.5369 113.92 19.4965 110.478C19.4555 107.005 16.6911 104.181 12.9366 104.748ZM10.1728 114.053C8.8511 114.145 7.82078 113.364 8.17614 111.972C8.63766 110.166 14.9137 107.601 16.2999 107.393C16.5819 107.327 16.8763 107.337 17.1534 107.421C17.4304 107.506 17.6804 107.662 17.878 107.873C18.0756 108.085 18.2139 108.345 18.279 108.627C18.3441 108.909 18.3336 109.204 18.2487 109.48C17.7214 111.47 11.3779 113.97 10.1728 114.053Z" fill="white"/>
<path fill-rule="evenodd" clip-rule="evenodd" d="M135.964 115.34C134.644 114.474 133.08 113.745 131.069 114.183C128.154 114.817 125.373 117.809 126.631 121.535C127.489 124.078 130.564 126.855 134.182 126.156C138.738 125.277 141.268 118.81 135.964 115.34ZM136.153 124.019C135.056 124.268 133.649 123.327 133.008 122.879C131.612 121.902 129.137 120.269 128.229 118.972C128.059 118.756 127.946 118.501 127.9 118.23C127.853 117.959 127.875 117.681 127.962 117.421C128.05 117.16 128.201 116.926 128.401 116.738C128.602 116.55 128.846 116.415 129.112 116.345C130.26 116.027 131.667 116.935 132.323 117.415C133.794 118.491 136.253 120.023 137.053 121.371C137.71 122.48 137.347 123.747 136.153 124.019Z" fill="white"/>
<path fill-rule="evenodd" clip-rule="evenodd" d="M155.1 63.9901C154.949 63.2558 155.104 62.86 154.388 62.9962L154.314 63.3192C154.199 64.7926 154.867 64.9109 152.377 65.4537C151.169 65.7828 149.942 66.0362 148.702 66.2123C149.14 65.2362 149.737 64.803 149.523 63.1975C148.817 57.9016 139.182 58.0418 137.322 62.9535C136.909 64.0587 136.943 65.2814 137.417 66.3617C137.628 66.7743 137.912 67.1456 138.254 67.4578C138.646 67.7393 139.017 68.0494 139.364 68.3855L137.856 68.7651C138.503 69.9642 139.046 71.2168 139.479 72.5091C139.724 73.2821 139.503 73.5435 140.287 73.3969C140.396 72.3354 140.095 72.0401 141.091 71.6622C141.795 71.4494 142.511 71.2797 143.236 71.154C146.728 70.3815 153.066 68.8245 156.018 68.3687C155.979 67.5986 155.321 65.0678 155.1 63.9901ZM146.735 66.6946L142.28 67.6638C140.918 67.9626 140.497 68.0941 139.496 67.1757C138.776 66.514 138.431 65.6118 139.25 64.7591C140.16 63.8113 142.964 63.1525 144.709 62.9165C145.762 62.774 147.074 62.7573 147.766 63.3706C148.754 64.2486 148.28 66.3433 146.736 66.6946H146.735Z" fill="white"/>
<path fill-rule="evenodd" clip-rule="evenodd" d="M9.1114 78.7861L8.80277 79.3457C9.0866 79.7074 9.92078 80.2307 10.3511 81.0066C10.5584 81.4025 10.6737 81.8401 10.6885 82.2868C10.7032 82.7334 10.6171 83.1777 10.4365 83.5864C9.94385 84.78 7.8284 85.6973 5.99446 85.5254L5.62236 79.0763C2.47139 79.2142 -0.249233 80.8324 0.0317129 84.1887C0.579759 90.7457 10.4873 90.9608 12.3651 85.6309C13.3983 82.6928 11.4726 79.7692 9.1114 78.7861ZM0.865897 84.0624C0.927048 82.3046 3.35749 82.3577 4.89606 82.3167L5.08759 85.7919C3.48498 85.8242 0.796671 86.0365 0.865897 84.0624Z" fill="white"/>
<path fill-rule="evenodd" clip-rule="evenodd" d="M18.3146 28.8165C18.7816 28.5385 19.148 28.1193 19.3611 27.6194C19.5198 27.0592 19.6196 26.1835 19.7292 25.5732C19.9178 24.5204 20.6026 22.1349 19.4275 21.738C19.1333 21.635 18.8121 21.6405 18.5216 21.7535C18.2311 21.8664 17.9906 22.0794 17.8433 22.3541C17.3749 23.2622 18.1537 27.2525 18.3146 28.8153" fill="white"/>
<path fill-rule="evenodd" clip-rule="evenodd" d="M150.96 95.7832C150.454 97.4395 150.839 97.7446 151.587 99.9599C151.962 101.07 152.583 103.39 154.077 102.264C155.556 101.15 153.251 98.873 152.107 97.271C151.764 96.7456 151.381 96.2482 150.96 95.7832Z" fill="white"/>
<path fill-rule="evenodd" clip-rule="evenodd" d="M142.881 46.061C141.723 45.1276 139.931 44.6379 138.847 46.136C137.856 47.5073 139.838 49.6937 141.312 48.3651C141.829 47.8996 141.927 46.7464 142.812 47.3239C143.851 48.0034 144.57 50.2527 142.829 51.0887C142.146 51.4476 141.436 51.7516 140.704 51.9978C139.544 50.844 136.454 46.4637 133.436 47.7225C133.066 47.8546 132.731 48.0694 132.458 48.3505C132.184 48.6316 131.978 48.9716 131.855 49.3445C131.733 49.7174 131.697 50.1134 131.751 50.5021C131.805 50.8909 131.947 51.2622 132.166 51.5877C132.854 52.8958 134.013 53.8939 135.408 54.3804C135.129 54.7784 134.735 54.9296 134.525 55.5711C134.377 56.1629 134.46 56.7885 134.755 57.322C135.117 58.0598 136.173 59.1467 137.312 59.1103L137.497 58.6886C137.296 58.4527 137.215 58.5155 136.972 58.2975C137.013 57.4148 137.81 57.3289 138.593 56.9799C139.893 56.403 143.807 54.73 144.439 54.1433C146.788 51.9586 144.355 47.2494 142.881 46.061ZM136.857 53.8104C135.946 54.1514 134.419 53.0737 134.581 52.1374C134.956 49.9862 138.793 50.3237 139.874 52.4628C138.833 52.8268 137.844 53.4389 136.857 53.8104Z" fill="white"/>
<path fill-rule="evenodd" clip-rule="evenodd" d="M147.57 91.7719C144.821 91.236 144.699 94.8923 146.739 95.0602C147.299 95.1058 149.548 93.6716 148.869 96.5717C148.276 99.11 145.633 97.9216 144.366 97.6482C143.984 95.404 144.284 90.5916 141.122 89.8065C139.237 89.3392 138.133 90.4474 137.844 91.9306C137.428 94.0685 138.035 94.815 138.67 96.3726C137.337 96.4367 136.726 96.8988 136.444 98.131C136.213 99.1313 136.573 100.727 137.326 101.2L137.787 101.023C137.776 100.85 137.214 99.7827 138.595 100.042C139.172 100.151 139.864 100.331 140.462 100.469C141.681 100.749 142.894 101.003 144.104 101.285C145.542 101.619 146.574 101.832 147.631 100.881C150.285 98.4846 150.746 92.3915 147.57 91.7719ZM140.128 96.7038C139.191 96.405 138.775 94.5404 139.418 93.9959C140.42 93.1473 143.341 93.637 143.471 97.433C142.346 97.2475 141.23 97.0047 140.129 96.7055L140.128 96.7038Z" fill="white"/>
<path fill-rule="evenodd" clip-rule="evenodd" d="M72.8834 14.9911C71.5756 16.3243 71.6598 13.6977 71.455 11.8182C71.331 10.6812 71.132 7.72805 70.7051 6.8956C69.1475 3.84384 61.9854 4.82629 61.0808 7.70324C60.9646 8.08406 60.9416 8.48722 61.0138 8.87876C61.086 9.27031 61.2512 9.63877 61.4956 9.95312C62.5813 11.1242 64.8514 10.0991 64.3679 8.40647C64.151 7.64729 63.134 7.34673 63.6133 6.62965C64.1395 5.84277 66.9685 5.49952 67.3181 7.38365C67.4686 8.23068 67.5479 9.08882 67.5552 9.94908C65.0631 10.9875 61.1033 12.4937 61.2429 15.4192C61.3266 17.1648 62.6274 18.2367 64.5416 17.8998C66.6368 17.53 67.1318 16.652 68.2383 15.7272C68.855 16.7731 69.1175 17.4365 70.8406 17.215C71.3571 17.1296 71.846 16.923 72.2671 16.6122C72.6883 16.3013 73.0298 15.895 73.2636 15.4267L72.8834 14.9911ZM68.0577 14.5475C67.9141 15.163 66.4349 16.408 65.5967 15.6245C64.1181 14.24 65.2644 11.5286 67.715 10.8271C67.7681 11.4859 68.1564 14.1258 68.0577 14.5475Z" fill="white"/>
<path fill-rule="evenodd" clip-rule="evenodd" d="M108.964 14.0816C107.091 15.0491 107.345 18.0691 109.704 17.7593C112.035 17.453 110.031 14.8466 111.63 14.8327C112.118 14.8546 112.591 15.0045 113.002 15.2671C115.104 16.6049 113.529 18.2906 112.688 19.8563C110.679 19.6694 105.981 17.8372 104.271 20.6062C104.066 20.896 103.924 21.2248 103.853 21.5721C103.782 21.9193 103.783 22.2776 103.857 22.6243C103.931 22.971 104.076 23.2986 104.282 23.5867C104.489 23.8748 104.753 24.1171 105.058 24.2984C106.731 25.3218 107.76 25.1579 109.771 24.9387C109.514 26.3648 109.804 26.8638 110.606 27.4361C111.026 27.7236 111.504 27.9151 112.006 27.997C112.508 28.0788 113.022 28.049 113.511 27.9097C114.041 27.7632 113.994 27.8589 113.997 27.4787C114.004 26.7115 113.928 27.2411 113.478 27.087C112.501 26.7513 113.547 25.6535 114.585 23.8063C115.046 22.99 116.831 20.1205 116.944 19.2817C117.391 16.0073 111.659 12.6901 108.964 14.0816ZM110.758 23.2328C110.408 23.8674 110.404 24.0318 109.586 24.1351C108.963 24.213 108.216 24.1547 107.888 23.759C107.115 22.8284 108.045 19.7126 112.198 20.6576C111.763 21.512 111.237 22.3669 110.758 23.2328Z" fill="white"/>
<path fill-rule="evenodd" clip-rule="evenodd" d="M62.5593 0.688368C60.6169 1.45217 61.6975 4.50219 63.7933 3.65243C65.5049 2.96017 64.5525 -0.0944728 62.5593 0.688368Z" fill="white"/>
<path fill-rule="evenodd" clip-rule="evenodd" d="M67.648 0.089371C65.6076 0.766641 66.6258 3.7907 68.597 3.14978C70.5313 2.52097 69.6066 -0.560785 67.648 0.0922555" fill="white"/>
</g>
<defs>
<clipPath id="clip0_739_1429">
<rect width="156.982" height="140" fill="white"/>
</clipPath>
</defs>
</svg>
